# Blender 4.5.1 LTS
# www.blender.org
o shield
v -0.954463 -0.022794 0.431091
v -0.972297 0.599286 0.454815
v -0.972332 -0.160058 0.368663
v -0.997675 0.599286 0.375770
v -1.042058 0.599286 0.204136
v -1.000332 -0.360059 0.199577
v -0.988240 -0.266070 0.287033
v -1.021465 0.599286 0.289045
v -0.997854 0.510555 0.375770
v -1.042063 0.510555 0.204136
v -1.021570 0.510555 0.289045
v -0.972362 0.510555 0.454815
v -0.977503 0.116759 0.368663
v -1.005170 -0.269908 0.199577
v -0.992187 -0.143103 0.287033
v -0.957201 0.116759 0.449299
v -1.058853 0.599286 0.095333
v -1.007456 -0.443685 0.099762
v -1.058853 0.510555 0.095333
v -1.012561 -0.360875 0.099762
v -0.975471 -0.000539 0.355565
v -0.881719 -0.022567 0.422796
v -0.899751 0.599373 0.446724
v -0.899893 -0.160765 0.360368
v -0.925442 0.599373 0.367679
v -0.969611 0.599373 0.196045
v -0.927703 -0.362621 0.191282
v -0.915813 -0.268029 0.278738
v -0.949186 0.599373 0.280954
v -0.925442 0.510642 0.367679
v -0.969611 0.510642 0.196045
v -0.949186 0.510642 0.280954
v -0.899751 0.510642 0.446724
v -0.904665 0.116846 0.360368
v -0.932590 -0.272192 0.191282
v -0.919716 -0.144543 0.278738
v -0.884220 0.116846 0.441004
v -0.986009 0.599373 0.087243
v -0.934595 -0.445393 0.091467
v -0.986009 0.510642 0.087243
v -0.939654 -0.362598 0.091467
v -0.902758 -0.000385 0.347270
v -0.999703 0.510579 0.287034
v -1.020217 0.510579 0.202125
v -0.976085 0.510579 0.373759
v -1.036915 0.510579 0.093323
v -0.955595 0.116783 0.366602
v -0.983296 -0.270466 0.197515
v -0.970341 -0.143395 0.284972
v -0.990607 -0.361311 0.097701
v -0.953570 -0.000484 0.353504
v -0.961674 0.510629 0.282110
v -0.982070 0.510629 0.197201
v -0.937960 0.510629 0.368834
v -0.998491 0.510629 0.088398
v -0.917196 0.116833 0.361553
v -0.945029 -0.271963 0.192466
v -0.932120 -0.144454 0.279923
v -0.952145 -0.362360 0.092652
v -0.915202 -0.000400 0.348455
v -0.954463 -0.022794 -0.431091
v -0.972297 0.599286 -0.454815
v -1.012840 -0.480070 -0.000000
v -1.066234 0.599286 -0.000000
v -0.972332 -0.160058 -0.368663
v -0.997675 0.599286 -0.375770
v -1.042058 0.599286 -0.204136
v -1.000332 -0.360059 -0.199577
v -0.988240 -0.266070 -0.287033
v -1.021465 0.599286 -0.289045
v -0.997854 0.510555 -0.375770
v -1.042063 0.510555 -0.204136
v -1.021570 0.510555 -0.289045
v -0.972362 0.510555 -0.454815
v -1.066235 0.510555 -0.000000
v -0.977503 0.116759 -0.368663
v -1.005170 -0.269908 -0.199577
v -0.992187 -0.143103 -0.287033
v -0.957201 0.116759 -0.449299
v -1.015181 -0.392143 -0.000000
v -1.058853 0.599286 -0.095333
v -1.007456 -0.443685 -0.099762
v -1.058853 0.510555 -0.095333
v -1.012561 -0.360875 -0.099762
v -0.975471 -0.000539 -0.355565
v -0.881719 -0.022567 -0.422796
v -0.899751 0.599373 -0.446724
v -0.939569 -0.479983 -0.000000
v -0.992904 0.599373 -0.000000
v -0.899893 -0.160765 -0.360368
v -0.925442 0.599373 -0.367679
v -0.969611 0.599373 -0.196045
v -0.927703 -0.362621 -0.191282
v -0.915813 -0.268029 -0.278738
v -0.949186 0.599373 -0.280954
v -0.925442 0.510642 -0.367679
v -0.969611 0.510642 -0.196045
v -0.949186 0.510642 -0.280954
v -0.899751 0.510642 -0.446724
v -0.992904 0.510642 -0.000000
v -0.904665 0.116846 -0.360368
v -0.932590 -0.272192 -0.191282
v -0.919716 -0.144543 -0.278738
v -0.884220 0.116846 -0.441004
v -0.942098 -0.392056 -0.000000
v -0.986009 0.599373 -0.087243
v -0.934595 -0.445393 -0.091467
v -0.986009 0.510642 -0.087243
v -0.939654 -0.362598 -0.091467
v -0.902758 -0.000385 -0.347270
v -0.993179 -0.392120 -0.000000
v -1.044172 0.510579 -0.000000
v -0.999703 0.510579 -0.287034
v -1.020217 0.510579 -0.202125
v -0.976085 0.510579 -0.373759
v -1.036915 0.510579 -0.093323
v -0.955595 0.116783 -0.366602
v -0.983296 -0.270466 -0.197515
v -0.970341 -0.143395 -0.284972
v -0.990607 -0.361311 -0.097701
v -0.953570 -0.000484 -0.353504
v -0.954611 -0.392070 -0.000000
v -1.005453 0.510629 -0.000000
v -0.961674 0.510629 -0.282110
v -0.982070 0.510629 -0.197201
v -0.937960 0.510629 -0.368834
v -0.998491 0.510629 -0.088398
v -0.917196 0.116833 -0.361553
v -0.945029 -0.271963 -0.192466
v -0.932120 -0.144454 -0.279923
v -0.952145 -0.362360 -0.092652
v -0.915202 -0.000400 -0.348455
v 0.431091 -0.022794 0.954463
v 0.454815 0.599286 0.972297
v 0.368663 -0.160058 0.972332
v 0.375770 0.599286 0.997675
v 0.204136 0.599286 1.042058
v 0.199577 -0.360059 1.000332
v 0.287033 -0.266070 0.988240
v 0.289045 0.599286 1.021465
v 0.375770 0.510555 0.997854
v 0.204136 0.510555 1.042063
v 0.289045 0.510555 1.021570
v 0.454815 0.510555 0.972362
v 0.368663 0.116759 0.977503
v 0.199577 -0.269908 1.005170
v 0.287033 -0.143103 0.992187
v 0.449299 0.116759 0.957201
v 0.095333 0.599286 1.058853
v 0.099762 -0.443685 1.007456
v 0.095333 0.510555 1.058853
v 0.099762 -0.360875 1.012561
v 0.355565 -0.000539 0.975471
v 0.422796 -0.022567 0.881719
v 0.446724 0.599373 0.899751
v 0.360368 -0.160765 0.899893
v 0.367679 0.599373 0.925442
v 0.196045 0.599373 0.969611
v 0.191282 -0.362621 0.927703
v 0.278738 -0.268029 0.915813
v 0.280954 0.599373 0.949186
v 0.367679 0.510642 0.925442
v 0.196045 0.510642 0.969611
v 0.280954 0.510642 0.949186
v 0.446724 0.510642 0.899751
v 0.360368 0.116846 0.904665
v 0.191282 -0.272192 0.932590
v 0.278738 -0.144543 0.919716
v 0.441004 0.116846 0.884220
v 0.087243 0.599373 0.986009
v 0.091467 -0.445393 0.934595
v 0.087243 0.510642 0.986009
v 0.091467 -0.362598 0.939654
v 0.347270 -0.000385 0.902758
v 0.287034 0.510579 0.999703
v 0.202125 0.510579 1.020217
v 0.373759 0.510579 0.976085
v 0.093323 0.510579 1.036915
v 0.366602 0.116783 0.955595
v 0.197515 -0.270466 0.983296
v 0.284972 -0.143395 0.970341
v 0.097701 -0.361311 0.990607
v 0.353504 -0.000484 0.953570
v 0.282110 0.510629 0.961674
v 0.197201 0.510629 0.982070
v 0.368834 0.510629 0.937960
v 0.088398 0.510629 0.998491
v 0.361553 0.116833 0.917196
v 0.192466 -0.271963 0.945029
v 0.279923 -0.144454 0.932120
v 0.092652 -0.362360 0.952145
v 0.348455 -0.000400 0.915202
v -0.431091 -0.022794 0.954463
v -0.454815 0.599286 0.972297
v 0.000000 -0.480070 1.012840
v 0.000000 0.599286 1.066234
v -0.368663 -0.160058 0.972332
v -0.375770 0.599286 0.997675
v -0.204136 0.599286 1.042058
v -0.199577 -0.360059 1.000332
v -0.287033 -0.266070 0.988240
v -0.289045 0.599286 1.021465
v -0.375770 0.510555 0.997854
v -0.204136 0.510555 1.042063
v -0.289045 0.510555 1.021570
v -0.454815 0.510555 0.972362
v 0.000000 0.510555 1.066235
v -0.368663 0.116759 0.977503
v -0.199577 -0.269908 1.005170
v -0.287033 -0.143103 0.992187
v -0.449299 0.116759 0.957201
v 0.000000 -0.392143 1.015181
v -0.095333 0.599286 1.058853
v -0.099762 -0.443685 1.007456
v -0.095333 0.510555 1.058853
v -0.099762 -0.360875 1.012561
v -0.355565 -0.000539 0.975471
v -0.422796 -0.022567 0.881719
v -0.446724 0.599373 0.899751
v 0.000000 -0.479983 0.939569
v 0.000000 0.599373 0.992904
v -0.360368 -0.160765 0.899893
v -0.367679 0.599373 0.925442
v -0.196045 0.599373 0.969611
v -0.191282 -0.362621 0.927703
v -0.278738 -0.268029 0.915813
v -0.280954 0.599373 0.949186
v -0.367679 0.510642 0.925442
v -0.196045 0.510642 0.969611
v -0.280954 0.510642 0.949186
v -0.446724 0.510642 0.899751
v 0.000000 0.510642 0.992904
v -0.360368 0.116846 0.904665
v -0.191282 -0.272192 0.932590
v -0.278738 -0.144543 0.919716
v -0.441004 0.116846 0.884220
v 0.000000 -0.392056 0.942098
v -0.087243 0.599373 0.986009
v -0.091467 -0.445393 0.934595
v -0.087243 0.510642 0.986009
v -0.091467 -0.362598 0.939654
v -0.347270 -0.000385 0.902758
v 0.000000 -0.392120 0.993179
v 0.000000 0.510579 1.044172
v -0.287034 0.510579 0.999703
v -0.202125 0.510579 1.020217
v -0.373759 0.510579 0.976085
v -0.093323 0.510579 1.036915
v -0.366602 0.116783 0.955595
v -0.197515 -0.270466 0.983296
v -0.284972 -0.143395 0.970341
v -0.097701 -0.361311 0.990607
v -0.353504 -0.000484 0.953570
v 0.000000 -0.392070 0.954611
v 0.000000 0.510629 1.005453
v -0.282110 0.510629 0.961674
v -0.197201 0.510629 0.982070
v -0.368834 0.510629 0.937960
v -0.088398 0.510629 0.998491
v -0.361553 0.116833 0.917196
v -0.192466 -0.271963 0.945029
v -0.279923 -0.144454 0.932120
v -0.092652 -0.362360 0.952145
v -0.348455 -0.000400 0.915202
v 0.954463 -0.022794 -0.431091
v 0.972297 0.599286 -0.454815
v 0.972332 -0.160058 -0.368663
v 0.997675 0.599286 -0.375770
v 1.042058 0.599286 -0.204136
v 1.000332 -0.360059 -0.199577
v 0.988240 -0.266070 -0.287033
v 1.021465 0.599286 -0.289045
v 0.997854 0.510555 -0.375770
v 1.042063 0.510555 -0.204136
v 1.021570 0.510555 -0.289045
v 0.972362 0.510555 -0.454815
v 0.977503 0.116759 -0.368663
v 1.005170 -0.269908 -0.199577
v 0.992187 -0.143103 -0.287033
v 0.957201 0.116759 -0.449299
v 1.058853 0.599286 -0.095333
v 1.007456 -0.443685 -0.099762
v 1.058853 0.510555 -0.095333
v 1.012561 -0.360875 -0.099762
v 0.975471 -0.000539 -0.355565
v 0.881719 -0.022567 -0.422796
v 0.899751 0.599373 -0.446724
v 0.899893 -0.160765 -0.360368
v 0.925442 0.599373 -0.367679
v 0.969611 0.599373 -0.196045
v 0.927703 -0.362621 -0.191282
v 0.915813 -0.268029 -0.278738
v 0.949186 0.599373 -0.280954
v 0.925442 0.510642 -0.367679
v 0.969611 0.510642 -0.196045
v 0.949186 0.510642 -0.280954
v 0.899751 0.510642 -0.446724
v 0.904665 0.116846 -0.360368
v 0.932590 -0.272192 -0.191282
v 0.919716 -0.144543 -0.278738
v 0.884220 0.116846 -0.441004
v 0.986009 0.599373 -0.087243
v 0.934595 -0.445393 -0.091467
v 0.986009 0.510642 -0.087243
v 0.939654 -0.362598 -0.091467
v 0.902758 -0.000385 -0.347270
v 0.999703 0.510579 -0.287034
v 1.020217 0.510579 -0.202125
v 0.976085 0.510579 -0.373759
v 1.036915 0.510579 -0.093323
v 0.955595 0.116783 -0.366602
v 0.983296 -0.270466 -0.197515
v 0.970341 -0.143395 -0.284972
v 0.990607 -0.361311 -0.097701
v 0.953570 -0.000484 -0.353504
v 0.961674 0.510629 -0.282110
v 0.982070 0.510629 -0.197201
v 0.937960 0.510629 -0.368834
v 0.998491 0.510629 -0.088398
v 0.917196 0.116833 -0.361553
v 0.945029 -0.271963 -0.192466
v 0.932120 -0.144454 -0.279923
v 0.952145 -0.362360 -0.092652
v 0.915202 -0.000400 -0.348455
v 0.954463 -0.022794 0.431091
v 0.972297 0.599286 0.454815
v 1.012840 -0.480070 -0.000000
v 1.066234 0.599286 -0.000000
v 0.972332 -0.160058 0.368663
v 0.997675 0.599286 0.375770
v 1.042058 0.599286 0.204136
v 1.000332 -0.360059 0.199577
v 0.988240 -0.266070 0.287033
v 1.021465 0.599286 0.289045
v 0.997854 0.510555 0.375770
v 1.042063 0.510555 0.204136
v 1.021570 0.510555 0.289045
v 0.972362 0.510555 0.454815
v 1.066235 0.510555 -0.000000
v 0.977503 0.116759 0.368663
v 1.005170 -0.269908 0.199577
v 0.992187 -0.143103 0.287033
v 0.957201 0.116759 0.449299
v 1.015181 -0.392143 -0.000000
v 1.058853 0.599286 0.095333
v 1.007456 -0.443685 0.099762
v 1.058853 0.510555 0.095333
v 1.012561 -0.360875 0.099762
v 0.975471 -0.000539 0.355565
v 0.881719 -0.022567 0.422796
v 0.899751 0.599373 0.446724
v 0.939569 -0.479983 -0.000000
v 0.992904 0.599373 -0.000000
v 0.899893 -0.160765 0.360368
v 0.925442 0.599373 0.367679
v 0.969611 0.599373 0.196045
v 0.927703 -0.362621 0.191282
v 0.915813 -0.268029 0.278738
v 0.949186 0.599373 0.280954
v 0.925442 0.510642 0.367679
v 0.969611 0.510642 0.196045
v 0.949186 0.510642 0.280954
v 0.899751 0.510642 0.446724
v 0.992904 0.510642 -0.000000
v 0.904665 0.116846 0.360368
v 0.932590 -0.272192 0.191282
v 0.919716 -0.144543 0.278738
v 0.884220 0.116846 0.441004
v 0.942098 -0.392056 -0.000000
v 0.986009 0.599373 0.087243
v 0.934595 -0.445393 0.091467
v 0.986009 0.510642 0.087243
v 0.939654 -0.362598 0.091467
v 0.902758 -0.000385 0.347270
v 0.993179 -0.392120 -0.000000
v 1.044172 0.510579 -0.000000
v 0.999703 0.510579 0.287034
v 1.020217 0.510579 0.202125
v 0.976085 0.510579 0.373759
v 1.036915 0.510579 0.093323
v 0.955595 0.116783 0.366602
v 0.983296 -0.270466 0.197515
v 0.970341 -0.143395 0.284972
v 0.990607 -0.361311 0.097701
v 0.953570 -0.000484 0.353504
v 0.954611 -0.392070 -0.000000
v 1.005453 0.510629 -0.000000
v 0.961674 0.510629 0.282110
v 0.982070 0.510629 0.197201
v 0.937960 0.510629 0.368834
v 0.998491 0.510629 0.088398
v 0.917196 0.116833 0.361553
v 0.945029 -0.271963 0.192466
v 0.932120 -0.144454 0.279923
v 0.952145 -0.362360 0.092652
v 0.915202 -0.000400 0.348455
v -0.431091 -0.022794 -0.954463
v -0.454815 0.599286 -0.972297
v -0.368663 -0.160058 -0.972332
v -0.375770 0.599286 -0.997675
v -0.204136 0.599286 -1.042058
v -0.199577 -0.360059 -1.000332
v -0.287033 -0.266070 -0.988240
v -0.289045 0.599286 -1.021465
v -0.375770 0.510555 -0.997854
v -0.204136 0.510555 -1.042063
v -0.289045 0.510555 -1.021570
v -0.454815 0.510555 -0.972362
v -0.368663 0.116759 -0.977503
v -0.199577 -0.269908 -1.005170
v -0.287033 -0.143103 -0.992187
v -0.449299 0.116759 -0.957201
v -0.095333 0.599286 -1.058853
v -0.099762 -0.443685 -1.007456
v -0.095333 0.510555 -1.058853
v -0.099762 -0.360875 -1.012561
v -0.355565 -0.000539 -0.975471
v -0.422796 -0.022567 -0.881719
v -0.446724 0.599373 -0.899751
v -0.360368 -0.160765 -0.899893
v -0.367679 0.599373 -0.925442
v -0.196045 0.599373 -0.969611
v -0.191282 -0.362621 -0.927703
v -0.278738 -0.268029 -0.915813
v -0.280954 0.599373 -0.949186
v -0.367679 0.510642 -0.925442
v -0.196045 0.510642 -0.969611
v -0.280954 0.510642 -0.949186
v -0.446724 0.510642 -0.899751
v -0.360368 0.116846 -0.904665
v -0.191282 -0.272192 -0.932590
v -0.278738 -0.144543 -0.919716
v -0.441004 0.116846 -0.884220
v -0.087243 0.599373 -0.986009
v -0.091467 -0.445393 -0.934595
v -0.087243 0.510642 -0.986009
v -0.091467 -0.362598 -0.939654
v -0.347270 -0.000385 -0.902758
v -0.287034 0.510579 -0.999703
v -0.202125 0.510579 -1.020217
v -0.373759 0.510579 -0.976085
v -0.093323 0.510579 -1.036915
v -0.366602 0.116783 -0.955595
v -0.197515 -0.270466 -0.983296
v -0.284972 -0.143395 -0.970341
v -0.097701 -0.361311 -0.990607
v -0.353504 -0.000484 -0.953570
v -0.282110 0.510629 -0.961674
v -0.197201 0.510629 -0.982070
v -0.368834 0.510629 -0.937960
v -0.088398 0.510629 -0.998491
v -0.361553 0.116833 -0.917196
v -0.192466 -0.271963 -0.945029
v -0.279923 -0.144454 -0.932120
v -0.092652 -0.362360 -0.952145
v -0.348455 -0.000400 -0.915202
v 0.431091 -0.022794 -0.954463
v 0.454815 0.599286 -0.972297
v -0.000000 -0.480070 -1.012840
v -0.000000 0.599286 -1.066234
v 0.368663 -0.160058 -0.972332
v 0.375770 0.599286 -0.997675
v 0.204136 0.599286 -1.042058
v 0.199577 -0.360059 -1.000332
v 0.287033 -0.266070 -0.988240
v 0.289045 0.599286 -1.021465
v 0.375770 0.510555 -0.997854
v 0.204136 0.510555 -1.042063
v 0.289045 0.510555 -1.021570
v 0.454815 0.510555 -0.972362
v -0.000000 0.510555 -1.066235
v 0.368663 0.116759 -0.977503
v 0.199577 -0.269908 -1.005170
v 0.287033 -0.143103 -0.992187
v 0.449299 0.116759 -0.957201
v -0.000000 -0.392143 -1.015181
v 0.095333 0.599286 -1.058853
v 0.099762 -0.443685 -1.007456
v 0.095333 0.510555 -1.058853
v 0.099762 -0.360875 -1.012561
v 0.355565 -0.000539 -0.975471
v 0.422796 -0.022567 -0.881719
v 0.446724 0.599373 -0.899751
v -0.000000 -0.479983 -0.939569
v -0.000000 0.599373 -0.992904
v 0.360368 -0.160765 -0.899893
v 0.367679 0.599373 -0.925442
v 0.196045 0.599373 -0.969611
v 0.191282 -0.362621 -0.927703
v 0.278738 -0.268029 -0.915813
v 0.280954 0.599373 -0.949186
v 0.367679 0.510642 -0.925442
v 0.196045 0.510642 -0.969611
v 0.280954 0.510642 -0.949186
v 0.446724 0.510642 -0.899751
v -0.000000 0.510642 -0.992904
v 0.360368 0.116846 -0.904665
v 0.191282 -0.272192 -0.932590
v 0.278738 -0.144543 -0.919716
v 0.441004 0.116846 -0.884220
v -0.000000 -0.392056 -0.942098
v 0.087243 0.599373 -0.986009
v 0.091467 -0.445393 -0.934595
v 0.087243 0.510642 -0.986009
v 0.091467 -0.362598 -0.939654
v 0.347270 -0.000385 -0.902758
v -0.000000 -0.392120 -0.993179
v -0.000000 0.510579 -1.044172
v 0.287034 0.510579 -0.999703
v 0.202125 0.510579 -1.020217
v 0.373759 0.510579 -0.976085
v 0.093323 0.510579 -1.036915
v 0.366602 0.116783 -0.955595
v 0.197515 -0.270466 -0.983296
v 0.284972 -0.143395 -0.970341
v 0.097701 -0.361311 -0.990607
v 0.353504 -0.000484 -0.953570
v -0.000000 -0.392070 -0.954611
v -0.000000 0.510629 -1.005453
v 0.282110 0.510629 -0.961674
v 0.197201 0.510629 -0.982070
v 0.368834 0.510629 -0.937960
v 0.088398 0.510629 -0.998491
v 0.361553 0.116833 -0.917196
v 0.192466 -0.271963 -0.945029
v 0.279923 -0.144454 -0.932120
v 0.092652 -0.362360 -0.952145
v 0.348455 -0.000400 -0.915202
vn -0.0889 0.2803 -0.9558
vn -0.0890 0.2759 -0.9571
vn -0.0744 0.5049 -0.8600
vn -0.0740 0.5079 -0.8582
vn -0.9637 -0.0480 0.2627
vn -0.9565 -0.0232 0.2910
vn -0.9593 -0.0150 0.2821
vn -0.9639 -0.0480 0.2618
vn 0.0011 -1.0000 -0.0002
vn 0.0011 -1.0000 -0.0003
vn -0.9810 0.0003 0.1940
vn -0.9683 0.0011 0.2497
vn -0.9584 0.0014 0.2853
vn -0.9934 -0.0000 0.1149
vn -0.9519 0.0013 0.3063
vn -0.9678 -0.0234 0.2506
vn -0.9678 -0.0233 0.2506
vn -1.0000 -0.0000 -0.0000
vn -0.0565 0.6603 -0.7489
vn -0.0566 0.6591 -0.7500
vn -0.0257 0.8708 -0.4910
vn -0.0270 0.8639 -0.5029
vn -0.9737 -0.0182 0.2269
vn -0.9716 -0.0109 0.2363
vn -0.9931 -0.0532 0.1049
vn -0.9991 -0.0436 -0.0000
vn -0.9959 -0.0491 0.0759
vn -0.9843 -0.0471 0.1701
vn -0.9799 -0.0369 0.1962
vn -0.9876 -0.0548 0.1474
vn -0.0936 0.0625 -0.9936
vn -0.0936 0.0601 -0.9938
vn -0.0930 0.0135 -0.9956
vn 0.9632 0.0480 -0.2643
vn 0.9635 0.0480 -0.2633
vn 0.9588 0.0163 -0.2836
vn 0.9557 0.0244 -0.2933
vn -0.0779 0.5022 -0.8612
vn -0.0776 0.5057 -0.8592
vn -0.0904 0.2786 -0.9562
vn -0.0905 0.2743 -0.9574
vn 0.9815 -0.0000 -0.1916
vn 0.9685 -0.0000 -0.2490
vn 0.9580 -0.0000 -0.2867
vn 0.9935 -0.0000 -0.1140
vn 0.9510 -0.0000 -0.3091
vn 0.9676 0.0220 -0.2514
vn 0.9676 0.0219 -0.2514
vn 1.0000 -0.0000 -0.0000
vn 0.0010 -1.0000 -0.0003
vn 0.0010 -1.0000 -0.0002
vn -0.0606 0.6603 -0.7486
vn -0.0607 0.6594 -0.7493
vn 0.9738 0.0173 -0.2265
vn 0.9716 0.0096 -0.2362
vn 0.9932 0.0534 -0.1035
vn 0.9959 0.0495 -0.0757
vn 0.9990 0.0444 -0.0000
vn 0.9801 0.0366 -0.1950
vn 0.9846 0.0472 -0.1681
vn 0.9879 0.0550 -0.1448
vn 0.1113 -0.0049 0.9938
vn 0.1113 -0.0050 0.9938
vn 0.1108 -0.0000 0.9938
vn -0.0012 1.0000 0.0003
vn -0.0012 1.0000 0.0004
vn -0.0012 1.0000 0.0001
vn -0.0012 1.0000 -0.0000
vn 0.0703 -0.6491 0.7574
vn 0.0705 -0.6486 0.7579
vn 0.0911 -0.5177 0.8507
vn 0.0903 -0.5240 0.8469
vn 0.1123 -0.0670 0.9914
vn 0.1124 -0.0696 0.9912
vn -0.0012 1.0000 0.0002
vn 0.0099 -1.0000 -0.0000
vn 0.0294 -0.8687 0.4944
vn 0.0309 -0.8627 0.5048
vn 0.0560 -0.7283 0.6830
vn 0.0563 -0.7265 0.6849
vn 0.1082 -0.2794 0.9541
vn 0.1084 -0.2752 0.9553
vn -0.9951 -0.0531 0.0836
vn -0.9939 -0.0522 0.0976
vn -0.9985 -0.0546 -0.0000
vn -0.9710 -0.0464 0.2344
vn -0.9647 -0.0473 0.2592
vn -0.9826 -0.0480 0.1794
vn -0.9869 -0.0491 0.1540
vn -0.9542 -0.0485 0.2954
vn -0.0928 0.0132 -0.9956
vn -0.0932 0.0623 -0.9937
vn -0.0932 0.0599 -0.9938
vn 0.0011 -1.0000 -0.0001
vn -0.0053 1.0000 -0.0000
vn 0.0011 -1.0000 -0.0000
vn 0.9951 0.0530 -0.0834
vn 0.9985 0.0545 -0.0000
vn 0.9939 0.0522 -0.0969
vn 0.9711 0.0466 -0.2341
vn 0.9872 0.0492 -0.1520
vn 0.9829 0.0481 -0.1779
vn 0.9644 0.0476 -0.2601
vn 0.9534 0.0489 -0.2978
vn 0.0010 -1.0000 -0.0001
vn -0.0063 1.0000 -0.0000
vn -0.0292 0.8630 -0.5044
vn -0.0277 0.8699 -0.4925
vn 0.0010 -1.0000 -0.0000
vn -0.0889 0.2803 0.9558
vn -0.0740 0.5079 0.8582
vn -0.0744 0.5049 0.8600
vn -0.0890 0.2759 0.9571
vn -0.9637 -0.0480 -0.2627
vn -0.9639 -0.0480 -0.2618
vn -0.9593 -0.0150 -0.2821
vn -0.9565 -0.0232 -0.2910
vn 0.0011 -1.0000 0.0002
vn 0.0011 -1.0000 0.0003
vn -0.9810 0.0003 -0.1940
vn -0.9683 0.0011 -0.2497
vn -0.9584 0.0014 -0.2853
vn -0.9934 -0.0000 -0.1149
vn -0.9519 0.0013 -0.3063
vn -0.9678 -0.0234 -0.2506
vn -0.9678 -0.0233 -0.2506
vn -0.0566 0.6591 0.7500
vn -0.0565 0.6603 0.7489
vn -0.0270 0.8639 0.5029
vn -0.0257 0.8708 0.4910
vn -0.9737 -0.0182 -0.2269
vn -0.9716 -0.0109 -0.2363
vn -0.9931 -0.0532 -0.1049
vn -0.9959 -0.0491 -0.0759
vn -0.9799 -0.0369 -0.1962
vn -0.9843 -0.0471 -0.1701
vn -0.9876 -0.0548 -0.1474
vn -0.0936 0.0625 0.9936
vn -0.0930 0.0135 0.9956
vn -0.0936 0.0601 0.9938
vn 0.9632 0.0480 0.2643
vn 0.9557 0.0244 0.2933
vn 0.9588 0.0163 0.2836
vn 0.9635 0.0480 0.2633
vn -0.0779 0.5022 0.8612
vn -0.0905 0.2743 0.9574
vn -0.0904 0.2786 0.9562
vn -0.0776 0.5057 0.8592
vn 0.9815 -0.0000 0.1916
vn 0.9685 -0.0000 0.2490
vn 0.9580 -0.0000 0.2867
vn 0.9935 -0.0000 0.1140
vn 0.9510 -0.0000 0.3091
vn 0.9676 0.0220 0.2514
vn 0.9676 0.0219 0.2514
vn 0.0010 -1.0000 0.0003
vn 0.0010 -1.0000 0.0002
vn -0.0606 0.6603 0.7486
vn -0.0607 0.6594 0.7493
vn 0.9739 0.0173 0.2265
vn 0.9716 0.0096 0.2362
vn 0.9932 0.0534 0.1035
vn 0.9959 0.0495 0.0757
vn 0.9846 0.0472 0.1681
vn 0.9801 0.0366 0.1950
vn 0.9879 0.0550 0.1448
vn 0.1113 -0.0049 -0.9938
vn 0.1108 -0.0000 -0.9938
vn 0.1113 -0.0050 -0.9938
vn -0.0012 1.0000 -0.0003
vn -0.0012 1.0000 -0.0004
vn -0.0012 1.0000 -0.0001
vn 0.0703 -0.6491 -0.7574
vn 0.0903 -0.5240 -0.8469
vn 0.0911 -0.5177 -0.8507
vn 0.0705 -0.6486 -0.7579
vn 0.1123 -0.0670 -0.9914
vn 0.1124 -0.0696 -0.9912
vn -0.0012 1.0000 -0.0002
vn 0.0309 -0.8627 -0.5048
vn 0.0294 -0.8687 -0.4944
vn 0.0563 -0.7265 -0.6849
vn 0.0560 -0.7283 -0.6830
vn 0.1082 -0.2794 -0.9541
vn 0.1084 -0.2752 -0.9553
vn -0.9951 -0.0531 -0.0836
vn -0.9939 -0.0522 -0.0976
vn -0.9710 -0.0464 -0.2344
vn -0.9869 -0.0491 -0.1540
vn -0.9826 -0.0480 -0.1794
vn -0.9647 -0.0473 -0.2592
vn -0.9542 -0.0485 -0.2954
vn -0.0928 0.0132 0.9956
vn -0.0932 0.0599 0.9938
vn -0.0932 0.0623 0.9937
vn 0.0011 -1.0000 0.0001
vn 0.9951 0.0530 0.0834
vn 0.9939 0.0522 0.0969
vn 0.9711 0.0466 0.2341
vn 0.9644 0.0476 0.2601
vn 0.9829 0.0481 0.1779
vn 0.9872 0.0492 0.1520
vn 0.9534 0.0489 0.2978
vn 0.0010 -1.0000 0.0001
vn -0.0277 0.8699 0.4925
vn -0.0292 0.8630 0.5044
vn -0.9558 0.2803 0.0889
vn -0.9571 0.2759 0.0890
vn -0.8600 0.5049 0.0744
vn -0.8582 0.5079 0.0740
vn 0.2627 -0.0480 0.9637
vn 0.2910 -0.0232 0.9565
vn 0.2821 -0.0150 0.9593
vn 0.2618 -0.0480 0.9639
vn -0.0002 -1.0000 -0.0011
vn -0.0003 -1.0000 -0.0011
vn 0.1940 0.0003 0.9810
vn 0.2497 0.0011 0.9683
vn 0.2853 0.0014 0.9584
vn 0.1149 -0.0000 0.9934
vn 0.3063 0.0013 0.9519
vn 0.2506 -0.0234 0.9678
vn 0.2506 -0.0233 0.9678
vn -0.0000 -0.0000 1.0000
vn -0.7489 0.6603 0.0565
vn -0.7500 0.6591 0.0566
vn -0.4910 0.8708 0.0257
vn -0.5029 0.8639 0.0270
vn 0.2269 -0.0182 0.9737
vn 0.2363 -0.0109 0.9716
vn 0.1049 -0.0532 0.9931
vn -0.0000 -0.0436 0.9991
vn 0.0759 -0.0491 0.9959
vn 0.1701 -0.0470 0.9843
vn 0.1962 -0.0369 0.9799
vn 0.1474 -0.0548 0.9876
vn -0.9936 0.0625 0.0936
vn -0.9938 0.0601 0.0936
vn -0.9956 0.0135 0.0930
vn -0.2643 0.0480 -0.9632
vn -0.2633 0.0480 -0.9635
vn -0.2836 0.0163 -0.9588
vn -0.2933 0.0244 -0.9557
vn -0.8612 0.5022 0.0779
vn -0.8592 0.5057 0.0776
vn -0.9562 0.2786 0.0904
vn -0.9574 0.2743 0.0905
vn -0.1916 -0.0000 -0.9815
vn -0.2490 -0.0000 -0.9685
vn -0.2867 -0.0000 -0.9580
vn -0.1140 -0.0000 -0.9935
vn -0.3091 -0.0000 -0.9510
vn -0.2514 0.0220 -0.9676
vn -0.2514 0.0219 -0.9676
vn -0.0000 -0.0000 -1.0000
vn -0.0003 -1.0000 -0.0010
vn -0.0002 -1.0000 -0.0010
vn -0.7486 0.6603 0.0606
vn -0.7493 0.6594 0.0607
vn -0.2265 0.0173 -0.9739
vn -0.2362 0.0096 -0.9716
vn -0.1035 0.0534 -0.9932
vn -0.0757 0.0495 -0.9959
vn -0.0000 0.0444 -0.9990
vn -0.1950 0.0366 -0.9801
vn -0.1681 0.0472 -0.9846
vn -0.1448 0.0550 -0.9879
vn 0.9938 -0.0049 -0.1113
vn 0.9938 -0.0050 -0.1113
vn 0.9938 -0.0000 -0.1108
vn 0.0003 1.0000 0.0012
vn 0.0004 1.0000 0.0012
vn 0.0001 1.0000 0.0012
vn -0.0000 1.0000 0.0012
vn 0.7574 -0.6491 -0.0703
vn 0.7579 -0.6486 -0.0705
vn 0.8507 -0.5177 -0.0911
vn 0.8469 -0.5240 -0.0903
vn 0.9914 -0.0670 -0.1123
vn 0.9912 -0.0696 -0.1124
vn 0.0002 1.0000 0.0012
vn -0.0000 -1.0000 -0.0099
vn 0.4944 -0.8687 -0.0294
vn 0.5048 -0.8627 -0.0309
vn 0.6830 -0.7283 -0.0560
vn 0.6849 -0.7265 -0.0563
vn 0.9541 -0.2794 -0.1082
vn 0.9553 -0.2752 -0.1084
vn 0.0836 -0.0531 0.9951
vn 0.0976 -0.0522 0.9939
vn -0.0000 -0.0546 0.9985
vn 0.2344 -0.0464 0.9710
vn 0.2592 -0.0473 0.9647
vn 0.1794 -0.0480 0.9826
vn 0.1540 -0.0491 0.9869
vn 0.2954 -0.0485 0.9542
vn -0.9956 0.0132 0.0928
vn -0.9937 0.0623 0.0932
vn -0.9938 0.0599 0.0932
vn -0.0001 -1.0000 -0.0011
vn -0.0000 1.0000 0.0053
vn -0.0000 -1.0000 -0.0011
vn -0.0834 0.0530 -0.9951
vn -0.0000 0.0545 -0.9985
vn -0.0969 0.0522 -0.9939
vn -0.2341 0.0466 -0.9711
vn -0.1520 0.0492 -0.9872
vn -0.1779 0.0481 -0.9829
vn -0.2601 0.0476 -0.9644
vn -0.2978 0.0489 -0.9534
vn -0.0001 -1.0000 -0.0010
vn -0.0000 1.0000 0.0063
vn -0.5044 0.8630 0.0292
vn -0.4925 0.8699 0.0277
vn -0.0000 -1.0000 -0.0010
vn 0.9558 0.2803 0.0889
vn 0.8582 0.5079 0.0740
vn 0.8600 0.5049 0.0744
vn 0.9571 0.2759 0.0890
vn -0.2627 -0.0480 0.9637
vn -0.2618 -0.0480 0.9639
vn -0.2821 -0.0150 0.9593
vn -0.2910 -0.0232 0.9565
vn 0.0002 -1.0000 -0.0011
vn 0.0003 -1.0000 -0.0011
vn -0.1940 0.0003 0.9810
vn -0.2497 0.0011 0.9683
vn -0.2853 0.0014 0.9584
vn -0.1149 -0.0000 0.9934
vn -0.3063 0.0013 0.9519
vn -0.2506 -0.0234 0.9678
vn -0.2506 -0.0233 0.9678
vn 0.7500 0.6591 0.0566
vn 0.7489 0.6603 0.0565
vn 0.5029 0.8639 0.0270
vn 0.4910 0.8708 0.0257
vn -0.2269 -0.0182 0.9737
vn -0.2363 -0.0109 0.9716
vn -0.1049 -0.0532 0.9931
vn -0.0759 -0.0491 0.9959
vn -0.1962 -0.0369 0.9799
vn -0.1701 -0.0470 0.9843
vn -0.1474 -0.0548 0.9876
vn 0.9936 0.0625 0.0936
vn 0.9956 0.0135 0.0930
vn 0.9938 0.0601 0.0936
vn 0.2643 0.0480 -0.9632
vn 0.2933 0.0244 -0.9557
vn 0.2836 0.0163 -0.9588
vn 0.2633 0.0480 -0.9635
vn 0.8612 0.5022 0.0779
vn 0.9574 0.2743 0.0905
vn 0.9562 0.2786 0.0904
vn 0.8592 0.5057 0.0776
vn 0.1916 -0.0000 -0.9815
vn 0.2490 -0.0000 -0.9685
vn 0.2867 -0.0000 -0.9580
vn 0.1140 -0.0000 -0.9935
vn 0.3091 -0.0000 -0.9510
vn 0.2514 0.0220 -0.9676
vn 0.2514 0.0219 -0.9676
vn 0.0003 -1.0000 -0.0010
vn 0.0002 -1.0000 -0.0010
vn 0.7486 0.6603 0.0606
vn 0.7493 0.6594 0.0607
vn 0.2265 0.0173 -0.9739
vn 0.2362 0.0096 -0.9716
vn 0.1035 0.0534 -0.9932
vn 0.0757 0.0495 -0.9959
vn 0.1681 0.0472 -0.9846
vn 0.1950 0.0366 -0.9801
vn 0.1448 0.0550 -0.9879
vn -0.9938 -0.0049 -0.1113
vn -0.9938 -0.0000 -0.1108
vn -0.9938 -0.0050 -0.1113
vn -0.0003 1.0000 0.0012
vn -0.0004 1.0000 0.0012
vn -0.0001 1.0000 0.0012
vn -0.7574 -0.6491 -0.0703
vn -0.8469 -0.5240 -0.0903
vn -0.8507 -0.5177 -0.0911
vn -0.7579 -0.6486 -0.0705
vn -0.9914 -0.0670 -0.1123
vn -0.9912 -0.0696 -0.1124
vn -0.0002 1.0000 0.0012
vn -0.5048 -0.8627 -0.0309
vn -0.4944 -0.8687 -0.0294
vn -0.6849 -0.7265 -0.0563
vn -0.6830 -0.7283 -0.0560
vn -0.9541 -0.2794 -0.1082
vn -0.9553 -0.2752 -0.1084
vn -0.0836 -0.0531 0.9951
vn -0.0976 -0.0522 0.9939
vn -0.2344 -0.0464 0.9710
vn -0.1540 -0.0491 0.9869
vn -0.1794 -0.0480 0.9826
vn -0.2592 -0.0473 0.9647
vn -0.2954 -0.0485 0.9542
vn 0.9956 0.0132 0.0928
vn 0.9938 0.0599 0.0932
vn 0.9937 0.0623 0.0932
vn 0.0001 -1.0000 -0.0011
vn 0.0834 0.0530 -0.9951
vn 0.0969 0.0522 -0.9939
vn 0.2341 0.0466 -0.9711
vn 0.2601 0.0476 -0.9644
vn 0.1779 0.0481 -0.9829
vn 0.1520 0.0492 -0.9872
vn 0.2978 0.0489 -0.9534
vn 0.0001 -1.0000 -0.0010
vn 0.4925 0.8699 0.0277
vn 0.5044 0.8630 0.0292
vn 0.0889 0.2803 0.9558
vn 0.0890 0.2759 0.9571
vn 0.0744 0.5049 0.8600
vn 0.0740 0.5079 0.8582
vn 0.9637 -0.0480 -0.2627
vn 0.9565 -0.0232 -0.2910
vn 0.9593 -0.0150 -0.2821
vn 0.9639 -0.0480 -0.2618
vn -0.0011 -1.0000 0.0002
vn -0.0011 -1.0000 0.0003
vn 0.9810 0.0003 -0.1940
vn 0.9683 0.0011 -0.2497
vn 0.9584 0.0014 -0.2853
vn 0.9934 -0.0000 -0.1149
vn 0.9519 0.0013 -0.3063
vn 0.9678 -0.0234 -0.2506
vn 0.9678 -0.0233 -0.2506
vn 0.0565 0.6603 0.7489
vn 0.0566 0.6591 0.7500
vn 0.0257 0.8708 0.4910
vn 0.0270 0.8639 0.5029
vn 0.9737 -0.0182 -0.2269
vn 0.9716 -0.0109 -0.2363
vn 0.9931 -0.0532 -0.1049
vn 0.9991 -0.0436 -0.0000
vn 0.9959 -0.0491 -0.0759
vn 0.9843 -0.0471 -0.1701
vn 0.9799 -0.0369 -0.1962
vn 0.9876 -0.0548 -0.1474
vn 0.0936 0.0625 0.9936
vn 0.0936 0.0601 0.9938
vn 0.0930 0.0135 0.9956
vn -0.9632 0.0480 0.2643
vn -0.9635 0.0480 0.2633
vn -0.9588 0.0163 0.2836
vn -0.9557 0.0244 0.2933
vn 0.0779 0.5022 0.8612
vn 0.0776 0.5057 0.8592
vn 0.0904 0.2786 0.9562
vn 0.0905 0.2743 0.9574
vn -0.9815 -0.0000 0.1916
vn -0.9685 -0.0000 0.2490
vn -0.9580 -0.0000 0.2867
vn -0.9935 -0.0000 0.1140
vn -0.9510 -0.0000 0.3091
vn -0.9676 0.0220 0.2514
vn -0.9676 0.0219 0.2514
vn -0.0010 -1.0000 0.0003
vn -0.0010 -1.0000 0.0002
vn 0.0606 0.6603 0.7486
vn 0.0607 0.6594 0.7493
vn -0.9739 0.0173 0.2265
vn -0.9716 0.0096 0.2362
vn -0.9932 0.0534 0.1035
vn -0.9959 0.0495 0.0757
vn -0.9990 0.0444 -0.0000
vn -0.9801 0.0366 0.1950
vn -0.9846 0.0472 0.1681
vn -0.9879 0.0550 0.1448
vn -0.1113 -0.0049 -0.9938
vn -0.1113 -0.0050 -0.9938
vn -0.1108 -0.0000 -0.9938
vn 0.0012 1.0000 -0.0003
vn 0.0012 1.0000 -0.0004
vn 0.0012 1.0000 -0.0001
vn 0.0012 1.0000 -0.0000
vn -0.0703 -0.6491 -0.7574
vn -0.0705 -0.6486 -0.7579
vn -0.0911 -0.5177 -0.8507
vn -0.0903 -0.5240 -0.8469
vn -0.1123 -0.0670 -0.9914
vn -0.1124 -0.0696 -0.9912
vn 0.0012 1.0000 -0.0002
vn -0.0099 -1.0000 -0.0000
vn -0.0294 -0.8687 -0.4944
vn -0.0309 -0.8627 -0.5048
vn -0.0560 -0.7283 -0.6830
vn -0.0563 -0.7265 -0.6849
vn -0.1082 -0.2794 -0.9541
vn -0.1084 -0.2752 -0.9553
vn 0.9951 -0.0531 -0.0836
vn 0.9939 -0.0522 -0.0976
vn 0.9985 -0.0546 -0.0000
vn 0.9710 -0.0464 -0.2344
vn 0.9647 -0.0473 -0.2592
vn 0.9826 -0.0480 -0.1794
vn 0.9869 -0.0491 -0.1540
vn 0.9542 -0.0485 -0.2954
vn 0.0928 0.0132 0.9956
vn 0.0932 0.0623 0.9937
vn 0.0932 0.0599 0.9938
vn -0.0011 -1.0000 0.0001
vn 0.0053 1.0000 -0.0000
vn -0.0011 -1.0000 -0.0000
vn -0.9951 0.0530 0.0834
vn -0.9985 0.0545 -0.0000
vn -0.9939 0.0522 0.0969
vn -0.9711 0.0466 0.2341
vn -0.9872 0.0492 0.1520
vn -0.9829 0.0481 0.1779
vn -0.9644 0.0476 0.2601
vn -0.9534 0.0489 0.2978
vn -0.0010 -1.0000 0.0001
vn 0.0063 1.0000 -0.0000
vn 0.0292 0.8630 0.5044
vn 0.0277 0.8699 0.4925
vn -0.0010 -1.0000 -0.0000
vn 0.0889 0.2803 -0.9558
vn 0.0740 0.5079 -0.8582
vn 0.0744 0.5049 -0.8600
vn 0.0890 0.2759 -0.9571
vn 0.9637 -0.0480 0.2627
vn 0.9639 -0.0480 0.2618
vn 0.9593 -0.0150 0.2821
vn 0.9565 -0.0232 0.2910
vn -0.0011 -1.0000 -0.0002
vn -0.0011 -1.0000 -0.0003
vn 0.9810 0.0003 0.1940
vn 0.9683 0.0011 0.2497
vn 0.9584 0.0014 0.2853
vn 0.9934 -0.0000 0.1149
vn 0.9519 0.0013 0.3063
vn 0.9678 -0.0234 0.2506
vn 0.9678 -0.0233 0.2506
vn 0.0566 0.6591 -0.7500
vn 0.0565 0.6603 -0.7489
vn 0.0270 0.8639 -0.5029
vn 0.0257 0.8708 -0.4910
vn 0.9737 -0.0182 0.2269
vn 0.9716 -0.0109 0.2363
vn 0.9931 -0.0532 0.1049
vn 0.9959 -0.0491 0.0759
vn 0.9799 -0.0369 0.1962
vn 0.9843 -0.0471 0.1701
vn 0.9876 -0.0548 0.1474
vn 0.0936 0.0625 -0.9936
vn 0.0930 0.0135 -0.9956
vn 0.0936 0.0601 -0.9938
vn -0.9632 0.0480 -0.2643
vn -0.9557 0.0244 -0.2933
vn -0.9588 0.0163 -0.2836
vn -0.9635 0.0480 -0.2633
vn 0.0779 0.5022 -0.8612
vn 0.0905 0.2743 -0.9574
vn 0.0904 0.2786 -0.9562
vn 0.0776 0.5057 -0.8592
vn -0.9815 -0.0000 -0.1916
vn -0.9685 -0.0000 -0.2490
vn -0.9580 -0.0000 -0.2867
vn -0.9935 -0.0000 -0.1140
vn -0.9510 -0.0000 -0.3091
vn -0.9676 0.0220 -0.2514
vn -0.9676 0.0219 -0.2514
vn -0.0010 -1.0000 -0.0003
vn -0.0010 -1.0000 -0.0002
vn 0.0606 0.6603 -0.7486
vn 0.0607 0.6594 -0.7493
vn -0.9739 0.0173 -0.2265
vn -0.9716 0.0096 -0.2362
vn -0.9932 0.0534 -0.1035
vn -0.9959 0.0495 -0.0757
vn -0.9846 0.0472 -0.1681
vn -0.9801 0.0366 -0.1950
vn -0.9879 0.0550 -0.1448
vn -0.1113 -0.0049 0.9938
vn -0.1108 -0.0000 0.9938
vn -0.1113 -0.0050 0.9938
vn 0.0012 1.0000 0.0003
vn 0.0012 1.0000 0.0004
vn 0.0012 1.0000 0.0001
vn -0.0703 -0.6491 0.7574
vn -0.0903 -0.5240 0.8469
vn -0.0911 -0.5177 0.8507
vn -0.0705 -0.6486 0.7579
vn -0.1123 -0.0670 0.9914
vn -0.1124 -0.0696 0.9912
vn 0.0012 1.0000 0.0002
vn -0.0309 -0.8627 0.5048
vn -0.0294 -0.8687 0.4944
vn -0.0563 -0.7265 0.6849
vn -0.0560 -0.7283 0.6830
vn -0.1082 -0.2794 0.9541
vn -0.1084 -0.2752 0.9553
vn 0.9951 -0.0531 0.0836
vn 0.9939 -0.0522 0.0976
vn 0.9710 -0.0464 0.2344
vn 0.9869 -0.0491 0.1540
vn 0.9826 -0.0480 0.1794
vn 0.9647 -0.0473 0.2592
vn 0.9542 -0.0485 0.2954
vn 0.0928 0.0132 -0.9956
vn 0.0932 0.0599 -0.9938
vn 0.0932 0.0623 -0.9937
vn -0.0011 -1.0000 -0.0001
vn -0.9951 0.0530 -0.0834
vn -0.9939 0.0522 -0.0969
vn -0.9711 0.0466 -0.2341
vn -0.9644 0.0476 -0.2601
vn -0.9829 0.0481 -0.1779
vn -0.9872 0.0492 -0.1520
vn -0.9534 0.0489 -0.2978
vn -0.0010 -1.0000 -0.0001
vn 0.0277 0.8699 -0.4925
vn 0.0292 0.8630 -0.5044
vn 0.9558 0.2803 -0.0889
vn 0.9571 0.2759 -0.0890
vn 0.8600 0.5049 -0.0744
vn 0.8582 0.5079 -0.0740
vn -0.2627 -0.0480 -0.9637
vn -0.2910 -0.0232 -0.9565
vn -0.2821 -0.0150 -0.9593
vn -0.2618 -0.0480 -0.9639
vn 0.0002 -1.0000 0.0011
vn 0.0003 -1.0000 0.0011
vn -0.1940 0.0003 -0.9810
vn -0.2497 0.0011 -0.9683
vn -0.2853 0.0014 -0.9584
vn -0.1149 -0.0000 -0.9934
vn -0.3063 0.0013 -0.9519
vn -0.2506 -0.0234 -0.9678
vn -0.2506 -0.0233 -0.9678
vn 0.7489 0.6603 -0.0565
vn 0.7500 0.6591 -0.0566
vn 0.4910 0.8708 -0.0257
vn 0.5029 0.8639 -0.0270
vn -0.2269 -0.0182 -0.9737
vn -0.2363 -0.0109 -0.9716
vn -0.1049 -0.0532 -0.9931
vn -0.0000 -0.0436 -0.9991
vn -0.0759 -0.0491 -0.9959
vn -0.1701 -0.0470 -0.9843
vn -0.1962 -0.0369 -0.9799
vn -0.1474 -0.0548 -0.9876
vn 0.9936 0.0625 -0.0936
vn 0.9938 0.0601 -0.0936
vn 0.9956 0.0135 -0.0930
vn 0.2643 0.0480 0.9632
vn 0.2633 0.0480 0.9635
vn 0.2836 0.0163 0.9588
vn 0.2933 0.0244 0.9557
vn 0.8612 0.5022 -0.0779
vn 0.8592 0.5057 -0.0776
vn 0.9562 0.2786 -0.0904
vn 0.9574 0.2743 -0.0905
vn 0.1916 -0.0000 0.9815
vn 0.2490 -0.0000 0.9685
vn 0.2867 -0.0000 0.9580
vn 0.1140 -0.0000 0.9935
vn 0.3091 -0.0000 0.9510
vn 0.2514 0.0220 0.9676
vn 0.2514 0.0219 0.9676
vn 0.0003 -1.0000 0.0010
vn 0.0002 -1.0000 0.0010
vn 0.7486 0.6603 -0.0606
vn 0.7493 0.6594 -0.0607
vn 0.2265 0.0173 0.9738
vn 0.2362 0.0096 0.9716
vn 0.1035 0.0534 0.9932
vn 0.0757 0.0495 0.9959
vn -0.0000 0.0444 0.9990
vn 0.1950 0.0366 0.9801
vn 0.1681 0.0472 0.9846
vn 0.1448 0.0550 0.9879
vn -0.9938 -0.0049 0.1113
vn -0.9938 -0.0050 0.1113
vn -0.9938 -0.0000 0.1108
vn -0.0003 1.0000 -0.0012
vn -0.0004 1.0000 -0.0012
vn -0.0001 1.0000 -0.0012
vn -0.0000 1.0000 -0.0012
vn -0.7574 -0.6491 0.0703
vn -0.7579 -0.6486 0.0705
vn -0.8507 -0.5177 0.0911
vn -0.8469 -0.5240 0.0903
vn -0.9914 -0.0670 0.1123
vn -0.9912 -0.0696 0.1124
vn -0.0002 1.0000 -0.0012
vn -0.0000 -1.0000 0.0099
vn -0.4944 -0.8687 0.0294
vn -0.5048 -0.8627 0.0309
vn -0.6830 -0.7283 0.0560
vn -0.6849 -0.7265 0.0563
vn -0.9541 -0.2794 0.1082
vn -0.9553 -0.2752 0.1084
vn -0.0836 -0.0531 -0.9951
vn -0.0976 -0.0522 -0.9939
vn -0.0000 -0.0546 -0.9985
vn -0.2344 -0.0464 -0.9710
vn -0.2592 -0.0473 -0.9647
vn -0.1794 -0.0480 -0.9826
vn -0.1540 -0.0491 -0.9869
vn -0.2954 -0.0485 -0.9542
vn 0.9956 0.0132 -0.0928
vn 0.9937 0.0623 -0.0932
vn 0.9938 0.0599 -0.0932
vn 0.0001 -1.0000 0.0011
vn -0.0000 1.0000 -0.0053
vn -0.0000 -1.0000 0.0011
vn 0.0834 0.0530 0.9951
vn -0.0000 0.0545 0.9985
vn 0.0969 0.0522 0.9939
vn 0.2341 0.0466 0.9711
vn 0.1520 0.0492 0.9872
vn 0.1779 0.0481 0.9829
vn 0.2601 0.0476 0.9644
vn 0.2978 0.0489 0.9534
vn 0.0001 -1.0000 0.0010
vn -0.0000 1.0000 -0.0063
vn 0.5044 0.8630 -0.0292
vn 0.4925 0.8699 -0.0277
vn -0.0000 -1.0000 0.0010
vn -0.9558 0.2803 -0.0889
vn -0.8582 0.5079 -0.0740
vn -0.8600 0.5049 -0.0744
vn -0.9571 0.2759 -0.0890
vn 0.2627 -0.0480 -0.9637
vn 0.2618 -0.0480 -0.9639
vn 0.2821 -0.0150 -0.9593
vn 0.2910 -0.0232 -0.9565
vn -0.0002 -1.0000 0.0011
vn -0.0003 -1.0000 0.0011
vn 0.1940 0.0003 -0.9810
vn 0.2497 0.0011 -0.9683
vn 0.2853 0.0014 -0.9584
vn 0.1149 -0.0000 -0.9934
vn 0.3063 0.0013 -0.9519
vn 0.2506 -0.0234 -0.9678
vn 0.2506 -0.0233 -0.9678
vn -0.7500 0.6591 -0.0566
vn -0.7489 0.6603 -0.0565
vn -0.5029 0.8639 -0.0270
vn -0.4910 0.8708 -0.0257
vn 0.2269 -0.0182 -0.9737
vn 0.2363 -0.0109 -0.9716
vn 0.1049 -0.0532 -0.9931
vn 0.0759 -0.0491 -0.9959
vn 0.1962 -0.0369 -0.9799
vn 0.1701 -0.0471 -0.9843
vn 0.1474 -0.0548 -0.9876
vn -0.9936 0.0625 -0.0936
vn -0.9956 0.0135 -0.0930
vn -0.9938 0.0601 -0.0936
vn -0.2643 0.0480 0.9632
vn -0.2933 0.0244 0.9557
vn -0.2836 0.0163 0.9588
vn -0.2633 0.0480 0.9635
vn -0.8612 0.5022 -0.0779
vn -0.9574 0.2743 -0.0905
vn -0.9562 0.2786 -0.0904
vn -0.8592 0.5057 -0.0776
vn -0.1916 -0.0000 0.9815
vn -0.2490 -0.0000 0.9685
vn -0.2867 -0.0000 0.9580
vn -0.1140 -0.0000 0.9935
vn -0.3091 -0.0000 0.9510
vn -0.2514 0.0220 0.9676
vn -0.2514 0.0219 0.9676
vn -0.0003 -1.0000 0.0010
vn -0.0002 -1.0000 0.0010
vn -0.7486 0.6603 -0.0606
vn -0.7493 0.6594 -0.0607
vn -0.2265 0.0173 0.9738
vn -0.2362 0.0096 0.9716
vn -0.1035 0.0534 0.9932
vn -0.0757 0.0495 0.9959
vn -0.1681 0.0472 0.9846
vn -0.1950 0.0366 0.9801
vn -0.1448 0.0550 0.9879
vn 0.9938 -0.0049 0.1113
vn 0.9938 -0.0000 0.1108
vn 0.9938 -0.0050 0.1113
vn 0.0003 1.0000 -0.0012
vn 0.0004 1.0000 -0.0012
vn 0.0001 1.0000 -0.0012
vn 0.7574 -0.6491 0.0703
vn 0.8469 -0.5240 0.0903
vn 0.8507 -0.5177 0.0911
vn 0.7579 -0.6486 0.0705
vn 0.9914 -0.0670 0.1123
vn 0.9912 -0.0696 0.1124
vn 0.0002 1.0000 -0.0012
vn 0.5048 -0.8627 0.0309
vn 0.4944 -0.8687 0.0294
vn 0.6849 -0.7265 0.0563
vn 0.6830 -0.7283 0.0560
vn 0.9541 -0.2794 0.1082
vn 0.9553 -0.2752 0.1084
vn 0.0836 -0.0531 -0.9951
vn 0.0976 -0.0522 -0.9939
vn 0.2344 -0.0464 -0.9710
vn 0.1540 -0.0491 -0.9869
vn 0.1794 -0.0480 -0.9826
vn 0.2592 -0.0473 -0.9647
vn 0.2954 -0.0485 -0.9542
vn -0.9956 0.0132 -0.0928
vn -0.9938 0.0599 -0.0932
vn -0.9937 0.0623 -0.0932
vn -0.0001 -1.0000 0.0011
vn -0.0834 0.0530 0.9951
vn -0.0969 0.0522 0.9939
vn -0.2341 0.0466 0.9711
vn -0.2601 0.0476 0.9644
vn -0.1779 0.0481 0.9829
vn -0.1520 0.0492 0.9872
vn -0.2978 0.0489 0.9534
vn -0.0001 -1.0000 0.0010
vn -0.4925 0.8699 -0.0277
vn -0.5044 0.8630 -0.0292
vt 0.493464 0.453616
vt 0.489624 0.443287
vt 0.546826 0.409533
vt 0.553403 0.417466
vt 0.436084 0.500641
vt 0.119003 0.510388
vt 0.117360 0.470803
vt 0.433434 0.464334
vt 0.094890 0.381817
vt 0.105751 0.380524
vt 0.111351 0.421886
vt 0.101479 0.423990
vt 0.059619 0.433900
vt 0.050336 0.388412
vt 0.073627 0.477625
vt 0.090613 0.325655
vt 0.043675 0.328458
vt 0.082731 0.509824
vt 0.504537 0.490168
vt 0.089229 0.275893
vt 0.042428 0.275893
vt 0.588713 0.367938
vt 0.596737 0.373822
vt 0.612928 0.320711
vt 0.622776 0.324316
vt 0.567934 0.455419
vt 0.630534 0.275893
vt 0.671070 0.275892
vt 0.662233 0.321740
vt 0.608768 0.415827
vt 0.639464 0.371322
vt 0.582933 0.908803
vt 0.583922 0.903469
vt 0.906039 0.938879
vt 0.909732 0.945439
vt 0.579294 0.942628
vt 0.902220 0.987094
vt 0.477882 0.858864
vt 0.481716 0.854439
vt 0.533937 0.891707
vt 0.531800 0.896661
vt 0.935426 0.856959
vt 0.981783 0.865840
vt 0.970059 0.913466
vt 0.927198 0.902676
vt 0.956604 0.955874
vt 0.943345 0.799133
vt 0.990763 0.804688
vt 0.946984 0.997452
vt 0.519526 0.929569
vt 0.947118 0.752340
vt 0.995262 0.755856
vt 0.920314 0.900366
vt 0.928892 0.855910
vt 0.436861 0.811218
vt 0.442316 0.807791
vt 0.460166 0.894623
vt 0.412959 0.758600
vt 0.373102 0.754755
vt 0.365886 0.709890
vt 0.409136 0.713049
vt 0.422740 0.851998
vt 0.394325 0.806167
vt 0.113008 0.550067
vt 0.064533 0.535965
vt 0.036891 0.496181
vt 0.019224 0.445527
vt 0.001713 0.328295
vt 0.001781 0.275893
vt 0.637981 0.442502
vt 0.588421 0.487319
vt 0.441118 0.538000
vt 0.008274 0.394358
vt 0.706880 0.275892
vt 0.700990 0.329528
vt 0.675799 0.390960
vt 0.515572 0.525226
vt 0.101834 0.324632
vt 0.100417 0.275893
vt 0.619588 0.275893
vt 0.432232 0.452043
vt 0.125662 0.460518
vt 0.419067 0.757270
vt 0.414811 0.713463
vt 0.940628 0.751866
vt 0.936772 0.798670
vt 0.493465 0.098171
vt 0.553404 0.134320
vt 0.546826 0.142253
vt 0.489625 0.108500
vt 0.436086 0.051146
vt 0.433436 0.087453
vt 0.117361 0.080983
vt 0.119004 0.041397
vt 0.094891 0.169970
vt 0.101479 0.127797
vt 0.111352 0.129900
vt 0.105751 0.171262
vt 0.050336 0.163374
vt 0.059619 0.117887
vt 0.073627 0.074161
vt 0.090613 0.226132
vt 0.043675 0.223328
vt 0.082732 0.041961
vt 0.504538 0.061619
vt 0.596737 0.177964
vt 0.588713 0.183848
vt 0.622776 0.227469
vt 0.612928 0.231074
vt 0.567934 0.096367
vt 0.662233 0.230046
vt 0.608767 0.135959
vt 0.639464 0.180463
vt 0.609533 0.544623
vt 0.938185 0.555859
vt 0.933578 0.561812
vt 0.609736 0.550043
vt 0.610847 0.510627
vt 0.936805 0.513555
vt 0.498339 0.578767
vt 0.557177 0.549206
vt 0.558572 0.554418
vt 0.501490 0.583703
vt 0.950750 0.647132
vt 0.949252 0.600705
vt 0.993226 0.596257
vt 0.997905 0.645081
vt 0.986076 0.552346
vt 0.950184 0.705496
vt 0.997905 0.706888
vt 0.982599 0.509811
vt 0.549815 0.514864
vt 0.944134 0.647220
vt 0.942106 0.601990
vt 0.450830 0.619949
vt 0.455730 0.624131
vt 0.486007 0.540814
vt 0.419537 0.668536
vt 0.379544 0.666549
vt 0.442784 0.577550
vt 0.408012 0.618766
vt 0.064534 0.015820
vt 0.113008 0.001718
vt 0.019224 0.106260
vt 0.036891 0.055604
vt 0.001713 0.223491
vt 0.588421 0.064468
vt 0.637980 0.109284
vt 0.441119 0.013787
vt 0.008274 0.157429
vt 0.700989 0.222257
vt 0.675798 0.160826
vt 0.515572 0.026561
vt 0.101835 0.227155
vt 0.125663 0.091269
vt 0.432234 0.099744
vt 0.425387 0.670739
vt 0.943614 0.704998
s 1
f 21/1/1 51/2/2 49/3/3 15/4/4
f 16/5/5 12/6/6 9/7/7 13/8/8
f 10/9/9 44/10/9 43/11/10 11/12/10
f 10/9/11 11/12/12 8/13/12 5/14/11
f 11/12/12 9/7/7 4/15/13 8/13/12
f 19/16/14 10/9/11 5/14/11 17/17/14
f 9/7/7 12/6/6 2/18/15 4/15/13
f 1/19/16 16/5/5 13/8/8 21/1/17
f 75/20/18 19/16/14 17/17/14 64/21/18
f 15/4/4 49/3/3 48/22/19 14/23/20
f 14/23/20 48/22/19 50/24/21 20/25/22
f 15/4/23 3/26/24 1/19/16 21/1/17
f 20/25/25 80/27/26 63/28/26 18/29/27
f 15/4/23 14/23/28 7/30/29 3/26/24
f 14/23/28 20/25/25 6/31/30 7/30/29
f 6/31/30 20/25/25 18/29/27
f 34/32/31 56/33/32 54/34/33 30/35/33
f 37/36/34 34/32/35 30/35/36 33/37/37
f 36/38/38 58/39/39 60/40/40 42/41/41
f 31/42/42 26/43/42 29/44/43 32/45/43
f 32/45/43 29/44/43 25/46/44 30/35/36
f 40/47/45 38/48/45 26/43/42 31/42/42
f 30/35/36 25/46/44 23/49/46 33/37/37
f 22/50/47 42/41/48 34/32/35 37/36/34
f 100/51/49 89/52/49 38/48/45 40/47/45
f 32/45/50 52/53/50 53/54/51 31/42/51
f 35/55/52 57/56/53 58/39/39 36/38/38
f 36/38/54 42/41/48 22/50/47 24/57/55
f 41/58/56 39/59/57 88/60/58 105/61/58
f 36/38/54 24/57/55 28/62/59 35/55/60
f 35/55/60 28/62/59 27/63/61 41/58/56
f 27/63/61 39/59/57 41/58/56
f 12/6/62 33/64/63 23/65/64 2/18/64
f 4/15/65 25/66/66 29/67/65 8/13/65
f 17/17/67 38/68/67 89/69/68 64/21/68
f 7/30/69 28/70/70 24/71/71 3/26/72
f 2/18/66 23/65/66 25/66/66 4/15/65
f 16/5/73 37/72/74 33/64/63 12/6/62
f 5/14/75 26/73/75 38/68/67 17/17/67
f 8/13/65 29/67/65 26/73/75 5/14/75
f 63/28/76 88/74/76 39/75/77 18/29/78
f 18/29/78 39/75/77 27/76/79 6/31/80
f 1/19/81 22/77/82 37/72/74 16/5/73
f 3/26/72 24/71/71 22/77/82 1/19/81
f 6/31/80 27/76/79 28/70/70 7/30/69
f 50/24/83 46/78/84 112/79/85 111/80/85
f 49/3/86 43/11/87 44/10/88 48/22/89
f 48/22/89 44/10/88 46/78/84 50/24/83
f 49/3/86 51/2/90 47/81/90 45/82/90 43/11/87
f 9/7/91 45/82/91 47/81/92 13/8/93
f 11/12/10 43/11/10 45/82/10 9/7/10
f 19/16/94 46/78/94 44/10/9 10/9/9
f 20/25/22 50/24/21 111/80/95 80/27/95
f 13/8/93 47/81/92 51/2/2 21/1/1
f 75/20/96 112/79/96 46/78/94 19/16/94
f 59/83/97 122/84/98 123/85/98 55/86/99
f 58/39/100 57/56/101 53/54/102 52/53/103
f 57/56/101 59/83/97 55/86/99 53/54/102
f 58/39/100 52/53/103 54/34/104 56/33/104 60/40/104
f 30/35/50 54/34/50 52/53/50 32/45/50
f 31/42/51 53/54/51 55/86/105 40/47/105
f 105/61/106 122/84/106 59/83/107 41/58/108
f 42/41/41 60/40/40 56/33/32 34/32/31
f 40/47/105 55/86/105 123/85/109 100/51/109
f 41/58/108 59/83/107 57/56/53 35/55/52
f 85/87/110 78/88/111 119/89/112 121/90/113
f 79/91/114 76/92/115 71/93/116 74/94/117
f 72/95/118 73/96/119 113/97/119 114/98/118
f 72/95/120 67/99/120 70/100/121 73/96/121
f 73/96/121 70/100/121 66/101/122 71/93/116
f 83/102/123 81/103/123 67/99/120 72/95/120
f 71/93/116 66/101/122 62/104/124 74/94/117
f 61/105/125 85/87/126 76/92/115 79/91/114
f 75/20/18 64/21/18 81/103/123 83/102/123
f 78/88/111 77/106/127 118/107/128 119/89/112
f 77/106/127 84/108/129 120/109/130 118/107/128
f 78/88/131 85/87/126 61/105/125 65/110/132
f 84/108/133 82/111/134 63/28/26 80/27/26
f 78/88/131 65/110/132 69/112/135 77/106/136
f 77/106/136 69/112/135 68/113/137 84/108/133
f 68/113/137 82/111/134 84/108/133
f 101/114/138 96/115/139 126/116/139 128/117/140
f 104/118/141 99/119/142 96/115/143 101/114/144
f 103/120/145 110/121/146 132/122/147 130/123/148
f 97/124/149 98/125/150 95/126/150 92/127/149
f 98/125/150 96/115/143 91/128/151 95/126/150
f 108/129/152 97/124/149 92/127/149 106/130/152
f 96/115/143 99/119/142 87/131/153 91/128/151
f 86/132/154 104/118/141 101/114/144 110/121/155
f 100/51/49 108/129/152 106/130/152 89/52/49
f 98/125/156 97/124/157 125/133/157 124/134/156
f 102/135/158 103/120/145 130/123/148 129/136/159
f 103/120/160 90/137/161 86/132/154 110/121/155
f 109/138/162 105/61/58 88/60/58 107/139/163
f 103/120/160 102/135/164 94/140/165 90/137/161
f 102/135/164 109/138/162 93/141/166 94/140/165
f 93/141/166 109/138/162 107/139/163
f 74/94/167 62/104/168 87/142/168 99/143/169
f 66/101/170 70/100/170 95/144/170 91/145/171
f 81/103/172 64/21/68 89/69/68 106/146/172
f 69/112/173 65/110/174 90/147/175 94/148/176
f 62/104/171 66/101/170 91/145/171 87/142/171
f 79/91/177 74/94/167 99/143/169 104/149/178
f 67/99/179 81/103/172 106/146/172 92/150/179
f 70/100/170 67/99/179 92/150/179 95/144/170
f 63/28/76 82/111/180 107/151/181 88/74/76
f 82/111/180 68/113/182 93/152/183 107/151/181
f 61/105/184 79/91/177 104/149/178 86/153/185
f 65/110/174 61/105/184 86/153/185 90/147/175
f 68/113/182 69/112/173 94/148/176 93/152/183
f 120/109/186 111/80/85 112/79/85 116/154/187
f 119/89/188 118/107/189 114/98/190 113/97/191
f 118/107/189 120/109/186 116/154/187 114/98/190
f 119/89/188 113/97/191 115/155/192 117/156/192 121/90/192
f 71/93/193 76/92/194 117/156/195 115/155/193
f 73/96/119 71/93/119 115/155/119 113/97/119
f 83/102/196 72/95/118 114/98/118 116/154/196
f 84/108/129 80/27/95 111/80/95 120/109/130
f 76/92/194 85/87/110 121/90/113 117/156/195
f 75/20/96 83/102/196 116/154/196 112/79/96
f 131/157/197 127/158/198 123/85/98 122/84/98
f 130/123/199 124/134/200 125/133/201 129/136/202
f 129/136/202 125/133/201 127/158/198 131/157/197
f 130/123/199 132/122/203 128/117/203 126/116/203 124/134/200
f 96/115/156 98/125/156 124/134/156 126/116/156
f 97/124/157 108/129/204 127/158/204 125/133/157
f 105/61/106 109/138/205 131/157/206 122/84/106
f 110/121/146 101/114/138 128/117/140 132/122/147
f 108/129/204 100/51/109 123/85/109 127/158/204
f 109/138/205 102/135/158 129/136/159 131/157/206
f 153/1/207 183/2/208 181/3/209 147/4/210
f 148/5/211 144/6/212 141/7/213 145/8/214
f 142/9/215 176/10/215 175/11/216 143/12/216
f 142/9/217 143/12/218 140/13/218 137/14/217
f 143/12/218 141/7/213 136/15/219 140/13/218
f 151/16/220 142/9/217 137/14/217 149/17/220
f 141/7/213 144/6/212 134/18/221 136/15/219
f 133/19/222 148/5/211 145/8/214 153/1/223
f 207/20/224 151/16/220 149/17/220 196/21/224
f 147/4/210 181/3/209 180/22/225 146/23/226
f 146/23/226 180/22/225 182/24/227 152/25/228
f 147/4/229 135/26/230 133/19/222 153/1/223
f 152/25/231 212/27/232 195/28/232 150/29/233
f 147/4/229 146/23/234 139/30/235 135/26/230
f 146/23/234 152/25/231 138/31/236 139/30/235
f 138/31/236 152/25/231 150/29/233
f 166/32/237 188/33/238 186/34/239 162/35/239
f 169/36/240 166/32/241 162/35/242 165/37/243
f 168/38/244 190/39/245 192/40/246 174/41/247
f 163/42/248 158/43/248 161/44/249 164/45/249
f 164/45/249 161/44/249 157/46/250 162/35/242
f 172/47/251 170/48/251 158/43/248 163/42/248
f 162/35/242 157/46/250 155/49/252 165/37/243
f 154/50/253 174/41/254 166/32/241 169/36/240
f 232/51/255 221/52/255 170/48/251 172/47/251
f 164/45/256 184/53/256 185/54/257 163/42/257
f 167/55/258 189/56/259 190/39/245 168/38/244
f 168/38/260 174/41/254 154/50/253 156/57/261
f 173/58/262 171/59/263 220/60/264 237/61/264
f 168/38/260 156/57/261 160/62/265 167/55/266
f 167/55/266 160/62/265 159/63/267 173/58/262
f 159/63/267 171/59/263 173/58/262
f 144/6/268 165/64/269 155/65/270 134/18/270
f 136/15/271 157/66/272 161/67/271 140/13/271
f 149/17/273 170/68/273 221/69/274 196/21/274
f 139/30/275 160/70/276 156/71/277 135/26/278
f 134/18/272 155/65/272 157/66/272 136/15/271
f 148/5/279 169/72/280 165/64/269 144/6/268
f 137/14/281 158/73/281 170/68/273 149/17/273
f 140/13/271 161/67/271 158/73/281 137/14/281
f 195/28/282 220/74/282 171/75/283 150/29/284
f 150/29/284 171/75/283 159/76/285 138/31/286
f 133/19/287 154/77/288 169/72/280 148/5/279
f 135/26/278 156/71/277 154/77/288 133/19/287
f 138/31/286 159/76/285 160/70/276 139/30/275
f 182/24/289 178/78/290 244/79/291 243/80/291
f 181/3/292 175/11/293 176/10/294 180/22/295
f 180/22/295 176/10/294 178/78/290 182/24/289
f 181/3/292 183/2/296 179/81/296 177/82/296 175/11/293
f 141/7/297 177/82/297 179/81/298 145/8/299
f 143/12/216 175/11/216 177/82/216 141/7/216
f 151/16/300 178/78/300 176/10/215 142/9/215
f 152/25/228 182/24/227 243/80/301 212/27/301
f 145/8/299 179/81/298 183/2/208 153/1/207
f 207/20/302 244/79/302 178/78/300 151/16/300
f 191/83/303 254/84/304 255/85/304 187/86/305
f 190/39/306 189/56/307 185/54/308 184/53/309
f 189/56/307 191/83/303 187/86/305 185/54/308
f 190/39/306 184/53/309 186/34/310 188/33/310 192/40/310
f 162/35/256 186/34/256 184/53/256 164/45/256
f 163/42/257 185/54/257 187/86/311 172/47/311
f 237/61/312 254/84/312 191/83/313 173/58/314
f 174/41/247 192/40/246 188/33/238 166/32/237
f 172/47/311 187/86/311 255/85/315 232/51/315
f 173/58/314 191/83/313 189/56/259 167/55/258
f 217/87/316 210/88/317 251/89/318 253/90/319
f 211/91/320 208/92/321 203/93/322 206/94/323
f 204/95/324 205/96/325 245/97/325 246/98/324
f 204/95/326 199/99/326 202/100/327 205/96/327
f 205/96/327 202/100/327 198/101/328 203/93/322
f 215/102/329 213/103/329 199/99/326 204/95/326
f 203/93/322 198/101/328 194/104/330 206/94/323
f 193/105/331 217/87/332 208/92/321 211/91/320
f 207/20/224 196/21/224 213/103/329 215/102/329
f 210/88/317 209/106/333 250/107/334 251/89/318
f 209/106/333 216/108/335 252/109/336 250/107/334
f 210/88/337 217/87/332 193/105/331 197/110/338
f 216/108/339 214/111/340 195/28/232 212/27/232
f 210/88/337 197/110/338 201/112/341 209/106/342
f 209/106/342 201/112/341 200/113/343 216/108/339
f 200/113/343 214/111/340 216/108/339
f 233/114/344 228/115/345 258/116/345 260/117/346
f 236/118/347 231/119/348 228/115/349 233/114/350
f 235/120/351 242/121/352 264/122/353 262/123/354
f 229/124/355 230/125/356 227/126/356 224/127/355
f 230/125/356 228/115/349 223/128/357 227/126/356
f 240/129/358 229/124/355 224/127/355 238/130/358
f 228/115/349 231/119/348 219/131/359 223/128/357
f 218/132/360 236/118/347 233/114/350 242/121/361
f 232/51/255 240/129/358 238/130/358 221/52/255
f 230/125/362 229/124/363 257/133/363 256/134/362
f 234/135/364 235/120/351 262/123/354 261/136/365
f 235/120/366 222/137/367 218/132/360 242/121/361
f 241/138/368 237/61/264 220/60/264 239/139/369
f 235/120/366 234/135/370 226/140/371 222/137/367
f 234/135/370 241/138/368 225/141/372 226/140/371
f 225/141/372 241/138/368 239/139/369
f 206/94/373 194/104/374 219/142/374 231/143/375
f 198/101/376 202/100/376 227/144/376 223/145/377
f 213/103/378 196/21/274 221/69/274 238/146/378
f 201/112/379 197/110/380 222/147/381 226/148/382
f 194/104/377 198/101/376 223/145/377 219/142/377
f 211/91/383 206/94/373 231/143/375 236/149/384
f 199/99/385 213/103/378 238/146/378 224/150/385
f 202/100/376 199/99/385 224/150/385 227/144/376
f 195/28/282 214/111/386 239/151/387 220/74/282
f 214/111/386 200/113/388 225/152/389 239/151/387
f 193/105/390 211/91/383 236/149/384 218/153/391
f 197/110/380 193/105/390 218/153/391 222/147/381
f 200/113/388 201/112/379 226/148/382 225/152/389
f 252/109/392 243/80/291 244/79/291 248/154/393
f 251/89/394 250/107/395 246/98/396 245/97/397
f 250/107/395 252/109/392 248/154/393 246/98/396
f 251/89/394 245/97/397 247/155/398 249/156/398 253/90/398
f 203/93/399 208/92/400 249/156/401 247/155/399
f 205/96/325 203/93/325 247/155/325 245/97/325
f 215/102/402 204/95/324 246/98/324 248/154/402
f 216/108/335 212/27/301 243/80/301 252/109/336
f 208/92/400 217/87/316 253/90/319 249/156/401
f 207/20/302 215/102/402 248/154/402 244/79/302
f 263/157/403 259/158/404 255/85/304 254/84/304
f 262/123/405 256/134/406 257/133/407 261/136/408
f 261/136/408 257/133/407 259/158/404 263/157/403
f 262/123/405 264/122/409 260/117/409 258/116/409 256/134/406
f 228/115/362 230/125/362 256/134/362 258/116/362
f 229/124/363 240/129/410 259/158/410 257/133/363
f 237/61/312 241/138/411 263/157/412 254/84/312
f 242/121/352 233/114/344 260/117/346 264/122/353
f 240/129/410 232/51/315 255/85/315 259/158/410
f 241/138/411 234/135/364 261/136/365 263/157/412
f 285/1/413 315/2/414 313/3/415 279/4/416
f 280/5/417 276/6/418 273/7/419 277/8/420
f 274/9/421 308/10/421 307/11/422 275/12/422
f 274/9/423 275/12/424 272/13/424 269/14/423
f 275/12/424 273/7/419 268/15/425 272/13/424
f 283/16/426 274/9/423 269/14/423 281/17/426
f 273/7/419 276/6/418 266/18/427 268/15/425
f 265/19/428 280/5/417 277/8/420 285/1/429
f 339/20/49 283/16/426 281/17/426 328/21/49
f 279/4/416 313/3/415 312/22/430 278/23/431
f 278/23/431 312/22/430 314/24/432 284/25/433
f 279/4/434 267/26/435 265/19/428 285/1/429
f 284/25/436 344/27/437 327/28/437 282/29/438
f 279/4/434 278/23/439 271/30/440 267/26/435
f 278/23/439 284/25/436 270/31/441 271/30/440
f 270/31/441 284/25/436 282/29/438
f 298/32/442 320/33/443 318/34/444 294/35/444
f 301/36/445 298/32/446 294/35/447 297/37/448
f 300/38/449 322/39/450 324/40/451 306/41/452
f 295/42/453 290/43/453 293/44/454 296/45/454
f 296/45/454 293/44/454 289/46/455 294/35/447
f 304/47/456 302/48/456 290/43/453 295/42/453
f 294/35/447 289/46/455 287/49/457 297/37/448
f 286/50/458 306/41/459 298/32/446 301/36/445
f 364/51/18 353/52/18 302/48/456 304/47/456
f 296/45/460 316/53/460 317/54/461 295/42/461
f 299/55/462 321/56/463 322/39/450 300/38/449
f 300/38/464 306/41/459 286/50/458 288/57/465
f 305/58/466 303/59/467 352/60/468 369/61/468
f 300/38/464 288/57/465 292/62/469 299/55/470
f 299/55/470 292/62/469 291/63/471 305/58/466
f 291/63/471 303/59/467 305/58/466
f 276/6/472 297/64/473 287/65/474 266/18/474
f 268/15/475 289/66/476 293/67/475 272/13/475
f 281/17/477 302/68/477 353/69/478 328/21/478
f 271/30/479 292/70/480 288/71/481 267/26/482
f 266/18/476 287/65/476 289/66/476 268/15/475
f 280/5/483 301/72/484 297/64/473 276/6/472
f 269/14/485 290/73/485 302/68/477 281/17/477
f 272/13/475 293/67/475 290/73/485 269/14/485
f 327/28/486 352/74/486 303/75/487 282/29/488
f 282/29/488 303/75/487 291/76/489 270/31/490
f 265/19/491 286/77/492 301/72/484 280/5/483
f 267/26/482 288/71/481 286/77/492 265/19/491
f 270/31/490 291/76/489 292/70/480 271/30/479
f 314/24/493 310/78/494 376/79/495 375/80/495
f 313/3/496 307/11/497 308/10/498 312/22/499
f 312/22/499 308/10/498 310/78/494 314/24/493
f 313/3/496 315/2/500 311/81/500 309/82/500 307/11/497
f 273/7/501 309/82/501 311/81/502 277/8/503
f 275/12/422 307/11/422 309/82/422 273/7/422
f 283/16/504 310/78/504 308/10/421 274/9/421
f 284/25/433 314/24/432 375/80/505 344/27/505
f 277/8/503 311/81/502 315/2/414 285/1/413
f 339/20/506 376/79/506 310/78/504 283/16/504
f 323/83/507 386/84/508 387/85/508 319/86/509
f 322/39/510 321/56/511 317/54/512 316/53/513
f 321/56/511 323/83/507 319/86/509 317/54/512
f 322/39/510 316/53/513 318/34/514 320/33/514 324/40/514
f 294/35/460 318/34/460 316/53/460 296/45/460
f 295/42/461 317/54/461 319/86/515 304/47/515
f 369/61/516 386/84/516 323/83/517 305/58/518
f 306/41/452 324/40/451 320/33/443 298/32/442
f 304/47/515 319/86/515 387/85/519 364/51/519
f 305/58/518 323/83/517 321/56/463 299/55/462
f 349/87/520 342/88/521 383/89/522 385/90/523
f 343/91/524 340/92/525 335/93/526 338/94/527
f 336/95/528 337/96/529 377/97/529 378/98/528
f 336/95/530 331/99/530 334/100/531 337/96/531
f 337/96/531 334/100/531 330/101/532 335/93/526
f 347/102/533 345/103/533 331/99/530 336/95/530
f 335/93/526 330/101/532 326/104/534 338/94/527
f 325/105/535 349/87/536 340/92/525 343/91/524
f 339/20/49 328/21/49 345/103/533 347/102/533
f 342/88/521 341/106/537 382/107/538 383/89/522
f 341/106/537 348/108/539 384/109/540 382/107/538
f 342/88/541 349/87/536 325/105/535 329/110/542
f 348/108/543 346/111/544 327/28/437 344/27/437
f 342/88/541 329/110/542 333/112/545 341/106/546
f 341/106/546 333/112/545 332/113/547 348/108/543
f 332/113/547 346/111/544 348/108/543
f 365/114/548 360/115/549 390/116/549 392/117/550
f 368/118/551 363/119/552 360/115/553 365/114/554
f 367/120/555 374/121/556 396/122/557 394/123/558
f 361/124/559 362/125/560 359/126/560 356/127/559
f 362/125/560 360/115/553 355/128/561 359/126/560
f 372/129/562 361/124/559 356/127/559 370/130/562
f 360/115/553 363/119/552 351/131/563 355/128/561
f 350/132/564 368/118/551 365/114/554 374/121/565
f 364/51/18 372/129/562 370/130/562 353/52/18
f 362/125/566 361/124/567 389/133/567 388/134/566
f 366/135/568 367/120/555 394/123/558 393/136/569
f 367/120/570 354/137/571 350/132/564 374/121/565
f 373/138/572 369/61/468 352/60/468 371/139/573
f 367/120/570 366/135/574 358/140/575 354/137/571
f 366/135/574 373/138/572 357/141/576 358/140/575
f 357/141/576 373/138/572 371/139/573
f 338/94/577 326/104/578 351/142/578 363/143/579
f 330/101/580 334/100/580 359/144/580 355/145/581
f 345/103/582 328/21/478 353/69/478 370/146/582
f 333/112/583 329/110/584 354/147/585 358/148/586
f 326/104/581 330/101/580 355/145/581 351/142/581
f 343/91/587 338/94/577 363/143/579 368/149/588
f 331/99/589 345/103/582 370/146/582 356/150/589
f 334/100/580 331/99/589 356/150/589 359/144/580
f 327/28/486 346/111/590 371/151/591 352/74/486
f 346/111/590 332/113/592 357/152/593 371/151/591
f 325/105/594 343/91/587 368/149/588 350/153/595
f 329/110/584 325/105/594 350/153/595 354/147/585
f 332/113/592 333/112/583 358/148/586 357/152/593
f 384/109/596 375/80/495 376/79/495 380/154/597
f 383/89/598 382/107/599 378/98/600 377/97/601
f 382/107/599 384/109/596 380/154/597 378/98/600
f 383/89/598 377/97/601 379/155/602 381/156/602 385/90/602
f 335/93/603 340/92/604 381/156/605 379/155/603
f 337/96/529 335/93/529 379/155/529 377/97/529
f 347/102/606 336/95/528 378/98/528 380/154/606
f 348/108/539 344/27/505 375/80/505 384/109/540
f 340/92/604 349/87/520 385/90/523 381/156/605
f 339/20/506 347/102/606 380/154/606 376/79/506
f 395/157/607 391/158/608 387/85/508 386/84/508
f 394/123/609 388/134/610 389/133/611 393/136/612
f 393/136/612 389/133/611 391/158/608 395/157/607
f 394/123/609 396/122/613 392/117/613 390/116/613 388/134/610
f 360/115/566 362/125/566 388/134/566 390/116/566
f 361/124/567 372/129/614 391/158/614 389/133/567
f 369/61/516 373/138/615 395/157/616 386/84/516
f 374/121/556 365/114/548 392/117/550 396/122/557
f 372/129/614 364/51/519 387/85/519 391/158/614
f 373/138/615 366/135/568 393/136/569 395/157/616
f 417/1/617 447/2/618 445/3/619 411/4/620
f 412/5/621 408/6/622 405/7/623 409/8/624
f 406/9/625 440/10/625 439/11/626 407/12/626
f 406/9/627 407/12/628 404/13/628 401/14/627
f 407/12/628 405/7/623 400/15/629 404/13/628
f 415/16/630 406/9/627 401/14/627 413/17/630
f 405/7/623 408/6/622 398/18/631 400/15/629
f 397/19/632 412/5/621 409/8/624 417/1/633
f 471/20/255 415/16/630 413/17/630 460/21/255
f 411/4/620 445/3/619 444/22/634 410/23/635
f 410/23/635 444/22/634 446/24/636 416/25/637
f 411/4/638 399/26/639 397/19/632 417/1/633
f 416/25/640 476/27/641 459/28/641 414/29/642
f 411/4/638 410/23/643 403/30/644 399/26/639
f 410/23/643 416/25/640 402/31/645 403/30/644
f 402/31/645 416/25/640 414/29/642
f 430/32/646 452/33/647 450/34/648 426/35/648
f 433/36/649 430/32/650 426/35/651 429/37/652
f 432/38/653 454/39/654 456/40/655 438/41/656
f 427/42/657 422/43/657 425/44/658 428/45/658
f 428/45/658 425/44/658 421/46/659 426/35/651
f 436/47/660 434/48/660 422/43/657 427/42/657
f 426/35/651 421/46/659 419/49/661 429/37/652
f 418/50/662 438/41/663 430/32/650 433/36/649
f 496/51/224 485/52/224 434/48/660 436/47/660
f 428/45/664 448/53/664 449/54/665 427/42/665
f 431/55/666 453/56/667 454/39/654 432/38/653
f 432/38/668 438/41/663 418/50/662 420/57/669
f 437/58/670 435/59/671 484/60/672 501/61/672
f 432/38/668 420/57/669 424/62/673 431/55/674
f 431/55/674 424/62/673 423/63/675 437/58/670
f 423/63/675 435/59/671 437/58/670
f 408/6/676 429/64/677 419/65/678 398/18/678
f 400/15/679 421/66/680 425/67/679 404/13/679
f 413/17/681 434/68/681 485/69/682 460/21/682
f 403/30/683 424/70/684 420/71/685 399/26/686
f 398/18/680 419/65/680 421/66/680 400/15/679
f 412/5/687 433/72/688 429/64/677 408/6/676
f 401/14/689 422/73/689 434/68/681 413/17/681
f 404/13/679 425/67/679 422/73/689 401/14/689
f 459/28/690 484/74/690 435/75/691 414/29/692
f 414/29/692 435/75/691 423/76/693 402/31/694
f 397/19/695 418/77/696 433/72/688 412/5/687
f 399/26/686 420/71/685 418/77/696 397/19/695
f 402/31/694 423/76/693 424/70/684 403/30/683
f 446/24/697 442/78/698 508/79/699 507/80/699
f 445/3/700 439/11/701 440/10/702 444/22/703
f 444/22/703 440/10/702 442/78/698 446/24/697
f 445/3/700 447/2/704 443/81/704 441/82/704 439/11/701
f 405/7/705 441/82/705 443/81/706 409/8/707
f 407/12/626 439/11/626 441/82/626 405/7/626
f 415/16/708 442/78/708 440/10/625 406/9/625
f 416/25/637 446/24/636 507/80/709 476/27/709
f 409/8/707 443/81/706 447/2/618 417/1/617
f 471/20/710 508/79/710 442/78/708 415/16/708
f 455/83/711 518/84/712 519/85/712 451/86/713
f 454/39/714 453/56/715 449/54/716 448/53/717
f 453/56/715 455/83/711 451/86/713 449/54/716
f 454/39/714 448/53/717 450/34/718 452/33/718 456/40/718
f 426/35/664 450/34/664 448/53/664 428/45/664
f 427/42/665 449/54/665 451/86/719 436/47/719
f 501/61/720 518/84/720 455/83/721 437/58/722
f 438/41/656 456/40/655 452/33/647 430/32/646
f 436/47/719 451/86/719 519/85/723 496/51/723
f 437/58/722 455/83/721 453/56/667 431/55/666
f 481/87/724 474/88/725 515/89/726 517/90/727
f 475/91/728 472/92/729 467/93/730 470/94/731
f 468/95/732 469/96/733 509/97/733 510/98/732
f 468/95/734 463/99/734 466/100/735 469/96/735
f 469/96/735 466/100/735 462/101/736 467/93/730
f 479/102/737 477/103/737 463/99/734 468/95/734
f 467/93/730 462/101/736 458/104/738 470/94/731
f 457/105/739 481/87/740 472/92/729 475/91/728
f 471/20/255 460/21/255 477/103/737 479/102/737
f 474/88/725 473/106/741 514/107/742 515/89/726
f 473/106/741 480/108/743 516/109/744 514/107/742
f 474/88/745 481/87/740 457/105/739 461/110/746
f 480/108/747 478/111/748 459/28/641 476/27/641
f 474/88/745 461/110/746 465/112/749 473/106/750
f 473/106/750 465/112/749 464/113/751 480/108/747
f 464/113/751 478/111/748 480/108/747
f 497/114/752 492/115/753 522/116/753 524/117/754
f 500/118/755 495/119/756 492/115/757 497/114/758
f 499/120/759 506/121/760 528/122/761 526/123/762
f 493/124/763 494/125/764 491/126/764 488/127/763
f 494/125/764 492/115/757 487/128/765 491/126/764
f 504/129/766 493/124/763 488/127/763 502/130/766
f 492/115/757 495/119/756 483/131/767 487/128/765
f 482/132/768 500/118/755 497/114/758 506/121/769
f 496/51/224 504/129/766 502/130/766 485/52/224
f 494/125/770 493/124/771 521/133/771 520/134/770
f 498/135/772 499/120/759 526/123/762 525/136/773
f 499/120/774 486/137/775 482/132/768 506/121/769
f 505/138/776 501/61/672 484/60/672 503/139/777
f 499/120/774 498/135/778 490/140/779 486/137/775
f 498/135/778 505/138/776 489/141/780 490/140/779
f 489/141/780 505/138/776 503/139/777
f 470/94/781 458/104/782 483/142/782 495/143/783
f 462/101/784 466/100/784 491/144/784 487/145/785
f 477/103/786 460/21/682 485/69/682 502/146/786
f 465/112/787 461/110/788 486/147/789 490/148/790
f 458/104/785 462/101/784 487/145/785 483/142/785
f 475/91/791 470/94/781 495/143/783 500/149/792
f 463/99/793 477/103/786 502/146/786 488/150/793
f 466/100/784 463/99/793 488/150/793 491/144/784
f 459/28/690 478/111/794 503/151/795 484/74/690
f 478/111/794 464/113/796 489/152/797 503/151/795
f 457/105/798 475/91/791 500/149/792 482/153/799
f 461/110/788 457/105/798 482/153/799 486/147/789
f 464/113/796 465/112/787 490/148/790 489/152/797
f 516/109/800 507/80/699 508/79/699 512/154/801
f 515/89/802 514/107/803 510/98/804 509/97/805
f 514/107/803 516/109/800 512/154/801 510/98/804
f 515/89/802 509/97/805 511/155/806 513/156/806 517/90/806
f 467/93/807 472/92/808 513/156/809 511/155/807
f 469/96/733 467/93/733 511/155/733 509/97/733
f 479/102/810 468/95/732 510/98/732 512/154/810
f 480/108/743 476/27/709 507/80/709 516/109/744
f 472/92/808 481/87/724 517/90/727 513/156/809
f 471/20/710 479/102/810 512/154/810 508/79/710
f 527/157/811 523/158/812 519/85/712 518/84/712
f 526/123/813 520/134/814 521/133/815 525/136/816
f 525/136/816 521/133/815 523/158/812 527/157/811
f 526/123/813 528/122/817 524/117/817 522/116/817 520/134/814
f 492/115/770 494/125/770 520/134/770 522/116/770
f 493/124/771 504/129/818 523/158/818 521/133/771
f 501/61/720 505/138/819 527/157/820 518/84/720
f 506/121/760 497/114/752 524/117/754 528/122/761
f 504/129/818 496/51/723 519/85/723 523/158/818
f 505/138/819 498/135/772 525/136/773 527/157/820
