{
  "accessors": [
    {
      "bufferView": 2,
      "componentType": 5126,
      "count": 2595,
      "max": [
        6.685011386871338,
        1.9471945762634277,
        0.08359266817569733
      ],
      "min": [
        -3.994495391845703,
        -0.7099718451499939,
        -4.223219871520996
      ],
      "type": "VEC3"
    },
    {
      "bufferView": 2,
      "byteOffset": 31140,
      "componentType": 5126,
      "count": 2595,
      "max": [
        0.9999997615814209,
        1.0,
        1.0
      ],
      "min": [
        -0.9946783185005188,
        -0.7054346799850464,
        -1.0
      ],
      "type": "VEC3"
    },
    {
      "bufferView": 1,
      "componentType": 5126,
      "count": 2595,
      "max": [
        0.9388572573661804,
        0.9818753600120544
      ],
      "min": [
        0.12311521917581558,
        0.08759238570928574
      ],
      "type": "VEC2"
    },
    {
      "bufferView": 1,
      "byteOffset": 20760,
      "componentType": 5126,
      "count": 2595,
      "max": [
        0.9388572573661804,
        0.9818753600120544
      ],
      "min": [
        0.12311521917581558,
        0.08759238570928574
      ],
      "type": "VEC2"
    },
    {
      "bufferView": 0,
      "componentType": 5125,
      "count": 9396,
      "type": "SCALAR"
    },
    {
      "bufferView": 2,
      "byteOffset": 62280,
      "componentType": 5126,
      "count": 4091,
      "max": [
        6.717555046081543,
        1.9508771896362305,
        0.18937347829341888
      ],
      "min": [
        -3.9983434677124023,
        -0.9553753733634949,
        -4.329000949859619
      ],
      "type": "VEC3"
    },
    {
      "bufferView": 2,
      "byteOffset": 111372,
      "componentType": 5126,
      "count": 4091,
      "max": [
        1.0,
        1.0,
        1.0
      ],
      "min": [
        -1.0,
        -1.0,
        -1.0
      ],
      "type": "VEC3"
    },
    {
      "bufferView": 1,
      "byteOffset": 41520,
      "componentType": 5126,
      "count": 4091,
      "max": [
        0.9919350743293762,
        0.9961417317390442
      ],
      "min": [
        0.004436715971678495,
        0.00885015819221735
      ],
      "type": "VEC2"
    },
    {
      "bufferView": 1,
      "byteOffset": 74248,
      "componentType": 5126,
      "count": 4091,
      "max": [
        0.9919350743293762,
        0.9961417317390442
      ],
      "min": [
        0.004436715971678495,
        0.00885015819221735
      ],
      "type": "VEC2"
    },
    {
      "bufferView": 1,
      "byteOffset": 106976,
      "componentType": 5126,
      "count": 4091,
      "max": [
        0.9919350743293762,
        0.9961417317390442
      ],
      "min": [
        0.004436715971678495,
        0.00885015819221735
      ],
      "type": "VEC2"
    },
    {
      "bufferView": 0,
      "byteOffset": 37584,
      "componentType": 5125,
      "count": 13392,
      "type": "SCALAR"
    },
    {
      "bufferView": 2,
      "byteOffset": 160464,
      "componentType": 5126,
      "count": 108,
      "max": [
        -3.450265407562256,
        0.384149432182312,
        -0.06356875598430634
      ],
      "min": [
        -3.8362040519714355,
        0.01748792827129364,
        -4.076058387756348
      ],
      "type": "VEC3"
    },
    {
      "bufferView": 2,
      "byteOffset": 161760,
      "componentType": 5126,
      "count": 108,
      "max": [
        -0.08955611288547516,
        0.3164081275463104,
        0.9938809275627136
      ],
      "min": [
        -0.9995164275169373,
        -0.2618458569049835,
        -0.9938808679580688
      ],
      "type": "VEC3"
    },
    {
      "bufferView": 1,
      "byteOffset": 139704,
      "componentType": 5126,
      "count": 108,
      "max": [
        0.614656925201416,
        0.49220868945121765
      ],
      "min": [
        0.5139212012290955,
        0.1837998479604721
      ],
      "type": "VEC2"
    },
    {
      "bufferView": 0,
      "byteOffset": 91152,
      "componentType": 5125,
      "count": 408,
      "type": "SCALAR"
    },
    {
      "bufferView": 2,
      "byteOffset": 163056,
      "componentType": 5126,
      "count": 61,
      "max": [
        0.7166756987571716,
        1.8522229194641113,
        -0.4004685878753662
      ],
      "min": [
        -1.070080041885376,
        0.8505358695983887,
        -3.739158868789673
      ],
      "type": "VEC3"
    },
    {
      "bufferView": 2,
      "byteOffset": 163788,
      "componentType": 5126,
      "count": 61,
      "max": [
        -0.3738856613636017,
        0.9274728894233704,
        0.19321705400943756
      ],
      "min": [
        -0.5478106141090393,
        0.8293279409408569,
        -0.19321715831756592
      ],
      "type": "VEC3"
    },
    {
      "bufferView": 1,
      "byteOffset": 140568,
      "componentType": 5126,
      "count": 61,
      "max": [
        0.319345623254776,
        0.47394904494285583
      ],
      "min": [
        0.02423739619553089,
        0.3465546667575836
      ],
      "type": "VEC2"
    },
    {
      "bufferView": 0,
      "byteOffset": 92784,
      "componentType": 5125,
      "count": 258,
      "type": "SCALAR"
    },
    {
      "bufferView": 2,
      "byteOffset": 164520,
      "componentType": 5126,
      "count": 70,
      "max": [
        5.396722316741943,
        1.8770036697387695,
        -0.5471234321594238
      ],
      "min": [
        3.7774105072021484,
        0.9983014464378357,
        -3.5925040245056152
      ],
      "type": "VEC3"
    },
    {
      "bufferView": 2,
      "byteOffset": 165360,
      "componentType": 5126,
      "count": 70,
      "max": [
        0.5562288165092468,
        0.9172236323356628,
        0.2014496773481369
      ],
      "min": [
        0.39136141538619995,
        0.8310291767120361,
        -0.2014496922492981
      ],
      "type": "VEC3"
    },
    {
      "bufferView": 1,
      "byteOffset": 141056,
      "componentType": 5126,
      "count": 70,
      "max": [
        0.4698598086833954,
        0.4708556532859802
      ],
      "min": [
        0.35779887437820435,
        0.1895013451576233
      ],
      "type": "VEC2"
    },
    {
      "bufferView": 0,
      "byteOffset": 93816,
      "componentType": 5125,
      "count": 312,
      "type": "SCALAR"
    },
    {
      "bufferView": 2,
      "byteOffset": 166200,
      "componentType": 5126,
      "count": 54,
      "max": [
        3.7584145069122314,
        1.9452018737792969,
        -0.2633518874645233
      ],
      "min": [
        0.9796962738037109,
        0.7921180129051208,
        -3.8762753009796143
      ],
      "type": "VEC3"
    },
    {
      "bufferView": 2,
      "byteOffset": 166848,
      "componentType": 5126,
      "count": 54,
      "max": [
        0.014327550306916237,
        0.9997869729995728,
        0.8991076350212097
      ],
      "min": [
        -0.02700079046189785,
        0.4377039074897766,
        -0.8991079330444336
      ],
      "type": "VEC3"
    },
    {
      "bufferView": 1,
      "byteOffset": 141616,
      "componentType": 5126,
      "count": 54,
      "max": [
        0.47627779841423035,
        0.14974839985370636
      ],
      "min": [
        0.22433865070343018,
        0.030998582020401955
      ],
      "type": "VEC2"
    },
    {
      "bufferView": 0,
      "byteOffset": 95064,
      "componentType": 5125,
      "count": 132,
      "type": "SCALAR"
    },
    {
      "bufferView": 2,
      "byteOffset": 167496,
      "componentType": 5126,
      "count": 472,
      "max": [
        -0.8528324365615845,
        0.834168553352356,
        -0.2362942397594452
      ],
      "min": [
        -3.9552111625671387,
        0.39261671900749207,
        -3.9033327102661133
      ],
      "type": "VEC3"
    },
    {
      "bufferView": 2,
      "byteOffset": 173160,
      "componentType": 5126,
      "count": 472,
      "max": [
        0.9700335264205933,
        0.9993118047714233,
        0.8886897563934326
      ],
      "min": [
        -0.9409465789794922,
        -0.9993500113487244,
        -0.8886867165565491
      ],
      "type": "VEC3"
    },
    {
      "bufferView": 1,
      "byteOffset": 142048,
      "componentType": 5126,
      "count": 472,
      "max": [
        0.8505489826202393,
        0.7825860977172852
      ],
      "min": [
        0.01960192248225212,
        0.0033462196588516235
      ],
      "type": "VEC2"
    },
    {
      "bufferView": 1,
      "byteOffset": 145824,
      "componentType": 5126,
      "count": 472,
      "max": [
        0.8505489826202393,
        0.7825860977172852
      ],
      "min": [
        0.01960192248225212,
        0.0033462196588516235
      ],
      "type": "VEC2"
    },
    {
      "bufferView": 0,
      "byteOffset": 95592,
      "componentType": 5125,
      "count": 1764,
      "type": "SCALAR"
    },
    {
      "bufferView": 2,
      "byteOffset": 178824,
      "componentType": 5126,
      "count": 3052,
      "max": [
        1.5603973865509033,
        0.7490582466125488,
        0.11252807080745697
      ],
      "min": [
        -1.030165433883667,
        -0.26001229882240295,
        -1.535105586051941
      ],
      "type": "VEC3"
    },
    {
      "bufferView": 2,
      "byteOffset": 215448,
      "componentType": 5126,
      "count": 3052,
      "max": [
        1.0,
        1.0,
        1.0
      ],
      "min": [
        -1.0,
        -0.9999579191207886,
        -1.0
      ],
      "type": "VEC3"
    },
    {
      "bufferView": 1,
      "byteOffset": 149600,
      "componentType": 5126,
      "count": 3052,
      "max": [
        0.970589280128479,
        0.946769654750824
      ],
      "min": [
        0.30843138694763184,
        0.06974460929632187
      ],
      "type": "VEC2"
    },
    {
      "bufferView": 1,
      "byteOffset": 174016,
      "componentType": 5126,
      "count": 3052,
      "max": [
        0.970589280128479,
        0.946769654750824
      ],
      "min": [
        0.30843138694763184,
        0.06974460929632187
      ],
      "type": "VEC2"
    },
    {
      "bufferView": 1,
      "byteOffset": 198432,
      "componentType": 5126,
      "count": 3052,
      "max": [
        0.970589280128479,
        0.946769654750824
      ],
      "min": [
        0.30843138694763184,
        0.06974460929632187
      ],
      "type": "VEC2"
    },
    {
      "bufferView": 0,
      "byteOffset": 102648,
      "componentType": 5125,
      "count": 9504,
      "type": "SCALAR"
    },
    {
      "bufferView": 2,
      "byteOffset": 252072,
      "componentType": 5126,
      "count": 531,
      "max": [
        2.411766529083252,
        0.2937981188297272,
        0.48201847076416016
      ],
      "min": [
        -0.4054703712463379,
        -0.031000956892967224,
        -0.8000962734222412
      ],
      "type": "VEC3"
    },
    {
      "bufferView": 2,
      "byteOffset": 258444,
      "componentType": 5126,
      "count": 531,
      "max": [
        1.0,
        1.0,
        1.0
      ],
      "min": [
        -1.0,
        -1.0,
        -1.0
      ],
      "type": "VEC3"
    },
    {
      "bufferView": 1,
      "byteOffset": 222848,
      "componentType": 5126,
      "count": 531,
      "max": [
        0.6749638319015503,
        0.6547172665596008
      ],
      "min": [
        0.10372420400381088,
        0.12854361534118652
      ],
      "type": "VEC2"
    },
    {
      "bufferView": 1,
      "byteOffset": 227096,
      "componentType": 5126,
      "count": 531,
      "max": [
        0.6749638319015503,
        0.6547172665596008
      ],
      "min": [
        0.10372420400381088,
        0.12854361534118652
      ],
      "type": "VEC2"
    },
    {
      "bufferView": 1,
      "byteOffset": 231344,
      "componentType": 5126,
      "count": 531,
      "max": [
        0.6749638319015503,
        0.6547172665596008
      ],
      "min": [
        0.10372420400381088,
        0.12854361534118652
      ],
      "type": "VEC2"
    },
    {
      "bufferView": 0,
      "byteOffset": 140664,
      "componentType": 5125,
      "count": 1242,
      "type": "SCALAR"
    },
    {
      "bufferView": 2,
      "byteOffset": 264816,
      "componentType": 5126,
      "count": 11,
      "max": [
        1.6550921201705933,
        1.799484372138977,
        -0.2571907043457031
      ],
      "min": [
        -0.1663874238729477,
        0.7818374633789063,
        -0.7554684281349182
      ],
      "type": "VEC3"
    },
    {
      "bufferView": 2,
      "byteOffset": 264948,
      "componentType": 5126,
      "count": 11,
      "max": [
        0.010616662912070751,
        0.4412156343460083,
        0.8988893032073975
      ],
      "min": [
        -0.0033343143295496702,
        0.4380471408367157,
        0.8973949551582336
      ],
      "type": "VEC3"
    },
    {
      "bufferView": 1,
      "byteOffset": 235592,
      "componentType": 5126,
      "count": 11,
      "max": [
        0.18625333905220032,
        0.14441624283790588
      ],
      "min": [
        0.02666657045483589,
        0.04554919898509979
      ],
      "type": "VEC2"
    },
    {
      "bufferView": 0,
      "byteOffset": 145632,
      "componentType": 5125,
      "count": 27,
      "type": "SCALAR"
    },
    {
      "bufferView": 2,
      "byteOffset": 265080,
      "componentType": 5126,
      "count": 11,
      "max": [
        1.6550921201705933,
        1.7994838953018188,
        -3.3841593265533447
      ],
      "min": [
        -0.16638751327991486,
        0.781836986541748,
        -3.882436513900757
      ],
      "type": "VEC3"
    },
    {
      "bufferView": 2,
      "byteOffset": 265212,
      "componentType": 5126,
      "count": 11,
      "max": [
        0.010613891296088696,
        0.4412153661251068,
        -0.8973950743675232
      ],
      "min": [
        -0.0033341392409056425,
        0.4380472004413605,
        -0.8988893032073975
      ],
      "type": "VEC3"
    },
    {
      "bufferView": 1,
      "byteOffset": 235680,
      "componentType": 5126,
      "count": 11,
      "max": [
        0.18625333905220032,
        0.14441624283790588
      ],
      "min": [
        0.02666657045483589,
        0.04554919898509979
      ],
      "type": "VEC2"
    },
    {
      "bufferView": 0,
      "byteOffset": 145740,
      "componentType": 5125,
      "count": 27,
      "type": "SCALAR"
    },
    {
      "bufferView": 2,
      "byteOffset": 265344,
      "componentType": 5126,
      "count": 181,
      "max": [
        -0.3215174973011017,
        0.3632124066352844,
        -0.12715959548950195
      ],
      "min": [
        -0.5091122984886169,
        0.07032302767038345,
        -0.517917811870575
      ],
      "type": "VEC3"
    },
    {
      "bufferView": 2,
      "byteOffset": 267516,
      "componentType": 5126,
      "count": 181,
      "max": [
        0.9503512382507324,
        0.9827409386634827,
        0.9804633259773254
      ],
      "min": [
        -0.9073821306228638,
        -0.8660266995429993,
        -0.980463445186615
      ],
      "type": "VEC3"
    },
    {
      "bufferView": 1,
      "byteOffset": 235768,
      "componentType": 5126,
      "count": 181,
      "max": [
        0.7471501231193542,
        0.24766165018081665
      ],
      "min": [
        0.5029696822166443,
        0.1332188844680786
      ],
      "type": "VEC2"
    },
    {
      "bufferView": 1,
      "byteOffset": 237216,
      "componentType": 5126,
      "count": 181,
      "max": [
        0.7471501231193542,
        0.24766165018081665
      ],
      "min": [
        0.5029696822166443,
        0.1332188844680786
      ],
      "type": "VEC2"
    },
    {
      "bufferView": 1,
      "byteOffset": 238664,
      "componentType": 5126,
      "count": 181,
      "max": [
        0.7471501231193542,
        0.24766165018081665
      ],
      "min": [
        0.5029696822166443,
        0.1332188844680786
      ],
      "type": "VEC2"
    },
    {
      "bufferView": 0,
      "byteOffset": 145848,
      "componentType": 5125,
      "count": 660,
      "type": "SCALAR"
    },
    {
      "bufferView": 2,
      "byteOffset": 269688,
      "componentType": 5126,
      "count": 300,
      "max": [
        6.60576057434082,
        0.5831267237663269,
        -0.12133723497390747
      ],
      "min": [
        6.025299072265625,
        0.3033100962638855,
        -4.018290042877197
      ],
      "type": "VEC3"
    },
    {
      "bufferView": 2,
      "byteOffset": 273288,
      "componentType": 5126,
      "count": 300,
      "max": [
        0.9986504316329956,
        0.8275519609451294,
        0.9693248271942139
      ],
      "min": [
        0.004735145252197981,
        -0.6073449850082397,
        -0.9693244695663452
      ],
      "type": "VEC3"
    },
    {
      "bufferView": 1,
      "byteOffset": 240112,
      "componentType": 5126,
      "count": 300,
      "max": [
        0.9893220663070679,
        0.38620132207870483
      ],
      "min": [
        0.6735800504684448,
        0.3086175322532654
      ],
      "type": "VEC2"
    },
    {
      "bufferView": 0,
      "byteOffset": 148488,
      "componentType": 5125,
      "count": 684,
      "type": "SCALAR"
    },
    {
      "bufferView": 2,
      "byteOffset": 276888,
      "componentType": 5126,
      "count": 38,
      "max": [
        -3.722538948059082,
        0.35009562969207764,
        -0.3191971778869629
      ],
      "min": [
        -3.7860827445983887,
        0.061037302017211914,
        -3.8204307556152344
      ],
      "type": "VEC3"
    },
    {
      "bufferView": 2,
      "byteOffset": 277344,
      "componentType": 5126,
      "count": 38,
      "max": [
        -0.9167479276657104,
        0.39943262934684753,
        0.23774632811546326
      ],
      "min": [
        -1.0,
        -0.39943239092826843,
        -0.2377469539642334
      ],
      "type": "VEC3"
    },
    {
      "bufferView": 1,
      "byteOffset": 242512,
      "componentType": 5126,
      "count": 38,
      "max": [
        0.24538521468639374,
        0.7474247217178345
      ],
      "min": [
        0.16788817942142487,
        0.6998693346977234
      ],
      "type": "VEC2"
    },
    {
      "bufferView": 0,
      "byteOffset": 151224,
      "componentType": 5125,
      "count": 108,
      "type": "SCALAR"
    },
    {
      "bufferView": 2,
      "byteOffset": 277800,
      "componentType": 5126,
      "count": 108,
      "max": [
        6.6011762619018555,
        0.4294293224811554,
        -0.0635690838098526
      ],
      "min": [
        -3.8362045288085938,
        0.017487168312072754,
        -4.076058864593506
      ],
      "type": "VEC3"
    },
    {
      "bufferView": 2,
      "byteOffset": 279096,
      "componentType": 5126,
      "count": 108,
      "max": [
        0.9971896409988403,
        0.6223193407058716,
        0.9958178997039795
      ],
      "min": [
        -0.726844072341919,
        -0.6565934419631958,
        -0.9958178400993347
      ],
      "type": "VEC3"
    },
    {
      "bufferView": 1,
      "byteOffset": 242816,
      "componentType": 5126,
      "count": 108,
      "max": [
        0.1650908887386322,
        0.7478928565979004
      ],
      "min": [
        0.0841960608959198,
        0.6988038420677185
      ],
      "type": "VEC2"
    },
    {
      "bufferView": 0,
      "byteOffset": 151656,
      "componentType": 5125,
      "count": 324,
      "type": "SCALAR"
    },
    {
      "bufferView": 2,
      "byteOffset": 280392,
      "componentType": 5126,
      "count": 18,
      "max": [
        6.594923973083496,
        0.5675182342529297,
        -0.8121300935745239
      ],
      "min": [
        6.5586395263671875,
        0.4470899701118469,
        -3.3274972438812256
      ],
      "type": "VEC3"
    },
    {
      "bufferView": 2,
      "byteOffset": 280608,
      "componentType": 5126,
      "count": 18,
      "max": [
        0.9976679086685181,
        0.17492817342281342,
        0.17193157970905304
      ],
      "min": [
        0.9815187454223633,
        -0.11410429328680038,
        -0.171930730342865
      ],
      "type": "VEC3"
    },
    {
      "bufferView": 1,
      "byteOffset": 243680,
      "componentType": 5126,
      "count": 18,
      "max": [
        0.24776515364646912,
        0.7440928816795349
      ],
      "min": [
        0.16849517822265625,
        0.7039136290550232
      ],
      "type": "VEC2"
    },
    {
      "bufferView": 0,
      "byteOffset": 152952,
      "componentType": 5125,
      "count": 60,
      "type": "SCALAR"
    },
    {
      "bufferView": 2,
      "byteOffset": 280824,
      "componentType": 5126,
      "count": 56,
      "max": [
        6.566403865814209,
        0.5687458515167236,
        -0.16556832194328308
      ],
      "min": [
        6.117593765258789,
        0.44529035687446594,
        -3.9740591049194336
      ],
      "type": "VEC3"
    },
    {
      "bufferView": 2,
      "byteOffset": 281496,
      "componentType": 5126,
      "count": 56,
      "max": [
        0.9894766211509705,
        0.48918625712394714,
        0.9883959293365479
      ],
      "min": [
        0.06822802871465683,
        -0.06978154927492142,
        -0.9883959889411926
      ],
      "type": "VEC3"
    },
    {
      "bufferView": 1,
      "byteOffset": 243824,
      "componentType": 5126,
      "count": 56,
      "max": [
        0.08029869943857193,
        0.7374358177185059
      ],
      "min": [
        0.001832830486819148,
        0.7185745239257813
      ],
      "type": "VEC2"
    },
    {
      "bufferView": 0,
      "byteOffset": 153192,
      "componentType": 5125,
      "count": 180,
      "type": "SCALAR"
    },
    {
      "bufferView": 2,
      "byteOffset": 282168,
      "componentType": 5126,
      "count": 96,
      "max": [
        -0.3421662151813507,
        0.5598644614219666,
        0.004290614277124405
      ],
      "min": [
        -0.642166256904602,
        0.4098644554615021,
        0.0
      ],
      "type": "VEC3"
    },
    {
      "bufferView": 2,
      "byteOffset": 283320,
      "componentType": 5126,
      "count": 96,
      "max": [
        0.8277473449707031,
        0.8206135630607605,
        1.0
      ],
      "min": [
        -0.8277504444122314,
        -0.820611298084259,
        -1.0
      ],
      "type": "VEC3"
    },
    {
      "bufferView": 1,
      "byteOffset": 244272,
      "componentType": 5126,
      "count": 96,
      "max": [
        0.9977297782897949,
        1.0
      ],
      "min": [
        0.0,
        0.13188180327415466
      ],
      "type": "VEC2"
    },
    {
      "bufferView": 1,
      "byteOffset": 245040,
      "componentType": 5126,
      "count": 96,
      "max": [
        0.9977297782897949,
        1.0
      ],
      "min": [
        0.0,
        0.13188180327415466
      ],
      "type": "VEC2"
    },
    {
      "bufferView": 1,
      "byteOffset": 245808,
      "componentType": 5126,
      "count": 96,
      "max": [
        0.9977297782897949,
        1.0
      ],
      "min": [
        0.0,
        0.13188180327415466
      ],
      "type": "VEC2"
    },
    {
      "bufferView": 0,
      "byteOffset": 153912,
      "componentType": 5125,
      "count": 240,
      "type": "SCALAR"
    },
    {
      "bufferView": 2,
      "byteOffset": 284472,
      "componentType": 5126,
      "count": 97,
      "max": [
        0.0530719980597496,
        -3.444680690765381,
        -0.13008791208267212
      ],
      "min": [
        -8.35455322265625,
        -3.7967381477355957,
        -3.465404510498047
      ],
      "type": "VEC3"
    },
    {
      "bufferView": 2,
      "byteOffset": 285636,
      "componentType": 5126,
      "count": 97,
      "max": [
        0.9995349049568176,
        1.9307908587506972e-05,
        1.0
      ],
      "min": [
        -0.9940007925033569,
        -0.08060234040021896,
        -1.0
      ],
      "type": "VEC3"
    },
    {
      "bufferView": 3,
      "componentType": 5126,
      "count": 97,
      "max": [
        1.0,
        5.108936966280453e-05,
        0.9967204332351685,
        1.0
      ],
      "min": [
        -1.0,
        -0.00011678160808514804,
        -1.0,
        1.0
      ],
      "type": "VEC4"
    },
    {
      "bufferView": 1,
      "byteOffset": 246576,
      "componentType": 5126,
      "count": 97,
      "max": [
        0.9606460332870483,
        0.4684908986091614
      ],
      "min": [
        0.0010786057682707906,
        0.006369512528181076
      ],
      "type": "VEC2"
    },
    {
      "bufferView": 1,
      "byteOffset": 247352,
      "componentType": 5126,
      "count": 97,
      "max": [
        0.9606460332870483,
        0.4684908986091614
      ],
      "min": [
        0.0010786057682707906,
        0.006369512528181076
      ],
      "type": "VEC2"
    },
    {
      "bufferView": 0,
      "byteOffset": 154872,
      "componentType": 5125,
      "count": 156,
      "type": "SCALAR"
    },
    {
      "bufferView": 2,
      "byteOffset": 286800,
      "componentType": 5126,
      "count": 503,
      "max": [
        -2.7080278396606445,
        -0.0900985449552536,
        0.0548308864235878
      ],
      "min": [
        -4.181232929229736,
        -0.710004985332489,
        -4.1944580078125
      ],
      "type": "VEC3"
    },
    {
      "bufferView": 2,
      "byteOffset": 292836,
      "componentType": 5126,
      "count": 503,
      "max": [
        0.12369628250598907,
        0.9815135598182678,
        0.9984813928604126
      ],
      "min": [
        -1.0,
        -0.99233478307724,
        -0.9984814524650574
      ],
      "type": "VEC3"
    },
    {
      "bufferView": 1,
      "byteOffset": 248128,
      "componentType": 5126,
      "count": 503,
      "max": [
        0.4296586215496063,
        0.9818781018257141
      ],
      "min": [
        0.11581148207187653,
        0.1711955964565277
      ],
      "type": "VEC2"
    },
    {
      "bufferView": 1,
      "byteOffset": 252152,
      "componentType": 5126,
      "count": 503,
      "max": [
        0.4296586215496063,
        0.9818781018257141
      ],
      "min": [
        0.11581148207187653,
        0.1711955964565277
      ],
      "type": "VEC2"
    },
    {
      "bufferView": 0,
      "byteOffset": 155496,
      "componentType": 5125,
      "count": 1920,
      "type": "SCALAR"
    },
    {
      "bufferView": 2,
      "byteOffset": 298872,
      "componentType": 5126,
      "count": 663,
      "max": [
        -3.1623950004577637,
        -0.09009852260351181,
        0.0548308864235878
      ],
      "min": [
        -4.695181369781494,
        -0.8478065729141235,
        -4.1944580078125
      ],
      "type": "VEC3"
    },
    {
      "bufferView": 2,
      "byteOffset": 306828,
      "componentType": 5126,
      "count": 663,
      "max": [
        0.9998776912689209,
        0.9992567896842957,
        0.9982184767723083
      ],
      "min": [
        -1.0,
        -1.0,
        -0.9982184171676636
      ],
      "type": "VEC3"
    },
    {
      "bufferView": 1,
      "byteOffset": 256176,
      "componentType": 5126,
      "count": 663,
      "max": [
        0.9711437225341797,
        0.7475796937942505
      ],
      "min": [
        0.034081246703863144,
        0.004067874513566494
      ],
      "type": "VEC2"
    },
    {
      "bufferView": 1,
      "byteOffset": 261480,
      "componentType": 5126,
      "count": 663,
      "max": [
        0.9711437225341797,
        0.7475796937942505
      ],
      "min": [
        0.034081246703863144,
        0.004067874513566494
      ],
      "type": "VEC2"
    },
    {
      "bufferView": 1,
      "byteOffset": 266784,
      "componentType": 5126,
      "count": 663,
      "max": [
        0.9711437225341797,
        0.7475796937942505
      ],
      "min": [
        0.034081246703863144,
        0.004067874513566494
      ],
      "type": "VEC2"
    },
    {
      "bufferView": 0,
      "byteOffset": 163176,
      "componentType": 5125,
      "count": 2046,
      "type": "SCALAR"
    },
    {
      "bufferView": 2,
      "byteOffset": 314784,
      "componentType": 5126,
      "count": 96,
      "max": [
        -0.3421662151813507,
        0.5598644614219666,
        0.004290614277124405
      ],
      "min": [
        -0.642166256904602,
        0.4098644554615021,
        0.0
      ],
      "type": "VEC3"
    },
    {
      "bufferView": 2,
      "byteOffset": 315936,
      "componentType": 5126,
      "count": 96,
      "max": [
        0.8277473449707031,
        0.8206135630607605,
        1.0
      ],
      "min": [
        -0.8277504444122314,
        -0.820611298084259,
        -1.0
      ],
      "type": "VEC3"
    },
    {
      "bufferView": 1,
      "byteOffset": 272088,
      "componentType": 5126,
      "count": 96,
      "max": [
        0.9977297782897949,
        1.0
      ],
      "min": [
        0.0,
        0.13188180327415466
      ],
      "type": "VEC2"
    },
    {
      "bufferView": 1,
      "byteOffset": 272856,
      "componentType": 5126,
      "count": 96,
      "max": [
        0.9977297782897949,
        1.0
      ],
      "min": [
        0.0,
        0.13188180327415466
      ],
      "type": "VEC2"
    },
    {
      "bufferView": 1,
      "byteOffset": 273624,
      "componentType": 5126,
      "count": 96,
      "max": [
        0.9977297782897949,
        1.0
      ],
      "min": [
        0.0,
        0.13188180327415466
      ],
      "type": "VEC2"
    },
    {
      "bufferView": 0,
      "byteOffset": 171360,
      "componentType": 5125,
      "count": 240,
      "type": "SCALAR"
    },
    {
      "bufferView": 2,
      "byteOffset": 317088,
      "componentType": 5126,
      "count": 181,
      "max": [
        6.591047286987305,
        0.9404028654098511,
        -0.48181331157684326
      ],
      "min": [
        5.279874324798584,
        0.6175504326820374,
        -3.657813549041748
      ],
      "type": "VEC3"
    },
    {
      "bufferView": 2,
      "byteOffset": 319260,
      "componentType": 5126,
      "count": 181,
      "max": [
        0.9938133955001831,
        0.9972772002220154,
        0.7713138461112976
      ],
      "min": [
        0.062090858817100525,
        -0.11113189905881882,
        -0.7713125944137573
      ],
      "type": "VEC3"
    },
    {
      "bufferView": 1,
      "byteOffset": 274392,
      "componentType": 5126,
      "count": 181,
      "max": [
        0.9511833190917969,
        0.7493091225624084
      ],
      "min": [
        0.1503247618675232,
        0.12644954025745392
      ],
      "type": "VEC2"
    },
    {
      "bufferView": 1,
      "byteOffset": 275840,
      "componentType": 5126,
      "count": 181,
      "max": [
        0.9511833190917969,
        0.7493091225624084
      ],
      "min": [
        0.1503247618675232,
        0.12644954025745392
      ],
      "type": "VEC2"
    },
    {
      "bufferView": 0,
      "byteOffset": 172320,
      "componentType": 5125,
      "count": 702,
      "type": "SCALAR"
    },
    {
      "bufferView": 2,
      "byteOffset": 321432,
      "componentType": 5126,
      "count": 127,
      "max": [
        6.596072673797607,
        0.9404032230377197,
        -0.48181337118148804
      ],
      "min": [
        5.2798752784729,
        0.6175501346588135,
        -3.657813787460327
      ],
      "type": "VEC3"
    },
    {
      "bufferView": 2,
      "byteOffset": 322956,
      "componentType": 5126,
      "count": 127,
      "max": [
        0.9969410300254822,
        0.9329605102539063,
        0.917917013168335
      ],
      "min": [
        -0.9594916701316833,
        -0.996752917766571,
        -0.9179176688194275
      ],
      "type": "VEC3"
    },
    {
      "bufferView": 1,
      "byteOffset": 277288,
      "componentType": 5126,
      "count": 127,
      "max": [
        0.930335521697998,
        0.24765698611736298
      ],
      "min": [
        0.5041415691375732,
        0.12906748056411743
      ],
      "type": "VEC2"
    },
    {
      "bufferView": 1,
      "byteOffset": 278304,
      "componentType": 5126,
      "count": 127,
      "max": [
        0.930335521697998,
        0.24765698611736298
      ],
      "min": [
        0.5041415691375732,
        0.12906748056411743
      ],
      "type": "VEC2"
    },
    {
      "bufferView": 1,
      "byteOffset": 279320,
      "componentType": 5126,
      "count": 127,
      "max": [
        0.930335521697998,
        0.24765698611736298
      ],
      "min": [
        0.5041415691375732,
        0.12906748056411743
      ],
      "type": "VEC2"
    },
    {
      "bufferView": 0,
      "byteOffset": 175128,
      "componentType": 5125,
      "count": 468,
      "type": "SCALAR"
    },
    {
      "bufferView": 2,
      "byteOffset": 324480,
      "componentType": 5126,
      "count": 287,
      "max": [
        6.840888500213623,
        -0.0011134494561702013,
        0.07661299407482147
      ],
      "min": [
        4.559338092803955,
        -0.5534833073616028,
        -4.216239929199219
      ],
      "type": "VEC3"
    },
    {
      "bufferView": 2,
      "byteOffset": 327924,
      "componentType": 5126,
      "count": 287,
      "max": [
        1.0,
        0.9848178625106812,
        0.9989533424377441
      ],
      "min": [
        0.01699044741690159,
        -0.7801632285118103,
        -0.9989534020423889
      ],
      "type": "VEC3"
    },
    {
      "bufferView": 1,
      "byteOffset": 280336,
      "componentType": 5126,
      "count": 287,
      "max": [
        0.8987549543380737,
        0.9742676019668579
      ],
      "min": [
        0.11897405982017517,
        0.021937355399131775
      ],
      "type": "VEC2"
    },
    {
      "bufferView": 1,
      "byteOffset": 282632,
      "componentType": 5126,
      "count": 287,
      "max": [
        0.8987549543380737,
        0.9742676019668579
      ],
      "min": [
        0.11897405982017517,
        0.021937355399131775
      ],
      "type": "VEC2"
    },
    {
      "bufferView": 0,
      "byteOffset": 177000,
      "componentType": 5125,
      "count": 1224,
      "type": "SCALAR"
    },
    {
      "bufferView": 2,
      "byteOffset": 331368,
      "componentType": 5126,
      "count": 416,
      "max": [
        6.37080717086792,
        0.005081832408905029,
        0.07661288231611252
      ],
      "min": [
        4.059675216674805,
        -0.7320116758346558,
        -4.216239929199219
      ],
      "type": "VEC3"
    },
    {
      "bufferView": 2,
      "byteOffset": 336360,
      "componentType": 5126,
      "count": 416,
      "max": [
        1.0,
        1.0,
        1.0
      ],
      "min": [
        -0.9997766017913818,
        -1.0,
        -1.0
      ],
      "type": "VEC3"
    },
    {
      "bufferView": 1,
      "byteOffset": 284928,
      "componentType": 5126,
      "count": 416,
      "max": [
        0.9720408320426941,
        0.7470414638519287
      ],
      "min": [
        0.507459819316864,
        0.13231657445430756
      ],
      "type": "VEC2"
    },
    {
      "bufferView": 1,
      "byteOffset": 288256,
      "componentType": 5126,
      "count": 416,
      "max": [
        0.9720408320426941,
        0.7470414638519287
      ],
      "min": [
        0.507459819316864,
        0.13231657445430756
      ],
      "type": "VEC2"
    },
    {
      "bufferView": 1,
      "byteOffset": 291584,
      "componentType": 5126,
      "count": 416,
      "max": [
        0.9720408320426941,
        0.7470414638519287
      ],
      "min": [
        0.507459819316864,
        0.13231657445430756
      ],
      "type": "VEC2"
    },
    {
      "bufferView": 0,
      "byteOffset": 181896,
      "componentType": 5125,
      "count": 1452,
      "type": "SCALAR"
    },
    {
      "bufferView": 2,
      "byteOffset": 341352,
      "componentType": 5126,
      "count": 1123,
      "max": [
        0.3856106400489807,
        0.3856753706932068,
        -0.00336904707364738
      ],
      "min": [
        -0.3856102228164673,
        -0.3855455219745636,
        -0.38224154710769653
      ],
      "type": "VEC3"
    },
    {
      "bufferView": 2,
      "byteOffset": 354828,
      "componentType": 5126,
      "count": 1123,
      "max": [
        1.0,
        1.0,
        1.0
      ],
      "min": [
        -1.0,
        -1.0,
        -1.0
      ],
      "type": "VEC3"
    },
    {
      "bufferView": 1,
      "byteOffset": 294912,
      "componentType": 5126,
      "count": 1123,
      "max": [
        0.992581844329834,
        0.995375394821167
      ],
      "min": [
        0.0096365287899971,
        0.007186064030975103
      ],
      "type": "VEC2"
    },
    {
      "bufferView": 1,
      "byteOffset": 303896,
      "componentType": 5126,
      "count": 1123,
      "max": [
        0.992581844329834,
        0.995375394821167
      ],
      "min": [
        0.0096365287899971,
        0.007186064030975103
      ],
      "type": "VEC2"
    },
    {
      "bufferView": 0,
      "byteOffset": 187704,
      "componentType": 5125,
      "count": 3504,
      "type": "SCALAR"
    },
    {
      "bufferView": 2,
      "byteOffset": 368304,
      "componentType": 5126,
      "count": 1123,
      "max": [
        0.3856106400489807,
        0.3856753706932068,
        -0.00336904707364738
      ],
      "min": [
        -0.3856102228164673,
        -0.3855455219745636,
        -0.38224154710769653
      ],
      "type": "VEC3"
    },
    {
      "bufferView": 2,
      "byteOffset": 381780,
      "componentType": 5126,
      "count": 1123,
      "max": [
        1.0,
        1.0,
        1.0
      ],
      "min": [
        -1.0,
        -1.0,
        -1.0
      ],
      "type": "VEC3"
    },
    {
      "bufferView": 1,
      "byteOffset": 312880,
      "componentType": 5126,
      "count": 1123,
      "max": [
        0.992581844329834,
        0.995375394821167
      ],
      "min": [
        0.0096365287899971,
        0.007186064030975103
      ],
      "type": "VEC2"
    },
    {
      "bufferView": 1,
      "byteOffset": 321864,
      "componentType": 5126,
      "count": 1123,
      "max": [
        0.992581844329834,
        0.995375394821167
      ],
      "min": [
        0.0096365287899971,
        0.007186064030975103
      ],
      "type": "VEC2"
    },
    {
      "bufferView": 0,
      "byteOffset": 201720,
      "componentType": 5125,
      "count": 3504,
      "type": "SCALAR"
    },
    {
      "bufferView": 2,
      "byteOffset": 395256,
      "componentType": 5126,
      "count": 1123,
      "max": [
        0.3856106400489807,
        0.3856753706932068,
        -0.00336904707364738
      ],
      "min": [
        -0.3856102228164673,
        -0.3855455219745636,
        -0.38224154710769653
      ],
      "type": "VEC3"
    },
    {
      "bufferView": 2,
      "byteOffset": 408732,
      "componentType": 5126,
      "count": 1123,
      "max": [
        1.0,
        1.0,
        1.0
      ],
      "min": [
        -1.0,
        -1.0,
        -1.0
      ],
      "type": "VEC3"
    },
    {
      "bufferView": 1,
      "byteOffset": 330848,
      "componentType": 5126,
      "count": 1123,
      "max": [
        0.992581844329834,
        0.995375394821167
      ],
      "min": [
        0.0096365287899971,
        0.007186064030975103
      ],
      "type": "VEC2"
    },
    {
      "bufferView": 1,
      "byteOffset": 339832,
      "componentType": 5126,
      "count": 1123,
      "max": [
        0.992581844329834,
        0.995375394821167
      ],
      "min": [
        0.0096365287899971,
        0.007186064030975103
      ],
      "type": "VEC2"
    },
    {
      "bufferView": 0,
      "byteOffset": 215736,
      "componentType": 5125,
      "count": 3504,
      "type": "SCALAR"
    },
    {
      "bufferView": 2,
      "byteOffset": 422208,
      "componentType": 5126,
      "count": 1123,
      "max": [
        0.3856106400489807,
        0.3856753706932068,
        -0.00336904707364738
      ],
      "min": [
        -0.3856102228164673,
        -0.3855455219745636,
        -0.38224154710769653
      ],
      "type": "VEC3"
    },
    {
      "bufferView": 2,
      "byteOffset": 435684,
      "componentType": 5126,
      "count": 1123,
      "max": [
        1.0,
        1.0,
        1.0
      ],
      "min": [
        -1.0,
        -1.0,
        -1.0
      ],
      "type": "VEC3"
    },
    {
      "bufferView": 1,
      "byteOffset": 348816,
      "componentType": 5126,
      "count": 1123,
      "max": [
        0.992581844329834,
        0.995375394821167
      ],
      "min": [
        0.0096365287899971,
        0.007186064030975103
      ],
      "type": "VEC2"
    },
    {
      "bufferView": 1,
      "byteOffset": 357800,
      "componentType": 5126,
      "count": 1123,
      "max": [
        0.992581844329834,
        0.995375394821167
      ],
      "min": [
        0.0096365287899971,
        0.007186064030975103
      ],
      "type": "VEC2"
    },
    {
      "bufferView": 0,
      "byteOffset": 229752,
      "componentType": 5125,
      "count": 3504,
      "type": "SCALAR"
    }
  ],
  "asset": {
    "extras": {
      "author": "Daniel Zhabotinsky (https://sketchfab.com/DanielZhabotinsky)",
      "license": "CC-BY-4.0 (http://creativecommons.org/licenses/by/4.0/)",
      "source": "https://sketchfab.com/3d-models/kiri-86-low-poly-model-5c17c582ef9549798f694b660feea42a",
      "title": "Kiri '86 - Low poly model"
    },
    "generator": "Sketchfab-16.82.0",
    "version": "2.0"
  },
  "bufferViews": [
    {
      "buffer": 0,
      "byteLength": 243768,
      "name": "floatBufferViews",
      "target": 34963
    },
    {
      "buffer": 0,
      "byteLength": 366784,
      "byteOffset": 243768,
      "byteStride": 8,
      "name": "floatBufferViews",
      "target": 34962
    },
    {
      "buffer": 0,
      "byteLength": 449160,
      "byteOffset": 610552,
      "byteStride": 12,
      "name": "floatBufferViews",
      "target": 34962
    },
    {
      "buffer": 0,
      "byteLength": 1552,
      "byteOffset": 1059712,
      "byteStride": 16,
      "name": "floatBufferViews",
      "target": 34962
    }
  ],
  "buffers": [
    {
      "byteLength": 1061264,
      "uri": "scene.bin"
    }
  ],
  "extensionsUsed": [
    "KHR_texture_transform",
    "KHR_materials_clearcoat",
    "KHR_materials_specular"
  ],
  "images": [
    {
      "uri": "textures/kiri86_Bodymat_metallicRoughness.png"
    },
    {
      "uri": "textures/kiri86_Bodymat_specularf0.png"
    },
    {
      "uri": "textures/UCB_BOTTOM_GT_baseColor.png"
    },
    {
      "uri": "textures/UCB_BOTTOM_GT_metallicRoughness.png"
    },
    {
      "uri": "textures/UCB_BOTTOM_GT_specularf0.png"
    },
    {
      "uri": "textures/UCB_Lights_and_Glass_Transperent_baseColor.jpeg"
    },
    {
      "uri": "textures/UCB_Interior_Trim_metallicRoughness.png"
    },
    {
      "uri": "textures/Numberplates_Misk_U_baseColor.png"
    },
    {
      "uri": "textures/Carbadges_misc_U_baseColor.png"
    },
    {
      "uri": "textures/Carbadges_misc_U_normal.png"
    },
    {
      "uri": "textures/RB1c_Tire_1k_baseColor.jpeg"
    },
    {
      "uri": "textures/RB1c_Tire_1k_metallicRoughness.png"
    },
    {
      "uri": "textures/RB1c_Tire_1k_specularf0.png"
    }
  ],
  "materials": [
    {
      "doubleSided": true,
      "extensions": {
        "KHR_materials_clearcoat": {
          "clearcoatFactor": 0.6920194393897973,
          "clearcoatRoughnessFactor": 0.04
        },
        "KHR_materials_specular": {
          "specularColorFactor": [
            1.0,
            1.0,
            1.0
          ],
          "specularFactor": 1.0,
          "specularTexture": {
            "index": 1
          }
        }
      },
      "name": "kiri86_Bodymat",
      "occlusionTexture": {
        "index": 0
      },
      "pbrMetallicRoughness": {
        "baseColorFactor": [
          0.3662525955988395,
          0.005181516702338386,
          0.01680737575288736,
          1.0
        ],
        "metallicRoughnessTexture": {
          "extensions": {
            "KHR_texture_transform": {
              "scale": [
                20.000000000000004,
                20.000000000000004
              ]
            }
          },
          "index": 0
        },
        "roughnessFactor": 0.15759458377560343
      }
    },
    {
      "doubleSided": true,
      "extensions": {
        "KHR_materials_specular": {
          "specularColorFactor": [
            1.0,
            1.0,
            1.0
          ],
          "specularFactor": 1.0,
          "specularTexture": {
            "index": 4
          }
        }
      },
      "name": "UCB_BOTTOM_GT",
      "occlusionTexture": {
        "index": 3
      },
      "pbrMetallicRoughness": {
        "baseColorTexture": {
          "index": 2
        },
        "metallicRoughnessTexture": {
          "index": 3
        }
      }
    },
    {
      "alphaMode": "BLEND",
      "doubleSided": true,
      "name": "UCB_Lights_and_Glass_Transperent",
      "pbrMetallicRoughness": {
        "baseColorFactor": [
          1.0,
          1.0,
          1.0,
          0.8
        ],
        "baseColorTexture": {
          "index": 5
        },
        "metallicFactor": 0.0,
        "roughnessFactor": 0.07257244765516349
      }
    },
    {
      "doubleSided": true,
      "extensions": {
        "KHR_materials_specular": {
          "specularColorFactor": [
            1.0,
            1.0,
            1.0
          ],
          "specularFactor": 1.0,
          "specularTexture": {
            "index": 4
          }
        }
      },
      "name": "UCB_Interior_Trim",
      "occlusionTexture": {
        "index": 6
      },
      "pbrMetallicRoughness": {
        "baseColorTexture": {
          "index": 2
        },
        "metallicFactor": 0.0,
        "metallicRoughnessTexture": {
          "index": 6
        }
      }
    },
    {
      "doubleSided": true,
      "name": "UCB_Lights_and_Glass",
      "pbrMetallicRoughness": {
        "baseColorTexture": {
          "index": 5
        },
        "metallicFactor": 0.0,
        "roughnessFactor": 0.0543534184864978
      }
    },
    {
      "alphaMode": "BLEND",
      "doubleSided": true,
      "name": "Numberplates_Misk_U",
      "pbrMetallicRoughness": {
        "baseColorTexture": {
          "index": 7
        },
        "metallicFactor": 0.0,
        "roughnessFactor": 0.10702864035024488
      }
    },
    {
      "alphaMode": "BLEND",
      "doubleSided": true,
      "name": "Carbadges_misc_U",
      "normalTexture": {
        "index": 9
      },
      "pbrMetallicRoughness": {
        "baseColorTexture": {
          "index": 8
        },
        "metallicFactor": 0.6191433227151344,
        "roughnessFactor": 0.44302604075136603
      }
    },
    {
      "doubleSided": true,
      "extensions": {
        "KHR_materials_specular": {
          "specularColorFactor": [
            1.0,
            1.0,
            1.0
          ],
          "specularFactor": 1.0,
          "specularTexture": {
            "index": 12
          }
        }
      },
      "name": "RB1c_Tire_1k",
      "occlusionTexture": {
        "index": 11
      },
      "pbrMetallicRoughness": {
        "baseColorTexture": {
          "index": 10
        },
        "metallicFactor": 0.8,
        "metallicRoughnessTexture": {
          "index": 11
        }
      }
    }
  ],
  "meshes": [
    {
      "name": "kiri86_Body_kiri86_Bodymat_0",
      "primitives": [
        {
          "attributes": {
            "NORMAL": 1,
            "POSITION": 0,
            "TEXCOORD_0": 2,
            "TEXCOORD_1": 3
          },
          "indices": 4,
          "material": 0,
          "mode": 4
        }
      ]
    },
    {
      "name": "kiri86_Bottom_UCB_BOTTOM_GT_0",
      "primitives": [
        {
          "attributes": {
            "NORMAL": 6,
            "POSITION": 5,
            "TEXCOORD_0": 7,
            "TEXCOORD_1": 8,
            "TEXCOORD_2": 9
          },
          "indices": 10,
          "material": 1,
          "mode": 4
        }
      ]
    },
    {
      "name": "kiri86_Headlights_Glass_UCB_Lights_and_Glass_Transperent_0",
      "primitives": [
        {
          "attributes": {
            "NORMAL": 12,
            "POSITION": 11,
            "TEXCOORD_0": 13
          },
          "indices": 14,
          "material": 2,
          "mode": 4
        }
      ]
    },
    {
      "name": "kiri86_Windshield_UCB_Lights_and_Glass_Transperent_0",
      "primitives": [
        {
          "attributes": {
            "NORMAL": 16,
            "POSITION": 15,
            "TEXCOORD_0": 17
          },
          "indices": 18,
          "material": 2,
          "mode": 4
        }
      ]
    },
    {
      "name": "kiri86_Rear_window_UCB_Lights_and_Glass_Transperent_0",
      "primitives": [
        {
          "attributes": {
            "NORMAL": 20,
            "POSITION": 19,
            "TEXCOORD_0": 21
          },
          "indices": 22,
          "material": 2,
          "mode": 4
        }
      ]
    },
    {
      "name": "kiri86_Body_Glass_UCB_Lights_and_Glass_Transperent_0",
      "primitives": [
        {
          "attributes": {
            "NORMAL": 24,
            "POSITION": 23,
            "TEXCOORD_0": 25
          },
          "indices": 26,
          "material": 2,
          "mode": 4
        }
      ]
    },
    {
      "name": "kiri86_Hood_kiri86_Bodymat_0",
      "primitives": [
        {
          "attributes": {
            "NORMAL": 28,
            "POSITION": 27,
            "TEXCOORD_0": 29,
            "TEXCOORD_1": 30
          },
          "indices": 31,
          "material": 0,
          "mode": 4
        }
      ]
    },
    {
      "name": "kiri86_Interior_UCB_Interior_Trim_0",
      "primitives": [
        {
          "attributes": {
            "NORMAL": 33,
            "POSITION": 32,
            "TEXCOORD_0": 34,
            "TEXCOORD_1": 35,
            "TEXCOORD_2": 36
          },
          "indices": 37,
          "material": 3,
          "mode": 4
        }
      ]
    },
    {
      "name": "kiri86_Suspension_front_UCB_BOTTOM_GT_0",
      "primitives": [
        {
          "attributes": {
            "NORMAL": 39,
            "POSITION": 38,
            "TEXCOORD_0": 40,
            "TEXCOORD_1": 41,
            "TEXCOORD_2": 42
          },
          "indices": 43,
          "material": 1,
          "mode": 4
        }
      ]
    },
    {
      "name": "kiri86_Glass_Driver_UCB_Lights_and_Glass_Transperent_0",
      "primitives": [
        {
          "attributes": {
            "NORMAL": 45,
            "POSITION": 44,
            "TEXCOORD_0": 46
          },
          "indices": 47,
          "material": 2,
          "mode": 4
        }
      ]
    },
    {
      "name": "kiri86_Glass_Passenger_UCB_Lights_and_Glass_Transperent_0",
      "primitives": [
        {
          "attributes": {
            "NORMAL": 49,
            "POSITION": 48,
            "TEXCOORD_0": 50
          },
          "indices": 51,
          "material": 2,
          "mode": 4
        }
      ]
    },
    {
      "name": "kiri86_Steering_Wheel_UCB_Interior_Trim_0",
      "primitives": [
        {
          "attributes": {
            "NORMAL": 53,
            "POSITION": 52,
            "TEXCOORD_0": 54,
            "TEXCOORD_1": 55,
            "TEXCOORD_2": 56
          },
          "indices": 57,
          "material": 3,
          "mode": 4
        }
      ]
    },
    {
      "name": "kiri86_Taillights_Glass_UCB_Lights_and_Glass_Transperent_0",
      "primitives": [
        {
          "attributes": {
            "NORMAL": 59,
            "POSITION": 58,
            "TEXCOORD_0": 60
          },
          "indices": 61,
          "material": 2,
          "mode": 4
        }
      ]
    },
    {
      "name": "kiri86_Headlights_UCB_Lights_and_Glass_0",
      "primitives": [
        {
          "attributes": {
            "NORMAL": 63,
            "POSITION": 62,
            "TEXCOORD_0": 64
          },
          "indices": 65,
          "material": 4,
          "mode": 4
        }
      ]
    },
    {
      "name": "kiri86_Blinkers_UCB_Lights_and_Glass_0",
      "primitives": [
        {
          "attributes": {
            "NORMAL": 67,
            "POSITION": 66,
            "TEXCOORD_0": 68
          },
          "indices": 69,
          "material": 4,
          "mode": 4
        }
      ]
    },
    {
      "name": "kiri86_Reverse_UCB_Lights_and_Glass_0",
      "primitives": [
        {
          "attributes": {
            "NORMAL": 71,
            "POSITION": 70,
            "TEXCOORD_0": 72
          },
          "indices": 73,
          "material": 4,
          "mode": 4
        }
      ]
    },
    {
      "name": "kiri86_Brakelights001_UCB_Lights_and_Glass_0",
      "primitives": [
        {
          "attributes": {
            "NORMAL": 75,
            "POSITION": 74,
            "TEXCOORD_0": 76
          },
          "indices": 77,
          "material": 4,
          "mode": 4
        }
      ]
    },
    {
      "name": "kiri86_Numberplates_Rear_Numberplates_Misk_U_0",
      "primitives": [
        {
          "attributes": {
            "NORMAL": 79,
            "POSITION": 78,
            "TEXCOORD_0": 80,
            "TEXCOORD_1": 81,
            "TEXCOORD_2": 82
          },
          "indices": 83,
          "material": 5,
          "mode": 4
        }
      ]
    },
    {
      "name": "kiri86_Body_Badges_Carbadges_misc_U_0",
      "primitives": [
        {
          "attributes": {
            "NORMAL": 85,
            "POSITION": 84,
            "TANGENT": 86,
            "TEXCOORD_0": 87,
            "TEXCOORD_1": 88
          },
          "indices": 89,
          "material": 6,
          "mode": 4
        }
      ]
    },
    {
      "name": "kiri86_Bumper_front_kiri86_Bodymat_0",
      "primitives": [
        {
          "attributes": {
            "NORMAL": 91,
            "POSITION": 90,
            "TEXCOORD_0": 92,
            "TEXCOORD_1": 93
          },
          "indices": 94,
          "material": 0,
          "mode": 4
        }
      ]
    },
    {
      "name": "kiri86_Bumper_Front_Inner_UCB_BOTTOM_GT_0",
      "primitives": [
        {
          "attributes": {
            "NORMAL": 96,
            "POSITION": 95,
            "TEXCOORD_0": 97,
            "TEXCOORD_1": 98,
            "TEXCOORD_2": 99
          },
          "indices": 100,
          "material": 1,
          "mode": 4
        }
      ]
    },
    {
      "name": "kiri86_Numberplates_Front_Numberplates_Misk_U_0",
      "primitives": [
        {
          "attributes": {
            "NORMAL": 102,
            "POSITION": 101,
            "TEXCOORD_0": 103,
            "TEXCOORD_1": 104,
            "TEXCOORD_2": 105
          },
          "indices": 106,
          "material": 5,
          "mode": 4
        }
      ]
    },
    {
      "name": "kiri86_Trunk_door_kiri86_Bodymat_0",
      "primitives": [
        {
          "attributes": {
            "NORMAL": 108,
            "POSITION": 107,
            "TEXCOORD_0": 109,
            "TEXCOORD_1": 110
          },
          "indices": 111,
          "material": 0,
          "mode": 4
        }
      ]
    },
    {
      "name": "kiri86_Trunk_door_inner_UCB_BOTTOM_GT_0",
      "primitives": [
        {
          "attributes": {
            "NORMAL": 113,
            "POSITION": 112,
            "TEXCOORD_0": 114,
            "TEXCOORD_1": 115,
            "TEXCOORD_2": 116
          },
          "indices": 117,
          "material": 1,
          "mode": 4
        }
      ]
    },
    {
      "name": "kiri86_Bumper_rear_kiri86_Bodymat_0",
      "primitives": [
        {
          "attributes": {
            "NORMAL": 119,
            "POSITION": 118,
            "TEXCOORD_0": 120,
            "TEXCOORD_1": 121
          },
          "indices": 122,
          "material": 0,
          "mode": 4
        }
      ]
    },
    {
      "name": "kiri86_bumper_rear_inner_UCB_BOTTOM_GT_0",
      "primitives": [
        {
          "attributes": {
            "NORMAL": 124,
            "POSITION": 123,
            "TEXCOORD_0": 125,
            "TEXCOORD_1": 126,
            "TEXCOORD_2": 127
          },
          "indices": 128,
          "material": 1,
          "mode": 4
        }
      ]
    },
    {
      "name": "kiri86_Wheel_FL_RB1c_Tire_1k_0",
      "primitives": [
        {
          "attributes": {
            "NORMAL": 130,
            "POSITION": 129,
            "TEXCOORD_0": 131,
            "TEXCOORD_1": 132
          },
          "indices": 133,
          "material": 7,
          "mode": 4
        }
      ]
    },
    {
      "name": "kiri86_Wheel_RL_RB1c_Tire_1k_0",
      "primitives": [
        {
          "attributes": {
            "NORMAL": 135,
            "POSITION": 134,
            "TEXCOORD_0": 136,
            "TEXCOORD_1": 137
          },
          "indices": 138,
          "material": 7,
          "mode": 4
        }
      ]
    },
    {
      "name": "kiri86_Wheel_RR_RB1c_Tire_1k_0",
      "primitives": [
        {
          "attributes": {
            "NORMAL": 140,
            "POSITION": 139,
            "TEXCOORD_0": 141,
            "TEXCOORD_1": 142
          },
          "indices": 143,
          "material": 7,
          "mode": 4
        }
      ]
    },
    {
      "name": "kiri86_Wheel_FR_RB1c_Tire_1k_0",
      "primitives": [
        {
          "attributes": {
            "NORMAL": 145,
            "POSITION": 144,
            "TEXCOORD_0": 146,
            "TEXCOORD_1": 147
          },
          "indices": 148,
          "material": 7,
          "mode": 4
        }
      ]
    }
  ],
  "nodes": [
    {
      "children": [
        1
      ],
      "matrix": [
        1.0,
        0.0,
        0.0,
        0.0,
        0.0,
        0.000996071961708589,
        -0.9999995231628418,
        0.0,
        0.0,
        0.9999995231628418,
        0.000996071961708589,
        0.0,
        0.0,
        0.0,
        0.0,
        1.0
      ],
      "name": "Sketchfab_model"
    },
    {
      "children": [
        2
      ],
      "matrix": [
        1.0,
        0.0,
        0.0,
        0.0,
        0.0,
        0.0,
        1.0,
        0.0,
        0.0,
        -1.0,
        0.0,
        0.0,
        0.0,
        0.0,
        0.0,
        1.0
      ],
      "name": "614578e57e7744a28780cb5123519bd6.fbx"
    },
    {
      "children": [
        3,
        6,
        9,
        12,
        15,
        18,
        21,
        24,
        27,
        30,
        33,
        36,
        39,
        42,
        45,
        48,
        51,
        54,
        57,
        60,
        63,
        66,
        69,
        72,
        75,
        78,
        81,
        84,
        87,
        90
      ],
      "name": "RootNode"
    },
    {
      "children": [
        4
      ],
      "matrix": [
        -0.38963800668716,
        -4.7716893771559624e-17,
        5.8833702870752894e-08,
        0.0,
        -9.632944462320621e-15,
        0.3896380066871591,
        -6.348009357250363e-08,
        0.0,
        -5.8833702870752113e-08,
        -6.348009357250434e-08,
        -0.3896380066871548,
        0.0,
        -0.015468358993530273,
        0.7998072504997253,
        0.0,
        1.0
      ],
      "name": "kiri86_Body"
    },
    {
      "children": [
        5
      ],
      "matrix": [
        1.0,
        0.0,
        -0.0,
        0.0,
        0.0,
        1.0,
        0.0,
        0.0,
        0.0,
        0.0,
        1.0,
        0.0,
        -1.345258116722107,
        -0.6186112761497498,
        2.0698134899139404,
        1.0
      ],
      "name": "Object_4"
    },
    {
      "mesh": 0,
      "name": "kiri86_Body_kiri86_Bodymat_0"
    },
    {
      "children": [
        7
      ],
      "matrix": [
        -0.38963800668716,
        -4.7716893771559624e-17,
        5.8833702870752894e-08,
        0.0,
        -9.632944462320621e-15,
        0.3896380066871591,
        -6.348009357250363e-08,
        0.0,
        -5.8833702870752113e-08,
        -6.348009357250434e-08,
        -0.3896380066871548,
        0.0,
        -0.02105867862701416,
        0.7527155876159668,
        -5.960464477539063e-08,
        1.0
      ],
      "name": "kiri86_Bottom"
    },
    {
      "children": [
        8
      ],
      "matrix": [
        1.0,
        0.0,
        -0.0,
        0.0,
        0.0,
        1.0,
        0.0,
        0.0,
        0.0,
        0.0,
        1.0,
        0.0,
        -1.3596057891845703,
        -0.4977509081363678,
        2.0698137283325195,
        1.0
      ],
      "name": "Object_7"
    },
    {
      "mesh": 1,
      "name": "kiri86_Bottom_UCB_BOTTOM_GT_0"
    },
    {
      "children": [
        10
      ],
      "matrix": [
        -0.38963800668716,
        -4.7716893771559624e-17,
        5.8833702870752894e-08,
        0.0,
        -9.632944462320621e-15,
        0.3896380066871591,
        -6.348009357250363e-08,
        0.0,
        -5.8833702870752113e-08,
        -6.348009357250434e-08,
        -0.3896380066871548,
        0.0,
        1.9282383918762207,
        0.6370193958282471,
        -1.7881393432617188e-07,
        1.0
      ],
      "name": "kiri86_Headlights_Glass"
    },
    {
      "children": [
        11
      ],
      "matrix": [
        1.0,
        0.0,
        -0.0,
        0.0,
        0.0,
        1.0,
        0.0,
        0.0,
        0.0,
        0.0,
        1.0,
        0.0,
        3.6432347297668457,
        -0.20081870257854462,
        2.0698134899139404,
        1.0
      ],
      "name": "Object_10"
    },
    {
      "mesh": 2,
      "name": "kiri86_Headlights_Glass_UCB_Lights_and_Glass_Transperent_0"
    },
    {
      "children": [
        13
      ],
      "matrix": [
        -0.38963800668716,
        -4.7716893771559624e-17,
        5.8833702870752894e-08,
        0.0,
        -9.632944462320621e-15,
        0.3896380066871591,
        -6.348009357250363e-08,
        0.0,
        -5.8833702870752113e-08,
        -6.348009357250434e-08,
        -0.3896380066871548,
        0.0,
        0.5775453448295593,
        1.0853217840194702,
        -5.960464477539063e-08,
        1.0
      ],
      "name": "kiri86_Windshield"
    },
    {
      "children": [
        14
      ],
      "matrix": [
        1.0,
        0.0,
        -0.0,
        0.0,
        0.0,
        1.0,
        0.0,
        0.0,
        0.0,
        0.0,
        1.0,
        0.0,
        0.17670227587223053,
        -1.35137939453125,
        2.0698137283325195,
        1.0
      ],
      "name": "Object_13"
    },
    {
      "mesh": 3,
      "name": "kiri86_Windshield_UCB_Lights_and_Glass_Transperent_0"
    },
    {
      "children": [
        16
      ],
      "matrix": [
        -0.38963800668716,
        -4.7716893771559624e-17,
        5.8833702870752894e-08,
        0.0,
        -9.632944462320621e-15,
        0.3896380066871591,
        -6.348009357250363e-08,
        0.0,
        -5.8833702870752113e-08,
        -6.348009357250434e-08,
        -0.3896380066871548,
        0.0,
        -1.2786005735397339,
        1.1189370155334473,
        5.960464477539063e-08,
        1.0
      ],
      "name": "kiri86_Rear_window"
    },
    {
      "children": [
        17
      ],
      "matrix": [
        1.0,
        0.0,
        -0.0,
        0.0,
        0.0,
        1.0,
        0.0,
        0.0,
        0.0,
        0.0,
        1.0,
        0.0,
        -4.587066650390625,
        -1.437652587890625,
        2.0698137283325195,
        1.0
      ],
      "name": "Object_16"
    },
    {
      "mesh": 4,
      "name": "kiri86_Rear_window_UCB_Lights_and_Glass_Transperent_0"
    },
    {
      "children": [
        19
      ],
      "matrix": [
        -0.38963800668716,
        -4.7716893771559624e-17,
        5.8833702870752894e-08,
        0.0,
        -9.632944462320621e-15,
        0.3896380066871591,
        -6.348009357250363e-08,
        0.0,
        -5.8833702870752113e-08,
        -6.348009357250434e-08,
        -0.3896380066871548,
        0.0,
        -0.414378821849823,
        1.092054843902588,
        -5.960464477539063e-08,
        1.0
      ],
      "name": "kiri86_Body_Glass"
    },
    {
      "children": [
        20
      ],
      "matrix": [
        1.0,
        0.0,
        -0.0,
        0.0,
        0.0,
        1.0,
        0.0,
        0.0,
        0.0,
        0.0,
        1.0,
        0.0,
        -2.3690552711486816,
        -1.3686599731445313,
        2.0698134899139404,
        1.0
      ],
      "name": "Object_19"
    },
    {
      "mesh": 5,
      "name": "kiri86_Body_Glass_UCB_Lights_and_Glass_Transperent_0"
    },
    {
      "children": [
        22
      ],
      "matrix": [
        -0.38963800668716,
        -4.7716893771559624e-17,
        5.8833702870752894e-08,
        0.0,
        -9.632944462320621e-15,
        0.3896380066871591,
        -6.348009357250363e-08,
        0.0,
        -5.8833702870752113e-08,
        -6.348009357250434e-08,
        -0.3896380066871548,
        0.0,
        1.4453938007354736,
        0.7977739572525024,
        -1.7881393432617188e-07,
        1.0
      ],
      "name": "kiri86_Hood"
    },
    {
      "children": [
        23
      ],
      "matrix": [
        1.0,
        0.0,
        -0.0,
        0.0,
        0.0,
        1.0,
        0.0,
        0.0,
        0.0,
        0.0,
        1.0,
        0.0,
        2.404021739959717,
        -0.61339271068573,
        2.0698134899139404,
        1.0
      ],
      "name": "Object_22"
    },
    {
      "mesh": 6,
      "name": "kiri86_Hood_kiri86_Bodymat_0"
    },
    {
      "children": [
        25
      ],
      "matrix": [
        -0.9999999999999818,
        -1.1920928256781695e-07,
        -1.509958026505497e-07,
        0.0,
        -1.1920925796747543e-07,
        0.9999999999999796,
        -1.629206961676389e-07,
        0.0,
        1.2870083842222488e-07,
        -1.388649539353001e-07,
        -0.8523470163345128,
        0.0,
        -0.29879170656204224,
        0.8093369603157043,
        1.1920928955078125e-07,
        1.0
      ],
      "name": "kiri86_Interior"
    },
    {
      "children": [
        26
      ],
      "matrix": [
        1.0,
        0.0,
        -0.0,
        0.0,
        0.0,
        1.0,
        0.0,
        0.0,
        0.0,
        0.0,
        1.0,
        0.0,
        -0.26511597633361816,
        -0.24452295899391174,
        0.7112888097763062,
        1.0
      ],
      "name": "Object_25"
    },
    {
      "mesh": 7,
      "name": "kiri86_Interior_UCB_Interior_Trim_0"
    },
    {
      "children": [
        28
      ],
      "matrix": [
        -1.0658149719238164,
        1.3052468938498404e-16,
        -1.6093358858256347e-07,
        0.0,
        2.6349936120386468e-14,
        1.065814971923814,
        -1.736433115319195e-07,
        0.0,
        1.5614869333062727e-07,
        -1.6848052939180313e-07,
        -1.0341260433196768,
        0.0,
        -0.009408831596374512,
        0.3283679485321045,
        2.980232238769531e-07,
        1.0
      ],
      "name": "kiri86_Suspension_front"
    },
    {
      "children": [
        29
      ],
      "matrix": [
        1.0,
        0.0,
        -0.0,
        0.0,
        0.0,
        1.0,
        0.0,
        0.0,
        0.0,
        0.0,
        1.0,
        0.0,
        -1.003148078918457,
        -0.13139858841896057,
        0.15903890132904053,
        1.0
      ],
      "name": "Object_28"
    },
    {
      "mesh": 8,
      "name": "kiri86_Suspension_front_UCB_BOTTOM_GT_0"
    },
    {
      "children": [
        31
      ],
      "matrix": [
        -0.38963800668716,
        -4.7716893771559624e-17,
        5.8833702870752894e-08,
        0.0,
        -9.632944462320621e-15,
        0.3896380066871591,
        -6.348009357250363e-08,
        0.0,
        -5.8833702870752113e-08,
        -6.348009357250434e-08,
        -0.3896380066871548,
        0.0,
        0.21866723895072937,
        1.0616633892059326,
        -0.6091930270195007,
        1.0
      ],
      "name": "kiri86_Glass_Driver"
    },
    {
      "children": [
        32
      ],
      "matrix": [
        1.0,
        0.0,
        -0.0,
        0.0,
        0.0,
        1.0,
        0.0,
        0.0,
        0.0,
        0.0,
        1.0,
        0.0,
        -0.7443522810935974,
        -1.290661096572876,
        0.5063295960426331,
        1.0
      ],
      "name": "Object_31"
    },
    {
      "mesh": 9,
      "name": "kiri86_Glass_Driver_UCB_Lights_and_Glass_Transperent_0"
    },
    {
      "children": [
        34
      ],
      "matrix": [
        -0.38963800668716,
        -4.7716893771559624e-17,
        5.8833702870752894e-08,
        0.0,
        -9.632944462320621e-15,
        0.3896380066871591,
        -6.348009357250363e-08,
        0.0,
        -5.8833702870752113e-08,
        -6.348009357250434e-08,
        -0.3896380066871548,
        0.0,
        0.2186673879623413,
        1.0616633892059326,
        0.6091928482055664,
        1.0
      ],
      "name": "kiri86_Glass_Passenger"
    },
    {
      "children": [
        35
      ],
      "matrix": [
        1.0,
        0.0,
        -0.0,
        0.0,
        0.0,
        1.0,
        0.0,
        0.0,
        0.0,
        0.0,
        1.0,
        0.0,
        -0.7443522810935974,
        -1.2906605005264282,
        3.6332976818084717,
        1.0
      ],
      "name": "Object_34"
    },
    {
      "mesh": 10,
      "name": "kiri86_Glass_Passenger_UCB_Lights_and_Glass_Transperent_0"
    },
    {
      "children": [
        37
      ],
      "matrix": [
        -0.9999999999998339,
        -1.192093038840814e-07,
        -5.642599491098865e-07,
        0.0,
        -1.1920921195444751e-07,
        0.9999999999999796,
        -1.6292074501742792e-07,
        0.0,
        4.809453006148791e-07,
        -1.3886495358147264e-07,
        -0.8523470163343868,
        0.0,
        0.38163936138153076,
        0.7815816402435303,
        -0.3313494622707367,
        1.0
      ],
      "name": "kiri86_Steering_Wheel"
    },
    {
      "children": [
        38
      ],
      "matrix": [
        1.0,
        0.0,
        -0.0,
        0.0,
        0.0,
        1.0,
        0.0,
        0.0,
        0.0,
        0.0,
        1.0,
        0.0,
        0.4153149127960205,
        -0.21676766872406006,
        0.32253870368003845,
        1.0
      ],
      "name": "Object_37"
    },
    {
      "mesh": 11,
      "name": "kiri86_Steering_Wheel_UCB_Interior_Trim_0"
    },
    {
      "children": [
        40
      ],
      "matrix": [
        -0.38963800668716,
        -4.7716893771559624e-17,
        5.8833702870752894e-08,
        0.0,
        -9.632944462320621e-15,
        0.3896380066871591,
        -6.348009357250363e-08,
        0.0,
        -5.8833702870752113e-08,
        -6.348009357250434e-08,
        -0.3896380066871548,
        0.0,
        -1.952075719833374,
        0.731467604637146,
        1.7881393432617188e-07,
        1.0
      ],
      "name": "kiri86_Taillights_Glass"
    },
    {
      "children": [
        41
      ],
      "matrix": [
        1.0,
        0.0,
        -0.0,
        0.0,
        0.0,
        1.0,
        0.0,
        0.0,
        0.0,
        0.0,
        1.0,
        0.0,
        -6.315529823303223,
        -0.4432184100151062,
        2.0698137283325195,
        1.0
      ],
      "name": "Object_40"
    },
    {
      "mesh": 12,
      "name": "kiri86_Taillights_Glass_UCB_Lights_and_Glass_Transperent_0"
    },
    {
      "children": [
        43
      ],
      "matrix": [
        -0.38963800668716,
        -4.7716893771559624e-17,
        5.8833702870752894e-08,
        0.0,
        -9.632944462320621e-15,
        0.3896380066871591,
        -6.348009357250363e-08,
        0.0,
        -5.8833702870752113e-08,
        -6.348009357250434e-08,
        -0.3896380066871548,
        0.0,
        1.9715179204940796,
        0.6388692855834961,
        -1.1920928955078125e-07,
        1.0
      ],
      "name": "kiri86_Headlights"
    },
    {
      "children": [
        44
      ],
      "matrix": [
        1.0,
        0.0,
        -0.0,
        0.0,
        0.0,
        1.0,
        0.0,
        0.0,
        0.0,
        0.0,
        1.0,
        0.0,
        3.7543108463287354,
        -0.20556646585464478,
        2.0698142051696777,
        1.0
      ],
      "name": "Object_43"
    },
    {
      "mesh": 13,
      "name": "kiri86_Headlights_UCB_Lights_and_Glass_0"
    },
    {
      "children": [
        46
      ],
      "matrix": [
        -0.38963800668716,
        -4.7716893771559624e-17,
        5.8833702870752894e-08,
        0.0,
        -9.632944462320621e-15,
        0.3896380066871591,
        -6.348009357250363e-08,
        0.0,
        -5.8833702870752113e-08,
        -6.348009357250434e-08,
        -0.3896380066871548,
        0.0,
        -0.029973626136779785,
        0.6458406448364258,
        5.960464477539063e-08,
        1.0
      ],
      "name": "kiri86_Blinkers"
    },
    {
      "children": [
        47
      ],
      "matrix": [
        1.0,
        0.0,
        -0.0,
        0.0,
        0.0,
        1.0,
        0.0,
        0.0,
        0.0,
        0.0,
        1.0,
        0.0,
        -1.3824858665466309,
        -0.2234582006931305,
        2.0698142051696777,
        1.0
      ],
      "name": "Object_46"
    },
    {
      "mesh": 14,
      "name": "kiri86_Blinkers_UCB_Lights_and_Glass_0"
    },
    {
      "children": [
        49
      ],
      "matrix": [
        -0.38963800668716,
        -4.7716893771559624e-17,
        5.8833702870752894e-08,
        0.0,
        -9.632944462320621e-15,
        0.3896380066871591,
        -6.348009357250363e-08,
        0.0,
        -5.8833702870752113e-08,
        -6.348009357250434e-08,
        -0.3896380066871548,
        0.0,
        -2.0538692474365234,
        0.7564377784729004,
        1.1920928955078125e-07,
        1.0
      ],
      "name": "kiri86_Reverse"
    },
    {
      "children": [
        50
      ],
      "matrix": [
        1.0,
        0.0,
        -0.0,
        0.0,
        0.0,
        1.0,
        0.0,
        0.0,
        0.0,
        0.0,
        1.0,
        0.0,
        -6.576781749725342,
        -0.5073040127754211,
        2.0698137283325195,
        1.0
      ],
      "name": "Object_49"
    },
    {
      "mesh": 15,
      "name": "kiri86_Reverse_UCB_Lights_and_Glass_0"
    },
    {
      "children": [
        52
      ],
      "matrix": [
        -0.38963800668716,
        -4.7716893771559624e-17,
        5.8833702870752894e-08,
        0.0,
        -9.632944462320621e-15,
        0.3896380066871591,
        -6.348009357250363e-08,
        0.0,
        -5.8833702870752113e-08,
        -6.348009357250434e-08,
        -0.3896380066871548,
        0.0,
        -1.9623888731002808,
        0.75632643699646,
        5.960464477539063e-08,
        1.0
      ],
      "name": "kiri86_Brakelights001"
    },
    {
      "children": [
        53
      ],
      "matrix": [
        1.0,
        0.0,
        -0.0,
        0.0,
        0.0,
        1.0,
        0.0,
        0.0,
        0.0,
        0.0,
        1.0,
        0.0,
        -6.341999053955078,
        -0.5070180892944336,
        2.0698137283325195,
        1.0
      ],
      "name": "Object_52"
    },
    {
      "mesh": 16,
      "name": "kiri86_Brakelights001_UCB_Lights_and_Glass_0"
    },
    {
      "children": [
        55
      ],
      "matrix": [
        3.20995513503064e-08,
        0.0,
        0.9999999999999994,
        0.0,
        0.1194065838040307,
        0.9928454400077844,
        -3.832897776945288e-09,
        0.0,
        -0.9928454400077839,
        0.11940658380403077,
        3.1869893168945396e-08,
        0.0,
        -2.081991195678711,
        0.664575457572937,
        0.00019890069961547852,
        1.0
      ],
      "name": "kiri86_Numberplates_Rear"
    },
    {
      "children": [
        56
      ],
      "matrix": [
        1.0,
        0.0,
        -0.0,
        0.0,
        0.0,
        1.0,
        0.0,
        0.0,
        0.0,
        0.0,
        1.0,
        0.0,
        0.4921662211418152,
        -0.4848644435405731,
        -0.002145322971045971,
        1.0
      ],
      "name": "Object_55"
    },
    {
      "mesh": 17,
      "name": "kiri86_Numberplates_Rear_Numberplates_Misk_U_0"
    },
    {
      "children": [
        58
      ],
      "matrix": [
        0.49184501171107864,
        1.2446192946723023e-23,
        -2.0326192213671413e-07,
        0.0,
        3.311557151975377e-14,
        0.49184501171111406,
        8.01317260845286e-08,
        0.0,
        2.032619221367114e-07,
        -8.013172608453544e-08,
        0.49184501171107203,
        0.0,
        -0.024213552474975586,
        0.5614402294158936,
        -5.0187110900878906e-05,
        1.0
      ],
      "name": "kiri86_Body_Badges"
    },
    {
      "children": [
        59
      ],
      "matrix": [
        1.0,
        0.0,
        -0.0,
        0.0,
        0.0,
        1.0,
        0.0,
        0.0,
        0.0,
        0.0,
        1.0,
        0.0,
        4.150740623474121,
        3.6207096576690674,
        1.797746181488037,
        1.0
      ],
      "name": "Object_58"
    },
    {
      "mesh": 18,
      "name": "kiri86_Body_Badges_Carbadges_misc_U_0"
    },
    {
      "children": [
        61
      ],
      "matrix": [
        -0.38963800668716,
        -4.7716893771559624e-17,
        5.8833702870752894e-08,
        0.0,
        -9.632944462320621e-15,
        0.3896380066871591,
        -6.348009357250363e-08,
        0.0,
        -5.8833702870752113e-08,
        -6.348009357250434e-08,
        -0.3896380066871548,
        0.0,
        1.8508546352386475,
        0.40289735794067383,
        -1.7881393432617188e-07,
        1.0
      ],
      "name": "kiri86_Bumper_front"
    },
    {
      "children": [
        62
      ],
      "matrix": [
        1.0,
        0.0,
        -0.0,
        0.0,
        0.0,
        1.0,
        0.0,
        0.0,
        0.0,
        0.0,
        1.0,
        0.0,
        3.4446306228637695,
        0.4000517725944519,
        2.0698134899139404,
        1.0
      ],
      "name": "Object_61"
    },
    {
      "mesh": 19,
      "name": "kiri86_Bumper_front_kiri86_Bodymat_0"
    },
    {
      "children": [
        64
      ],
      "matrix": [
        -0.38963800668716,
        -4.7716893771559624e-17,
        5.8833702870752894e-08,
        0.0,
        -9.632944462320621e-15,
        0.3896380066871591,
        -6.348009357250363e-08,
        0.0,
        -5.8833702870752113e-08,
        -6.348009357250434e-08,
        -0.3896380066871548,
        0.0,
        1.856339454650879,
        0.37605103850364685,
        -1.7881393432617188e-07,
        1.0
      ],
      "name": "kiri86_Bumper_Front_Inner"
    },
    {
      "children": [
        65
      ],
      "matrix": [
        1.0,
        0.0,
        -0.0,
        0.0,
        0.0,
        1.0,
        0.0,
        0.0,
        0.0,
        0.0,
        1.0,
        0.0,
        3.928788185119629,
        0.4689524471759796,
        2.0698134899139404,
        1.0
      ],
      "name": "Object_64"
    },
    {
      "mesh": 20,
      "name": "kiri86_Bumper_Front_Inner_UCB_BOTTOM_GT_0"
    },
    {
      "children": [
        67
      ],
      "matrix": [
        -0.03627557232402179,
        3.039531307202914e-09,
        -0.9993418248290044,
        0.0,
        0.14153605920798473,
        0.989919768560924,
        -0.005137680036800901,
        0.0,
        0.9892682279323634,
        -0.1416292759717661,
        -0.035909906589614016,
        0.0,
        2.140252113342285,
        0.4402844309806824,
        -0.34974393248558044,
        1.0
      ],
      "name": "kiri86_Numberplates_Front"
    },
    {
      "children": [
        68
      ],
      "matrix": [
        1.0,
        0.0,
        -0.0,
        0.0,
        0.0,
        1.0,
        0.0,
        0.0,
        0.0,
        0.0,
        1.0,
        0.0,
        0.4921662211418152,
        -0.4848645031452179,
        -0.0021454060915857553,
        1.0
      ],
      "name": "Object_67"
    },
    {
      "mesh": 21,
      "name": "kiri86_Numberplates_Front_Numberplates_Misk_U_0"
    },
    {
      "children": [
        70
      ],
      "matrix": [
        -0.38963800668716,
        -4.7716893771559624e-17,
        5.8833702870752894e-08,
        0.0,
        -9.632944462320621e-15,
        0.3896380066871591,
        -6.348009357250363e-08,
        0.0,
        -5.8833702870752113e-08,
        -6.348009357250434e-08,
        -0.3896380066871548,
        0.0,
        -1.8039861917495728,
        0.8622918128967285,
        1.1920928955078125e-07,
        1.0
      ],
      "name": "kiri86_Trunk_door"
    },
    {
      "children": [
        71
      ],
      "matrix": [
        1.0,
        0.0,
        -0.0,
        0.0,
        0.0,
        1.0,
        0.0,
        0.0,
        0.0,
        0.0,
        1.0,
        0.0,
        -5.935461044311523,
        -0.7789766788482666,
        2.0698134899139404,
        1.0
      ],
      "name": "Object_70"
    },
    {
      "mesh": 22,
      "name": "kiri86_Trunk_door_kiri86_Bodymat_0"
    },
    {
      "children": [
        73
      ],
      "matrix": [
        -0.38963800668716,
        -4.7716893771559624e-17,
        5.8833702870752894e-08,
        0.0,
        -9.632944462320621e-15,
        0.3896380066871591,
        -6.348009357250363e-08,
        0.0,
        -5.8833702870752113e-08,
        -6.348009357250434e-08,
        -0.3896380066871548,
        0.0,
        -1.8049651384353638,
        0.8622918128967285,
        1.1920928955078125e-07,
        1.0
      ],
      "name": "kiri86_Trunk_door_inner"
    },
    {
      "children": [
        74
      ],
      "matrix": [
        1.0,
        0.0,
        -0.0,
        0.0,
        0.0,
        1.0,
        0.0,
        0.0,
        0.0,
        0.0,
        1.0,
        0.0,
        -5.937973976135254,
        -0.7789766788482666,
        2.0698134899139404,
        1.0
      ],
      "name": "Object_73"
    },
    {
      "mesh": 23,
      "name": "kiri86_Trunk_door_inner_UCB_BOTTOM_GT_0"
    },
    {
      "children": [
        76
      ],
      "matrix": [
        -0.38963800668716,
        -4.7716893771559624e-17,
        5.8833702870752894e-08,
        0.0,
        -9.632944462320621e-15,
        0.3896380066871591,
        -6.348009357250363e-08,
        0.0,
        -5.8833702870752113e-08,
        -6.348009357250434e-08,
        -0.3896380066871548,
        0.0,
        -1.7122855186462402,
        0.4507267475128174,
        1.7881393432617188e-07,
        1.0
      ],
      "name": "kiri86_Bumper_rear"
    },
    {
      "children": [
        77
      ],
      "matrix": [
        1.0,
        0.0,
        -0.0,
        0.0,
        0.0,
        1.0,
        0.0,
        0.0,
        0.0,
        0.0,
        1.0,
        0.0,
        -5.700113296508789,
        0.2772984206676483,
        2.0698134899139404,
        1.0
      ],
      "name": "Object_76"
    },
    {
      "mesh": 24,
      "name": "kiri86_Bumper_rear_kiri86_Bodymat_0"
    },
    {
      "children": [
        79
      ],
      "matrix": [
        -0.38963800668716,
        -4.7716893771559624e-17,
        5.8833702870752894e-08,
        0.0,
        -9.632944462320621e-15,
        0.3896380066871591,
        -6.348009357250363e-08,
        0.0,
        -5.8833702870752113e-08,
        -6.348009357250434e-08,
        -0.3896380066871548,
        0.0,
        -1.7065227031707764,
        0.4171530306339264,
        1.7881393432617188e-07,
        1.0
      ],
      "name": "kiri86_bumper_rear_inner"
    },
    {
      "children": [
        80
      ],
      "matrix": [
        1.0,
        0.0,
        -0.0,
        0.0,
        0.0,
        1.0,
        0.0,
        0.0,
        0.0,
        0.0,
        1.0,
        0.0,
        -5.215241432189941,
        0.3634650409221649,
        2.0698134899139404,
        1.0
      ],
      "name": "Object_79"
    },
    {
      "mesh": 25,
      "name": "kiri86_bumper_rear_inner_UCB_BOTTOM_GT_0"
    },
    {
      "children": [
        82
      ],
      "matrix": [
        -0.7410420179367025,
        2.9802334851897006e-08,
        6.959439731093914e-08,
        0.0,
        2.980232429724998e-08,
        0.7410420179366974,
        -1.1238601204000052e-07,
        0.0,
        -4.722205737428812e-08,
        -7.625754998741636e-08,
        -0.5028210282325665,
        0.0,
        1.323211431503296,
        0.2857534885406494,
        -0.7107679843902588,
        1.0
      ],
      "name": "kiri86_Wheel_FL"
    },
    {
      "children": [
        83
      ],
      "matrix": [
        1.0,
        0.0,
        -0.0,
        0.0,
        0.0,
        1.0,
        0.0,
        0.0,
        0.0,
        0.0,
        1.0,
        0.0,
        -1.22070304087174e-07,
        -6.49372668704018e-05,
        0.19280532002449036,
        1.0
      ],
      "name": "Object_82"
    },
    {
      "mesh": 26,
      "name": "kiri86_Wheel_FL_RB1c_Tire_1k_0"
    },
    {
      "children": [
        85
      ],
      "matrix": [
        -0.7410420179367025,
        2.9802334851897006e-08,
        6.959439731093914e-08,
        0.0,
        2.980232429724998e-08,
        0.7410420179366974,
        -1.1238601204000052e-07,
        0.0,
        -4.722205737428812e-08,
        -7.625754998741636e-08,
        -0.5028210282325665,
        0.0,
        -1.135669469833374,
        0.2857534885406494,
        -0.7107682228088379,
        1.0
      ],
      "name": "kiri86_Wheel_RL"
    },
    {
      "children": [
        86
      ],
      "matrix": [
        1.0,
        0.0,
        -0.0,
        0.0,
        0.0,
        1.0,
        0.0,
        0.0,
        0.0,
        0.0,
        1.0,
        0.0,
        -1.22070304087174e-07,
        -6.49372668704018e-05,
        0.19280532002449036,
        1.0
      ],
      "name": "Object_85"
    },
    {
      "mesh": 27,
      "name": "kiri86_Wheel_RL_RB1c_Tire_1k_0"
    },
    {
      "children": [
        88
      ],
      "matrix": [
        -0.7410420179367035,
        -2.980233649734086e-08,
        6.197655878121299e-08,
        0.0,
        2.980234056099275e-08,
        -0.7410420179367045,
        4.8588318301216556e-08,
        0.0,
        4.2053102625554424e-08,
        3.296875052998257e-08,
        0.5028210282325716,
        0.0,
        -1.135669469833374,
        0.2857534885406494,
        0.7108210325241089,
        1.0
      ],
      "name": "kiri86_Wheel_RR"
    },
    {
      "children": [
        89
      ],
      "matrix": [
        1.0,
        0.0,
        -0.0,
        0.0,
        0.0,
        1.0,
        0.0,
        0.0,
        0.0,
        0.0,
        1.0,
        0.0,
        -1.2207031829802872e-07,
        -6.49372668704018e-05,
        0.19280532002449036,
        1.0
      ],
      "name": "Object_88"
    },
    {
      "mesh": 28,
      "name": "kiri86_Wheel_RR_RB1c_Tire_1k_0"
    },
    {
      "children": [
        91
      ],
      "matrix": [
        -0.7410420179367035,
        -2.980233649734086e-08,
        6.197655878121299e-08,
        0.0,
        2.980234056099275e-08,
        -0.7410420179367045,
        4.8588318301216556e-08,
        0.0,
        4.2053102625554424e-08,
        3.296875052998257e-08,
        0.5028210282325716,
        0.0,
        1.323211431503296,
        0.2857534885406494,
        0.7108210325241089,
        1.0
      ],
      "name": "kiri86_Wheel_FR"
    },
    {
      "children": [
        92
      ],
      "matrix": [
        1.0,
        0.0,
        -0.0,
        0.0,
        0.0,
        1.0,
        0.0,
        0.0,
        0.0,
        0.0,
        1.0,
        0.0,
        -1.2207031829802872e-07,
        -6.49372668704018e-05,
        0.19280532002449036,
        1.0
      ],
      "name": "Object_91"
    },
    {
      "mesh": 29,
      "name": "kiri86_Wheel_FR_RB1c_Tire_1k_0"
    }
  ],
  "samplers": [
    {
      "magFilter": 9729,
      "minFilter": 9987,
      "wrapS": 10497,
      "wrapT": 10497
    }
  ],
  "scene": 0,
  "scenes": [
    {
      "name": "Sketchfab_Scene",
      "nodes": [
        0
      ]
    }
  ],
  "textures": [
    {
      "sampler": 0,
      "source": 0
    },
    {
      "sampler": 0,
      "source": 1
    },
    {
      "sampler": 0,
      "source": 2
    },
    {
      "sampler": 0,
      "source": 3
    },
    {
      "sampler": 0,
      "source": 4
    },
    {
      "sampler": 0,
      "source": 5
    },
    {
      "sampler": 0,
      "source": 6
    },
    {
      "sampler": 0,
      "source": 7
    },
    {
      "sampler": 0,
      "source": 8
    },
    {
      "sampler": 0,
      "source": 9
    },
    {
      "sampler": 0,
      "source": 10
    },
    {
      "sampler": 0,
      "source": 11
    },
    {
      "sampler": 0,
      "source": 12
    }
  ]
}
