# Blender 4.5.1 LTS
# www.blender.org
o Cylinder
v 0.000000 -2.000000 -1.000000
v -0.000000 0.000000 -0.174351
v 0.258819 -2.000000 -0.965926
v 0.045125 0.000000 -0.168410
v 0.500000 -2.000000 -0.866025
v 0.087175 0.000000 -0.150992
v 0.707107 -2.000000 -0.707107
v 0.123285 0.000000 -0.123285
v 0.866025 -2.000000 -0.500000
v 0.150992 0.000000 -0.087175
v 0.965926 -2.000000 -0.258819
v 0.168410 0.000000 -0.045125
v 1.000000 -2.000000 0.000000
v 0.174351 0.000000 0.000000
v 0.965926 -2.000000 0.258819
v 0.168410 0.000000 0.045125
v 0.866025 -2.000000 0.500000
v 0.150992 0.000000 0.087175
v 0.707107 -2.000000 0.707107
v 0.123285 0.000000 0.123285
v 0.500000 -2.000000 0.866025
v 0.087175 0.000000 0.150992
v 0.258819 -2.000000 0.965926
v 0.045125 0.000000 0.168410
v 0.000000 -2.000000 1.000000
v -0.000000 0.000000 0.174351
v -0.258819 -2.000000 0.965926
v -0.045125 0.000000 0.168410
v -0.500000 -2.000000 0.866025
v -0.087175 0.000000 0.150992
v -0.707107 -2.000000 0.707107
v -0.123285 0.000000 0.123285
v -0.866025 -2.000000 0.500000
v -0.150992 0.000000 0.087175
v -0.965926 -2.000000 0.258819
v -0.168410 0.000000 0.045125
v -1.000000 -2.000000 0.000000
v -0.174351 0.000000 0.000000
v -0.965926 -2.000000 -0.258819
v -0.168410 0.000000 -0.045125
v -0.866025 -2.000000 -0.500000
v -0.150992 0.000000 -0.087175
v -0.707107 -2.000000 -0.707107
v -0.123285 0.000000 -0.123285
v -0.500000 -2.000000 -0.866025
v -0.087175 0.000000 -0.150992
v -0.258819 -2.000000 -0.965926
v -0.045125 0.000000 -0.168410
v -0.000000 -1.600000 -0.834870
v -0.000000 -1.200000 -0.669740
v -0.000000 -0.800000 -0.504610
v -0.000000 -0.400000 -0.339481
v 0.087864 -0.400000 -0.327913
v 0.130603 -0.800000 -0.487416
v 0.173342 -1.200000 -0.646919
v 0.216080 -1.600000 -0.806423
v 0.169740 -0.400000 -0.293999
v 0.252305 -0.800000 -0.437005
v 0.334870 -1.200000 -0.580012
v 0.417435 -1.600000 -0.723019
v 0.240049 -0.400000 -0.240049
v 0.356813 -0.800000 -0.356813
v 0.473578 -1.200000 -0.473578
v 0.590342 -1.600000 -0.590342
v 0.293999 -0.400000 -0.169740
v 0.437005 -0.800000 -0.252305
v 0.580012 -1.200000 -0.334870
v 0.723019 -1.600000 -0.417435
v 0.327913 -0.400000 -0.087864
v 0.487416 -0.800000 -0.130603
v 0.646919 -1.200000 -0.173342
v 0.806423 -1.600000 -0.216080
v 0.339481 -0.400000 0.000000
v 0.504610 -0.800000 0.000000
v 0.669740 -1.200000 0.000000
v 0.834870 -1.600000 0.000000
v 0.327913 -0.400000 0.087864
v 0.487416 -0.800000 0.130603
v 0.646919 -1.200000 0.173342
v 0.806423 -1.600000 0.216080
v 0.293999 -0.400000 0.169740
v 0.437005 -0.800000 0.252305
v 0.580012 -1.200000 0.334870
v 0.723019 -1.600000 0.417435
v 0.240049 -0.400000 0.240049
v 0.356813 -0.800000 0.356813
v 0.473578 -1.200000 0.473578
v 0.590342 -1.600000 0.590342
v 0.169740 -0.400000 0.293999
v 0.252305 -0.800000 0.437006
v 0.334870 -1.200000 0.580012
v 0.417435 -1.600000 0.723019
v 0.087864 -0.400000 0.327913
v 0.130603 -0.800000 0.487416
v 0.173342 -1.200000 0.646919
v 0.216080 -1.600000 0.806423
v -0.000000 -0.400000 0.339481
v -0.000000 -0.800000 0.504610
v -0.000000 -1.200000 0.669740
v -0.000000 -1.600000 0.834870
v -0.087864 -0.400000 0.327913
v -0.130603 -0.800000 0.487416
v -0.173342 -1.200000 0.646919
v -0.216080 -1.600000 0.806423
v -0.169740 -0.400000 0.293999
v -0.252305 -0.800000 0.437006
v -0.334870 -1.200000 0.580012
v -0.417435 -1.600000 0.723019
v -0.240049 -0.400000 0.240049
v -0.356813 -0.800000 0.356813
v -0.473578 -1.200000 0.473578
v -0.590342 -1.600000 0.590342
v -0.293999 -0.400000 0.169740
v -0.437005 -0.800000 0.252305
v -0.580012 -1.200000 0.334870
v -0.723019 -1.600000 0.417435
v -0.327913 -0.400000 0.087864
v -0.487416 -0.800000 0.130603
v -0.646919 -1.200000 0.173342
v -0.806423 -1.600000 0.216080
v -0.339481 -0.400000 0.000000
v -0.504610 -0.800000 0.000000
v -0.669740 -1.200000 0.000000
v -0.834870 -1.600000 0.000000
v -0.327913 -0.400000 -0.087864
v -0.487416 -0.800000 -0.130603
v -0.646919 -1.200000 -0.173342
v -0.806423 -1.600000 -0.216080
v -0.293999 -0.400000 -0.169740
v -0.437005 -0.800000 -0.252305
v -0.580012 -1.200000 -0.334870
v -0.723019 -1.600000 -0.417435
v -0.240049 -0.400000 -0.240049
v -0.356813 -0.800000 -0.356813
v -0.473578 -1.200000 -0.473578
v -0.590342 -1.600000 -0.590342
v -0.169740 -0.400000 -0.293999
v -0.252305 -0.800000 -0.437005
v -0.334870 -1.200000 -0.580012
v -0.417435 -1.600000 -0.723019
v -0.087864 -0.400000 -0.327913
v -0.130603 -0.800000 -0.487416
v -0.173342 -1.200000 -0.646919
v -0.216080 -1.600000 -0.806423
vn -0.0000 0.3816 -0.9243
vn 0.2392 0.3816 -0.8928
vn 0.4622 0.3816 -0.8005
vn 0.6536 0.3816 -0.6536
vn 0.8005 0.3816 -0.4622
vn 0.8928 0.3816 -0.2392
vn 0.9243 0.3816 -0.0000
vn 0.8928 0.3816 0.2392
vn 0.8005 0.3816 0.4622
vn 0.6536 0.3816 0.6536
vn 0.4622 0.3816 0.8005
vn 0.2392 0.3816 0.8928
vn -0.0000 0.3816 0.9243
vn -0.2392 0.3816 0.8928
vn -0.4622 0.3816 0.8005
vn -0.6536 0.3816 0.6536
vn -0.8005 0.3816 0.4622
vn -0.8928 0.3816 0.2392
vn -0.9243 0.3816 -0.0000
vn -0.8928 0.3816 -0.2392
vn -0.8005 0.3816 -0.4622
vn -0.6536 0.3816 -0.6536
vn -0.4622 0.3816 -0.8005
vn -0.2392 0.3816 -0.8928
vt 1.000000 0.800000
vt 1.000000 1.000000
vt 0.958333 1.000000
vt 0.958333 0.800000
vt 0.916667 1.000000
vt 0.916667 0.800000
vt 0.875000 1.000000
vt 0.875000 0.800000
vt 0.833333 1.000000
vt 0.833333 0.800000
vt 0.791667 1.000000
vt 0.791667 0.800000
vt 0.750000 1.000000
vt 0.750000 0.800000
vt 0.708333 1.000000
vt 0.708333 0.800000
vt 0.666667 1.000000
vt 0.666667 0.800000
vt 0.625000 1.000000
vt 0.625000 0.800000
vt 0.583333 1.000000
vt 0.583333 0.800000
vt 0.541666 1.000000
vt 0.541666 0.800000
vt 0.500000 1.000000
vt 0.500000 0.800000
vt 0.458333 1.000000
vt 0.458333 0.800000
vt 0.416666 1.000000
vt 0.416667 0.800000
vt 0.375000 1.000000
vt 0.375000 0.800000
vt 0.333333 1.000000
vt 0.333333 0.800000
vt 0.291667 1.000000
vt 0.291667 0.800000
vt 0.250000 1.000000
vt 0.250000 0.800000
vt 0.208333 1.000000
vt 0.208333 0.800000
vt 0.166666 1.000000
vt 0.166666 0.800000
vt 0.125000 1.000000
vt 0.125000 0.800000
vt 0.083333 1.000000
vt 0.083333 0.800000
vt 0.041666 1.000000
vt 0.041666 0.800000
vt -0.000000 1.000000
vt -0.000000 0.800000
vt 0.041666 0.000000
vt 0.041666 0.200000
vt -0.000000 0.200000
vt -0.000000 0.000000
vt 0.041666 0.400000
vt -0.000000 0.400000
vt 0.041666 0.600000
vt -0.000000 0.600000
vt 0.083333 0.000000
vt 0.083333 0.200000
vt 0.083333 0.400000
vt 0.083333 0.600000
vt 0.125000 0.000000
vt 0.125000 0.200000
vt 0.125000 0.400000
vt 0.125000 0.600000
vt 0.166666 0.000000
vt 0.166666 0.200000
vt 0.166666 0.400000
vt 0.166666 0.600000
vt 0.208333 0.000000
vt 0.208333 0.200000
vt 0.208333 0.400000
vt 0.208333 0.600000
vt 0.250000 0.000000
vt 0.250000 0.200000
vt 0.250000 0.400000
vt 0.250000 0.600000
vt 0.291667 0.000000
vt 0.291667 0.200000
vt 0.291667 0.400000
vt 0.291667 0.600000
vt 0.333333 0.000000
vt 0.333333 0.200000
vt 0.333333 0.400000
vt 0.333333 0.600000
vt 0.375000 0.000000
vt 0.375000 0.200000
vt 0.375000 0.400000
vt 0.375000 0.600000
vt 0.416666 0.000000
vt 0.416666 0.200000
vt 0.416666 0.400000
vt 0.416667 0.600000
vt 0.458333 0.000000
vt 0.458333 0.200000
vt 0.458333 0.400000
vt 0.458333 0.600000
vt 0.500000 0.000000
vt 0.500000 0.200000
vt 0.500000 0.400000
vt 0.500000 0.600000
vt 0.541666 0.000000
vt 0.541666 0.200000
vt 0.541666 0.400000
vt 0.541666 0.600000
vt 0.583333 0.000000
vt 0.583333 0.200000
vt 0.583333 0.400000
vt 0.583333 0.600000
vt 0.625000 0.000000
vt 0.625000 0.200000
vt 0.625000 0.400000
vt 0.625000 0.600000
vt 0.666667 0.000000
vt 0.666667 0.200000
vt 0.666667 0.400000
vt 0.666667 0.600000
vt 0.708333 0.000000
vt 0.708333 0.200000
vt 0.708333 0.400000
vt 0.708333 0.600000
vt 0.750000 0.000000
vt 0.750000 0.200000
vt 0.750000 0.400000
vt 0.750000 0.600000
vt 0.791667 0.000000
vt 0.791667 0.200000
vt 0.791667 0.400000
vt 0.791667 0.600000
vt 0.833333 0.000000
vt 0.833333 0.200000
vt 0.833333 0.400000
vt 0.833333 0.600000
vt 0.875000 0.000000
vt 0.875000 0.200000
vt 0.875000 0.400000
vt 0.875000 0.600000
vt 0.916667 0.000000
vt 0.916667 0.200000
vt 0.916667 0.400000
vt 0.916667 0.600000
vt 0.958333 0.000000
vt 0.958333 0.200000
vt 0.958333 0.400000
vt 0.958333 0.600000
vt 1.000000 0.000000
vt 1.000000 0.200000
vt 1.000000 0.400000
vt 1.000000 0.600000
s 1
f 52/1/1 2/2/1 4/3/2 53/4/2
f 53/4/2 4/3/2 6/5/3 57/6/3
f 57/6/3 6/5/3 8/7/4 61/8/4
f 61/8/4 8/7/4 10/9/5 65/10/5
f 65/10/5 10/9/5 12/11/6 69/12/6
f 69/12/6 12/11/6 14/13/7 73/14/7
f 73/14/7 14/13/7 16/15/8 77/16/8
f 77/16/8 16/15/8 18/17/9 81/18/9
f 81/18/9 18/17/9 20/19/10 85/20/10
f 85/20/10 20/19/10 22/21/11 89/22/11
f 89/22/11 22/21/11 24/23/12 93/24/12
f 93/24/12 24/23/12 26/25/13 97/26/13
f 97/26/13 26/25/13 28/27/14 101/28/14
f 101/28/14 28/27/14 30/29/15 105/30/15
f 105/30/15 30/29/15 32/31/16 109/32/16
f 109/32/16 32/31/16 34/33/17 113/34/17
f 113/34/17 34/33/17 36/35/18 117/36/18
f 117/36/18 36/35/18 38/37/19 121/38/19
f 121/38/19 38/37/19 40/39/20 125/40/20
f 125/40/20 40/39/20 42/41/21 129/42/21
f 129/42/21 42/41/21 44/43/22 133/44/22
f 133/44/22 44/43/22 46/45/23 137/46/23
f 137/46/23 46/45/23 48/47/24 141/48/24
f 141/48/24 48/47/24 2/49/1 52/50/1
f 47/51/24 144/52/24 49/53/1 1/54/1
f 144/52/24 143/55/24 50/56/1 49/53/1
f 143/55/24 142/57/24 51/58/1 50/56/1
f 142/57/24 141/48/24 52/50/1 51/58/1
f 45/59/23 140/60/23 144/52/24 47/51/24
f 140/60/23 139/61/23 143/55/24 144/52/24
f 139/61/23 138/62/23 142/57/24 143/55/24
f 138/62/23 137/46/23 141/48/24 142/57/24
f 43/63/22 136/64/22 140/60/23 45/59/23
f 136/64/22 135/65/22 139/61/23 140/60/23
f 135/65/22 134/66/22 138/62/23 139/61/23
f 134/66/22 133/44/22 137/46/23 138/62/23
f 41/67/21 132/68/21 136/64/22 43/63/22
f 132/68/21 131/69/21 135/65/22 136/64/22
f 131/69/21 130/70/21 134/66/22 135/65/22
f 130/70/21 129/42/21 133/44/22 134/66/22
f 39/71/20 128/72/20 132/68/21 41/67/21
f 128/72/20 127/73/20 131/69/21 132/68/21
f 127/73/20 126/74/20 130/70/21 131/69/21
f 126/74/20 125/40/20 129/42/21 130/70/21
f 37/75/19 124/76/19 128/72/20 39/71/20
f 124/76/19 123/77/19 127/73/20 128/72/20
f 123/77/19 122/78/19 126/74/20 127/73/20
f 122/78/19 121/38/19 125/40/20 126/74/20
f 35/79/18 120/80/18 124/76/19 37/75/19
f 120/80/18 119/81/18 123/77/19 124/76/19
f 119/81/18 118/82/18 122/78/19 123/77/19
f 118/82/18 117/36/18 121/38/19 122/78/19
f 33/83/17 116/84/17 120/80/18 35/79/18
f 116/84/17 115/85/17 119/81/18 120/80/18
f 115/85/17 114/86/17 118/82/18 119/81/18
f 114/86/17 113/34/17 117/36/18 118/82/18
f 31/87/16 112/88/16 116/84/17 33/83/17
f 112/88/16 111/89/16 115/85/17 116/84/17
f 111/89/16 110/90/16 114/86/17 115/85/17
f 110/90/16 109/32/16 113/34/17 114/86/17
f 29/91/15 108/92/15 112/88/16 31/87/16
f 108/92/15 107/93/15 111/89/16 112/88/16
f 107/93/15 106/94/15 110/90/16 111/89/16
f 106/94/15 105/30/15 109/32/16 110/90/16
f 27/95/14 104/96/14 108/92/15 29/91/15
f 104/96/14 103/97/14 107/93/15 108/92/15
f 103/97/14 102/98/14 106/94/15 107/93/15
f 102/98/14 101/28/14 105/30/15 106/94/15
f 25/99/13 100/100/13 104/96/14 27/95/14
f 100/100/13 99/101/13 103/97/14 104/96/14
f 99/101/13 98/102/13 102/98/14 103/97/14
f 98/102/13 97/26/13 101/28/14 102/98/14
f 23/103/12 96/104/12 100/100/13 25/99/13
f 96/104/12 95/105/12 99/101/13 100/100/13
f 95/105/12 94/106/12 98/102/13 99/101/13
f 94/106/12 93/24/12 97/26/13 98/102/13
f 21/107/11 92/108/11 96/104/12 23/103/12
f 92/108/11 91/109/11 95/105/12 96/104/12
f 91/109/11 90/110/11 94/106/12 95/105/12
f 90/110/11 89/22/11 93/24/12 94/106/12
f 19/111/10 88/112/10 92/108/11 21/107/11
f 88/112/10 87/113/10 91/109/11 92/108/11
f 87/113/10 86/114/10 90/110/11 91/109/11
f 86/114/10 85/20/10 89/22/11 90/110/11
f 17/115/9 84/116/9 88/112/10 19/111/10
f 84/116/9 83/117/9 87/113/10 88/112/10
f 83/117/9 82/118/9 86/114/10 87/113/10
f 82/118/9 81/18/9 85/20/10 86/114/10
f 15/119/8 80/120/8 84/116/9 17/115/9
f 80/120/8 79/121/8 83/117/9 84/116/9
f 79/121/8 78/122/8 82/118/9 83/117/9
f 78/122/8 77/16/8 81/18/9 82/118/9
f 13/123/7 76/124/7 80/120/8 15/119/8
f 76/124/7 75/125/7 79/121/8 80/120/8
f 75/125/7 74/126/7 78/122/8 79/121/8
f 74/126/7 73/14/7 77/16/8 78/122/8
f 11/127/6 72/128/6 76/124/7 13/123/7
f 72/128/6 71/129/6 75/125/7 76/124/7
f 71/129/6 70/130/6 74/126/7 75/125/7
f 70/130/6 69/12/6 73/14/7 74/126/7
f 9/131/5 68/132/5 72/128/6 11/127/6
f 68/132/5 67/133/5 71/129/6 72/128/6
f 67/133/5 66/134/5 70/130/6 71/129/6
f 66/134/5 65/10/5 69/12/6 70/130/6
f 7/135/4 64/136/4 68/132/5 9/131/5
f 64/136/4 63/137/4 67/133/5 68/132/5
f 63/137/4 62/138/4 66/134/5 67/133/5
f 62/138/4 61/8/4 65/10/5 66/134/5
f 5/139/3 60/140/3 64/136/4 7/135/4
f 60/140/3 59/141/3 63/137/4 64/136/4
f 59/141/3 58/142/3 62/138/4 63/137/4
f 58/142/3 57/6/3 61/8/4 62/138/4
f 3/143/2 56/144/2 60/140/3 5/139/3
f 56/144/2 55/145/2 59/141/3 60/140/3
f 55/145/2 54/146/2 58/142/3 59/141/3
f 54/146/2 53/4/2 57/6/3 58/142/3
f 1/147/1 49/148/1 56/144/2 3/143/2
f 49/148/1 50/149/1 55/145/2 56/144/2
f 50/149/1 51/150/1 54/146/2 55/145/2
f 51/150/1 52/1/1 53/4/2 54/146/2
