# Blender 4.5.1 LTS
# www.blender.org
o Cylinder
v -0.000000 0.013037 -11.756724
v 0.000000 31.714018 -0.380558
v 2.293622 0.013037 -11.530823
v 0.074243 31.714018 -0.373246
v 4.499104 0.013037 -10.861795
v 0.145633 31.714018 -0.351590
v 6.531686 0.013037 -9.775358
v 0.211426 31.714018 -0.316423
v 8.313259 0.013037 -8.313259
v 0.269095 31.714018 -0.269096
v 9.775358 0.013037 -6.531686
v 0.316422 31.714018 -0.211427
v 10.861795 0.013037 -4.499104
v 0.351589 31.714018 -0.145634
v 11.530823 0.013037 -2.293622
v 0.373245 31.714018 -0.074244
v 11.756724 0.013037 0.000000
v 0.380557 31.714018 -0.000001
v 11.530823 0.013038 2.293622
v 0.373245 31.714018 0.074242
v 10.861796 0.013038 4.499104
v 0.351589 31.714018 0.145632
v 9.775359 0.013038 6.531686
v 0.316422 31.714018 0.211425
v 8.313259 0.013038 8.313259
v 0.269095 31.714018 0.269094
v 6.531686 0.013038 9.775359
v 0.211426 31.714018 0.316421
v 4.499104 0.013038 10.861796
v 0.145633 31.714018 0.351588
v 2.293622 0.013038 11.530823
v 0.074243 31.714018 0.373244
v -0.000000 0.013038 11.756724
v 0.000000 31.714018 0.380556
v -2.293622 0.013038 11.530823
v -0.074243 31.714018 0.373244
v -4.499104 0.013038 10.861796
v -0.145633 31.714018 0.351588
v -6.531686 0.013038 9.775359
v -0.211426 31.714018 0.316421
v -8.313259 0.013038 8.313259
v -0.269095 31.714018 0.269094
v -9.775359 0.013038 6.531686
v -0.316422 31.714018 0.211425
v -10.861796 0.013038 4.499104
v -0.351589 31.714018 0.145632
v -11.530823 0.013038 2.293622
v -0.373245 31.714018 0.074242
v -11.756724 0.013037 0.000000
v -0.380557 31.714018 -0.000001
v -11.530823 0.013037 -2.293622
v -0.373245 31.714018 -0.074244
v -10.861795 0.013037 -4.499104
v -0.351589 31.714018 -0.145634
v -9.775358 0.013037 -6.531686
v -0.316422 31.714018 -0.211427
v -8.313259 0.013037 -8.313259
v -0.269095 31.714018 -0.269096
v -6.531686 0.013037 -9.775358
v -0.211426 31.714018 -0.316423
v -4.499104 0.013037 -10.861795
v -0.145633 31.714018 -0.351590
v -2.293622 0.013037 -11.530823
v -0.074243 31.714018 -0.373246
v -0.000000 0.479496 -8.909111
v -0.000000 0.925649 -6.515595
v -0.000000 1.434442 -4.575590
v -0.000000 2.298455 -3.477887
v -0.000000 3.548025 -2.814465
v -0.000000 6.430309 -2.015483
v -0.000000 11.143515 -1.552901
v -0.000000 16.356581 -1.132041
v 0.000000 22.723343 -0.790484
v 0.000000 27.336697 -0.575400
v 0.112255 27.336697 -0.564344
v 0.154216 22.723343 -0.775295
v 0.220850 16.356581 -1.110289
v 0.302956 11.143515 -1.523063
v 0.393202 6.430308 -1.976757
v 0.549075 3.548025 -2.760386
v 0.678502 2.298457 -3.411059
v 0.892654 1.434442 -4.487672
v 1.271130 0.925649 -6.390398
v 1.738082 0.479496 -8.737926
v 0.220196 27.336697 -0.531600
v 0.302505 22.723343 -0.730312
v 0.433213 16.356581 -1.045870
v 0.594269 11.143515 -1.434694
v 0.771291 6.430309 -1.862064
v 1.077049 3.548025 -2.600226
v 1.330929 2.298457 -3.213147
v 1.751002 1.434442 -4.227294
v 2.493411 0.925649 -6.019625
v 3.409370 0.479496 -8.230946
v 0.319675 27.336697 -0.478428
v 0.439169 22.723343 -0.657263
v 0.628928 16.356575 -0.941258
v 0.862745 11.143515 -1.291190
v 1.119742 6.430309 -1.675812
v 1.563633 3.548025 -2.340142
v 1.932211 2.298457 -2.891756
v 2.542063 1.434443 -3.804465
v 3.619872 0.925649 -5.417519
v 4.949637 0.479496 -7.407655
v 0.406869 27.336697 -0.406870
v 0.558956 22.723343 -0.558957
v 0.800474 16.356575 -0.800475
v 1.098066 11.143515 -1.098067
v 1.425161 6.430308 -1.425162
v 1.990126 3.548024 -1.990127
v 2.459237 2.298457 -2.459237
v 3.235431 1.434443 -3.235431
v 4.607221 0.925649 -4.607221
v 6.299693 0.479496 -6.299693
v 0.478427 27.336697 -0.319676
v 0.657263 22.723343 -0.439170
v 0.941257 16.356575 -0.628929
v 1.291189 11.143515 -0.862746
v 1.675813 6.430308 -1.119743
v 2.340141 3.548025 -1.563634
v 2.891757 2.298457 -1.932211
v 3.804465 1.434442 -2.542063
v 5.417519 0.925649 -3.619872
v 7.407655 0.479496 -4.949637
v 0.531599 27.336697 -0.220197
v 0.730312 22.723343 -0.302505
v 1.045869 16.356581 -0.433214
v 1.434693 11.143515 -0.594270
v 1.862063 6.430308 -0.771292
v 2.600225 3.548025 -1.077050
v 3.213147 2.298457 -1.330930
v 4.227294 1.434443 -1.751002
v 6.019625 0.925649 -2.493411
v 8.230946 0.479496 -3.409370
v 0.564343 27.336697 -0.112256
v 0.775294 22.723343 -0.154217
v 1.110288 16.356581 -0.220851
v 1.523062 11.143515 -0.302957
v 1.976755 6.430308 -0.393202
v 2.760385 3.548025 -0.549076
v 3.411058 2.298457 -0.678503
v 4.487672 1.434442 -0.892654
v 6.390398 0.925649 -1.271131
v 8.737926 0.479497 -1.738082
v 0.575399 27.336697 -0.000001
v 0.790483 22.723343 -0.000001
v 1.132040 16.356581 -0.000001
v 1.552901 11.143515 -0.000001
v 2.015482 6.430308 -0.000001
v 2.814464 3.548025 -0.000000
v 3.477885 2.298457 -0.000000
v 4.575590 1.434443 -0.000000
v 6.515595 0.925649 -0.000000
v 8.909111 0.479497 -0.000000
v 0.564343 27.336697 0.112254
v 0.775294 22.723343 0.154215
v 1.110288 16.356581 0.220850
v 1.523062 11.143515 0.302955
v 1.976755 6.430308 0.393201
v 2.760385 3.548025 0.549075
v 3.411058 2.298457 0.678502
v 4.487672 1.434443 0.892654
v 6.390398 0.925649 1.271130
v 8.737926 0.479497 1.738082
v 0.531599 27.336697 0.220195
v 0.730312 22.723343 0.302504
v 1.045869 16.356581 0.433212
v 1.434693 11.143515 0.594268
v 1.862063 6.430308 0.771292
v 2.600225 3.548025 1.077049
v 3.213146 2.298457 1.330929
v 4.227294 1.434443 1.751001
v 6.019625 0.925649 2.493411
v 8.230946 0.479497 3.409370
v 0.478427 27.336697 0.319674
v 0.657263 22.723343 0.439168
v 0.941257 16.356575 0.628927
v 1.291189 11.143515 0.862744
v 1.675813 6.430308 1.119741
v 2.340141 3.548025 1.563633
v 2.891757 2.298457 1.932210
v 3.804465 1.434443 2.542062
v 5.417519 0.925649 3.619872
v 7.407655 0.479497 4.949637
v 0.406869 27.336697 0.406868
v 0.558956 22.723343 0.558955
v 0.800474 16.356575 0.800473
v 1.098066 11.143515 1.098065
v 1.425161 6.430308 1.425160
v 1.990126 3.548025 1.990126
v 2.459236 2.298457 2.459236
v 3.235431 1.434443 3.235431
v 4.607221 0.925649 4.607223
v 6.299693 0.479497 6.299693
v 0.319675 27.336697 0.478426
v 0.439169 22.723343 0.657262
v 0.628928 16.356575 0.941256
v 0.862745 11.143515 1.291188
v 1.119742 6.430308 1.675812
v 1.563633 3.548025 2.340141
v 1.932211 2.298457 2.891756
v 2.542063 1.434443 3.804465
v 3.619872 0.925649 5.417519
v 4.949637 0.479497 7.407655
v 0.220196 27.336697 0.531598
v 0.302505 22.723343 0.730311
v 0.433213 16.356581 1.045868
v 0.594269 11.143515 1.434692
v 0.771293 6.430308 1.862062
v 1.077049 3.548025 2.600225
v 1.330929 2.298457 3.213146
v 1.751002 1.434443 4.227294
v 2.493411 0.925649 6.019625
v 3.409370 0.479497 8.230946
v 0.112255 27.336697 0.564342
v 0.154216 22.723343 0.775293
v 0.220850 16.356581 1.110288
v 0.302956 11.143515 1.523061
v 0.393202 6.430308 1.976755
v 0.549075 3.548025 2.760384
v 0.678502 2.298457 3.411058
v 0.892654 1.434443 4.487672
v 1.271130 0.925649 6.390398
v 1.738082 0.479497 8.737926
v 0.000000 27.336697 0.575398
v 0.000000 22.723343 0.790482
v -0.000000 16.356581 1.132039
v -0.000000 11.143515 1.552900
v -0.000000 6.430308 2.015481
v -0.000000 3.548025 2.814464
v -0.000000 2.298457 3.477885
v -0.000000 1.434443 4.575590
v -0.000000 0.925649 6.515595
v -0.000000 0.479497 8.909111
v -0.112255 27.336697 0.564342
v -0.154216 22.723343 0.775293
v -0.220850 16.356581 1.110288
v -0.302956 11.143515 1.523061
v -0.393202 6.430308 1.976755
v -0.549075 3.548025 2.760384
v -0.678503 2.298457 3.411058
v -0.892654 1.434443 4.487672
v -1.271130 0.925649 6.390398
v -1.738082 0.479497 8.737926
v -0.220196 27.336697 0.531598
v -0.302505 22.723343 0.730311
v -0.433213 16.356581 1.045868
v -0.594269 11.143515 1.434692
v -0.771292 6.430308 1.862062
v -1.077049 3.548025 2.600225
v -1.330929 2.298457 3.213146
v -1.751002 1.434443 4.227294
v -2.493411 0.925649 6.019625
v -3.409370 0.479497 8.230946
v -0.319675 27.336697 0.478426
v -0.439169 22.723343 0.657262
v -0.628928 16.356575 0.941256
v -0.862745 11.143515 1.291188
v -1.119742 6.430308 1.675812
v -1.563633 3.548025 2.340141
v -1.932211 2.298457 2.891756
v -2.542063 1.434443 3.804465
v -3.619872 0.925649 5.417519
v -4.949637 0.479497 7.407655
v -0.406869 27.336697 0.406868
v -0.558956 22.723343 0.558955
v -0.800474 16.356575 0.800473
v -1.098066 11.143515 1.098065
v -1.425161 6.430308 1.425160
v -1.990127 3.548025 1.990126
v -2.459236 2.298457 2.459236
v -3.235431 1.434443 3.235431
v -4.607221 0.925649 4.607223
v -6.299693 0.479497 6.299693
v -0.478427 27.336697 0.319674
v -0.657263 22.723343 0.439168
v -0.941257 16.356575 0.628927
v -1.291189 11.143515 0.862744
v -1.675813 6.430308 1.119741
v -2.340141 3.548025 1.563633
v -2.891757 2.298457 1.932210
v -3.804465 1.434443 2.542062
v -5.417519 0.925649 3.619872
v -7.407655 0.479497 4.949637
v -0.531599 27.336697 0.220195
v -0.730312 22.723343 0.302504
v -1.045869 16.356581 0.433212
v -1.434693 11.143515 0.594268
v -1.862063 6.430308 0.771292
v -2.600225 3.548025 1.077049
v -3.213146 2.298457 1.330929
v -4.227294 1.434443 1.751001
v -6.019625 0.925649 2.493411
v -8.230946 0.479497 3.409370
v -0.564343 27.336697 0.112254
v -0.775294 22.723343 0.154215
v -1.110288 16.356581 0.220850
v -1.523062 11.143515 0.302955
v -1.976756 6.430308 0.393201
v -2.760385 3.548025 0.549075
v -3.411058 2.298457 0.678502
v -4.487672 1.434443 0.892654
v -6.390398 0.925649 1.271130
v -8.737926 0.479497 1.738082
v -0.575399 27.336697 -0.000001
v -0.790483 22.723343 -0.000001
v -1.132040 16.356581 -0.000001
v -1.552901 11.143515 -0.000001
v -2.015482 6.430308 -0.000001
v -2.814464 3.548025 -0.000000
v -3.477885 2.298457 -0.000000
v -4.575590 1.434443 -0.000000
v -6.515595 0.925649 -0.000000
v -8.909111 0.479497 -0.000000
v -0.564343 27.336697 -0.112256
v -0.775294 22.723343 -0.154217
v -1.110288 16.356581 -0.220851
v -1.523062 11.143515 -0.302957
v -1.976756 6.430308 -0.393202
v -2.760385 3.548025 -0.549076
v -3.411058 2.298457 -0.678503
v -4.487672 1.434442 -0.892654
v -6.390398 0.925649 -1.271131
v -8.737926 0.479497 -1.738082
v -0.531599 27.336697 -0.220197
v -0.730312 22.723343 -0.302505
v -1.045869 16.356581 -0.433214
v -1.434693 11.143515 -0.594270
v -1.862063 6.430308 -0.771292
v -2.600225 3.548025 -1.077050
v -3.213147 2.298457 -1.330930
v -4.227294 1.434443 -1.751002
v -6.019625 0.925649 -2.493411
v -8.230946 0.479496 -3.409370
v -0.478427 27.336697 -0.319676
v -0.657263 22.723343 -0.439170
v -0.941257 16.356575 -0.628929
v -1.291189 11.143515 -0.862746
v -1.675813 6.430308 -1.119743
v -2.340141 3.548025 -1.563634
v -2.891757 2.298457 -1.932211
v -3.804465 1.434442 -2.542063
v -5.417519 0.925649 -3.619872
v -7.407655 0.479496 -4.949637
v -0.406869 27.336697 -0.406870
v -0.558956 22.723343 -0.558957
v -0.800474 16.356575 -0.800475
v -1.098066 11.143515 -1.098067
v -1.425161 6.430308 -1.425162
v -1.990127 3.548024 -1.990127
v -2.459237 2.298457 -2.459237
v -3.235431 1.434443 -3.235431
v -4.607221 0.925649 -4.607221
v -6.299693 0.479496 -6.299693
v -0.319675 27.336697 -0.478428
v -0.439169 22.723343 -0.657263
v -0.628928 16.356575 -0.941258
v -0.862745 11.143515 -1.291190
v -1.119742 6.430309 -1.675812
v -1.563633 3.548025 -2.340142
v -1.932211 2.298457 -2.891756
v -2.542063 1.434443 -3.804465
v -3.619872 0.925649 -5.417519
v -4.949637 0.479496 -7.407655
v -0.220196 27.336697 -0.531600
v -0.302505 22.723343 -0.730312
v -0.433213 16.356581 -1.045870
v -0.594269 11.143515 -1.434694
v -0.771291 6.430309 -1.862064
v -1.077049 3.548025 -2.600226
v -1.330930 2.298457 -3.213147
v -1.751002 1.434442 -4.227294
v -2.493411 0.925649 -6.019625
v -3.409370 0.479496 -8.230946
v -0.112255 27.336697 -0.564344
v -0.154216 22.723343 -0.775295
v -0.220850 16.356581 -1.110289
v -0.302956 11.143515 -1.523063
v -0.393202 6.430308 -1.976757
v -0.549075 3.548025 -2.760386
v -0.678503 2.298457 -3.411059
v -0.892654 1.434442 -4.487672
v -1.271130 0.925649 -6.390398
v -1.738082 0.479496 -8.737926
vn -0.0000 0.0455 -0.9990
vn -0.0000 0.0445 -0.9990
vn 0.1949 0.0445 -0.9798
vn 0.1949 0.0455 -0.9798
vn 0.3823 0.0445 -0.9230
vn 0.3823 0.0455 -0.9229
vn 0.5550 0.0445 -0.8306
vn 0.5550 0.0455 -0.8306
vn 0.7064 0.0445 -0.7064
vn 0.7064 0.0455 -0.7064
vn 0.8306 0.0445 -0.5550
vn 0.8306 0.0455 -0.5550
vn 0.9230 0.0445 -0.3823
vn 0.9229 0.0455 -0.3823
vn 0.9798 0.0445 -0.1949
vn 0.9798 0.0455 -0.1949
vn 0.9990 0.0445 -0.0000
vn 0.9990 0.0455 -0.0000
vn 0.9798 0.0445 0.1949
vn 0.9798 0.0455 0.1949
vn 0.9230 0.0445 0.3823
vn 0.9229 0.0455 0.3823
vn 0.8306 0.0445 0.5550
vn 0.8306 0.0455 0.5550
vn 0.7064 0.0445 0.7064
vn 0.7064 0.0455 0.7064
vn 0.5550 0.0445 0.8306
vn 0.5550 0.0455 0.8306
vn 0.3823 0.0445 0.9230
vn 0.3823 0.0455 0.9229
vn 0.1949 0.0445 0.9798
vn 0.1949 0.0455 0.9798
vn -0.0000 0.0445 0.9990
vn -0.0000 0.0455 0.9990
vn -0.1949 0.0445 0.9798
vn -0.1949 0.0455 0.9798
vn -0.3823 0.0445 0.9230
vn -0.3823 0.0455 0.9229
vn -0.5550 0.0445 0.8306
vn -0.5550 0.0455 0.8306
vn -0.7064 0.0445 0.7064
vn -0.7064 0.0455 0.7064
vn -0.8306 0.0445 0.5550
vn -0.8306 0.0455 0.5550
vn -0.9230 0.0445 0.3823
vn -0.9229 0.0455 0.3823
vn -0.9798 0.0445 0.1949
vn -0.9798 0.0455 0.1949
vn -0.9990 0.0445 -0.0000
vn -0.9990 0.0455 -0.0000
vn -0.9798 0.0445 -0.1949
vn -0.9798 0.0455 -0.1949
vn -0.9230 0.0445 -0.3823
vn -0.9229 0.0455 -0.3823
vn -0.8306 0.0445 -0.5550
vn -0.8306 0.0455 -0.5550
vn -0.7064 0.0445 -0.7064
vn -0.7064 0.0455 -0.7064
vn -0.5550 0.0445 -0.8306
vn -0.5550 0.0455 -0.8306
vn -0.3823 0.0445 -0.9230
vn -0.3823 0.0455 -0.9229
vn -0.1949 0.0445 -0.9798
vn -0.1949 0.0455 -0.9798
vn -0.0315 0.9868 -0.1585
vn -0.0335 0.9851 -0.1685
vn -0.0000 0.9851 -0.1718
vn -0.0000 0.9868 -0.1617
vn -0.0422 0.9763 -0.2123
vn -0.0000 0.9763 -0.2165
vn -0.0849 0.9004 -0.4268
vn -0.0000 0.9004 -0.4351
vn -0.1487 0.6476 -0.7474
vn -0.0000 0.6476 -0.7620
vn -0.1810 0.3726 -0.9102
vn -0.0000 0.3726 -0.9280
vn -0.1918 0.1841 -0.9640
vn -0.0000 0.1841 -0.9829
vn -0.1943 0.0891 -0.9769
vn -0.0000 0.0891 -0.9960
vn -0.1947 0.0671 -0.9786
vn -0.0000 0.0671 -0.9977
vn -0.1948 0.0501 -0.9796
vn -0.0000 0.0501 -0.9987
vn -0.0619 0.9868 -0.1493
vn -0.0657 0.9851 -0.1587
vn -0.0828 0.9763 -0.2000
vn -0.1665 0.9004 -0.4020
vn -0.2916 0.6476 -0.7040
vn -0.3551 0.3726 -0.8574
vn -0.3761 0.1841 -0.9081
vn -0.3812 0.0891 -0.9202
vn -0.3818 0.0671 -0.9218
vn -0.3822 0.0501 -0.9227
vn -0.0898 0.9868 -0.1344
vn -0.0954 0.9851 -0.1428
vn -0.1203 0.9763 -0.1800
vn -0.2417 0.9004 -0.3618
vn -0.4233 0.6476 -0.6336
vn -0.5156 0.3726 -0.7716
vn -0.5461 0.1841 -0.8173
vn -0.5534 0.0891 -0.8282
vn -0.5543 0.0671 -0.8296
vn -0.5549 0.0501 -0.8304
vn -0.1143 0.9868 -0.1143
vn -0.1215 0.9851 -0.1215
vn -0.1531 0.9763 -0.1531
vn -0.3077 0.9004 -0.3077
vn -0.5388 0.6476 -0.5388
vn -0.6562 0.3726 -0.6562
vn -0.6950 0.1841 -0.6950
vn -0.7043 0.0891 -0.7043
vn -0.7055 0.0671 -0.7055
vn -0.7062 0.0501 -0.7062
vn -0.1344 0.9868 -0.0898
vn -0.1428 0.9851 -0.0954
vn -0.1800 0.9763 -0.1203
vn -0.3618 0.9004 -0.2417
vn -0.6336 0.6476 -0.4233
vn -0.7716 0.3726 -0.5156
vn -0.8173 0.1841 -0.5461
vn -0.8282 0.0891 -0.5534
vn -0.8296 0.0671 -0.5543
vn -0.8304 0.0501 -0.5549
vn -0.1493 0.9868 -0.0619
vn -0.1587 0.9851 -0.0657
vn -0.2000 0.9763 -0.0828
vn -0.4020 0.9004 -0.1665
vn -0.7040 0.6476 -0.2916
vn -0.8574 0.3726 -0.3551
vn -0.9081 0.1841 -0.3761
vn -0.9202 0.0891 -0.3812
vn -0.9218 0.0671 -0.3818
vn -0.9227 0.0501 -0.3822
vn -0.1585 0.9868 -0.0315
vn -0.1685 0.9851 -0.0335
vn -0.2123 0.9763 -0.0422
vn -0.4268 0.9004 -0.0849
vn -0.7474 0.6476 -0.1487
vn -0.9102 0.3726 -0.1810
vn -0.9640 0.1841 -0.1918
vn -0.9769 0.0891 -0.1943
vn -0.9786 0.0671 -0.1947
vn -0.9796 0.0501 -0.1948
vn -0.1617 0.9868 -0.0000
vn -0.1718 0.9851 -0.0000
vn -0.2165 0.9763 -0.0000
vn -0.4351 0.9004 -0.0000
vn -0.7620 0.6476 -0.0000
vn -0.9280 0.3726 -0.0000
vn -0.9829 0.1841 -0.0000
vn -0.9960 0.0891 -0.0000
vn -0.9977 0.0671 -0.0000
vn -0.9987 0.0501 -0.0000
vn -0.1585 0.9868 0.0315
vn -0.1685 0.9851 0.0335
vn -0.2123 0.9763 0.0422
vn -0.4268 0.9004 0.0849
vn -0.7474 0.6476 0.1487
vn -0.9102 0.3726 0.1810
vn -0.9640 0.1841 0.1918
vn -0.9769 0.0891 0.1943
vn -0.9786 0.0671 0.1947
vn -0.9796 0.0501 0.1948
vn -0.1493 0.9868 0.0619
vn -0.1587 0.9851 0.0657
vn -0.2000 0.9763 0.0828
vn -0.4020 0.9004 0.1665
vn -0.7040 0.6476 0.2916
vn -0.8574 0.3726 0.3551
vn -0.9081 0.1841 0.3761
vn -0.9202 0.0891 0.3812
vn -0.9218 0.0671 0.3818
vn -0.9227 0.0501 0.3822
vn -0.1344 0.9868 0.0898
vn -0.1428 0.9851 0.0954
vn -0.1800 0.9763 0.1203
vn -0.3618 0.9004 0.2417
vn -0.6336 0.6476 0.4233
vn -0.7716 0.3726 0.5156
vn -0.8173 0.1841 0.5461
vn -0.8282 0.0891 0.5534
vn -0.8296 0.0671 0.5543
vn -0.8304 0.0501 0.5549
vn -0.1143 0.9868 0.1143
vn -0.1215 0.9851 0.1215
vn -0.1531 0.9763 0.1531
vn -0.3077 0.9004 0.3077
vn -0.5388 0.6476 0.5388
vn -0.6562 0.3726 0.6562
vn -0.6950 0.1841 0.6950
vn -0.7043 0.0891 0.7043
vn -0.7055 0.0671 0.7055
vn -0.7062 0.0501 0.7062
vn -0.0898 0.9868 0.1344
vn -0.0954 0.9851 0.1428
vn -0.1203 0.9763 0.1800
vn -0.2417 0.9004 0.3618
vn -0.4233 0.6476 0.6336
vn -0.5156 0.3726 0.7716
vn -0.5461 0.1841 0.8173
vn -0.5534 0.0891 0.8282
vn -0.5543 0.0671 0.8296
vn -0.5549 0.0501 0.8304
vn -0.0619 0.9868 0.1493
vn -0.0657 0.9851 0.1587
vn -0.0828 0.9763 0.2000
vn -0.1665 0.9004 0.4020
vn -0.2916 0.6476 0.7040
vn -0.3551 0.3726 0.8574
vn -0.3761 0.1841 0.9081
vn -0.3812 0.0891 0.9202
vn -0.3818 0.0671 0.9218
vn -0.3822 0.0501 0.9227
vn -0.0315 0.9868 0.1585
vn -0.0335 0.9851 0.1685
vn -0.0422 0.9763 0.2123
vn -0.0849 0.9004 0.4268
vn -0.1487 0.6476 0.7474
vn -0.1810 0.3726 0.9102
vn -0.1918 0.1841 0.9640
vn -0.1943 0.0891 0.9769
vn -0.1947 0.0671 0.9786
vn -0.1948 0.0501 0.9796
vn -0.0000 0.9868 0.1617
vn -0.0000 0.9851 0.1718
vn -0.0000 0.9763 0.2165
vn -0.0000 0.9004 0.4351
vn -0.0000 0.6476 0.7620
vn -0.0000 0.3726 0.9280
vn -0.0000 0.1841 0.9829
vn -0.0000 0.0891 0.9960
vn -0.0000 0.0671 0.9977
vn -0.0000 0.0501 0.9987
vn 0.0315 0.9868 0.1585
vn 0.0335 0.9851 0.1685
vn 0.0422 0.9763 0.2123
vn 0.0849 0.9004 0.4268
vn 0.1487 0.6476 0.7474
vn 0.1810 0.3726 0.9102
vn 0.1918 0.1841 0.9640
vn 0.1943 0.0891 0.9769
vn 0.1947 0.0671 0.9786
vn 0.1948 0.0501 0.9796
vn 0.0619 0.9868 0.1493
vn 0.0657 0.9851 0.1587
vn 0.0828 0.9763 0.2000
vn 0.1665 0.9004 0.4020
vn 0.2916 0.6476 0.7040
vn 0.3551 0.3726 0.8574
vn 0.3761 0.1841 0.9081
vn 0.3812 0.0891 0.9202
vn 0.3818 0.0671 0.9218
vn 0.3822 0.0501 0.9227
vn 0.0898 0.9868 0.1344
vn 0.0954 0.9851 0.1428
vn 0.1203 0.9763 0.1800
vn 0.2417 0.9004 0.3618
vn 0.4233 0.6476 0.6336
vn 0.5156 0.3726 0.7716
vn 0.5461 0.1841 0.8173
vn 0.5534 0.0891 0.8282
vn 0.5543 0.0671 0.8296
vn 0.5549 0.0501 0.8304
vn 0.1143 0.9868 0.1143
vn 0.1215 0.9851 0.1215
vn 0.1531 0.9763 0.1531
vn 0.3077 0.9004 0.3077
vn 0.5388 0.6476 0.5388
vn 0.6562 0.3726 0.6562
vn 0.6950 0.1841 0.6950
vn 0.7043 0.0891 0.7043
vn 0.7055 0.0671 0.7055
vn 0.7062 0.0501 0.7062
vn 0.1344 0.9868 0.0898
vn 0.1428 0.9851 0.0954
vn 0.1800 0.9763 0.1203
vn 0.3618 0.9004 0.2417
vn 0.6336 0.6476 0.4233
vn 0.7716 0.3726 0.5156
vn 0.8173 0.1841 0.5461
vn 0.8282 0.0891 0.5534
vn 0.8296 0.0671 0.5543
vn 0.8304 0.0501 0.5549
vn 0.1493 0.9868 0.0619
vn 0.1587 0.9851 0.0657
vn 0.2000 0.9763 0.0828
vn 0.4020 0.9004 0.1665
vn 0.7040 0.6476 0.2916
vn 0.8574 0.3726 0.3551
vn 0.9081 0.1841 0.3761
vn 0.9202 0.0891 0.3812
vn 0.9218 0.0671 0.3818
vn 0.9227 0.0501 0.3822
vn 0.1585 0.9868 0.0315
vn 0.1685 0.9851 0.0335
vn 0.2123 0.9763 0.0422
vn 0.4268 0.9004 0.0849
vn 0.7474 0.6476 0.1487
vn 0.9102 0.3726 0.1810
vn 0.9640 0.1841 0.1918
vn 0.9769 0.0891 0.1943
vn 0.9786 0.0671 0.1947
vn 0.9796 0.0501 0.1948
vn 0.1617 0.9868 -0.0000
vn 0.1718 0.9851 -0.0000
vn 0.2165 0.9763 -0.0000
vn 0.4351 0.9004 -0.0000
vn 0.7620 0.6476 -0.0000
vn 0.9280 0.3726 -0.0000
vn 0.9829 0.1841 -0.0000
vn 0.9960 0.0891 -0.0000
vn 0.9977 0.0671 -0.0000
vn 0.9987 0.0501 -0.0000
vn 0.1585 0.9868 -0.0315
vn 0.1685 0.9851 -0.0335
vn 0.2123 0.9763 -0.0422
vn 0.4268 0.9004 -0.0849
vn 0.7474 0.6476 -0.1487
vn 0.9102 0.3726 -0.1810
vn 0.9640 0.1841 -0.1918
vn 0.9769 0.0891 -0.1943
vn 0.9786 0.0671 -0.1947
vn 0.9796 0.0501 -0.1948
vn 0.1493 0.9868 -0.0619
vn 0.1587 0.9851 -0.0657
vn 0.2000 0.9763 -0.0828
vn 0.4020 0.9004 -0.1665
vn 0.7040 0.6476 -0.2916
vn 0.8574 0.3726 -0.3551
vn 0.9081 0.1841 -0.3761
vn 0.9202 0.0891 -0.3812
vn 0.9218 0.0671 -0.3818
vn 0.9227 0.0501 -0.3822
vn 0.1344 0.9868 -0.0898
vn 0.1428 0.9851 -0.0954
vn 0.1800 0.9763 -0.1203
vn 0.3618 0.9004 -0.2417
vn 0.6336 0.6476 -0.4233
vn 0.7716 0.3726 -0.5156
vn 0.8173 0.1841 -0.5461
vn 0.8282 0.0891 -0.5534
vn 0.8296 0.0671 -0.5543
vn 0.8304 0.0501 -0.5549
vn 0.1143 0.9868 -0.1143
vn 0.1215 0.9851 -0.1215
vn 0.1531 0.9763 -0.1531
vn 0.3077 0.9004 -0.3077
vn 0.5388 0.6476 -0.5388
vn 0.6562 0.3726 -0.6562
vn 0.6950 0.1841 -0.6950
vn 0.7043 0.0891 -0.7043
vn 0.7055 0.0671 -0.7055
vn 0.7062 0.0501 -0.7062
vn 0.0898 0.9868 -0.1344
vn 0.0954 0.9851 -0.1428
vn 0.1203 0.9763 -0.1800
vn 0.2417 0.9004 -0.3618
vn 0.4233 0.6476 -0.6336
vn 0.5156 0.3726 -0.7716
vn 0.5461 0.1841 -0.8173
vn 0.5534 0.0891 -0.8282
vn 0.5543 0.0671 -0.8296
vn 0.5549 0.0501 -0.8304
vn 0.0619 0.9868 -0.1493
vn 0.0657 0.9851 -0.1587
vn 0.0828 0.9763 -0.2000
vn 0.1665 0.9004 -0.4020
vn 0.2916 0.6476 -0.7040
vn 0.3551 0.3726 -0.8574
vn 0.3761 0.1841 -0.9081
vn 0.3812 0.0891 -0.9202
vn 0.3818 0.0671 -0.9218
vn 0.3822 0.0501 -0.9227
vn 0.0315 0.9868 -0.1585
vn 0.0335 0.9851 -0.1685
vn 0.0422 0.9763 -0.2123
vn 0.0849 0.9004 -0.4268
vn 0.1487 0.6476 -0.7474
vn 0.1810 0.3726 -0.9102
vn 0.1918 0.1841 -0.9640
vn 0.1943 0.0891 -0.9769
vn 0.1947 0.0671 -0.9786
vn 0.1948 0.0501 -0.9796
vt 1.000000 0.909091
vt 1.000000 1.000000
vt 0.968750 1.000000
vt 0.968750 0.909091
vt 0.937500 1.000000
vt 0.937500 0.909091
vt 0.906250 1.000000
vt 0.906250 0.909091
vt 0.875000 1.000000
vt 0.875000 0.909091
vt 0.843750 1.000000
vt 0.843750 0.909091
vt 0.812500 1.000000
vt 0.812500 0.909091
vt 0.781250 1.000000
vt 0.781250 0.909091
vt 0.750000 1.000000
vt 0.750000 0.909091
vt 0.718750 1.000000
vt 0.718750 0.909091
vt 0.687500 1.000000
vt 0.687500 0.909091
vt 0.656250 1.000000
vt 0.656250 0.909091
vt 0.625000 1.000000
vt 0.625000 0.909091
vt 0.593750 1.000000
vt 0.593750 0.909091
vt 0.562500 1.000000
vt 0.562500 0.909091
vt 0.531250 1.000000
vt 0.531250 0.909091
vt 0.500000 1.000000
vt 0.500000 0.909091
vt 0.468750 1.000000
vt 0.468750 0.909091
vt 0.437500 1.000000
vt 0.437500 0.909091
vt 0.406250 1.000000
vt 0.406250 0.909091
vt 0.375000 1.000000
vt 0.375000 0.909091
vt 0.343750 1.000000
vt 0.343750 0.909091
vt 0.312500 1.000000
vt 0.312500 0.909091
vt 0.281250 1.000000
vt 0.281250 0.909091
vt 0.250000 1.000000
vt 0.250000 0.909091
vt 0.218750 1.000000
vt 0.218750 0.909091
vt 0.187500 1.000000
vt 0.187500 0.909091
vt 0.156250 1.000000
vt 0.156250 0.909091
vt 0.125000 1.000000
vt 0.125000 0.909091
vt 0.093750 1.000000
vt 0.093750 0.909091
vt 0.062500 1.000000
vt 0.062500 0.909091
vt 0.031250 1.000000
vt 0.031250 0.909091
vt 0.000000 1.000000
vt 0.000000 0.909091
vt 0.031250 0.000000
vt 0.031250 0.055096
vt 0.000000 0.055096
vt 0.000000 0.000000
vt 0.031250 0.129994
vt 0.000000 0.129994
vt 0.031250 0.238095
vt 0.000000 0.238095
vt 0.031250 0.363636
vt 0.000000 0.363636
vt 0.031250 0.454545
vt 0.000000 0.454545
vt 0.031250 0.545455
vt 0.000000 0.545455
vt 0.031250 0.636364
vt 0.000000 0.636364
vt 0.031250 0.727273
vt 0.000000 0.727273
vt 0.031250 0.818182
vt 0.000000 0.818182
vt 0.062500 0.000000
vt 0.062500 0.055096
vt 0.062500 0.129994
vt 0.062500 0.238095
vt 0.062500 0.363636
vt 0.062500 0.454545
vt 0.062500 0.545455
vt 0.062500 0.636364
vt 0.062500 0.727273
vt 0.062500 0.818182
vt 0.093750 0.000000
vt 0.093750 0.055096
vt 0.093750 0.129994
vt 0.093750 0.238095
vt 0.093750 0.363636
vt 0.093750 0.454545
vt 0.093750 0.545455
vt 0.093750 0.636364
vt 0.093750 0.727273
vt 0.093750 0.818182
vt 0.125000 0.000000
vt 0.125000 0.055096
vt 0.125000 0.129994
vt 0.125000 0.238095
vt 0.125000 0.363636
vt 0.125000 0.454545
vt 0.125000 0.545455
vt 0.125000 0.636364
vt 0.125000 0.727273
vt 0.125000 0.818182
vt 0.156250 0.000000
vt 0.156250 0.055096
vt 0.156250 0.129994
vt 0.156250 0.238095
vt 0.156250 0.363636
vt 0.156250 0.454545
vt 0.156250 0.545455
vt 0.156250 0.636364
vt 0.156250 0.727273
vt 0.156250 0.818182
vt 0.187500 0.000000
vt 0.187500 0.055096
vt 0.187500 0.129994
vt 0.187500 0.238095
vt 0.187500 0.363636
vt 0.187500 0.454545
vt 0.187500 0.545455
vt 0.187500 0.636364
vt 0.187500 0.727273
vt 0.187500 0.818182
vt 0.218750 0.000000
vt 0.218750 0.055096
vt 0.218750 0.129994
vt 0.218750 0.238095
vt 0.218750 0.363636
vt 0.218750 0.454545
vt 0.218750 0.545455
vt 0.218750 0.636364
vt 0.218750 0.727273
vt 0.218750 0.818182
vt 0.250000 0.000000
vt 0.250000 0.055096
vt 0.250000 0.129994
vt 0.250000 0.238095
vt 0.250000 0.363636
vt 0.250000 0.454545
vt 0.250000 0.545455
vt 0.250000 0.636364
vt 0.250000 0.727273
vt 0.250000 0.818182
vt 0.281250 0.000000
vt 0.281250 0.055096
vt 0.281250 0.129994
vt 0.281250 0.238095
vt 0.281250 0.363636
vt 0.281250 0.454545
vt 0.281250 0.545455
vt 0.281250 0.636364
vt 0.281250 0.727273
vt 0.281250 0.818182
vt 0.312500 0.000000
vt 0.312500 0.055096
vt 0.312500 0.129994
vt 0.312500 0.238095
vt 0.312500 0.363636
vt 0.312500 0.454545
vt 0.312500 0.545455
vt 0.312500 0.636364
vt 0.312500 0.727273
vt 0.312500 0.818182
vt 0.343750 0.000000
vt 0.343750 0.055096
vt 0.343750 0.129994
vt 0.343750 0.238095
vt 0.343750 0.363636
vt 0.343750 0.454545
vt 0.343750 0.545455
vt 0.343750 0.636364
vt 0.343750 0.727273
vt 0.343750 0.818182
vt 0.375000 0.000000
vt 0.375000 0.055096
vt 0.375000 0.129994
vt 0.375000 0.238095
vt 0.375000 0.363636
vt 0.375000 0.454545
vt 0.375000 0.545455
vt 0.375000 0.636364
vt 0.375000 0.727273
vt 0.375000 0.818182
vt 0.406250 0.000000
vt 0.406250 0.055096
vt 0.406250 0.129994
vt 0.406250 0.238095
vt 0.406250 0.363636
vt 0.406250 0.454545
vt 0.406250 0.545455
vt 0.406250 0.636364
vt 0.406250 0.727273
vt 0.406250 0.818182
vt 0.437500 0.000000
vt 0.437500 0.055096
vt 0.437500 0.129994
vt 0.437500 0.238095
vt 0.437500 0.363636
vt 0.437500 0.454545
vt 0.437500 0.545455
vt 0.437500 0.636364
vt 0.437500 0.727273
vt 0.437500 0.818182
vt 0.468750 0.000000
vt 0.468750 0.055096
vt 0.468750 0.129994
vt 0.468750 0.238095
vt 0.468750 0.363636
vt 0.468750 0.454545
vt 0.468750 0.545455
vt 0.468750 0.636364
vt 0.468750 0.727273
vt 0.468750 0.818182
vt 0.500000 0.000000
vt 0.500000 0.055096
vt 0.500000 0.129994
vt 0.500000 0.238095
vt 0.500000 0.363636
vt 0.500000 0.454545
vt 0.500000 0.545455
vt 0.500000 0.636364
vt 0.500000 0.727273
vt 0.500000 0.818182
vt 0.531250 0.000000
vt 0.531250 0.055096
vt 0.531250 0.129994
vt 0.531250 0.238095
vt 0.531250 0.363636
vt 0.531250 0.454545
vt 0.531250 0.545455
vt 0.531250 0.636364
vt 0.531250 0.727273
vt 0.531250 0.818182
vt 0.562500 0.000000
vt 0.562500 0.055096
vt 0.562500 0.129994
vt 0.562500 0.238095
vt 0.562500 0.363636
vt 0.562500 0.454545
vt 0.562500 0.545455
vt 0.562500 0.636364
vt 0.562500 0.727273
vt 0.562500 0.818182
vt 0.593750 0.000000
vt 0.593750 0.055096
vt 0.593750 0.129994
vt 0.593750 0.238095
vt 0.593750 0.363636
vt 0.593750 0.454545
vt 0.593750 0.545455
vt 0.593750 0.636364
vt 0.593750 0.727273
vt 0.593750 0.818182
vt 0.625000 0.000000
vt 0.625000 0.055096
vt 0.625000 0.129994
vt 0.625000 0.238095
vt 0.625000 0.363636
vt 0.625000 0.454545
vt 0.625000 0.545455
vt 0.625000 0.636364
vt 0.625000 0.727273
vt 0.625000 0.818182
vt 0.656250 0.000000
vt 0.656250 0.055096
vt 0.656250 0.129994
vt 0.656250 0.238095
vt 0.656250 0.363636
vt 0.656250 0.454545
vt 0.656250 0.545455
vt 0.656250 0.636364
vt 0.656250 0.727273
vt 0.656250 0.818182
vt 0.687500 0.000000
vt 0.687500 0.055096
vt 0.687500 0.129994
vt 0.687500 0.238095
vt 0.687500 0.363636
vt 0.687500 0.454545
vt 0.687500 0.545455
vt 0.687500 0.636364
vt 0.687500 0.727273
vt 0.687500 0.818182
vt 0.718750 0.000000
vt 0.718750 0.055096
vt 0.718750 0.129994
vt 0.718750 0.238095
vt 0.718750 0.363636
vt 0.718750 0.454545
vt 0.718750 0.545455
vt 0.718750 0.636364
vt 0.718750 0.727273
vt 0.718750 0.818182
vt 0.750000 0.000000
vt 0.750000 0.055096
vt 0.750000 0.129994
vt 0.750000 0.238095
vt 0.750000 0.363636
vt 0.750000 0.454545
vt 0.750000 0.545455
vt 0.750000 0.636364
vt 0.750000 0.727273
vt 0.750000 0.818182
vt 0.781250 0.000000
vt 0.781250 0.055096
vt 0.781250 0.129994
vt 0.781250 0.238095
vt 0.781250 0.363636
vt 0.781250 0.454545
vt 0.781250 0.545455
vt 0.781250 0.636364
vt 0.781250 0.727273
vt 0.781250 0.818182
vt 0.812500 0.000000
vt 0.812500 0.055096
vt 0.812500 0.129994
vt 0.812500 0.238095
vt 0.812500 0.363636
vt 0.812500 0.454545
vt 0.812500 0.545455
vt 0.812500 0.636364
vt 0.812500 0.727273
vt 0.812500 0.818182
vt 0.843750 0.000000
vt 0.843750 0.055096
vt 0.843750 0.129994
vt 0.843750 0.238095
vt 0.843750 0.363636
vt 0.843750 0.454545
vt 0.843750 0.545455
vt 0.843750 0.636364
vt 0.843750 0.727273
vt 0.843750 0.818182
vt 0.875000 0.000000
vt 0.875000 0.055096
vt 0.875000 0.129994
vt 0.875000 0.238095
vt 0.875000 0.363636
vt 0.875000 0.454545
vt 0.875000 0.545455
vt 0.875000 0.636364
vt 0.875000 0.727273
vt 0.875000 0.818182
vt 0.906250 0.000000
vt 0.906250 0.055096
vt 0.906250 0.129994
vt 0.906250 0.238095
vt 0.906250 0.363636
vt 0.906250 0.454545
vt 0.906250 0.545455
vt 0.906250 0.636364
vt 0.906250 0.727273
vt 0.906250 0.818182
vt 0.937500 0.000000
vt 0.937500 0.055096
vt 0.937500 0.129994
vt 0.937500 0.238095
vt 0.937500 0.363636
vt 0.937500 0.454545
vt 0.937500 0.545455
vt 0.937500 0.636364
vt 0.937500 0.727273
vt 0.937500 0.818182
vt 0.968750 0.000000
vt 0.968750 0.055096
vt 0.968750 0.129994
vt 0.968750 0.238095
vt 0.968750 0.363636
vt 0.968750 0.454545
vt 0.968750 0.545455
vt 0.968750 0.636364
vt 0.968750 0.727273
vt 0.968750 0.818182
vt 1.000000 0.000000
vt 1.000000 0.055096
vt 1.000000 0.129994
vt 1.000000 0.238095
vt 1.000000 0.363636
vt 1.000000 0.454545
vt 1.000000 0.545455
vt 1.000000 0.636364
vt 1.000000 0.727273
vt 1.000000 0.818182
s 1
f 74/1/1 2/2/2 4/3/3 75/4/4
f 75/4/4 4/3/3 6/5/5 85/6/6
f 85/6/6 6/5/5 8/7/7 95/8/8
f 95/8/8 8/7/7 10/9/9 105/10/10
f 105/10/10 10/9/9 12/11/11 115/12/12
f 115/12/12 12/11/11 14/13/13 125/14/14
f 125/14/14 14/13/13 16/15/15 135/16/16
f 135/16/16 16/15/15 18/17/17 145/18/18
f 145/18/18 18/17/17 20/19/19 155/20/20
f 155/20/20 20/19/19 22/21/21 165/22/22
f 165/22/22 22/21/21 24/23/23 175/24/24
f 175/24/24 24/23/23 26/25/25 185/26/26
f 185/26/26 26/25/25 28/27/27 195/28/28
f 195/28/28 28/27/27 30/29/29 205/30/30
f 205/30/30 30/29/29 32/31/31 215/32/32
f 215/32/32 32/31/31 34/33/33 225/34/34
f 225/34/34 34/33/33 36/35/35 235/36/36
f 235/36/36 36/35/35 38/37/37 245/38/38
f 245/38/38 38/37/37 40/39/39 255/40/40
f 255/40/40 40/39/39 42/41/41 265/42/42
f 265/42/42 42/41/41 44/43/43 275/44/44
f 275/44/44 44/43/43 46/45/45 285/46/46
f 285/46/46 46/45/45 48/47/47 295/48/48
f 295/48/48 48/47/47 50/49/49 305/50/50
f 305/50/50 50/49/49 52/51/51 315/52/52
f 315/52/52 52/51/51 54/53/53 325/54/54
f 325/54/54 54/53/53 56/55/55 335/56/56
f 335/56/56 56/55/55 58/57/57 345/58/58
f 345/58/58 58/57/57 60/59/59 355/60/60
f 355/60/60 60/59/59 62/61/61 365/62/62
f 365/62/62 62/61/61 64/63/63 375/64/64
f 375/64/64 64/63/63 2/65/2 74/66/1
f 63/67/65 384/68/66 65/69/67 1/70/68
f 384/68/66 383/71/69 66/72/70 65/69/67
f 383/71/69 382/73/71 67/74/72 66/72/70
f 382/73/71 381/75/73 68/76/74 67/74/72
f 381/75/73 380/77/75 69/78/76 68/76/74
f 380/77/75 379/79/77 70/80/78 69/78/76
f 379/79/77 378/81/79 71/82/80 70/80/78
f 378/81/79 377/83/81 72/84/82 71/82/80
f 377/83/81 376/85/83 73/86/84 72/84/82
f 376/85/83 375/64/64 74/66/1 73/86/84
f 61/87/85 374/88/86 384/68/66 63/67/65
f 374/88/86 373/89/87 383/71/69 384/68/66
f 373/89/87 372/90/88 382/73/71 383/71/69
f 372/90/88 371/91/89 381/75/73 382/73/71
f 371/91/89 370/92/90 380/77/75 381/75/73
f 370/92/90 369/93/91 379/79/77 380/77/75
f 369/93/91 368/94/92 378/81/79 379/79/77
f 368/94/92 367/95/93 377/83/81 378/81/79
f 367/95/93 366/96/94 376/85/83 377/83/81
f 366/96/94 365/62/62 375/64/64 376/85/83
f 59/97/95 364/98/96 374/88/86 61/87/85
f 364/98/96 363/99/97 373/89/87 374/88/86
f 363/99/97 362/100/98 372/90/88 373/89/87
f 362/100/98 361/101/99 371/91/89 372/90/88
f 361/101/99 360/102/100 370/92/90 371/91/89
f 360/102/100 359/103/101 369/93/91 370/92/90
f 359/103/101 358/104/102 368/94/92 369/93/91
f 358/104/102 357/105/103 367/95/93 368/94/92
f 357/105/103 356/106/104 366/96/94 367/95/93
f 356/106/104 355/60/60 365/62/62 366/96/94
f 57/107/105 354/108/106 364/98/96 59/97/95
f 354/108/106 353/109/107 363/99/97 364/98/96
f 353/109/107 352/110/108 362/100/98 363/99/97
f 352/110/108 351/111/109 361/101/99 362/100/98
f 351/111/109 350/112/110 360/102/100 361/101/99
f 350/112/110 349/113/111 359/103/101 360/102/100
f 349/113/111 348/114/112 358/104/102 359/103/101
f 348/114/112 347/115/113 357/105/103 358/104/102
f 347/115/113 346/116/114 356/106/104 357/105/103
f 346/116/114 345/58/58 355/60/60 356/106/104
f 55/117/115 344/118/116 354/108/106 57/107/105
f 344/118/116 343/119/117 353/109/107 354/108/106
f 343/119/117 342/120/118 352/110/108 353/109/107
f 342/120/118 341/121/119 351/111/109 352/110/108
f 341/121/119 340/122/120 350/112/110 351/111/109
f 340/122/120 339/123/121 349/113/111 350/112/110
f 339/123/121 338/124/122 348/114/112 349/113/111
f 338/124/122 337/125/123 347/115/113 348/114/112
f 337/125/123 336/126/124 346/116/114 347/115/113
f 336/126/124 335/56/56 345/58/58 346/116/114
f 53/127/125 334/128/126 344/118/116 55/117/115
f 334/128/126 333/129/127 343/119/117 344/118/116
f 333/129/127 332/130/128 342/120/118 343/119/117
f 332/130/128 331/131/129 341/121/119 342/120/118
f 331/131/129 330/132/130 340/122/120 341/121/119
f 330/132/130 329/133/131 339/123/121 340/122/120
f 329/133/131 328/134/132 338/124/122 339/123/121
f 328/134/132 327/135/133 337/125/123 338/124/122
f 327/135/133 326/136/134 336/126/124 337/125/123
f 326/136/134 325/54/54 335/56/56 336/126/124
f 51/137/135 324/138/136 334/128/126 53/127/125
f 324/138/136 323/139/137 333/129/127 334/128/126
f 323/139/137 322/140/138 332/130/128 333/129/127
f 322/140/138 321/141/139 331/131/129 332/130/128
f 321/141/139 320/142/140 330/132/130 331/131/129
f 320/142/140 319/143/141 329/133/131 330/132/130
f 319/143/141 318/144/142 328/134/132 329/133/131
f 318/144/142 317/145/143 327/135/133 328/134/132
f 317/145/143 316/146/144 326/136/134 327/135/133
f 316/146/144 315/52/52 325/54/54 326/136/134
f 49/147/145 314/148/146 324/138/136 51/137/135
f 314/148/146 313/149/147 323/139/137 324/138/136
f 313/149/147 312/150/148 322/140/138 323/139/137
f 312/150/148 311/151/149 321/141/139 322/140/138
f 311/151/149 310/152/150 320/142/140 321/141/139
f 310/152/150 309/153/151 319/143/141 320/142/140
f 309/153/151 308/154/152 318/144/142 319/143/141
f 308/154/152 307/155/153 317/145/143 318/144/142
f 307/155/153 306/156/154 316/146/144 317/145/143
f 306/156/154 305/50/50 315/52/52 316/146/144
f 47/157/155 304/158/156 314/148/146 49/147/145
f 304/158/156 303/159/157 313/149/147 314/148/146
f 303/159/157 302/160/158 312/150/148 313/149/147
f 302/160/158 301/161/159 311/151/149 312/150/148
f 301/161/159 300/162/160 310/152/150 311/151/149
f 300/162/160 299/163/161 309/153/151 310/152/150
f 299/163/161 298/164/162 308/154/152 309/153/151
f 298/164/162 297/165/163 307/155/153 308/154/152
f 297/165/163 296/166/164 306/156/154 307/155/153
f 296/166/164 295/48/48 305/50/50 306/156/154
f 45/167/165 294/168/166 304/158/156 47/157/155
f 294/168/166 293/169/167 303/159/157 304/158/156
f 293/169/167 292/170/168 302/160/158 303/159/157
f 292/170/168 291/171/169 301/161/159 302/160/158
f 291/171/169 290/172/170 300/162/160 301/161/159
f 290/172/170 289/173/171 299/163/161 300/162/160
f 289/173/171 288/174/172 298/164/162 299/163/161
f 288/174/172 287/175/173 297/165/163 298/164/162
f 287/175/173 286/176/174 296/166/164 297/165/163
f 286/176/174 285/46/46 295/48/48 296/166/164
f 43/177/175 284/178/176 294/168/166 45/167/165
f 284/178/176 283/179/177 293/169/167 294/168/166
f 283/179/177 282/180/178 292/170/168 293/169/167
f 282/180/178 281/181/179 291/171/169 292/170/168
f 281/181/179 280/182/180 290/172/170 291/171/169
f 280/182/180 279/183/181 289/173/171 290/172/170
f 279/183/181 278/184/182 288/174/172 289/173/171
f 278/184/182 277/185/183 287/175/173 288/174/172
f 277/185/183 276/186/184 286/176/174 287/175/173
f 276/186/184 275/44/44 285/46/46 286/176/174
f 41/187/185 274/188/186 284/178/176 43/177/175
f 274/188/186 273/189/187 283/179/177 284/178/176
f 273/189/187 272/190/188 282/180/178 283/179/177
f 272/190/188 271/191/189 281/181/179 282/180/178
f 271/191/189 270/192/190 280/182/180 281/181/179
f 270/192/190 269/193/191 279/183/181 280/182/180
f 269/193/191 268/194/192 278/184/182 279/183/181
f 268/194/192 267/195/193 277/185/183 278/184/182
f 267/195/193 266/196/194 276/186/184 277/185/183
f 266/196/194 265/42/42 275/44/44 276/186/184
f 39/197/195 264/198/196 274/188/186 41/187/185
f 264/198/196 263/199/197 273/189/187 274/188/186
f 263/199/197 262/200/198 272/190/188 273/189/187
f 262/200/198 261/201/199 271/191/189 272/190/188
f 261/201/199 260/202/200 270/192/190 271/191/189
f 260/202/200 259/203/201 269/193/191 270/192/190
f 259/203/201 258/204/202 268/194/192 269/193/191
f 258/204/202 257/205/203 267/195/193 268/194/192
f 257/205/203 256/206/204 266/196/194 267/195/193
f 256/206/204 255/40/40 265/42/42 266/196/194
f 37/207/205 254/208/206 264/198/196 39/197/195
f 254/208/206 253/209/207 263/199/197 264/198/196
f 253/209/207 252/210/208 262/200/198 263/199/197
f 252/210/208 251/211/209 261/201/199 262/200/198
f 251/211/209 250/212/210 260/202/200 261/201/199
f 250/212/210 249/213/211 259/203/201 260/202/200
f 249/213/211 248/214/212 258/204/202 259/203/201
f 248/214/212 247/215/213 257/205/203 258/204/202
f 247/215/213 246/216/214 256/206/204 257/205/203
f 246/216/214 245/38/38 255/40/40 256/206/204
f 35/217/215 244/218/216 254/208/206 37/207/205
f 244/218/216 243/219/217 253/209/207 254/208/206
f 243/219/217 242/220/218 252/210/208 253/209/207
f 242/220/218 241/221/219 251/211/209 252/210/208
f 241/221/219 240/222/220 250/212/210 251/211/209
f 240/222/220 239/223/221 249/213/211 250/212/210
f 239/223/221 238/224/222 248/214/212 249/213/211
f 238/224/222 237/225/223 247/215/213 248/214/212
f 237/225/223 236/226/224 246/216/214 247/215/213
f 236/226/224 235/36/36 245/38/38 246/216/214
f 33/227/225 234/228/226 244/218/216 35/217/215
f 234/228/226 233/229/227 243/219/217 244/218/216
f 233/229/227 232/230/228 242/220/218 243/219/217
f 232/230/228 231/231/229 241/221/219 242/220/218
f 231/231/229 230/232/230 240/222/220 241/221/219
f 230/232/230 229/233/231 239/223/221 240/222/220
f 229/233/231 228/234/232 238/224/222 239/223/221
f 228/234/232 227/235/233 237/225/223 238/224/222
f 227/235/233 226/236/234 236/226/224 237/225/223
f 226/236/234 225/34/34 235/36/36 236/226/224
f 31/237/235 224/238/236 234/228/226 33/227/225
f 224/238/236 223/239/237 233/229/227 234/228/226
f 223/239/237 222/240/238 232/230/228 233/229/227
f 222/240/238 221/241/239 231/231/229 232/230/228
f 221/241/239 220/242/240 230/232/230 231/231/229
f 220/242/240 219/243/241 229/233/231 230/232/230
f 219/243/241 218/244/242 228/234/232 229/233/231
f 218/244/242 217/245/243 227/235/233 228/234/232
f 217/245/243 216/246/244 226/236/234 227/235/233
f 216/246/244 215/32/32 225/34/34 226/236/234
f 29/247/245 214/248/246 224/238/236 31/237/235
f 214/248/246 213/249/247 223/239/237 224/238/236
f 213/249/247 212/250/248 222/240/238 223/239/237
f 212/250/248 211/251/249 221/241/239 222/240/238
f 211/251/249 210/252/250 220/242/240 221/241/239
f 210/252/250 209/253/251 219/243/241 220/242/240
f 209/253/251 208/254/252 218/244/242 219/243/241
f 208/254/252 207/255/253 217/245/243 218/244/242
f 207/255/253 206/256/254 216/246/244 217/245/243
f 206/256/254 205/30/30 215/32/32 216/246/244
f 27/257/255 204/258/256 214/248/246 29/247/245
f 204/258/256 203/259/257 213/249/247 214/248/246
f 203/259/257 202/260/258 212/250/248 213/249/247
f 202/260/258 201/261/259 211/251/249 212/250/248
f 201/261/259 200/262/260 210/252/250 211/251/249
f 200/262/260 199/263/261 209/253/251 210/252/250
f 199/263/261 198/264/262 208/254/252 209/253/251
f 198/264/262 197/265/263 207/255/253 208/254/252
f 197/265/263 196/266/264 206/256/254 207/255/253
f 196/266/264 195/28/28 205/30/30 206/256/254
f 25/267/265 194/268/266 204/258/256 27/257/255
f 194/268/266 193/269/267 203/259/257 204/258/256
f 193/269/267 192/270/268 202/260/258 203/259/257
f 192/270/268 191/271/269 201/261/259 202/260/258
f 191/271/269 190/272/270 200/262/260 201/261/259
f 190/272/270 189/273/271 199/263/261 200/262/260
f 189/273/271 188/274/272 198/264/262 199/263/261
f 188/274/272 187/275/273 197/265/263 198/264/262
f 187/275/273 186/276/274 196/266/264 197/265/263
f 186/276/274 185/26/26 195/28/28 196/266/264
f 23/277/275 184/278/276 194/268/266 25/267/265
f 184/278/276 183/279/277 193/269/267 194/268/266
f 183/279/277 182/280/278 192/270/268 193/269/267
f 182/280/278 181/281/279 191/271/269 192/270/268
f 181/281/279 180/282/280 190/272/270 191/271/269
f 180/282/280 179/283/281 189/273/271 190/272/270
f 179/283/281 178/284/282 188/274/272 189/273/271
f 178/284/282 177/285/283 187/275/273 188/274/272
f 177/285/283 176/286/284 186/276/274 187/275/273
f 176/286/284 175/24/24 185/26/26 186/276/274
f 21/287/285 174/288/286 184/278/276 23/277/275
f 174/288/286 173/289/287 183/279/277 184/278/276
f 173/289/287 172/290/288 182/280/278 183/279/277
f 172/290/288 171/291/289 181/281/279 182/280/278
f 171/291/289 170/292/290 180/282/280 181/281/279
f 170/292/290 169/293/291 179/283/281 180/282/280
f 169/293/291 168/294/292 178/284/282 179/283/281
f 168/294/292 167/295/293 177/285/283 178/284/282
f 167/295/293 166/296/294 176/286/284 177/285/283
f 166/296/294 165/22/22 175/24/24 176/286/284
f 19/297/295 164/298/296 174/288/286 21/287/285
f 164/298/296 163/299/297 173/289/287 174/288/286
f 163/299/297 162/300/298 172/290/288 173/289/287
f 162/300/298 161/301/299 171/291/289 172/290/288
f 161/301/299 160/302/300 170/292/290 171/291/289
f 160/302/300 159/303/301 169/293/291 170/292/290
f 159/303/301 158/304/302 168/294/292 169/293/291
f 158/304/302 157/305/303 167/295/293 168/294/292
f 157/305/303 156/306/304 166/296/294 167/295/293
f 156/306/304 155/20/20 165/22/22 166/296/294
f 17/307/305 154/308/306 164/298/296 19/297/295
f 154/308/306 153/309/307 163/299/297 164/298/296
f 153/309/307 152/310/308 162/300/298 163/299/297
f 152/310/308 151/311/309 161/301/299 162/300/298
f 151/311/309 150/312/310 160/302/300 161/301/299
f 150/312/310 149/313/311 159/303/301 160/302/300
f 149/313/311 148/314/312 158/304/302 159/303/301
f 148/314/312 147/315/313 157/305/303 158/304/302
f 147/315/313 146/316/314 156/306/304 157/305/303
f 146/316/314 145/18/18 155/20/20 156/306/304
f 15/317/315 144/318/316 154/308/306 17/307/305
f 144/318/316 143/319/317 153/309/307 154/308/306
f 143/319/317 142/320/318 152/310/308 153/309/307
f 142/320/318 141/321/319 151/311/309 152/310/308
f 141/321/319 140/322/320 150/312/310 151/311/309
f 140/322/320 139/323/321 149/313/311 150/312/310
f 139/323/321 138/324/322 148/314/312 149/313/311
f 138/324/322 137/325/323 147/315/313 148/314/312
f 137/325/323 136/326/324 146/316/314 147/315/313
f 136/326/324 135/16/16 145/18/18 146/316/314
f 13/327/325 134/328/326 144/318/316 15/317/315
f 134/328/326 133/329/327 143/319/317 144/318/316
f 133/329/327 132/330/328 142/320/318 143/319/317
f 132/330/328 131/331/329 141/321/319 142/320/318
f 131/331/329 130/332/330 140/322/320 141/321/319
f 130/332/330 129/333/331 139/323/321 140/322/320
f 129/333/331 128/334/332 138/324/322 139/323/321
f 128/334/332 127/335/333 137/325/323 138/324/322
f 127/335/333 126/336/334 136/326/324 137/325/323
f 126/336/334 125/14/14 135/16/16 136/326/324
f 11/337/335 124/338/336 134/328/326 13/327/325
f 124/338/336 123/339/337 133/329/327 134/328/326
f 123/339/337 122/340/338 132/330/328 133/329/327
f 122/340/338 121/341/339 131/331/329 132/330/328
f 121/341/339 120/342/340 130/332/330 131/331/329
f 120/342/340 119/343/341 129/333/331 130/332/330
f 119/343/341 118/344/342 128/334/332 129/333/331
f 118/344/342 117/345/343 127/335/333 128/334/332
f 117/345/343 116/346/344 126/336/334 127/335/333
f 116/346/344 115/12/12 125/14/14 126/336/334
f 9/347/345 114/348/346 124/338/336 11/337/335
f 114/348/346 113/349/347 123/339/337 124/338/336
f 113/349/347 112/350/348 122/340/338 123/339/337
f 112/350/348 111/351/349 121/341/339 122/340/338
f 111/351/349 110/352/350 120/342/340 121/341/339
f 110/352/350 109/353/351 119/343/341 120/342/340
f 109/353/351 108/354/352 118/344/342 119/343/341
f 108/354/352 107/355/353 117/345/343 118/344/342
f 107/355/353 106/356/354 116/346/344 117/345/343
f 106/356/354 105/10/10 115/12/12 116/346/344
f 7/357/355 104/358/356 114/348/346 9/347/345
f 104/358/356 103/359/357 113/349/347 114/348/346
f 103/359/357 102/360/358 112/350/348 113/349/347
f 102/360/358 101/361/359 111/351/349 112/350/348
f 101/361/359 100/362/360 110/352/350 111/351/349
f 100/362/360 99/363/361 109/353/351 110/352/350
f 99/363/361 98/364/362 108/354/352 109/353/351
f 98/364/362 97/365/363 107/355/353 108/354/352
f 97/365/363 96/366/364 106/356/354 107/355/353
f 96/366/364 95/8/8 105/10/10 106/356/354
f 5/367/365 94/368/366 104/358/356 7/357/355
f 94/368/366 93/369/367 103/359/357 104/358/356
f 93/369/367 92/370/368 102/360/358 103/359/357
f 92/370/368 91/371/369 101/361/359 102/360/358
f 91/371/369 90/372/370 100/362/360 101/361/359
f 90/372/370 89/373/371 99/363/361 100/362/360
f 89/373/371 88/374/372 98/364/362 99/363/361
f 88/374/372 87/375/373 97/365/363 98/364/362
f 87/375/373 86/376/374 96/366/364 97/365/363
f 86/376/374 85/6/6 95/8/8 96/366/364
f 3/377/375 84/378/376 94/368/366 5/367/365
f 84/378/376 83/379/377 93/369/367 94/368/366
f 83/379/377 82/380/378 92/370/368 93/369/367
f 82/380/378 81/381/379 91/371/369 92/370/368
f 81/381/379 80/382/380 90/372/370 91/371/369
f 80/382/380 79/383/381 89/373/371 90/372/370
f 79/383/381 78/384/382 88/374/372 89/373/371
f 78/384/382 77/385/383 87/375/373 88/374/372
f 77/385/383 76/386/384 86/376/374 87/375/373
f 76/386/384 75/4/4 85/6/6 86/376/374
f 1/387/68 65/388/67 84/378/376 3/377/375
f 65/388/67 66/389/70 83/379/377 84/378/376
f 66/389/70 67/390/72 82/380/378 83/379/377
f 67/390/72 68/391/74 81/381/379 82/380/378
f 68/391/74 69/392/76 80/382/380 81/381/379
f 69/392/76 70/393/78 79/383/381 80/382/380
f 70/393/78 71/394/80 78/384/382 79/383/381
f 71/394/80 72/395/82 77/385/383 78/384/382
f 72/395/82 73/396/84 76/386/384 77/385/383
f 73/396/84 74/1/1 75/4/4 76/386/384
