# Blender 4.3.2
# www.blender.org
o knife
v 0.131521 0.149835 0.005545
v 0.131521 0.149835 -0.005545
v 0.131521 0.156946 0.005545
v 0.131521 0.156946 -0.005545
v 0.085429 0.143372 -0.035777
v 0.085429 0.143372 0.035777
v 0.085429 0.189252 -0.035777
v 0.000000 0.143372 -0.035777
v 0.000000 0.143372 0.035777
v 0.000000 0.189252 -0.035777
v 0.000000 0.189252 0.035777
v 0.026232 0.143986 0.026055
v 0.026232 0.143986 -0.025218
v 0.000596 0.143986 -0.035715
v 0.036729 0.143986 0.000419
v 0.000000 -0.209511 0.031767
v 0.018624 -0.209511 0.022660
v 0.027731 -0.209511 0.000419
v 0.018624 -0.209511 -0.021823
v 0.030294 -0.262191 -0.020450
v 0.030294 -0.262191 0.022141
v 0.000000 -0.262191 -0.028779
v 0.038504 -0.262191 0.000846
v 0.000000 -0.203592 -0.028779
v 0.030294 -0.203592 -0.020450
v 0.038504 -0.203592 0.000846
v 0.030294 -0.203592 0.022141
v 0.037922 0.797952 -0.010921
v 0.037922 0.797952 0.010921
v 0.000000 0.917488 0.012017
v 0.047780 0.159974 0.017901
v 0.047780 0.159974 -0.017901
v 0.000000 0.160306 -0.019697
v 0.051873 0.802270 0.000000
v 0.061420 0.159878 0.000000
v 0.085429 0.189252 0.035777
v 0.000000 0.917488 -0.012017
v 0.000000 0.952125 0.000000
v 0.000000 0.160306 0.019697
v 0.000000 -0.262191 0.030471
v 0.000000 -0.262191 0.000846
v 0.000000 -0.203592 0.000846
v 0.000000 -0.203592 0.030471
v 0.000000 0.143986 0.036552
v 0.000000 -0.209511 -0.030930
v 0.131521 0.149835 -0.000000
v 0.085429 0.143372 -0.000000
v 0.085429 0.189252 0.000000
v 0.131521 0.156946 -0.000000
v 0.000000 0.189252 0.000000
v 0.000000 0.143372 -0.000000
v -0.131521 0.149835 0.005545
v -0.131521 0.149835 -0.005545
v -0.131521 0.156946 0.005545
v -0.131521 0.156946 -0.005545
v -0.085429 0.143372 -0.035777
v -0.085429 0.143372 0.035777
v -0.085429 0.189252 -0.035777
v -0.026232 0.143986 0.026055
v -0.026232 0.143986 -0.025218
v -0.000596 0.143986 -0.035715
v -0.036729 0.143986 0.000419
v -0.018624 -0.209511 0.022660
v -0.027731 -0.209511 0.000419
v -0.018624 -0.209511 -0.021823
v -0.030294 -0.262191 -0.020450
v -0.030294 -0.262191 0.022141
v -0.038504 -0.262191 0.000846
v -0.030294 -0.203592 -0.020450
v -0.038504 -0.203592 0.000846
v -0.030294 -0.203592 0.022141
v -0.037922 0.797952 -0.010921
v -0.037922 0.797952 0.010921
v -0.047780 0.159974 0.017901
v -0.047780 0.159974 -0.017901
v -0.051873 0.802270 0.000000
v -0.061420 0.159878 0.000000
v -0.085429 0.189252 0.035777
v -0.131521 0.149835 -0.000000
v -0.085429 0.143372 -0.000000
v -0.085429 0.189252 0.000000
v -0.131521 0.156946 -0.000000
vn 0.1389 -0.9903 -0.0000
vn 0.5485 -0.0000 -0.8362
vn -0.0000 -1.0000 -0.0000
vn -0.0000 -0.0000 -1.0000
vn -0.0000 1.0000 -0.0000
vn 1.0000 -0.0000 -0.0000
vn -0.0000 -0.0000 1.0000
vn 0.9250 -0.0225 0.3792
vn 0.9252 -0.0235 0.3788
vn 0.9243 -0.0234 0.3810
vn 0.9253 -0.0228 -0.3785
vn 0.9252 -0.0236 -0.3788
vn 0.9253 -0.0217 -0.3787
vn 0.2651 -0.0000 0.9642
vn 0.2651 -0.0000 -0.9642
vn 0.9331 -0.0000 -0.3597
vn 0.9331 -0.0000 0.3597
vn 0.7212 0.0147 0.6926
vn -0.0000 0.0109 -0.9999
vn 0.0489 0.0108 -0.9987
vn 0.0489 0.0108 0.9987
vn -0.0000 0.0109 0.9999
vn 0.6365 0.2092 0.7423
vn -0.0000 0.2712 0.9625
vn -0.0000 0.2712 -0.9625
vn 0.6365 0.2092 -0.7423
vn 0.4024 -0.0139 0.9154
vn 0.4004 -0.0149 0.9162
vn 0.4041 -0.0130 -0.9146
vn 0.4049 -0.0153 -0.9142
vn 0.5485 -0.0000 0.8362
vn 0.5740 0.8189 -0.0000
vn 0.7212 0.0147 -0.6926
vn 0.5739 0.8189 -0.0000
vn -0.1389 -0.9903 -0.0000
vn -0.5485 -0.0000 -0.8362
vn -1.0000 -0.0000 -0.0000
vn -0.9250 -0.0224 0.3792
vn -0.9252 -0.0235 0.3788
vn -0.9243 -0.0234 0.3810
vn -0.9254 -0.0226 -0.3784
vn -0.9252 -0.0236 -0.3788
vn -0.9253 -0.0216 -0.3787
vn -0.2651 -0.0000 0.9642
vn -0.2651 -0.0000 -0.9642
vn -0.9331 -0.0000 -0.3597
vn -0.9331 -0.0000 0.3597
vn -0.7212 0.0147 0.6926
vn -0.0489 0.0108 -0.9987
vn -0.0489 0.0108 0.9987
vn -0.6365 0.2092 0.7423
vn -0.6365 0.2092 -0.7423
vn -0.4024 -0.0139 0.9154
vn -0.4004 -0.0149 0.9162
vn -0.4042 -0.0131 -0.9146
vn -0.4049 -0.0153 -0.9142
vn -0.5485 -0.0000 0.8362
vn -0.5740 0.8189 -0.0000
vn -0.7212 0.0147 -0.6926
vt 0.740564 0.739981
vt 0.690214 0.790420
vt 0.687361 0.781925
vt 0.691271 0.720241
vt 0.494916 0.709292
vt 0.481970 0.774295
vt 0.473877 0.776212
vt 0.450183 0.723350
vt 0.740564 0.614097
vt 0.690834 0.619080
vt 0.483567 0.610892
vt 0.419582 0.623617
vt 0.577250 0.630462
vt 0.626533 0.625524
vt 0.644855 0.724171
vt 0.603942 0.753183
vt 0.474127 0.784480
vt 0.485407 0.781119
vt 0.555657 0.000000
vt 0.577250 0.450557
vt 0.541938 0.451909
vt 0.525021 0.001172
vt 0.615602 0.000227
vt 0.612587 0.451271
vt 0.577250 0.451009
vt 0.584945 0.000000
vt 0.684361 0.324682
vt 0.671339 0.277323
vt 0.700309 0.280219
vt 0.720799 0.314663
vt 0.647923 0.334701
vt 0.647923 0.294623
vt 0.684361 0.229963
vt 0.647923 0.219945
vt 0.668413 0.185500
vt 0.697383 0.182604
vt 0.720799 0.239982
vt 0.720799 0.199904
vt 0.741381 0.103021
vt 0.715174 0.182604
vt 0.647923 0.124127
vt 0.738141 0.097340
vt 0.750271 0.094401
vt 0.828285 0.073545
vt 0.820921 0.151756
vt 0.749413 0.100304
vt 0.770135 0.178059
vt 0.745997 0.103482
vt 0.152866 0.000000
vt 0.181948 0.000332
vt 0.162399 0.824111
vt 0.140091 0.817297
vt 0.272922 0.951841
vt 0.223805 0.817298
vt 0.211030 -0.000000
vt 0.272922 0.000351
vt 0.090974 0.951841
vt 0.090974 0.000351
vt 0.090974 1.000000
vt 0.272922 1.000000
vt 0.201497 0.824111
vt 0.505905 0.452669
vt 0.498583 0.001759
vt 0.642046 0.000000
vt 0.647923 0.450932
vt 0.678519 0.782983
vt 0.677480 0.791202
vt 0.181948 0.000332
vt 0.537921 0.726210
vt 0.538818 0.599914
vt 0.413989 0.757181
vt 0.363896 0.634686
vt 0.715586 0.490716
vt 0.671190 0.519845
vt 0.655118 0.460163
vt 0.656228 0.451271
vt 0.456093 0.515571
vt 0.409128 0.520058
vt 0.409733 0.462285
vt 0.417818 0.461346
vt 0.579060 0.504886
vt 0.624916 0.525202
vt 0.406422 0.455560
vt 0.417818 0.453079
vt 0.441482 0.001854
vt 0.472139 0.002031
vt 0.469866 0.453079
vt 0.434529 0.452875
vt 0.410833 0.001086
vt 0.399202 0.451990
vt 0.720799 0.354741
vt 0.697383 0.372041
vt 0.668413 0.369145
vt 0.671339 0.277323
vt 0.647923 0.260023
vt 0.700309 0.274426
vt 0.739401 0.091531
vt 0.657484 0.028133
vt 0.747433 0.089450
vt 0.786431 -0.000000
vt 0.742939 0.088711
vt 0.720413 -0.000000
vt 0.029082 0.000000
vt 0.041857 0.817298
vt 0.019549 0.824111
vt 0.000000 0.000332
vt 0.334814 -0.000000
vt 0.322039 0.817297
vt 0.344347 0.824111
vt 0.384410 0.000000
vt 0.363896 0.450504
vt 0.646242 0.460881
vt 0.643593 0.453030
vt 0.363896 0.000332
vt 0.489808 0.482635
vt 0.363896 0.503322
s 1
f 47/1/1 46/2/1 1/3/1 6/4/1
f 7/5/2 4/6/2 2/7/2 5/8/2
f 51/9/3 47/1/3 6/4/3 9/10/3
f 10/11/4 7/5/4 5/8/4 8/12/4
f 50/13/5 11/14/5 36/15/5 48/16/5
f 46/17/6 2/7/6 4/6/6 49/18/6
f 36/15/7 11/14/7 9/10/7 6/4/7
f 18/19/8 15/20/9 12/21/10 17/22/9
f 19/23/11 13/24/12 15/25/13 18/26/12
f 41/27/3 23/28/3 21/29/3 40/30/3
f 22/31/3 20/32/3 23/28/3 41/27/3
f 42/33/5 43/34/5 27/35/5 26/36/5
f 24/37/5 42/33/5 26/36/5 25/38/5
f 21/39/14 27/40/14 43/41/14 40/42/14
f 22/43/15 24/44/15 25/45/15 20/46/15
f 20/46/16 25/45/16 26/47/16 23/48/16
f 23/48/17 26/47/17 27/40/17 21/39/17
f 31/49/18 35/50/18 34/51/18 29/52/18
f 37/53/19 28/54/20 32/55/20 33/56/19
f 31/49/21 29/52/21 30/57/22 39/58/22
f 29/52/23 34/51/23 38/59/24 30/57/24
f 37/53/25 38/60/25 34/61/26 28/54/26
f 17/22/27 12/21/28 44/62/28 16/63/28
f 45/64/29 14/65/30 13/24/30 19/23/30
f 1/3/31 3/66/31 36/15/31 6/4/31
f 49/67/32 48/16/32 36/15/32 3/66/32
f 34/61/33 35/68/33 32/55/33 28/54/33
f 4/6/34 7/5/34 48/69/32 49/18/32
f 1/3/6 46/2/6 49/67/6 3/66/6
f 10/11/5 50/70/5 48/69/5 7/5/5
f 8/12/3 5/8/3 47/71/3 51/72/3
f 5/8/1 2/7/1 46/17/1 47/71/1
f 80/73/35 57/74/35 52/75/35 79/76/35
f 58/77/36 56/78/36 53/79/36 55/80/36
f 51/9/3 9/10/3 57/74/3 80/73/3
f 10/11/4 8/12/4 56/78/4 58/77/4
f 50/13/5 81/81/5 78/82/5 11/14/5
f 79/83/37 82/84/37 55/80/37 53/79/37
f 78/82/7 57/74/7 9/10/7 11/14/7
f 64/85/38 63/86/39 59/87/40 62/88/39
f 65/89/41 64/85/42 62/88/43 60/90/42
f 41/27/3 40/30/3 67/91/3 68/92/3
f 22/31/3 41/27/3 68/92/3 66/93/3
f 42/33/5 70/94/5 71/95/5 43/34/5
f 24/37/5 69/96/5 70/94/5 42/33/5
f 67/97/44 40/42/44 43/41/44 71/98/44
f 22/43/45 66/99/45 69/100/45 24/44/45
f 66/99/46 68/101/46 70/102/46 69/100/46
f 68/101/47 67/97/47 71/98/47 70/102/47
f 74/103/48 73/104/48 76/105/48 77/106/48
f 37/53/19 33/56/19 75/107/49 72/108/49
f 74/103/50 39/58/22 30/57/22 73/104/50
f 73/104/51 30/57/24 38/59/24 76/105/51
f 37/53/25 72/108/52 76/109/52 38/60/25
f 63/86/53 16/63/54 44/62/54 59/87/54
f 45/110/55 65/89/56 60/90/56 61/111/56
f 52/75/57 57/74/57 78/82/57 54/112/57
f 82/113/58 54/112/58 78/82/58 81/81/58
f 76/109/59 72/108/59 75/107/59 77/114/59
f 55/80/58 82/84/58 81/115/58 58/77/58
f 52/75/37 54/112/37 82/113/37 79/76/37
f 10/11/5 58/77/5 81/115/5 50/70/5
f 8/12/3 51/72/3 80/116/3 56/78/3
f 56/78/35 80/116/35 79/83/35 53/79/35
