# Blender 4.3.2
# www.blender.org
o shield
v 0.431091 -0.022794 0.056044
v 0.454815 0.599286 0.073878
v 0.368663 -0.160058 0.073913
v 0.375770 0.599286 0.099256
v 0.204136 0.599286 0.143639
v 0.199577 -0.360059 0.101913
v 0.287033 -0.266070 0.089821
v 0.289045 0.599286 0.123046
v 0.375770 0.510555 0.099435
v 0.204136 0.510555 0.143644
v 0.289045 0.510555 0.123151
v 0.454815 0.510555 0.073943
v 0.368663 0.116759 0.079084
v 0.199577 -0.269908 0.106751
v 0.287033 -0.143103 0.093768
v 0.449299 0.116759 0.058782
v 0.095333 0.599286 0.160434
v 0.099762 -0.443685 0.109037
v 0.095333 0.510555 0.160434
v 0.099762 -0.360875 0.114142
v 0.355565 -0.000539 0.077052
v 0.422796 -0.022567 -0.016700
v 0.446724 0.599373 0.001332
v 0.360368 -0.160765 0.001474
v 0.367679 0.599373 0.027023
v 0.196045 0.599373 0.071192
v 0.191282 -0.362621 0.029284
v 0.278738 -0.268029 0.017394
v 0.280954 0.599373 0.050767
v 0.367679 0.510642 0.027023
v 0.196045 0.510642 0.071192
v 0.280954 0.510642 0.050767
v 0.446724 0.510642 0.001332
v 0.360368 0.116846 0.006246
v 0.191282 -0.272192 0.034171
v 0.278738 -0.144543 0.021297
v 0.441004 0.116846 -0.014199
v 0.087243 0.599373 0.087590
v 0.091467 -0.445393 0.036176
v 0.087243 0.510642 0.087590
v 0.091467 -0.362598 0.041235
v 0.347270 -0.000385 0.004339
v 0.287034 0.510579 0.101284
v 0.202125 0.510579 0.121798
v 0.373759 0.510579 0.077666
v 0.093323 0.510579 0.138496
v 0.366602 0.116783 0.057176
v 0.197515 -0.270466 0.084877
v 0.284972 -0.143395 0.071922
v 0.097701 -0.361311 0.092188
v 0.353504 -0.000484 0.055151
v 0.282110 0.510629 0.063255
v 0.197201 0.510629 0.083651
v 0.368834 0.510629 0.039541
v 0.088398 0.510629 0.100072
v 0.361553 0.116833 0.018777
v 0.192466 -0.271963 0.046610
v 0.279923 -0.144454 0.033701
v 0.092652 -0.362360 0.053726
v 0.348455 -0.000400 0.016783
v -0.431091 -0.022794 0.056044
v -0.454815 0.599286 0.073878
v 0.000000 -0.480070 0.114421
v -0.000000 0.599286 0.167815
v -0.368663 -0.160058 0.073913
v -0.375770 0.599286 0.099256
v -0.204136 0.599286 0.143639
v -0.199577 -0.360059 0.101913
v -0.287033 -0.266070 0.089821
v -0.289045 0.599286 0.123046
v -0.375770 0.510555 0.099435
v -0.204136 0.510555 0.143644
v -0.289045 0.510555 0.123151
v -0.454815 0.510555 0.073943
v -0.000000 0.510555 0.167816
v -0.368663 0.116759 0.079084
v -0.199577 -0.269908 0.106751
v -0.287033 -0.143103 0.093768
v -0.449299 0.116759 0.058782
v 0.000000 -0.392143 0.116762
v -0.095333 0.599286 0.160434
v -0.099762 -0.443685 0.109037
v -0.095333 0.510555 0.160434
v -0.099762 -0.360875 0.114142
v -0.355565 -0.000539 0.077052
v -0.422796 -0.022567 -0.016700
v -0.446724 0.599373 0.001332
v 0.000000 -0.479983 0.041150
v -0.000000 0.599373 0.094485
v -0.360368 -0.160765 0.001474
v -0.367679 0.599373 0.027023
v -0.196045 0.599373 0.071192
v -0.191282 -0.362621 0.029284
v -0.278738 -0.268029 0.017394
v -0.280954 0.599373 0.050767
v -0.367679 0.510642 0.027023
v -0.196045 0.510642 0.071192
v -0.280954 0.510642 0.050767
v -0.446724 0.510642 0.001332
v -0.000000 0.510642 0.094485
v -0.360368 0.116846 0.006246
v -0.191282 -0.272192 0.034171
v -0.278738 -0.144543 0.021297
v -0.441004 0.116846 -0.014199
v 0.000000 -0.392056 0.043679
v -0.087243 0.599373 0.087590
v -0.091467 -0.445393 0.036176
v -0.087243 0.510642 0.087590
v -0.091467 -0.362598 0.041235
v -0.347270 -0.000385 0.004339
v 0.000000 -0.392120 0.094760
v -0.000000 0.510579 0.145753
v -0.287034 0.510579 0.101284
v -0.202125 0.510579 0.121798
v -0.373759 0.510579 0.077666
v -0.093323 0.510579 0.138496
v -0.366602 0.116783 0.057176
v -0.197515 -0.270466 0.084877
v -0.284972 -0.143395 0.071922
v -0.097701 -0.361311 0.092188
v -0.353504 -0.000484 0.055151
v 0.000000 -0.392070 0.056192
v -0.000000 0.510629 0.107034
v -0.282110 0.510629 0.063255
v -0.197201 0.510629 0.083651
v -0.368834 0.510629 0.039541
v -0.088398 0.510629 0.100072
v -0.361553 0.116833 0.018777
v -0.192466 -0.271963 0.046610
v -0.279923 -0.144454 0.033701
v -0.092652 -0.362360 0.053726
v -0.348455 -0.000400 0.016783
vn -0.9558 0.2803 0.0889
vn -0.9571 0.2759 0.0890
vn -0.8600 0.5049 0.0744
vn -0.8582 0.5079 0.0741
vn 0.2627 -0.0480 0.9637
vn 0.2910 -0.0232 0.9565
vn 0.2821 -0.0150 0.9593
vn 0.2618 -0.0480 0.9639
vn -0.0002 -1.0000 -0.0011
vn -0.0003 -1.0000 -0.0011
vn 0.1940 0.0003 0.9810
vn 0.2497 0.0011 0.9683
vn 0.2853 0.0014 0.9584
vn 0.1149 -0.0000 0.9934
vn 0.3063 0.0013 0.9519
vn 0.2506 -0.0234 0.9678
vn 0.2506 -0.0233 0.9678
vn -0.0000 -0.0000 1.0000
vn -0.7489 0.6603 0.0565
vn -0.7500 0.6591 0.0566
vn -0.4910 0.8708 0.0257
vn -0.5029 0.8639 0.0270
vn 0.2269 -0.0182 0.9737
vn 0.2362 -0.0109 0.9716
vn 0.1049 -0.0532 0.9931
vn -0.0000 -0.0436 0.9991
vn 0.0759 -0.0491 0.9959
vn 0.1701 -0.0471 0.9843
vn 0.1962 -0.0369 0.9799
vn 0.1474 -0.0548 0.9876
vn -0.9936 0.0625 0.0937
vn -0.9938 0.0601 0.0936
vn -0.9956 0.0135 0.0930
vn -0.2643 0.0480 -0.9632
vn -0.2633 0.0480 -0.9635
vn -0.2836 0.0163 -0.9588
vn -0.2933 0.0244 -0.9557
vn -0.8612 0.5022 0.0779
vn -0.8592 0.5057 0.0776
vn -0.9562 0.2785 0.0903
vn -0.9574 0.2743 0.0905
vn -0.1916 -0.0000 -0.9815
vn -0.2490 -0.0000 -0.9685
vn -0.2867 -0.0000 -0.9580
vn -0.1140 -0.0000 -0.9935
vn -0.3091 -0.0000 -0.9510
vn -0.2514 0.0220 -0.9676
vn -0.2514 0.0219 -0.9676
vn -0.0000 -0.0000 -1.0000
vn -0.7486 0.6603 0.0606
vn -0.7493 0.6594 0.0607
vn -0.2265 0.0173 -0.9738
vn -0.2362 0.0096 -0.9716
vn -0.1035 0.0534 -0.9932
vn -0.0757 0.0495 -0.9959
vn -0.0000 0.0444 -0.9990
vn -0.1950 0.0366 -0.9801
vn -0.1681 0.0472 -0.9846
vn -0.1448 0.0550 -0.9879
vn 0.9938 -0.0049 -0.1113
vn 0.9938 -0.0050 -0.1113
vn 0.9938 -0.0000 -0.1108
vn 0.0003 1.0000 0.0012
vn 0.0004 1.0000 0.0012
vn 0.0001 1.0000 0.0012
vn -0.0000 1.0000 0.0012
vn 0.7574 -0.6491 -0.0703
vn 0.7579 -0.6486 -0.0705
vn 0.8507 -0.5177 -0.0911
vn 0.8469 -0.5240 -0.0903
vn 0.9914 -0.0670 -0.1123
vn 0.9912 -0.0696 -0.1124
vn 0.0002 1.0000 0.0012
vn -0.0000 -1.0000 -0.0099
vn 0.4944 -0.8687 -0.0294
vn 0.5048 -0.8627 -0.0309
vn 0.6830 -0.7283 -0.0560
vn 0.6849 -0.7265 -0.0563
vn 0.9541 -0.2794 -0.1082
vn 0.9553 -0.2752 -0.1084
vn 0.0836 -0.0531 0.9951
vn 0.0976 -0.0522 0.9939
vn -0.0000 -0.0546 0.9985
vn 0.2344 -0.0464 0.9710
vn 0.2592 -0.0473 0.9647
vn 0.1794 -0.0480 0.9826
vn 0.1540 -0.0491 0.9869
vn 0.2954 -0.0485 0.9542
vn -0.9956 0.0132 0.0928
vn -0.9937 0.0623 0.0932
vn -0.9938 0.0599 0.0932
vn -0.0001 -1.0000 -0.0011
vn -0.0000 1.0000 0.0053
vn -0.0000 -1.0000 -0.0011
vn -0.0834 0.0530 -0.9951
vn -0.0000 0.0545 -0.9985
vn -0.0969 0.0522 -0.9939
vn -0.2341 0.0466 -0.9711
vn -0.1520 0.0492 -0.9872
vn -0.1779 0.0481 -0.9829
vn -0.2601 0.0476 -0.9644
vn -0.2978 0.0489 -0.9534
vn -0.0000 1.0000 0.0062
vn -0.5044 0.8630 0.0292
vn -0.4925 0.8699 0.0277
vn 0.9558 0.2803 0.0889
vn 0.8582 0.5079 0.0741
vn 0.8600 0.5049 0.0744
vn 0.9571 0.2759 0.0890
vn -0.2627 -0.0480 0.9637
vn -0.2618 -0.0480 0.9639
vn -0.2821 -0.0150 0.9593
vn -0.2910 -0.0232 0.9565
vn 0.0002 -1.0000 -0.0011
vn 0.0003 -1.0000 -0.0011
vn -0.1940 0.0003 0.9810
vn -0.2497 0.0011 0.9683
vn -0.2853 0.0014 0.9584
vn -0.1149 -0.0000 0.9934
vn -0.3063 0.0013 0.9519
vn -0.2506 -0.0234 0.9678
vn -0.2506 -0.0233 0.9678
vn 0.7500 0.6591 0.0566
vn 0.7489 0.6603 0.0565
vn 0.5029 0.8639 0.0270
vn 0.4910 0.8708 0.0257
vn -0.2269 -0.0182 0.9737
vn -0.2362 -0.0109 0.9716
vn -0.1049 -0.0532 0.9931
vn -0.0759 -0.0491 0.9959
vn -0.1962 -0.0369 0.9799
vn -0.1701 -0.0471 0.9843
vn -0.1474 -0.0548 0.9876
vn 0.9936 0.0625 0.0937
vn 0.9956 0.0135 0.0930
vn 0.9938 0.0601 0.0936
vn 0.2643 0.0480 -0.9632
vn 0.2933 0.0244 -0.9557
vn 0.2836 0.0163 -0.9588
vn 0.2633 0.0480 -0.9635
vn 0.8612 0.5022 0.0779
vn 0.9574 0.2743 0.0905
vn 0.9562 0.2785 0.0903
vn 0.8592 0.5057 0.0776
vn 0.1916 -0.0000 -0.9815
vn 0.2490 -0.0000 -0.9685
vn 0.2867 -0.0000 -0.9580
vn 0.1140 -0.0000 -0.9935
vn 0.3091 -0.0000 -0.9510
vn 0.2514 0.0220 -0.9676
vn 0.2514 0.0219 -0.9676
vn 0.7486 0.6603 0.0606
vn 0.7493 0.6594 0.0607
vn 0.2265 0.0173 -0.9738
vn 0.2362 0.0096 -0.9716
vn 0.1035 0.0534 -0.9932
vn 0.0757 0.0495 -0.9959
vn 0.1681 0.0472 -0.9846
vn 0.1950 0.0366 -0.9801
vn 0.1448 0.0550 -0.9879
vn -0.9938 -0.0049 -0.1113
vn -0.9938 -0.0000 -0.1108
vn -0.9938 -0.0050 -0.1113
vn -0.0003 1.0000 0.0012
vn -0.0004 1.0000 0.0012
vn -0.0001 1.0000 0.0012
vn -0.7574 -0.6491 -0.0703
vn -0.8469 -0.5240 -0.0903
vn -0.8507 -0.5177 -0.0911
vn -0.7579 -0.6486 -0.0705
vn -0.9914 -0.0670 -0.1123
vn -0.9912 -0.0696 -0.1124
vn -0.0002 1.0000 0.0012
vn -0.5048 -0.8627 -0.0309
vn -0.4944 -0.8687 -0.0294
vn -0.6849 -0.7265 -0.0563
vn -0.6830 -0.7283 -0.0560
vn -0.9541 -0.2794 -0.1082
vn -0.9553 -0.2752 -0.1084
vn -0.0836 -0.0531 0.9951
vn -0.0976 -0.0522 0.9939
vn -0.2344 -0.0464 0.9710
vn -0.1540 -0.0491 0.9869
vn -0.1794 -0.0480 0.9826
vn -0.2592 -0.0473 0.9647
vn -0.2954 -0.0485 0.9542
vn 0.9956 0.0132 0.0928
vn 0.9938 0.0599 0.0932
vn 0.9937 0.0623 0.0932
vn 0.0001 -1.0000 -0.0011
vn 0.0834 0.0530 -0.9951
vn 0.0969 0.0522 -0.9939
vn 0.2341 0.0466 -0.9711
vn 0.2601 0.0476 -0.9644
vn 0.1779 0.0481 -0.9829
vn 0.1520 0.0492 -0.9872
vn 0.2978 0.0489 -0.9534
vn 0.4925 0.8699 0.0277
vn 0.5044 0.8630 0.0292
vt 0.493464 0.453616
vt 0.489624 0.443287
vt 0.546826 0.409533
vt 0.553403 0.417466
vt 0.436084 0.500641
vt 0.119003 0.510388
vt 0.117360 0.470803
vt 0.433434 0.464334
vt 0.094890 0.381817
vt 0.105751 0.380524
vt 0.111351 0.421886
vt 0.101479 0.423990
vt 0.059619 0.433900
vt 0.050336 0.388412
vt 0.073627 0.477625
vt 0.090613 0.325655
vt 0.043675 0.328458
vt 0.082731 0.509824
vt 0.504537 0.490168
vt 0.089229 0.275893
vt 0.042428 0.275893
vt 0.588713 0.367938
vt 0.596737 0.373822
vt 0.612928 0.320711
vt 0.622776 0.324316
vt 0.567934 0.455419
vt 0.630534 0.275893
vt 0.671070 0.275892
vt 0.662233 0.321740
vt 0.608768 0.415827
vt 0.639464 0.371322
vt 0.582933 0.908803
vt 0.583922 0.903469
vt 0.906039 0.938879
vt 0.909732 0.945439
vt 0.579294 0.942628
vt 0.902220 0.987094
vt 0.477882 0.858864
vt 0.481716 0.854439
vt 0.533937 0.891707
vt 0.531800 0.896661
vt 0.935426 0.856959
vt 0.981783 0.865840
vt 0.970059 0.913466
vt 0.927198 0.902676
vt 0.956604 0.955874
vt 0.943345 0.799133
vt 0.990763 0.804688
vt 0.946984 0.997452
vt 0.519526 0.929569
vt 0.947118 0.752340
vt 0.995262 0.755856
vt 0.920314 0.900366
vt 0.928892 0.855910
vt 0.436861 0.811218
vt 0.442316 0.807791
vt 0.460166 0.894623
vt 0.412959 0.758600
vt 0.373102 0.754755
vt 0.365886 0.709890
vt 0.409136 0.713049
vt 0.422740 0.851998
vt 0.394325 0.806167
vt 0.113008 0.550067
vt 0.064533 0.535965
vt 0.036891 0.496181
vt 0.019224 0.445527
vt 0.001713 0.328295
vt 0.001781 0.275893
vt 0.637981 0.442502
vt 0.588421 0.487319
vt 0.441118 0.538000
vt 0.008274 0.394358
vt 0.706880 0.275892
vt 0.700990 0.329528
vt 0.675799 0.390960
vt 0.515572 0.525226
vt 0.101834 0.324632
vt 0.100417 0.275893
vt 0.619588 0.275893
vt 0.432232 0.452043
vt 0.125662 0.460518
vt 0.419067 0.757270
vt 0.414811 0.713463
vt 0.940628 0.751866
vt 0.936772 0.798670
vt 0.493465 0.098171
vt 0.553404 0.134320
vt 0.546826 0.142253
vt 0.489625 0.108500
vt 0.436086 0.051146
vt 0.433436 0.087453
vt 0.117361 0.080983
vt 0.119004 0.041397
vt 0.094891 0.169970
vt 0.101479 0.127797
vt 0.111352 0.129900
vt 0.105751 0.171262
vt 0.050336 0.163374
vt 0.059619 0.117887
vt 0.073627 0.074161
vt 0.090613 0.226132
vt 0.043675 0.223328
vt 0.082732 0.041961
vt 0.504538 0.061619
vt 0.596737 0.177964
vt 0.588713 0.183848
vt 0.622776 0.227469
vt 0.612928 0.231074
vt 0.567934 0.096367
vt 0.662233 0.230046
vt 0.608767 0.135959
vt 0.639464 0.180463
vt 0.609533 0.544623
vt 0.938185 0.555859
vt 0.933578 0.561812
vt 0.609736 0.550043
vt 0.610847 0.510627
vt 0.936805 0.513555
vt 0.498339 0.578767
vt 0.557177 0.549206
vt 0.558572 0.554418
vt 0.501490 0.583703
vt 0.950750 0.647132
vt 0.949252 0.600705
vt 0.993226 0.596257
vt 0.997905 0.645081
vt 0.986076 0.552346
vt 0.950184 0.705496
vt 0.997905 0.706888
vt 0.982599 0.509811
vt 0.549815 0.514864
vt 0.944134 0.647220
vt 0.942106 0.601990
vt 0.450830 0.619949
vt 0.455730 0.624131
vt 0.486007 0.540814
vt 0.419537 0.668536
vt 0.379544 0.666549
vt 0.442784 0.577550
vt 0.408012 0.618766
vt 0.064534 0.015820
vt 0.113008 0.001718
vt 0.019224 0.106260
vt 0.036891 0.055604
vt 0.001713 0.223491
vt 0.588421 0.064468
vt 0.637980 0.109284
vt 0.441119 0.013787
vt 0.008274 0.157429
vt 0.700989 0.222257
vt 0.675798 0.160826
vt 0.515572 0.026561
vt 0.101835 0.227155
vt 0.125663 0.091269
vt 0.432234 0.099744
vt 0.425387 0.670739
vt 0.943614 0.704998
s 1
f 21/1/1 51/2/2 49/3/3 15/4/4
f 16/5/5 12/6/6 9/7/7 13/8/8
f 10/9/9 44/10/9 43/11/10 11/12/10
f 10/9/11 11/12/12 8/13/12 5/14/11
f 11/12/12 9/7/7 4/15/13 8/13/12
f 19/16/14 10/9/11 5/14/11 17/17/14
f 9/7/7 12/6/6 2/18/15 4/15/13
f 1/19/16 16/5/5 13/8/8 21/1/17
f 75/20/18 19/16/14 17/17/14 64/21/18
f 15/4/4 49/3/3 48/22/19 14/23/20
f 14/23/20 48/22/19 50/24/21 20/25/22
f 15/4/23 3/26/24 1/19/16 21/1/17
f 20/25/25 80/27/26 63/28/26 18/29/27
f 15/4/23 14/23/28 7/30/29 3/26/24
f 14/23/28 20/25/25 6/31/30 7/30/29
f 6/31/30 20/25/25 18/29/27
f 34/32/31 56/33/32 54/34/33 30/35/33
f 37/36/34 34/32/35 30/35/36 33/37/37
f 36/38/38 58/39/39 60/40/40 42/41/41
f 31/42/42 26/43/42 29/44/43 32/45/43
f 32/45/43 29/44/43 25/46/44 30/35/36
f 40/47/45 38/48/45 26/43/42 31/42/42
f 30/35/36 25/46/44 23/49/46 33/37/37
f 22/50/47 42/41/48 34/32/35 37/36/34
f 100/51/49 89/52/49 38/48/45 40/47/45
f 32/45/10 52/53/10 53/54/9 31/42/9
f 35/55/50 57/56/51 58/39/39 36/38/38
f 36/38/52 42/41/48 22/50/47 24/57/53
f 41/58/54 39/59/55 88/60/56 105/61/56
f 36/38/52 24/57/53 28/62/57 35/55/58
f 35/55/58 28/62/57 27/63/59 41/58/54
f 27/63/59 39/59/55 41/58/54
f 12/6/60 33/64/61 23/65/62 2/18/62
f 4/15/63 25/66/64 29/67/63 8/13/63
f 17/17/65 38/68/65 89/69/66 64/21/66
f 7/30/67 28/70/68 24/71/69 3/26/70
f 2/18/64 23/65/64 25/66/64 4/15/63
f 16/5/71 37/72/72 33/64/61 12/6/60
f 5/14/73 26/73/73 38/68/65 17/17/65
f 8/13/63 29/67/63 26/73/73 5/14/73
f 63/28/74 88/74/74 39/75/75 18/29/76
f 18/29/76 39/75/75 27/76/77 6/31/78
f 1/19/79 22/77/80 37/72/72 16/5/71
f 3/26/70 24/71/69 22/77/80 1/19/79
f 6/31/78 27/76/77 28/70/68 7/30/67
f 50/24/81 46/78/82 112/79/83 111/80/83
f 49/3/84 43/11/85 44/10/86 48/22/87
f 48/22/87 44/10/86 46/78/82 50/24/81
f 49/3/84 51/2/88 47/81/88 45/82/88 43/11/85
f 9/7/89 45/82/89 47/81/90 13/8/91
f 11/12/10 43/11/10 45/82/10 9/7/10
f 19/16/92 46/78/92 44/10/9 10/9/9
f 20/25/22 50/24/21 111/80/93 80/27/93
f 13/8/91 47/81/90 51/2/2 21/1/1
f 75/20/94 112/79/94 46/78/92 19/16/92
f 59/83/95 122/84/96 123/85/96 55/86/97
f 58/39/98 57/56/99 53/54/100 52/53/101
f 57/56/99 59/83/95 55/86/97 53/54/100
f 58/39/98 52/53/101 54/34/102 56/33/102 60/40/102
f 30/35/10 54/34/10 52/53/10 32/45/10
f 31/42/9 53/54/9 55/86/92 40/47/92
f 105/61/103 122/84/103 59/83/104 41/58/105
f 42/41/41 60/40/40 56/33/32 34/32/31
f 40/47/92 55/86/92 123/85/94 100/51/94
f 41/58/105 59/83/104 57/56/51 35/55/50
f 85/87/106 78/88/107 119/89/108 121/90/109
f 79/91/110 76/92/111 71/93/112 74/94/113
f 72/95/114 73/96/115 113/97/115 114/98/114
f 72/95/116 67/99/116 70/100/117 73/96/117
f 73/96/117 70/100/117 66/101/118 71/93/112
f 83/102/119 81/103/119 67/99/116 72/95/116
f 71/93/112 66/101/118 62/104/120 74/94/113
f 61/105/121 85/87/122 76/92/111 79/91/110
f 75/20/18 64/21/18 81/103/119 83/102/119
f 78/88/107 77/106/123 118/107/124 119/89/108
f 77/106/123 84/108/125 120/109/126 118/107/124
f 78/88/127 85/87/122 61/105/121 65/110/128
f 84/108/129 82/111/130 63/28/26 80/27/26
f 78/88/127 65/110/128 69/112/131 77/106/132
f 77/106/132 69/112/131 68/113/133 84/108/129
f 68/113/133 82/111/130 84/108/129
f 101/114/134 96/115/135 126/116/135 128/117/136
f 104/118/137 99/119/138 96/115/139 101/114/140
f 103/120/141 110/121/142 132/122/143 130/123/144
f 97/124/145 98/125/146 95/126/146 92/127/145
f 98/125/146 96/115/139 91/128/147 95/126/146
f 108/129/148 97/124/145 92/127/145 106/130/148
f 96/115/139 99/119/138 87/131/149 91/128/147
f 86/132/150 104/118/137 101/114/140 110/121/151
f 100/51/49 108/129/148 106/130/148 89/52/49
f 98/125/115 97/124/114 125/133/114 124/134/115
f 102/135/152 103/120/141 130/123/144 129/136/153
f 103/120/154 90/137/155 86/132/150 110/121/151
f 109/138/156 105/61/56 88/60/56 107/139/157
f 103/120/154 102/135/158 94/140/159 90/137/155
f 102/135/158 109/138/156 93/141/160 94/140/159
f 93/141/160 109/138/156 107/139/157
f 74/94/161 62/104/162 87/142/162 99/143/163
f 66/101/164 70/100/164 95/144/164 91/145/165
f 81/103/166 64/21/66 89/69/66 106/146/166
f 69/112/167 65/110/168 90/147/169 94/148/170
f 62/104/165 66/101/164 91/145/165 87/142/165
f 79/91/171 74/94/161 99/143/163 104/149/172
f 67/99/173 81/103/166 106/146/166 92/150/173
f 70/100/164 67/99/173 92/150/173 95/144/164
f 63/28/74 82/111/174 107/151/175 88/74/74
f 82/111/174 68/113/176 93/152/177 107/151/175
f 61/105/178 79/91/171 104/149/172 86/153/179
f 65/110/168 61/105/178 86/153/179 90/147/169
f 68/113/176 69/112/167 94/148/170 93/152/177
f 120/109/180 111/80/83 112/79/83 116/154/181
f 119/89/182 118/107/183 114/98/184 113/97/185
f 118/107/183 120/109/180 116/154/181 114/98/184
f 119/89/182 113/97/185 115/155/186 117/156/186 121/90/186
f 71/93/187 76/92/188 117/156/189 115/155/187
f 73/96/115 71/93/115 115/155/115 113/97/115
f 83/102/190 72/95/114 114/98/114 116/154/190
f 84/108/125 80/27/93 111/80/93 120/109/126
f 76/92/188 85/87/106 121/90/109 117/156/189
f 75/20/94 83/102/190 116/154/190 112/79/94
f 131/157/191 127/158/192 123/85/96 122/84/96
f 130/123/193 124/134/194 125/133/195 129/136/196
f 129/136/196 125/133/195 127/158/192 131/157/191
f 130/123/193 132/122/197 128/117/197 126/116/197 124/134/194
f 96/115/115 98/125/115 124/134/115 126/116/115
f 97/124/114 108/129/190 127/158/190 125/133/114
f 105/61/103 109/138/198 131/157/199 122/84/103
f 110/121/142 101/114/134 128/117/136 132/122/143
f 108/129/190 100/51/94 123/85/94 127/158/190
f 109/138/198 102/135/152 129/136/153 131/157/199
