# Blender 4.3.2
# www.blender.org
o Potion2
v 0.193397 -0.193397 -0.193397
v 0.096699 -0.226779 -0.226779
v 0.000000 -0.236863 -0.236862
v -0.096699 -0.226779 -0.226779
v 0.226779 -0.096699 -0.226779
v 0.113389 -0.113389 -0.294098
v 0.000000 -0.118431 -0.313340
v -0.113389 -0.113389 -0.294098
v 0.236863 -0.000000 -0.236863
v 0.118431 -0.000000 -0.313340
v 0.000000 -0.000000 -0.334974
v -0.118431 -0.000000 -0.313340
v 0.226779 0.096699 -0.226779
v 0.113389 0.113389 -0.294098
v 0.000000 0.118431 -0.313340
v -0.113389 0.113389 -0.294098
v -0.193397 -0.193397 -0.193397
v -0.226779 -0.226779 -0.096699
v -0.236863 -0.236863 0.000000
v -0.226779 -0.226779 0.096699
v -0.226779 -0.096699 -0.226779
v -0.294098 -0.113389 -0.113389
v -0.313340 -0.118431 0.000000
v -0.294098 -0.113389 0.113389
v -0.236863 -0.000000 -0.236863
v -0.313340 -0.000000 -0.118431
v -0.334974 0.000000 0.000000
v -0.313340 0.000000 0.118431
v -0.226779 0.096699 -0.226779
v -0.294098 0.113389 -0.113389
v -0.313340 0.118431 -0.000000
v -0.294098 0.113389 0.113389
v -0.193397 -0.193397 0.193397
v -0.096699 -0.226779 0.226779
v 0.000000 -0.236862 0.236863
v 0.096699 -0.226779 0.226779
v -0.226779 -0.096699 0.226779
v -0.113389 -0.113389 0.294098
v 0.000000 -0.118431 0.313340
v 0.113389 -0.113389 0.294098
v -0.236863 0.000000 0.236863
v -0.118431 0.000000 0.313340
v 0.000000 0.000000 0.334974
v 0.118431 0.000000 0.313340
v -0.226779 0.096699 0.226779
v -0.113389 0.113389 0.294098
v 0.000000 0.118431 0.313340
v 0.113389 0.113389 0.294098
v 0.193397 -0.193397 0.193397
v 0.226779 -0.226779 0.096699
v 0.236863 -0.236863 0.000000
v 0.226779 -0.226779 -0.096699
v 0.226779 -0.096699 0.226779
v 0.294098 -0.113389 0.113389
v 0.313340 -0.118431 0.000000
v 0.294098 -0.113389 -0.113389
v 0.236863 0.000000 0.236863
v 0.313340 0.000000 0.118431
v 0.334974 0.000000 0.000000
v 0.313340 -0.000000 -0.118431
v 0.226779 0.096699 0.226779
v 0.294098 0.113389 0.113389
v 0.313340 0.118431 -0.000000
v 0.294098 0.113389 -0.113389
v 0.000000 0.301054 0.099613
v -0.098566 0.364937 0.098566
v 0.000000 0.364937 0.139394
v 0.098566 0.364937 0.098566
v 0.000000 -0.307191 0.000000
v -0.139394 0.364937 -0.000000
v 0.139394 0.364937 -0.000000
v -0.098566 0.364937 -0.098566
v -0.000000 0.364937 -0.139394
v 0.193397 0.193397 -0.193397
v 0.096699 0.226779 -0.226779
v 0.000000 0.236862 -0.236863
v -0.096699 0.226779 -0.226779
v -0.193397 0.193397 -0.193397
v 0.226779 0.226779 -0.096699
v 0.098566 0.286651 -0.098566
v -0.000000 0.286651 -0.139394
v -0.098566 0.286651 -0.098566
v -0.226779 0.226779 -0.096699
v 0.236863 0.236863 -0.000000
v 0.139394 0.286651 -0.000000
v 0.098566 0.364937 -0.098566
v -0.139394 0.286651 -0.000000
v -0.236863 0.236863 -0.000000
v 0.226779 0.226779 0.096699
v 0.098566 0.286651 0.098566
v 0.000000 0.286651 0.139394
v -0.098566 0.286651 0.098566
v -0.226779 0.226779 0.096699
v 0.193397 0.193397 0.193397
v 0.096699 0.226779 0.226779
v 0.000000 0.236863 0.236862
v -0.096699 0.226779 0.226779
v -0.193397 0.193397 0.193397
v 0.131085 -0.282023 0.131085
v 0.000000 -0.291949 0.144099
v -0.131085 -0.282023 0.131085
v 0.144099 -0.291949 0.000000
v -0.144099 -0.291949 0.000000
v 0.131085 -0.282023 -0.131085
v 0.000000 -0.291949 -0.144099
v -0.131085 -0.282023 -0.131085
v -0.070437 0.301054 0.070437
v 0.070437 0.301054 -0.070437
v 0.099613 0.301054 -0.000000
v 0.070437 0.301054 0.070437
v -0.000000 0.301054 -0.099613
v -0.070437 0.301054 -0.070437
v -0.099613 0.301054 -0.000000
v -0.087752 0.371916 -0.087752
v -0.124099 0.371916 -0.000000
v 0.087752 0.371916 -0.087752
v -0.000000 0.371916 -0.124099
v 0.124099 0.371916 -0.000000
v 0.087752 0.371916 0.087751
v 0.000000 0.371916 0.124099
v -0.087752 0.371916 0.087751
v -0.076222 0.362519 -0.076222
v -0.107794 0.362519 -0.000000
v 0.076222 0.362519 -0.076222
v -0.000000 0.362519 -0.107794
v 0.107794 0.362519 -0.000000
v 0.076222 0.362519 0.076222
v 0.000000 0.362519 0.107794
v -0.076222 0.362519 0.076222
v -0.070437 0.391011 -0.070437
v -0.099613 0.391011 -0.000000
v 0.070437 0.391011 -0.070437
v -0.000000 0.391011 -0.099613
v 0.099613 0.391011 -0.000000
v 0.070437 0.391011 0.070437
v 0.000000 0.391011 0.099613
v -0.070437 0.391011 0.070437
v -0.075459 0.502389 -0.075459
v -0.106716 0.502389 -0.000000
v 0.075459 0.502389 -0.075459
v -0.000000 0.502389 -0.106716
v 0.106716 0.502389 -0.000000
v 0.075459 0.502389 0.075459
v -0.000000 0.502389 0.106716
v -0.075459 0.502389 0.075459
v -0.066974 0.522863 -0.066974
v -0.094715 0.522863 -0.000000
v 0.066974 0.522863 -0.066974
v -0.000000 0.522863 -0.094715
v 0.094715 0.522863 -0.000000
v 0.066974 0.522863 0.066974
v -0.000000 0.522863 0.094715
v -0.066974 0.522863 0.066974
vn 0.5855 -0.5606 -0.5855
vn 0.2926 -0.6731 -0.6793
vn 0.3403 -0.3403 -0.8766
vn 0.6737 -0.3036 -0.6737
vn -0.0000 -0.7124 -0.7017
vn -0.0000 -0.3610 -0.9326
vn -0.2926 -0.6731 -0.6793
vn -0.3403 -0.3403 -0.8766
vn -0.5855 -0.5606 -0.5855
vn -0.6737 -0.3036 -0.6737
vn 0.3610 -0.0000 -0.9326
vn 0.7071 -0.0000 -0.7071
vn -0.0000 -0.0000 -1.0000
vn -0.3610 -0.0000 -0.9326
vn -0.7071 -0.0000 -0.7071
vn 0.3403 0.3403 -0.8766
vn 0.6737 0.3036 -0.6737
vn -0.0000 0.3610 -0.9326
vn -0.3403 0.3403 -0.8766
vn -0.6737 0.3036 -0.6737
vn 0.2959 0.7111 -0.6378
vn 0.5607 0.6093 -0.5607
vn -0.0000 0.7444 -0.6677
vn -0.2959 0.7111 -0.6378
vn -0.5607 0.6093 -0.5607
vn -0.6793 -0.6731 -0.2926
vn -0.8766 -0.3403 -0.3403
vn -0.7017 -0.7124 -0.0000
vn -0.9326 -0.3610 -0.0000
vn -0.6793 -0.6731 0.2926
vn -0.8766 -0.3403 0.3403
vn -0.5855 -0.5606 0.5855
vn -0.6737 -0.3036 0.6737
vn -0.9326 -0.0000 -0.3610
vn -1.0000 -0.0000 -0.0000
vn -0.9326 -0.0000 0.3610
vn -0.7071 -0.0000 0.7071
vn -0.8766 0.3403 -0.3403
vn -0.9326 0.3610 -0.0000
vn -0.8766 0.3403 0.3403
vn -0.6737 0.3036 0.6737
vn -0.6378 0.7111 -0.2959
vn -0.6677 0.7444 -0.0000
vn -0.6378 0.7111 0.2959
vn -0.5607 0.6093 0.5607
vn -0.2926 -0.6731 0.6793
vn -0.3403 -0.3403 0.8766
vn -0.0000 -0.7124 0.7017
vn -0.0000 -0.3610 0.9326
vn 0.2926 -0.6731 0.6793
vn 0.3403 -0.3403 0.8766
vn 0.5855 -0.5606 0.5855
vn 0.6737 -0.3036 0.6737
vn -0.3610 -0.0000 0.9326
vn -0.0000 -0.0000 1.0000
vn 0.3610 -0.0000 0.9326
vn 0.7071 -0.0000 0.7071
vn -0.3403 0.3403 0.8766
vn -0.0000 0.3610 0.9326
vn 0.3403 0.3403 0.8766
vn 0.6737 0.3036 0.6737
vn -0.2959 0.7111 0.6378
vn -0.0000 0.7444 0.6677
vn 0.2959 0.7111 0.6378
vn 0.5607 0.6093 0.5607
vn 0.6793 -0.6731 0.2926
vn 0.8766 -0.3403 0.3403
vn 0.7017 -0.7124 -0.0000
vn 0.9326 -0.3610 -0.0000
vn 0.6793 -0.6731 -0.2926
vn 0.8766 -0.3403 -0.3403
vn 0.9326 -0.0000 0.3610
vn 1.0000 -0.0000 -0.0000
vn 0.9326 -0.0000 -0.3610
vn 0.8766 0.3403 0.3403
vn 0.9326 0.3610 -0.0000
vn 0.8766 0.3403 -0.3403
vn 0.6378 0.7111 0.2959
vn 0.6677 0.7444 -0.0000
vn 0.6378 0.7111 -0.2959
vn 0.3261 -0.8873 0.3261
vn 0.3264 -0.9452 -0.0000
vn -0.3261 -0.8873 0.3261
vn -0.0000 -0.9452 0.3264
vn -0.3264 -0.9452 -0.0000
vn -0.0000 -1.0000 -0.0000
vn -0.0000 -0.9452 -0.3264
vn 0.3261 -0.8873 -0.3261
vn -0.3261 -0.8873 -0.3261
vn 0.3408 0.8762 -0.3408
vn -0.0000 0.8989 -0.4381
vn -0.3408 0.8762 -0.3408
vn 0.4381 0.8989 -0.0000
vn -0.4381 0.8989 -0.0000
vn 0.3408 0.8762 0.3408
vn -0.3408 0.8762 0.3408
vn -0.0000 0.8989 0.4381
vn -0.0000 0.9097 -0.4152
vn -0.2936 0.9097 -0.2936
vn -0.9995 -0.0321 -0.0000
vn -0.7067 -0.0321 -0.7067
vn 0.4152 0.9097 -0.0000
vn 0.2936 0.9097 -0.2936
vn 0.2936 0.9097 0.2936
vn -0.2936 0.9097 0.2936
vn -0.0000 0.9097 0.4152
vn -0.4152 0.9097 -0.0000
vn 0.7902 0.6128 -0.0000
vn 0.5588 0.6128 0.5588
vn 0.3531 0.8664 0.3531
vn 0.4993 0.8664 -0.0000
vn -0.0000 0.6128 0.7902
vn -0.5588 0.6128 0.5588
vn -0.3531 0.8664 0.3531
vn -0.0000 0.8664 0.4993
vn -0.7902 0.6128 -0.0000
vn -0.5588 0.6128 -0.5588
vn -0.3531 0.8664 -0.3531
vn -0.4993 0.8664 -0.0000
vn -0.0000 0.6128 -0.7902
vn 0.5588 0.6128 -0.5588
vn 0.3531 0.8664 -0.3531
vn -0.0000 0.8664 -0.4993
vn 0.9913 0.1319 -0.0000
vn 0.7009 0.1319 0.7009
vn -0.0000 0.1319 0.9913
vn -0.7009 0.1319 0.7009
vn -0.9913 0.1319 -0.0000
vn -0.7009 0.1319 -0.7009
vn -0.0000 0.1319 -0.9913
vn 0.7009 0.1319 -0.7009
vn -0.0000 -0.0321 0.9995
vn 0.7067 -0.0321 0.7067
vn 0.7057 -0.0636 0.7057
vn -0.0000 -0.0636 0.9980
vn -0.7067 -0.0321 0.7067
vn -0.0000 -0.0321 -0.9995
vn 0.7067 -0.0321 -0.7067
vn 0.9995 -0.0321 -0.0000
vn 0.8627 0.5057 -0.0000
vn 0.6100 0.5057 -0.6100
vn -0.7057 -0.0636 0.7057
vn 0.9980 -0.0636 -0.0000
vn -0.9980 -0.0636 -0.0000
vn -0.7057 -0.0636 -0.7057
vn -0.0000 -0.0636 -0.9980
vn 0.7057 -0.0636 -0.7057
vn -0.0000 1.0000 -0.0000
vn -0.0000 0.5057 -0.8627
vn -0.0000 0.5057 0.8627
vn 0.6100 0.5057 0.6100
vn -0.6100 0.5057 0.6100
vn -0.6100 0.5057 -0.6100
vn -0.8627 0.5057 -0.0000
vt 0.610669 0.812265
vt 0.597140 0.745799
vt 0.676245 0.751530
vt 0.677752 0.828648
vt 0.593931 0.685555
vt 0.675945 0.685555
vt 0.597140 0.625311
vt 0.676245 0.619580
vt 0.610669 0.558845
vt 0.677752 0.542462
vt 0.744724 0.753670
vt 0.739050 0.833640
vt 0.746747 0.685555
vt 0.744724 0.617440
vt 0.739050 0.537470
vt 0.813831 0.754050
vt 0.800945 0.832966
vt 0.817949 0.685555
vt 0.813832 0.617060
vt 0.800945 0.538144
vt 0.896023 0.753056
vt 0.869591 0.822770
vt 0.901924 0.685555
vt 0.896023 0.618053
vt 0.869591 0.548339
vt 0.563708 0.513768
vt 0.651110 0.467247
vt 0.521479 0.470554
vt 0.623044 0.400337
vt 0.477154 0.097520
vt 0.434924 0.140735
vt 0.347523 0.094214
vt 0.375589 0.027303
vt 0.387964 0.185811
vt 0.320881 0.169428
vt 0.732384 0.452633
vt 0.727179 0.374748
vt 0.266248 0.079599
vt 0.271454 0.001714
vt 0.259583 0.164436
vt 0.813975 0.459186
vt 0.830995 0.388573
vt 0.184658 0.086152
vt 0.167638 0.015539
vt 0.197688 0.165110
vt 0.903957 0.492635
vt 0.934024 0.439054
vt 0.094675 0.119601
vt 0.064609 0.066021
vt 0.129041 0.175306
vt 0.401492 0.252277
vt 0.322388 0.246546
vt 0.404702 0.312521
vt 0.322687 0.312521
vt 0.401492 0.372765
vt 0.322388 0.378496
vt 0.387964 0.439231
vt 0.320881 0.455614
vt 0.253909 0.244406
vt 0.251886 0.312521
vt 0.253909 0.380636
vt 0.259583 0.460606
vt 0.184801 0.244026
vt 0.180684 0.312521
vt 0.184801 0.381016
vt 0.197688 0.459932
vt 0.102609 0.245020
vt 0.096709 0.312521
vt 0.102609 0.380023
vt 0.129041 0.449737
vt 0.434924 0.484308
vt 0.347523 0.530829
vt 0.477154 0.527522
vt 0.375589 0.597739
vt 0.521479 0.900556
vt 0.563708 0.857341
vt 0.651110 0.903862
vt 0.623044 0.970773
vt 0.266248 0.545443
vt 0.271454 0.623329
vt 0.732384 0.918477
vt 0.727179 0.996362
vt 0.184658 0.538890
vt 0.167638 0.609503
vt 0.813975 0.911924
vt 0.830995 0.982536
vt 0.094675 0.505441
vt 0.064609 0.559022
vt 0.903957 0.878475
vt 0.934024 0.932055
vt 0.462658 0.404723
vt 0.533770 0.447284
vt 0.462658 0.220320
vt 0.471380 0.312521
vt 0.533770 0.177758
vt 0.563270 0.312521
vt 0.435363 0.685555
vt 0.527253 0.685555
vt 0.535975 0.777756
vt 0.464863 0.820318
vt 0.464863 0.550792
vt 0.535975 0.593353
vt 0.747130 0.123712
vt 0.685177 0.123712
vt 0.685177 0.069411
vt 0.747130 0.069411
vt 0.975279 0.797266
vt 0.974725 0.685555
vt 0.975279 0.573843
vt 0.996731 0.876343
vt 0.835628 0.154496
vt 0.894598 0.154496
vt 0.894598 0.205726
vt 0.835628 0.205726
vt 0.953568 0.154496
vt 0.953568 0.205726
vt 0.996731 0.494767
vt 0.001901 0.503309
vt 0.023354 0.424233
vt 0.776658 0.154496
vt 0.776658 0.205726
vt 0.561269 0.123712
vt 0.499315 0.123712
vt 0.499315 0.069411
vt 0.561269 0.069411
vt 0.001901 0.121733
vt 0.023354 0.200810
vt 0.023907 0.312521
vt 0.717688 0.154496
vt 0.717688 0.205726
vt 0.623223 0.123712
vt 0.623223 0.069411
vt 0.561269 0.057750
vt 0.623223 0.057750
vt 0.901604 0.001680
vt 0.951973 0.001680
vt 0.951973 0.060765
vt 0.901604 0.060765
vt 0.685177 0.057750
vt 0.747130 0.057750
vt 0.953568 0.216728
vt 0.894598 0.216728
vt 0.835628 0.216728
vt 0.776658 0.216728
vt 0.499315 0.057750
vt 0.717688 0.216728
vt 0.499315 0.044696
vt 0.561269 0.044696
vt 0.623223 0.044696
vt 0.685177 0.044696
vt 0.953568 0.229044
vt 0.894598 0.229044
vt 0.747130 0.044696
vt 0.835628 0.229044
vt 0.776658 0.229044
vt 0.717688 0.229044
vt 0.499315 0.001686
vt 0.561269 0.001686
vt 0.623223 0.001686
vt 0.685177 0.001686
vt 0.953568 0.269622
vt 0.894598 0.269622
vt 0.747130 0.001686
vt 0.835628 0.269622
vt 0.776658 0.269622
vt 0.717688 0.269622
vt 0.655349 0.226882
vt 0.655349 0.276559
vt 0.582191 0.276559
vt 0.582191 0.226882
vt 0.714318 0.127529
vt 0.714318 0.177206
vt 0.655349 0.177206
vt 0.655349 0.127529
vt 0.851234 0.001680
vt 0.851234 0.060765
vt 0.750496 0.001680
vt 0.800865 0.001680
vt 0.800865 0.060765
vt 0.750496 0.060765
vt 0.714318 0.226882
vt 0.714317 0.276559
vt 0.714317 0.326235
vt 0.655349 0.326235
vt 0.750496 0.134068
vt 0.800865 0.134068
vt 0.800865 0.149655
vt 0.750496 0.149655
vt 0.582191 0.177206
vt 0.582191 0.326235
vt 0.951973 0.134068
vt 0.901604 0.134068
vt 0.582191 0.127529
vt 0.851234 0.134068
vt 0.082749 0.687111
vt 0.035264 0.687111
vt 0.001686 0.653534
vt 0.001686 0.606049
vt 0.035263 0.572471
vt 0.082749 0.572471
vt 0.116326 0.606048
vt 0.116326 0.653534
vt 0.851234 0.149655
vt 0.566635 0.276559
vt 0.566635 0.226882
vt 0.566635 0.177206
vt 0.566635 0.326235
vt 0.951973 0.149655
vt 0.901604 0.149655
vt 0.566635 0.127529
vt 0.935294 0.358852
vt 0.899981 0.394166
vt 0.850040 0.394166
vt 0.814727 0.358852
vt 0.814727 0.308912
vt 0.850040 0.273599
vt 0.899981 0.273599
vt 0.935294 0.308912
s 1
f 1/1/1 2/2/2 6/3/3 5/4/4
f 2/2/2 3/5/5 7/6/6 6/3/3
f 3/5/5 4/7/7 8/8/8 7/6/6
f 4/7/7 17/9/9 21/10/10 8/8/8
f 5/4/4 6/3/3 10/11/11 9/12/12
f 6/3/3 7/6/6 11/13/13 10/11/11
f 7/6/6 8/8/8 12/14/14 11/13/13
f 8/8/8 21/10/10 25/15/15 12/14/14
f 9/12/12 10/11/11 14/16/16 13/17/17
f 10/11/11 11/13/13 15/18/18 14/16/16
f 11/13/13 12/14/14 16/19/19 15/18/18
f 12/14/14 25/15/15 29/20/20 16/19/19
f 13/17/17 14/16/16 75/21/21 74/22/22
f 14/16/16 15/18/18 76/23/23 75/21/21
f 15/18/18 16/19/19 77/24/24 76/23/23
f 16/19/19 29/20/20 78/25/25 77/24/24
f 17/9/9 18/26/26 22/27/27 21/10/10
f 18/26/26 19/28/28 23/29/29 22/27/27
f 19/30/28 20/31/30 24/32/31 23/33/29
f 20/31/30 33/34/32 37/35/33 24/32/31
f 21/10/10 22/27/27 26/36/34 25/15/15
f 22/27/27 23/29/29 27/37/35 26/36/34
f 23/33/29 24/32/31 28/38/36 27/39/35
f 24/32/31 37/35/33 41/40/37 28/38/36
f 25/15/15 26/36/34 30/41/38 29/20/20
f 26/36/34 27/37/35 31/42/39 30/41/38
f 27/39/35 28/38/36 32/43/40 31/44/39
f 28/38/36 41/40/37 45/45/41 32/43/40
f 29/20/20 30/41/38 83/46/42 78/25/25
f 30/41/38 31/42/39 88/47/43 83/46/42
f 31/44/39 32/43/40 93/48/44 88/49/43
f 32/43/40 45/45/41 98/50/45 93/48/44
f 33/34/32 34/51/46 38/52/47 37/35/33
f 34/51/46 35/53/48 39/54/49 38/52/47
f 35/53/48 36/55/50 40/56/51 39/54/49
f 36/55/50 49/57/52 53/58/53 40/56/51
f 37/35/33 38/52/47 42/59/54 41/40/37
f 38/52/47 39/54/49 43/60/55 42/59/54
f 39/54/49 40/56/51 44/61/56 43/60/55
f 40/56/51 53/58/53 57/62/57 44/61/56
f 41/40/37 42/59/54 46/63/58 45/45/41
f 42/59/54 43/60/55 47/64/59 46/63/58
f 43/60/55 44/61/56 48/65/60 47/64/59
f 44/61/56 57/62/57 61/66/61 48/65/60
f 45/45/41 46/63/58 97/67/62 98/50/45
f 46/63/58 47/64/59 96/68/63 97/67/62
f 47/64/59 48/65/60 95/69/64 96/68/63
f 48/65/60 61/66/61 94/70/65 95/69/64
f 49/57/52 50/71/66 54/72/67 53/58/53
f 50/71/66 51/73/68 55/74/69 54/72/67
f 51/75/68 52/76/70 56/77/71 55/78/69
f 52/76/70 1/1/1 5/4/4 56/77/71
f 53/58/53 54/72/67 58/79/72 57/62/57
f 54/72/67 55/74/69 59/80/73 58/79/72
f 55/78/69 56/77/71 60/81/74 59/82/73
f 56/77/71 5/4/4 9/12/12 60/81/74
f 57/62/57 58/79/72 62/83/75 61/66/61
f 58/79/72 59/80/73 63/84/76 62/83/75
f 59/82/73 60/81/74 64/85/77 63/86/76
f 60/81/74 9/12/12 13/17/17 64/85/77
f 61/66/61 62/83/75 89/87/78 94/70/65
f 62/83/75 63/84/76 84/88/79 89/87/78
f 63/86/76 64/85/77 79/89/80 84/90/79
f 64/85/77 13/17/17 74/22/22 79/89/80
f 50/71/66 99/91/81 102/92/82 51/73/68
f 35/53/48 34/51/46 101/93/83 100/94/84
f 100/94/84 101/93/83 103/95/85 69/96/86
f 69/97/86 105/98/87 104/99/88 102/100/82
f 36/55/50 35/53/48 100/94/84 99/91/81
f 49/57/52 36/55/50 99/91/81 50/71/66
f 101/93/83 20/31/30 19/30/28 103/95/85
f 34/51/46 33/34/32 20/31/30 101/93/83
f 103/101/85 19/28/28 18/26/26 106/102/89
f 51/75/68 102/100/82 104/99/88 52/76/70
f 104/99/88 105/98/87 3/5/5 2/2/2
f 103/101/85 106/102/89 105/98/87 69/97/86
f 105/98/87 106/102/89 4/7/7 3/5/5
f 52/76/70 104/99/88 2/2/2 1/1/1
f 106/102/89 18/26/26 17/9/9 4/7/7
f 85/103/73 80/104/12 86/105/12 71/106/73
f 74/22/22 75/21/21 80/107/90 79/89/80
f 75/21/21 76/23/23 81/108/91 80/107/90
f 76/23/23 77/24/24 82/109/92 81/108/91
f 77/24/24 78/25/25 83/46/42 82/109/92
f 79/89/80 80/107/90 85/110/93 84/90/79
f 91/111/55 90/112/57 68/113/57 67/114/55
f 90/112/57 85/115/73 71/116/73 68/113/57
f 82/109/92 83/46/42 88/47/43 87/117/94
f 84/88/79 85/118/93 90/119/95 89/87/78
f 92/120/37 91/111/55 67/114/55 66/121/37
f 82/122/15 87/123/35 70/124/35 72/125/15
f 87/126/94 88/49/43 93/48/44 92/127/96
f 89/87/78 90/119/95 95/69/64 94/70/65
f 90/119/95 91/128/97 96/68/63 95/69/64
f 91/128/97 92/127/96 97/67/62 96/68/63
f 92/127/96 93/48/44 98/50/45 97/67/62
f 69/96/86 102/92/82 99/91/81 100/94/84
f 87/129/35 92/120/37 66/121/37 70/130/35
f 81/131/13 82/122/15 72/125/15 73/132/13
f 80/104/12 81/131/13 73/132/13 86/105/12
f 73/132/98 72/125/99 114/133/99 117/134/98
f 112/135/15 113/136/35 131/137/100 130/138/101
f 71/106/102 86/105/103 116/139/103 118/140/102
f 68/113/104 71/116/102 118/141/102 119/142/104
f 86/105/103 73/132/98 117/134/98 116/139/103
f 66/121/105 67/114/106 120/143/106 121/144/105
f 67/114/106 68/113/104 119/142/104 120/143/106
f 72/125/99 70/124/107 115/145/107 114/133/99
f 70/130/107 66/121/105 121/144/105 115/146/107
f 123/147/108 122/148/109 114/133/110 115/145/111
f 125/149/112 124/150/113 116/139/114 117/134/115
f 126/151/116 127/152/117 119/142/118 118/141/119
f 124/150/113 126/153/116 118/140/119 116/139/114
f 128/154/120 129/155/121 121/144/122 120/143/123
f 122/148/109 125/149/112 117/134/115 114/133/110
f 127/152/117 128/154/120 120/143/123 119/142/118
f 129/155/121 123/156/108 115/146/111 121/144/122
f 113/157/124 112/158/125 122/148/109 123/147/108
f 111/159/126 108/160/127 124/150/113 125/149/112
f 109/161/128 110/162/129 127/152/117 126/151/116
f 108/160/127 109/163/128 126/153/116 124/150/113
f 65/164/130 107/165/131 129/155/121 128/154/120
f 112/158/125 111/159/126 125/149/112 122/148/109
f 110/162/129 65/164/130 128/154/120 127/152/117
f 107/165/131 113/166/124 123/156/108 129/155/121
f 136/167/132 135/168/133 143/169/134 144/170/135
f 113/171/35 107/172/37 137/173/136 131/174/100
f 111/175/13 112/135/15 130/138/101 133/176/137
f 109/177/73 108/178/12 132/179/138 134/180/139
f 108/178/12 111/175/13 133/176/137 132/179/138
f 65/181/55 110/182/57 135/168/133 136/167/132
f 107/172/37 65/181/55 136/167/132 137/173/136
f 110/182/57 109/183/73 134/184/139 135/168/133
f 142/185/140 140/186/141 148/187/141 150/188/140
f 137/173/136 136/167/132 144/170/135 145/189/142
f 135/168/133 134/184/139 142/190/143 143/169/134
f 130/138/101 131/137/100 139/191/144 138/192/145
f 131/174/100 137/173/136 145/189/142 139/193/144
f 133/176/137 130/138/101 138/192/145 141/194/146
f 134/180/139 132/179/138 140/186/147 142/185/143
f 132/179/138 133/176/137 141/194/146 140/186/147
f 153/195/148 152/196/148 151/197/148 150/198/148 148/199/148 149/200/148 146/201/148 147/202/148
f 140/186/141 141/194/149 149/203/149 148/187/141
f 144/170/150 143/169/151 151/204/151 152/205/150
f 145/189/152 144/170/150 152/205/150 153/206/152
f 143/169/151 142/190/140 150/207/140 151/204/151
f 138/192/153 139/191/154 147/208/154 146/209/153
f 139/193/154 145/189/152 153/206/152 147/210/154
f 141/194/149 138/192/153 146/209/153 149/203/149
f 112/211/86 111/212/86 108/213/86 109/214/86 110/215/86 65/216/86 107/217/86 113/218/86
