# Blender 4.3.2
# www.blender.org
o Potion1
v 0.000000 -0.015300 -0.170066
v 0.000000 0.015300 -0.232921
v 0.120255 -0.015300 -0.120255
v 0.164700 0.015300 -0.164700
v 0.170066 -0.015300 -0.000000
v 0.232921 0.015300 -0.000000
v 0.120255 -0.015300 0.120255
v 0.164700 0.015300 0.164700
v -0.000000 -0.015300 0.170066
v -0.000000 0.015300 0.232921
v -0.120255 -0.015300 0.120255
v -0.164700 0.015300 0.164700
v -0.170066 -0.015300 -0.000000
v -0.232921 0.015300 -0.000000
v -0.120255 -0.015300 -0.120255
v -0.164700 0.015300 -0.164700
v 0.166209 0.598595 -0.166209
v 0.000000 0.598595 -0.235056
v 0.235056 0.598595 -0.000000
v 0.166209 0.598595 0.166209
v -0.000000 0.598595 0.235056
v -0.166209 0.598595 0.166209
v -0.235056 0.598595 -0.000000
v -0.166209 0.598595 -0.166209
v 0.158719 0.653022 -0.158719
v -0.000000 0.653022 -0.224463
v 0.224463 0.653022 -0.000000
v 0.158719 0.653022 0.158719
v -0.000000 0.653022 0.224462
v -0.158719 0.653022 0.158719
v -0.224463 0.653022 -0.000000
v -0.158719 0.653022 -0.158719
v 0.077766 0.695876 -0.077766
v -0.000000 0.695876 -0.109978
v 0.109978 0.695876 -0.000000
v 0.077766 0.695876 0.077766
v -0.000000 0.695876 0.109978
v -0.077766 0.695876 0.077766
v -0.109978 0.695876 -0.000000
v -0.077766 0.695876 -0.077766
v 0.083285 0.802805 -0.083285
v 0.000000 0.802805 -0.117782
v 0.117782 0.802805 -0.000000
v 0.083285 0.802805 0.083285
v -0.000000 0.802805 0.117782
v -0.083285 0.802805 0.083285
v -0.117782 0.802805 -0.000000
v -0.083285 0.802805 -0.083285
v 0.114428 0.816100 -0.114429
v 0.000000 0.816100 -0.161826
v 0.161826 0.816100 -0.000000
v 0.114428 0.816100 0.114428
v -0.000000 0.816100 0.161826
v -0.114428 0.816100 0.114428
v -0.161826 0.816100 -0.000000
v -0.114428 0.816100 -0.114429
v 0.114428 0.856406 -0.114429
v 0.000000 0.856406 -0.161826
v 0.161826 0.856406 -0.000000
v 0.114428 0.856406 0.114428
v -0.000000 0.856406 0.161826
v -0.114428 0.856406 0.114428
v -0.161826 0.856406 -0.000000
v -0.114428 0.856406 -0.114429
v 0.064471 0.774959 -0.064471
v 0.000000 0.774959 -0.091175
v 0.091175 0.774959 -0.000000
v 0.064471 0.774959 0.064471
v -0.000000 0.774959 0.091175
v -0.064471 0.774959 0.064471
v -0.091175 0.774959 -0.000000
v -0.064471 0.774959 -0.064471
v 0.086244 0.865355 -0.086244
v 0.000000 0.865355 -0.121967
v 0.121967 0.865355 -0.000000
v 0.086244 0.865355 0.086243
v -0.000000 0.865355 0.121967
v -0.086244 0.865355 0.086243
v -0.121967 0.865355 -0.000000
v -0.086244 0.865355 -0.086244
v 0.096245 0.935402 -0.096245
v -0.000000 0.935402 -0.136111
v 0.136111 0.935402 -0.000000
v 0.096245 0.935402 0.096245
v -0.000000 0.935402 0.136111
v -0.096245 0.935402 0.096245
v -0.136111 0.935402 -0.000000
v -0.096245 0.935402 -0.096245
v 0.083130 0.963867 -0.083130
v -0.000000 0.963867 -0.117564
v 0.117563 0.963867 -0.000000
v 0.083130 0.963867 0.083130
v -0.000000 0.963867 0.117563
v -0.083130 0.963867 0.083130
v -0.117564 0.963867 -0.000000
v -0.083130 0.963867 -0.083130
vn -0.0000 -0.9610 -0.2764
vn -0.0000 -0.8991 -0.4377
vn 0.3095 -0.8991 -0.3095
vn 0.1954 -0.9610 -0.1954
vn 0.4377 -0.8991 -0.0000
vn 0.2764 -0.9610 -0.0000
vn 0.3095 -0.8991 0.3095
vn 0.1954 -0.9610 0.1954
vn -0.0000 -0.8991 0.4377
vn -0.0000 -0.9610 0.2764
vn -0.3095 -0.8991 0.3095
vn -0.1954 -0.9610 0.1954
vn -0.4377 -0.8991 -0.0000
vn -0.2764 -0.9610 -0.0000
vn -0.0000 -0.0037 1.0000
vn 0.7071 -0.0037 0.7071
vn -0.3095 -0.8991 -0.3095
vn -0.1954 -0.9610 -0.1954
vn 0.6941 0.1910 -0.6941
vn -0.0000 0.1910 -0.9816
vn -0.7071 -0.0037 -0.7071
vn -1.0000 -0.0037 -0.0000
vn 1.0000 -0.0037 -0.0000
vn 0.7071 -0.0037 -0.7071
vn -0.7071 -0.0037 0.7071
vn -0.0000 -0.0037 -1.0000
vn -0.2479 0.9365 -0.2479
vn -0.3506 0.9365 -0.0000
vn -0.6941 0.1910 -0.6941
vn -0.9816 0.1910 -0.0000
vn -0.6941 0.1910 0.6941
vn -0.0000 0.1910 0.9816
vn 0.6941 0.1910 0.6941
vn 0.9816 0.1910 -0.0000
vn 0.9973 -0.0728 -0.0000
vn 0.7052 -0.0728 -0.7052
vn 0.5034 -0.7022 -0.5034
vn 0.7120 -0.7022 -0.0000
vn -0.2479 0.9365 0.2479
vn -0.0000 0.9365 0.3506
vn 0.2479 0.9365 0.2479
vn 0.3506 0.9365 -0.0000
vn 0.2479 0.9365 -0.2479
vn -0.0000 0.9365 -0.3506
vn -0.0000 -0.7022 -0.7120
vn -0.5034 -0.7022 -0.5034
vn -0.2043 -0.9573 -0.2043
vn -0.0000 -0.9573 -0.2890
vn -0.7052 -0.0728 -0.7052
vn -0.9973 -0.0728 -0.0000
vn -0.7120 -0.7022 -0.0000
vn -0.7052 -0.0728 0.7052
vn -0.0000 -0.0728 0.9973
vn -0.0000 -0.7022 0.7120
vn -0.5034 -0.7022 0.5034
vn 0.7052 -0.0728 0.7052
vn 0.5034 -0.7022 0.5034
vn -0.0000 -0.0728 -0.9973
vn 0.7071 -0.0000 0.7071
vn 1.0000 -0.0000 -0.0000
vn -0.2043 -0.9573 0.2043
vn -0.2890 -0.9573 -0.0000
vn 0.2043 -0.9573 0.2043
vn -0.0000 -0.9573 0.2890
vn 0.2043 -0.9573 -0.2043
vn 0.2890 -0.9573 -0.0000
vn -0.1549 0.9757 -0.1549
vn -0.2191 0.9757 -0.0000
vn 0.3421 0.9397 -0.0000
vn 0.2419 0.9397 0.2419
vn 0.7071 -0.0000 -0.7071
vn -0.0000 -0.0000 -1.0000
vn -0.7071 -0.0000 -0.7071
vn -1.0000 -0.0000 -0.0000
vn -0.7071 -0.0000 0.7071
vn -0.0000 -0.0000 1.0000
vn -0.6809 -0.2697 -0.6809
vn -0.9629 -0.2697 -0.0000
vn -0.1549 0.9757 0.1549
vn -0.0000 0.9757 0.2191
vn -0.0000 0.9397 -0.3421
vn 0.2419 0.9397 -0.2419
vn 0.1549 0.9757 0.1549
vn 0.2191 0.9757 -0.0000
vn -0.3421 0.9397 -0.0000
vn -0.2419 0.9397 -0.2419
vn 0.1549 0.9757 -0.1549
vn -0.0000 0.9757 -0.2191
vn -0.0000 0.9397 0.3421
vn -0.2419 0.9397 0.2419
vn -0.0000 0.3224 0.9466
vn -0.6693 0.3224 0.6693
vn -0.9466 0.3224 -0.0000
vn -0.6693 0.3224 -0.6693
vn -0.0000 0.3224 -0.9466
vn 0.6693 0.3224 -0.6693
vn 0.9466 0.3224 -0.0000
vn 0.6693 0.3224 0.6693
vn 0.8378 0.5459 -0.0000
vn 0.5924 0.5459 -0.5924
vn -0.6809 -0.2697 0.6809
vn -0.0000 -0.2697 0.9629
vn 0.6809 -0.2697 0.6809
vn 0.9629 -0.2697 -0.0000
vn 0.6809 -0.2697 -0.6809
vn -0.0000 -0.2697 -0.9629
vn -0.0000 1.0000 -0.0000
vn -0.5924 0.5459 -0.5924
vn -0.8378 0.5459 -0.0000
vn -0.5924 0.5459 0.5924
vn -0.0000 0.5459 0.8378
vn 0.5924 0.5459 0.5924
vn -0.0000 0.5459 -0.8378
vn -0.0000 -1.0000 -0.0000
vt 0.609477 0.797381
vt 0.590738 0.842172
vt 0.501246 0.752598
vt 0.545832 0.734041
vt 0.500761 0.625979
vt 0.545745 0.644250
vt 0.590172 0.535963
vt 0.609107 0.580691
vt 0.717108 0.535529
vt 0.698873 0.580550
vt 0.807509 0.625134
vt 0.762345 0.643930
vt 0.807375 0.752417
vt 0.762583 0.733629
vt 0.749240 0.001515
vt 0.873862 0.001515
vt 0.873862 0.406984
vt 0.749240 0.406984
vt 0.717614 0.842172
vt 0.699223 0.797217
vt 0.126130 0.406984
vt 0.250752 0.406984
vt 0.250752 0.445528
vt 0.126130 0.445528
vt 0.375374 0.001515
vt 0.499996 0.001515
vt 0.499996 0.406984
vt 0.375374 0.406984
vt 0.001508 0.001515
vt 0.126130 0.001515
vt 0.001508 0.406984
vt 0.624618 0.001515
vt 0.624618 0.406984
vt 0.250752 0.001515
vt 0.998484 0.001515
vt 0.998484 0.406984
vt 0.375374 0.445528
vt 0.499996 0.445528
vt 0.499996 0.530503
vt 0.375374 0.530503
vt 0.624618 0.445528
vt 0.873862 0.445528
vt 0.749240 0.445528
vt 0.001508 0.445528
vt 0.998484 0.445528
vt 0.497744 0.759477
vt 0.435715 0.759477
vt 0.435715 0.686691
vt 0.497744 0.686691
vt 0.749240 0.530503
vt 0.624618 0.530503
vt 0.998484 0.530503
vt 0.873862 0.530503
vt 0.250752 0.530503
vt 0.126130 0.530503
vt 0.001508 0.530503
vt 0.373685 0.686691
vt 0.311656 0.686691
vt 0.311656 0.655458
vt 0.373685 0.655458
vt 0.311656 0.759477
vt 0.249627 0.759477
vt 0.249627 0.686691
vt 0.187597 0.759477
vt 0.125568 0.759477
vt 0.125568 0.686691
vt 0.187597 0.686691
vt 0.063538 0.759477
vt 0.001509 0.759477
vt 0.001509 0.686691
vt 0.063538 0.686691
vt 0.373685 0.759477
vt 0.063538 0.655458
vt 0.001509 0.655458
vt 0.001509 0.628094
vt 0.063538 0.628094
vt 0.187597 0.655458
vt 0.249627 0.655458
vt 0.125568 0.655458
vt 0.435715 0.655458
vt 0.497744 0.655458
vt 0.311656 0.628094
vt 0.249627 0.628094
vt 0.249627 0.600361
vt 0.311656 0.600361
vt 0.373685 0.628094
vt 0.435715 0.628094
vt 0.187597 0.628094
vt 0.125568 0.628094
vt 0.497744 0.628094
vt 0.324433 0.916194
vt 0.259849 0.916194
vt 0.259849 0.799186
vt 0.324433 0.799186
vt 0.125568 0.600361
vt 0.187597 0.600361
vt 0.001509 0.600361
vt 0.063538 0.600361
vt 0.373685 0.600361
vt 0.435715 0.600361
vt 0.497744 0.600361
vt 0.373685 0.535529
vt 0.435715 0.535529
vt 0.497744 0.535529
vt 0.001509 0.535529
vt 0.063538 0.535529
vt 0.125568 0.535529
vt 0.187597 0.535529
vt 0.249627 0.535529
vt 0.311656 0.535529
vt 0.518185 0.799186
vt 0.453601 0.799186
vt 0.453601 0.775328
vt 0.518185 0.775328
vt 0.195265 0.916194
vt 0.130681 0.916194
vt 0.130681 0.799186
vt 0.195265 0.799186
vt 0.066097 0.916194
vt 0.001513 0.916194
vt 0.001513 0.799186
vt 0.066097 0.799186
vt 0.453601 0.916194
vt 0.389017 0.916194
vt 0.389017 0.799186
vt 0.518185 0.916194
vt 0.854519 0.685691
vt 0.810537 0.641708
vt 0.810537 0.579507
vt 0.854519 0.535525
vt 0.916720 0.535525
vt 0.960702 0.579507
vt 0.960702 0.641708
vt 0.916720 0.685691
vt 0.259849 0.775328
vt 0.324433 0.775328
vt 0.130681 0.775328
vt 0.195265 0.775328
vt 0.001513 0.775328
vt 0.066097 0.775328
vt 0.389017 0.775328
vt 0.810427 0.773041
vt 0.810427 0.724802
vt 0.844537 0.690692
vt 0.892776 0.690692
vt 0.926886 0.724802
vt 0.926886 0.773041
vt 0.892776 0.807151
vt 0.844537 0.807151
s 1
f 1/1/1 2/2/2 4/3/3 3/4/4
f 3/4/4 4/3/3 6/5/5 5/6/6
f 5/6/6 6/5/5 8/7/7 7/8/8
f 7/8/8 8/7/7 10/9/9 9/10/10
f 9/10/10 10/9/9 12/11/11 11/12/12
f 11/12/12 12/11/11 14/13/13 13/14/14
f 10/15/15 8/16/16 20/17/16 21/18/15
f 13/14/14 14/13/13 16/19/17 15/20/18
f 15/20/18 16/19/17 2/2/2 1/1/1
f 1/1/1 3/4/4 5/6/6 7/8/8 9/10/10 11/12/12 13/14/14 15/20/18
f 17/21/19 18/22/20 26/23/20 25/24/19
f 16/25/21 14/26/22 23/27/22 24/28/21
f 6/29/23 4/30/24 17/21/24 19/31/23
f 12/32/25 10/15/15 21/18/15 22/33/25
f 2/34/26 16/25/21 24/28/21 18/22/26
f 4/30/24 2/34/26 18/22/26 17/21/24
f 8/16/16 6/35/23 19/36/23 20/17/16
f 14/26/22 12/32/25 22/33/25 23/27/22
f 32/37/27 31/38/28 39/39/28 40/40/27
f 18/22/20 24/28/29 32/37/29 26/23/20
f 23/27/30 22/33/31 30/41/31 31/38/30
f 21/18/32 20/17/33 28/42/33 29/43/32
f 19/31/34 17/21/19 25/24/19 27/44/34
f 24/28/29 23/27/30 31/38/30 32/37/29
f 22/33/31 21/18/32 29/43/32 30/41/31
f 20/17/33 19/36/34 27/45/34 28/42/33
f 35/46/35 33/47/36 41/48/37 43/49/38
f 30/41/39 29/43/40 37/50/40 38/51/39
f 28/42/41 27/45/42 35/52/42 36/53/41
f 25/24/43 26/23/44 34/54/44 33/55/43
f 26/23/44 32/37/27 40/40/27 34/54/44
f 31/38/28 30/41/39 38/51/39 39/39/28
f 29/43/40 28/42/41 36/53/41 37/50/40
f 27/44/42 25/24/43 33/55/43 35/56/42
f 42/57/45 48/58/46 56/59/47 50/60/48
f 40/61/49 39/62/50 47/63/51 48/58/46
f 38/64/52 37/65/53 45/66/54 46/67/55
f 36/68/56 35/69/35 43/70/38 44/71/57
f 33/47/36 34/72/58 42/57/45 41/48/37
f 34/72/58 40/61/49 48/58/46 42/57/45
f 39/62/50 38/64/52 46/67/55 47/63/51
f 37/65/53 36/68/56 44/71/57 45/66/54
f 52/73/59 51/74/60 59/75/60 60/76/59
f 47/63/51 46/67/55 54/77/61 55/78/62
f 45/66/54 44/71/57 52/73/63 53/79/64
f 43/49/38 41/48/37 49/80/65 51/81/66
f 48/58/46 47/63/51 55/78/62 56/59/47
f 46/67/55 45/66/54 53/79/64 54/77/61
f 44/71/57 43/70/38 51/74/66 52/73/63
f 41/48/37 42/57/45 50/60/48 49/80/65
f 64/82/67 63/83/68 79/84/69 80/85/70
f 49/80/71 50/60/72 58/86/72 57/87/71
f 50/60/72 56/59/73 64/82/73 58/86/72
f 55/78/74 54/77/75 62/88/75 63/83/74
f 53/79/76 52/73/59 60/76/59 61/89/76
f 51/81/60 49/80/71 57/87/71 59/90/60
f 56/59/73 55/78/74 63/83/74 64/82/73
f 54/77/75 53/79/76 61/89/76 62/88/75
f 72/91/77 71/92/78 87/93/78 88/94/77
f 62/88/79 61/89/80 77/95/81 78/96/82
f 60/76/83 59/75/84 75/97/85 76/98/86
f 57/87/87 58/86/88 74/99/89 73/100/90
f 58/86/88 64/82/67 80/85/70 74/99/89
f 63/83/68 62/88/79 78/96/82 79/84/69
f 61/89/80 60/76/83 76/98/86 77/95/81
f 59/90/84 57/87/87 73/100/90 75/101/85
f 66/102/91 65/103/92 73/100/90 74/99/89
f 65/103/92 67/104/93 75/101/85 73/100/90
f 67/105/93 68/106/94 76/98/86 75/97/85
f 68/106/94 69/107/95 77/95/81 76/98/86
f 69/107/95 70/108/96 78/96/82 77/95/81
f 70/108/96 71/109/97 79/84/69 78/96/82
f 71/109/97 72/110/98 80/85/70 79/84/69
f 72/110/98 66/102/91 74/99/89 80/85/70
f 83/111/99 81/112/100 89/113/100 91/114/99
f 70/115/101 69/116/102 85/117/102 86/118/101
f 68/119/103 67/120/104 83/121/104 84/122/103
f 65/123/105 66/124/106 82/125/106 81/112/105
f 66/124/106 72/91/77 88/94/77 82/125/106
f 71/92/78 70/115/101 86/118/101 87/93/78
f 69/116/102 68/119/103 84/122/103 85/117/102
f 67/126/104 65/123/105 81/112/105 83/111/104
f 89/127/107 90/128/107 96/129/107 95/130/107 94/131/107 93/132/107 92/133/107 91/134/107
f 88/94/108 87/93/109 95/135/109 96/136/108
f 86/118/110 85/117/111 93/137/111 94/138/110
f 84/122/112 83/121/99 91/139/99 92/140/112
f 81/112/100 82/125/113 90/141/113 89/113/100
f 82/125/113 88/94/108 96/136/108 90/141/113
f 87/93/109 86/118/110 94/138/110 95/135/109
f 85/117/111 84/122/112 92/140/112 93/137/111
f 65/142/114 67/143/114 68/144/114 69/145/114 70/146/114 71/147/114 72/148/114 66/149/114
