# Blender 4.3.2
# www.blender.org
o pistol1
v -0.220995 -0.029139 0.036902
v -0.227241 0.044187 0.036902
v -0.274258 0.004648 0.036902
v -0.236036 -0.012333 0.036902
v -0.214631 -0.053516 0.036902
v -0.222255 -0.083494 0.036902
v 0.096190 0.044062 0.036902
v -0.303959 -0.278643 0.036902
v 0.254380 0.044228 0.036902
v -0.276336 0.009874 0.036902
v 0.096242 -0.005070 0.020776
v 0.096225 0.011088 0.036902
v 0.254410 0.020670 0.036902
v 0.254432 0.004433 0.020776
v 0.123280 0.020532 0.036902
v 0.123301 0.004294 0.020776
v 0.109111 0.001540 0.020776
v 0.109344 0.017827 0.036902
v -0.046292 -0.015344 0.036902
v -0.033186 -0.021175 0.024147
v 0.013465 -0.005070 0.024147
v 0.012645 0.007658 0.036902
v -0.014134 -0.008640 0.024147
v -0.019574 0.003446 0.036902
v -0.054786 -0.044072 0.036902
v -0.038860 -0.043131 0.024147
v -0.049107 -0.070762 0.036902
v -0.033229 -0.069594 0.024147
v -0.057183 -0.085014 0.036902
v -0.042046 -0.085154 0.024147
v -0.091231 -0.104887 0.036902
v -0.066941 -0.104447 0.016684
v -0.104935 -0.126413 0.036902
v -0.082988 -0.129654 0.016684
v -0.161438 -0.299747 0.036902
v 0.092813 0.007658 0.036902
v 0.092878 -0.005070 0.024147
v -0.264939 0.023739 0.036902
v -0.234921 0.036351 0.036902
v -0.176664 0.044062 0.036902
v -0.152437 -0.294838 0.030642
v -0.154378 -0.300793 0.030642
v -0.136680 -0.297029 0.016684
v -0.220995 -0.029139 -0.036454
v -0.227241 0.044187 -0.036454
v -0.274258 0.004648 -0.036454
v -0.236036 -0.012333 -0.036454
v -0.214631 -0.053516 -0.036454
v -0.222255 -0.083494 -0.036454
v 0.096190 0.044062 -0.036454
v -0.303959 -0.278643 -0.036454
v 0.254380 0.044228 -0.036454
v -0.276336 0.009874 -0.036454
v 0.096242 -0.005070 -0.020328
v 0.096225 0.011088 -0.036454
v 0.254410 0.020670 -0.036454
v 0.254432 0.004433 -0.020328
v 0.123280 0.020532 -0.036454
v 0.123301 0.004294 -0.020328
v 0.109111 0.001540 -0.020328
v 0.109344 0.017827 -0.036454
v -0.046292 -0.015344 -0.036454
v -0.033186 -0.021175 -0.023699
v 0.013465 -0.005070 -0.023699
v 0.012645 0.007658 -0.036454
v -0.014134 -0.008640 -0.023699
v -0.019574 0.003446 -0.036454
v -0.054786 -0.044072 -0.036454
v -0.038860 -0.043131 -0.023699
v -0.049107 -0.070762 -0.036454
v -0.033229 -0.069594 -0.023699
v -0.057183 -0.085014 -0.036454
v -0.042046 -0.085154 -0.023699
v -0.091231 -0.104887 -0.036454
v -0.066941 -0.104447 -0.016236
v -0.104935 -0.126413 -0.036454
v -0.082988 -0.129654 -0.016236
v -0.161438 -0.299747 -0.036454
v 0.092813 0.007658 -0.036454
v 0.092878 -0.005070 -0.023699
v -0.264939 0.023739 -0.036454
v -0.234921 0.036351 -0.036454
v -0.176664 0.044062 -0.036454
v -0.152437 -0.294838 -0.030194
v -0.154378 -0.300793 -0.030194
v -0.136680 -0.297029 -0.016236
v -0.009318 -0.083630 0.019661
v -0.009318 -0.083630 -0.019213
v 0.029162 -0.090302 0.019661
v 0.029162 -0.083630 0.019661
v 0.029162 -0.090302 -0.019213
v 0.029162 -0.083630 -0.019213
v 0.051398 -0.086776 0.019661
v 0.048705 -0.080672 0.019661
v 0.051398 -0.086776 -0.019213
v 0.048705 -0.080672 -0.019213
v 0.073444 -0.072746 0.019661
v 0.067688 -0.069373 0.019661
v 0.073444 -0.072746 -0.019213
v 0.067688 -0.069373 -0.019213
v 0.082582 -0.051903 0.019661
v 0.075982 -0.050930 0.019661
v 0.082582 -0.051903 -0.019213
v 0.075982 -0.050930 -0.019213
v 0.083431 -0.031286 0.019661
v 0.074640 -0.031468 0.019661
v 0.083431 -0.031286 -0.019213
v 0.074640 -0.031468 -0.019213
v 0.086773 -0.018797 0.019661
v 0.061054 -0.013577 0.019661
v 0.086773 -0.018797 -0.019213
v 0.061054 -0.013577 -0.019213
v 0.100812 0.001284 0.019661
v 0.035841 0.000193 0.019661
v 0.100812 0.001284 -0.019213
v 0.035841 0.000193 -0.019213
v -0.028578 -0.090302 0.019661
v -0.026327 -0.075626 0.019661
v -0.028578 -0.090302 -0.019213
v -0.026327 -0.075626 -0.019213
v -0.054841 -0.094554 0.019661
v -0.043835 -0.052865 0.019661
v -0.054841 -0.094554 -0.019213
v -0.043835 -0.052865 -0.019213
v -0.048050 -0.056261 0.009342
v 0.013882 -0.074370 -0.009523
v -0.048050 -0.056261 -0.009523
v 0.013882 -0.074370 0.009342
v 0.005303 -0.065891 0.009342
v -0.041947 -0.071118 -0.009523
v 0.005303 -0.065891 -0.009523
v -0.041947 -0.071118 0.009342
v 0.011881 -0.079122 -0.009523
v 0.011881 -0.079122 0.009342
v -0.037645 -0.079422 -0.009523
v -0.037645 -0.079422 0.009342
v -0.000075 -0.054810 -0.009523
v -0.000075 -0.054810 0.009342
v -0.048050 -0.028345 0.009342
v 0.013882 -0.010237 -0.009523
v -0.048050 -0.028345 -0.009523
v 0.013882 -0.010237 0.009342
v 0.005303 -0.018716 0.009342
v -0.041947 -0.013488 -0.009523
v 0.005303 -0.018716 -0.009523
v -0.041947 -0.013488 0.009342
v -0.050551 -0.042303 0.009342
v -0.050551 -0.042303 -0.009523
v -0.001875 -0.042303 -0.009523
v -0.001875 -0.042303 0.009342
v 0.011881 -0.005484 -0.009523
v 0.011881 -0.005484 0.009342
v -0.037645 -0.005184 -0.009523
v -0.037645 -0.005184 0.009342
v -0.000075 -0.029797 -0.009523
v -0.000075 -0.029797 0.009342
v -0.241469 0.039229 0.047465
v -0.225862 0.129224 0.022398
v -0.241469 0.039229 -0.047645
v -0.225862 0.129224 -0.022578
v 0.406466 0.062254 0.016611
v 0.406466 0.106199 0.016611
v 0.406466 0.062254 -0.016792
v 0.406466 0.106199 -0.016792
v 0.253795 0.039229 -0.047645
v 0.253795 0.129224 -0.022578
v 0.253795 0.039229 0.047465
v 0.253795 0.129224 0.022398
v 0.406466 -0.037505 0.038005
v 0.406466 -0.037505 -0.038185
v 0.253795 -0.037505 0.038005
v 0.253795 -0.037505 -0.038185
v 0.390859 0.129224 -0.022578
v 0.406466 0.039229 -0.047645
v 0.406466 0.039229 0.047465
v 0.390859 0.129224 0.022398
v -0.225334 0.100016 0.044145
v -0.225334 0.100016 -0.044326
v 0.406466 0.084226 -0.047645
v 0.406466 0.084226 0.047465
v 0.237660 0.100016 0.044145
v 0.237660 0.100016 -0.044326
v 0.406466 0.084226 -0.027690
v 0.406466 0.084226 0.027509
v 0.065625 0.084226 -0.027690
v 0.065625 0.062254 -0.016792
v 0.065625 0.062254 0.016611
v 0.065625 0.106199 -0.016792
v 0.065625 0.106199 0.016611
v 0.065625 0.084226 0.027509
v -0.279644 0.020106 -0.037242
v -0.279644 0.020106 0.037062
v -0.310111 0.043890 -0.037242
v -0.310111 0.043890 0.037062
v -0.270072 0.067528 -0.042444
v -0.270072 0.067528 0.042263
v -0.260556 0.029667 -0.042444
v -0.260556 0.029667 0.042263
v 0.406466 0.115701 -0.022882
v 0.406466 0.054147 -0.024470
v 0.406466 0.054147 0.024289
v 0.406466 0.115701 0.022702
v 0.406466 0.084178 0.036380
v 0.406466 0.084178 -0.036561
v 0.415458 0.062254 0.016611
v 0.415458 0.106199 0.016611
v 0.415458 0.062254 -0.016792
v 0.415458 0.106199 -0.016792
v 0.415458 0.084226 -0.027690
v 0.415458 0.084226 0.027509
v 0.415458 0.115701 -0.022882
v 0.415458 0.054147 -0.024470
v 0.415458 0.054147 0.024289
v 0.415458 0.115701 0.022702
v 0.415458 0.084178 0.036380
v 0.415458 0.084178 -0.036561
v -0.225334 0.113435 0.041324
v -0.225334 0.113435 -0.041505
v 0.237660 0.113435 -0.041505
v 0.406466 0.129224 -0.038185
v 0.406466 0.129224 0.038005
v 0.237660 0.113435 0.041324
v 0.253795 0.149160 -0.022578
v 0.253795 0.149160 0.022398
v -0.225862 0.149160 0.022398
v -0.225862 0.149160 -0.022578
v 0.390859 0.149160 -0.022578
v 0.390859 0.149160 0.022398
v -0.241469 0.039229 -0.015942
v -0.241469 0.039229 0.015762
v -0.241469 0.129224 0.012608
v -0.241469 0.129224 -0.012789
v 0.406466 0.039229 0.015762
v 0.406466 0.039229 -0.015942
v 0.406466 0.129224 -0.012789
v 0.406466 0.129224 0.012608
v 0.253795 0.039229 -0.015942
v 0.253795 0.039229 0.015762
v 0.406466 -0.037505 0.012608
v 0.406466 -0.037505 -0.012789
v 0.253795 -0.037505 -0.012789
v 0.253795 -0.037505 0.012608
v 0.406466 0.062254 0.005477
v 0.406466 0.062254 -0.005657
v 0.406466 0.106199 -0.005657
v 0.406466 0.106199 0.005477
v -0.241469 0.084226 0.015762
v -0.241469 0.084226 -0.015942
v 0.065625 0.062254 0.005477
v 0.065625 0.062254 -0.005657
v 0.065625 0.106199 -0.005657
v 0.065625 0.106199 0.005477
v 0.065625 0.084226 -0.009290
v 0.065625 0.084226 0.009110
v -0.279644 0.020106 -0.012474
v -0.279644 0.020106 0.012294
v -0.310111 0.043890 0.012294
v -0.310111 0.043890 -0.012474
v -0.260556 0.029667 0.014028
v -0.260556 0.029667 -0.014208
v -0.270072 0.067528 -0.014208
v -0.270072 0.067528 0.014028
v 0.406466 0.115701 -0.007688
v 0.406466 0.115701 0.007507
v 0.406466 0.054147 0.008036
v 0.406466 0.054147 -0.008217
v 0.415458 0.062254 0.005477
v 0.415458 0.062254 -0.005657
v 0.415458 0.106199 -0.005657
v 0.415458 0.106199 0.005477
v 0.415458 0.115701 -0.007688
v 0.415458 0.115701 0.007507
v 0.415458 0.054147 0.008036
v 0.415458 0.054147 -0.008217
v -0.225862 0.129224 0.007406
v -0.225862 0.129224 -0.007586
v 0.390859 0.129224 -0.007586
v 0.390859 0.129224 0.007406
v 0.253795 0.149160 -0.007586
v 0.253795 0.149160 0.007406
v -0.225862 0.149160 0.007406
v -0.225862 0.149160 -0.007586
v 0.390859 0.149160 -0.007586
v 0.390859 0.149160 0.007406
v 0.253795 0.158135 0.007406
v 0.253795 0.158135 0.022398
v -0.225862 0.158135 -0.007586
v -0.225862 0.158135 -0.022578
v 0.253795 0.158135 -0.022578
v 0.390859 0.158135 -0.022578
v 0.390859 0.158135 0.007406
v 0.390859 0.158135 0.022398
v -0.225862 0.158135 0.022398
v 0.253795 0.158135 -0.007586
v -0.225862 0.158135 0.007406
v 0.390859 0.158135 -0.007586
v -0.241469 0.084226 0.047465
v -0.241469 0.129224 0.038005
v 0.253795 0.129224 0.038005
v -0.241469 0.129224 -0.038185
v 0.253795 0.129224 -0.038185
v -0.241469 0.084226 -0.047645
v 0.253795 0.084226 0.047465
v 0.253795 0.084226 -0.047645
v -0.225334 0.097678 0.033024
v -0.225334 0.111096 0.030203
v 0.237660 0.111096 0.030203
v 0.237660 0.097678 0.033024
v -0.225334 0.111702 -0.033264
v 0.237660 0.111702 -0.033264
v -0.225334 0.098284 -0.036085
v 0.237660 0.098284 -0.036085
vn -0.5712 -0.8208 -0.0000
vn -0.7080 -0.7031 -0.0664
vn -0.4793 -0.8776 -0.0000
vn 0.8700 -0.4930 -0.0000
vn 0.7665 -0.6423 -0.0000
vn 0.9998 -0.0216 -0.0000
vn 0.9682 -0.2502 -0.0000
vn 0.7309 -0.6825 -0.0000
vn 0.3270 -0.9450 -0.0000
vn 0.1878 -0.9822 -0.0000
vn 0.1317 0.9886 0.0736
vn 0.5368 0.8437 -0.0000
vn 0.6892 0.7211 -0.0707
vn 0.3280 0.9447 -0.0000
vn 0.3066 -0.6383 -0.7061
vn 0.2454 -0.6551 -0.7146
vn 0.5226 -0.4094 -0.7479
vn 0.6003 -0.3492 -0.7195
vn 0.2267 -0.6908 0.6866
vn 0.5935 -0.3251 0.7362
vn 0.5226 -0.4094 0.7479
vn 0.2454 -0.6551 0.7146
vn 0.0785 -0.9969 -0.0000
vn 0.3541 -0.9352 -0.0000
vn 0.5788 -0.5758 -0.5775
vn 0.4018 -0.6657 -0.6288
vn 0.4538 -0.6292 -0.6310
vn 0.0962 -0.9954 -0.0000
vn -0.9605 0.2672 -0.0777
vn -0.9862 -0.0680 -0.1511
vn -0.9764 -0.2103 0.0498
vn -0.9985 0.0546 -0.0000
vn 0.9059 -0.4234 -0.0012
vn 0.9523 -0.3051 -0.0021
vn 0.9528 -0.3035 0.0006
vn 0.9054 -0.4245 0.0018
vn 0.0011 -1.0000 -0.0000
vn -0.0000 -1.0000 -0.0000
vn 0.4148 -0.6684 0.6174
vn 0.5787 -0.5758 0.5775
vn 0.4538 -0.6292 0.6310
vn -0.7142 0.7000 -0.0000
vn -0.6400 0.7683 -0.0000
vn -0.4978 0.8650 -0.0638
vn 0.0458 -0.7059 -0.7068
vn 0.0573 -0.7129 -0.6990
vn -0.0000 -0.7079 -0.7064
vn -0.7725 0.6350 -0.0000
vn -0.5974 0.8019 -0.0000
vn 0.0710 -0.7028 -0.7078
vn 0.2546 -0.6822 -0.6854
vn 0.2500 -0.6950 -0.6742
vn 0.0431 -0.7067 -0.7062
vn 0.1083 -0.1306 -0.9855
vn -0.0000 -0.0000 -1.0000
vn 0.5369 -0.8436 -0.0000
vn -0.4257 0.9049 -0.0000
vn -0.2668 0.9617 -0.0628
vn -0.5041 0.8468 -0.1696
vn -0.6005 0.7895 0.1273
vn 0.6267 -0.1312 -0.7681
vn 0.6278 -0.0765 -0.7746
vn 0.5562 -0.5032 -0.6614
vn 0.5037 -0.6243 -0.5971
vn 0.0007 -0.7047 -0.7095
vn -0.1395 -0.9902 0.0010
vn 0.0199 -0.9878 -0.1543
vn 0.0143 -0.9870 0.1598
vn -0.1386 -0.9903 0.0020
vn -0.9562 0.2917 0.0253
vn -0.9224 0.3862 -0.0000
vn -0.9361 0.3518 -0.0000
vn 0.0352 -0.7143 0.6990
vn 0.0458 -0.7059 0.7068
vn 0.6401 0.0321 0.7676
vn 0.6318 -0.0288 0.7746
vn 0.5016 -0.6295 0.5935
vn 0.5562 -0.5032 0.6614
vn 0.5037 -0.6243 0.5971
vn 0.6060 -0.4700 0.6418
vn 0.6060 -0.4700 -0.6418
vn 0.5016 -0.6295 -0.5935
vn 0.6190 -0.3053 -0.7236
vn 0.6460 -0.2706 -0.7138
vn 0.6267 -0.1312 0.7681
vn 0.6278 -0.0765 0.7746
vn -0.9937 0.1124 -0.0000
vn -0.9930 -0.0924 0.0733
vn 0.0025 1.0000 -0.0000
vn 0.0025 1.0000 -0.0006
vn 0.0025 1.0000 0.0004
vn 0.9509 -0.3095 -0.0031
vn 0.9517 -0.3071 0.0009
vn 0.9156 -0.3393 0.2157
vn 0.9201 -0.3256 -0.2178
vn 0.9932 -0.1099 0.0378
vn 0.9395 -0.3426 -0.0000
vn 0.8758 -0.4792 -0.0567
vn 0.9786 -0.2057 -0.0000
vn -0.0375 0.9993 -0.0000
vn -0.1022 0.9944 0.0258
vn -0.0608 -0.0851 0.9945
vn -0.0388 -0.0000 0.9992
vn -0.0000 -0.0000 1.0000
vn -0.9292 -0.3695 -0.0000
vn 0.0643 -0.9979 -0.0000
vn 0.3479 -0.9375 -0.0000
vn -0.0168 0.9999 -0.0000
vn 0.8196 -0.5730 -0.0000
vn 0.9159 -0.4015 -0.0000
vn 0.9743 -0.2252 -0.0000
vn 0.7926 0.6097 -0.0000
vn -0.5235 -0.8495 0.0654
vn -0.8209 -0.5711 -0.0000
vn -0.9170 -0.3920 -0.0735
vn -0.6673 -0.7448 -0.0000
vn 0.5496 -0.8354 -0.0000
vn 0.2546 -0.6822 0.6854
vn 0.2049 -0.7098 0.6740
vn 0.9781 0.2081 -0.0000
vn -0.9669 0.2552 -0.0000
vn 0.0138 0.0401 0.9991
vn 0.0197 0.0285 0.9994
vn 0.6318 -0.0288 -0.7746
vn 0.6575 0.0189 -0.7532
vn 1.0000 0.0013 -0.0000
vn 0.0007 -0.7047 0.7095
vn 0.0431 -0.7067 0.7062
vn 0.0710 -0.7028 0.7078
vn -0.1465 -0.9892 -0.0000
vn -0.1488 -0.9889 0.0008
vn -0.1477 -0.9890 -0.0021
vn -0.1477 -0.9890 0.0028
vn -0.1492 -0.9888 0.0015
vn 0.6404 -0.2602 0.7226
vn 0.6189 -0.3067 0.7231
vn -0.0004 -0.0000 -1.0000
vn -0.0633 -0.0381 -0.9973
vn -0.0273 -0.0442 -0.9987
vn -0.8292 0.5589 -0.0000
vn -0.8466 0.5202 0.1122
vn -0.8786 -0.4775 -0.0000
vn -0.8174 -0.5582 0.1427
vn 0.6344 -0.2042 0.7456
vn 0.6326 -0.2054 -0.7467
vn 0.4805 -0.3567 -0.8012
vn -0.0000 -0.7079 0.7064
vn 0.0393 -0.9992 -0.0000
vn 0.1098 -0.9936 0.0281
vn -0.4060 -0.9139 -0.0000
vn 0.1598 -0.9871 -0.0000
vn 0.9561 -0.2931 -0.0000
vn 1.0000 -0.0000 -0.0000
vn 0.9561 0.2930 -0.0000
vn 0.7029 -0.7112 -0.0000
vn 0.8130 -0.5823 -0.0000
vn 0.9216 0.3881 -0.0000
vn -0.9073 0.4204 -0.0000
vn -0.9584 0.2853 0.0040
vn -0.9598 0.2808 -0.0070
vn 0.8130 0.5823 -0.0000
vn -1.0000 -0.0067 -0.0000
vn -1.0000 0.0044 -0.0050
vn -0.9598 -0.2807 0.0070
vn -0.9073 -0.4204 -0.0000
vn -0.9584 -0.2854 -0.0040
vn -0.8879 -0.4600 -0.0000
vn 0.9216 -0.3881 -0.0000
vn 0.0061 1.0000 -0.0000
vn -0.8879 0.4600 -0.0000
vn 0.7029 0.7112 -0.0000
vn 0.0061 -1.0000 -0.0000
vn -1.0000 -0.0000 -0.0000
vn -0.0000 0.2057 -0.9786
vn -0.0000 0.4443 0.8959
vn -0.0000 0.2057 0.9786
vn -0.0000 0.9786 0.2057
vn -0.0000 -0.1224 -0.9925
vn -0.0000 -0.1224 0.9925
vn -0.5084 0.8611 -0.0000
vn -0.0000 -0.4443 0.8959
vn -0.0000 0.4443 -0.8959
vn -0.0000 1.0000 -0.0000
vn -0.0000 -0.4443 -0.8959
vn -0.6154 -0.7882 -0.0000
vn -0.1275 -0.0827 -0.9884
vn -0.1275 -0.0827 0.9884
vn 0.4479 -0.8941 -0.0000
vn -0.2009 -0.0231 0.9793
vn -0.2009 -0.0231 -0.9793
vn -0.5042 0.8636 -0.0000
vn -0.0000 0.3981 -0.9174
vn -0.0000 -0.3735 0.9276
vn -0.0000 -0.3735 -0.9276
vn -0.0000 0.3981 0.9174
vn -0.0000 0.9786 -0.2057
vn -0.0000 -0.9786 0.2057
vn -0.0000 -0.9786 -0.2057
vn -0.0342 0.0251 -0.9991
vn 0.1112 -0.0523 -0.9924
vn 0.0899 0.0535 -0.9945
vn 0.0876 -0.0901 -0.9921
vn 0.0310 -0.0233 -0.9992
vn -0.0435 -0.0392 -0.9983
vn -0.0094 0.1358 -0.9907
vn -0.0987 0.0539 -0.9937
vn -0.0240 -0.0898 -0.9957
vn 0.0220 0.1495 -0.9885
vn -0.0175 0.0912 0.9957
vn 0.1116 -0.0136 0.9937
vn 0.0500 -0.1266 0.9907
vn 0.0151 0.0566 0.9983
vn 0.0104 -0.1507 0.9885
vn -0.1458 -0.0868 0.9855
vn -0.1221 0.0143 0.9924
vn 0.0424 -0.0000 0.9991
vn -0.1137 0.0535 0.9921
vn -0.0146 -0.0350 0.9993
vn -0.0010 0.0022 1.0000
vn -0.0117 -0.0246 0.9996
vn -0.0319 -0.1253 0.9916
vn -0.0499 -0.0384 0.9980
vn 0.0088 -0.0512 0.9987
vn 0.1111 -0.0631 0.9918
vn -0.0006 -0.0000 1.0000
vn -0.0271 -0.0687 0.9973
vn 0.0740 -0.0826 0.9938
vn -0.0389 -0.0994 0.9943
vn 0.0232 0.0009 0.9997
vn 0.0367 0.0466 0.9982
vn 0.0112 0.0113 0.9999
vn -0.0383 0.1041 -0.9938
vn 0.0748 0.0763 -0.9943
vn 0.0232 0.0009 -0.9997
vn -0.0493 -0.0330 -0.9982
vn -0.0126 0.0097 -0.9999
vn -0.0852 0.0952 -0.9918
vn -0.0329 0.0109 -0.9994
vn 0.0668 0.1107 -0.9916
vn 0.0002 0.0025 -1.0000
vn 0.0328 0.0191 -0.9993
vn -0.0243 -0.0123 -0.9996
vn 0.0319 0.0281 -0.9991
vn -0.0499 -0.0384 -0.9980
vn 0.6337 -0.2048 0.7459
vn 0.5027 -0.3823 0.7753
vn 0.6325 -0.2030 0.7475
vn 0.6300 -0.2048 -0.7491
vn 0.6339 -0.2058 -0.7456
vn 0.0011 0.0061 -1.0000
vn 0.0025 -0.0063 -1.0000
vn 0.0062 0.0028 -1.0000
vn 0.0062 -0.0028 1.0000
vn 0.0049 -0.0037 1.0000
vn 0.0025 0.0063 1.0000
vt 0.000000 0.000000
vt 0.500000 0.166667
vt 0.625000 0.166667
vt 0.625000 0.250000
vt 0.500000 0.250000
vt 0.500000 0.441093
vt 0.625000 0.441093
vt 0.625000 0.500000
vt 0.500000 0.500000
vt 0.420068 0.553234
vt 0.500000 0.553234
vt 0.543862 0.815132
vt 0.581138 0.815132
vt 0.375000 0.666667
vt 0.375000 0.750000
vt 0.631022 0.600403
vt 0.631022 0.551210
vt 0.683907 0.551210
vt 0.868978 0.551210
vt 0.125000 0.666667
vt 0.316093 0.666667
vt 0.316093 0.750000
vt 0.125000 0.750000
vt 0.500000 0.750000
vt 0.625000 0.750000
vt 0.625000 0.808907
vt 0.500000 0.808907
vt 0.543862 0.434868
vt 0.543862 0.256225
vt 0.375000 0.441093
vt 0.375000 0.500000
vt 0.375000 0.808907
vt 0.316093 0.583333
vt 0.316093 0.500000
vt 0.500000 0.537264
vt 0.406547 0.537264
vt 0.406547 0.654246
vt 0.406547 0.712737
vt 0.593453 0.595755
vt 0.593453 0.537264
vt 0.625000 0.583333
vt 0.500000 0.712736
vt 0.593453 0.712736
vt 0.375000 0.250000
vt 0.500000 1.000000
vt 0.375000 1.000000
vt 0.579932 0.648922
vt 0.579932 0.696766
vt 0.500000 0.166667
vt 0.436993 0.250000
vt 0.436993 0.166667
vt 0.500000 0.648922
vt 0.500000 0.696766
vt 0.420068 0.648922
vt 0.420068 0.696766
vt 0.579933 0.553234
vt 0.420068 0.601078
vt 0.375000 0.166667
vt 0.436993 1.000000
vt 0.406547 0.595755
vt 0.593453 0.654245
vt 0.579932 0.601078
vt 0.868978 0.600403
vt 0.875000 0.500000
vt 0.875000 0.583333
vt 0.683907 0.500000
vt 0.631022 0.649597
vt 0.631022 0.698790
vt 0.625000 0.666667
vt 0.683907 0.698790
vt 0.868978 0.698790
vt 0.875000 0.750000
vt 0.683907 0.750000
vt 0.683907 0.649597
vt 0.868978 0.649597
vt 0.683907 0.600403
vt 0.875000 0.666667
vt 0.500000 0.000000
vt 0.500000 0.083333
vt 0.500000 0.083333
vt 0.125000 0.500000
vt 0.125000 0.583333
vt 0.375000 0.000000
vt 0.436993 0.000000
vt 0.436993 0.083333
vt 0.375000 0.083333
vt 0.500000 0.601078
vt 0.375000 0.583333
vt 0.625000 0.000000
vt 0.625000 0.083333
vt 0.543862 0.993775
vt 0.581138 0.993775
vt 0.625000 1.000000
vt 0.581138 0.434868
vt 0.581138 0.256225
s 1
f 112/1/1 110/1/2 114/1/3 116/1/3
f 71/1/4 28/1/4 30/1/5 73/1/5
f 26/1/6 69/1/6 63/1/7 20/1/7
f 32/1/8 75/1/8 73/1/5 30/1/5
f 17/1/9 11/1/10 54/1/10 60/1/9
f 88/1/11 120/1/12 118/1/13 87/1/14
f 67/1/15 66/1/16 63/1/17 62/1/18
f 24/1/19 19/1/20 20/1/21 23/1/22
f 91/1/23 95/1/24 93/1/24 89/1/23
f 80/1/25 79/1/25 55/1/26 54/1/27
f 59/1/28 16/1/28 17/1/9 60/1/9
f 102/1/29 106/1/30 108/1/31 104/1/32
f 34/1/33 43/1/34 86/1/35 77/1/36
f 57/1/37 14/1/37 16/1/28 59/1/28
f 80/1/38 54/1/10 11/1/10
f 12/1/39 36/1/40 37/1/40 11/1/41
f 2/1/42 45/1/42 82/1/43 39/1/44
f 64/1/45 65/1/46 79/1/47 80/1/47
f 10/1/48 38/1/49 81/1/49 53/1/48
f 59/1/50 60/1/51 61/1/52 58/1/53
f 100/1/54 99/1/55 95/1/55
f 95/1/24 99/1/56 97/1/56 93/1/24
f 96/1/57 94/1/58 98/1/59 100/1/60
f 70/1/61 71/1/62 73/1/63 72/1/64
f 32/1/8 34/1/33 77/1/36 75/1/8
f 56/1/65 57/1/65 59/1/50 58/1/53
f 43/1/66 41/1/67 84/1/68 86/1/69
f 49/1/70 51/1/71 8/1/71 6/1/72
f 22/1/73 24/1/19 23/1/22 21/1/74
f 19/1/20 25/1/75 26/1/76 20/1/21
f 32/1/77 30/1/78 29/1/79 31/1/80
f 74/1/81 75/1/82 77/1/83 76/1/84
f 27/1/85 29/1/79 30/1/78 28/1/86
f 49/1/70 6/1/72 5/1/87 48/1/88
f 2/1/89 40/1/90 83/1/91 45/1/89
f 42/1/92 85/1/93 84/1/94 41/1/95
f 107/1/96 111/1/97 109/1/98 105/1/99
f 88/1/11 87/1/14 90/1/100 92/1/101
f 94/1/102 90/1/103 89/1/104
f 3/1/105 10/1/105 53/1/105 46/1/105
f 21/1/106 23/1/107 66/1/107 64/1/106
f 116/1/108 114/1/108 113/1/108 115/1/108
f 111/1/97 115/1/109 113/1/109 109/1/98
f 99/1/110 103/1/111 101/1/111 97/1/110
f 118/1/13 120/1/12 124/1/112 122/1/112
f 47/1/113 44/1/114 1/1/115 4/1/116
f 63/1/117 66/1/107 23/1/107 20/1/117
f 12/1/39 11/1/41 17/1/118 18/1/119
f 69/1/6 26/1/6 28/1/120 71/1/120
f 60/1/51 54/1/27 55/1/26 61/1/52
f 122/1/121 124/1/121 123/1/121 121/1/121
f 12/1/122 18/1/123 7/1/104
f 75/1/82 74/1/81 72/1/64 73/1/63
f 62/1/18 63/1/17 69/1/124 68/1/125
f 14/1/126 57/1/126 52/1/126
f 13/1/127 15/1/128 16/1/129 14/1/127
f 103/1/111 107/1/96 105/1/99 101/1/111
f 5/1/87 1/1/115 44/1/114 48/1/88
f 8/1/130 51/1/130 78/1/131 35/1/132
f 85/1/133 42/1/134 35/1/132 78/1/131
f 31/1/80 33/1/135 34/1/136 32/1/77
f 92/1/101 90/1/100 94/1/58 96/1/57
f 83/1/137 62/1/138 68/1/139
f 98/1/140 102/1/29 104/1/32 100/1/141
f 106/1/142 110/1/2 112/1/1 108/1/143
f 43/1/144 34/1/136 33/1/135
f 76/1/84 86/1/145 84/1/146
f 70/1/61 68/1/125 69/1/124 71/1/62
f 26/1/76 25/1/75 27/1/85 28/1/86
f 38/1/49 39/1/44 82/1/43 81/1/49
f 21/1/74 37/1/147 36/1/147 22/1/73
f 65/1/46 64/1/45 66/1/16 67/1/15
f 91/1/23 89/1/23 117/1/148 119/1/149
f 3/1/150 46/1/150 47/1/113 4/1/116
f 117/1/148 121/1/151 123/1/151 119/1/149
f 18/1/119 17/1/118 16/1/129 15/1/128
f 156/1/152 150/1/153 149/1/153 155/1/152
f 149/1/153 150/1/153 138/1/154 137/1/154
f 140/1/155 142/1/155 143/1/156 145/1/156
f 151/1/157 152/1/157 142/1/157 140/1/157
f 146/1/158 144/1/158 141/1/159 139/1/160
f 137/1/154 138/1/154 129/1/161 131/1/161
f 143/1/156 156/1/152 155/1/152 145/1/156
f 131/1/55 126/1/55 133/1/55
f 141/1/159 148/1/162 147/1/163 139/1/160
f 143/1/104 154/1/104 156/1/104
f 127/1/164 130/1/165 132/1/165 125/1/166
f 130/1/165 135/1/167 136/1/167 132/1/165
f 128/1/168 134/1/168 133/1/168 126/1/168
f 154/1/169 152/1/169 151/1/169 153/1/169
f 154/1/170 153/1/170 144/1/158 146/1/158
f 129/1/161 128/1/171 126/1/171 131/1/161
f 133/1/172 134/1/172 136/1/172 135/1/172
f 148/1/162 127/1/164 125/1/166 147/1/163
f 248/2/173 232/3/173 300/4/173 302/5/173
f 304/6/174 301/7/174 220/8/174 179/9/174
f 163/10/175 183/11/175 185/11/175 186/10/175
f 181/12/173 222/13/173 307/13/173 308/12/173
f 233/14/153 175/15/153 169/15/153 239/14/153
f 277/16/153 173/17/153 227/17/153 283/16/153
f 166/18/55 160/19/55 226/19/55 223/18/55
f 230/20/38 238/21/38 167/22/38 157/23/38
f 180/24/176 221/25/176 299/26/176 303/27/176
f 182/28/177 178/29/177 311/29/177 312/28/177
f 242/21/38 239/14/38 169/15/38 171/22/38
f 165/30/178 174/31/178 170/31/178 172/30/178
f 175/15/179 167/32/179 171/32/179 169/15/179
f 237/33/173 165/34/173 172/34/173 241/33/173
f 204/35/153 200/36/153 174/31/153 179/9/153
f 265/37/153 201/38/153 175/15/153 233/14/153
f 263/39/153 199/40/153 220/8/153 235/41/153
f 203/42/153 202/43/153 221/25/153 180/24/153
f 201/38/153 203/42/153 180/24/153 175/15/153
f 199/40/153 204/35/153 179/9/153 220/8/153
f 159/44/55 302/5/55 304/6/55 165/30/55
f 175/15/104 180/24/104 303/27/104 167/32/104
f 167/32/104 303/27/104 297/45/104 157/46/104
f 246/47/38 162/48/38 189/48/38 252/47/38
f 165/30/55 304/6/55 179/9/55 174/31/55
f 261/49/180 195/5/180 193/50/180 258/51/180
f 254/52/153 252/47/153 189/48/153 190/53/153
f 249/54/153 254/52/153 190/53/153 187/55/153
f 183/11/181 164/56/181 188/56/181 185/11/181
f 184/53/182 161/55/182 187/55/182 190/53/182
f 244/57/183 163/10/183 186/10/183 250/57/183
f 162/48/184 184/53/184 190/53/184 189/48/184
f 255/58/185 258/51/185 193/50/185 191/44/185
f 195/5/186 197/44/186 191/44/186 193/50/186
f 198/46/187 196/45/187 194/59/187 192/46/187
f 259/20/188 198/23/188 192/23/188 256/20/188
f 230/20/188 157/23/188 198/23/188 259/20/188
f 157/46/189 297/45/189 196/45/189 198/46/189
f 302/5/190 159/44/190 197/44/190 195/5/190
f 248/2/191 302/5/191 195/5/191 261/49/191
f 266/60/38 200/36/38 212/36/38 274/60/38
f 164/56/181 183/11/181 209/11/181 208/56/181
f 204/35/192 199/40/192 211/40/192 216/35/192
f 183/11/175 163/10/175 207/10/175 209/11/175
f 264/61/183 202/43/183 214/43/183 272/61/183
f 161/55/182 184/53/182 210/53/182 205/55/182
f 208/56/153 209/11/153 216/35/153 211/40/153
f 205/55/153 210/53/153 215/42/153 213/38/153
f 210/53/153 206/48/153 214/43/153 215/42/153
f 269/62/153 208/56/153 211/40/153 271/39/153
f 267/54/153 205/55/153 213/38/153 273/37/153
f 209/11/153 207/10/153 212/36/153 216/35/153
f 243/54/183 161/55/183 205/55/183 267/54/183
f 203/42/193 201/38/193 213/38/193 215/42/193
f 184/53/184 162/48/184 206/48/184 210/53/184
f 200/36/194 204/35/194 216/35/194 212/36/194
f 245/62/38 164/56/38 208/56/38 269/62/38
f 202/43/195 203/42/195 215/42/195 214/43/195
f 276/63/183 160/19/183 300/64/183 232/65/183
f 166/18/183 173/17/183 220/8/183 301/66/183
f 278/67/183 176/68/183 221/25/183 236/69/183
f 168/70/183 158/71/183 298/72/183 299/73/183
f 160/19/183 166/18/183 301/66/183 300/64/183
f 176/68/183 168/70/183 299/73/183 221/25/183
f 223/18/55 226/19/55 288/19/55 289/18/55
f 280/74/55 281/75/55 295/75/55 285/74/55
f 275/75/173 158/71/173 225/71/173 281/75/173
f 168/70/104 176/68/104 228/68/104 224/70/104
f 158/71/104 168/70/104 224/70/104 225/71/104
f 173/17/55 166/18/55 223/18/55 227/17/55
f 160/19/173 276/63/173 282/63/173 226/19/173
f 276/63/173 275/75/173 281/75/173 282/63/173
f 283/16/153 227/17/153 290/17/153 296/16/153
f 283/16/183 279/76/183 280/74/183 284/67/183
f 226/19/173 282/63/173 287/63/173 288/19/173
f 279/76/183 282/63/183 281/75/183 280/74/183
f 173/17/183 277/16/183 235/41/183 220/8/183
f 277/16/183 278/67/183 236/69/183 235/41/183
f 158/71/183 275/75/183 231/77/183 298/72/183
f 275/75/183 276/63/183 232/65/183 231/77/183
f 162/48/38 246/47/38 270/47/38 206/48/38
f 246/47/38 245/62/38 269/62/38 270/47/38
f 163/10/183 244/57/183 268/57/183 207/10/183
f 244/57/183 243/54/183 267/54/183 268/57/183
f 207/10/153 268/57/153 274/60/153 212/36/153
f 268/57/153 267/54/153 273/37/153 274/60/153
f 206/48/153 270/47/153 272/61/153 214/43/153
f 270/47/153 269/62/153 271/39/153 272/61/153
f 199/40/183 263/39/183 271/39/183 211/40/183
f 263/39/183 264/61/183 272/61/183 271/39/183
f 201/38/38 265/37/38 273/37/38 213/38/38
f 265/37/38 266/60/38 274/60/38 273/37/38
f 297/78/191 247/79/191 262/80/191 196/78/191
f 247/79/191 248/2/191 261/49/191 262/80/191
f 159/81/188 229/82/188 260/82/188 197/81/188
f 229/82/188 230/20/188 259/20/188 260/82/188
f 197/81/188 260/82/188 255/82/188 191/81/188
f 260/82/188 259/20/188 256/20/188 255/82/188
f 192/83/185 194/84/185 257/85/185 256/86/185
f 256/86/185 257/85/185 258/51/185 255/58/185
f 161/55/183 243/54/183 249/54/183 187/55/183
f 243/54/183 244/57/183 250/57/183 249/54/183
f 186/10/153 185/11/153 253/87/153 250/57/153
f 250/57/153 253/87/153 254/52/153 249/54/153
f 185/11/153 188/56/153 251/62/153 253/87/153
f 253/87/153 251/62/153 252/47/153 254/52/153
f 196/78/180 262/80/180 257/85/180 194/84/180
f 262/80/180 261/49/180 258/51/180 257/85/180
f 164/56/38 245/62/38 251/62/38 188/56/38
f 245/62/38 246/47/38 252/47/38 251/62/38
f 202/43/153 264/61/153 236/69/153 221/25/153
f 264/61/153 263/39/153 235/41/153 236/69/153
f 200/36/153 266/60/153 234/88/153 174/31/153
f 266/60/153 265/37/153 233/14/153 234/88/153
f 167/22/173 238/21/173 242/21/173 171/22/173
f 238/21/173 237/33/173 241/33/173 242/21/173
f 172/34/38 170/31/38 240/88/38 241/33/38
f 241/33/38 240/88/38 239/14/38 242/21/38
f 159/81/38 165/34/38 237/33/38 229/82/38
f 229/82/38 237/33/38 238/21/38 230/20/38
f 176/68/153 278/67/153 284/67/153 228/68/153
f 278/67/153 277/16/153 283/16/153 284/67/153
f 174/31/153 234/88/153 240/88/153 170/31/153
f 234/88/153 233/14/153 239/14/153 240/88/153
f 297/78/173 298/89/173 231/90/173 247/79/173
f 247/79/173 231/90/173 232/3/173 248/2/173
f 285/74/183 295/75/183 293/71/183 286/70/183
f 291/67/183 285/74/183 286/70/183 292/68/183
f 290/17/183 289/18/183 294/76/183 296/16/183
f 289/18/183 288/19/183 287/63/183 294/76/183
f 227/17/55 223/18/55 289/18/55 290/17/55
f 279/76/104 283/16/104 296/16/104 294/76/104
f 224/70/104 228/68/104 292/68/104 286/70/104
f 281/75/173 225/71/173 293/71/173 295/75/173
f 284/67/55 280/74/55 285/74/55 291/67/55
f 228/68/153 284/67/153 291/67/153 292/68/153
f 282/63/104 279/76/104 294/76/104 287/63/104
f 225/71/104 224/70/104 286/70/104 293/71/104
f 177/91/176 217/92/176 298/93/176 297/45/176
f 217/92/176 222/13/176 299/26/176 298/93/176
f 219/94/174 218/95/174 300/4/174 301/7/174
f 218/95/174 178/29/174 302/5/174 300/4/174
f 222/13/176 181/12/176 303/27/176 299/26/176
f 182/28/174 219/94/174 301/7/174 304/6/174
f 178/29/174 182/28/174 304/6/174 302/5/174
f 181/12/176 177/91/176 297/45/176 303/27/176
f 308/12/176 307/13/176 306/92/176 305/91/176
f 217/92/153 177/91/153 305/91/153 306/92/153
f 177/91/196 181/12/196 308/12/196 305/91/196
f 222/13/197 217/92/197 306/92/197 307/13/197
f 311/29/174 309/95/174 310/94/174 312/28/174
f 218/95/198 219/94/198 310/94/198 309/95/198
f 219/94/173 182/28/173 312/28/173 310/94/173
f 178/29/153 218/95/153 309/95/153 311/29/153
f 11/1/10 37/1/38 80/1/38
f 37/1/38 21/1/106 80/1/38
f 21/1/106 64/1/106 80/1/38
f 119/1/199 123/1/55 120/1/200
f 123/1/55 124/1/55 120/1/200
f 95/1/55 91/1/55 96/1/201
f 91/1/55 119/1/199 88/1/202
f 92/1/203 91/1/55 88/1/202
f 107/1/204 103/1/55 104/1/205
f 103/1/55 99/1/55 104/1/205
f 116/1/55 115/1/55 112/1/206
f 115/1/55 111/1/207 112/1/206
f 108/1/208 112/1/206 111/1/207
f 108/1/208 111/1/207 107/1/204
f 104/1/205 108/1/208 107/1/204
f 119/1/199 120/1/200 88/1/202
f 100/1/54 104/1/205 99/1/55
f 91/1/55 92/1/203 96/1/201
f 96/1/201 100/1/54 95/1/55
f 109/1/209 113/1/104 110/1/210
f 113/1/104 114/1/104 110/1/210
f 97/1/104 101/1/104 102/1/211
f 101/1/104 105/1/212 102/1/211
f 105/1/212 109/1/209 106/1/213
f 109/1/209 110/1/210 106/1/213
f 89/1/104 93/1/104 94/1/102
f 93/1/104 97/1/104 98/1/214
f 94/1/102 93/1/104 98/1/214
f 122/1/104 121/1/104 118/1/215
f 121/1/104 117/1/216 118/1/215
f 105/1/212 106/1/213 102/1/211
f 87/1/217 118/1/215 117/1/216
f 97/1/104 102/1/211 98/1/214
f 87/1/217 117/1/216 89/1/104
f 90/1/103 87/1/217 89/1/104
f 6/1/218 8/1/104 35/1/219
f 6/1/218 35/1/219 33/1/220
f 5/1/221 6/1/218 33/1/220
f 31/1/222 29/1/104 25/1/223
f 29/1/104 27/1/104 25/1/223
f 5/1/221 33/1/220 31/1/222
f 1/1/224 5/1/221 40/1/225
f 5/1/221 31/1/222 25/1/223
f 40/1/225 5/1/221 25/1/223
f 25/1/223 19/1/226 40/1/225
f 4/1/227 1/1/224 40/1/225
f 10/1/104 3/1/104 38/1/104
f 3/1/104 4/1/227 38/1/104
f 39/1/228 38/1/104 4/1/227
f 40/1/225 2/1/104 39/1/228
f 13/1/104 9/1/104 15/1/229
f 9/1/104 7/1/104 15/1/229
f 7/1/104 40/1/225 24/1/230
f 40/1/225 39/1/228 4/1/227
f 19/1/226 24/1/230 40/1/225
f 18/1/123 15/1/229 7/1/104
f 22/1/231 36/1/104 7/1/104
f 36/1/104 12/1/122 7/1/104
f 7/1/104 24/1/230 22/1/231
f 56/1/126 52/1/126 57/1/126
f 52/1/126 9/1/126 14/1/126
f 9/1/126 13/1/126 14/1/126
f 47/1/232 46/1/55 81/1/55
f 46/1/55 53/1/55 81/1/55
f 81/1/55 82/1/233 47/1/232
f 82/1/233 45/1/55 83/1/137
f 50/1/55 52/1/55 58/1/234
f 52/1/55 56/1/55 58/1/234
f 82/1/233 83/1/137 47/1/232
f 83/1/137 50/1/55 67/1/235
f 67/1/235 50/1/55 65/1/236
f 44/1/237 47/1/232 83/1/137
f 50/1/55 58/1/234 61/1/238
f 48/1/239 44/1/237 83/1/137
f 48/1/239 83/1/137 68/1/139
f 78/1/240 51/1/55 49/1/241
f 78/1/240 49/1/241 76/1/242
f 49/1/241 48/1/239 76/1/242
f 50/1/55 61/1/238 55/1/243
f 55/1/243 79/1/55 50/1/55
f 79/1/55 65/1/236 50/1/55
f 76/1/242 48/1/239 74/1/244
f 74/1/244 48/1/239 68/1/139
f 70/1/55 72/1/55 68/1/139
f 72/1/55 74/1/244 68/1/139
f 83/1/137 67/1/235 62/1/138
f 33/1/135 35/1/245 41/1/246
f 35/1/245 42/1/247 41/1/246
f 41/1/246 43/1/144 33/1/135
f 85/1/248 78/1/249 84/1/146
f 78/1/249 76/1/84 84/1/146
f 76/1/84 77/1/83 86/1/145
f 144/1/55 153/1/55 155/1/55
f 153/1/55 151/1/55 145/1/55
f 151/1/55 140/1/55 145/1/55
f 153/1/55 145/1/55 155/1/55
f 148/1/250 141/1/251 149/1/55
f 141/1/251 144/1/55 155/1/55
f 149/1/55 141/1/251 155/1/55
f 130/1/55 127/1/252 137/1/55
f 127/1/252 148/1/250 149/1/55
f 137/1/55 127/1/252 149/1/55
f 133/1/55 135/1/55 131/1/55
f 135/1/55 130/1/55 137/1/55
f 131/1/55 135/1/55 137/1/55
f 139/1/253 147/1/254 150/1/104
f 147/1/254 125/1/255 150/1/104
f 125/1/255 132/1/104 138/1/104
f 132/1/104 136/1/104 138/1/104
f 125/1/255 138/1/104 150/1/104
f 136/1/104 134/1/104 129/1/104
f 134/1/104 128/1/104 129/1/104
f 139/1/253 150/1/104 156/1/104
f 154/1/104 146/1/104 156/1/104
f 146/1/104 139/1/253 156/1/104
f 142/1/104 152/1/104 143/1/104
f 152/1/104 154/1/104 143/1/104
f 136/1/104 129/1/104 138/1/104
