# Blender 4.3.2
# www.blender.org
o sword1
v 0.279162 0.175442 0.005545
v 0.279162 0.175442 -0.005545
v 0.279162 0.182553 0.005545
v 0.279162 0.182553 -0.005545
v 0.085429 0.156057 -0.035777
v 0.085429 0.156057 0.035777
v 0.085429 0.201937 -0.035777
v 0.000000 0.156057 -0.035777
v 0.000000 0.156057 0.035777
v 0.000000 0.201937 -0.035777
v 0.000000 0.201937 0.035777
v 0.026232 0.156671 0.026055
v 0.026232 0.156671 -0.025218
v 0.000596 0.156671 -0.035715
v 0.036729 0.156671 0.000419
v 0.000000 -0.196825 0.022962
v 0.016590 -0.196825 0.016413
v 0.023139 -0.196825 0.000419
v 0.016590 -0.196825 -0.015576
v 0.037452 -0.275383 0.030145
v 0.037452 -0.199388 0.030145
v 0.000000 -0.290245 0.030145
v 0.052101 -0.237385 0.030145
v 0.000000 -0.290245 -0.028454
v 0.037452 -0.275383 -0.028454
v 0.052101 -0.237385 -0.028454
v 0.037452 -0.199388 -0.028454
v 0.035707 1.615806 -0.010921
v 0.035707 1.615806 0.010921
v 0.000000 1.735121 0.012017
v 0.062225 0.172811 0.017901
v 0.062225 0.172811 -0.017901
v 0.000000 0.172811 -0.019697
v 0.049627 1.620223 0.000000
v 0.075866 0.172813 0.000000
v 0.050521 0.653809 -0.015574
v 0.000000 0.654477 -0.017329
v 0.050521 0.653809 0.015574
v 0.064254 0.655283 0.000000
v 0.085429 0.201937 0.035777
v 0.000000 1.735121 -0.012017
v 0.000000 1.769759 0.000000
v 0.000000 0.650044 0.017351
v 0.000000 0.172811 0.019697
v 0.000000 -0.184525 0.030145
v 0.000000 -0.237385 0.030145
v 0.000000 -0.237385 -0.028454
v 0.000000 -0.184525 -0.028454
v 0.000000 0.156671 0.036552
v 0.000596 -0.196825 -0.022125
v -0.279162 0.175442 0.005545
v -0.279162 0.175442 -0.005545
v -0.279162 0.182553 0.005545
v -0.279162 0.182553 -0.005545
v -0.085429 0.156057 -0.035777
v -0.085429 0.156057 0.035777
v -0.085429 0.201937 -0.035777
v -0.026232 0.156671 0.026055
v -0.026232 0.156671 -0.025218
v -0.000596 0.156671 -0.035715
v -0.036729 0.156671 0.000419
v -0.016590 -0.196825 0.016413
v -0.023139 -0.196825 0.000419
v -0.016590 -0.196825 -0.015576
v -0.037452 -0.275383 0.030145
v -0.037452 -0.199388 0.030145
v -0.052101 -0.237385 0.030145
v -0.037452 -0.275383 -0.028454
v -0.052101 -0.237385 -0.028454
v -0.037452 -0.199388 -0.028454
v -0.035707 1.615806 -0.010921
v -0.035707 1.615806 0.010921
v -0.062225 0.172811 0.017901
v -0.062225 0.172811 -0.017901
v -0.049627 1.620223 0.000000
v -0.075866 0.172813 0.000000
v -0.050521 0.653809 -0.015574
v -0.050521 0.653809 0.015574
v -0.064254 0.655283 0.000000
v -0.085429 0.201937 0.035777
v -0.000596 -0.196825 -0.022125
v 0.279162 0.175442 -0.000000
v 0.085429 0.156057 -0.000000
v 0.085429 0.201937 0.000000
v 0.279162 0.182553 -0.000000
v 0.000000 0.201937 0.000000
v 0.000000 0.156057 -0.000000
v -0.279162 0.175442 -0.000000
v -0.085429 0.156057 -0.000000
v -0.085429 0.201937 0.000000
v -0.279162 0.182553 -0.000000
vn 0.0996 -0.9950 -0.0000
vn 0.1542 -0.0000 -0.9880
vn -0.0000 -1.0000 -0.0000
vn -0.0000 -0.0000 -1.0000
vn -0.0000 1.0000 -0.0000
vn 1.0000 -0.0000 -0.0000
vn -0.0000 -0.0000 1.0000
vn 0.9247 -0.0345 0.3791
vn 0.9248 -0.0356 0.3787
vn 0.9240 -0.0354 0.3809
vn 0.9250 -0.0348 -0.3783
vn 0.9248 -0.0356 -0.3787
vn 0.9249 -0.0337 -0.3786
vn 0.3689 0.9295 -0.0000
vn 0.3689 -0.9295 -0.0000
vn 0.9331 -0.3597 -0.0000
vn 0.9331 0.3597 -0.0000
vn 0.7735 0.0202 -0.6334
vn 0.0402 0.0052 0.9992
vn -0.0000 0.0052 1.0000
vn 0.6904 0.0123 0.7233
vn 0.6460 0.2021 0.7361
vn -0.0000 0.2647 0.9643
vn -0.0000 0.2647 -0.9643
vn 0.6460 0.2021 -0.7361
vn 0.6904 0.0123 -0.7233
vn 0.3716 -0.0345 0.9277
vn 0.3696 -0.0356 0.9285
vn 0.3779 -0.0333 -0.9253
vn 0.3787 -0.0356 -0.9248
vn 0.7735 0.0202 0.6334
vn 0.0315 0.0053 0.9995
vn -0.0000 0.0053 1.0000
vn -0.0000 0.0053 -1.0000
vn 0.0315 0.0053 -0.9995
vn 0.1542 -0.0000 0.9880
vn 0.0996 0.9950 -0.0000
vn -0.0000 0.0052 -1.0000
vn 0.0402 0.0052 -0.9992
vn -0.0996 -0.9950 -0.0000
vn -0.1542 -0.0000 -0.9880
vn -1.0000 -0.0000 -0.0000
vn -0.9247 -0.0344 0.3791
vn -0.9248 -0.0356 0.3787
vn -0.9240 -0.0354 0.3809
vn -0.9250 -0.0348 -0.3783
vn -0.9248 -0.0356 -0.3787
vn -0.9249 -0.0337 -0.3786
vn -0.3689 0.9295 -0.0000
vn -0.3689 -0.9295 -0.0000
vn -0.9331 -0.3597 -0.0000
vn -0.9331 0.3597 -0.0000
vn -0.7735 0.0202 -0.6334
vn -0.0402 0.0052 0.9992
vn -0.6904 0.0123 0.7233
vn -0.6460 0.2021 0.7361
vn -0.6460 0.2021 -0.7361
vn -0.6904 0.0123 -0.7233
vn -0.3716 -0.0345 0.9278
vn -0.3696 -0.0356 0.9285
vn -0.3779 -0.0333 -0.9253
vn -0.3787 -0.0356 -0.9248
vn -0.7735 0.0202 0.6334
vn -0.0315 0.0053 0.9995
vn -0.0315 0.0053 -0.9995
vn -0.1542 -0.0000 0.9880
vn -0.0996 0.9950 -0.0000
vn -0.0402 0.0052 -0.9992
vt 0.219129 0.097771
vt 0.259203 0.000000
vt 0.260687 0.004397
vt 0.243532 0.102301
vt 0.359910 0.216520
vt 0.352737 0.315018
vt 0.349290 0.315370
vt 0.329620 0.218497
vt 0.215134 0.158864
vt 0.240292 0.159683
vt 0.358038 0.158652
vt 0.325124 0.160483
vt 0.298695 0.161553
vt 0.273410 0.160741
vt 0.273906 0.102811
vt 0.298450 0.099889
vt 0.347660 0.318887
vt 0.354541 0.319344
vt 0.470032 0.000000
vt 0.489641 0.222142
vt 0.472225 0.223424
vt 0.459166 0.000800
vt 0.401760 0.224624
vt 0.401760 0.447631
vt 0.384299 0.447371
vt 0.390866 0.224462
vt 0.245780 0.351906
vt 0.276425 0.340091
vt 0.276425 0.365763
vt 0.257766 0.382998
vt 0.233793 0.320814
vt 0.259192 0.321063
vt 0.329340 0.350435
vt 0.317353 0.381527
vt 0.298695 0.364293
vt 0.298695 0.338621
vt 0.341327 0.319343
vt 0.315928 0.319593
vt 0.456162 0.352007
vt 0.419222 0.352007
vt 0.419222 0.326607
vt 0.456162 0.326607
vt 0.456162 0.428752
vt 0.419222 0.428752
vt 0.419222 0.403351
vt 0.456162 0.403351
vt 0.419222 0.377679
vt 0.456162 0.377679
vt 0.021639 0.305361
vt 0.008472 0.306435
vt 0.000000 0.000190
vt 0.014278 0.000000
vt 0.193404 0.305367
vt 0.183934 0.910492
vt 0.161210 0.976169
vt 0.161301 0.302958
vt 0.206570 0.306444
vt 0.194890 0.913858
vt 0.161207 0.999954
vt 0.053672 0.976213
vt 0.053669 1.000000
vt 0.020005 0.913892
vt 0.030963 0.910529
vt 0.454431 0.224197
vt 0.447933 0.001286
vt 0.412654 0.224462
vt 0.419222 0.447371
vt 0.200856 0.000011
vt 0.215134 0.000205
vt 0.161342 0.000000
vt 0.053775 -0.000000
vt 0.053743 0.305773
vt 0.264113 0.004162
vt 0.266022 0.000767
vt 0.215134 0.220131
vt 0.239876 0.217256
vt 0.249371 0.316393
vt 0.247646 0.320814
vt 0.353496 0.101031
vt 0.323092 0.102265
vt 0.330656 0.004222
vt 0.334053 0.004377
vt 0.294493 0.223091
vt 0.270159 0.218511
vt 0.328695 0.000912
vt 0.335414 0.000000
vt 0.425797 0.001289
vt 0.436691 0.001455
vt 0.436622 0.224462
vt 0.419160 0.224197
vt 0.414912 0.000807
vt 0.401714 0.223423
vt 0.232367 0.382749
vt 0.215134 0.363721
vt 0.215134 0.338049
vt 0.359986 0.362250
vt 0.342753 0.381278
vt 0.359986 0.336578
vt 0.456162 0.301206
vt 0.419222 0.301206
vt 0.456162 0.224462
vt 0.456162 0.249863
vt 0.419222 0.249863
vt 0.419222 0.224462
vt 0.456162 0.275535
vt 0.419222 0.275535
vt 0.085846 0.305368
vt 0.093271 0.000008
vt 0.107550 0.000201
vt 0.099013 0.306444
vt 0.129198 0.305358
vt 0.138504 0.910486
vt 0.127547 0.913849
vt 0.116031 0.306432
vt 0.076394 0.910533
vt 0.087351 0.913899
vt 0.404047 0.000000
vt 0.384299 0.222130
vt 0.121828 0.000000
vt 0.107550 0.000190
vt 0.252860 0.316667
vt 0.254597 0.320186
vt 0.377315 0.095546
vt 0.384299 0.157178
vt 0.298695 0.161962
vt 0.298900 0.099470
vt 0.384299 0.219221
vt 0.305880 0.224058
s 1
f 83/1/1 82/2/1 1/3/1 6/4/1
f 7/5/2 4/6/2 2/7/2 5/8/2
f 87/9/3 83/1/3 6/4/3 9/10/3
f 10/11/4 7/5/4 5/8/4 8/12/4
f 86/13/5 11/14/5 40/15/5 84/16/5
f 82/17/6 2/7/6 4/6/6 85/18/6
f 40/15/7 11/14/7 9/10/7 6/4/7
f 18/19/8 15/20/9 12/21/10 17/22/9
f 19/23/11 13/24/12 15/25/13 18/26/12
f 46/27/7 23/28/7 21/29/7 45/30/7
f 22/31/7 20/32/7 23/28/7 46/27/7
f 47/33/4 48/34/4 27/35/4 26/36/4
f 24/37/4 47/33/4 26/36/4 25/38/4
f 21/39/14 27/40/14 48/41/14 45/42/14
f 22/43/15 24/44/15 25/45/15 20/46/15
f 20/46/16 25/45/16 26/47/16 23/48/16
f 23/48/17 26/47/17 27/40/17 21/39/17
f 36/49/18 39/50/18 35/51/18 32/52/18
f 38/53/19 29/54/19 30/55/20 43/56/20
f 38/53/21 39/57/21 34/58/21 29/54/21
f 29/54/22 34/58/22 42/59/23 30/55/23
f 41/60/24 42/61/24 34/62/25 28/63/25
f 34/62/26 39/50/26 36/49/26 28/63/26
f 17/22/27 12/21/28 49/64/28 16/65/28
f 50/66/29 14/67/30 13/24/30 19/23/30
f 31/68/31 35/69/31 39/57/31 38/53/31
f 31/68/32 38/53/32 43/56/33 44/70/33
f 33/71/34 37/72/34 36/49/35 32/52/35
f 1/3/36 3/73/36 40/15/36 6/4/36
f 85/74/37 84/16/37 40/15/37 3/73/37
f 37/72/38 41/60/38 28/63/39 36/49/39
f 89/75/40 56/76/40 51/77/40 88/78/40
f 57/79/41 55/80/41 52/81/41 54/82/41
f 87/9/3 9/10/3 56/76/3 89/75/3
f 10/11/4 8/12/4 55/80/4 57/79/4
f 86/13/5 90/83/5 80/84/5 11/14/5
f 88/85/42 91/86/42 54/82/42 52/81/42
f 80/84/7 56/76/7 9/10/7 11/14/7
f 63/87/43 62/88/44 58/89/45 61/90/44
f 64/91/46 63/87/47 61/90/48 59/92/47
f 46/27/7 45/30/7 66/93/7 67/94/7
f 22/31/7 46/27/7 67/94/7 65/95/7
f 47/33/4 69/96/4 70/97/4 48/34/4
f 24/37/4 68/98/4 69/96/4 47/33/4
f 66/99/49 45/42/49 48/41/49 70/100/49
f 22/101/50 65/102/50 68/103/50 24/104/50
f 65/102/51 67/105/51 69/106/51 68/103/51
f 67/105/52 66/99/52 70/100/52 69/106/52
f 77/107/53 74/108/53 76/109/53 79/110/53
f 78/111/54 43/56/20 30/55/20 72/112/54
f 78/111/55 72/112/55 75/113/55 79/114/55
f 72/112/56 30/55/23 42/59/23 75/113/56
f 41/60/24 71/115/57 75/116/57 42/61/24
f 75/116/58 71/115/58 77/107/58 79/110/58
f 62/88/59 16/65/60 49/64/60 58/89/60
f 81/117/61 64/91/62 59/92/62 60/118/62
f 73/119/63 78/111/63 79/114/63 76/120/63
f 73/119/64 44/70/33 43/56/33 78/111/64
f 33/71/34 74/108/65 77/107/65 37/72/34
f 51/77/66 56/76/66 80/84/66 53/121/66
f 91/122/67 53/121/67 80/84/67 90/83/67
f 37/72/38 77/107/68 71/115/68 41/60/38
f 54/82/67 91/86/67 90/123/67 57/79/67
f 51/77/42 53/121/42 91/122/42 88/78/42
f 10/11/5 57/79/5 90/123/5 86/124/5
f 8/12/3 87/125/3 89/126/3 55/80/3
f 55/80/40 89/126/40 88/85/40 52/81/40
f 4/6/37 7/5/37 84/127/37 85/18/37
f 1/3/6 82/2/6 85/74/6 3/73/6
f 10/11/5 86/124/5 84/127/5 7/5/5
f 8/12/3 5/8/3 83/128/3 87/125/3
f 5/8/1 2/7/1 82/17/1 83/128/1
