# Blender 4.5.1 LTS
# www.blender.org
o Plane
v -2.000000 0.000000 2.000000
v 2.000000 0.000000 2.000000
v -2.000000 0.000000 -2.000000
v 2.000000 0.000000 -2.000000
v -2.000000 0.000000 2.624100
v 2.000000 0.000000 2.624100
v -1.886363 0.000000 -1.886363
v -1.886363 0.000000 1.886363
v 1.886363 0.000000 -1.886363
v 1.886363 0.000000 1.886363
vn -0.0000 1.0000 -0.0000
vt 1.000000 0.994041
vt 0.000000 0.994041
vt 0.000000 0.000000
vt 1.000000 0.000000
vt 0.028409 0.996468
vt 0.028409 0.997573
vt 0.000000 1.000000
vt 0.971591 0.996468
vt 0.971591 0.997573
vt 1.000000 1.000000
s 0
f 2/1/1 1/2/1 5/3/1 6/4/1
f 8/5/1 7/6/1 3/7/1 1/2/1
f 10/8/1 8/5/1 1/2/1 2/1/1
f 9/9/1 10/8/1 2/1/1 4/10/1
f 7/6/1 9/9/1 4/10/1 3/7/1
