# Blender 4.5.1 LTS
# www.blender.org
o Cylinder.001
v 0.000000 0.000000 -1.000000
v 0.876426 2.000000 0.481537
v 0.195090 0.000000 -0.980785
v 0.765642 2.000000 0.643266
v 0.382683 0.000000 -0.923880
v 0.625436 2.000000 0.780276
v 0.555570 0.000000 -0.831470
v 0.461194 2.000000 0.887299
v 0.707107 0.000000 -0.707107
v 0.279229 2.000000 0.960225
v 0.831470 0.000000 -0.555570
v 0.086533 2.000000 0.996249
v 0.923880 0.000000 -0.382683
v -0.109488 2.000000 0.993988
v 0.980785 0.000000 -0.195090
v -0.301302 2.000000 0.953529
v 1.000000 0.000000 0.000000
v -0.481537 2.000000 0.876426
v 0.980785 0.000000 0.195090
v -0.643266 2.000000 0.765642
v 0.923880 0.000000 0.382683
v -0.780276 2.000000 0.625436
v 0.831470 0.000000 0.555570
v -0.887299 2.000000 0.461194
v 0.707107 0.000000 0.707107
v -0.960225 2.000000 0.279229
v 0.555570 0.000000 0.831470
v -0.996249 2.000000 0.086533
v 0.382683 0.000000 0.923880
v -0.993988 2.000000 -0.109488
v 0.195090 0.000000 0.980785
v -0.953529 2.000000 -0.301302
v 0.000000 0.000000 1.000000
v -0.876426 2.000000 -0.481537
v -0.195090 0.000000 0.980785
v -0.765642 2.000000 -0.643266
v -0.382683 0.000000 0.923880
v -0.625436 2.000000 -0.780276
v -0.555570 0.000000 0.831470
v -0.461194 2.000000 -0.887299
v -0.707107 0.000000 0.707107
v -0.279229 2.000000 -0.960225
v -0.831470 0.000000 0.555570
v -0.086533 2.000000 -0.996249
v -0.923880 0.000000 0.382683
v 0.109488 2.000000 -0.993988
v -0.980785 0.000000 0.195090
v 0.301302 2.000000 -0.953529
v -1.000000 0.000000 0.000000
v 0.481537 2.000000 -0.876426
v -0.980785 0.000000 -0.195090
v 0.643266 2.000000 -0.765642
v -0.923880 0.000000 -0.382683
v 0.780276 2.000000 -0.625436
v -0.831470 0.000000 -0.555570
v 0.887299 2.000000 -0.461194
v -0.707107 0.000000 -0.707107
v 0.960225 2.000000 -0.279229
v -0.555570 0.000000 -0.831470
v 0.996249 2.000000 -0.086533
v -0.382683 0.000000 -0.923880
v 0.993988 2.000000 0.109488
v -0.195090 0.000000 -0.980785
v 0.953529 2.000000 0.301302
v -0.917942 0.250000 -0.396714
v -0.593246 0.500000 0.805021
v 0.649966 0.750000 0.759964
v 0.888112 1.000000 -0.459626
v -0.241581 1.250000 -0.970381
v -0.999999 1.500000 0.001298
v -0.274216 1.750000 0.961668
v -0.456560 1.750000 0.889693
v -0.981038 1.500000 -0.193817
v -0.047627 1.250000 -0.998865
v 0.960716 1.000000 -0.277533
v 0.489215 0.750000 0.872163
v -0.738899 0.500000 0.673816
v -0.822909 0.250000 -0.568173
v -0.621357 1.750000 0.783527
v -0.924376 1.500000 -0.381484
v 0.148157 1.250000 -0.988964
v 0.996400 1.000000 -0.084773
v 0.309664 0.750000 0.950846
v -0.856156 0.500000 0.516717
v -0.696252 0.250000 -0.717797
v -0.762277 1.750000 0.647251
v -0.832190 1.500000 -0.554490
v 0.338248 1.250000 -0.941057
v 0.993793 1.000000 0.111244
v 0.118215 0.750000 0.992988
v -0.940512 0.500000 0.339762
v -0.542840 0.250000 -0.839836
v -0.873902 1.750000 0.486102
v -0.708024 1.500000 -0.706188
v 0.515339 1.250000 -0.856986
v 0.952995 1.000000 0.302985
v -0.077779 0.750000 0.996970
v -0.988724 0.500000 0.149748
v -0.368565 0.250000 -0.929602
v -0.951944 1.750000 0.306272
v -0.556649 1.500000 -0.830748
v 0.672627 1.250000 -0.739982
v 0.875574 1.000000 0.483084
v -0.270784 0.750000 0.962640
v -0.998941 0.500000 -0.046019
v -0.180127 0.250000 -0.983643
v -0.993403 1.750000 0.114671
v -0.383883 1.500000 -0.923382
v 0.804066 1.250000 -0.594540
v 0.764505 1.000000 0.644618
v -0.453384 0.750000 0.891315
v -0.970768 0.500000 -0.240020
v 0.015234 0.250000 -0.999884
v -0.996687 1.750000 -0.081335
v -0.196363 1.500000 -0.980531
v 0.904605 1.250000 -0.426251
v 0.624057 1.000000 0.781379
v -0.618559 0.750000 0.785738
v -0.905289 0.500000 -0.424795
v 0.210010 0.250000 -0.977699
v -0.961668 1.750000 -0.274216
v -0.001298 1.500000 -0.999999
v 0.970381 1.250000 -0.241581
v 0.459626 1.000000 0.888112
v -0.759964 0.750000 0.649966
v -0.805021 0.500000 -0.593246
v 0.396714 0.250000 -0.917942
v -0.889693 1.750000 -0.456560
v 0.193817 1.500000 -0.981038
v 0.998865 1.250000 -0.047627
v 0.277533 1.000000 0.960716
v -0.872163 0.750000 0.489215
v -0.673816 0.500000 -0.738899
v 0.568173 0.250000 -0.822909
v -0.783527 1.750000 -0.621357
v 0.381484 1.500000 -0.924376
v 0.988964 1.250000 0.148157
v 0.084773 1.000000 0.996400
v -0.950846 0.750000 0.309664
v -0.516717 0.500000 -0.856156
v 0.717797 0.250000 -0.696252
v -0.647251 1.750000 -0.762277
v 0.554490 1.500000 -0.832190
v 0.941057 1.250000 0.338248
v -0.111244 1.000000 0.993793
v -0.992988 0.750000 0.118215
v -0.339762 0.500000 -0.940512
v 0.839836 0.250000 -0.542840
v -0.486102 1.750000 -0.873902
v 0.706188 1.500000 -0.708024
v 0.856986 1.250000 0.515339
v -0.302985 1.000000 0.952995
v -0.996970 0.750000 -0.077779
v -0.149748 0.500000 -0.988724
v 0.929602 0.250000 -0.368565
v -0.306272 1.750000 -0.951944
v 0.830748 1.500000 -0.556649
v 0.739982 1.250000 0.672627
v -0.483084 1.000000 0.875574
v -0.962640 0.750000 -0.270784
v 0.046019 0.500000 -0.998941
v 0.983643 0.250000 -0.180127
v -0.114671 1.750000 -0.993403
v 0.923382 1.500000 -0.383883
v 0.594540 1.250000 0.804066
v -0.644618 1.000000 0.764505
v -0.891315 0.750000 -0.453384
v 0.240020 0.500000 -0.970768
v 0.999884 0.250000 0.015234
v 0.081335 1.750000 -0.996687
v 0.980531 1.500000 -0.196364
v 0.426251 1.250000 0.904605
v -0.781379 1.000000 0.624057
v -0.785738 0.750000 -0.618559
v 0.424795 0.500000 -0.905289
v 0.977699 0.250000 0.210010
v 0.274216 1.750000 -0.961668
v 0.999999 1.500000 -0.001298
v 0.241581 1.250000 0.970381
v -0.888112 1.000000 0.459626
v -0.649966 0.750000 -0.759964
v 0.593246 0.500000 -0.805021
v 0.917942 0.250000 0.396714
v 0.456560 1.750000 -0.889693
v 0.981038 1.500000 0.193817
v 0.047627 1.250000 0.998865
v -0.960716 1.000000 0.277533
v -0.489215 0.750000 -0.872163
v 0.738899 0.500000 -0.673816
v 0.822909 0.250000 0.568173
v 0.621357 1.750000 -0.783527
v 0.924376 1.500000 0.381484
v -0.148157 1.250000 0.988964
v -0.996400 1.000000 0.084773
v -0.309664 0.750000 -0.950846
v 0.856156 0.500000 -0.516717
v 0.696252 0.250000 0.717797
v 0.762277 1.750000 -0.647251
v 0.832190 1.500000 0.554490
v -0.338248 1.250000 0.941057
v -0.993793 1.000000 -0.111244
v -0.118215 0.750000 -0.992988
v 0.940512 0.500000 -0.339762
v 0.542840 0.250000 0.839836
v 0.873902 1.750000 -0.486102
v 0.708024 1.500000 0.706188
v -0.515339 1.250000 0.856986
v -0.952995 1.000000 -0.302985
v 0.077779 0.750000 -0.996970
v 0.988724 0.500000 -0.149748
v 0.368565 0.250000 0.929602
v 0.951944 1.750000 -0.306272
v 0.556649 1.500000 0.830748
v -0.672627 1.250000 0.739982
v -0.875574 1.000000 -0.483084
v 0.270784 0.750000 -0.962640
v 0.998941 0.500000 0.046019
v 0.180127 0.250000 0.983643
v 0.993403 1.750000 -0.114672
v 0.383883 1.500000 0.923382
v -0.804066 1.250000 0.594540
v -0.764505 1.000000 -0.644618
v 0.453384 0.750000 -0.891315
v 0.970768 0.500000 0.240020
v -0.015234 0.250000 0.999884
v 0.996687 1.750000 0.081335
v 0.196364 1.500000 0.980531
v -0.904605 1.250000 0.426251
v -0.624057 1.000000 -0.781379
v 0.618559 0.750000 -0.785738
v 0.905289 0.500000 0.424795
v -0.210010 0.250000 0.977699
v 0.961668 1.750000 0.274216
v 0.001298 1.500000 0.999999
v -0.970381 1.250000 0.241581
v -0.459626 1.000000 -0.888112
v 0.759964 0.750000 -0.649966
v 0.805021 0.500000 0.593246
v -0.396714 0.250000 0.917942
v 0.889693 1.750000 0.456560
v -0.193817 1.500000 0.981038
v -0.998865 1.250000 0.047627
v -0.277533 1.000000 -0.960716
v 0.872163 0.750000 -0.489215
v 0.673816 0.500000 0.738899
v -0.568173 0.250000 0.822909
v 0.783527 1.750000 0.621357
v -0.381484 1.500000 0.924376
v -0.988964 1.250000 -0.148157
v -0.084773 1.000000 -0.996400
v 0.950846 0.750000 -0.309664
v 0.516717 0.500000 0.856156
v -0.717797 0.250000 0.696252
v 0.647251 1.750000 0.762277
v -0.554490 1.500000 0.832190
v -0.941057 1.250000 -0.338248
v 0.111244 1.000000 -0.993793
v 0.992988 0.750000 -0.118215
v 0.339762 0.500000 0.940512
v -0.839836 0.250000 0.542840
v 0.486102 1.750000 0.873902
v -0.706188 1.500000 0.708024
v -0.856986 1.250000 -0.515339
v 0.302985 1.000000 -0.952995
v 0.996970 0.750000 0.077779
v 0.149748 0.500000 0.988724
v -0.929602 0.250000 0.368565
v 0.306272 1.750000 0.951944
v -0.830748 1.500000 0.556649
v -0.739982 1.250000 -0.672627
v 0.483084 1.000000 -0.875574
v 0.962640 0.750000 0.270784
v -0.046019 0.500000 0.998941
v -0.983643 0.250000 0.180127
v 0.114672 1.750000 0.993403
v -0.923382 1.500000 0.383883
v -0.594540 1.250000 -0.804066
v 0.644618 1.000000 -0.764505
v 0.891315 0.750000 0.453384
v -0.240020 0.500000 0.970768
v -0.999884 0.250000 -0.015234
v -0.081335 1.750000 0.996687
v -0.980531 1.500000 0.196364
v -0.426251 1.250000 -0.904605
v 0.781379 1.000000 -0.624057
v 0.785738 0.750000 0.618559
v -0.424795 0.500000 0.905289
v -0.977699 0.250000 -0.210010
vn -0.4953 -0.0000 -0.8687
vn 0.4381 -0.0000 0.8989
vn -0.3163 -0.0000 -0.9486
vn 0.2543 -0.0000 0.9671
vn -0.1252 -0.0000 -0.9921
vn 0.0607 -0.0000 0.9982
vn 0.0708 -0.0000 -0.9975
vn -0.1352 -0.0000 0.9908
vn 0.2640 -0.0000 -0.9645
vn -0.3259 -0.0000 0.9454
vn 0.4471 -0.0000 -0.8945
vn -0.5041 -0.0000 0.8637
vn 0.6130 -0.0000 -0.7901
vn -0.6629 -0.0000 0.7487
vn 0.7554 -0.0000 -0.6553
vn -0.7962 -0.0000 0.6050
vn 0.8687 -0.0000 -0.4953
vn -0.8989 -0.0000 0.4381
vn 0.9486 -0.0000 -0.3163
vn -0.9671 -0.0000 0.2543
vn 0.9921 -0.0000 -0.1252
vn -0.9982 -0.0000 0.0607
vn 0.9975 -0.0000 0.0708
vn -0.9908 -0.0000 -0.1352
vn 0.9645 -0.0000 0.2640
vn -0.9454 -0.0000 -0.3259
vn 0.8945 -0.0000 0.4471
vn -0.8637 -0.0000 -0.5041
vn 0.7901 -0.0000 0.6130
vn -0.7487 -0.0000 -0.6629
vn 0.6553 -0.0000 0.7554
vn -0.6050 -0.0000 -0.7962
vn 0.4953 -0.0000 0.8687
vn -0.4381 -0.0000 -0.8989
vn 0.3163 -0.0000 0.9486
vn -0.2543 -0.0000 -0.9671
vn 0.1252 -0.0000 0.9921
vn -0.0607 -0.0000 -0.9982
vn -0.0708 -0.0000 0.9975
vn 0.1352 -0.0000 -0.9908
vn -0.2640 -0.0000 0.9645
vn 0.3259 -0.0000 -0.9454
vn -0.4471 -0.0000 0.8945
vn 0.5041 -0.0000 -0.8637
vn -0.6130 -0.0000 0.7901
vn 0.6629 -0.0000 -0.7487
vn -0.7554 -0.0000 0.6553
vn 0.7962 -0.0000 -0.6050
vn -0.8687 -0.0000 0.4953
vn 0.8989 -0.0000 -0.4381
vn -0.9486 -0.0000 0.3163
vn 0.9671 -0.0000 -0.2543
vn -0.9921 -0.0000 0.1252
vn 0.9982 -0.0000 -0.0607
vn -0.9975 -0.0000 -0.0708
vn 0.9908 -0.0000 0.1352
vn -0.9645 -0.0000 -0.2640
vn 0.9454 -0.0000 0.3259
vn -0.8945 -0.0000 -0.4471
vn 0.8637 -0.0000 0.5041
vn -0.7901 -0.0000 -0.6130
vn 0.7487 -0.0000 0.6629
vn -0.6553 -0.0000 -0.7554
vn 0.6050 -0.0000 0.7962
vn -0.9356 -0.0000 -0.3531
vn -0.5935 -0.0000 0.8049
vn 0.6496 -0.0000 0.7603
vn 0.8885 -0.0000 -0.4588
vn -0.2393 -0.0000 -0.9710
vn -1.0000 -0.0000 -0.0082
vn -0.2605 -0.0000 0.9655
vn -0.4439 -0.0000 0.8961
vn -0.9792 -0.0000 -0.2031
vn -0.0452 -0.0000 -0.9990
vn 0.9610 -0.0000 -0.2766
vn 0.4888 -0.0000 0.8724
vn -0.7391 -0.0000 0.6736
vn -0.8487 -0.0000 -0.5289
vn -0.6102 -0.0000 0.7923
vn -0.9207 -0.0000 -0.3902
vn 0.1505 -0.0000 -0.9886
vn 0.9965 -0.0000 -0.0838
vn 0.3092 -0.0000 0.9510
vn -0.8563 -0.0000 0.5165
vn -0.7292 -0.0000 -0.6843
vn -0.7530 -0.0000 0.6580
vn -0.8269 -0.0000 -0.5624
vn 0.3405 -0.0000 -0.9402
vn 0.9937 -0.0000 0.1122
vn 0.1177 -0.0000 0.9930
vn -0.9406 -0.0000 0.3395
vn -0.5817 -0.0000 -0.8134
vn -0.8669 -0.0000 0.4985
vn -0.7013 -0.0000 -0.7129
vn 0.5174 -0.0000 -0.8558
vn 0.9527 -0.0000 0.3039
vn -0.0782 -0.0000 0.9969
vn -0.9888 -0.0000 0.1495
vn -0.4118 -0.0000 -0.9113
vn -0.9475 -0.0000 0.3198
vn -0.5487 -0.0000 -0.8360
vn 0.6744 -0.0000 -0.7384
vn 0.8751 -0.0000 0.4839
vn -0.2712 -0.0000 0.9625
vn -0.9989 -0.0000 -0.0463
vn -0.2261 -0.0000 -0.9741
vn -0.9917 -0.0000 0.1288
vn -0.3751 -0.0000 -0.9270
vn 0.8055 -0.0000 -0.5926
vn 0.7639 -0.0000 0.6453
vn -0.4538 -0.0000 0.8911
vn -0.9707 -0.0000 -0.2403
vn -0.0318 -0.0000 -0.9995
vn -0.9977 -0.0000 -0.0672
vn -0.1870 -0.0000 -0.9824
vn 0.9056 -0.0000 -0.4241
vn 0.6233 -0.0000 0.7820
vn -0.6189 -0.0000 0.7854
vn -0.9052 -0.0000 -0.4250
vn 0.1638 -0.0000 -0.9865
vn -0.9655 -0.0000 -0.2605
vn 0.0082 -0.0000 -1.0000
vn 0.9710 -0.0000 -0.2393
vn 0.4588 -0.0000 0.8885
vn -0.7603 -0.0000 0.6496
vn -0.8049 -0.0000 -0.5935
vn 0.3531 -0.0000 -0.9356
vn -0.8961 -0.0000 -0.4439
vn 0.2031 -0.0000 -0.9792
vn 0.9990 -0.0000 -0.0452
vn 0.2766 -0.0000 0.9610
vn -0.8724 -0.0000 0.4888
vn -0.6736 -0.0000 -0.7391
vn 0.5289 -0.0000 -0.8487
vn -0.7923 -0.0000 -0.6102
vn 0.3902 -0.0000 -0.9207
vn 0.9886 -0.0000 0.1505
vn 0.0838 -0.0000 0.9965
vn -0.9510 -0.0000 0.3092
vn -0.5165 -0.0000 -0.8563
vn 0.6843 -0.0000 -0.7292
vn -0.6580 -0.0000 -0.7530
vn 0.5624 -0.0000 -0.8269
vn 0.9402 -0.0000 0.3405
vn -0.1122 -0.0000 0.9937
vn -0.9930 -0.0000 0.1177
vn -0.3395 -0.0000 -0.9406
vn 0.8134 -0.0000 -0.5817
vn -0.4985 -0.0000 -0.8669
vn 0.7129 -0.0000 -0.7013
vn 0.8558 -0.0000 0.5174
vn -0.3039 -0.0000 0.9527
vn -0.9969 -0.0000 -0.0782
vn -0.1495 -0.0000 -0.9888
vn 0.9113 -0.0000 -0.4118
vn -0.3198 -0.0000 -0.9475
vn 0.8360 -0.0000 -0.5487
vn 0.7384 -0.0000 0.6744
vn -0.4839 -0.0000 0.8751
vn -0.9625 -0.0000 -0.2712
vn 0.0463 -0.0000 -0.9989
vn 0.9741 -0.0000 -0.2261
vn -0.1288 -0.0000 -0.9917
vn 0.9270 -0.0000 -0.3751
vn 0.5926 -0.0000 0.8055
vn -0.6453 -0.0000 0.7639
vn -0.8911 -0.0000 -0.4538
vn 0.2403 -0.0000 -0.9707
vn 0.9995 -0.0000 -0.0318
vn 0.0672 -0.0000 -0.9977
vn 0.9824 -0.0000 -0.1871
vn 0.4241 -0.0000 0.9056
vn -0.7820 -0.0000 0.6233
vn -0.7854 -0.0000 -0.6189
vn 0.4250 -0.0000 -0.9052
vn 0.9865 -0.0000 0.1638
vn 0.2605 -0.0000 -0.9655
vn 1.0000 -0.0000 0.0082
vn 0.2393 -0.0000 0.9710
vn -0.8885 -0.0000 0.4588
vn -0.6496 -0.0000 -0.7603
vn 0.5935 -0.0000 -0.8049
vn 0.9356 -0.0000 0.3531
vn 0.4439 -0.0000 -0.8961
vn 0.9792 -0.0000 0.2031
vn 0.0452 -0.0000 0.9990
vn -0.9610 -0.0000 0.2766
vn -0.4888 -0.0000 -0.8724
vn 0.7391 -0.0000 -0.6736
vn 0.8487 -0.0000 0.5289
vn 0.6102 -0.0000 -0.7923
vn 0.9207 -0.0000 0.3902
vn -0.1505 -0.0000 0.9886
vn -0.9965 -0.0000 0.0838
vn -0.3092 -0.0000 -0.9510
vn 0.8563 -0.0000 -0.5165
vn 0.7292 -0.0000 0.6843
vn 0.7530 -0.0000 -0.6580
vn 0.8269 -0.0000 0.5624
vn -0.3405 -0.0000 0.9402
vn -0.9937 -0.0000 -0.1122
vn -0.1177 -0.0000 -0.9930
vn 0.9406 -0.0000 -0.3395
vn 0.5817 -0.0000 0.8134
vn 0.8669 -0.0000 -0.4985
vn 0.7013 -0.0000 0.7129
vn -0.5174 -0.0000 0.8558
vn -0.9527 -0.0000 -0.3039
vn 0.0782 -0.0000 -0.9969
vn 0.9888 -0.0000 -0.1495
vn 0.4118 -0.0000 0.9113
vn 0.9475 -0.0000 -0.3198
vn 0.5487 -0.0000 0.8360
vn -0.6744 -0.0000 0.7384
vn -0.8751 -0.0000 -0.4839
vn 0.2712 -0.0000 -0.9625
vn 0.9989 -0.0000 0.0463
vn 0.2261 -0.0000 0.9741
vn 0.9917 -0.0000 -0.1288
vn 0.3751 -0.0000 0.9270
vn -0.8055 -0.0000 0.5926
vn -0.7639 -0.0000 -0.6453
vn 0.4538 -0.0000 -0.8911
vn 0.9707 -0.0000 0.2403
vn 0.0318 -0.0000 0.9995
vn 0.9977 -0.0000 0.0672
vn 0.1871 -0.0000 0.9824
vn -0.9056 -0.0000 0.4241
vn -0.6233 -0.0000 -0.7820
vn 0.6189 -0.0000 -0.7854
vn 0.9052 -0.0000 0.4250
vn -0.1638 -0.0000 0.9865
vn 0.9655 -0.0000 0.2605
vn -0.0082 -0.0000 1.0000
vn -0.9710 -0.0000 0.2393
vn -0.4588 -0.0000 -0.8885
vn 0.7603 -0.0000 -0.6496
vn 0.8049 -0.0000 0.5935
vn -0.3531 -0.0000 0.9356
vn 0.8961 -0.0000 0.4439
vn -0.2031 -0.0000 0.9792
vn -0.9990 -0.0000 0.0452
vn -0.2766 -0.0000 -0.9610
vn 0.8724 -0.0000 -0.4888
vn 0.6736 -0.0000 0.7391
vn -0.5289 -0.0000 0.8487
vn 0.7923 -0.0000 0.6102
vn -0.3902 -0.0000 0.9207
vn -0.9886 -0.0000 -0.1505
vn -0.0838 -0.0000 -0.9965
vn 0.9510 -0.0000 -0.3092
vn 0.5165 -0.0000 0.8563
vn -0.6843 -0.0000 0.7292
vn 0.6580 -0.0000 0.7530
vn -0.5624 -0.0000 0.8269
vn -0.9402 -0.0000 -0.3405
vn 0.1122 -0.0000 -0.9937
vn 0.9930 -0.0000 -0.1177
vn 0.3395 -0.0000 0.9406
vn -0.8134 -0.0000 0.5817
vn 0.4985 -0.0000 0.8669
vn -0.7129 -0.0000 0.7013
vn -0.8558 -0.0000 -0.5174
vn 0.3039 -0.0000 -0.9527
vn 0.9969 -0.0000 0.0782
vn 0.1495 -0.0000 0.9888
vn -0.9113 -0.0000 0.4118
vn 0.3198 -0.0000 0.9475
vn -0.8360 -0.0000 0.5487
vn -0.7384 -0.0000 -0.6744
vn 0.4839 -0.0000 -0.8751
vn 0.9625 -0.0000 0.2712
vn -0.0463 -0.0000 0.9989
vn -0.9741 -0.0000 0.2261
vn 0.1288 -0.0000 0.9917
vn -0.9270 -0.0000 0.3751
vn -0.5926 -0.0000 -0.8055
vn 0.6453 -0.0000 -0.7639
vn 0.8911 -0.0000 0.4538
vn -0.2403 -0.0000 0.9707
vn -0.9995 -0.0000 0.0318
vn -0.0672 -0.0000 0.9977
vn -0.9824 -0.0000 0.1871
vn -0.4241 -0.0000 -0.9056
vn 0.7820 -0.0000 -0.6233
vn 0.7854 -0.0000 0.6189
vn -0.4250 -0.0000 0.9052
vn -0.9865 -0.0000 -0.1638
vt 1.000000 0.875000
vt 1.000000 1.000000
vt 0.968750 1.000000
vt 0.968750 0.875000
vt 0.937500 1.000000
vt 0.937500 0.875000
vt 0.906250 1.000000
vt 0.906250 0.875000
vt 0.875000 1.000000
vt 0.875000 0.875000
vt 0.843750 1.000000
vt 0.843750 0.875000
vt 0.812500 1.000000
vt 0.812500 0.875000
vt 0.781250 1.000000
vt 0.781250 0.875000
vt 0.750000 1.000000
vt 0.750000 0.875000
vt 0.718750 1.000000
vt 0.718750 0.875000
vt 0.687500 1.000000
vt 0.687500 0.875000
vt 0.656250 1.000000
vt 0.656250 0.875000
vt 0.625000 1.000000
vt 0.625000 0.875000
vt 0.593750 1.000000
vt 0.593750 0.875000
vt 0.562500 1.000000
vt 0.562500 0.875000
vt 0.531250 1.000000
vt 0.531250 0.875000
vt 0.500000 1.000000
vt 0.500000 0.875000
vt 0.468750 1.000000
vt 0.468750 0.875000
vt 0.437500 1.000000
vt 0.437500 0.875000
vt 0.406250 1.000000
vt 0.406250 0.875000
vt 0.375000 1.000000
vt 0.375000 0.875000
vt 0.343750 1.000000
vt 0.343750 0.875000
vt 0.312500 1.000000
vt 0.312500 0.875000
vt 0.281250 1.000000
vt 0.281250 0.875000
vt 0.250000 1.000000
vt 0.250000 0.875000
vt 0.218750 1.000000
vt 0.218750 0.875000
vt 0.187500 1.000000
vt 0.187500 0.875000
vt 0.156250 1.000000
vt 0.156250 0.875000
vt 0.125000 1.000000
vt 0.125000 0.875000
vt 0.093750 1.000000
vt 0.093750 0.875000
vt 0.062500 1.000000
vt 0.062500 0.875000
vt 0.031250 1.000000
vt 0.031250 0.875000
vt 0.000000 1.000000
vt 0.000000 0.875000
vt 0.031250 0.000000
vt 0.031250 0.125000
vt 0.000000 0.125000
vt 0.000000 0.000000
vt 0.031250 0.250000
vt 0.000000 0.250000
vt 0.031250 0.375000
vt 0.000000 0.375000
vt 0.031250 0.500000
vt 0.000000 0.500000
vt 0.031250 0.625000
vt 0.000000 0.625000
vt 0.031250 0.750000
vt 0.000000 0.750000
vt 0.062500 0.000000
vt 0.062500 0.125000
vt 0.062500 0.250000
vt 0.062500 0.375000
vt 0.062500 0.500000
vt 0.062500 0.625000
vt 0.062500 0.750000
vt 0.093750 0.000000
vt 0.093750 0.125000
vt 0.093750 0.250000
vt 0.093750 0.375000
vt 0.093750 0.500000
vt 0.093750 0.625000
vt 0.093750 0.750000
vt 0.125000 0.000000
vt 0.125000 0.125000
vt 0.125000 0.250000
vt 0.125000 0.375000
vt 0.125000 0.500000
vt 0.125000 0.625000
vt 0.125000 0.750000
vt 0.156250 0.000000
vt 0.156250 0.125000
vt 0.156250 0.250000
vt 0.156250 0.375000
vt 0.156250 0.500000
vt 0.156250 0.625000
vt 0.156250 0.750000
vt 0.187500 0.000000
vt 0.187500 0.125000
vt 0.187500 0.250000
vt 0.187500 0.375000
vt 0.187500 0.500000
vt 0.187500 0.625000
vt 0.187500 0.750000
vt 0.218750 0.000000
vt 0.218750 0.125000
vt 0.218750 0.250000
vt 0.218750 0.375000
vt 0.218750 0.500000
vt 0.218750 0.625000
vt 0.218750 0.750000
vt 0.250000 0.000000
vt 0.250000 0.125000
vt 0.250000 0.250000
vt 0.250000 0.375000
vt 0.250000 0.500000
vt 0.250000 0.625000
vt 0.250000 0.750000
vt 0.281250 0.000000
vt 0.281250 0.125000
vt 0.281250 0.250000
vt 0.281250 0.375000
vt 0.281250 0.500000
vt 0.281250 0.625000
vt 0.281250 0.750000
vt 0.312500 0.000000
vt 0.312500 0.125000
vt 0.312500 0.250000
vt 0.312500 0.375000
vt 0.312500 0.500000
vt 0.312500 0.625000
vt 0.312500 0.750000
vt 0.343750 0.000000
vt 0.343750 0.125000
vt 0.343750 0.250000
vt 0.343750 0.375000
vt 0.343750 0.500000
vt 0.343750 0.625000
vt 0.343750 0.750000
vt 0.375000 0.000000
vt 0.375000 0.125000
vt 0.375000 0.250000
vt 0.375000 0.375000
vt 0.375000 0.500000
vt 0.375000 0.625000
vt 0.375000 0.750000
vt 0.406250 0.000000
vt 0.406250 0.125000
vt 0.406250 0.250000
vt 0.406250 0.375000
vt 0.406250 0.500000
vt 0.406250 0.625000
vt 0.406250 0.750000
vt 0.437500 0.000000
vt 0.437500 0.125000
vt 0.437500 0.250000
vt 0.437500 0.375000
vt 0.437500 0.500000
vt 0.437500 0.625000
vt 0.437500 0.750000
vt 0.468750 0.000000
vt 0.468750 0.125000
vt 0.468750 0.250000
vt 0.468750 0.375000
vt 0.468750 0.500000
vt 0.468750 0.625000
vt 0.468750 0.750000
vt 0.500000 0.000000
vt 0.500000 0.125000
vt 0.500000 0.250000
vt 0.500000 0.375000
vt 0.500000 0.500000
vt 0.500000 0.625000
vt 0.500000 0.750000
vt 0.531250 0.000000
vt 0.531250 0.125000
vt 0.531250 0.250000
vt 0.531250 0.375000
vt 0.531250 0.500000
vt 0.531250 0.625000
vt 0.531250 0.750000
vt 0.562500 0.000000
vt 0.562500 0.125000
vt 0.562500 0.250000
vt 0.562500 0.375000
vt 0.562500 0.500000
vt 0.562500 0.625000
vt 0.562500 0.750000
vt 0.593750 0.000000
vt 0.593750 0.125000
vt 0.593750 0.250000
vt 0.593750 0.375000
vt 0.593750 0.500000
vt 0.593750 0.625000
vt 0.593750 0.750000
vt 0.625000 0.000000
vt 0.625000 0.125000
vt 0.625000 0.250000
vt 0.625000 0.375000
vt 0.625000 0.500000
vt 0.625000 0.625000
vt 0.625000 0.750000
vt 0.656250 0.000000
vt 0.656250 0.125000
vt 0.656250 0.250000
vt 0.656250 0.375000
vt 0.656250 0.500000
vt 0.656250 0.625000
vt 0.656250 0.750000
vt 0.687500 0.000000
vt 0.687500 0.125000
vt 0.687500 0.250000
vt 0.687500 0.375000
vt 0.687500 0.500000
vt 0.687500 0.625000
vt 0.687500 0.750000
vt 0.718750 0.000000
vt 0.718750 0.125000
vt 0.718750 0.250000
vt 0.718750 0.375000
vt 0.718750 0.500000
vt 0.718750 0.625000
vt 0.718750 0.750000
vt 0.750000 0.000000
vt 0.750000 0.125000
vt 0.750000 0.250000
vt 0.750000 0.375000
vt 0.750000 0.500000
vt 0.750000 0.625000
vt 0.750000 0.750000
vt 0.781250 0.000000
vt 0.781250 0.125000
vt 0.781250 0.250000
vt 0.781250 0.375000
vt 0.781250 0.500000
vt 0.781250 0.625000
vt 0.781250 0.750000
vt 0.812500 0.000000
vt 0.812500 0.125000
vt 0.812500 0.250000
vt 0.812500 0.375000
vt 0.812500 0.500000
vt 0.812500 0.625000
vt 0.812500 0.750000
vt 0.843750 0.000000
vt 0.843750 0.125000
vt 0.843750 0.250000
vt 0.843750 0.375000
vt 0.843750 0.500000
vt 0.843750 0.625000
vt 0.843750 0.750000
vt 0.875000 0.000000
vt 0.875000 0.125000
vt 0.875000 0.250000
vt 0.875000 0.375000
vt 0.875000 0.500000
vt 0.875000 0.625000
vt 0.875000 0.750000
vt 0.906250 0.000000
vt 0.906250 0.125000
vt 0.906250 0.250000
vt 0.906250 0.375000
vt 0.906250 0.500000
vt 0.906250 0.625000
vt 0.906250 0.750000
vt 0.937500 0.000000
vt 0.937500 0.125000
vt 0.937500 0.250000
vt 0.937500 0.375000
vt 0.937500 0.500000
vt 0.937500 0.625000
vt 0.937500 0.750000
vt 0.968750 0.000000
vt 0.968750 0.125000
vt 0.968750 0.250000
vt 0.968750 0.375000
vt 0.968750 0.500000
vt 0.968750 0.625000
vt 0.968750 0.750000
vt 1.000000 0.000000
vt 1.000000 0.125000
vt 1.000000 0.250000
vt 1.000000 0.375000
vt 1.000000 0.500000
vt 1.000000 0.625000
vt 1.000000 0.750000
s 1
f 71/1/71 2/2/2 4/3/4 72/4/72
f 72/4/72 4/3/4 6/5/6 79/6/79
f 79/6/79 6/5/6 8/7/8 86/8/86
f 86/8/86 8/7/8 10/9/10 93/10/93
f 93/10/93 10/9/10 12/11/12 100/12/100
f 100/12/100 12/11/12 14/13/14 107/14/107
f 107/14/107 14/13/14 16/15/16 114/16/114
f 114/16/114 16/15/16 18/17/18 121/18/121
f 121/18/121 18/17/18 20/19/20 128/20/128
f 128/20/128 20/19/20 22/21/22 135/22/135
f 135/22/135 22/21/22 24/23/24 142/24/142
f 142/24/142 24/23/24 26/25/26 149/26/149
f 149/26/149 26/25/26 28/27/28 156/28/156
f 156/28/156 28/27/28 30/29/30 163/30/163
f 163/30/163 30/29/30 32/31/32 170/32/170
f 170/32/170 32/31/32 34/33/34 177/34/177
f 177/34/177 34/33/34 36/35/36 184/36/184
f 184/36/184 36/35/36 38/37/38 191/38/191
f 191/38/191 38/37/38 40/39/40 198/40/198
f 198/40/198 40/39/40 42/41/42 205/42/205
f 205/42/205 42/41/42 44/43/44 212/44/212
f 212/44/212 44/43/44 46/45/46 219/46/219
f 219/46/219 46/45/46 48/47/48 226/48/226
f 226/48/226 48/47/48 50/49/50 233/50/233
f 233/50/233 50/49/50 52/51/52 240/52/240
f 240/52/240 52/51/52 54/53/54 247/54/247
f 247/54/247 54/53/54 56/55/56 254/56/254
f 254/56/254 56/55/56 58/57/58 261/58/261
f 261/58/261 58/57/58 60/59/60 268/60/268
f 268/60/268 60/59/60 62/61/62 275/62/275
f 275/62/275 62/61/62 64/63/64 282/64/282
f 282/64/282 64/63/64 2/65/2 71/66/71
f 63/67/63 288/68/288 65/69/65 1/70/1
f 288/68/288 287/71/287 66/72/66 65/69/65
f 287/71/287 286/73/286 67/74/67 66/72/66
f 286/73/286 285/75/285 68/76/68 67/74/67
f 285/75/285 284/77/284 69/78/69 68/76/68
f 284/77/284 283/79/283 70/80/70 69/78/69
f 283/79/283 282/64/282 71/66/71 70/80/70
f 61/81/61 281/82/281 288/68/288 63/67/63
f 281/82/281 280/83/280 287/71/287 288/68/288
f 280/83/280 279/84/279 286/73/286 287/71/287
f 279/84/279 278/85/278 285/75/285 286/73/286
f 278/85/278 277/86/277 284/77/284 285/75/285
f 277/86/277 276/87/276 283/79/283 284/77/284
f 276/87/276 275/62/275 282/64/282 283/79/283
f 59/88/59 274/89/274 281/82/281 61/81/61
f 274/89/274 273/90/273 280/83/280 281/82/281
f 273/90/273 272/91/272 279/84/279 280/83/280
f 272/91/272 271/92/271 278/85/278 279/84/279
f 271/92/271 270/93/270 277/86/277 278/85/278
f 270/93/270 269/94/269 276/87/276 277/86/277
f 269/94/269 268/60/268 275/62/275 276/87/276
f 57/95/57 267/96/267 274/89/274 59/88/59
f 267/96/267 266/97/266 273/90/273 274/89/274
f 266/97/266 265/98/265 272/91/272 273/90/273
f 265/98/265 264/99/264 271/92/271 272/91/272
f 264/99/264 263/100/263 270/93/270 271/92/271
f 263/100/263 262/101/262 269/94/269 270/93/270
f 262/101/262 261/58/261 268/60/268 269/94/269
f 55/102/55 260/103/260 267/96/267 57/95/57
f 260/103/260 259/104/259 266/97/266 267/96/267
f 259/104/259 258/105/258 265/98/265 266/97/266
f 258/105/258 257/106/257 264/99/264 265/98/265
f 257/106/257 256/107/256 263/100/263 264/99/264
f 256/107/256 255/108/255 262/101/262 263/100/263
f 255/108/255 254/56/254 261/58/261 262/101/262
f 53/109/53 253/110/253 260/103/260 55/102/55
f 253/110/253 252/111/252 259/104/259 260/103/260
f 252/111/252 251/112/251 258/105/258 259/104/259
f 251/112/251 250/113/250 257/106/257 258/105/258
f 250/113/250 249/114/249 256/107/256 257/106/257
f 249/114/249 248/115/248 255/108/255 256/107/256
f 248/115/248 247/54/247 254/56/254 255/108/255
f 51/116/51 246/117/246 253/110/253 53/109/53
f 246/117/246 245/118/245 252/111/252 253/110/253
f 245/118/245 244/119/244 251/112/251 252/111/252
f 244/119/244 243/120/243 250/113/250 251/112/251
f 243/120/243 242/121/242 249/114/249 250/113/250
f 242/121/242 241/122/241 248/115/248 249/114/249
f 241/122/241 240/52/240 247/54/247 248/115/248
f 49/123/49 239/124/239 246/117/246 51/116/51
f 239/124/239 238/125/238 245/118/245 246/117/246
f 238/125/238 237/126/237 244/119/244 245/118/245
f 237/126/237 236/127/236 243/120/243 244/119/244
f 236/127/236 235/128/235 242/121/242 243/120/243
f 235/128/235 234/129/234 241/122/241 242/121/242
f 234/129/234 233/50/233 240/52/240 241/122/241
f 47/130/47 232/131/232 239/124/239 49/123/49
f 232/131/232 231/132/231 238/125/238 239/124/239
f 231/132/231 230/133/230 237/126/237 238/125/238
f 230/133/230 229/134/229 236/127/236 237/126/237
f 229/134/229 228/135/228 235/128/235 236/127/236
f 228/135/228 227/136/227 234/129/234 235/128/235
f 227/136/227 226/48/226 233/50/233 234/129/234
f 45/137/45 225/138/225 232/131/232 47/130/47
f 225/138/225 224/139/224 231/132/231 232/131/232
f 224/139/224 223/140/223 230/133/230 231/132/231
f 223/140/223 222/141/222 229/134/229 230/133/230
f 222/141/222 221/142/221 228/135/228 229/134/229
f 221/142/221 220/143/220 227/136/227 228/135/228
f 220/143/220 219/46/219 226/48/226 227/136/227
f 43/144/43 218/145/218 225/138/225 45/137/45
f 218/145/218 217/146/217 224/139/224 225/138/225
f 217/146/217 216/147/216 223/140/223 224/139/224
f 216/147/216 215/148/215 222/141/222 223/140/223
f 215/148/215 214/149/214 221/142/221 222/141/222
f 214/149/214 213/150/213 220/143/220 221/142/221
f 213/150/213 212/44/212 219/46/219 220/143/220
f 41/151/41 211/152/211 218/145/218 43/144/43
f 211/152/211 210/153/210 217/146/217 218/145/218
f 210/153/210 209/154/209 216/147/216 217/146/217
f 209/154/209 208/155/208 215/148/215 216/147/216
f 208/155/208 207/156/207 214/149/214 215/148/215
f 207/156/207 206/157/206 213/150/213 214/149/214
f 206/157/206 205/42/205 212/44/212 213/150/213
f 39/158/39 204/159/204 211/152/211 41/151/41
f 204/159/204 203/160/203 210/153/210 211/152/211
f 203/160/203 202/161/202 209/154/209 210/153/210
f 202/161/202 201/162/201 208/155/208 209/154/209
f 201/162/201 200/163/200 207/156/207 208/155/208
f 200/163/200 199/164/199 206/157/206 207/156/207
f 199/164/199 198/40/198 205/42/205 206/157/206
f 37/165/37 197/166/197 204/159/204 39/158/39
f 197/166/197 196/167/196 203/160/203 204/159/204
f 196/167/196 195/168/195 202/161/202 203/160/203
f 195/168/195 194/169/194 201/162/201 202/161/202
f 194/169/194 193/170/193 200/163/200 201/162/201
f 193/170/193 192/171/192 199/164/199 200/163/200
f 192/171/192 191/38/191 198/40/198 199/164/199
f 35/172/35 190/173/190 197/166/197 37/165/37
f 190/173/190 189/174/189 196/167/196 197/166/197
f 189/174/189 188/175/188 195/168/195 196/167/196
f 188/175/188 187/176/187 194/169/194 195/168/195
f 187/176/187 186/177/186 193/170/193 194/169/194
f 186/177/186 185/178/185 192/171/192 193/170/193
f 185/178/185 184/36/184 191/38/191 192/171/192
f 33/179/33 183/180/183 190/173/190 35/172/35
f 183/180/183 182/181/182 189/174/189 190/173/190
f 182/181/182 181/182/181 188/175/188 189/174/189
f 181/182/181 180/183/180 187/176/187 188/175/188
f 180/183/180 179/184/179 186/177/186 187/176/187
f 179/184/179 178/185/178 185/178/185 186/177/186
f 178/185/178 177/34/177 184/36/184 185/178/185
f 31/186/31 176/187/176 183/180/183 33/179/33
f 176/187/176 175/188/175 182/181/182 183/180/183
f 175/188/175 174/189/174 181/182/181 182/181/182
f 174/189/174 173/190/173 180/183/180 181/182/181
f 173/190/173 172/191/172 179/184/179 180/183/180
f 172/191/172 171/192/171 178/185/178 179/184/179
f 171/192/171 170/32/170 177/34/177 178/185/178
f 29/193/29 169/194/169 176/187/176 31/186/31
f 169/194/169 168/195/168 175/188/175 176/187/176
f 168/195/168 167/196/167 174/189/174 175/188/175
f 167/196/167 166/197/166 173/190/173 174/189/174
f 166/197/166 165/198/165 172/191/172 173/190/173
f 165/198/165 164/199/164 171/192/171 172/191/172
f 164/199/164 163/30/163 170/32/170 171/192/171
f 27/200/27 162/201/162 169/194/169 29/193/29
f 162/201/162 161/202/161 168/195/168 169/194/169
f 161/202/161 160/203/160 167/196/167 168/195/168
f 160/203/160 159/204/159 166/197/166 167/196/167
f 159/204/159 158/205/158 165/198/165 166/197/166
f 158/205/158 157/206/157 164/199/164 165/198/165
f 157/206/157 156/28/156 163/30/163 164/199/164
f 25/207/25 155/208/155 162/201/162 27/200/27
f 155/208/155 154/209/154 161/202/161 162/201/162
f 154/209/154 153/210/153 160/203/160 161/202/161
f 153/210/153 152/211/152 159/204/159 160/203/160
f 152/211/152 151/212/151 158/205/158 159/204/159
f 151/212/151 150/213/150 157/206/157 158/205/158
f 150/213/150 149/26/149 156/28/156 157/206/157
f 23/214/23 148/215/148 155/208/155 25/207/25
f 148/215/148 147/216/147 154/209/154 155/208/155
f 147/216/147 146/217/146 153/210/153 154/209/154
f 146/217/146 145/218/145 152/211/152 153/210/153
f 145/218/145 144/219/144 151/212/151 152/211/152
f 144/219/144 143/220/143 150/213/150 151/212/151
f 143/220/143 142/24/142 149/26/149 150/213/150
f 21/221/21 141/222/141 148/215/148 23/214/23
f 141/222/141 140/223/140 147/216/147 148/215/148
f 140/223/140 139/224/139 146/217/146 147/216/147
f 139/224/139 138/225/138 145/218/145 146/217/146
f 138/225/138 137/226/137 144/219/144 145/218/145
f 137/226/137 136/227/136 143/220/143 144/219/144
f 136/227/136 135/22/135 142/24/142 143/220/143
f 19/228/19 134/229/134 141/222/141 21/221/21
f 134/229/134 133/230/133 140/223/140 141/222/141
f 133/230/133 132/231/132 139/224/139 140/223/140
f 132/231/132 131/232/131 138/225/138 139/224/139
f 131/232/131 130/233/130 137/226/137 138/225/138
f 130/233/130 129/234/129 136/227/136 137/226/137
f 129/234/129 128/20/128 135/22/135 136/227/136
f 17/235/17 127/236/127 134/229/134 19/228/19
f 127/236/127 126/237/126 133/230/133 134/229/134
f 126/237/126 125/238/125 132/231/132 133/230/133
f 125/238/125 124/239/124 131/232/131 132/231/132
f 124/239/124 123/240/123 130/233/130 131/232/131
f 123/240/123 122/241/122 129/234/129 130/233/130
f 122/241/122 121/18/121 128/20/128 129/234/129
f 15/242/15 120/243/120 127/236/127 17/235/17
f 120/243/120 119/244/119 126/237/126 127/236/127
f 119/244/119 118/245/118 125/238/125 126/237/126
f 118/245/118 117/246/117 124/239/124 125/238/125
f 117/246/117 116/247/116 123/240/123 124/239/124
f 116/247/116 115/248/115 122/241/122 123/240/123
f 115/248/115 114/16/114 121/18/121 122/241/122
f 13/249/13 113/250/113 120/243/120 15/242/15
f 113/250/113 112/251/112 119/244/119 120/243/120
f 112/251/112 111/252/111 118/245/118 119/244/119
f 111/252/111 110/253/110 117/246/117 118/245/118
f 110/253/110 109/254/109 116/247/116 117/246/117
f 109/254/109 108/255/108 115/248/115 116/247/116
f 108/255/108 107/14/107 114/16/114 115/248/115
f 11/256/11 106/257/106 113/250/113 13/249/13
f 106/257/106 105/258/105 112/251/112 113/250/113
f 105/258/105 104/259/104 111/252/111 112/251/112
f 104/259/104 103/260/103 110/253/110 111/252/111
f 103/260/103 102/261/102 109/254/109 110/253/110
f 102/261/102 101/262/101 108/255/108 109/254/109
f 101/262/101 100/12/100 107/14/107 108/255/108
f 9/263/9 99/264/99 106/257/106 11/256/11
f 99/264/99 98/265/98 105/258/105 106/257/106
f 98/265/98 97/266/97 104/259/104 105/258/105
f 97/266/97 96/267/96 103/260/103 104/259/104
f 96/267/96 95/268/95 102/261/102 103/260/103
f 95/268/95 94/269/94 101/262/101 102/261/102
f 94/269/94 93/10/93 100/12/100 101/262/101
f 7/270/7 92/271/92 99/264/99 9/263/9
f 92/271/92 91/272/91 98/265/98 99/264/99
f 91/272/91 90/273/90 97/266/97 98/265/98
f 90/273/90 89/274/89 96/267/96 97/266/97
f 89/274/89 88/275/88 95/268/95 96/267/96
f 88/275/88 87/276/87 94/269/94 95/268/95
f 87/276/87 86/8/86 93/10/93 94/269/94
f 5/277/5 85/278/85 92/271/92 7/270/7
f 85/278/85 84/279/84 91/272/91 92/271/92
f 84/279/84 83/280/83 90/273/90 91/272/91
f 83/280/83 82/281/82 89/274/89 90/273/90
f 82/281/82 81/282/81 88/275/88 89/274/89
f 81/282/81 80/283/80 87/276/87 88/275/88
f 80/283/80 79/6/79 86/8/86 87/276/87
f 3/284/3 78/285/78 85/278/85 5/277/5
f 78/285/78 77/286/77 84/279/84 85/278/85
f 77/286/77 76/287/76 83/280/83 84/279/84
f 76/287/76 75/288/75 82/281/82 83/280/83
f 75/288/75 74/289/74 81/282/81 82/281/82
f 74/289/74 73/290/73 80/283/80 81/282/81
f 73/290/73 72/4/72 79/6/79 80/283/80
f 1/291/1 65/292/65 78/285/78 3/284/3
f 65/292/65 66/293/66 77/286/77 78/285/78
f 66/293/66 67/294/67 76/287/76 77/286/77
f 67/294/67 68/295/68 75/288/75 76/287/76
f 68/295/68 69/296/69 74/289/74 75/288/75
f 69/296/69 70/297/70 73/290/73 74/289/74
f 70/297/70 71/1/71 72/4/72 73/290/73
