# Blender 4.5.1 LTS
# www.blender.org
o sm_cone_typeA
v 0.000000 -0.000000 -0.296288
v 0.000000 1.000000 -1.000000
v 0.076685 -0.000000 -0.286192
v 0.258819 1.000000 -0.965926
v 0.148144 -0.000000 -0.256593
v 0.500000 1.000000 -0.866025
v 0.209507 -0.000000 -0.209507
v 0.707107 1.000000 -0.707107
v 0.256593 -0.000000 -0.148144
v 0.866025 1.000000 -0.500000
v 0.286192 -0.000000 -0.076685
v 0.965926 1.000000 -0.258819
v 0.296288 0.000000 0.000000
v 1.000000 1.000000 -0.000000
v 0.286192 0.000000 0.076685
v 0.965926 1.000000 0.258819
v 0.256593 0.000000 0.148144
v 0.866025 1.000000 0.500000
v 0.209507 0.000000 0.209507
v 0.707107 1.000000 0.707107
v 0.148144 0.000000 0.256593
v 0.500000 1.000000 0.866025
v 0.076685 0.000000 0.286192
v 0.258819 1.000000 0.965926
v 0.000000 0.000000 0.296288
v 0.000000 1.000000 1.000000
v -0.076685 0.000000 0.286192
v -0.258819 1.000000 0.965926
v -0.148144 0.000000 0.256593
v -0.500000 1.000000 0.866025
v -0.209507 0.000000 0.209507
v -0.707107 1.000000 0.707107
v -0.256593 0.000000 0.148144
v -0.866025 1.000000 0.500000
v -0.286192 0.000000 0.076685
v -0.965926 1.000000 0.258819
v -0.296288 0.000000 0.000000
v -1.000000 1.000000 -0.000000
v -0.286192 -0.000000 -0.076685
v -0.965926 1.000000 -0.258819
v -0.256593 -0.000000 -0.148144
v -0.866025 1.000000 -0.500000
v -0.209507 -0.000000 -0.209507
v -0.707107 1.000000 -0.707107
v -0.148144 -0.000000 -0.256593
v -0.500000 1.000000 -0.866025
v -0.076685 -0.000000 -0.286192
v -0.258819 1.000000 -0.965926
v 0.000000 0.333333 -0.530859
v 0.000000 0.666667 -0.765429
v 0.137396 0.333333 -0.512770
v 0.198108 0.666667 -0.739348
v 0.265429 0.333333 -0.459737
v 0.382715 0.666667 -0.662881
v 0.375374 0.333333 -0.375374
v 0.541240 0.666667 -0.541240
v 0.459737 0.333333 -0.265429
v 0.662881 0.666667 -0.382715
v 0.512770 0.333333 -0.137396
v 0.739348 0.666667 -0.198108
v 0.530859 0.333333 -0.000000
v 0.765429 0.666667 -0.000000
v 0.512770 0.333333 0.137396
v 0.739348 0.666667 0.198108
v 0.459737 0.333333 0.265429
v 0.662881 0.666667 0.382715
v 0.375374 0.333333 0.375374
v 0.541240 0.666667 0.541240
v 0.265429 0.333333 0.459737
v 0.382715 0.666667 0.662881
v 0.137396 0.333333 0.512770
v 0.198108 0.666667 0.739348
v 0.000000 0.333333 0.530859
v 0.000000 0.666667 0.765429
v -0.137396 0.333333 0.512770
v -0.198108 0.666667 0.739348
v -0.265429 0.333333 0.459737
v -0.382715 0.666667 0.662881
v -0.375374 0.333333 0.375374
v -0.541240 0.666667 0.541240
v -0.459737 0.333333 0.265429
v -0.662881 0.666667 0.382715
v -0.512770 0.333333 0.137396
v -0.739348 0.666667 0.198108
v -0.530859 0.333333 -0.000000
v -0.765429 0.666667 -0.000000
v -0.512770 0.333333 -0.137396
v -0.739348 0.666667 -0.198108
v -0.459737 0.333333 -0.265429
v -0.662881 0.666667 -0.382715
v -0.375374 0.333333 -0.375374
v -0.541240 0.666667 -0.541240
v -0.265429 0.333333 -0.459737
v -0.382715 0.666667 -0.662881
v -0.137396 0.333333 -0.512770
v -0.198108 0.666667 -0.739348
v 0.000000 -0.060227 -0.002187
v 0.000566 -0.060227 -0.002113
v 0.001094 -0.060227 -0.001894
v 0.001547 -0.060227 -0.001547
v 0.001894 -0.060227 -0.001094
v 0.002113 -0.060227 -0.000566
v 0.002187 -0.060227 -0.000000
v 0.002113 -0.060227 0.000566
v 0.001894 -0.060227 0.001094
v 0.001547 -0.060227 0.001547
v 0.001094 -0.060227 0.001894
v 0.000566 -0.060227 0.002113
v 0.000000 -0.060227 0.002187
v -0.000566 -0.060227 0.002113
v -0.001094 -0.060227 0.001894
v -0.001547 -0.060227 0.001547
v -0.001894 -0.060227 0.001094
v -0.002113 -0.060227 0.000566
v -0.002187 -0.060227 -0.000000
v -0.002113 -0.060227 -0.000566
v -0.001894 -0.060227 -0.001094
v -0.001547 -0.060227 -0.001547
v -0.001094 -0.060227 -0.001894
v -0.000566 -0.060227 -0.002113
v 0.129244 0.000000 0.074619
v 0.105527 0.000000 0.105527
v -0.038626 0.000000 0.144152
v -0.074619 0.000000 0.129244
v -0.149238 -0.000000 -0.000000
v -0.144152 -0.000000 -0.038626
v -0.038626 -0.000000 -0.144152
v 0.000000 -0.000000 -0.149238
v 0.038626 -0.000000 -0.144152
v 0.074619 -0.000000 -0.129244
v 0.149238 -0.000000 -0.000000
v 0.144152 0.000000 0.038626
v 0.038626 0.000000 0.144152
v 0.000000 0.000000 0.149238
v -0.129244 0.000000 0.074619
v -0.144152 0.000000 0.038626
v -0.105527 -0.000000 -0.105527
v -0.074619 -0.000000 -0.129244
v 0.129244 -0.000000 -0.074619
v 0.144152 -0.000000 -0.038626
v 0.074619 0.000000 0.129244
v -0.105527 0.000000 0.105527
v -0.129244 -0.000000 -0.074619
v 0.105527 -0.000000 -0.105527
vn -0.0000 0.5755 0.8178
vn -0.2117 0.5755 0.7899
vn -0.4089 0.5755 0.7082
vn -0.5783 0.5755 0.5783
vn -0.7082 0.5755 0.4089
vn -0.7899 0.5755 0.2117
vn -0.8178 0.5755 -0.0000
vn -0.7899 0.5755 -0.2117
vn -0.7082 0.5755 -0.4089
vn -0.5783 0.5755 -0.5783
vn -0.4089 0.5755 -0.7082
vn -0.2117 0.5755 -0.7899
vn -0.0000 0.5755 -0.8178
vn 0.2117 0.5755 -0.7899
vn 0.4089 0.5755 -0.7082
vn 0.5783 0.5755 -0.5783
vn 0.7082 0.5755 -0.4089
vn 0.7899 0.5755 -0.2117
vn 0.8178 0.5755 -0.0000
vn 0.7899 0.5755 0.2117
vn 0.7082 0.5755 0.4089
vn 0.5783 0.5755 0.5783
vn 0.4089 0.5755 0.7082
vn 0.2117 0.5755 0.7899
vn 0.1268 0.8718 0.4732
vn -0.0000 0.8718 0.4899
vn 0.2449 0.8718 0.4242
vn 0.3464 0.8718 0.3464
vn 0.4242 0.8718 0.2449
vn 0.4732 0.8718 0.1268
vn 0.4899 0.8718 -0.0000
vn 0.4732 0.8718 -0.1268
vn 0.4242 0.8718 -0.2449
vn 0.3464 0.8718 -0.3464
vn 0.2449 0.8718 -0.4242
vn 0.1268 0.8718 -0.4732
vn -0.0000 0.8718 -0.4899
vn -0.1268 0.8718 -0.4732
vn -0.2449 0.8718 -0.4242
vn -0.3464 0.8718 -0.3464
vn -0.4242 0.8718 -0.2449
vn -0.4732 0.8718 -0.1268
vn -0.4899 0.8718 -0.0000
vn -0.4732 0.8718 0.1268
vn -0.4242 0.8718 0.2449
vn -0.3464 0.8718 0.3464
vn -0.2449 0.8718 0.4242
vn -0.1268 0.8718 0.4732
vn -0.1256 0.9841 -0.1256
vn -0.1538 0.9841 -0.0888
vn -0.3282 0.9254 -0.1895
vn -0.2680 0.9254 -0.2680
vn 0.0888 0.9841 -0.1538
vn 0.0460 0.9841 -0.1715
vn 0.0981 0.9254 -0.3661
vn 0.1895 0.9254 -0.3282
vn 0.1715 0.9841 0.0460
vn 0.1776 0.9841 -0.0000
vn 0.3790 0.9254 -0.0000
vn 0.3661 0.9254 0.0981
vn -0.0000 0.9841 0.1776
vn 0.0460 0.9841 0.1715
vn 0.0981 0.9254 0.3661
vn -0.0000 0.9254 0.3790
vn -0.0888 0.9841 0.1538
vn -0.0460 0.9841 0.1715
vn -0.0981 0.9254 0.3661
vn -0.1895 0.9254 0.3282
vn -0.1715 0.9841 -0.0460
vn -0.1776 0.9841 -0.0000
vn -0.3790 0.9254 -0.0000
vn -0.3661 0.9254 -0.0981
vn -0.0000 0.9841 -0.1776
vn -0.0460 0.9841 -0.1715
vn -0.0981 0.9254 -0.3661
vn -0.0000 0.9254 -0.3790
vn 0.1715 0.9841 -0.0460
vn 0.1538 0.9841 -0.0888
vn 0.3282 0.9254 -0.1895
vn 0.3661 0.9254 -0.0981
vn 0.0888 0.9841 0.1538
vn 0.1256 0.9841 0.1256
vn 0.2680 0.9254 0.2680
vn 0.1895 0.9254 0.3282
vn -0.1715 0.9841 0.0460
vn -0.1538 0.9841 0.0888
vn -0.3282 0.9254 0.1895
vn -0.3661 0.9254 0.0981
vn -0.0888 0.9841 -0.1538
vn -0.1895 0.9254 -0.3282
vn 0.1256 0.9841 -0.1256
vn 0.2680 0.9254 -0.2680
vn 0.1538 0.9841 0.0888
vn 0.3282 0.9254 0.1895
vn -0.1256 0.9841 0.1256
vn -0.2680 0.9254 0.2680
vt 1.000000 0.666667
vt 0.958333 0.666667
vt 0.958333 1.000000
vt 1.000000 1.000000
vt 0.916667 0.666667
vt 0.916667 1.000000
vt 0.875000 0.666667
vt 0.875000 1.000000
vt 0.833333 0.666667
vt 0.833333 1.000000
vt 0.791667 0.666667
vt 0.791667 1.000000
vt 0.750000 0.666667
vt 0.750000 1.000000
vt 0.708333 0.666667
vt 0.708333 1.000000
vt 0.666667 0.666667
vt 0.666667 1.000000
vt 0.625000 0.666667
vt 0.625000 1.000000
vt 0.583333 0.666667
vt 0.583333 1.000000
vt 0.541666 0.666667
vt 0.541666 1.000000
vt 0.500000 0.666667
vt 0.500000 1.000000
vt 0.458333 0.666667
vt 0.458333 1.000000
vt 0.416666 0.666667
vt 0.416666 1.000000
vt 0.375000 0.666667
vt 0.375000 1.000000
vt 0.333333 0.666667
vt 0.333333 1.000000
vt 0.291667 0.666667
vt 0.291667 1.000000
vt 0.250000 0.666667
vt 0.250000 1.000000
vt 0.208333 0.666667
vt 0.208333 1.000000
vt 0.166666 0.666667
vt 0.166666 1.000000
vt 0.125000 0.666667
vt 0.125000 1.000000
vt 0.083333 0.666667
vt 0.083333 1.000000
vt 0.041666 0.666667
vt 0.041666 1.000000
vt 0.000000 0.666667
vt -0.000000 1.000000
vt 0.041666 0.000000
vt -0.000000 0.000000
vt 0.000000 0.333333
vt 0.041666 0.333333
vt 0.083333 0.000000
vt 0.083333 0.333333
vt 0.125000 0.000000
vt 0.125000 0.333333
vt 0.166666 0.000000
vt 0.166666 0.333333
vt 0.208333 0.000000
vt 0.208333 0.333333
vt 0.250000 0.000000
vt 0.250000 0.333333
vt 0.291667 0.000000
vt 0.291667 0.333333
vt 0.333333 0.000000
vt 0.333333 0.333333
vt 0.375000 0.000000
vt 0.375000 0.333333
vt 0.416666 0.000000
vt 0.416666 0.333333
vt 0.458333 0.000000
vt 0.458333 0.333333
vt 0.500000 0.000000
vt 0.500000 0.333333
vt 0.541666 0.000000
vt 0.541666 0.333333
vt 0.583333 0.000000
vt 0.583333 0.333333
vt 0.625000 0.000000
vt 0.625000 0.333333
vt 0.666667 0.000000
vt 0.666667 0.333333
vt 0.708333 0.000000
vt 0.708333 0.333333
vt 0.750000 0.000000
vt 0.750000 0.333333
vt 0.791667 0.000000
vt 0.791667 0.333333
vt 0.833333 0.000000
vt 0.833333 0.333333
vt 0.875000 0.000000
vt 0.875000 0.333333
vt 0.916667 0.000000
vt 0.916667 0.333333
vt 0.958333 0.000000
vt 0.958333 0.333333
vt 1.000000 0.000000
vt 1.000000 0.333333
vt 0.526184 0.257812
vt 0.534913 0.257812
vt 0.482544 0.257812
vt 0.491272 0.257812
vt 0.438903 0.257812
vt 0.447631 0.257812
vt 0.395262 0.257812
vt 0.403990 0.257812
vt 0.587282 0.257812
vt 0.596010 0.257812
vt 0.543641 0.257812
vt 0.552369 0.257812
vt 0.500000 0.257812
vt 0.508728 0.257812
vt 0.456359 0.257812
vt 0.465087 0.257812
vt 0.412718 0.257812
vt 0.421446 0.257812
vt 0.561097 0.257812
vt 0.569825 0.257812
vt 0.517456 0.257812
vt 0.473815 0.257812
vt 0.430174 0.257812
vt 0.578554 0.257812
vt 0.604738 0.257812
s 1
f 50/1/1 52/2/2 4/3/2 2/4/1
f 52/2/2 54/5/3 6/6/3 4/3/2
f 54/5/3 56/7/4 8/8/4 6/6/3
f 56/7/4 58/9/5 10/10/5 8/8/4
f 58/9/5 60/11/6 12/12/6 10/10/5
f 60/11/6 62/13/7 14/14/7 12/12/6
f 62/13/7 64/15/8 16/16/8 14/14/7
f 64/15/8 66/17/9 18/18/9 16/16/8
f 66/17/9 68/19/10 20/20/10 18/18/9
f 68/19/10 70/21/11 22/22/11 20/20/10
f 70/21/11 72/23/12 24/24/12 22/22/11
f 72/23/12 74/25/13 26/26/13 24/24/12
f 74/25/13 76/27/14 28/28/14 26/26/13
f 76/27/14 78/29/15 30/30/15 28/28/14
f 78/29/15 80/31/16 32/32/16 30/30/15
f 80/31/16 82/33/17 34/34/17 32/32/16
f 82/33/17 84/35/18 36/36/18 34/34/17
f 84/35/18 86/37/19 38/38/19 36/36/18
f 86/37/19 88/39/20 40/40/20 38/38/19
f 88/39/20 90/41/21 42/42/21 40/40/20
f 90/41/21 92/43/22 44/44/22 42/42/21
f 92/43/22 94/45/23 46/46/23 44/44/22
f 94/45/23 96/47/24 48/48/24 46/46/23
f 96/47/24 50/49/1 2/50/1 48/48/24
f 47/51/25 1/52/26 49/53/1 95/54/24
f 95/54/24 49/53/1 50/49/1 96/47/24
f 45/55/27 47/51/25 95/54/24 93/56/23
f 93/56/23 95/54/24 96/47/24 94/45/23
f 43/57/28 45/55/27 93/56/23 91/58/22
f 91/58/22 93/56/23 94/45/23 92/43/22
f 41/59/29 43/57/28 91/58/22 89/60/21
f 89/60/21 91/58/22 92/43/22 90/41/21
f 39/61/30 41/59/29 89/60/21 87/62/20
f 87/62/20 89/60/21 90/41/21 88/39/20
f 37/63/31 39/61/30 87/62/20 85/64/19
f 85/64/19 87/62/20 88/39/20 86/37/19
f 35/65/32 37/63/31 85/64/19 83/66/18
f 83/66/18 85/64/19 86/37/19 84/35/18
f 33/67/33 35/65/32 83/66/18 81/68/17
f 81/68/17 83/66/18 84/35/18 82/33/17
f 31/69/34 33/67/33 81/68/17 79/70/16
f 79/70/16 81/68/17 82/33/17 80/31/16
f 29/71/35 31/69/34 79/70/16 77/72/15
f 77/72/15 79/70/16 80/31/16 78/29/15
f 27/73/36 29/71/35 77/72/15 75/74/14
f 75/74/14 77/72/15 78/29/15 76/27/14
f 25/75/37 27/73/36 75/74/14 73/76/13
f 73/76/13 75/74/14 76/27/14 74/25/13
f 23/77/38 25/75/37 73/76/13 71/78/12
f 71/78/12 73/76/13 74/25/13 72/23/12
f 21/79/39 23/77/38 71/78/12 69/80/11
f 69/80/11 71/78/12 72/23/12 70/21/11
f 19/81/40 21/79/39 69/80/11 67/82/10
f 67/82/10 69/80/11 70/21/11 68/19/10
f 17/83/41 19/81/40 67/82/10 65/84/9
f 65/84/9 67/82/10 68/19/10 66/17/9
f 15/85/42 17/83/41 65/84/9 63/86/8
f 63/86/8 65/84/9 66/17/9 64/15/8
f 13/87/43 15/85/42 63/86/8 61/88/7
f 61/88/7 63/86/8 64/15/8 62/13/7
f 11/89/44 13/87/43 61/88/7 59/90/6
f 59/90/6 61/88/7 62/13/7 60/11/6
f 9/91/45 11/89/44 59/90/6 57/92/5
f 57/92/5 59/90/6 60/11/6 58/9/5
f 7/93/46 9/91/45 57/92/5 55/94/4
f 55/94/4 57/92/5 58/9/5 56/7/4
f 5/95/47 7/93/46 55/94/4 53/96/3
f 53/96/3 55/94/4 56/7/4 54/5/3
f 3/97/48 5/95/47 53/96/3 51/98/2
f 51/98/2 53/96/3 54/5/3 52/2/2
f 1/99/26 3/97/48 51/98/2 49/100/1
f 49/100/1 51/98/2 52/2/2 50/1/1
f 122/101/49 121/102/50 105/102/51 106/101/52
f 124/103/53 123/104/54 110/104/55 111/103/56
f 126/105/57 125/106/58 115/106/59 116/105/60
f 128/107/61 127/108/62 120/108/63 97/107/64
f 130/109/65 129/110/66 98/110/67 99/109/68
f 132/111/69 131/112/70 103/112/71 104/111/72
f 134/113/73 133/114/74 108/114/75 109/113/76
f 136/115/77 135/116/78 113/116/79 114/115/80
f 138/117/81 137/118/82 118/118/83 119/117/84
f 140/119/85 139/120/86 101/120/87 102/119/88
f 141/121/89 122/101/49 106/101/52 107/121/90
f 142/122/91 124/103/53 111/103/56 112/122/92
f 143/123/93 126/105/57 116/105/60 117/123/94
f 144/124/95 130/109/65 99/109/68 100/124/96
f 121/102/50 132/111/69 104/111/72 105/102/51
f 123/104/54 134/113/73 109/113/76 110/104/55
f 125/106/58 136/115/77 114/115/80 115/106/59
f 127/108/62 138/117/81 119/117/84 120/108/63
f 129/110/66 128/125/61 97/125/64 98/110/67
f 131/112/70 140/119/85 102/119/88 103/112/71
f 133/114/74 141/121/89 107/121/90 108/114/75
f 135/116/78 142/122/91 112/122/92 113/116/79
f 137/118/82 143/123/93 117/123/94 118/118/83
f 139/120/86 144/124/95 100/124/96 101/120/87
f 9/120/45 7/124/46 144/124/95 139/120/86
f 43/118/28 41/123/29 143/123/93 137/118/82
f 33/116/33 31/122/34 142/122/91 135/116/78
f 23/114/38 21/121/39 141/121/89 133/114/74
f 13/112/43 11/119/44 140/119/85 131/112/70
f 3/110/48 1/125/26 128/125/61 129/110/66
f 47/108/25 45/117/27 138/117/81 127/108/62
f 37/106/31 35/115/32 136/115/77 125/106/58
f 27/104/36 25/113/37 134/113/73 123/104/54
f 17/102/41 15/111/42 132/111/69 121/102/50
f 7/124/46 5/109/47 130/109/65 144/124/95
f 41/123/29 39/105/30 126/105/57 143/123/93
f 31/122/34 29/103/35 124/103/53 142/122/91
f 21/121/39 19/101/40 122/101/49 141/121/89
f 11/119/44 9/120/45 139/120/86 140/119/85
f 45/117/27 43/118/28 137/118/82 138/117/81
f 35/115/32 33/116/33 135/116/78 136/115/77
f 25/113/37 23/114/38 133/114/74 134/113/73
f 15/111/42 13/112/43 131/112/70 132/111/69
f 5/109/47 3/110/48 129/110/66 130/109/65
f 1/107/26 47/108/25 127/108/62 128/107/61
f 39/105/30 37/106/31 125/106/58 126/105/57
f 29/103/35 27/104/36 123/104/54 124/103/53
f 19/101/40 17/102/41 121/102/50 122/101/49
