# Blender 4.5.1 LTS
# www.blender.org
o Cylinder.001
v 1.055111 0.012300 0.609169
v 0.109529 1.776859 -0.993984
v 0.915995 0.012300 0.803306
v 0.301341 1.776859 -0.953516
v 0.741676 0.012300 0.966572
v 0.481573 1.776859 -0.876406
v 0.538857 0.012300 1.092694
v 0.643298 1.776859 -0.765616
v 0.315329 0.012300 1.176824
v 0.780301 1.776859 -0.625404
v 0.079683 0.012300 1.215729
v 0.887318 1.776859 -0.461158
v -0.159025 0.012300 1.207915
v 0.960236 1.776859 -0.279190
v -0.391622 0.012300 1.153680
v 0.996252 1.776859 -0.086492
v -0.609169 0.012300 1.055111
v 0.993984 1.776859 0.109529
v -0.803306 0.012300 0.915995
v 0.953516 1.776859 0.301341
v -0.966572 0.012300 0.741676
v 0.876406 1.776859 0.481573
v -1.092694 0.012300 0.538857
v 0.765616 1.776859 0.643298
v -1.176824 0.012300 0.315329
v 0.625404 1.776859 0.780301
v -1.215729 0.012300 0.079683
v 0.461158 1.776859 0.887318
v -1.207915 0.012300 -0.159025
v 0.279190 1.776859 0.960236
v -1.153680 0.012299 -0.391622
v 0.086492 1.776859 0.996252
v -1.055111 0.012299 -0.609169
v -0.109529 1.776859 0.993984
v -0.915995 0.012299 -0.803306
v -0.301341 1.776859 0.953516
v -0.741676 0.012299 -0.966572
v -0.481573 1.776859 0.876406
v -0.538857 0.012299 -1.092694
v -0.643298 1.776859 0.765616
v -0.315329 0.012299 -1.176824
v -0.780301 1.776859 0.625404
v -0.079683 0.012299 -1.215729
v -0.887318 1.776859 0.461158
v 0.159025 0.012299 -1.207915
v -0.960236 1.776859 0.279190
v 0.391622 0.012299 -1.153680
v -0.996252 1.776859 0.086492
v 0.609169 0.012299 -1.055111
v -0.993984 1.776859 -0.109529
v 0.803306 0.012299 -0.915995
v -0.953516 1.776859 -0.301341
v 0.966572 0.012299 -0.741676
v -0.876406 1.776859 -0.481573
v 1.092694 0.012299 -0.538857
v -0.765616 1.776859 -0.643298
v 1.176824 0.012300 -0.315329
v -0.625404 1.776859 -0.780301
v 1.215729 0.012300 -0.079683
v -0.461158 1.776859 -0.887318
v 1.207915 0.012300 0.159025
v -0.279190 1.776859 -0.960236
v 1.153680 0.012300 0.391622
v -0.086492 1.776859 -0.996252
v 1.025336 0.057868 0.391353
v 1.021511 0.165803 0.150832
v 0.942295 0.423008 -0.326240
v 0.854570 0.607056 -0.546699
v 0.722783 0.793850 -0.715083
v 0.575314 0.983906 -0.832436
v 0.431714 1.178196 -0.908432
v 0.302815 1.376858 -0.953746
v 0.194884 1.576859 -0.980826
v 0.382489 1.576859 -0.923960
v 0.483064 1.376858 -0.876344
v 0.600644 1.178196 -0.806754
v 0.726659 0.983906 -0.704202
v 0.848401 0.793850 -0.560335
v 0.944805 0.607056 -0.369476
v 0.987836 0.423008 -0.136139
v 0.972456 0.165803 0.347221
v 0.929285 0.057868 0.583866
v 0.555395 1.576859 -0.831587
v 0.644748 1.376859 -0.765264
v 0.746494 1.178196 -0.674073
v 0.850080 0.983907 -0.548908
v 0.941416 0.793850 -0.384053
v 0.998732 0.607056 -0.178053
v 0.995414 0.423008 0.059194
v 0.886031 0.165803 0.530266
v 0.797522 0.057868 0.753942
v 0.706958 1.576859 -0.707256
v 0.781655 1.376859 -0.624776
v 0.863655 1.178196 -0.515487
v 0.940832 0.983906 -0.372518
v 0.998251 0.793850 -0.193013
v 1.014279 0.607056 0.020210
v 0.964740 0.423008 0.252252
v 0.765557 0.165803 0.692934
v 0.635111 0.057868 0.895044
v 0.831353 1.576859 -0.555745
v 0.888523 1.376859 -0.460278
v 0.947626 1.178196 -0.337091
v 0.995429 0.983906 -0.181813
v 1.016726 0.793850 0.005446
v 0.990846 0.607056 0.217698
v 0.896990 0.423008 0.435617
v 0.615662 0.165803 0.828972
v 0.448294 0.057868 1.001751
v 0.923799 1.576859 -0.382878
v 0.961246 1.376859 -0.278092
v 0.995181 1.178196 -0.145741
v 1.011772 0.983906 0.015880
v 0.996127 0.793850 0.203694
v 0.929336 0.607056 0.406819
v 0.794770 0.423008 0.602240
v 0.442108 0.165803 0.933153
v 0.244248 0.057868 1.069960
v 0.980744 1.576859 -0.195297
v 0.997029 1.376859 -0.085218
v 1.004491 1.178196 0.051209
v 0.989233 0.983906 0.212961
v 0.937248 0.793850 0.394115
v 0.832113 0.607056 0.580308
v 0.662008 0.423008 0.745720
v 0.251564 0.165803 1.001474
v 0.030816 0.057868 1.097051
v 1.000000 1.576859 -0.000211
v 0.994496 1.376859 0.110931
v 0.975200 1.178196 0.246192
v 0.928679 0.983906 0.401859
v 0.842351 0.793850 0.569390
v 0.702912 0.607056 0.731493
v 0.503805 0.423008 0.860543
v 0.051352 0.165803 1.031308
v -0.183800 0.057868 1.081983
v 0.980826 1.576859 0.194884
v 0.953746 1.376859 0.302815
v 0.908432 1.178196 0.431714
v 0.832436 0.983907 0.575314
v 0.715083 0.793850 0.722784
v 0.546698 0.607056 0.854570
v 0.326240 0.423008 0.942295
v -0.150832 0.165803 1.021511
v -0.391353 0.057868 1.025336
v 0.923960 1.576859 0.382489
v 0.876344 1.376859 0.483063
v 0.806754 1.178196 0.600644
v 0.704202 0.983906 0.726659
v 0.560335 0.793850 0.848401
v 0.369475 0.607056 0.944805
v 0.136139 0.423008 0.987836
v -0.347221 0.165803 0.972457
v -0.583866 0.057868 0.929285
v 0.831587 1.576859 0.555395
v 0.765264 1.376859 0.644748
v 0.674072 1.178196 0.746494
v 0.548907 0.983907 0.850080
v 0.384053 0.793850 0.941416
v 0.178053 0.607056 0.998732
v -0.059194 0.423008 0.995414
v -0.530266 0.165803 0.886031
v -0.753942 0.057868 0.797522
v 0.707256 1.576859 0.706958
v 0.624776 1.376859 0.781655
v 0.515487 1.178196 0.863655
v 0.372518 0.983907 0.940832
v 0.193013 0.793850 0.998251
v -0.020210 0.607056 1.014278
v -0.252252 0.423008 0.964740
v -0.692934 0.165803 0.765557
v -0.895044 0.057868 0.635111
v 0.555745 1.576859 0.831353
v 0.460277 1.376859 0.888523
v 0.337091 1.178196 0.947626
v 0.181813 0.983907 0.995429
v -0.005446 0.793850 1.016726
v -0.217698 0.607056 0.990846
v -0.435617 0.423008 0.896990
v -0.828972 0.165803 0.615662
v -1.001750 0.057868 0.448294
v 0.382878 1.576859 0.923799
v 0.278092 1.376859 0.961246
v 0.145741 1.178196 0.995181
v -0.015880 0.983907 1.011772
v -0.203694 0.793850 0.996126
v -0.406819 0.607056 0.929336
v -0.602240 0.423008 0.794770
v -0.933153 0.165803 0.442108
v -1.069960 0.057868 0.244248
v 0.195297 1.576859 0.980744
v 0.085218 1.376859 0.997029
v -0.051209 1.178196 1.004491
v -0.212961 0.983907 0.989233
v -0.394115 0.793850 0.937248
v -0.580308 0.607056 0.832113
v -0.745720 0.423008 0.662008
v -1.001474 0.165803 0.251564
v -1.097051 0.057868 0.030816
v 0.000211 1.576859 1.000000
v -0.110931 1.376859 0.994496
v -0.246192 1.178196 0.975200
v -0.401859 0.983907 0.928678
v -0.569390 0.793850 0.842351
v -0.731494 0.607056 0.702911
v -0.860543 0.423008 0.503804
v -1.031308 0.165803 0.051352
v -1.081983 0.057867 -0.183800
v -0.194884 1.576859 0.980826
v -0.302815 1.376859 0.953746
v -0.431714 1.178196 0.908432
v -0.575314 0.983907 0.832436
v -0.722784 0.793850 0.715083
v -0.854570 0.607056 0.546698
v -0.942295 0.423008 0.326240
v -1.021511 0.165803 -0.150832
v -1.025336 0.057868 -0.391353
v -0.382489 1.576859 0.923960
v -0.483064 1.376859 0.876343
v -0.600644 1.178196 0.806754
v -0.726659 0.983906 0.704202
v -0.848401 0.793850 0.560334
v -0.944805 0.607056 0.369475
v -0.987836 0.423008 0.136139
v -0.972457 0.165803 -0.347221
v -0.929285 0.057868 -0.583866
v -0.555395 1.576859 0.831587
v -0.644748 1.376859 0.765264
v -0.746494 1.178196 0.674072
v -0.850080 0.983907 0.548907
v -0.941416 0.793850 0.384053
v -0.998732 0.607056 0.178053
v -0.995414 0.423008 -0.059194
v -0.886031 0.165803 -0.530266
v -0.797522 0.057868 -0.753942
v -0.706958 1.576859 0.707256
v -0.781655 1.376859 0.624776
v -0.863655 1.178196 0.515486
v -0.940832 0.983906 0.372518
v -0.998251 0.793850 0.193013
v -1.014279 0.607056 -0.020211
v -0.964740 0.423008 -0.252252
v -0.765557 0.165803 -0.692934
v -0.635111 0.057867 -0.895044
v -0.831353 1.576859 0.555745
v -0.888523 1.376859 0.460277
v -0.947626 1.178196 0.337090
v -0.995429 0.983906 0.181812
v -1.016726 0.793850 -0.005446
v -0.990846 0.607056 -0.217698
v -0.896990 0.423008 -0.435617
v -0.615662 0.165803 -0.828972
v -0.448294 0.057868 -1.001751
v -0.923799 1.576859 0.382878
v -0.961246 1.376859 0.278091
v -0.995181 1.178196 0.145741
v -1.011772 0.983906 -0.015880
v -0.996127 0.793850 -0.203694
v -0.929336 0.607056 -0.406820
v -0.794770 0.423008 -0.602240
v -0.442108 0.165803 -0.933153
v -0.244248 0.057867 -1.069960
v -0.980744 1.576859 0.195297
v -0.997029 1.376859 0.085217
v -1.004491 1.178196 -0.051209
v -0.989233 0.983906 -0.212961
v -0.937248 0.793850 -0.394115
v -0.832113 0.607056 -0.580308
v -0.662008 0.423008 -0.745721
v -0.251564 0.165803 -1.001474
v -0.030816 0.057867 -1.097051
v -1.000000 1.576859 0.000211
v -0.994496 1.376859 -0.110931
v -0.975200 1.178196 -0.246192
v -0.928679 0.983906 -0.401859
v -0.842351 0.793850 -0.569390
v -0.702912 0.607056 -0.731494
v -0.503805 0.423008 -0.860543
v -0.051352 0.165803 -1.031308
v 0.183800 0.057867 -1.081983
v -0.980826 1.576859 -0.194884
v -0.953746 1.376859 -0.302815
v -0.908432 1.178196 -0.431714
v -0.832436 0.983907 -0.575314
v -0.715083 0.793850 -0.722784
v -0.546698 0.607056 -0.854570
v -0.326240 0.423008 -0.942295
v 0.150832 0.165803 -1.021511
v 0.391353 0.057867 -1.025336
v -0.923960 1.576859 -0.382489
v -0.876344 1.376859 -0.483064
v -0.806754 1.178196 -0.600644
v -0.704202 0.983906 -0.726659
v -0.560335 0.793850 -0.848401
v -0.369475 0.607056 -0.944805
v -0.136139 0.423008 -0.987836
v 0.347221 0.165803 -0.972457
v 0.583866 0.057867 -0.929285
v -0.831587 1.576859 -0.555395
v -0.765264 1.376859 -0.644748
v -0.674072 1.178196 -0.746494
v -0.548908 0.983906 -0.850080
v -0.384053 0.793850 -0.941416
v -0.178053 0.607056 -0.998732
v 0.059194 0.423008 -0.995414
v 0.530266 0.165803 -0.886031
v 0.753942 0.057868 -0.797522
v -0.707256 1.576859 -0.706958
v -0.624776 1.376859 -0.781655
v -0.515487 1.178196 -0.863655
v -0.372518 0.983906 -0.940832
v -0.193013 0.793850 -0.998252
v 0.020210 0.607056 -1.014279
v 0.252252 0.423008 -0.964740
v 0.692934 0.165803 -0.765557
v 0.895044 0.057867 -0.635111
v -0.555745 1.576859 -0.831353
v -0.460277 1.376858 -0.888523
v -0.337091 1.178196 -0.947626
v -0.181813 0.983906 -0.995429
v 0.005446 0.793850 -1.016726
v 0.217698 0.607056 -0.990846
v 0.435617 0.423008 -0.896991
v 0.828972 0.165803 -0.615662
v 1.001750 0.057868 -0.448294
v -0.382878 1.576859 -0.923799
v -0.278092 1.376858 -0.961246
v -0.145741 1.178196 -0.995181
v 0.015880 0.983906 -1.011773
v 0.203694 0.793850 -0.996127
v 0.406819 0.607056 -0.929336
v 0.602240 0.423008 -0.794771
v 0.933153 0.165803 -0.442108
v 1.069960 0.057867 -0.244248
v -0.195297 1.576859 -0.980744
v -0.085218 1.376858 -0.997029
v 0.051209 1.178196 -1.004492
v 0.212961 0.983906 -0.989234
v 0.394115 0.793850 -0.937248
v 0.580308 0.607056 -0.832113
v 0.745720 0.423008 -0.662008
v 1.001474 0.165803 -0.251564
v 1.097051 0.057867 -0.030816
v -0.000211 1.576859 -1.000000
v 0.110931 1.376858 -0.994496
v 0.246192 1.178196 -0.975200
v 0.401859 0.983906 -0.928679
v 0.569390 0.793850 -0.842351
v 0.731494 0.607056 -0.702912
v 0.860543 0.423008 -0.503805
v 1.031308 0.165803 -0.051352
v 1.081983 0.057868 0.183800
v 0.741097 0.012300 0.427873
v 0.643384 0.012300 0.564232
v 0.520944 0.012300 0.678908
v 0.378487 0.012300 0.767495
v 0.221483 0.012300 0.826587
v 0.055968 0.012300 0.853913
v -0.111697 0.012300 0.848425
v -0.275071 0.012300 0.810331
v -0.427873 0.012300 0.741097
v -0.564232 0.012300 0.643384
v -0.678908 0.012300 0.520944
v -0.767495 0.012300 0.378487
v -0.826587 0.012300 0.221483
v -0.853913 0.012300 0.055968
v -0.848424 0.012300 -0.111697
v -0.810331 0.012299 -0.275071
v -0.741097 0.012299 -0.427873
v -0.643384 0.012299 -0.564232
v -0.520944 0.012299 -0.678908
v -0.378487 0.012299 -0.767495
v -0.221483 0.012299 -0.826586
v -0.055968 0.012299 -0.853913
v 0.111697 0.012299 -0.848424
v 0.275071 0.012299 -0.810331
v 0.427873 0.012299 -0.741097
v 0.564232 0.012299 -0.643384
v 0.678908 0.012299 -0.520944
v 0.767495 0.012299 -0.378487
v 0.826587 0.012300 -0.221483
v 0.853913 0.012300 -0.055968
v 0.848425 0.012300 0.111697
v 0.810331 0.012300 0.275071
v 0.877017 0.076236 0.236631
v 0.940278 0.218526 -0.019086
v 0.941379 0.423008 -0.325923
v 0.986876 0.423008 -0.136007
v 0.925934 0.218526 0.164720
v 0.814001 0.076236 0.403182
v 0.994446 0.423008 0.059137
v 0.876007 0.218526 0.342196
v 0.719702 0.076236 0.554238
v 0.963802 0.423008 0.252007
v 0.792416 0.218526 0.506521
v 0.597748 0.076236 0.683996
v 0.896118 0.423008 0.435193
v 0.678372 0.218526 0.651381
v 0.452821 0.076237 0.787467
v 0.793998 0.423008 0.601655
v 0.538259 0.218526 0.771208
v 0.290493 0.076236 0.860678
v 0.661364 0.423008 0.744995
v 0.377462 0.218526 0.861400
v 0.117001 0.076236 0.900813
v 0.503315 0.423008 0.859706
v 0.202158 0.218526 0.918487
v -0.060987 0.076236 0.906329
v 0.325923 0.423008 0.941379
v 0.019086 0.218526 0.940278
v -0.236631 0.076236 0.877017
v 0.136007 0.423008 0.986876
v -0.164719 0.218526 0.925934
v -0.403182 0.076236 0.814001
v -0.059137 0.423008 0.994446
v -0.342196 0.218526 0.876007
v -0.554238 0.076236 0.719702
v -0.252007 0.423008 0.963802
v -0.506521 0.218526 0.792416
v -0.683996 0.076236 0.597748
v -0.435193 0.423008 0.896118
v -0.651381 0.218526 0.678372
v -0.787467 0.076237 0.452821
v -0.601655 0.423008 0.793998
v -0.771208 0.218526 0.538259
v -0.860678 0.076236 0.290493
v -0.744996 0.423008 0.661364
v -0.861400 0.218526 0.377462
v -0.900813 0.076236 0.117001
v -0.859706 0.423008 0.503315
v -0.918487 0.218526 0.202158
v -0.906329 0.076236 -0.060987
v -0.941379 0.423008 0.325923
v -0.940278 0.218526 0.019086
v -0.877017 0.076236 -0.236631
v -0.986876 0.423008 0.136007
v -0.925934 0.218526 -0.164720
v -0.814001 0.076236 -0.403182
v -0.994446 0.423008 -0.059137
v -0.876007 0.218526 -0.342196
v -0.719702 0.076236 -0.554238
v -0.963802 0.423008 -0.252007
v -0.792416 0.218526 -0.506521
v -0.597748 0.076236 -0.683996
v -0.896118 0.423008 -0.435193
v -0.678372 0.218526 -0.651381
v -0.452821 0.076237 -0.787467
v -0.793998 0.423008 -0.601655
v -0.538259 0.218526 -0.771208
v -0.290493 0.076236 -0.860678
v -0.661364 0.423008 -0.744996
v -0.377462 0.218526 -0.861400
v -0.117001 0.076236 -0.900813
v -0.503315 0.423008 -0.859707
v -0.202158 0.218525 -0.918487
v 0.060987 0.076236 -0.906329
v -0.325923 0.423008 -0.941379
v -0.019086 0.218526 -0.940278
v 0.236631 0.076236 -0.877017
v -0.136007 0.423008 -0.986876
v 0.164720 0.218526 -0.925934
v 0.403182 0.076236 -0.814001
v 0.059137 0.423008 -0.994446
v 0.342196 0.218526 -0.876007
v 0.554238 0.076236 -0.719702
v 0.252007 0.423008 -0.963802
v 0.506521 0.218526 -0.792416
v 0.683996 0.076236 -0.597748
v 0.435193 0.423008 -0.896118
v 0.651381 0.218526 -0.678372
v 0.787467 0.076237 -0.452821
v 0.601655 0.423008 -0.793998
v 0.771208 0.218526 -0.538259
v 0.860678 0.076236 -0.290493
v 0.744996 0.423008 -0.661364
v 0.861399 0.218526 -0.377462
v 0.900813 0.076236 -0.117001
v 0.859706 0.423008 -0.503315
v 0.918487 0.218526 -0.202158
v 0.906329 0.076236 0.060987
vn 0.1979 0.0017 -0.9802
vn 0.1272 -0.0000 -0.9919
vn 0.3182 -0.0000 -0.9480
vn 0.3854 0.0017 -0.9228
vn 0.4971 -0.0000 -0.8677
vn 0.5580 0.0017 -0.8299
vn 0.6568 -0.0000 -0.7541
vn 0.7092 0.0017 -0.7051
vn 0.7913 -0.0000 -0.6114
vn 0.8331 0.0017 -0.5532
vn 0.8954 -0.0000 -0.4453
vn 0.9250 0.0017 -0.3800
vn 0.9650 -0.0000 -0.2621
vn 0.9813 0.0017 -0.1922
vn 0.9976 -0.0000 -0.0688
vn 1.0000 0.0017 0.0029
vn 0.9919 -0.0000 0.1272
vn 0.9802 0.0017 0.1979
vn 0.9480 -0.0000 0.3182
vn 0.9228 0.0017 0.3854
vn 0.8677 -0.0000 0.4971
vn 0.8299 0.0017 0.5580
vn 0.7541 -0.0000 0.6568
vn 0.7051 0.0017 0.7092
vn 0.6114 -0.0000 0.7913
vn 0.5532 0.0017 0.8331
vn 0.4453 -0.0000 0.8954
vn 0.3800 0.0017 0.9250
vn 0.2621 -0.0000 0.9650
vn 0.1922 0.0017 0.9813
vn 0.0688 -0.0000 0.9976
vn -0.0029 0.0017 1.0000
vn -0.1272 -0.0000 0.9919
vn -0.1979 0.0017 0.9802
vn -0.3182 -0.0000 0.9480
vn -0.3854 0.0017 0.9228
vn -0.4971 -0.0000 0.8677
vn -0.5580 0.0017 0.8299
vn -0.6568 -0.0000 0.7541
vn -0.7092 0.0017 0.7051
vn -0.7913 -0.0000 0.6114
vn -0.8331 0.0017 0.5532
vn -0.8954 -0.0000 0.4453
vn -0.9250 0.0017 0.3800
vn -0.9650 -0.0000 0.2621
vn -0.9813 0.0017 0.1922
vn -0.9976 -0.0000 0.0688
vn -1.0000 0.0017 -0.0029
vn -0.9919 -0.0000 -0.1272
vn -0.9802 0.0017 -0.1979
vn -0.9480 -0.0000 -0.3182
vn -0.9228 0.0017 -0.3854
vn -0.8677 -0.0000 -0.4971
vn -0.8299 0.0017 -0.5580
vn -0.7541 -0.0000 -0.6568
vn -0.7051 0.0017 -0.7092
vn -0.6114 -0.0000 -0.7913
vn -0.5532 0.0017 -0.8331
vn -0.4453 -0.0000 -0.8954
vn -0.3800 0.0017 -0.9250
vn -0.2621 -0.0000 -0.9650
vn -0.1922 0.0017 -0.9813
vn -0.0688 -0.0000 -0.9976
vn 0.0029 0.0017 -1.0000
vn 0.3355 0.9359 0.1078
vn 0.6195 0.7796 0.0922
vn 0.5896 0.7796 0.2113
vn 0.3080 0.9359 0.1711
vn 0.9331 0.3419 -0.1111
vn 0.9369 0.3419 0.0731
vn 0.8899 0.0224 -0.4557
vn 0.9617 0.0224 -0.2733
vn 0.7227 -0.0531 -0.6891
vn 0.8432 -0.0531 -0.5349
vn 0.5633 0.0067 -0.8262
vn 0.7137 0.0067 -0.7004
vn 0.4005 0.0285 -0.9159
vn 0.5714 0.0285 -0.8201
vn 0.2481 0.0287 -0.9683
vn 0.4322 0.0287 -0.9013
vn 0.1142 0.0146 -0.9934
vn 0.3058 0.0146 -0.9520
vn 0.3501 0.9359 0.0402
vn 0.6256 0.7796 -0.0305
vn 0.8935 0.3419 -0.2910
vn 0.7839 0.0224 -0.6205
vn 0.5743 -0.0531 -0.8169
vn 0.3913 0.0067 -0.9202
vn 0.2141 0.0285 -0.9764
vn 0.0544 0.0287 -0.9981
vn -0.0818 0.0146 -0.9965
vn 0.3512 0.9359 -0.0288
vn 0.6076 0.7796 -0.1519
vn 0.8196 0.3419 -0.4597
vn 0.6478 0.0224 -0.7615
vn 0.4039 -0.0531 -0.9132
vn 0.2043 0.0067 -0.9789
vn 0.0195 0.0285 -0.9994
vn -0.1414 0.0287 -0.9895
vn -0.2746 0.0146 -0.9614
vn 0.3388 0.9359 -0.0968
vn 0.5663 0.7796 -0.2675
vn 0.7142 0.3419 -0.6108
vn 0.4868 0.0224 -0.8733
vn 0.2180 -0.0531 -0.9745
vn 0.0094 0.0067 -0.9999
vn -0.1759 0.0285 -0.9840
vn -0.3317 0.0287 -0.9429
vn -0.4569 0.0146 -0.8894
vn 0.3134 0.9359 -0.1610
vn 0.5032 0.7796 -0.3729
vn 0.5813 0.3419 -0.7384
vn 0.3070 0.0224 -0.9514
vn 0.0237 -0.0531 -0.9983
vn -0.1859 0.0067 -0.9826
vn -0.3645 0.0285 -0.9308
vn -0.5093 0.0287 -0.8601
vn -0.6217 0.0146 -0.7832
vn 0.2760 0.9359 -0.2191
vn 0.4208 0.7796 -0.4639
vn 0.4261 0.3419 -0.8376
vn 0.1155 0.0224 -0.9931
vn -0.1715 -0.0531 -0.9838
vn -0.3740 0.0067 -0.9274
vn -0.5390 0.0285 -0.8418
vn -0.6673 0.0287 -0.7442
vn -0.7625 0.0146 -0.6468
vn 0.2279 0.9359 -0.2687
vn 0.3222 0.7796 -0.5371
vn 0.2545 0.3419 -0.9046
vn -0.0804 0.0224 -0.9965
vn -0.3601 -0.0531 -0.9314
vn -0.5477 0.0067 -0.8366
vn -0.6929 0.0285 -0.7205
vn -0.7997 0.0287 -0.5997
vn -0.8740 0.0146 -0.4856
vn 0.1711 0.9359 -0.3080
vn 0.2113 0.7796 -0.5896
vn 0.0731 0.3419 -0.9369
vn -0.2733 0.0224 -0.9617
vn -0.5349 -0.0531 -0.8432
vn -0.7004 0.0067 -0.7137
vn -0.8201 0.0285 -0.5714
vn -0.9013 0.0287 -0.4322
vn -0.9520 0.0146 -0.3058
vn 0.1078 0.9359 -0.3355
vn 0.0922 0.7796 -0.6195
vn -0.1111 0.3419 -0.9331
vn -0.4557 0.0224 -0.8899
vn -0.6891 -0.0531 -0.7227
vn -0.8262 0.0067 -0.5633
vn -0.9159 0.0285 -0.4005
vn -0.9683 0.0287 -0.2481
vn -0.9934 0.0146 -0.1142
vn 0.0402 0.9359 -0.3501
vn -0.0305 0.7796 -0.6256
vn -0.2910 0.3419 -0.8935
vn -0.6205 0.0224 -0.7839
vn -0.8169 -0.0531 -0.5743
vn -0.9202 0.0067 -0.3913
vn -0.9764 0.0285 -0.2141
vn -0.9981 0.0287 -0.0544
vn -0.9965 0.0146 0.0818
vn -0.0288 0.9359 -0.3512
vn -0.1519 0.7796 -0.6076
vn -0.4597 0.3419 -0.8196
vn -0.7615 0.0224 -0.6478
vn -0.9132 -0.0531 -0.4039
vn -0.9789 0.0067 -0.2043
vn -0.9994 0.0285 -0.0195
vn -0.9895 0.0287 0.1414
vn -0.9614 0.0146 0.2746
vn -0.0968 0.9359 -0.3388
vn -0.2675 0.7796 -0.5663
vn -0.6108 0.3419 -0.7142
vn -0.8733 0.0224 -0.4868
vn -0.9745 -0.0531 -0.2180
vn -0.9999 0.0067 -0.0094
vn -0.9840 0.0285 0.1759
vn -0.9429 0.0287 0.3317
vn -0.8894 0.0146 0.4569
vn -0.1610 0.9359 -0.3134
vn -0.3729 0.7796 -0.5032
vn -0.7384 0.3419 -0.5813
vn -0.9514 0.0224 -0.3070
vn -0.9983 -0.0531 -0.0237
vn -0.9826 0.0067 0.1859
vn -0.9308 0.0285 0.3645
vn -0.8601 0.0287 0.5093
vn -0.7832 0.0146 0.6217
vn -0.2191 0.9359 -0.2760
vn -0.4639 0.7796 -0.4208
vn -0.8376 0.3419 -0.4261
vn -0.9931 0.0224 -0.1155
vn -0.9838 -0.0531 0.1715
vn -0.9274 0.0067 0.3740
vn -0.8418 0.0285 0.5390
vn -0.7442 0.0287 0.6673
vn -0.6468 0.0146 0.7625
vn -0.2687 0.9359 -0.2279
vn -0.5371 0.7796 -0.3222
vn -0.9046 0.3419 -0.2545
vn -0.9965 0.0224 0.0804
vn -0.9314 -0.0531 0.3601
vn -0.8366 0.0067 0.5477
vn -0.7205 0.0285 0.6929
vn -0.5997 0.0287 0.7997
vn -0.4856 0.0146 0.8740
vn -0.3080 0.9359 -0.1711
vn -0.5896 0.7796 -0.2113
vn -0.9369 0.3419 -0.0731
vn -0.9617 0.0224 0.2733
vn -0.8432 -0.0531 0.5349
vn -0.7137 0.0067 0.7004
vn -0.5714 0.0285 0.8201
vn -0.4322 0.0287 0.9013
vn -0.3058 0.0146 0.9520
vn -0.3355 0.9359 -0.1078
vn -0.6195 0.7796 -0.0922
vn -0.9331 0.3419 0.1111
vn -0.8899 0.0224 0.4557
vn -0.7227 -0.0531 0.6891
vn -0.5633 0.0067 0.8262
vn -0.4005 0.0285 0.9159
vn -0.2481 0.0287 0.9683
vn -0.1142 0.0146 0.9934
vn -0.3501 0.9359 -0.0402
vn -0.6256 0.7796 0.0305
vn -0.8935 0.3419 0.2910
vn -0.7839 0.0224 0.6205
vn -0.5743 -0.0531 0.8169
vn -0.3913 0.0067 0.9202
vn -0.2141 0.0285 0.9764
vn -0.0544 0.0287 0.9981
vn 0.0818 0.0146 0.9965
vn -0.3512 0.9359 0.0288
vn -0.6076 0.7796 0.1519
vn -0.8196 0.3419 0.4597
vn -0.6478 0.0224 0.7615
vn -0.4039 -0.0531 0.9132
vn -0.2043 0.0067 0.9789
vn -0.0195 0.0285 0.9994
vn 0.1414 0.0287 0.9895
vn 0.2746 0.0146 0.9614
vn -0.3388 0.9359 0.0968
vn -0.5663 0.7796 0.2675
vn -0.7142 0.3419 0.6108
vn -0.4868 0.0224 0.8733
vn -0.2180 -0.0531 0.9745
vn -0.0094 0.0067 0.9999
vn 0.1759 0.0285 0.9840
vn 0.3317 0.0287 0.9429
vn 0.4569 0.0146 0.8894
vn -0.3134 0.9359 0.1610
vn -0.5032 0.7796 0.3729
vn -0.5813 0.3419 0.7384
vn -0.3070 0.0224 0.9514
vn -0.0237 -0.0531 0.9983
vn 0.1859 0.0067 0.9826
vn 0.3645 0.0285 0.9308
vn 0.5093 0.0287 0.8601
vn 0.6217 0.0146 0.7832
vn -0.2760 0.9359 0.2191
vn -0.4208 0.7796 0.4639
vn -0.4261 0.3419 0.8376
vn -0.1155 0.0224 0.9931
vn 0.1715 -0.0531 0.9837
vn 0.3740 0.0067 0.9274
vn 0.5390 0.0285 0.8418
vn 0.6673 0.0287 0.7442
vn 0.7625 0.0146 0.6468
vn -0.2279 0.9359 0.2687
vn -0.3222 0.7796 0.5371
vn -0.2545 0.3419 0.9046
vn 0.0804 0.0224 0.9965
vn 0.3601 -0.0531 0.9314
vn 0.5477 0.0067 0.8366
vn 0.6929 0.0285 0.7205
vn 0.7997 0.0287 0.5997
vn 0.8740 0.0146 0.4856
vn -0.1711 0.9359 0.3080
vn -0.2113 0.7796 0.5896
vn -0.0731 0.3419 0.9369
vn 0.2733 0.0224 0.9617
vn 0.5349 -0.0531 0.8432
vn 0.7004 0.0067 0.7137
vn 0.8201 0.0285 0.5714
vn 0.9013 0.0287 0.4322
vn 0.9520 0.0146 0.3058
vn -0.1078 0.9359 0.3355
vn -0.0922 0.7796 0.6195
vn 0.1111 0.3419 0.9331
vn 0.4557 0.0224 0.8899
vn 0.6891 -0.0531 0.7227
vn 0.8262 0.0067 0.5633
vn 0.9159 0.0285 0.4005
vn 0.9683 0.0287 0.2481
vn 0.9934 0.0146 0.1142
vn -0.0402 0.9359 0.3501
vn 0.0305 0.7796 0.6256
vn 0.2910 0.3419 0.8935
vn 0.6205 0.0224 0.7839
vn 0.8169 -0.0531 0.5743
vn 0.9202 0.0067 0.3913
vn 0.9764 0.0285 0.2141
vn 0.9981 0.0287 0.0544
vn 0.9965 0.0146 -0.0818
vn 0.0288 0.9359 0.3512
vn 0.1519 0.7796 0.6076
vn 0.4597 0.3419 0.8196
vn 0.7615 0.0224 0.6478
vn 0.9132 -0.0531 0.4039
vn 0.9789 0.0067 0.2043
vn 0.9994 0.0285 0.0195
vn 0.9895 0.0287 -0.1414
vn 0.9614 0.0146 -0.2746
vn 0.0968 0.9359 0.3388
vn 0.2675 0.7796 0.5663
vn 0.6108 0.3419 0.7142
vn 0.8733 0.0224 0.4868
vn 0.9745 -0.0531 0.2180
vn 0.9999 0.0067 0.0094
vn 0.9840 0.0285 -0.1759
vn 0.9429 0.0287 -0.3317
vn 0.8894 0.0146 -0.4569
vn 0.1610 0.9359 0.3134
vn 0.3729 0.7796 0.5032
vn 0.7384 0.3419 0.5813
vn 0.9514 0.0224 0.3070
vn 0.9983 -0.0531 0.0237
vn 0.9826 0.0067 -0.1859
vn 0.9308 0.0285 -0.3645
vn 0.8601 0.0287 -0.5093
vn 0.7832 0.0146 -0.6217
vn 0.2191 0.9359 0.2760
vn 0.4639 0.7796 0.4208
vn 0.8376 0.3419 0.4261
vn 0.9931 0.0224 0.1155
vn 0.9837 -0.0531 -0.1715
vn 0.9274 0.0067 -0.3740
vn 0.8418 0.0285 -0.5390
vn 0.7442 0.0287 -0.6673
vn 0.6468 0.0146 -0.7625
vn 0.2687 0.9359 0.2279
vn 0.5371 0.7796 0.3222
vn 0.9046 0.3419 0.2545
vn 0.9965 0.0224 -0.0804
vn 0.9314 -0.0531 -0.3601
vn 0.8366 0.0067 -0.5477
vn 0.7205 0.0285 -0.6929
vn 0.5997 0.0287 -0.7997
vn 0.4856 0.0146 -0.8740
vn 0.7421 -0.6376 0.2066
vn 0.8983 -0.4375 0.0408
vn 0.8731 -0.4375 0.2152
vn 0.6876 -0.6376 0.3474
vn 0.9440 -0.2449 -0.2212
vn 0.9690 -0.2449 -0.0328
vn 0.8663 -0.1518 -0.4759
vn 0.9425 -0.1518 -0.2978
vn 0.7682 -0.6376 0.0579
vn 0.8890 -0.4375 -0.1353
vn 0.8827 -0.2449 -0.4011
vn 0.7568 -0.1518 -0.6358
vn 0.7647 -0.6376 -0.0931
vn 0.8455 -0.4375 -0.3061
vn 0.7875 -0.2449 -0.5656
vn 0.6182 -0.1518 -0.7712
vn 0.7319 -0.6376 -0.2405
vn 0.7696 -0.4375 -0.4652
vn 0.6620 -0.2449 -0.7084
vn 0.4559 -0.1518 -0.8770
vn 0.6709 -0.6376 -0.3787
vn 0.6640 -0.4375 -0.6064
vn 0.5111 -0.2449 -0.8239
vn 0.2760 -0.1518 -0.9491
vn 0.5841 -0.6376 -0.5023
vn 0.5330 -0.4375 -0.7243
vn 0.3405 -0.2449 -0.9078
vn 0.0856 -0.1518 -0.9847
vn 0.4749 -0.6376 -0.6066
vn 0.3814 -0.4375 -0.8143
vn 0.1568 -0.2449 -0.9568
vn -0.1082 -0.1518 -0.9825
vn 0.3474 -0.6376 -0.6876
vn 0.2152 -0.4375 -0.8731
vn -0.0328 -0.2449 -0.9690
vn -0.2978 -0.1518 -0.9425
vn 0.2066 -0.6376 -0.7421
vn 0.0408 -0.4375 -0.8983
vn -0.2212 -0.2449 -0.9440
vn -0.4759 -0.1518 -0.8663
vn 0.0579 -0.6376 -0.7682
vn -0.1353 -0.4375 -0.8890
vn -0.4011 -0.2449 -0.8827
vn -0.6358 -0.1518 -0.7568
vn -0.0931 -0.6376 -0.7647
vn -0.3061 -0.4375 -0.8455
vn -0.5656 -0.2449 -0.7875
vn -0.7712 -0.1518 -0.6182
vn -0.2405 -0.6376 -0.7319
vn -0.4652 -0.4375 -0.7696
vn -0.7084 -0.2449 -0.6620
vn -0.8770 -0.1518 -0.4559
vn -0.3787 -0.6376 -0.6709
vn -0.6064 -0.4375 -0.6640
vn -0.8239 -0.2449 -0.5111
vn -0.9491 -0.1518 -0.2760
vn -0.5023 -0.6376 -0.5841
vn -0.7243 -0.4375 -0.5330
vn -0.9078 -0.2449 -0.3405
vn -0.9847 -0.1518 -0.0856
vn -0.6066 -0.6376 -0.4749
vn -0.8143 -0.4375 -0.3814
vn -0.9568 -0.2449 -0.1568
vn -0.9825 -0.1518 0.1082
vn -0.6876 -0.6376 -0.3474
vn -0.8731 -0.4375 -0.2152
vn -0.9690 -0.2449 0.0328
vn -0.9425 -0.1518 0.2978
vn -0.7421 -0.6376 -0.2066
vn -0.8983 -0.4375 -0.0408
vn -0.9440 -0.2449 0.2212
vn -0.8663 -0.1518 0.4759
vn -0.7682 -0.6376 -0.0579
vn -0.8890 -0.4375 0.1353
vn -0.8827 -0.2449 0.4011
vn -0.7568 -0.1518 0.6358
vn -0.7647 -0.6376 0.0931
vn -0.8455 -0.4375 0.3061
vn -0.7875 -0.2449 0.5656
vn -0.6182 -0.1518 0.7712
vn -0.7319 -0.6376 0.2405
vn -0.7696 -0.4375 0.4652
vn -0.6620 -0.2449 0.7084
vn -0.4559 -0.1518 0.8770
vn -0.6709 -0.6376 0.3787
vn -0.6640 -0.4375 0.6064
vn -0.5111 -0.2449 0.8239
vn -0.2760 -0.1518 0.9491
vn -0.5841 -0.6376 0.5023
vn -0.5330 -0.4375 0.7243
vn -0.3405 -0.2449 0.9078
vn -0.0856 -0.1518 0.9847
vn -0.4749 -0.6376 0.6066
vn -0.3814 -0.4375 0.8143
vn -0.1568 -0.2449 0.9568
vn 0.1082 -0.1518 0.9825
vn -0.3474 -0.6376 0.6876
vn -0.2152 -0.4375 0.8731
vn 0.0328 -0.2449 0.9690
vn 0.2978 -0.1518 0.9425
vn -0.2066 -0.6376 0.7421
vn -0.0408 -0.4375 0.8983
vn 0.2212 -0.2449 0.9440
vn 0.4759 -0.1518 0.8663
vn -0.0579 -0.6376 0.7682
vn 0.1353 -0.4375 0.8890
vn 0.4011 -0.2449 0.8827
vn 0.6358 -0.1518 0.7568
vn 0.0931 -0.6376 0.7647
vn 0.3061 -0.4375 0.8455
vn 0.5656 -0.2449 0.7875
vn 0.7712 -0.1518 0.6182
vn 0.2405 -0.6376 0.7319
vn 0.4652 -0.4375 0.7696
vn 0.7084 -0.2449 0.6620
vn 0.8770 -0.1518 0.4559
vn 0.3787 -0.6376 0.6709
vn 0.6064 -0.4375 0.6640
vn 0.8239 -0.2449 0.5111
vn 0.9491 -0.1518 0.2760
vn 0.5023 -0.6376 0.5841
vn 0.7243 -0.4375 0.5330
vn 0.9078 -0.2449 0.3405
vn 0.9847 -0.1518 0.0856
vn 0.6066 -0.6376 0.4749
vn 0.8143 -0.4375 0.3814
vn 0.9568 -0.2449 0.1568
vn 0.9825 -0.1518 -0.1082
vt 1.000000 0.900000
vt 1.000000 1.000000
vt 0.968750 1.000000
vt 0.968750 0.900000
vt 0.937500 1.000000
vt 0.937500 0.900000
vt 0.906250 1.000000
vt 0.906250 0.900000
vt 0.875000 1.000000
vt 0.875000 0.900000
vt 0.843750 1.000000
vt 0.843750 0.900000
vt 0.812500 1.000000
vt 0.812500 0.900000
vt 0.781250 1.000000
vt 0.781250 0.900000
vt 0.750000 1.000000
vt 0.750000 0.900000
vt 0.718750 1.000000
vt 0.718750 0.900000
vt 0.687500 1.000000
vt 0.687500 0.900000
vt 0.656250 1.000000
vt 0.656250 0.900000
vt 0.625000 1.000000
vt 0.625000 0.900000
vt 0.593750 1.000000
vt 0.593750 0.900000
vt 0.562500 1.000000
vt 0.562500 0.900000
vt 0.531250 1.000000
vt 0.531250 0.900000
vt 0.500000 1.000000
vt 0.500000 0.900000
vt 0.468750 1.000000
vt 0.468750 0.900000
vt 0.437500 1.000000
vt 0.437500 0.900000
vt 0.406250 1.000000
vt 0.406250 0.900000
vt 0.375000 1.000000
vt 0.375000 0.900000
vt 0.343750 1.000000
vt 0.343750 0.900000
vt 0.312500 1.000000
vt 0.312500 0.900000
vt 0.281250 1.000000
vt 0.281250 0.900000
vt 0.250000 1.000000
vt 0.250000 0.900000
vt 0.218750 1.000000
vt 0.218750 0.900000
vt 0.187500 1.000000
vt 0.187500 0.900000
vt 0.156250 1.000000
vt 0.156250 0.900000
vt 0.125000 1.000000
vt 0.125000 0.900000
vt 0.093750 1.000000
vt 0.093750 0.900000
vt 0.062500 1.000000
vt 0.062500 0.900000
vt 0.031250 1.000000
vt 0.031250 0.900000
vt 0.000000 1.000000
vt 0.000000 0.900000
vt 0.031250 0.000000
vt 0.031250 0.058778
vt 0.000000 0.058778
vt 0.000000 0.000000
vt 0.031250 0.139608
vt 0.000000 0.139608
vt 0.031250 0.300000
vt 0.000000 0.300000
vt 0.031250 0.400000
vt 0.000000 0.400000
vt 0.031250 0.500000
vt 0.000000 0.500000
vt 0.031250 0.600000
vt 0.000000 0.600000
vt 0.031250 0.700000
vt 0.000000 0.700000
vt 0.031250 0.800000
vt 0.000000 0.800000
vt 0.062500 0.000000
vt 0.062500 0.058778
vt 0.062500 0.139609
vt 0.062500 0.300000
vt 0.062500 0.400000
vt 0.062500 0.500000
vt 0.062500 0.600000
vt 0.062500 0.700000
vt 0.062500 0.800000
vt 0.093750 0.000000
vt 0.093750 0.058778
vt 0.093750 0.139609
vt 0.093750 0.300000
vt 0.093750 0.400000
vt 0.093750 0.500000
vt 0.093750 0.600000
vt 0.093750 0.700000
vt 0.093750 0.800000
vt 0.125000 0.000000
vt 0.125000 0.058778
vt 0.125000 0.139608
vt 0.125000 0.300000
vt 0.125000 0.400000
vt 0.125000 0.500000
vt 0.125000 0.600000
vt 0.125000 0.700000
vt 0.125000 0.800000
vt 0.156250 0.000000
vt 0.156250 0.058778
vt 0.156250 0.139608
vt 0.156250 0.300000
vt 0.156250 0.400000
vt 0.156250 0.500000
vt 0.156250 0.600000
vt 0.156250 0.700000
vt 0.156250 0.800000
vt 0.187500 0.000000
vt 0.187500 0.058778
vt 0.187500 0.139608
vt 0.187500 0.300000
vt 0.187500 0.400000
vt 0.187500 0.500000
vt 0.187500 0.600000
vt 0.187500 0.700000
vt 0.187500 0.800000
vt 0.218750 0.000000
vt 0.218750 0.058778
vt 0.218750 0.139608
vt 0.218750 0.300000
vt 0.218750 0.400000
vt 0.218750 0.500000
vt 0.218750 0.600000
vt 0.218750 0.700000
vt 0.218750 0.800000
vt 0.250000 0.000000
vt 0.250000 0.058778
vt 0.250000 0.139609
vt 0.250000 0.300000
vt 0.250000 0.400000
vt 0.250000 0.500000
vt 0.250000 0.600000
vt 0.250000 0.700000
vt 0.250000 0.800000
vt 0.281250 0.000000
vt 0.281250 0.058778
vt 0.281250 0.139608
vt 0.281250 0.300000
vt 0.281250 0.400000
vt 0.281250 0.500000
vt 0.281250 0.600000
vt 0.281250 0.700000
vt 0.281250 0.800000
vt 0.312500 0.000000
vt 0.312500 0.058778
vt 0.312500 0.139609
vt 0.312500 0.300000
vt 0.312500 0.400000
vt 0.312500 0.500000
vt 0.312500 0.600000
vt 0.312500 0.700000
vt 0.312500 0.800000
vt 0.343750 0.000000
vt 0.343750 0.058778
vt 0.343750 0.139608
vt 0.343750 0.300000
vt 0.343750 0.400000
vt 0.343750 0.500000
vt 0.343750 0.600000
vt 0.343750 0.700000
vt 0.343750 0.800000
vt 0.375000 0.000000
vt 0.375000 0.058778
vt 0.375000 0.139608
vt 0.375000 0.300000
vt 0.375000 0.400000
vt 0.375000 0.500000
vt 0.375000 0.600000
vt 0.375000 0.700000
vt 0.375000 0.800000
vt 0.406250 0.000000
vt 0.406250 0.058778
vt 0.406250 0.139609
vt 0.406250 0.300000
vt 0.406250 0.400000
vt 0.406250 0.500000
vt 0.406250 0.600000
vt 0.406250 0.700000
vt 0.406250 0.800000
vt 0.437500 0.000000
vt 0.437500 0.058778
vt 0.437500 0.139609
vt 0.437500 0.300000
vt 0.437500 0.400000
vt 0.437500 0.500000
vt 0.437500 0.600000
vt 0.437500 0.700000
vt 0.437500 0.800000
vt 0.468750 0.000000
vt 0.468750 0.058778
vt 0.468750 0.139608
vt 0.468750 0.300000
vt 0.468750 0.400000
vt 0.468750 0.500000
vt 0.468750 0.600000
vt 0.468750 0.700000
vt 0.468750 0.800000
vt 0.500000 0.000000
vt 0.500000 0.058778
vt 0.500000 0.139609
vt 0.500000 0.300000
vt 0.500000 0.400000
vt 0.500000 0.500000
vt 0.500000 0.600000
vt 0.500000 0.700000
vt 0.500000 0.800000
vt 0.531250 0.000000
vt 0.531250 0.058778
vt 0.531250 0.139609
vt 0.531250 0.300000
vt 0.531250 0.400000
vt 0.531250 0.500000
vt 0.531250 0.600000
vt 0.531250 0.700000
vt 0.531250 0.800000
vt 0.562500 0.000000
vt 0.562500 0.058778
vt 0.562500 0.139609
vt 0.562500 0.300000
vt 0.562500 0.400000
vt 0.562500 0.500000
vt 0.562500 0.600000
vt 0.562500 0.700000
vt 0.562500 0.800000
vt 0.593750 0.000000
vt 0.593750 0.058778
vt 0.593750 0.139608
vt 0.593750 0.300000
vt 0.593750 0.400000
vt 0.593750 0.500000
vt 0.593750 0.600000
vt 0.593750 0.700000
vt 0.593750 0.800000
vt 0.625000 0.000000
vt 0.625000 0.058778
vt 0.625000 0.139608
vt 0.625000 0.300000
vt 0.625000 0.400000
vt 0.625000 0.500000
vt 0.625000 0.600000
vt 0.625000 0.700000
vt 0.625000 0.800000
vt 0.656250 0.000000
vt 0.656250 0.058778
vt 0.656250 0.139608
vt 0.656250 0.300000
vt 0.656250 0.400000
vt 0.656250 0.500000
vt 0.656250 0.600000
vt 0.656250 0.700000
vt 0.656250 0.800000
vt 0.687500 0.000000
vt 0.687500 0.058778
vt 0.687500 0.139609
vt 0.687500 0.300000
vt 0.687500 0.400000
vt 0.687500 0.500000
vt 0.687500 0.600000
vt 0.687500 0.700000
vt 0.687500 0.800000
vt 0.718750 0.000000
vt 0.718750 0.058778
vt 0.718750 0.139608
vt 0.718750 0.300000
vt 0.718750 0.400000
vt 0.718750 0.500000
vt 0.718750 0.600000
vt 0.718750 0.700000
vt 0.718750 0.800000
vt 0.750000 0.000000
vt 0.750000 0.058778
vt 0.750000 0.139608
vt 0.750000 0.300000
vt 0.750000 0.400000
vt 0.750000 0.500000
vt 0.750000 0.600000
vt 0.750000 0.700000
vt 0.750000 0.800000
vt 0.781250 0.000000
vt 0.781250 0.058778
vt 0.781250 0.139609
vt 0.781250 0.300000
vt 0.781250 0.400000
vt 0.781250 0.500000
vt 0.781250 0.600000
vt 0.781250 0.700000
vt 0.781250 0.800000
vt 0.812500 0.000000
vt 0.812500 0.058778
vt 0.812500 0.139609
vt 0.812500 0.300000
vt 0.812500 0.400000
vt 0.812500 0.500000
vt 0.812500 0.600000
vt 0.812500 0.700000
vt 0.812500 0.800000
vt 0.843750 0.000000
vt 0.843750 0.058778
vt 0.843750 0.139608
vt 0.843750 0.300000
vt 0.843750 0.400000
vt 0.843750 0.500000
vt 0.843750 0.600000
vt 0.843750 0.700000
vt 0.843750 0.800000
vt 0.875000 0.000000
vt 0.875000 0.058778
vt 0.875000 0.139608
vt 0.875000 0.300000
vt 0.875000 0.400000
vt 0.875000 0.500000
vt 0.875000 0.600000
vt 0.875000 0.700000
vt 0.875000 0.800000
vt 0.906250 0.000000
vt 0.906250 0.058778
vt 0.906250 0.139608
vt 0.906250 0.300000
vt 0.906250 0.400000
vt 0.906250 0.500000
vt 0.906250 0.600000
vt 0.906250 0.700000
vt 0.906250 0.800000
vt 0.937500 0.000000
vt 0.937500 0.058778
vt 0.937500 0.139608
vt 0.937500 0.300000
vt 0.937500 0.400000
vt 0.937500 0.500000
vt 0.937500 0.600000
vt 0.937500 0.700000
vt 0.937500 0.800000
vt 0.968750 0.000000
vt 0.968750 0.058778
vt 0.968750 0.139608
vt 0.968750 0.300000
vt 0.968750 0.400000
vt 0.968750 0.500000
vt 0.968750 0.600000
vt 0.968750 0.700000
vt 0.968750 0.800000
vt 1.000000 0.000000
vt 1.000000 0.058778
vt 1.000000 0.139609
vt 1.000000 0.300000
vt 1.000000 0.400000
vt 1.000000 0.500000
vt 1.000000 0.600000
vt 1.000000 0.700000
vt 1.000000 0.800000
vt 0.031250 0.000000
vt 0.031250 0.082472
vt 0.000000 0.082472
vt 0.031250 0.180722
vt 0.000000 0.180722
vt 0.031250 0.300000
vt 0.000000 0.300000
vt 0.062500 0.000000
vt 0.062500 0.082472
vt 0.062500 0.180722
vt 0.062500 0.300000
vt 0.093750 0.000000
vt 0.093750 0.082472
vt 0.093750 0.180722
vt 0.093750 0.300000
vt 0.125000 0.082472
vt 0.125000 0.180722
vt 0.156250 0.082472
vt 0.156250 0.180722
vt 0.156250 0.300000
vt 0.187500 0.000000
vt 0.187500 0.082472
vt 0.187500 0.180722
vt 0.187500 0.300000
vt 0.218750 0.000000
vt 0.218750 0.082472
vt 0.218750 0.180722
vt 0.218750 0.300000
vt 0.250000 0.082472
vt 0.250000 0.180722
vt 0.250000 0.300000
vt 0.281250 0.082472
vt 0.281250 0.180722
vt 0.281250 0.300000
vt 0.312500 0.082472
vt 0.312500 0.180722
vt 0.343750 0.000000
vt 0.343750 0.082472
vt 0.343750 0.180722
vt 0.343750 0.300000
vt 0.375000 0.000000
vt 0.375000 0.082472
vt 0.375000 0.180722
vt 0.406250 0.000000
vt 0.406250 0.082472
vt 0.406250 0.180722
vt 0.406250 0.300000
vt 0.437500 0.082472
vt 0.437500 0.180722
vt 0.437500 0.300000
vt 0.468750 0.082472
vt 0.468750 0.180722
vt 0.468750 0.300000
vt 0.500000 0.000000
vt 0.500000 0.082472
vt 0.500000 0.180722
vt 0.531250 0.082472
vt 0.531250 0.180722
vt 0.531250 0.300000
vt 0.562500 0.082472
vt 0.562500 0.180722
vt 0.593750 0.082472
vt 0.593750 0.180722
vt 0.593750 0.300000
vt 0.625000 0.082472
vt 0.625000 0.180722
vt 0.625000 0.300000
vt 0.656250 0.082472
vt 0.656250 0.180722
vt 0.656250 0.300000
vt 0.687500 0.000000
vt 0.687500 0.082472
vt 0.687500 0.180722
vt 0.687500 0.300000
vt 0.718750 0.082472
vt 0.718750 0.180722
vt 0.718750 0.300000
vt 0.750000 0.082472
vt 0.750000 0.180722
vt 0.781250 0.000000
vt 0.781250 0.082472
vt 0.781250 0.180722
vt 0.781250 0.300000
vt 0.812500 0.000000
vt 0.812500 0.082472
vt 0.812500 0.180722
vt 0.812500 0.300000
vt 0.843750 0.082472
vt 0.843750 0.180722
vt 0.843750 0.300000
vt 0.875000 0.082472
vt 0.875000 0.180722
vt 0.875000 0.300000
vt 0.906250 0.000000
vt 0.906250 0.082472
vt 0.906250 0.180722
vt 0.906250 0.300000
vt 0.937500 0.000000
vt 0.937500 0.082472
vt 0.937500 0.180722
vt 0.937500 0.300000
vt 0.968750 0.082472
vt 0.968750 0.180722
vt 0.968750 0.300000
vt 1.000000 0.082472
vt 1.000000 0.180722
vt 1.000000 0.300000
s 1
f 73/1/1 2/2/2 4/3/3 74/4/4
f 74/4/4 4/3/3 6/5/5 83/6/6
f 83/6/6 6/5/5 8/7/7 92/8/8
f 92/8/8 8/7/7 10/9/9 101/10/10
f 101/10/10 10/9/9 12/11/11 110/12/12
f 110/12/12 12/11/11 14/13/13 119/14/14
f 119/14/14 14/13/13 16/15/15 128/16/16
f 128/16/16 16/15/15 18/17/17 137/18/18
f 137/18/18 18/17/17 20/19/19 146/20/20
f 146/20/20 20/19/19 22/21/21 155/22/22
f 155/22/22 22/21/21 24/23/23 164/24/24
f 164/24/24 24/23/23 26/25/25 173/26/26
f 173/26/26 26/25/25 28/27/27 182/28/28
f 182/28/28 28/27/27 30/29/29 191/30/30
f 191/30/30 30/29/29 32/31/31 200/32/32
f 200/32/32 32/31/31 34/33/33 209/34/34
f 209/34/34 34/33/33 36/35/35 218/36/36
f 218/36/36 36/35/35 38/37/37 227/38/38
f 227/38/38 38/37/37 40/39/39 236/40/40
f 236/40/40 40/39/39 42/41/41 245/42/42
f 245/42/42 42/41/41 44/43/43 254/44/44
f 254/44/44 44/43/43 46/45/45 263/46/46
f 263/46/46 46/45/45 48/47/47 272/48/48
f 272/48/48 48/47/47 50/49/49 281/50/50
f 281/50/50 50/49/49 52/51/51 290/52/52
f 290/52/52 52/51/51 54/53/53 299/54/54
f 299/54/54 54/53/53 56/55/55 308/56/56
f 308/56/56 56/55/55 58/57/57 317/58/58
f 317/58/58 58/57/57 60/59/59 326/60/60
f 326/60/60 60/59/59 62/61/61 335/62/62
f 335/62/62 62/61/61 64/63/63 344/64/64
f 344/64/64 64/63/63 2/65/2 73/66/1
f 63/67/65 352/68/66 65/69/67 1/70/68
f 352/68/66 351/71/69 66/72/70 65/69/67
f 351/71/69 350/73/71 67/74/72 66/72/70
f 350/73/71 349/75/73 68/76/74 67/74/72
f 349/75/73 348/77/75 69/78/76 68/76/74
f 348/77/75 347/79/77 70/80/78 69/78/76
f 347/79/77 346/81/79 71/82/80 70/80/78
f 346/81/79 345/83/81 72/84/82 71/82/80
f 345/83/81 344/64/64 73/66/1 72/84/82
f 61/85/83 343/86/84 352/68/66 63/67/65
f 343/86/84 342/87/85 351/71/69 352/68/66
f 342/87/85 341/88/86 350/73/71 351/71/69
f 341/88/86 340/89/87 349/75/73 350/73/71
f 340/89/87 339/90/88 348/77/75 349/75/73
f 339/90/88 338/91/89 347/79/77 348/77/75
f 338/91/89 337/92/90 346/81/79 347/79/77
f 337/92/90 336/93/91 345/83/81 346/81/79
f 336/93/91 335/62/62 344/64/64 345/83/81
f 59/94/92 334/95/93 343/86/84 61/85/83
f 334/95/93 333/96/94 342/87/85 343/86/84
f 333/96/94 332/97/95 341/88/86 342/87/85
f 332/97/95 331/98/96 340/89/87 341/88/86
f 331/98/96 330/99/97 339/90/88 340/89/87
f 330/99/97 329/100/98 338/91/89 339/90/88
f 329/100/98 328/101/99 337/92/90 338/91/89
f 328/101/99 327/102/100 336/93/91 337/92/90
f 327/102/100 326/60/60 335/62/62 336/93/91
f 57/103/101 325/104/102 334/95/93 59/94/92
f 325/104/102 324/105/103 333/96/94 334/95/93
f 324/105/103 323/106/104 332/97/95 333/96/94
f 323/106/104 322/107/105 331/98/96 332/97/95
f 322/107/105 321/108/106 330/99/97 331/98/96
f 321/108/106 320/109/107 329/100/98 330/99/97
f 320/109/107 319/110/108 328/101/99 329/100/98
f 319/110/108 318/111/109 327/102/100 328/101/99
f 318/111/109 317/58/58 326/60/60 327/102/100
f 55/112/110 316/113/111 325/104/102 57/103/101
f 316/113/111 315/114/112 324/105/103 325/104/102
f 315/114/112 314/115/113 323/106/104 324/105/103
f 314/115/113 313/116/114 322/107/105 323/106/104
f 313/116/114 312/117/115 321/108/106 322/107/105
f 312/117/115 311/118/116 320/109/107 321/108/106
f 311/118/116 310/119/117 319/110/108 320/109/107
f 310/119/117 309/120/118 318/111/109 319/110/108
f 309/120/118 308/56/56 317/58/58 318/111/109
f 53/121/119 307/122/120 316/113/111 55/112/110
f 307/122/120 306/123/121 315/114/112 316/113/111
f 306/123/121 305/124/122 314/115/113 315/114/112
f 305/124/122 304/125/123 313/116/114 314/115/113
f 304/125/123 303/126/124 312/117/115 313/116/114
f 303/126/124 302/127/125 311/118/116 312/117/115
f 302/127/125 301/128/126 310/119/117 311/118/116
f 301/128/126 300/129/127 309/120/118 310/119/117
f 300/129/127 299/54/54 308/56/56 309/120/118
f 51/130/128 298/131/129 307/122/120 53/121/119
f 298/131/129 297/132/130 306/123/121 307/122/120
f 297/132/130 296/133/131 305/124/122 306/123/121
f 296/133/131 295/134/132 304/125/123 305/124/122
f 295/134/132 294/135/133 303/126/124 304/125/123
f 294/135/133 293/136/134 302/127/125 303/126/124
f 293/136/134 292/137/135 301/128/126 302/127/125
f 292/137/135 291/138/136 300/129/127 301/128/126
f 291/138/136 290/52/52 299/54/54 300/129/127
f 49/139/137 289/140/138 298/131/129 51/130/128
f 289/140/138 288/141/139 297/132/130 298/131/129
f 288/141/139 287/142/140 296/133/131 297/132/130
f 287/142/140 286/143/141 295/134/132 296/133/131
f 286/143/141 285/144/142 294/135/133 295/134/132
f 285/144/142 284/145/143 293/136/134 294/135/133
f 284/145/143 283/146/144 292/137/135 293/136/134
f 283/146/144 282/147/145 291/138/136 292/137/135
f 282/147/145 281/50/50 290/52/52 291/138/136
f 47/148/146 280/149/147 289/140/138 49/139/137
f 280/149/147 279/150/148 288/141/139 289/140/138
f 279/150/148 278/151/149 287/142/140 288/141/139
f 278/151/149 277/152/150 286/143/141 287/142/140
f 277/152/150 276/153/151 285/144/142 286/143/141
f 276/153/151 275/154/152 284/145/143 285/144/142
f 275/154/152 274/155/153 283/146/144 284/145/143
f 274/155/153 273/156/154 282/147/145 283/146/144
f 273/156/154 272/48/48 281/50/50 282/147/145
f 45/157/155 271/158/156 280/149/147 47/148/146
f 271/158/156 270/159/157 279/150/148 280/149/147
f 270/159/157 269/160/158 278/151/149 279/150/148
f 269/160/158 268/161/159 277/152/150 278/151/149
f 268/161/159 267/162/160 276/153/151 277/152/150
f 267/162/160 266/163/161 275/154/152 276/153/151
f 266/163/161 265/164/162 274/155/153 275/154/152
f 265/164/162 264/165/163 273/156/154 274/155/153
f 264/165/163 263/46/46 272/48/48 273/156/154
f 43/166/164 262/167/165 271/158/156 45/157/155
f 262/167/165 261/168/166 270/159/157 271/158/156
f 261/168/166 260/169/167 269/160/158 270/159/157
f 260/169/167 259/170/168 268/161/159 269/160/158
f 259/170/168 258/171/169 267/162/160 268/161/159
f 258/171/169 257/172/170 266/163/161 267/162/160
f 257/172/170 256/173/171 265/164/162 266/163/161
f 256/173/171 255/174/172 264/165/163 265/164/162
f 255/174/172 254/44/44 263/46/46 264/165/163
f 41/175/173 253/176/174 262/167/165 43/166/164
f 253/176/174 252/177/175 261/168/166 262/167/165
f 252/177/175 251/178/176 260/169/167 261/168/166
f 251/178/176 250/179/177 259/170/168 260/169/167
f 250/179/177 249/180/178 258/171/169 259/170/168
f 249/180/178 248/181/179 257/172/170 258/171/169
f 248/181/179 247/182/180 256/173/171 257/172/170
f 247/182/180 246/183/181 255/174/172 256/173/171
f 246/183/181 245/42/42 254/44/44 255/174/172
f 39/184/182 244/185/183 253/176/174 41/175/173
f 244/185/183 243/186/184 252/177/175 253/176/174
f 243/186/184 242/187/185 251/178/176 252/177/175
f 242/187/185 241/188/186 250/179/177 251/178/176
f 241/188/186 240/189/187 249/180/178 250/179/177
f 240/189/187 239/190/188 248/181/179 249/180/178
f 239/190/188 238/191/189 247/182/180 248/181/179
f 238/191/189 237/192/190 246/183/181 247/182/180
f 237/192/190 236/40/40 245/42/42 246/183/181
f 37/193/191 235/194/192 244/185/183 39/184/182
f 235/194/192 234/195/193 243/186/184 244/185/183
f 234/195/193 233/196/194 242/187/185 243/186/184
f 233/196/194 232/197/195 241/188/186 242/187/185
f 232/197/195 231/198/196 240/189/187 241/188/186
f 231/198/196 230/199/197 239/190/188 240/189/187
f 230/199/197 229/200/198 238/191/189 239/190/188
f 229/200/198 228/201/199 237/192/190 238/191/189
f 228/201/199 227/38/38 236/40/40 237/192/190
f 35/202/200 226/203/201 235/194/192 37/193/191
f 226/203/201 225/204/202 234/195/193 235/194/192
f 225/204/202 224/205/203 233/196/194 234/195/193
f 224/205/203 223/206/204 232/197/195 233/196/194
f 223/206/204 222/207/205 231/198/196 232/197/195
f 222/207/205 221/208/206 230/199/197 231/198/196
f 221/208/206 220/209/207 229/200/198 230/199/197
f 220/209/207 219/210/208 228/201/199 229/200/198
f 219/210/208 218/36/36 227/38/38 228/201/199
f 33/211/209 217/212/210 226/203/201 35/202/200
f 217/212/210 216/213/211 225/204/202 226/203/201
f 216/213/211 215/214/212 224/205/203 225/204/202
f 215/214/212 214/215/213 223/206/204 224/205/203
f 214/215/213 213/216/214 222/207/205 223/206/204
f 213/216/214 212/217/215 221/208/206 222/207/205
f 212/217/215 211/218/216 220/209/207 221/208/206
f 211/218/216 210/219/217 219/210/208 220/209/207
f 210/219/217 209/34/34 218/36/36 219/210/208
f 31/220/218 208/221/219 217/212/210 33/211/209
f 208/221/219 207/222/220 216/213/211 217/212/210
f 207/222/220 206/223/221 215/214/212 216/213/211
f 206/223/221 205/224/222 214/215/213 215/214/212
f 205/224/222 204/225/223 213/216/214 214/215/213
f 204/225/223 203/226/224 212/217/215 213/216/214
f 203/226/224 202/227/225 211/218/216 212/217/215
f 202/227/225 201/228/226 210/219/217 211/218/216
f 201/228/226 200/32/32 209/34/34 210/219/217
f 29/229/227 199/230/228 208/221/219 31/220/218
f 199/230/228 198/231/229 207/222/220 208/221/219
f 198/231/229 197/232/230 206/223/221 207/222/220
f 197/232/230 196/233/231 205/224/222 206/223/221
f 196/233/231 195/234/232 204/225/223 205/224/222
f 195/234/232 194/235/233 203/226/224 204/225/223
f 194/235/233 193/236/234 202/227/225 203/226/224
f 193/236/234 192/237/235 201/228/226 202/227/225
f 192/237/235 191/30/30 200/32/32 201/228/226
f 27/238/236 190/239/237 199/230/228 29/229/227
f 190/239/237 189/240/238 198/231/229 199/230/228
f 189/240/238 188/241/239 197/232/230 198/231/229
f 188/241/239 187/242/240 196/233/231 197/232/230
f 187/242/240 186/243/241 195/234/232 196/233/231
f 186/243/241 185/244/242 194/235/233 195/234/232
f 185/244/242 184/245/243 193/236/234 194/235/233
f 184/245/243 183/246/244 192/237/235 193/236/234
f 183/246/244 182/28/28 191/30/30 192/237/235
f 25/247/245 181/248/246 190/239/237 27/238/236
f 181/248/246 180/249/247 189/240/238 190/239/237
f 180/249/247 179/250/248 188/241/239 189/240/238
f 179/250/248 178/251/249 187/242/240 188/241/239
f 178/251/249 177/252/250 186/243/241 187/242/240
f 177/252/250 176/253/251 185/244/242 186/243/241
f 176/253/251 175/254/252 184/245/243 185/244/242
f 175/254/252 174/255/253 183/246/244 184/245/243
f 174/255/253 173/26/26 182/28/28 183/246/244
f 23/256/254 172/257/255 181/248/246 25/247/245
f 172/257/255 171/258/256 180/249/247 181/248/246
f 171/258/256 170/259/257 179/250/248 180/249/247
f 170/259/257 169/260/258 178/251/249 179/250/248
f 169/260/258 168/261/259 177/252/250 178/251/249
f 168/261/259 167/262/260 176/253/251 177/252/250
f 167/262/260 166/263/261 175/254/252 176/253/251
f 166/263/261 165/264/262 174/255/253 175/254/252
f 165/264/262 164/24/24 173/26/26 174/255/253
f 21/265/263 163/266/264 172/257/255 23/256/254
f 163/266/264 162/267/265 171/258/256 172/257/255
f 162/267/265 161/268/266 170/259/257 171/258/256
f 161/268/266 160/269/267 169/260/258 170/259/257
f 160/269/267 159/270/268 168/261/259 169/260/258
f 159/270/268 158/271/269 167/262/260 168/261/259
f 158/271/269 157/272/270 166/263/261 167/262/260
f 157/272/270 156/273/271 165/264/262 166/263/261
f 156/273/271 155/22/22 164/24/24 165/264/262
f 19/274/272 154/275/273 163/266/264 21/265/263
f 154/275/273 153/276/274 162/267/265 163/266/264
f 153/276/274 152/277/275 161/268/266 162/267/265
f 152/277/275 151/278/276 160/269/267 161/268/266
f 151/278/276 150/279/277 159/270/268 160/269/267
f 150/279/277 149/280/278 158/271/269 159/270/268
f 149/280/278 148/281/279 157/272/270 158/271/269
f 148/281/279 147/282/280 156/273/271 157/272/270
f 147/282/280 146/20/20 155/22/22 156/273/271
f 17/283/281 145/284/282 154/275/273 19/274/272
f 145/284/282 144/285/283 153/276/274 154/275/273
f 144/285/283 143/286/284 152/277/275 153/276/274
f 143/286/284 142/287/285 151/278/276 152/277/275
f 142/287/285 141/288/286 150/279/277 151/278/276
f 141/288/286 140/289/287 149/280/278 150/279/277
f 140/289/287 139/290/288 148/281/279 149/280/278
f 139/290/288 138/291/289 147/282/280 148/281/279
f 138/291/289 137/18/18 146/20/20 147/282/280
f 15/292/290 136/293/291 145/284/282 17/283/281
f 136/293/291 135/294/292 144/285/283 145/284/282
f 135/294/292 134/295/293 143/286/284 144/285/283
f 134/295/293 133/296/294 142/287/285 143/286/284
f 133/296/294 132/297/295 141/288/286 142/287/285
f 132/297/295 131/298/296 140/289/287 141/288/286
f 131/298/296 130/299/297 139/290/288 140/289/287
f 130/299/297 129/300/298 138/291/289 139/290/288
f 129/300/298 128/16/16 137/18/18 138/291/289
f 13/301/299 127/302/300 136/293/291 15/292/290
f 127/302/300 126/303/301 135/294/292 136/293/291
f 126/303/301 125/304/302 134/295/293 135/294/292
f 125/304/302 124/305/303 133/296/294 134/295/293
f 124/305/303 123/306/304 132/297/295 133/296/294
f 123/306/304 122/307/305 131/298/296 132/297/295
f 122/307/305 121/308/306 130/299/297 131/298/296
f 121/308/306 120/309/307 129/300/298 130/299/297
f 120/309/307 119/14/14 128/16/16 129/300/298
f 11/310/308 118/311/309 127/302/300 13/301/299
f 118/311/309 117/312/310 126/303/301 127/302/300
f 117/312/310 116/313/311 125/304/302 126/303/301
f 116/313/311 115/314/312 124/305/303 125/304/302
f 115/314/312 114/315/313 123/306/304 124/305/303
f 114/315/313 113/316/314 122/307/305 123/306/304
f 113/316/314 112/317/315 121/308/306 122/307/305
f 112/317/315 111/318/316 120/309/307 121/308/306
f 111/318/316 110/12/12 119/14/14 120/309/307
f 9/319/317 109/320/318 118/311/309 11/310/308
f 109/320/318 108/321/319 117/312/310 118/311/309
f 108/321/319 107/322/320 116/313/311 117/312/310
f 107/322/320 106/323/321 115/314/312 116/313/311
f 106/323/321 105/324/322 114/315/313 115/314/312
f 105/324/322 104/325/323 113/316/314 114/315/313
f 104/325/323 103/326/324 112/317/315 113/316/314
f 103/326/324 102/327/325 111/318/316 112/317/315
f 102/327/325 101/10/10 110/12/12 111/318/316
f 7/328/326 100/329/327 109/320/318 9/319/317
f 100/329/327 99/330/328 108/321/319 109/320/318
f 99/330/328 98/331/329 107/322/320 108/321/319
f 98/331/329 97/332/330 106/323/321 107/322/320
f 97/332/330 96/333/331 105/324/322 106/323/321
f 96/333/331 95/334/332 104/325/323 105/324/322
f 95/334/332 94/335/333 103/326/324 104/325/323
f 94/335/333 93/336/334 102/327/325 103/326/324
f 93/336/334 92/8/8 101/10/10 102/327/325
f 5/337/335 91/338/336 100/329/327 7/328/326
f 91/338/336 90/339/337 99/330/328 100/329/327
f 90/339/337 89/340/338 98/331/329 99/330/328
f 89/340/338 88/341/339 97/332/330 98/331/329
f 88/341/339 87/342/340 96/333/331 97/332/330
f 87/342/340 86/343/341 95/334/332 96/333/331
f 86/343/341 85/344/342 94/335/333 95/334/332
f 85/344/342 84/345/343 93/336/334 94/335/333
f 84/345/343 83/6/6 92/8/8 93/336/334
f 3/346/344 82/347/345 91/338/336 5/337/335
f 82/347/345 81/348/346 90/339/337 91/338/336
f 81/348/346 80/349/347 89/340/338 90/339/337
f 80/349/347 79/350/348 88/341/339 89/340/338
f 79/350/348 78/351/349 87/342/340 88/341/339
f 78/351/349 77/352/350 86/343/341 87/342/340
f 77/352/350 76/353/351 85/344/342 86/343/341
f 76/353/351 75/354/352 84/345/343 85/344/342
f 75/354/352 74/4/4 83/6/6 84/345/343
f 1/355/68 65/356/67 82/347/345 3/346/344
f 65/356/67 66/357/70 81/348/346 82/347/345
f 66/357/70 67/358/72 80/349/347 81/348/346
f 67/358/72 68/359/74 79/350/348 80/349/347
f 68/359/74 69/360/76 78/351/349 79/350/348
f 69/360/76 70/361/78 77/352/350 78/351/349
f 70/361/78 71/362/80 76/353/351 77/352/350
f 71/362/80 72/363/82 75/354/352 76/353/351
f 72/363/82 73/1/1 74/4/4 75/354/352
f 384/364/353 480/365/354 385/366/355 353/70/356
f 480/365/354 479/367/357 386/368/358 385/366/355
f 479/367/357 478/369/359 387/370/360 386/368/358
f 383/371/361 477/372/362 480/365/354 384/364/353
f 477/372/362 476/373/363 479/367/357 480/365/354
f 476/373/363 475/374/364 478/369/359 479/367/357
f 382/375/365 474/376/366 477/372/362 383/371/361
f 474/376/366 473/377/367 476/373/363 477/372/362
f 473/377/367 472/378/368 475/374/364 476/373/363
f 381/103/369 471/379/370 474/376/366 382/375/365
f 471/379/370 470/380/371 473/377/367 474/376/366
f 470/380/371 469/106/372 472/378/368 473/377/367
f 380/112/373 468/381/374 471/379/370 381/103/369
f 468/381/374 467/382/375 470/380/371 471/379/370
f 467/382/375 466/383/376 469/106/372 470/380/371
f 379/384/377 465/385/378 468/381/374 380/112/373
f 465/385/378 464/386/379 467/382/375 468/381/374
f 464/386/379 463/387/380 466/383/376 467/382/375
f 378/388/381 462/389/382 465/385/378 379/384/377
f 462/389/382 461/390/383 464/386/379 465/385/378
f 461/390/383 460/391/384 463/387/380 464/386/379
f 377/139/385 459/392/386 462/389/382 378/388/381
f 459/392/386 458/393/387 461/390/383 462/389/382
f 458/393/387 457/394/388 460/391/384 461/390/383
f 376/148/389 456/395/390 459/392/386 377/139/385
f 456/395/390 455/396/391 458/393/387 459/392/386
f 455/396/391 454/397/392 457/394/388 458/393/387
f 375/157/393 453/398/394 456/395/390 376/148/389
f 453/398/394 452/399/395 455/396/391 456/395/390
f 452/399/395 451/160/396 454/397/392 455/396/391
f 374/400/397 450/401/398 453/398/394 375/157/393
f 450/401/398 449/402/399 452/399/395 453/398/394
f 449/402/399 448/403/400 451/160/396 452/399/395
f 373/404/401 447/405/402 450/401/398 374/400/397
f 447/405/402 446/406/403 449/402/399 450/401/398
f 446/406/403 445/178/404 448/403/400 449/402/399
f 372/407/405 444/408/406 447/405/402 373/404/401
f 444/408/406 443/409/407 446/406/403 447/405/402
f 443/409/407 442/410/408 445/178/404 446/406/403
f 371/193/409 441/411/410 444/408/406 372/407/405
f 441/411/410 440/412/411 443/409/407 444/408/406
f 440/412/411 439/413/412 442/410/408 443/409/407
f 370/202/413 438/414/414 441/411/410 371/193/409
f 438/414/414 437/415/415 440/412/411 441/411/410
f 437/415/415 436/416/416 439/413/412 440/412/411
f 369/417/417 435/418/418 438/414/414 370/202/413
f 435/418/418 434/419/419 437/415/415 438/414/414
f 434/419/419 433/214/420 436/416/416 437/415/415
f 368/220/421 432/420/422 435/418/418 369/417/417
f 432/420/422 431/421/423 434/419/419 435/418/418
f 431/421/423 430/422/424 433/214/420 434/419/419
f 367/229/425 429/423/426 432/420/422 368/220/421
f 429/423/426 428/424/427 431/421/423 432/420/422
f 428/424/427 427/232/428 430/422/424 431/421/423
f 366/238/429 426/425/430 429/423/426 367/229/425
f 426/425/430 425/426/431 428/424/427 429/423/426
f 425/426/431 424/427/432 427/232/428 428/424/427
f 365/247/433 423/428/434 426/425/430 366/238/429
f 423/428/434 422/429/435 425/426/431 426/425/430
f 422/429/435 421/430/436 424/427/432 425/426/431
f 364/256/437 420/431/438 423/428/434 365/247/433
f 420/431/438 419/432/439 422/429/435 423/428/434
f 419/432/439 418/433/440 421/430/436 422/429/435
f 363/434/441 417/435/442 420/431/438 364/256/437
f 417/435/442 416/436/443 419/432/439 420/431/438
f 416/436/443 415/437/444 418/433/440 419/432/439
f 362/274/445 414/438/446 417/435/442 363/434/441
f 414/438/446 413/439/447 416/436/443 417/435/442
f 413/439/447 412/440/448 415/437/444 416/436/443
f 361/283/449 411/441/450 414/438/446 362/274/445
f 411/441/450 410/442/451 413/439/447 414/438/446
f 410/442/451 409/286/452 412/440/448 413/439/447
f 360/443/453 408/444/454 411/441/450 361/283/449
f 408/444/454 407/445/455 410/442/451 411/441/450
f 407/445/455 406/446/456 409/286/452 410/442/451
f 359/447/457 405/448/458 408/444/454 360/443/453
f 405/448/458 404/449/459 407/445/455 408/444/454
f 404/449/459 403/450/460 406/446/456 407/445/455
f 358/310/461 402/451/462 405/448/458 359/447/457
f 402/451/462 401/452/463 404/449/459 405/448/458
f 401/452/463 400/453/464 403/450/460 404/449/459
f 357/319/465 399/454/466 402/451/462 358/310/461
f 399/454/466 398/455/467 401/452/463 402/451/462
f 398/455/467 397/456/468 400/453/464 401/452/463
f 356/457/469 396/458/470 399/454/466 357/319/465
f 396/458/470 395/459/471 398/455/467 399/454/466
f 395/459/471 394/460/472 397/456/468 398/455/467
f 355/461/473 393/462/474 396/458/470 356/457/469
f 393/462/474 392/463/475 395/459/471 396/458/470
f 392/463/475 391/464/476 394/460/472 395/459/471
f 354/346/477 390/465/478 393/462/474 355/461/473
f 390/465/478 389/466/479 392/463/475 393/462/474
f 389/466/479 388/467/480 391/464/476 392/463/475
f 353/355/356 385/468/355 390/465/478 354/346/477
f 385/468/355 386/469/358 389/466/479 390/465/478
f 386/469/358 387/470/360 388/467/480 389/466/479
