# Blender 4.5.1 LTS
# www.blender.org
o Cylinder
v 0.000000 0.000000 -1.000000
v 0.000000 2.000000 -1.000000
v 0.258819 0.000000 -0.965926
v 0.258819 2.000000 -0.965926
v 0.500000 0.000000 -0.866025
v 0.500000 2.000000 -0.866025
v 0.707107 0.000000 -0.707107
v 0.707107 2.000000 -0.707107
v 0.866025 0.000000 -0.500000
v 0.866025 2.000000 -0.500000
v 0.965926 0.000000 -0.258819
v 0.965926 2.000000 -0.258819
v 1.000000 0.000000 0.000000
v 1.000000 2.000000 0.000000
v 0.965926 0.000000 0.258819
v 0.965926 2.000000 0.258819
v 0.866025 0.000000 0.500000
v 0.866025 2.000000 0.500000
v 0.707107 0.000000 0.707107
v 0.707107 2.000000 0.707107
v 0.500000 0.000000 0.866025
v 0.500000 2.000000 0.866025
v 0.258819 0.000000 0.965926
v 0.258819 2.000000 0.965926
v 0.000000 0.000000 1.000000
v 0.000000 2.000000 1.000000
v -0.258819 0.000000 0.965926
v -0.258819 2.000000 0.965926
v -0.500000 0.000000 0.866025
v -0.500000 2.000000 0.866025
v -0.707107 0.000000 0.707107
v -0.707107 2.000000 0.707107
v -0.866025 0.000000 0.500000
v -0.866025 2.000000 0.500000
v -0.965926 0.000000 0.258819
v -0.965926 2.000000 0.258819
v -1.000000 0.000000 0.000000
v -1.000000 2.000000 0.000000
v -0.965926 0.000000 -0.258819
v -0.965926 2.000000 -0.258819
v -0.866025 0.000000 -0.500000
v -0.866025 2.000000 -0.500000
v -0.707107 0.000000 -0.707107
v -0.707107 2.000000 -0.707107
v -0.500000 0.000000 -0.866025
v -0.500000 2.000000 -0.866025
v -0.258819 0.000000 -0.965926
v -0.258819 2.000000 -0.965926
v -0.000000 0.000000 -1.489303
v -0.000000 0.000000 -0.578761
v 0.385460 0.000000 -1.438557
v 0.149794 0.000000 -0.559040
v 0.744652 0.000000 -1.289775
v 0.289381 0.000000 -0.501222
v 1.053097 0.000000 -1.053097
v 0.409246 0.000000 -0.409246
v 1.289775 0.000000 -0.744652
v 0.501222 0.000000 -0.289381
v 1.438557 0.000000 -0.385460
v 0.559040 0.000000 -0.149794
v 1.489303 0.000000 -0.000000
v 0.578761 0.000000 -0.000000
v 1.438557 0.000000 0.385460
v 0.559040 0.000000 0.149794
v 1.289775 0.000000 0.744652
v 0.501222 0.000000 0.289381
v 1.053097 0.000000 1.053097
v 0.409246 0.000000 0.409246
v 0.744652 0.000000 1.289775
v 0.289381 0.000000 0.501222
v 0.385460 0.000000 1.438557
v 0.149794 0.000000 0.559040
v -0.000000 0.000000 1.489303
v -0.000000 0.000000 0.578761
v -0.385460 0.000000 1.438557
v -0.149794 0.000000 0.559040
v -0.744652 0.000000 1.289775
v -0.289381 0.000000 0.501222
v -1.053097 0.000000 1.053097
v -0.409246 0.000000 0.409246
v -1.289775 0.000000 0.744652
v -0.501222 0.000000 0.289381
v -1.438557 0.000000 0.385460
v -0.559040 0.000000 0.149794
v -1.489303 0.000000 -0.000000
v -0.578761 0.000000 -0.000000
v -1.438557 0.000000 -0.385460
v -0.559040 0.000000 -0.149794
v -1.289775 0.000000 -0.744652
v -0.501222 0.000000 -0.289381
v -1.053097 0.000000 -1.053097
v -0.409246 0.000000 -0.409246
v -0.744652 0.000000 -1.289775
v -0.289381 0.000000 -0.501222
v -0.385460 0.000000 -1.438557
v -0.149794 0.000000 -0.559040
v -0.000000 0.000000 -0.955406
v 0.247277 0.000000 -0.922851
v 0.477703 0.000000 -0.827406
v 0.675574 0.000000 -0.675574
v 0.827406 0.000000 -0.477703
v 0.922851 0.000000 -0.247277
v 0.955406 0.000000 -0.000000
v 0.922851 0.000000 0.247277
v 0.827406 0.000000 0.477703
v 0.675574 0.000000 0.675574
v 0.477703 0.000000 0.827406
v 0.247277 0.000000 0.922851
v -0.000000 0.000000 0.955406
v -0.247277 0.000000 0.922851
v -0.477703 0.000000 0.827406
v -0.675574 0.000000 0.675574
v -0.827406 0.000000 0.477703
v -0.922851 0.000000 0.247277
v -0.955406 0.000000 -0.000000
v -0.922851 0.000000 -0.247277
v -0.827406 0.000000 -0.477703
v -0.675574 0.000000 -0.675574
v -0.477703 0.000000 -0.827406
v -0.247277 0.000000 -0.922851
v 0.281327 0.000000 -1.049925
v 0.543481 0.000000 -0.941337
v 0.768599 0.000000 -0.768599
v 0.941337 0.000000 -0.543481
v 1.049925 0.000000 -0.281327
v 1.086963 0.000000 -0.000000
v 1.049925 0.000000 0.281327
v 0.941337 0.000000 0.543481
v 0.768599 0.000000 0.768599
v 0.543481 0.000000 0.941337
v 0.281327 0.000000 1.049925
v -0.000000 0.000000 1.086963
v -0.281327 0.000000 1.049925
v -0.543481 0.000000 0.941337
v -0.768599 0.000000 0.768599
v -0.941337 0.000000 0.543481
v -1.049925 0.000000 0.281327
v -1.086963 0.000000 -0.000000
v -1.049925 0.000000 -0.281327
v -0.941337 0.000000 -0.543481
v -0.768599 0.000000 -0.768599
v -0.543481 0.000000 -0.941337
v -0.281327 0.000000 -1.049925
v -0.000000 0.000000 -1.086963
vn -0.0000 -0.0000 -1.0000
vn 0.2588 -0.0000 -0.9659
vn 0.5000 -0.0000 -0.8660
vn 0.7071 -0.0000 -0.7071
vn 0.8660 -0.0000 -0.5000
vn 0.9659 -0.0000 -0.2588
vn 1.0000 -0.0000 -0.0000
vn 0.9659 -0.0000 0.2588
vn 0.8660 -0.0000 0.5000
vn 0.7071 -0.0000 0.7071
vn 0.5000 -0.0000 0.8660
vn 0.2588 -0.0000 0.9659
vn -0.0000 -0.0000 1.0000
vn -0.2588 -0.0000 0.9659
vn -0.5000 -0.0000 0.8660
vn -0.7071 -0.0000 0.7071
vn -0.8660 -0.0000 0.5000
vn -0.9659 -0.0000 0.2588
vn -1.0000 -0.0000 -0.0000
vn -0.9659 -0.0000 -0.2588
vn -0.8660 -0.0000 -0.5000
vn -0.7071 -0.0000 -0.7071
vn -0.5000 -0.0000 -0.8660
vn -0.2588 -0.0000 -0.9659
vn -0.0000 1.0000 -0.0000
vt 1.000000 0.000000
vt 1.000000 1.000000
vt 0.958333 1.000000
vt 0.958333 0.000000
vt 0.916667 1.000000
vt 0.916667 0.000000
vt 0.875000 1.000000
vt 0.875000 0.000000
vt 0.833333 1.000000
vt 0.833333 0.000000
vt 0.791667 1.000000
vt 0.791667 0.000000
vt 0.750000 1.000000
vt 0.750000 0.000000
vt 0.708333 1.000000
vt 0.708333 0.000000
vt 0.666667 1.000000
vt 0.666667 0.000000
vt 0.625000 1.000000
vt 0.625000 0.000000
vt 0.583333 1.000000
vt 0.583333 0.000000
vt 0.541666 1.000000
vt 0.541666 0.000000
vt 0.500000 1.000000
vt 0.500000 0.000000
vt 0.458333 1.000000
vt 0.458333 0.000000
vt 0.416666 1.000000
vt 0.416666 0.000000
vt 0.375000 1.000000
vt 0.375000 0.000000
vt 0.333333 1.000000
vt 0.333333 0.000000
vt 0.291667 1.000000
vt 0.291667 0.000000
vt 0.250000 1.000000
vt 0.250000 0.000000
vt 0.208333 1.000000
vt 0.208333 0.000000
vt 0.166666 1.000000
vt 0.166666 0.000000
vt 0.125000 1.000000
vt 0.125000 0.000000
vt 0.083333 1.000000
vt 0.083333 0.000000
vt 0.041666 1.000000
vt 0.041666 0.000000
vt -0.000000 1.000000
vt -0.000000 0.000000
vt 1.000000 1.000000
vt 0.958333 1.000000
vt 0.958333 0.000000
vt 0.916666 1.000000
vt 0.916667 0.000000
vt 0.875000 1.000000
vt 0.875000 0.000000
vt 0.833333 1.000000
vt 0.791667 1.000000
vt 0.791667 0.000000
vt 0.750000 1.000000
vt 0.750000 0.000000
vt 0.708333 1.000000
vt 0.708333 0.000000
vt 0.666667 0.000000
vt 0.625000 1.000000
vt 0.625000 0.000000
vt 0.583333 1.000000
vt 0.583333 0.000000
vt 0.541667 1.000000
vt 0.541667 0.000000
vt 0.500000 1.000000
vt 0.500000 0.000000
vt 0.458333 1.000000
vt 0.458333 0.000000
vt 0.416667 1.000000
vt 0.416667 0.000000
vt 0.375000 1.000000
vt 0.375000 0.000000
vt 0.333333 1.000000
vt 0.333333 0.000000
vt 0.291667 1.000000
vt 0.291667 0.000000
vt 0.250000 1.000000
vt 0.250000 0.000000
vt 0.208333 1.000000
vt 0.208334 0.000000
vt 0.166667 1.000000
vt 0.166667 0.000000
vt 0.125000 1.000000
vt 0.125000 0.000000
vt 0.083333 1.000000
vt 0.083334 0.000000
vt 0.041667 1.000000
vt 0.041667 0.000000
vt 0.000000 1.000000
vt 0.000000 0.000000
vt 0.041667 0.088480
vt 0.000000 0.088480
vt 0.083334 0.088480
vt 0.125000 0.088480
vt 0.166667 0.088480
vt 0.208334 0.088480
vt 0.250000 0.088480
vt 0.291667 0.088480
vt 0.333334 0.088480
vt 0.375000 0.088480
vt 0.416667 0.088480
vt 0.458333 0.088480
vt 0.500000 0.088480
vt 0.541667 0.088480
vt 0.583333 0.088480
vt 0.625000 0.088480
vt 0.666667 0.088480
vt 0.708333 0.088480
vt 0.750000 0.088480
vt 0.791667 0.088480
vt 0.833333 0.088480
vt 0.875000 0.088480
vt 0.916667 0.088480
vt 0.958333 0.088480
vt 1.000000 0.088480
vt 0.958333 1.000000
vt 0.916667 1.000000
vt 0.875000 1.000000
vt 0.791667 1.000000
vt 0.750000 1.000000
vt 0.708333 1.000000
vt 0.666667 1.000000
vt 0.625000 1.000000
vt 0.583333 1.000000
vt 0.541667 1.000000
vt 0.500000 1.000000
vt 0.458333 1.000000
vt 0.416667 1.000000
vt 0.375000 1.000000
vt 0.333333 1.000000
vt 0.291667 1.000000
vt 0.250000 1.000000
vt 0.208334 1.000000
vt 0.166667 1.000000
vt 0.125000 1.000000
vt 0.083334 1.000000
vt 0.041667 1.000000
vt 0.000000 1.000000
s 1
f 1/1/1 2/2/1 4/3/2 3/4/2
f 3/4/2 4/3/2 6/5/3 5/6/3
f 5/6/3 6/5/3 8/7/4 7/8/4
f 7/8/4 8/7/4 10/9/5 9/10/5
f 9/10/5 10/9/5 12/11/6 11/12/6
f 11/12/6 12/11/6 14/13/7 13/14/7
f 13/14/7 14/13/7 16/15/8 15/16/8
f 15/16/8 16/15/8 18/17/9 17/18/9
f 17/18/9 18/17/9 20/19/10 19/20/10
f 19/20/10 20/19/10 22/21/11 21/22/11
f 21/22/11 22/21/11 24/23/12 23/24/12
f 23/24/12 24/23/12 26/25/13 25/26/13
f 25/26/13 26/25/13 28/27/14 27/28/14
f 27/28/14 28/27/14 30/29/15 29/30/15
f 29/30/15 30/29/15 32/31/16 31/32/16
f 31/32/16 32/31/16 34/33/17 33/34/17
f 33/34/17 34/33/17 36/35/18 35/36/18
f 35/36/18 36/35/18 38/37/19 37/38/19
f 37/38/19 38/37/19 40/39/20 39/40/20
f 39/40/20 40/39/20 42/41/21 41/42/21
f 41/42/21 42/41/21 44/43/22 43/44/22
f 43/44/22 44/43/22 46/45/23 45/46/23
f 45/46/23 46/45/23 48/47/24 47/48/24
f 47/48/24 48/47/24 2/49/1 1/50/1
f 97/1/25 50/51/25 52/52/25 98/53/25
f 98/53/25 52/52/25 54/54/25 99/55/25
f 99/55/25 54/54/25 56/56/25 100/57/25
f 100/57/25 56/56/25 58/58/25 101/10/25
f 101/10/25 58/58/25 60/59/25 102/60/25
f 102/60/25 60/59/25 62/61/25 103/62/25
f 103/62/25 62/61/25 64/63/25 104/64/25
f 104/64/25 64/63/25 66/17/25 105/65/25
f 105/65/25 66/17/25 68/66/25 106/67/25
f 106/67/25 68/66/25 70/68/25 107/69/25
f 107/69/25 70/68/25 72/70/25 108/71/25
f 108/71/25 72/70/25 74/72/25 109/73/25
f 109/73/25 74/72/25 76/74/25 110/75/25
f 110/75/25 76/74/25 78/76/25 111/77/25
f 111/77/25 78/76/25 80/78/25 112/79/25
f 112/79/25 80/78/25 82/80/25 113/81/25
f 113/81/25 82/80/25 84/82/25 114/83/25
f 114/83/25 84/82/25 86/84/25 115/85/25
f 115/85/25 86/84/25 88/86/25 116/87/25
f 116/87/25 88/86/25 90/88/25 117/89/25
f 117/89/25 90/88/25 92/90/25 118/91/25
f 118/91/25 92/90/25 94/92/25 119/93/25
f 119/93/25 94/92/25 96/94/25 120/95/25
f 120/95/25 96/94/25 50/96/25 97/97/25
f 143/98/25 120/95/25 97/97/25 144/99/25
f 142/100/25 119/93/25 120/95/25 143/98/25
f 141/101/25 118/91/25 119/93/25 142/100/25
f 140/102/25 117/89/25 118/91/25 141/101/25
f 139/103/25 116/87/25 117/89/25 140/102/25
f 138/104/25 115/85/25 116/87/25 139/103/25
f 137/105/25 114/83/25 115/85/25 138/104/25
f 136/106/25 113/81/25 114/83/25 137/105/25
f 135/107/25 112/79/25 113/81/25 136/106/25
f 134/108/25 111/77/25 112/79/25 135/107/25
f 133/109/25 110/75/25 111/77/25 134/108/25
f 132/110/25 109/73/25 110/75/25 133/109/25
f 131/111/25 108/71/25 109/73/25 132/110/25
f 130/112/25 107/69/25 108/71/25 131/111/25
f 129/113/25 106/67/25 107/69/25 130/112/25
f 128/114/25 105/65/25 106/67/25 129/113/25
f 127/115/25 104/64/25 105/65/25 128/114/25
f 126/116/25 103/62/25 104/64/25 127/115/25
f 125/117/25 102/60/25 103/62/25 126/116/25
f 124/118/25 101/10/25 102/60/25 125/117/25
f 123/119/25 100/57/25 101/10/25 124/118/25
f 122/120/25 99/55/25 100/57/25 123/119/25
f 121/121/25 98/53/25 99/55/25 122/120/25
f 144/122/25 97/1/25 98/53/25 121/121/25
f 49/2/25 144/122/25 121/121/25 51/123/25
f 51/123/25 121/121/25 122/120/25 53/124/25
f 53/124/25 122/120/25 123/119/25 55/125/25
f 55/125/25 123/119/25 124/118/25 57/9/25
f 57/9/25 124/118/25 125/117/25 59/126/25
f 59/126/25 125/117/25 126/116/25 61/127/25
f 61/127/25 126/116/25 127/115/25 63/128/25
f 63/128/25 127/115/25 128/114/25 65/129/25
f 65/129/25 128/114/25 129/113/25 67/130/25
f 67/130/25 129/113/25 130/112/25 69/131/25
f 69/131/25 130/112/25 131/111/25 71/132/25
f 71/132/25 131/111/25 132/110/25 73/133/25
f 73/133/25 132/110/25 133/109/25 75/134/25
f 75/134/25 133/109/25 134/108/25 77/135/25
f 77/135/25 134/108/25 135/107/25 79/136/25
f 79/136/25 135/107/25 136/106/25 81/137/25
f 81/137/25 136/106/25 137/105/25 83/138/25
f 83/138/25 137/105/25 138/104/25 85/139/25
f 85/139/25 138/104/25 139/103/25 87/140/25
f 87/140/25 139/103/25 140/102/25 89/141/25
f 89/141/25 140/102/25 141/101/25 91/142/25
f 91/142/25 141/101/25 142/100/25 93/143/25
f 93/143/25 142/100/25 143/98/25 95/144/25
f 95/144/25 143/98/25 144/99/25 49/145/25
