# Blender 4.5.1 LTS
# www.blender.org
o Cylinder
v 0.912910 0.000000 0.408161
v -0.349718 2.000000 -0.936855
v 0.815740 0.000000 0.578418
v -0.160227 2.000000 -0.987080
v 0.687222 0.000000 0.726447
v 0.035422 2.000000 -0.999372
v 0.532294 0.000000 0.846559
v 0.229709 2.000000 -0.973259
v 0.356911 0.000000 0.934138
v 0.415169 2.000000 -0.909744
v 0.167812 0.000000 0.985819
v 0.584674 2.000000 -0.811269
v -0.027736 0.000000 0.999615
v 0.731710 2.000000 -0.681616
v -0.222219 0.000000 0.974997
v 0.850627 2.000000 -0.525769
v -0.408161 0.000000 0.912910
v 0.936855 2.000000 -0.349718
v -0.578418 0.000000 0.815740
v 0.987080 2.000000 -0.160227
v -0.726447 0.000000 0.687222
v 0.999372 2.000000 0.035422
v -0.096176 1.777778 -0.995364
v 0.163878 1.555556 -0.986481
v 0.412836 1.333333 -0.910806
v 0.633842 1.111111 -0.773463
v 0.811933 0.888889 -0.583751
v 0.935050 0.666667 -0.354516
v 0.994858 0.444444 -0.101277
v 0.987308 0.222222 0.158819
v 0.099858 1.777778 -0.995002
v 0.353182 1.555556 -0.935555
v 0.582592 1.333333 -0.812764
v 0.772558 1.111111 -0.634944
v 0.910216 0.888889 -0.414134
v 0.986246 0.666667 -0.165285
v 0.995501 0.444444 0.094756
v 0.937353 0.222222 0.348381
v 0.292054 1.777778 -0.956402
v 0.528913 1.555556 -0.848676
v 0.729961 1.333333 -0.683489
v 0.881585 1.111111 -0.472026
v 0.973520 0.888889 -0.228603
v 0.999541 0.666667 0.030298
v 0.957886 0.444444 0.287148
v 0.851376 0.222222 0.524556
v 0.473027 1.777778 -0.881048
v 0.684318 1.555556 -0.729183
v 0.849277 1.333333 -0.527948
v 0.956733 1.111111 -0.290967
v 0.999412 0.888889 -0.034286
v 0.974424 0.666667 0.224717
v 0.883461 0.444444 0.468505
v 0.732681 0.222222 0.680572
v 0.635822 1.777778 -0.771836
v 0.813426 1.555556 -0.581668
v 0.935956 1.333333 -0.352118
v 0.995115 1.111111 -0.098727
v 0.986897 0.888889 0.161349
v 0.911861 0.666667 0.410500
v 0.775085 0.444444 0.631857
v 0.585830 0.222222 0.810434
v 0.774183 1.777778 -0.632962
v 0.911274 1.555556 -0.411800
v 0.986666 1.333333 -0.162756
v 0.995254 1.111111 0.097307
v 0.936457 0.888889 0.350783
v 0.814255 0.666667 0.580507
v 0.636922 0.444444 0.770928
v 0.416466 0.222222 0.909151
v 0.882792 1.777778 -0.469765
v 0.974102 1.555556 -0.226107
v 0.999460 1.333333 0.032860
v 0.957147 1.111111 0.289602
v 0.850029 0.888889 0.526736
v 0.685358 0.666667 0.728206
v 0.474283 0.444444 0.880372
v 0.231097 0.222222 0.972931
v 0.957476 1.777778 -0.288514
v 0.999497 1.555556 -0.031724
v 0.973845 1.333333 0.227214
v 0.882257 1.111111 0.470768
v 0.730935 0.888889 0.682447
v 0.530123 0.666667 0.847921
v 0.293418 0.444444 0.955984
v 0.036847 0.222222 0.999321
v 0.995364 1.777778 -0.096176
v 0.986481 1.555556 0.163878
v 0.910806 1.333333 0.412836
v 0.773463 1.111111 0.633842
v 0.583751 0.888889 0.811933
v 0.354516 0.666667 0.935050
v 0.101277 0.444444 0.994858
v -0.158819 0.222222 0.987308
v 0.995002 1.777778 0.099858
v 0.935555 1.555556 0.353182
v 0.812764 1.333333 0.582592
v 0.634944 1.111111 0.772558
v 0.414134 0.888889 0.910216
v 0.165285 0.666667 0.986246
v -0.094756 0.444444 0.995501
v -0.348381 0.222222 0.937353
v 0.956402 1.777778 0.292054
v 0.848676 1.555556 0.528913
v 0.683489 1.333333 0.729961
v 0.472026 1.111111 0.881585
v 0.228603 0.888889 0.973520
v -0.030298 0.666667 0.999541
v -0.287148 0.444444 0.957886
v -0.524556 0.222222 0.851376
v -0.062171 0.000000 -0.998065
v -0.667523 2.000000 0.744590
v 0.133737 0.000000 -0.991017
v -0.799958 2.000000 0.600055
v 0.324505 0.000000 -0.945884
v -0.901652 2.000000 0.432461
v 0.502802 0.000000 -0.864401
v -0.968696 2.000000 0.248248
v 0.661778 0.000000 -0.749700
v -0.998514 2.000000 0.054495
v 0.795321 0.000000 -0.606189
v -0.989959 2.000000 -0.141353
v 0.898301 0.000000 -0.439381
v -0.943361 2.000000 -0.331768
v 0.966759 0.000000 -0.255689
v -0.860510 2.000000 -0.509434
v 0.998065 0.000000 -0.062171
v -0.744590 2.000000 -0.667523
v 0.991017 0.000000 0.133737
v -0.600055 2.000000 -0.799958
v 0.945884 0.000000 0.324505
v -0.432461 2.000000 -0.901652
v -0.837024 1.777778 0.547166
v -0.949853 1.555556 0.312696
v -0.998371 1.333333 0.057054
v -0.979292 1.111111 -0.202451
v -0.893909 0.888889 -0.448249
v -0.748002 0.666667 -0.663697
v -0.551449 0.444444 -0.834208
v -0.317561 0.222222 -0.948238
v -0.927688 1.777778 0.373357
v -0.992606 1.555556 0.121380
v -0.990318 1.333333 -0.138815
v -0.920979 1.111111 -0.389611
v -0.789284 0.888889 -0.614029
v -0.604148 0.666667 -0.796872
v -0.378107 0.444444 -0.925762
v -0.126467 0.222222 -0.991971
v -0.982701 1.777778 0.185201
v -0.997214 1.555556 -0.074600
v -0.944208 1.333333 -0.329349
v -0.827273 1.111111 -0.561799
v -0.654327 0.888889 -0.756212
v -0.437078 0.666667 -0.899424
v -0.190235 0.444444 -0.981738
v 0.069487 0.222222 -0.997583
v -0.999949 1.777778 -0.010073
v -0.963499 1.555556 -0.267713
v -0.861813 1.333333 -0.507227
v -0.701776 1.111111 -0.712398
v -0.494224 0.888889 -0.869334
v -0.253210 0.666667 -0.967411
v 0.004948 0.444444 -0.999988
v 0.262771 0.222222 -0.964858
v -0.978770 1.777778 -0.204960
v -0.892757 1.555556 -0.450538
v -0.746298 1.333333 -0.665612
v -0.549310 1.111111 -0.835619
v -0.315129 0.888889 -0.949049
v -0.059613 0.666667 -0.998222
v 0.199941 0.444444 -0.979808
v 0.445956 0.222222 -0.895055
v -0.919978 1.777778 -0.391971
v -0.787707 1.555556 -0.616050
v -0.602104 1.333333 -0.798418
v -0.375734 1.111111 -0.926728
v -0.123924 0.888889 -0.992292
v 0.136276 0.666667 -0.990671
v 0.387250 0.444444 -0.921975
v 0.612004 0.222222 -0.790855
v -0.825831 1.777778 -0.563918
v -0.652386 1.555556 -0.757887
v -0.434771 1.333333 -0.900541
v -0.187718 1.111111 -0.982223
v 0.072044 0.888889 -0.997401
v 0.326928 0.666667 -0.945049
v 0.559677 0.444444 -0.828710
v 0.754532 0.222222 -0.656263
v -0.699948 1.777778 -0.714194
v -0.491995 1.555556 -0.870598
v -0.250730 1.333333 -0.968057
v 0.007511 1.111111 -0.999972
v 0.265243 0.888889 -0.964182
v 0.505016 0.666667 -0.863110
v 0.710597 0.444444 -0.703599
v 0.868065 0.222222 -0.496451
v -0.547166 1.777778 -0.837024
v -0.312696 1.555556 -0.949853
v -0.057054 1.333333 -0.998371
v 0.202451 1.111111 -0.979292
v 0.448249 0.888889 -0.893909
v 0.663697 0.666667 -0.748002
v 0.834208 0.444444 -0.551449
v 0.948238 0.222222 -0.317561
v -0.373357 1.777778 -0.927688
v -0.121380 1.555556 -0.992606
v 0.138815 1.333333 -0.990318
v 0.389611 1.111111 -0.920979
v 0.614029 0.888889 -0.789284
v 0.796872 0.666667 -0.604148
v 0.925762 0.444444 -0.378107
v 0.991971 0.222222 -0.126467
v -0.185201 1.777778 -0.982701
v 0.074600 1.555556 -0.997214
v 0.329349 1.333333 -0.944208
v 0.561799 1.111111 -0.827273
v 0.756212 0.888889 -0.654327
v 0.899424 0.666667 -0.437078
v 0.981738 0.444444 -0.190235
v 0.997583 0.222222 0.069487
v -0.813136 0.000000 0.582073
v 0.985277 2.000000 0.170967
v -0.911069 0.000000 0.412254
v 0.932991 2.000000 0.359900
v -0.973990 0.000000 0.226592
v 0.844851 2.000000 0.535002
v -0.999481 0.000000 0.032222
v 0.724243 2.000000 0.689544
v -0.986562 0.000000 -0.163386
v 0.575804 2.000000 0.817588
v -0.935731 0.000000 -0.352715
v 0.405237 2.000000 0.914212
v -0.848939 0.000000 -0.528490
v 0.219096 2.000000 0.975703
v -0.729524 0.000000 -0.683955
v 0.024536 2.000000 0.999699
v -0.582073 0.000000 -0.813136
v -0.170967 2.000000 0.985277
v -0.412254 0.000000 -0.911069
v -0.359900 2.000000 0.932991
v -0.226592 0.000000 -0.973990
v -0.535002 2.000000 0.844851
v 0.907813 1.777778 0.419374
v 0.768885 1.555556 0.639387
v 0.577898 1.333333 0.816109
v 0.347783 1.111111 0.937575
v 0.094121 0.888889 0.995561
v -0.165914 0.666667 0.986140
v -0.414715 0.444444 0.909951
v -0.635437 0.222222 0.772152
v 0.808554 1.777778 0.588422
v 0.629373 1.555556 0.777104
v 0.407579 1.333333 0.913170
v 0.158188 1.111111 0.987409
v -0.101912 0.888889 0.994793
v -0.355112 0.666667 0.934824
v -0.584270 0.444444 0.811560
v -0.773867 0.222222 0.633348
v 0.678223 1.777778 0.734856
v 0.465674 1.555556 0.884956
v 0.221596 1.333333 0.975138
v -0.037485 1.111111 0.999297
v -0.294029 0.888889 0.955797
v -0.530664 0.666667 0.847582
v -0.731370 0.444444 0.681980
v -0.882558 0.222222 0.470204
v 0.521827 1.777778 0.853051
v 0.284080 1.555556 0.958800
v 0.027098 1.333333 0.999633
v -0.231718 1.111111 0.972783
v -0.474845 0.888889 0.880069
v -0.685823 0.666667 0.727769
v -0.850365 0.444444 0.526193
v -0.957332 0.222222 0.288991
v 0.345379 1.777778 0.938463
v 0.091569 1.555556 0.995799
v -0.168441 1.333333 0.985712
v -0.417046 1.111111 0.908885
v -0.637414 0.888889 0.770521
v -0.814625 0.666667 0.579988
v -0.936681 0.444444 0.350185
v -0.995316 0.222222 0.096672
v 0.155657 1.777778 0.987811
v -0.104461 1.555556 0.994529
v -0.357507 1.333333 0.933910
v -0.586347 1.111111 0.810060
v -0.775488 0.888889 0.631362
v -0.912122 0.666667 0.409918
v -0.987000 0.444444 0.160718
v -0.995051 0.222222 -0.099362
v -0.040046 1.777778 0.999198
v -0.296477 1.555556 0.955040
v -0.532835 1.333333 0.846219
v -0.733116 1.111111 0.680104
v -0.883760 0.888889 0.467941
v -0.974567 0.666667 0.224095
v -0.999390 0.444444 -0.034924
v -0.956547 0.222222 -0.291578
v -0.234211 1.777778 0.972186
v -0.477100 1.555556 0.878849
v -0.687686 1.333333 0.726008
v -0.851711 1.111111 0.524012
v -0.958069 0.888889 0.286536
v -0.999560 0.666667 0.029660
v -0.973374 0.444444 -0.229224
v -0.881283 0.222222 -0.472588
v -0.419374 1.777778 0.907813
v -0.639387 1.555556 0.768885
v -0.816109 1.333333 0.577898
v -0.937575 1.111111 0.347783
v -0.995561 0.888889 0.094121
v -0.986140 0.666667 -0.165914
v -0.909951 0.444444 -0.414715
v -0.772152 0.222222 -0.635437
v -0.588422 1.777778 0.808554
v -0.777104 1.555556 0.629373
v -0.913170 1.333333 0.407579
v -0.987409 1.111111 0.158188
v -0.994793 0.888889 -0.101912
v -0.934824 0.666667 -0.355112
v -0.811560 0.444444 -0.584270
v -0.633348 0.222222 -0.773867
v -0.734856 1.777778 0.678223
v -0.884956 1.555556 0.465674
v -0.975138 1.333333 0.221596
v -0.999297 1.111111 -0.037485
v -0.955797 0.888889 -0.294029
v -0.847582 0.666667 -0.530664
v -0.681980 0.444444 -0.731370
v -0.470204 0.222222 -0.882558
v 0.929631 0.000000 -0.662871
v -1.949772 2.000000 -0.319572
v 1.038147 0.000000 -0.468042
v -1.847714 2.000000 -0.696379
v 1.101728 0.000000 -0.255573
v -1.674105 2.000000 -1.046035
v 1.122302 0.000000 -0.036546
v -1.435618 2.000000 -1.355103
v 1.101230 0.000000 0.180717
v -1.141417 2.000000 -1.611707
v 1.041232 0.000000 0.389212
v -0.802809 2.000000 -1.805984
v 0.945506 0.000000 0.583184
v -0.432804 2.000000 -1.930469
v 0.814753 0.000000 0.755356
v -0.045624 2.000000 -1.980377
v 0.652923 0.000000 0.898711
v 0.343853 2.000000 -1.953791
v 0.466235 0.000000 1.007739
v 0.720660 2.000000 -1.851733
v 0.261864 0.000000 1.078252
v 1.070317 2.000000 -1.678125
v -1.660643 1.777778 -0.752612
v -1.335768 1.555556 -1.099417
v -0.930200 1.333333 -1.305303
v -0.519982 1.111111 -1.396718
v -0.130644 0.888889 -1.386200
v 0.218858 0.666667 -1.290096
v 0.515973 0.444444 -1.126211
v 0.753737 0.222222 -0.911922
v -1.479841 1.777778 -1.064436
v -1.093381 1.555556 -1.340696
v -0.655606 1.333333 -1.463032
v -0.235692 1.111111 -1.472118
v 0.143696 0.888889 -1.385246
v 0.467067 0.666667 -1.222199
v 0.725510 0.444444 -1.003005
v 0.915596 0.222222 -0.746257
v -1.241679 1.777778 -1.334997
v -0.808519 1.555556 -1.529744
v -0.355546 1.333333 -1.563693
v 0.057628 1.111111 -1.489951
v 0.412025 0.888889 -1.329937
v 0.696166 0.666667 -1.106179
v 0.905090 0.444444 -0.840260
v 1.038989 0.222222 -0.551396
v -0.955309 1.777778 -1.553896
v -0.492247 1.555556 -1.659064
v -0.041812 1.333333 -1.603123
v 0.348217 1.111111 -1.449193
v 0.663190 0.888889 -1.222066
v 0.895975 0.666667 -0.946274
v 1.045530 0.444444 -0.644276
v 1.114297 0.222222 -0.335238
v -0.631737 1.777778 -1.712721
v -0.156990 1.555556 -1.723337
v 0.273010 1.333333 -1.579386
v 0.623959 1.111111 -1.350962
v 0.885917 0.888889 -1.065410
v 1.055970 0.666667 -0.748481
v 1.134353 0.444444 -0.422491
v 1.144001 0.222222 -0.111083
v -0.283397 1.777778 -1.805368
v 0.183809 1.555556 -1.719586
v 0.575781 1.333333 -1.492817
v 0.872408 1.111111 -1.198481
v 1.068254 0.888889 -0.865574
v 1.160452 0.666667 -0.519384
v 1.174147 0.444444 -0.190746
v 1.129812 0.222222 0.111593
v 0.076324 1.777778 -1.828277
v 0.515930 1.555556 -1.647231
v 0.852806 1.333333 -1.345975
v 1.080100 1.111111 -0.996859
v 1.190802 0.888889 -0.627731
v 1.211602 0.666667 -0.277689
v 1.166980 0.444444 0.039973
v 1.075146 0.222222 0.325001
v 0.433603 1.777778 -1.780568
v 0.824343 1.555556 -1.508010
v 1.089029 1.333333 -1.143351
v 1.223216 1.111111 -0.749013
v 1.254738 0.888889 -0.373820
v 1.211895 0.666667 -0.036340
v 1.117056 0.444444 0.260811
v 0.984251 0.222222 0.523147
v 0.774709 1.777778 -1.664074
v 1.092179 1.555556 -1.305503
v 1.254976 1.333333 -0.884160
v 1.301294 1.111111 -0.480638
v 1.263108 0.888889 -0.119332
v 1.166453 0.666667 0.194451
v 1.029589 0.444444 0.465218
v 0.861506 0.222222 0.701621
v 1.086534 1.777778 -1.483272
v 1.282418 1.555556 -1.033003
v 1.348059 1.333333 -0.598900
v 1.318370 1.111111 -0.210616
v 1.222165 0.888889 0.123850
v 1.081596 0.666667 0.407393
v 0.909912 0.444444 0.648683
v 0.709232 0.222222 0.855094
v 1.298927 1.777778 -1.191908
v 1.390053 1.555556 -0.727849
v 1.374267 1.333333 -0.311127
v 1.282176 1.111111 0.047203
v 1.139494 0.888889 0.347565
v 0.963734 0.666667 0.597772
v 0.762874 0.444444 0.808215
v 0.529971 0.222222 0.975946
v -1.014249 0.000000 -0.501774
v 0.633621 2.000000 1.902735
v -0.892081 0.000000 -0.688390
v 0.252490 2.000000 1.987222
v -0.733471 0.000000 -0.843466
v -0.137801 2.000000 1.995731
v -0.549093 0.000000 -0.963491
v -0.522253 2.000000 1.927933
v -0.346936 0.000000 -1.045787
v -0.886091 2.000000 1.786436
v -0.134455 0.000000 -1.089490
v -1.215333 2.000000 1.576677
v 0.081778 0.000000 -1.094745
v -1.497327 2.000000 1.306716
v 0.294969 0.000000 -1.058838
v -1.721235 2.000000 0.986928
v 0.497058 0.000000 -0.982029
v -1.878454 2.000000 0.629602
v 0.680279 0.000000 -0.867270
v -1.962941 2.000000 0.248471
v 0.837591 0.000000 -0.718971
v -1.971449 2.000000 -0.141821
v 0.114533 1.777778 1.845224
v -0.344252 1.555556 1.716950
v -0.715974 1.333333 1.451242
v -0.988335 1.111111 1.128510
v -1.160593 0.888889 0.777186
v -1.238430 0.666667 0.421647
v -1.231791 0.444444 0.081274
v -1.152836 0.222222 -0.229699
v -0.245587 1.777778 1.829802
v -0.670472 1.555556 1.614228
v -0.983137 1.333333 1.281211
v -1.187077 1.111111 0.911675
v -1.287089 0.888889 0.533720
v -1.293506 0.666667 0.170248
v -1.219935 0.444444 -0.161554
v -1.081251 0.222222 -0.450015
v -0.595779 1.777778 1.744420
v -0.970144 1.555556 1.449637
v -1.211575 1.333333 1.062130
v -1.339025 1.111111 0.660113
v -1.362657 0.888889 0.270335
v -1.297099 0.666667 -0.086582
v -1.159170 0.444444 -0.396228
v -0.965976 0.222222 -0.649856
v -0.922584 1.777778 1.592361
v -1.231492 1.555556 1.229496
v -1.392129 1.333333 0.802507
v -1.437816 1.111111 0.383759
v -1.383716 0.888889 -0.002267
v -1.248249 0.666667 -0.337875
v -1.050831 0.444444 -0.611724
v -0.809585 0.222222 -0.817108
v -1.213445 1.777778 1.379465
v -1.444044 1.555556 0.962334
v -1.517249 1.333333 0.512582
v -1.478826 1.111111 0.093852
v -1.348389 0.888889 -0.272370
v -1.147402 0.666667 -0.571563
v -0.895772 0.444444 -0.793638
v -0.624957 0.222222 -0.947698
v -1.457183 1.777778 1.113917
v -1.598925 1.555556 0.658670
v -1.581139 1.333333 0.204136
v -1.459146 1.111111 -0.197115
v -1.256119 0.888889 -0.526828
v -0.993181 0.666667 -0.770828
v -0.709162 0.444444 -0.936795
v -0.421262 0.222222 -1.038717
v -1.644433 1.777778 0.805921
v -1.689034 1.555556 0.330814
v -1.579726 1.333333 -0.109542
v -1.377080 1.111111 -0.474893
v -1.102589 0.888889 -0.746248
v -0.803094 0.666667 -0.928780
v -0.501670 0.444444 -1.037890
v -0.206971 0.222222 -1.089545
v -1.767996 1.777778 0.467311
v -1.708948 1.555556 -0.007147
v -1.510032 1.333333 -0.413090
v -1.224296 1.111111 -0.717282
v -0.907691 0.888889 -0.921332
v -0.589724 0.666667 -1.041553
v -0.283072 0.444444 -1.096500
v 0.010650 0.222222 -1.101139
v -1.823127 1.777778 0.111102
v -1.654052 1.555556 -0.338680
v -1.357870 1.333333 -0.681103
v -1.023238 1.111111 -0.911768
v -0.686519 0.888889 -1.047515
v -0.364473 0.666667 -1.108900
v -0.061573 0.444444 -1.114174
v 0.225673 0.222222 -1.075309
v -1.807704 1.777778 -0.249018
v -1.501477 1.555556 -0.634572
v -1.148935 1.333333 -0.896922
v -0.792450 1.111111 -1.053056
v -0.452470 0.888889 -1.124762
v -0.136707 0.666667 -1.132996
v 0.156371 0.444444 -1.093516
v 0.432289 0.222222 -1.011662
v -1.648881 1.777778 -0.573612
v -1.281829 1.555556 -0.872793
v -0.906782 1.333333 -1.054758
v -0.547742 1.111111 -1.141489
v -0.216266 0.888889 -1.155957
v 0.086438 0.666667 -1.117301
v 0.365871 0.444444 -1.037412
v 0.622536 0.222222 -0.908969
v 0.117583 0.000000 1.140108
v 1.290044 2.000000 -1.518852
v -0.105462 0.000000 1.135449
v 1.563818 2.000000 -1.240559
v -0.321139 0.000000 1.083094
v 1.778039 2.000000 -0.914202
v -0.520772 0.000000 0.990303
v 1.924474 2.000000 -0.552324
v -0.697836 0.000000 0.862450
v 1.997498 2.000000 -0.168830
v -0.847631 0.000000 0.705420
v 1.994302 2.000000 0.221540
v -0.966786 0.000000 0.524878
v 1.915010 2.000000 0.603787
v -1.049420 0.000000 0.325100
v 1.762669 2.000000 0.963219
v -1.091492 0.000000 0.113040
v 1.543134 2.000000 1.286025
v -1.091385 0.000000 -0.103154
v 1.264840 2.000000 1.559799
v -1.049102 0.000000 -0.315172
v 0.938483 2.000000 1.774020
v 1.515166 1.777778 -1.050687
v 1.648870 1.555556 -0.595188
v 1.619553 1.333333 -0.141156
v 1.489329 1.111111 0.259110
v 1.281905 0.888889 0.589903
v 1.020962 0.666667 0.843108
v 0.728206 0.444444 1.016878
v 0.422152 0.222222 1.113971
v 1.693097 1.777778 -0.737215
v 1.734808 1.555556 -0.264159
v 1.617105 1.333333 0.175504
v 1.410909 1.111111 0.542587
v 1.142586 0.888889 0.826251
v 0.837033 0.666667 1.023109
v 0.516033 0.444444 1.135578
v 0.197376 0.222222 1.170082
v 1.806454 1.777778 -0.395054
v 1.754213 1.555556 0.077175
v 1.552530 1.333333 0.485345
v 1.278224 1.111111 0.804803
v 0.959360 0.888889 1.029975
v 0.621178 0.666667 1.162324
v 0.284814 0.444444 1.208460
v -0.033244 0.222222 1.178248
v 1.850881 1.777778 -0.037352
v 1.706194 1.555556 0.415476
v 1.428182 1.333333 0.776084
v 1.096317 1.111111 1.035087
v 0.739393 0.888889 1.192352
v 0.382179 0.666667 1.254103
v 0.044583 0.444444 1.230777
v -0.258113 0.222222 1.134156
v 1.824670 1.777778 0.322144
v 1.592424 1.555556 0.737335
v 1.248731 1.333333 1.035880
v 0.872256 1.111111 1.223546
v 0.491610 0.888889 1.305555
v 0.130479 0.666667 1.292387
v -0.192059 0.444444 1.195511
v -0.466894 0.222222 1.046658
v 1.728828 1.777778 0.669618
v 1.417108 1.555556 1.029643
v 1.021083 1.333333 1.253559
v 0.615074 1.111111 1.361062
v 0.226832 0.888889 1.362096
v -0.120479 0.666667 1.266948
v -0.412608 0.444444 1.112892
v -0.652236 0.222222 0.922015
v 1.567039 1.777778 0.991719
v 1.186905 1.555556 1.279834
v 0.754326 1.333333 1.418589
v 0.335918 1.111111 1.438589
v -0.040903 0.888889 1.347838
v -0.355486 0.666667 1.189111
v -0.608580 0.444444 0.990252
v -0.809105 0.222222 0.767108
v 1.345521 1.777778 1.276067
v 0.910863 1.555556 1.475807
v 0.459866 1.333333 1.520240
v 0.049041 1.111111 1.437039
v -0.293067 0.888889 1.274873
v -0.564559 0.666667 1.067545
v -0.774411 0.444444 0.835687
v -0.934445 0.222222 0.588628
v 1.072785 1.777778 1.511734
v 0.600507 1.555556 1.604808
v 0.151516 1.333333 1.532673
v -0.222935 1.111111 1.368980
v -0.517741 0.888889 1.153647
v -0.741414 0.666667 0.911826
v -0.907045 0.444444 0.657006
v -1.026630 0.222222 0.392583
v 0.759313 1.777778 1.689666
v 0.268191 1.555556 1.631493
v -0.142849 1.333333 1.469045
v -0.465627 1.111111 1.247428
v -0.707755 0.888889 0.995557
v -0.882906 0.666667 0.731090
v -1.005247 0.444444 0.461091
v -1.082261 0.222222 0.183664
v 0.399156 1.777778 1.725953
v -0.051017 1.555556 1.570385
v -0.405729 1.333333 1.346417
v -0.670888 1.111111 1.086051
v -0.859838 0.888889 0.811271
v -0.988163 0.666667 0.533250
v -1.068860 0.444444 0.253634
v -1.096109 0.222222 -0.032085
vn 0.9256 -0.0000 0.3785
vn -0.1283 -0.0000 -0.9917
vn 0.8577 -0.0000 0.5141
vn -0.0840 -0.0000 -0.9965
vn 0.7409 -0.0000 0.6716
vn 0.1120 -0.0000 -0.9937
vn 0.5957 -0.0000 0.8032
vn 0.3037 -0.0000 -0.9528
vn 0.4275 -0.0000 0.9040
vn 0.4838 -0.0000 -0.8752
vn 0.2430 -0.0000 0.9700
vn 0.6452 -0.0000 -0.7640
vn 0.0491 -0.0000 0.9988
vn 0.7819 -0.0000 -0.6235
vn -0.1467 -0.0000 0.9892
vn 0.8885 -0.0000 -0.4589
vn -0.3369 -0.0000 0.9415
vn 0.9609 -0.0000 -0.2768
vn -0.5141 -0.0000 0.8577
vn 0.9965 -0.0000 -0.0840
vn -0.5518 -0.0000 0.8340
vn 0.9977 -0.0000 0.0677
vn -0.0695 -0.0000 -0.9976
vn 0.1902 -0.0000 -0.9817
vn 0.4370 -0.0000 -0.8994
vn 0.6543 -0.0000 -0.7562
vn 0.8272 -0.0000 -0.5618
vn 0.9442 -0.0000 -0.3294
vn 0.9972 -0.0000 -0.0746
vn 0.9827 -0.0000 0.1852
vn 0.0999 -0.0000 -0.9950
vn 0.3532 -0.0000 -0.9356
vn 0.5826 -0.0000 -0.8128
vn 0.7726 -0.0000 -0.6349
vn 0.9102 -0.0000 -0.4141
vn 0.9862 -0.0000 -0.1653
vn 0.9955 -0.0000 0.0948
vn 0.9374 -0.0000 0.3484
vn 0.2921 -0.0000 -0.9564
vn 0.5289 -0.0000 -0.8487
vn 0.7300 -0.0000 -0.6835
vn 0.8816 -0.0000 -0.4720
vn 0.9735 -0.0000 -0.2286
vn 0.9995 -0.0000 0.0303
vn 0.9579 -0.0000 0.2871
vn 0.8514 -0.0000 0.5246
vn 0.4730 -0.0000 -0.8810
vn 0.6843 -0.0000 -0.7292
vn 0.8493 -0.0000 -0.5279
vn 0.9567 -0.0000 -0.2910
vn 0.9994 -0.0000 -0.0343
vn 0.9744 -0.0000 0.2247
vn 0.8835 -0.0000 0.4685
vn 0.7327 -0.0000 0.6806
vn 0.6358 -0.0000 -0.7718
vn 0.8134 -0.0000 -0.5817
vn 0.9360 -0.0000 -0.3521
vn 0.9951 -0.0000 -0.0987
vn 0.9869 -0.0000 0.1613
vn 0.9119 -0.0000 0.4105
vn 0.7751 -0.0000 0.6319
vn 0.5858 -0.0000 0.8104
vn 0.7742 -0.0000 -0.6330
vn 0.9113 -0.0000 -0.4118
vn 0.9867 -0.0000 -0.1628
vn 0.9953 -0.0000 0.0973
vn 0.9365 -0.0000 0.3508
vn 0.8143 -0.0000 0.5805
vn 0.6369 -0.0000 0.7709
vn 0.4165 -0.0000 0.9092
vn 0.8828 -0.0000 -0.4698
vn 0.9741 -0.0000 -0.2261
vn 0.9995 -0.0000 0.0329
vn 0.9571 -0.0000 0.2896
vn 0.8500 -0.0000 0.5267
vn 0.6854 -0.0000 0.7282
vn 0.4743 -0.0000 0.8804
vn 0.2311 -0.0000 0.9729
vn 0.9575 -0.0000 -0.2885
vn 0.9995 -0.0000 -0.0317
vn 0.9738 -0.0000 0.2272
vn 0.8823 -0.0000 0.4708
vn 0.7309 -0.0000 0.6824
vn 0.5301 -0.0000 0.8479
vn 0.2934 -0.0000 0.9560
vn 0.0368 -0.0000 0.9993
vn 0.9954 -0.0000 -0.0962
vn 0.9865 -0.0000 0.1639
vn 0.9108 -0.0000 0.4128
vn 0.7735 -0.0000 0.6338
vn 0.5838 -0.0000 0.8119
vn 0.3545 -0.0000 0.9351
vn 0.1013 -0.0000 0.9949
vn -0.1588 -0.0000 0.9873
vn 0.9950 -0.0000 0.0999
vn 0.9356 -0.0000 0.3532
vn 0.8128 -0.0000 0.5826
vn 0.6349 -0.0000 0.7726
vn 0.4141 -0.0000 0.9102
vn 0.1653 -0.0000 0.9862
vn -0.0948 -0.0000 0.9955
vn -0.3484 -0.0000 0.9374
vn 0.9639 -0.0000 0.2664
vn 0.8625 -0.0000 0.5060
vn 0.7028 -0.0000 0.7114
vn 0.4954 -0.0000 0.8687
vn 0.2545 -0.0000 0.9671
vn -0.0036 -0.0000 1.0000
vn -0.2614 -0.0000 0.9652
vn -0.5016 -0.0000 0.8651
vn -0.0944 -0.0000 -0.9955
vn -0.8189 -0.0000 0.5739
vn 0.0573 -0.0000 -0.9984
vn -0.8436 -0.0000 0.5369
vn 0.2510 -0.0000 -0.9680
vn -0.9322 -0.0000 0.3620
vn 0.4350 -0.0000 -0.9004
vn -0.9849 -0.0000 0.1732
vn 0.6023 -0.0000 -0.7983
vn -0.9998 -0.0000 -0.0223
vn 0.7465 -0.0000 -0.6654
vn -0.9762 -0.0000 -0.2169
vn 0.8619 -0.0000 -0.5070
vn -0.9151 -0.0000 -0.4032
vn 0.9443 -0.0000 -0.3291
vn -0.8189 -0.0000 -0.5740
vn 0.9904 -0.0000 -0.1386
vn -0.6912 -0.0000 -0.7227
vn 0.9984 -0.0000 0.0573
vn -0.5369 -0.0000 -0.8436
vn 0.9948 -0.0000 0.1017
vn -0.4031 -0.0000 -0.9151
vn -0.8514 -0.0000 0.5246
vn -0.9579 -0.0000 0.2872
vn -0.9995 -0.0000 0.0303
vn -0.9735 -0.0000 -0.2286
vn -0.8816 -0.0000 -0.4720
vn -0.7300 -0.0000 -0.6835
vn -0.5290 -0.0000 -0.8487
vn -0.2921 -0.0000 -0.9564
vn -0.9277 -0.0000 0.3734
vn -0.9926 -0.0000 0.1214
vn -0.9903 -0.0000 -0.1388
vn -0.9210 -0.0000 -0.3896
vn -0.7893 -0.0000 -0.6140
vn -0.6041 -0.0000 -0.7969
vn -0.3781 -0.0000 -0.9258
vn -0.1265 -0.0000 -0.9920
vn -0.9827 -0.0000 0.1852
vn -0.9972 -0.0000 -0.0746
vn -0.9442 -0.0000 -0.3293
vn -0.8273 -0.0000 -0.5618
vn -0.6543 -0.0000 -0.7562
vn -0.4371 -0.0000 -0.8994
vn -0.1902 -0.0000 -0.9817
vn 0.0695 -0.0000 -0.9976
vn -0.9999 -0.0000 -0.0101
vn -0.9635 -0.0000 -0.2677
vn -0.8618 -0.0000 -0.5072
vn -0.7018 -0.0000 -0.7124
vn -0.4942 -0.0000 -0.8693
vn -0.2532 -0.0000 -0.9674
vn 0.0049 -0.0000 -1.0000
vn 0.2628 -0.0000 -0.9649
vn -0.9788 -0.0000 -0.2050
vn -0.8928 -0.0000 -0.4505
vn -0.7463 -0.0000 -0.6656
vn -0.5493 -0.0000 -0.8356
vn -0.3151 -0.0000 -0.9490
vn -0.0596 -0.0000 -0.9982
vn 0.1999 -0.0000 -0.9798
vn 0.4460 -0.0000 -0.8951
vn -0.9200 -0.0000 -0.3920
vn -0.7877 -0.0000 -0.6160
vn -0.6021 -0.0000 -0.7984
vn -0.3757 -0.0000 -0.9267
vn -0.1239 -0.0000 -0.9923
vn 0.1363 -0.0000 -0.9907
vn 0.3872 -0.0000 -0.9220
vn 0.6120 -0.0000 -0.7909
vn -0.8258 -0.0000 -0.5639
vn -0.6524 -0.0000 -0.7579
vn -0.4348 -0.0000 -0.9005
vn -0.1877 -0.0000 -0.9822
vn 0.0720 -0.0000 -0.9974
vn 0.3269 -0.0000 -0.9450
vn 0.5597 -0.0000 -0.8287
vn 0.7545 -0.0000 -0.6563
vn -0.6999 -0.0000 -0.7142
vn -0.4920 -0.0000 -0.8706
vn -0.2507 -0.0000 -0.9681
vn 0.0075 -0.0000 -1.0000
vn 0.2652 -0.0000 -0.9642
vn 0.5050 -0.0000 -0.8631
vn 0.7106 -0.0000 -0.7036
vn 0.8681 -0.0000 -0.4965
vn -0.5472 -0.0000 -0.8370
vn -0.3127 -0.0000 -0.9499
vn -0.0571 -0.0000 -0.9984
vn 0.2025 -0.0000 -0.9793
vn 0.4482 -0.0000 -0.8939
vn 0.6637 -0.0000 -0.7480
vn 0.8342 -0.0000 -0.5514
vn 0.9482 -0.0000 -0.3176
vn -0.3734 -0.0000 -0.9277
vn -0.1214 -0.0000 -0.9926
vn 0.1388 -0.0000 -0.9903
vn 0.3896 -0.0000 -0.9210
vn 0.6140 -0.0000 -0.7893
vn 0.7969 -0.0000 -0.6041
vn 0.9258 -0.0000 -0.3781
vn 0.9920 -0.0000 -0.1265
vn -0.2114 -0.0000 -0.9774
vn 0.0479 -0.0000 -0.9989
vn 0.3040 -0.0000 -0.9527
vn 0.5395 -0.0000 -0.8420
vn 0.7384 -0.0000 -0.6743
vn 0.8874 -0.0000 -0.4610
vn 0.9763 -0.0000 -0.2164
vn 0.9991 -0.0000 0.0428
vn -0.7939 -0.0000 0.6080
vn 0.9209 -0.0000 0.3898
vn -0.8767 -0.0000 0.4809
vn 0.9026 -0.0000 0.4304
vn -0.9537 -0.0000 0.3007
vn 0.8013 -0.0000 0.5983
vn -0.9941 -0.0000 0.1088
vn 0.6692 -0.0000 0.7431
vn -0.9962 -0.0000 -0.0872
vn 0.5114 -0.0000 0.8594
vn -0.9600 -0.0000 -0.2799
vn 0.3339 -0.0000 0.9426
vn -0.8870 -0.0000 -0.4618
vn 0.1436 -0.0000 0.9896
vn -0.7799 -0.0000 -0.6260
vn -0.0522 -0.0000 0.9986
vn -0.6428 -0.0000 -0.7661
vn -0.2461 -0.0000 0.9693
vn -0.4809 -0.0000 -0.8767
vn -0.4304 -0.0000 0.9026
vn -0.4415 -0.0000 -0.8973
vn -0.5620 -0.0000 0.8271
vn 0.8963 -0.0000 0.4435
vn 0.7515 -0.0000 0.6597
vn 0.5559 -0.0000 0.8313
vn 0.3226 -0.0000 0.9465
vn 0.0675 -0.0000 0.9977
vn -0.1922 -0.0000 0.9814
vn -0.4389 -0.0000 0.8985
vn -0.6559 -0.0000 0.7549
vn 0.8086 -0.0000 0.5884
vn 0.6294 -0.0000 0.7771
vn 0.4076 -0.0000 0.9132
vn 0.1582 -0.0000 0.9874
vn -0.1019 -0.0000 0.9948
vn -0.3551 -0.0000 0.9348
vn -0.5843 -0.0000 0.8116
vn -0.7739 -0.0000 0.6333
vn 0.6782 -0.0000 0.7349
vn 0.4657 -0.0000 0.8850
vn 0.2216 -0.0000 0.9751
vn -0.0375 -0.0000 0.9993
vn -0.2940 -0.0000 0.9558
vn -0.5307 -0.0000 0.8476
vn -0.7314 -0.0000 0.6820
vn -0.8826 -0.0000 0.4702
vn 0.5218 -0.0000 0.8531
vn 0.2841 -0.0000 0.9588
vn 0.0271 -0.0000 0.9996
vn -0.2317 -0.0000 0.9728
vn -0.4748 -0.0000 0.8801
vn -0.6858 -0.0000 0.7278
vn -0.8504 -0.0000 0.5262
vn -0.9573 -0.0000 0.2890
vn 0.3454 -0.0000 0.9385
vn 0.0916 -0.0000 0.9958
vn -0.1684 -0.0000 0.9857
vn -0.4170 -0.0000 0.9089
vn -0.6374 -0.0000 0.7705
vn -0.8146 -0.0000 0.5800
vn -0.9367 -0.0000 0.3502
vn -0.9953 -0.0000 0.0967
vn 0.1557 -0.0000 0.9878
vn -0.1045 -0.0000 0.9945
vn -0.3575 -0.0000 0.9339
vn -0.5863 -0.0000 0.8101
vn -0.7755 -0.0000 0.6314
vn -0.9121 -0.0000 0.4099
vn -0.9870 -0.0000 0.1607
vn -0.9951 -0.0000 -0.0994
vn -0.0400 -0.0000 0.9992
vn -0.2965 -0.0000 0.9550
vn -0.5328 -0.0000 0.8462
vn -0.7331 -0.0000 0.6801
vn -0.8838 -0.0000 0.4679
vn -0.9746 -0.0000 0.2241
vn -0.9994 -0.0000 -0.0349
vn -0.9565 -0.0000 -0.2916
vn -0.2342 -0.0000 0.9722
vn -0.4771 -0.0000 0.8788
vn -0.6877 -0.0000 0.7260
vn -0.8517 -0.0000 0.5240
vn -0.9581 -0.0000 0.2865
vn -0.9996 -0.0000 0.0297
vn -0.9734 -0.0000 -0.2292
vn -0.8813 -0.0000 -0.4726
vn -0.4194 -0.0000 0.9078
vn -0.6394 -0.0000 0.7689
vn -0.8161 -0.0000 0.5779
vn -0.9376 -0.0000 0.3478
vn -0.9956 -0.0000 0.0941
vn -0.9861 -0.0000 -0.1659
vn -0.9100 -0.0000 -0.4147
vn -0.7722 -0.0000 -0.6354
vn -0.5884 -0.0000 0.8086
vn -0.7771 -0.0000 0.6294
vn -0.9132 -0.0000 0.4076
vn -0.9874 -0.0000 0.1582
vn -0.9948 -0.0000 -0.1019
vn -0.9348 -0.0000 -0.3551
vn -0.8116 -0.0000 -0.5843
vn -0.6333 -0.0000 -0.7739
vn -0.7165 -0.0000 0.6976
vn -0.8722 -0.0000 0.4892
vn -0.9689 -0.0000 0.2476
vn -0.9999 -0.0000 -0.0108
vn -0.9633 -0.0000 -0.2684
vn -0.8615 -0.0000 -0.5078
vn -0.7013 -0.0000 -0.7129
vn -0.4936 -0.0000 -0.8697
vn 0.7881 -0.1720 -0.5911
vn -0.7640 -0.5637 -0.3138
vn 0.8784 -0.1614 -0.4499
vn -0.7525 -0.5648 -0.3388
vn 0.9573 -0.1372 -0.2547
vn -0.6719 -0.5648 -0.4791
vn 0.9922 -0.1096 -0.0594
vn -0.5654 -0.5649 -0.6009
vn 0.9882 -0.0802 0.1305
vn -0.4372 -0.5652 -0.6995
vn 0.9494 -0.0496 0.3100
vn -0.2922 -0.5657 -0.7711
vn 0.8772 -0.0177 0.4797
vn -0.1361 -0.5662 -0.8129
vn 0.7744 -0.0003 0.6327
vn 0.0251 -0.5669 -0.8234
vn 0.6432 0.0006 0.7657
vn 0.1852 -0.5676 -0.8022
vn 0.4831 -0.0000 0.8756
vn 0.3534 -0.5639 -0.7465
vn 0.4464 -0.0000 0.8948
vn 0.5395 -0.5325 -0.6522
vn -0.7638 -0.5401 -0.3534
vn -0.7018 -0.4074 -0.5844
vn -0.4992 -0.4926 -0.7128
vn -0.3040 -0.4479 -0.8408
vn -0.0755 -0.3993 -0.9137
vn 0.1704 -0.3464 -0.9225
vn 0.4153 -0.2889 -0.8626
vn 0.6390 -0.2263 -0.7352
vn -0.7118 -0.4820 -0.5110
vn -0.5697 -0.4443 -0.6914
vn -0.3626 -0.4789 -0.7995
vn -0.1464 -0.4331 -0.8894
vn 0.0926 -0.3832 -0.9190
vn 0.3373 -0.3285 -0.8822
vn 0.5686 -0.2686 -0.7775
vn 0.7667 -0.2024 -0.6093
vn -0.5980 -0.4828 -0.6398
vn -0.4229 -0.4454 -0.7891
vn -0.1982 -0.4785 -0.8555
vn 0.0326 -0.4321 -0.9012
vn 0.2746 -0.3810 -0.8829
vn 0.5098 -0.3242 -0.7969
vn 0.7192 -0.2604 -0.6442
vn 0.8820 -0.1868 -0.4326
vn -0.4610 -0.4843 -0.7436
vn -0.2593 -0.4471 -0.8561
vn -0.0248 -0.4774 -0.8783
vn 0.2126 -0.4299 -0.8775
vn 0.4493 -0.3766 -0.8101
vn 0.6677 -0.3156 -0.6742
vn 0.8476 -0.2428 -0.4718
vn 0.9590 -0.1594 -0.2344
vn -0.3061 -0.4867 -0.8182
vn -0.0848 -0.4498 -0.8891
vn 0.1520 -0.4753 -0.8666
vn 0.3882 -0.4255 -0.8175
vn 0.6132 -0.3677 -0.6991
vn 0.8088 -0.2962 -0.5081
vn 0.9385 -0.2119 -0.2727
vn 0.9908 -0.1296 -0.0380
vn -0.1393 -0.4906 -0.8602
vn 0.0942 -0.4538 -0.8861
vn 0.3271 -0.4709 -0.8193
vn 0.5565 -0.4164 -0.7189
vn 0.7662 -0.3464 -0.5412
vn 0.9143 -0.2611 -0.3096
vn 0.9813 -0.1781 -0.0735
vn 0.9834 -0.0978 0.1527
vn 0.0326 -0.4967 -0.8673
vn 0.2716 -0.4600 -0.8454
vn 0.4985 -0.4616 -0.7337
vn 0.7209 -0.3931 -0.5708
vn 0.8876 -0.3058 -0.3446
vn 0.9691 -0.2220 -0.1080
vn 0.9824 -0.1423 0.1209
vn 0.9409 -0.0652 0.3323
vn 0.2028 -0.5066 -0.8380
vn 0.4438 -0.4686 -0.7639
vn 0.6744 -0.4354 -0.5963
vn 0.8598 -0.3445 -0.3769
vn 0.9554 -0.2595 -0.1409
vn 0.9793 -0.1811 0.0900
vn 0.9469 -0.1063 0.3034
vn 0.8664 -0.0343 0.4981
vn 0.3659 -0.5223 -0.7703
vn 0.6198 -0.4722 -0.6268
vn 0.8342 -0.3737 -0.4056
vn 0.9423 -0.2875 -0.1714
vn 0.9754 -0.2121 0.0601
vn 0.9507 -0.1410 0.2762
vn 0.8803 -0.0713 0.4691
vn 0.7630 -0.0125 0.6463
vn 0.5644 -0.5141 -0.6459
vn 0.8172 -0.3834 -0.4304
vn 0.9331 -0.3000 -0.1981
vn 0.9722 -0.2318 0.0318
vn 0.9538 -0.1673 0.2495
vn 0.8897 -0.1032 0.4448
vn 0.7863 -0.0386 0.6166
vn 0.6310 -0.0010 0.7758
vn 0.7838 -0.4011 -0.4741
vn 0.9179 -0.3111 -0.2465
vn 0.9686 -0.2476 -0.0205
vn 0.9622 -0.1882 0.1971
vn 0.9092 -0.1285 0.3961
vn 0.8189 -0.0675 0.5700
vn 0.6848 -0.0094 0.7287
vn 0.4924 0.0006 0.8703
vn -0.8898 -0.1696 -0.4237
vn 0.0762 -0.5701 0.8181
vn -0.8068 -0.1589 -0.5691
vn 0.0488 -0.5710 0.8195
vn -0.6707 -0.1349 -0.7294
vn -0.1121 -0.5703 0.8138
vn -0.5140 -0.1077 -0.8510
vn -0.2688 -0.5695 0.7768
vn -0.3439 -0.0788 -0.9357
vn -0.4154 -0.5688 0.7099
vn -0.1667 -0.0488 -0.9848
vn -0.5463 -0.5680 0.6156
vn 0.0174 -0.0174 -0.9997
vn -0.6563 -0.5672 0.4975
vn 0.2009 -0.0003 -0.9796
vn -0.7412 -0.5665 0.3601
vn 0.3797 0.0006 -0.9251
vn -0.7976 -0.5659 0.2087
vn 0.5513 -0.0000 -0.8343
vn -0.8272 -0.5608 0.0340
vn 0.5855 -0.0000 -0.8107
vn -0.8310 -0.5281 -0.1747
vn 0.0412 -0.5462 0.8366
vn -0.1915 -0.4119 0.8909
vn -0.3987 -0.4964 0.7711
vn -0.6029 -0.4500 0.6588
vn -0.7740 -0.3997 0.4910
vn -0.8965 -0.3454 0.2774
vn -0.9574 -0.2868 0.0327
vn -0.9484 -0.2238 -0.2247
vn -0.1219 -0.4872 0.8647
vn -0.3472 -0.4482 0.8238
vn -0.5390 -0.4815 0.6911
vn -0.7195 -0.4340 0.5421
vn -0.8573 -0.3825 0.3446
vn -0.9387 -0.3266 0.1108
vn -0.9534 -0.2659 -0.1427
vn -0.8962 -0.1997 -0.3962
vn -0.2884 -0.4872 0.8243
vn -0.5019 -0.4482 0.7397
vn -0.6652 -0.4798 0.5721
vn -0.8136 -0.4317 0.3895
vn -0.9102 -0.3791 0.1667
vn -0.9434 -0.3214 -0.0816
vn -0.9053 -0.2572 -0.3380
vn -0.7933 -0.1839 -0.5803
vn -0.4438 -0.4877 0.7518
vn -0.6374 -0.4488 0.6264
vn -0.7665 -0.4775 0.4296
vn -0.8766 -0.4283 0.2192
vn -0.9273 -0.3737 -0.0219
vn -0.9083 -0.3120 -0.2785
vn -0.8125 -0.2393 -0.5316
vn -0.6537 -0.1567 -0.7403
vn -0.5819 -0.4890 0.6499
vn -0.7480 -0.4502 0.4876
vn -0.8388 -0.4740 0.2678
vn -0.9055 -0.4228 0.0358
vn -0.9054 -0.3639 -0.2186
vn -0.8270 -0.2921 -0.4803
vn -0.6786 -0.2085 -0.7043
vn -0.4947 -0.1274 -0.8597
vn -0.6968 -0.4915 0.5223
vn -0.8290 -0.4530 0.3280
vn -0.8788 -0.4684 0.0908
vn -0.8969 -0.4126 -0.1592
vn -0.8370 -0.3420 -0.4272
vn -0.7006 -0.2570 -0.6657
vn -0.5222 -0.1751 -0.8346
vn -0.3223 -0.0962 -0.9417
vn -0.7836 -0.4964 0.3737
vn -0.8759 -0.4578 0.1521
vn -0.8833 -0.4579 -0.1008
vn -0.8424 -0.3885 -0.3734
vn -0.7195 -0.3013 -0.6257
vn -0.5476 -0.2183 -0.8077
vn -0.3506 -0.1399 -0.9260
vn -0.1432 -0.0641 -0.9876
vn -0.8373 -0.5049 0.2096
vn -0.8844 -0.4652 -0.0383
vn -0.8438 -0.4306 -0.3203
vn -0.7357 -0.3397 -0.5860
vn -0.5710 -0.2553 -0.7802
vn -0.3772 -0.1781 -0.9089
vn -0.1722 -0.1046 -0.9795
vn 0.0385 -0.0338 -0.9987
vn -0.8539 -0.5193 0.0336
vn -0.8456 -0.4675 -0.2577
vn -0.7496 -0.3686 -0.5498
vn -0.5924 -0.2830 -0.7543
vn -0.4024 -0.2086 -0.8914
vn -0.1987 -0.1387 -0.9702
vn 0.0058 -0.0702 -0.9975
vn 0.2181 -0.0123 -0.9758
vn -0.8369 -0.5097 -0.1997
vn -0.7639 -0.3784 -0.5228
vn -0.6123 -0.2954 -0.7334
vn -0.4266 -0.2280 -0.8752
vn -0.2245 -0.1646 -0.9605
vn -0.0206 -0.1016 -0.9946
vn 0.1805 -0.0381 -0.9828
vn 0.3942 -0.0010 -0.9190
vn -0.7871 -0.3960 -0.4730
vn -0.6482 -0.3065 -0.6971
vn -0.4716 -0.2437 -0.8475
vn -0.2753 -0.1852 -0.9433
vn -0.0735 -0.1266 -0.9892
vn 0.1237 -0.0666 -0.9901
vn 0.3273 -0.0093 -0.9449
vn 0.5423 0.0006 -0.8402
vn 0.1124 -0.1724 0.9786
vn 0.6535 -0.5693 -0.4988
vn -0.0550 -0.1612 0.9854
vn 0.6692 -0.5705 -0.4762
vn -0.2632 -0.1365 0.9550
vn 0.7488 -0.5711 -0.3363
vn -0.4493 -0.1088 0.8868
vn 0.7996 -0.5717 -0.1836
vn -0.6111 -0.0794 0.7875
vn 0.8198 -0.5722 -0.0241
vn -0.7466 -0.0490 0.6635
vn 0.8085 -0.5725 0.1363
vn -0.8567 -0.0174 0.5154
vn 0.7662 -0.5727 0.2913
vn -0.9370 -0.0003 0.3493
vn 0.6947 -0.5728 0.4352
vn -0.9856 0.0006 0.1688
vn 0.5965 -0.5727 0.5624
vn -0.9997 -0.0000 -0.0249
vn 0.4644 -0.5678 0.6797
vn -0.9978 -0.0000 -0.0663
vn 0.2896 -0.5348 0.7938
vn 0.6878 -0.5456 -0.4788
vn 0.8563 -0.4132 -0.3099
vn 0.8635 -0.4993 -0.0707
vn 0.8761 -0.4543 0.1615
vn 0.8247 -0.4048 0.3950
vn 0.7091 -0.3506 0.6118
vn 0.5345 -0.2916 0.7933
vn 0.3120 -0.2276 0.9224
vn 0.7973 -0.4880 -0.3552
vn 0.8813 -0.4506 -0.1424
vn 0.8695 -0.4856 0.0901
vn 0.8389 -0.4391 0.3216
vn 0.7449 -0.3879 0.5427
vn 0.5905 -0.3318 0.7357
vn 0.3839 -0.2704 0.8829
vn 0.1390 -0.2030 0.9693
vn 0.8506 -0.4893 -0.1924
vn 0.8915 -0.4518 0.0331
vn 0.8352 -0.4848 0.2597
vn 0.7593 -0.4374 0.4818
vn 0.6223 -0.3849 0.6815
vn 0.4301 -0.3266 0.8416
vn 0.1930 -0.2613 0.9458
vn -0.0717 -0.1866 0.9798
vn 0.8709 -0.4909 -0.0225
vn 0.8668 -0.4533 0.2076
vn 0.7679 -0.4832 0.4205
vn 0.6485 -0.4345 0.6250
vn 0.4718 -0.3796 0.7958
vn 0.2447 -0.3170 0.9163
vn -0.0205 -0.2428 0.9699
vn -0.2815 -0.1586 0.9464
vn 0.8572 -0.4933 0.1482
vn 0.8076 -0.4556 0.3744
vn 0.6692 -0.4803 0.5670
vn 0.5087 -0.4291 0.7464
vn 0.2936 -0.3695 0.8816
vn 0.0304 -0.2964 0.9546
vn -0.2380 -0.2111 0.9481
vn -0.4669 -0.1286 0.8749
vn 0.8096 -0.4968 0.3127
vn 0.7152 -0.4590 0.5271
vn 0.5407 -0.4750 0.6943
vn 0.3391 -0.4187 0.8424
vn 0.0804 -0.3469 0.9344
vn -0.1939 -0.2603 0.9459
vn -0.4313 -0.1768 0.8847
vn -0.6277 -0.0968 0.7724
vn 0.7294 -0.5024 0.4643
vn 0.5911 -0.4643 0.6596
vn 0.3809 -0.4645 0.7995
vn 0.1286 -0.3940 0.9101
vn -0.1502 -0.3051 0.9404
vn -0.3953 -0.2205 0.8917
vn -0.5996 -0.1409 0.7878
vn -0.7614 -0.0644 0.6451
vn 0.6189 -0.5115 0.5961
vn 0.4344 -0.4718 0.7673
vn 0.1740 -0.4366 0.8827
vn -0.1084 -0.3440 0.9327
vn -0.3599 -0.2579 0.8966
vn -0.5711 -0.1794 0.8010
vn -0.7392 -0.1050 0.6652
vn -0.8671 -0.0338 0.4970
vn 0.4788 -0.5262 0.7028
vn 0.2277 -0.4739 0.8506
vn -0.0707 -0.3733 0.9250
vn -0.3269 -0.2860 0.9008
vn -0.5431 -0.2101 0.8129
vn -0.7174 -0.1392 0.6826
vn -0.8488 -0.0703 0.5241
vn -0.9429 -0.0123 0.3327
vn 0.2719 -0.5164 0.8120
vn -0.0408 -0.3832 0.9228
vn -0.2990 -0.2986 0.9063
vn -0.5169 -0.2298 0.8246
vn -0.6956 -0.1653 0.6992
vn -0.8323 -0.1017 0.5449
vn -0.9289 -0.0380 0.3683
vn -0.9882 -0.0010 0.1533
vn 0.0132 -0.4011 0.9160
vn -0.2498 -0.3098 0.9174
vn -0.4700 -0.2457 0.8478
vn -0.6545 -0.1861 0.7328
vn -0.7999 -0.1268 0.5866
vn -0.9049 -0.0665 0.4203
vn -0.9746 -0.0093 0.2238
vn -0.9999 0.0006 -0.0141
vt 1.000000 0.888889
vt 1.000000 1.000000
vt 0.900000 1.000000
vt 0.900000 0.888889
vt 0.800000 1.000000
vt 0.800000 0.888889
vt 0.700000 1.000000
vt 0.700000 0.888889
vt 0.600000 1.000000
vt 0.600000 0.888889
vt 0.500000 1.000000
vt 0.500000 0.888889
vt 0.400000 1.000000
vt 0.400000 0.888889
vt 0.300000 1.000000
vt 0.300000 0.888889
vt 0.200000 1.000000
vt 0.200000 0.888889
vt 0.100000 1.000000
vt 0.100000 0.888889
vt 0.000000 1.000000
vt 0.000000 0.888889
vt 0.100000 0.000000
vt 0.100000 0.111111
vt 0.000000 0.111111
vt 0.000000 0.000000
vt 0.100000 0.222222
vt 0.000000 0.222222
vt 0.100000 0.333333
vt 0.000000 0.333333
vt 0.100000 0.444444
vt 0.000000 0.444444
vt 0.100000 0.555556
vt 0.000000 0.555556
vt 0.100000 0.666667
vt 0.000000 0.666667
vt 0.100000 0.777778
vt 0.000000 0.777778
vt 0.200000 0.000000
vt 0.200000 0.111111
vt 0.200000 0.222222
vt 0.200000 0.333333
vt 0.200000 0.444444
vt 0.200000 0.555556
vt 0.200000 0.666667
vt 0.200000 0.777778
vt 0.300000 0.000000
vt 0.300000 0.111111
vt 0.300000 0.222222
vt 0.300000 0.333333
vt 0.300000 0.444444
vt 0.300000 0.555556
vt 0.300000 0.666667
vt 0.300000 0.777778
vt 0.400000 0.000000
vt 0.400000 0.111111
vt 0.400000 0.222222
vt 0.400000 0.333333
vt 0.400000 0.444444
vt 0.400000 0.555556
vt 0.400000 0.666667
vt 0.400000 0.777778
vt 0.500000 0.000000
vt 0.500000 0.111111
vt 0.500000 0.222222
vt 0.500000 0.333333
vt 0.500000 0.444444
vt 0.500000 0.555556
vt 0.500000 0.666667
vt 0.500000 0.777778
vt 0.600000 0.000000
vt 0.600000 0.111111
vt 0.600000 0.222222
vt 0.600000 0.333333
vt 0.600000 0.444444
vt 0.600000 0.555556
vt 0.600000 0.666667
vt 0.600000 0.777778
vt 0.700000 0.000000
vt 0.700000 0.111111
vt 0.700000 0.222222
vt 0.700000 0.333333
vt 0.700000 0.444444
vt 0.700000 0.555556
vt 0.700000 0.666667
vt 0.700000 0.777778
vt 0.800000 0.000000
vt 0.800000 0.111111
vt 0.800000 0.222222
vt 0.800000 0.333333
vt 0.800000 0.444444
vt 0.800000 0.555556
vt 0.800000 0.666667
vt 0.800000 0.777778
vt 0.900000 0.000000
vt 0.900000 0.111111
vt 0.900000 0.222222
vt 0.900000 0.333333
vt 0.900000 0.444444
vt 0.900000 0.555556
vt 0.900000 0.666667
vt 0.900000 0.777778
vt 1.000000 0.000000
vt 1.000000 0.111111
vt 1.000000 0.222222
vt 1.000000 0.333333
vt 1.000000 0.444444
vt 1.000000 0.555556
vt 1.000000 0.666667
vt 1.000000 0.777778
s 1
f 23/1/23 2/2/2 4/3/4 31/4/31
f 31/4/31 4/3/4 6/5/6 39/6/39
f 39/6/39 6/5/6 8/7/8 47/8/47
f 47/8/47 8/7/8 10/9/10 55/10/55
f 55/10/55 10/9/10 12/11/12 63/12/63
f 63/12/63 12/11/12 14/13/14 71/14/71
f 71/14/71 14/13/14 16/15/16 79/16/79
f 79/16/79 16/15/16 18/17/18 87/18/87
f 87/18/87 18/17/18 20/19/20 95/20/95
f 95/20/95 20/19/20 22/21/22 103/22/103
f 19/23/19 102/24/102 110/25/110 21/26/21
f 102/24/102 101/27/101 109/28/109 110/25/110
f 101/27/101 100/29/100 108/30/108 109/28/109
f 100/29/100 99/31/99 107/32/107 108/30/108
f 99/31/99 98/33/98 106/34/106 107/32/107
f 98/33/98 97/35/97 105/36/105 106/34/106
f 97/35/97 96/37/96 104/38/104 105/36/105
f 96/37/96 95/20/95 103/22/103 104/38/104
f 17/39/17 94/40/94 102/24/102 19/23/19
f 94/40/94 93/41/93 101/27/101 102/24/102
f 93/41/93 92/42/92 100/29/100 101/27/101
f 92/42/92 91/43/91 99/31/99 100/29/100
f 91/43/91 90/44/90 98/33/98 99/31/99
f 90/44/90 89/45/89 97/35/97 98/33/98
f 89/45/89 88/46/88 96/37/96 97/35/97
f 88/46/88 87/18/87 95/20/95 96/37/96
f 15/47/15 86/48/86 94/40/94 17/39/17
f 86/48/86 85/49/85 93/41/93 94/40/94
f 85/49/85 84/50/84 92/42/92 93/41/93
f 84/50/84 83/51/83 91/43/91 92/42/92
f 83/51/83 82/52/82 90/44/90 91/43/91
f 82/52/82 81/53/81 89/45/89 90/44/90
f 81/53/81 80/54/80 88/46/88 89/45/89
f 80/54/80 79/16/79 87/18/87 88/46/88
f 13/55/13 78/56/78 86/48/86 15/47/15
f 78/56/78 77/57/77 85/49/85 86/48/86
f 77/57/77 76/58/76 84/50/84 85/49/85
f 76/58/76 75/59/75 83/51/83 84/50/84
f 75/59/75 74/60/74 82/52/82 83/51/83
f 74/60/74 73/61/73 81/53/81 82/52/82
f 73/61/73 72/62/72 80/54/80 81/53/81
f 72/62/72 71/14/71 79/16/79 80/54/80
f 11/63/11 70/64/70 78/56/78 13/55/13
f 70/64/70 69/65/69 77/57/77 78/56/78
f 69/65/69 68/66/68 76/58/76 77/57/77
f 68/66/68 67/67/67 75/59/75 76/58/76
f 67/67/67 66/68/66 74/60/74 75/59/75
f 66/68/66 65/69/65 73/61/73 74/60/74
f 65/69/65 64/70/64 72/62/72 73/61/73
f 64/70/64 63/12/63 71/14/71 72/62/72
f 9/71/9 62/72/62 70/64/70 11/63/11
f 62/72/62 61/73/61 69/65/69 70/64/70
f 61/73/61 60/74/60 68/66/68 69/65/69
f 60/74/60 59/75/59 67/67/67 68/66/68
f 59/75/59 58/76/58 66/68/66 67/67/67
f 58/76/58 57/77/57 65/69/65 66/68/66
f 57/77/57 56/78/56 64/70/64 65/69/65
f 56/78/56 55/10/55 63/12/63 64/70/64
f 7/79/7 54/80/54 62/72/62 9/71/9
f 54/80/54 53/81/53 61/73/61 62/72/62
f 53/81/53 52/82/52 60/74/60 61/73/61
f 52/82/52 51/83/51 59/75/59 60/74/60
f 51/83/51 50/84/50 58/76/58 59/75/59
f 50/84/50 49/85/49 57/77/57 58/76/58
f 49/85/49 48/86/48 56/78/56 57/77/57
f 48/86/48 47/8/47 55/10/55 56/78/56
f 5/87/5 46/88/46 54/80/54 7/79/7
f 46/88/46 45/89/45 53/81/53 54/80/54
f 45/89/45 44/90/44 52/82/52 53/81/53
f 44/90/44 43/91/43 51/83/51 52/82/52
f 43/91/43 42/92/42 50/84/50 51/83/51
f 42/92/42 41/93/41 49/85/49 50/84/50
f 41/93/41 40/94/40 48/86/48 49/85/49
f 40/94/40 39/6/39 47/8/47 48/86/48
f 3/95/3 38/96/38 46/88/46 5/87/5
f 38/96/38 37/97/37 45/89/45 46/88/46
f 37/97/37 36/98/36 44/90/44 45/89/45
f 36/98/36 35/99/35 43/91/43 44/90/44
f 35/99/35 34/100/34 42/92/42 43/91/43
f 34/100/34 33/101/33 41/93/41 42/92/42
f 33/101/33 32/102/32 40/94/40 41/93/41
f 32/102/32 31/4/31 39/6/39 40/94/40
f 1/103/1 30/104/30 38/96/38 3/95/3
f 30/104/30 29/105/29 37/97/37 38/96/38
f 29/105/29 28/106/28 36/98/36 37/97/37
f 28/106/28 27/107/27 35/99/35 36/98/36
f 27/107/27 26/108/26 34/100/34 35/99/35
f 26/108/26 25/109/25 33/101/33 34/100/34
f 25/109/25 24/110/24 32/102/32 33/101/33
f 24/110/24 23/1/23 31/4/31 32/102/32
f 133/1/133 112/2/112 114/3/114 141/4/141
f 141/4/141 114/3/114 116/5/116 149/6/149
f 149/6/149 116/5/116 118/7/118 157/8/157
f 157/8/157 118/7/118 120/9/120 165/10/165
f 165/10/165 120/9/120 122/11/122 173/12/173
f 173/12/173 122/11/122 124/13/124 181/14/181
f 181/14/181 124/13/124 126/15/126 189/16/189
f 189/16/189 126/15/126 128/17/128 197/18/197
f 197/18/197 128/17/128 130/19/130 205/20/205
f 205/20/205 130/19/130 132/21/132 213/22/213
f 129/23/129 212/24/212 220/25/220 131/26/131
f 212/24/212 211/27/211 219/28/219 220/25/220
f 211/27/211 210/29/210 218/30/218 219/28/219
f 210/29/210 209/31/209 217/32/217 218/30/218
f 209/31/209 208/33/208 216/34/216 217/32/217
f 208/33/208 207/35/207 215/36/215 216/34/216
f 207/35/207 206/37/206 214/38/214 215/36/215
f 206/37/206 205/20/205 213/22/213 214/38/214
f 127/39/127 204/40/204 212/24/212 129/23/129
f 204/40/204 203/41/203 211/27/211 212/24/212
f 203/41/203 202/42/202 210/29/210 211/27/211
f 202/42/202 201/43/201 209/31/209 210/29/210
f 201/43/201 200/44/200 208/33/208 209/31/209
f 200/44/200 199/45/199 207/35/207 208/33/208
f 199/45/199 198/46/198 206/37/206 207/35/207
f 198/46/198 197/18/197 205/20/205 206/37/206
f 125/47/125 196/48/196 204/40/204 127/39/127
f 196/48/196 195/49/195 203/41/203 204/40/204
f 195/49/195 194/50/194 202/42/202 203/41/203
f 194/50/194 193/51/193 201/43/201 202/42/202
f 193/51/193 192/52/192 200/44/200 201/43/201
f 192/52/192 191/53/191 199/45/199 200/44/200
f 191/53/191 190/54/190 198/46/198 199/45/199
f 190/54/190 189/16/189 197/18/197 198/46/198
f 123/55/123 188/56/188 196/48/196 125/47/125
f 188/56/188 187/57/187 195/49/195 196/48/196
f 187/57/187 186/58/186 194/50/194 195/49/195
f 186/58/186 185/59/185 193/51/193 194/50/194
f 185/59/185 184/60/184 192/52/192 193/51/193
f 184/60/184 183/61/183 191/53/191 192/52/192
f 183/61/183 182/62/182 190/54/190 191/53/191
f 182/62/182 181/14/181 189/16/189 190/54/190
f 121/63/121 180/64/180 188/56/188 123/55/123
f 180/64/180 179/65/179 187/57/187 188/56/188
f 179/65/179 178/66/178 186/58/186 187/57/187
f 178/66/178 177/67/177 185/59/185 186/58/186
f 177/67/177 176/68/176 184/60/184 185/59/185
f 176/68/176 175/69/175 183/61/183 184/60/184
f 175/69/175 174/70/174 182/62/182 183/61/183
f 174/70/174 173/12/173 181/14/181 182/62/182
f 119/71/119 172/72/172 180/64/180 121/63/121
f 172/72/172 171/73/171 179/65/179 180/64/180
f 171/73/171 170/74/170 178/66/178 179/65/179
f 170/74/170 169/75/169 177/67/177 178/66/178
f 169/75/169 168/76/168 176/68/176 177/67/177
f 168/76/168 167/77/167 175/69/175 176/68/176
f 167/77/167 166/78/166 174/70/174 175/69/175
f 166/78/166 165/10/165 173/12/173 174/70/174
f 117/79/117 164/80/164 172/72/172 119/71/119
f 164/80/164 163/81/163 171/73/171 172/72/172
f 163/81/163 162/82/162 170/74/170 171/73/171
f 162/82/162 161/83/161 169/75/169 170/74/170
f 161/83/161 160/84/160 168/76/168 169/75/169
f 160/84/160 159/85/159 167/77/167 168/76/168
f 159/85/159 158/86/158 166/78/166 167/77/167
f 158/86/158 157/8/157 165/10/165 166/78/166
f 115/87/115 156/88/156 164/80/164 117/79/117
f 156/88/156 155/89/155 163/81/163 164/80/164
f 155/89/155 154/90/154 162/82/162 163/81/163
f 154/90/154 153/91/153 161/83/161 162/82/162
f 153/91/153 152/92/152 160/84/160 161/83/161
f 152/92/152 151/93/151 159/85/159 160/84/160
f 151/93/151 150/94/150 158/86/158 159/85/159
f 150/94/150 149/6/149 157/8/157 158/86/158
f 113/95/113 148/96/148 156/88/156 115/87/115
f 148/96/148 147/97/147 155/89/155 156/88/156
f 147/97/147 146/98/146 154/90/154 155/89/155
f 146/98/146 145/99/145 153/91/153 154/90/154
f 145/99/145 144/100/144 152/92/152 153/91/153
f 144/100/144 143/101/143 151/93/151 152/92/152
f 143/101/143 142/102/142 150/94/150 151/93/151
f 142/102/142 141/4/141 149/6/149 150/94/150
f 111/103/111 140/104/140 148/96/148 113/95/113
f 140/104/140 139/105/139 147/97/147 148/96/148
f 139/105/139 138/106/138 146/98/146 147/97/147
f 138/106/138 137/107/137 145/99/145 146/98/146
f 137/107/137 136/108/136 144/100/144 145/99/145
f 136/108/136 135/109/135 143/101/143 144/100/144
f 135/109/135 134/110/134 142/102/142 143/101/143
f 134/110/134 133/1/133 141/4/141 142/102/142
f 243/1/243 222/2/222 224/3/224 251/4/251
f 251/4/251 224/3/224 226/5/226 259/6/259
f 259/6/259 226/5/226 228/7/228 267/8/267
f 267/8/267 228/7/228 230/9/230 275/10/275
f 275/10/275 230/9/230 232/11/232 283/12/283
f 283/12/283 232/11/232 234/13/234 291/14/291
f 291/14/291 234/13/234 236/15/236 299/16/299
f 299/16/299 236/15/236 238/17/238 307/18/307
f 307/18/307 238/17/238 240/19/240 315/20/315
f 315/20/315 240/19/240 242/21/242 323/22/323
f 239/23/239 322/24/322 330/25/330 241/26/241
f 322/24/322 321/27/321 329/28/329 330/25/330
f 321/27/321 320/29/320 328/30/328 329/28/329
f 320/29/320 319/31/319 327/32/327 328/30/328
f 319/31/319 318/33/318 326/34/326 327/32/327
f 318/33/318 317/35/317 325/36/325 326/34/326
f 317/35/317 316/37/316 324/38/324 325/36/325
f 316/37/316 315/20/315 323/22/323 324/38/324
f 237/39/237 314/40/314 322/24/322 239/23/239
f 314/40/314 313/41/313 321/27/321 322/24/322
f 313/41/313 312/42/312 320/29/320 321/27/321
f 312/42/312 311/43/311 319/31/319 320/29/320
f 311/43/311 310/44/310 318/33/318 319/31/319
f 310/44/310 309/45/309 317/35/317 318/33/318
f 309/45/309 308/46/308 316/37/316 317/35/317
f 308/46/308 307/18/307 315/20/315 316/37/316
f 235/47/235 306/48/306 314/40/314 237/39/237
f 306/48/306 305/49/305 313/41/313 314/40/314
f 305/49/305 304/50/304 312/42/312 313/41/313
f 304/50/304 303/51/303 311/43/311 312/42/312
f 303/51/303 302/52/302 310/44/310 311/43/311
f 302/52/302 301/53/301 309/45/309 310/44/310
f 301/53/301 300/54/300 308/46/308 309/45/309
f 300/54/300 299/16/299 307/18/307 308/46/308
f 233/55/233 298/56/298 306/48/306 235/47/235
f 298/56/298 297/57/297 305/49/305 306/48/306
f 297/57/297 296/58/296 304/50/304 305/49/305
f 296/58/296 295/59/295 303/51/303 304/50/304
f 295/59/295 294/60/294 302/52/302 303/51/303
f 294/60/294 293/61/293 301/53/301 302/52/302
f 293/61/293 292/62/292 300/54/300 301/53/301
f 292/62/292 291/14/291 299/16/299 300/54/300
f 231/63/231 290/64/290 298/56/298 233/55/233
f 290/64/290 289/65/289 297/57/297 298/56/298
f 289/65/289 288/66/288 296/58/296 297/57/297
f 288/66/288 287/67/287 295/59/295 296/58/296
f 287/67/287 286/68/286 294/60/294 295/59/295
f 286/68/286 285/69/285 293/61/293 294/60/294
f 285/69/285 284/70/284 292/62/292 293/61/293
f 284/70/284 283/12/283 291/14/291 292/62/292
f 229/71/229 282/72/282 290/64/290 231/63/231
f 282/72/282 281/73/281 289/65/289 290/64/290
f 281/73/281 280/74/280 288/66/288 289/65/289
f 280/74/280 279/75/279 287/67/287 288/66/288
f 279/75/279 278/76/278 286/68/286 287/67/287
f 278/76/278 277/77/277 285/69/285 286/68/286
f 277/77/277 276/78/276 284/70/284 285/69/285
f 276/78/276 275/10/275 283/12/283 284/70/284
f 227/79/227 274/80/274 282/72/282 229/71/229
f 274/80/274 273/81/273 281/73/281 282/72/282
f 273/81/273 272/82/272 280/74/280 281/73/281
f 272/82/272 271/83/271 279/75/279 280/74/280
f 271/83/271 270/84/270 278/76/278 279/75/279
f 270/84/270 269/85/269 277/77/277 278/76/278
f 269/85/269 268/86/268 276/78/276 277/77/277
f 268/86/268 267/8/267 275/10/275 276/78/276
f 225/87/225 266/88/266 274/80/274 227/79/227
f 266/88/266 265/89/265 273/81/273 274/80/274
f 265/89/265 264/90/264 272/82/272 273/81/273
f 264/90/264 263/91/263 271/83/271 272/82/272
f 263/91/263 262/92/262 270/84/270 271/83/271
f 262/92/262 261/93/261 269/85/269 270/84/270
f 261/93/261 260/94/260 268/86/268 269/85/269
f 260/94/260 259/6/259 267/8/267 268/86/268
f 223/95/223 258/96/258 266/88/266 225/87/225
f 258/96/258 257/97/257 265/89/265 266/88/266
f 257/97/257 256/98/256 264/90/264 265/89/265
f 256/98/256 255/99/255 263/91/263 264/90/264
f 255/99/255 254/100/254 262/92/262 263/91/263
f 254/100/254 253/101/253 261/93/261 262/92/262
f 253/101/253 252/102/252 260/94/260 261/93/261
f 252/102/252 251/4/251 259/6/259 260/94/260
f 221/103/221 250/104/250 258/96/258 223/95/223
f 250/104/250 249/105/249 257/97/257 258/96/258
f 249/105/249 248/106/248 256/98/256 257/97/257
f 248/106/248 247/107/247 255/99/255 256/98/256
f 247/107/247 246/108/246 254/100/254 255/99/255
f 246/108/246 245/109/245 253/101/253 254/100/254
f 245/109/245 244/110/244 252/102/252 253/101/253
f 244/110/244 243/1/243 251/4/251 252/102/252
f 353/1/353 332/2/332 334/3/334 361/4/361
f 361/4/361 334/3/334 336/5/336 369/6/369
f 369/6/369 336/5/336 338/7/338 377/8/377
f 377/8/377 338/7/338 340/9/340 385/10/385
f 385/10/385 340/9/340 342/11/342 393/12/393
f 393/12/393 342/11/342 344/13/344 401/14/401
f 401/14/401 344/13/344 346/15/346 409/16/409
f 409/16/409 346/15/346 348/17/348 417/18/417
f 417/18/417 348/17/348 350/19/350 425/20/425
f 425/20/425 350/19/350 352/21/352 433/22/433
f 349/23/349 432/24/432 440/25/440 351/26/351
f 432/24/432 431/27/431 439/28/439 440/25/440
f 431/27/431 430/29/430 438/30/438 439/28/439
f 430/29/430 429/31/429 437/32/437 438/30/438
f 429/31/429 428/33/428 436/34/436 437/32/437
f 428/33/428 427/35/427 435/36/435 436/34/436
f 427/35/427 426/37/426 434/38/434 435/36/435
f 426/37/426 425/20/425 433/22/433 434/38/434
f 347/39/347 424/40/424 432/24/432 349/23/349
f 424/40/424 423/41/423 431/27/431 432/24/432
f 423/41/423 422/42/422 430/29/430 431/27/431
f 422/42/422 421/43/421 429/31/429 430/29/430
f 421/43/421 420/44/420 428/33/428 429/31/429
f 420/44/420 419/45/419 427/35/427 428/33/428
f 419/45/419 418/46/418 426/37/426 427/35/427
f 418/46/418 417/18/417 425/20/425 426/37/426
f 345/47/345 416/48/416 424/40/424 347/39/347
f 416/48/416 415/49/415 423/41/423 424/40/424
f 415/49/415 414/50/414 422/42/422 423/41/423
f 414/50/414 413/51/413 421/43/421 422/42/422
f 413/51/413 412/52/412 420/44/420 421/43/421
f 412/52/412 411/53/411 419/45/419 420/44/420
f 411/53/411 410/54/410 418/46/418 419/45/419
f 410/54/410 409/16/409 417/18/417 418/46/418
f 343/55/343 408/56/408 416/48/416 345/47/345
f 408/56/408 407/57/407 415/49/415 416/48/416
f 407/57/407 406/58/406 414/50/414 415/49/415
f 406/58/406 405/59/405 413/51/413 414/50/414
f 405/59/405 404/60/404 412/52/412 413/51/413
f 404/60/404 403/61/403 411/53/411 412/52/412
f 403/61/403 402/62/402 410/54/410 411/53/411
f 402/62/402 401/14/401 409/16/409 410/54/410
f 341/63/341 400/64/400 408/56/408 343/55/343
f 400/64/400 399/65/399 407/57/407 408/56/408
f 399/65/399 398/66/398 406/58/406 407/57/407
f 398/66/398 397/67/397 405/59/405 406/58/406
f 397/67/397 396/68/396 404/60/404 405/59/405
f 396/68/396 395/69/395 403/61/403 404/60/404
f 395/69/395 394/70/394 402/62/402 403/61/403
f 394/70/394 393/12/393 401/14/401 402/62/402
f 339/71/339 392/72/392 400/64/400 341/63/341
f 392/72/392 391/73/391 399/65/399 400/64/400
f 391/73/391 390/74/390 398/66/398 399/65/399
f 390/74/390 389/75/389 397/67/397 398/66/398
f 389/75/389 388/76/388 396/68/396 397/67/397
f 388/76/388 387/77/387 395/69/395 396/68/396
f 387/77/387 386/78/386 394/70/394 395/69/395
f 386/78/386 385/10/385 393/12/393 394/70/394
f 337/79/337 384/80/384 392/72/392 339/71/339
f 384/80/384 383/81/383 391/73/391 392/72/392
f 383/81/383 382/82/382 390/74/390 391/73/391
f 382/82/382 381/83/381 389/75/389 390/74/390
f 381/83/381 380/84/380 388/76/388 389/75/389
f 380/84/380 379/85/379 387/77/387 388/76/388
f 379/85/379 378/86/378 386/78/386 387/77/387
f 378/86/378 377/8/377 385/10/385 386/78/386
f 335/87/335 376/88/376 384/80/384 337/79/337
f 376/88/376 375/89/375 383/81/383 384/80/384
f 375/89/375 374/90/374 382/82/382 383/81/383
f 374/90/374 373/91/373 381/83/381 382/82/382
f 373/91/373 372/92/372 380/84/380 381/83/381
f 372/92/372 371/93/371 379/85/379 380/84/380
f 371/93/371 370/94/370 378/86/378 379/85/379
f 370/94/370 369/6/369 377/8/377 378/86/378
f 333/95/333 368/96/368 376/88/376 335/87/335
f 368/96/368 367/97/367 375/89/375 376/88/376
f 367/97/367 366/98/366 374/90/374 375/89/375
f 366/98/366 365/99/365 373/91/373 374/90/374
f 365/99/365 364/100/364 372/92/372 373/91/373
f 364/100/364 363/101/363 371/93/371 372/92/372
f 363/101/363 362/102/362 370/94/370 371/93/371
f 362/102/362 361/4/361 369/6/369 370/94/370
f 331/103/331 360/104/360 368/96/368 333/95/333
f 360/104/360 359/105/359 367/97/367 368/96/368
f 359/105/359 358/106/358 366/98/366 367/97/367
f 358/106/358 357/107/357 365/99/365 366/98/366
f 357/107/357 356/108/356 364/100/364 365/99/365
f 356/108/356 355/109/355 363/101/363 364/100/364
f 355/109/355 354/110/354 362/102/362 363/101/363
f 354/110/354 353/1/353 361/4/361 362/102/362
f 463/1/463 442/2/442 444/3/444 471/4/471
f 471/4/471 444/3/444 446/5/446 479/6/479
f 479/6/479 446/5/446 448/7/448 487/8/487
f 487/8/487 448/7/448 450/9/450 495/10/495
f 495/10/495 450/9/450 452/11/452 503/12/503
f 503/12/503 452/11/452 454/13/454 511/14/511
f 511/14/511 454/13/454 456/15/456 519/16/519
f 519/16/519 456/15/456 458/17/458 527/18/527
f 527/18/527 458/17/458 460/19/460 535/20/535
f 535/20/535 460/19/460 462/21/462 543/22/543
f 459/23/459 542/24/542 550/25/550 461/26/461
f 542/24/542 541/27/541 549/28/549 550/25/550
f 541/27/541 540/29/540 548/30/548 549/28/549
f 540/29/540 539/31/539 547/32/547 548/30/548
f 539/31/539 538/33/538 546/34/546 547/32/547
f 538/33/538 537/35/537 545/36/545 546/34/546
f 537/35/537 536/37/536 544/38/544 545/36/545
f 536/37/536 535/20/535 543/22/543 544/38/544
f 457/39/457 534/40/534 542/24/542 459/23/459
f 534/40/534 533/41/533 541/27/541 542/24/542
f 533/41/533 532/42/532 540/29/540 541/27/541
f 532/42/532 531/43/531 539/31/539 540/29/540
f 531/43/531 530/44/530 538/33/538 539/31/539
f 530/44/530 529/45/529 537/35/537 538/33/538
f 529/45/529 528/46/528 536/37/536 537/35/537
f 528/46/528 527/18/527 535/20/535 536/37/536
f 455/47/455 526/48/526 534/40/534 457/39/457
f 526/48/526 525/49/525 533/41/533 534/40/534
f 525/49/525 524/50/524 532/42/532 533/41/533
f 524/50/524 523/51/523 531/43/531 532/42/532
f 523/51/523 522/52/522 530/44/530 531/43/531
f 522/52/522 521/53/521 529/45/529 530/44/530
f 521/53/521 520/54/520 528/46/528 529/45/529
f 520/54/520 519/16/519 527/18/527 528/46/528
f 453/55/453 518/56/518 526/48/526 455/47/455
f 518/56/518 517/57/517 525/49/525 526/48/526
f 517/57/517 516/58/516 524/50/524 525/49/525
f 516/58/516 515/59/515 523/51/523 524/50/524
f 515/59/515 514/60/514 522/52/522 523/51/523
f 514/60/514 513/61/513 521/53/521 522/52/522
f 513/61/513 512/62/512 520/54/520 521/53/521
f 512/62/512 511/14/511 519/16/519 520/54/520
f 451/63/451 510/64/510 518/56/518 453/55/453
f 510/64/510 509/65/509 517/57/517 518/56/518
f 509/65/509 508/66/508 516/58/516 517/57/517
f 508/66/508 507/67/507 515/59/515 516/58/516
f 507/67/507 506/68/506 514/60/514 515/59/515
f 506/68/506 505/69/505 513/61/513 514/60/514
f 505/69/505 504/70/504 512/62/512 513/61/513
f 504/70/504 503/12/503 511/14/511 512/62/512
f 449/71/449 502/72/502 510/64/510 451/63/451
f 502/72/502 501/73/501 509/65/509 510/64/510
f 501/73/501 500/74/500 508/66/508 509/65/509
f 500/74/500 499/75/499 507/67/507 508/66/508
f 499/75/499 498/76/498 506/68/506 507/67/507
f 498/76/498 497/77/497 505/69/505 506/68/506
f 497/77/497 496/78/496 504/70/504 505/69/505
f 496/78/496 495/10/495 503/12/503 504/70/504
f 447/79/447 494/80/494 502/72/502 449/71/449
f 494/80/494 493/81/493 501/73/501 502/72/502
f 493/81/493 492/82/492 500/74/500 501/73/501
f 492/82/492 491/83/491 499/75/499 500/74/500
f 491/83/491 490/84/490 498/76/498 499/75/499
f 490/84/490 489/85/489 497/77/497 498/76/498
f 489/85/489 488/86/488 496/78/496 497/77/497
f 488/86/488 487/8/487 495/10/495 496/78/496
f 445/87/445 486/88/486 494/80/494 447/79/447
f 486/88/486 485/89/485 493/81/493 494/80/494
f 485/89/485 484/90/484 492/82/492 493/81/493
f 484/90/484 483/91/483 491/83/491 492/82/492
f 483/91/483 482/92/482 490/84/490 491/83/491
f 482/92/482 481/93/481 489/85/489 490/84/490
f 481/93/481 480/94/480 488/86/488 489/85/489
f 480/94/480 479/6/479 487/8/487 488/86/488
f 443/95/443 478/96/478 486/88/486 445/87/445
f 478/96/478 477/97/477 485/89/485 486/88/486
f 477/97/477 476/98/476 484/90/484 485/89/485
f 476/98/476 475/99/475 483/91/483 484/90/484
f 475/99/475 474/100/474 482/92/482 483/91/483
f 474/100/474 473/101/473 481/93/481 482/92/482
f 473/101/473 472/102/472 480/94/480 481/93/481
f 472/102/472 471/4/471 479/6/479 480/94/480
f 441/103/441 470/104/470 478/96/478 443/95/443
f 470/104/470 469/105/469 477/97/477 478/96/478
f 469/105/469 468/106/468 476/98/476 477/97/477
f 468/106/468 467/107/467 475/99/475 476/98/476
f 467/107/467 466/108/466 474/100/474 475/99/475
f 466/108/466 465/109/465 473/101/473 474/100/474
f 465/109/465 464/110/464 472/102/472 473/101/473
f 464/110/464 463/1/463 471/4/471 472/102/472
f 573/1/573 552/2/552 554/3/554 581/4/581
f 581/4/581 554/3/554 556/5/556 589/6/589
f 589/6/589 556/5/556 558/7/558 597/8/597
f 597/8/597 558/7/558 560/9/560 605/10/605
f 605/10/605 560/9/560 562/11/562 613/12/613
f 613/12/613 562/11/562 564/13/564 621/14/621
f 621/14/621 564/13/564 566/15/566 629/16/629
f 629/16/629 566/15/566 568/17/568 637/18/637
f 637/18/637 568/17/568 570/19/570 645/20/645
f 645/20/645 570/19/570 572/21/572 653/22/653
f 569/23/569 652/24/652 660/25/660 571/26/571
f 652/24/652 651/27/651 659/28/659 660/25/660
f 651/27/651 650/29/650 658/30/658 659/28/659
f 650/29/650 649/31/649 657/32/657 658/30/658
f 649/31/649 648/33/648 656/34/656 657/32/657
f 648/33/648 647/35/647 655/36/655 656/34/656
f 647/35/647 646/37/646 654/38/654 655/36/655
f 646/37/646 645/20/645 653/22/653 654/38/654
f 567/39/567 644/40/644 652/24/652 569/23/569
f 644/40/644 643/41/643 651/27/651 652/24/652
f 643/41/643 642/42/642 650/29/650 651/27/651
f 642/42/642 641/43/641 649/31/649 650/29/650
f 641/43/641 640/44/640 648/33/648 649/31/649
f 640/44/640 639/45/639 647/35/647 648/33/648
f 639/45/639 638/46/638 646/37/646 647/35/647
f 638/46/638 637/18/637 645/20/645 646/37/646
f 565/47/565 636/48/636 644/40/644 567/39/567
f 636/48/636 635/49/635 643/41/643 644/40/644
f 635/49/635 634/50/634 642/42/642 643/41/643
f 634/50/634 633/51/633 641/43/641 642/42/642
f 633/51/633 632/52/632 640/44/640 641/43/641
f 632/52/632 631/53/631 639/45/639 640/44/640
f 631/53/631 630/54/630 638/46/638 639/45/639
f 630/54/630 629/16/629 637/18/637 638/46/638
f 563/55/563 628/56/628 636/48/636 565/47/565
f 628/56/628 627/57/627 635/49/635 636/48/636
f 627/57/627 626/58/626 634/50/634 635/49/635
f 626/58/626 625/59/625 633/51/633 634/50/634
f 625/59/625 624/60/624 632/52/632 633/51/633
f 624/60/624 623/61/623 631/53/631 632/52/632
f 623/61/623 622/62/622 630/54/630 631/53/631
f 622/62/622 621/14/621 629/16/629 630/54/630
f 561/63/561 620/64/620 628/56/628 563/55/563
f 620/64/620 619/65/619 627/57/627 628/56/628
f 619/65/619 618/66/618 626/58/626 627/57/627
f 618/66/618 617/67/617 625/59/625 626/58/626
f 617/67/617 616/68/616 624/60/624 625/59/625
f 616/68/616 615/69/615 623/61/623 624/60/624
f 615/69/615 614/70/614 622/62/622 623/61/623
f 614/70/614 613/12/613 621/14/621 622/62/622
f 559/71/559 612/72/612 620/64/620 561/63/561
f 612/72/612 611/73/611 619/65/619 620/64/620
f 611/73/611 610/74/610 618/66/618 619/65/619
f 610/74/610 609/75/609 617/67/617 618/66/618
f 609/75/609 608/76/608 616/68/616 617/67/617
f 608/76/608 607/77/607 615/69/615 616/68/616
f 607/77/607 606/78/606 614/70/614 615/69/615
f 606/78/606 605/10/605 613/12/613 614/70/614
f 557/79/557 604/80/604 612/72/612 559/71/559
f 604/80/604 603/81/603 611/73/611 612/72/612
f 603/81/603 602/82/602 610/74/610 611/73/611
f 602/82/602 601/83/601 609/75/609 610/74/610
f 601/83/601 600/84/600 608/76/608 609/75/609
f 600/84/600 599/85/599 607/77/607 608/76/608
f 599/85/599 598/86/598 606/78/606 607/77/607
f 598/86/598 597/8/597 605/10/605 606/78/606
f 555/87/555 596/88/596 604/80/604 557/79/557
f 596/88/596 595/89/595 603/81/603 604/80/604
f 595/89/595 594/90/594 602/82/602 603/81/603
f 594/90/594 593/91/593 601/83/601 602/82/602
f 593/91/593 592/92/592 600/84/600 601/83/601
f 592/92/592 591/93/591 599/85/599 600/84/600
f 591/93/591 590/94/590 598/86/598 599/85/599
f 590/94/590 589/6/589 597/8/597 598/86/598
f 553/95/553 588/96/588 596/88/596 555/87/555
f 588/96/588 587/97/587 595/89/595 596/88/596
f 587/97/587 586/98/586 594/90/594 595/89/595
f 586/98/586 585/99/585 593/91/593 594/90/594
f 585/99/585 584/100/584 592/92/592 593/91/593
f 584/100/584 583/101/583 591/93/591 592/92/592
f 583/101/583 582/102/582 590/94/590 591/93/591
f 582/102/582 581/4/581 589/6/589 590/94/590
f 551/103/551 580/104/580 588/96/588 553/95/553
f 580/104/580 579/105/579 587/97/587 588/96/588
f 579/105/579 578/106/578 586/98/586 587/97/587
f 578/106/578 577/107/577 585/99/585 586/98/586
f 577/107/577 576/108/576 584/100/584 585/99/585
f 576/108/576 575/109/575 583/101/583 584/100/584
f 575/109/575 574/110/574 582/102/582 583/101/583
f 574/110/574 573/1/573 581/4/581 582/102/582
