# Blender 4.5.1 LTS
# www.blender.org
o Plane
v 0.000000 0.000000 0.439418
v 0.000000 -0.000000 -0.439418
v -0.000000 4.465005 2.792596
v -0.000000 4.465005 -2.792596
v -0.000000 0.998874 0.755181
v -0.000000 1.983533 1.010490
v -0.000000 3.035762 1.347339
v -0.000000 3.893648 1.856747
v -0.000000 0.998874 -0.755182
v -0.000000 1.983533 -1.010490
v -0.000000 3.035762 -1.347339
v -0.000000 3.893647 -1.856748
v 0.000000 0.000000 0.263738
v 0.000000 0.000000 0.087913
v 0.000000 -0.000000 -0.087913
v 0.000000 -0.000000 -0.263738
v -0.000000 5.021307 1.953132
v -0.000000 5.302469 0.820698
v -0.000000 5.302469 -0.820699
v -0.000000 5.021307 -1.953133
v 0.000000 0.998963 -0.446257
v 0.000000 0.998963 -0.144391
v 0.000000 0.998963 0.144391
v 0.000000 0.998963 0.446257
v -0.000000 1.983112 -0.591040
v -0.000000 1.987236 -0.173579
v -0.000000 1.987236 0.173579
v -0.000000 1.983112 0.591040
v -0.000000 3.139435 -0.796019
v -0.000000 3.215386 -0.261469
v -0.000000 3.215386 0.261469
v -0.000000 3.139435 0.796018
v -0.000000 4.189841 -1.161239
v -0.000000 4.262164 -0.393538
v -0.000000 4.262164 0.393538
v -0.000000 4.189841 1.161239
v 0.439418 0.000000 -0.000000
v -0.439417 0.000000 -0.000000
v 2.792596 4.465005 -0.000000
v -2.792596 4.465005 -0.000000
v 0.755182 0.998874 -0.000000
v 1.010490 1.983533 -0.000000
v 1.347339 3.035762 -0.000000
v 1.856748 3.893648 -0.000000
v -0.755181 0.998874 -0.000000
v -1.010490 1.983533 -0.000000
v -1.347339 3.035762 -0.000000
v -1.856748 3.893647 -0.000000
v 0.263739 0.000000 -0.000000
v 0.087913 0.000000 -0.000000
v -0.087913 0.000000 -0.000000
v -0.263738 0.000000 -0.000000
v 1.953132 5.021307 -0.000000
v 0.820698 5.302469 -0.000000
v -0.820698 5.302469 -0.000000
v -1.953133 5.021306 -0.000000
v -0.446257 0.998963 -0.000000
v -0.144391 0.998963 -0.000000
v 0.144391 0.998963 -0.000000
v 0.446257 0.998963 -0.000000
v -0.591040 1.983112 -0.000000
v -0.173579 1.987236 -0.000000
v 0.173579 1.987236 -0.000000
v 0.591040 1.983112 -0.000000
v -0.796019 3.139435 -0.000000
v -0.261469 3.215386 -0.000000
v 0.261469 3.215386 -0.000000
v 0.796019 3.139435 -0.000000
v -1.161239 4.189841 -0.000000
v -0.393538 4.262164 -0.000000
v 0.393538 4.262164 -0.000000
v 1.161239 4.189841 -0.000000
vn 1.0000 -0.0000 -0.0000
vn -0.0000 -0.0000 -1.0000
vt 0.800000 0.800000
vt 1.000000 0.800000
vt 1.000000 1.000000
vt 0.800000 1.000000
vt 0.800000 0.000000
vt 1.000000 0.000000
vt 1.000000 0.200000
vt 0.800000 0.200000
vt 1.000000 0.400000
vt 0.800000 0.400000
vt 1.000000 0.600000
vt 0.800000 0.600000
vt 0.000000 0.600000
vt 0.200000 0.600000
vt 0.200000 0.800000
vt 0.000000 0.800000
vt 0.400000 0.600000
vt 0.400000 0.800000
vt 0.600000 0.600000
vt 0.600000 0.800000
vt 0.000000 0.400000
vt 0.200000 0.400000
vt 0.400000 0.400000
vt 0.600000 0.400000
vt 0.000000 0.200000
vt 0.200000 0.200000
vt 0.400000 0.200000
vt 0.600000 0.200000
vt 0.000000 0.000000
vt 0.200000 0.000000
vt 0.400000 0.000000
vt 0.600000 0.000000
vt 0.200000 1.000000
vt 0.000000 1.000000
vt 0.400000 1.000000
vt 0.600000 1.000000
s 1
f 33/1/1 12/2/1 4/3/1 20/4/1
f 16/5/1 2/6/1 9/7/1 21/8/1
f 21/8/1 9/7/1 10/9/1 25/10/1
f 25/10/1 10/9/1 11/11/1 29/12/1
f 29/12/1 11/11/1 12/2/1 33/1/1
f 7/13/1 32/14/1 36/15/1 8/16/1
f 32/14/1 31/17/1 35/18/1 36/15/1
f 31/17/1 30/19/1 34/20/1 35/18/1
f 30/19/1 29/12/1 33/1/1 34/20/1
f 6/21/1 28/22/1 32/14/1 7/13/1
f 28/22/1 27/23/1 31/17/1 32/14/1
f 27/23/1 26/24/1 30/19/1 31/17/1
f 26/24/1 25/10/1 29/12/1 30/19/1
f 5/25/1 24/26/1 28/22/1 6/21/1
f 24/26/1 23/27/1 27/23/1 28/22/1
f 23/27/1 22/28/1 26/24/1 27/23/1
f 22/28/1 21/8/1 25/10/1 26/24/1
f 1/29/1 13/30/1 24/26/1 5/25/1
f 13/30/1 14/31/1 23/27/1 24/26/1
f 14/31/1 15/32/1 22/28/1 23/27/1
f 15/32/1 16/5/1 21/8/1 22/28/1
f 8/16/1 36/15/1 17/33/1 3/34/1
f 36/15/1 35/18/1 18/35/1 17/33/1
f 35/18/1 34/20/1 19/36/1 18/35/1
f 34/20/1 33/1/1 20/4/1 19/36/1
f 69/1/2 48/2/2 40/3/2 56/4/2
f 52/5/2 38/6/2 45/7/2 57/8/2
f 57/8/2 45/7/2 46/9/2 61/10/2
f 61/10/2 46/9/2 47/11/2 65/12/2
f 65/12/2 47/11/2 48/2/2 69/1/2
f 43/13/2 68/14/2 72/15/2 44/16/2
f 68/14/2 67/17/2 71/18/2 72/15/2
f 67/17/2 66/19/2 70/20/2 71/18/2
f 66/19/2 65/12/2 69/1/2 70/20/2
f 42/21/2 64/22/2 68/14/2 43/13/2
f 64/22/2 63/23/2 67/17/2 68/14/2
f 63/23/2 62/24/2 66/19/2 67/17/2
f 62/24/2 61/10/2 65/12/2 66/19/2
f 41/25/2 60/26/2 64/22/2 42/21/2
f 60/26/2 59/27/2 63/23/2 64/22/2
f 59/27/2 58/28/2 62/24/2 63/23/2
f 58/28/2 57/8/2 61/10/2 62/24/2
f 37/29/2 49/30/2 60/26/2 41/25/2
f 49/30/2 50/31/2 59/27/2 60/26/2
f 50/31/2 51/32/2 58/28/2 59/27/2
f 51/32/2 52/5/2 57/8/2 58/28/2
f 44/16/2 72/15/2 53/33/2 39/34/2
f 72/15/2 71/18/2 54/35/2 53/33/2
f 71/18/2 70/20/2 55/36/2 54/35/2
f 70/20/2 69/1/2 56/4/2 55/36/2
