# Blender 4.5.1 LTS
# www.blender.org
o Sphere
v -0.000000 0.189149 0.555580
v -0.000000 0.562561 0.846881
v -0.000000 1.143685 1.098039
v -0.000000 1.515133 1.227120
v -0.000000 1.955657 1.457034
v -0.000000 2.979541 2.061023
v 0.038060 0.018495 0.191342
v 0.074658 0.077844 0.375330
v 0.108388 0.189149 0.544905
v 0.138495 0.349994 0.696261
v 0.165219 0.562561 0.830608
v 0.190146 0.826720 0.955925
v 0.214217 1.143685 1.076941
v 0.239399 1.515133 1.203541
v 0.284252 1.955657 1.429037
v 0.341214 2.450801 1.715400
v 0.402086 2.979541 2.021420
v 0.074658 0.018495 0.180240
v 0.146447 0.077844 0.353553
v 0.212612 0.189149 0.513290
v 0.271668 0.349994 0.655863
v 0.324088 0.562561 0.782416
v 0.372983 0.826720 0.900462
v 0.420201 1.143684 1.014455
v 0.469599 1.515133 1.133711
v 0.557582 1.955657 1.346123
v 0.669316 2.450801 1.615870
v 0.788719 2.979541 1.904137
v 0.108386 0.018495 0.162212
v 0.212608 0.077844 0.318190
v 0.308664 0.189149 0.461949
v 0.394400 0.349994 0.590262
v 0.470502 0.562561 0.704156
v 0.541489 0.826720 0.810395
v 0.610038 1.143684 0.912986
v 0.681751 1.515133 1.020312
v 0.809485 1.955657 1.211478
v 0.971696 2.450800 1.454245
v 1.145043 2.979541 1.713678
v 0.137950 0.018495 0.137950
v 0.270598 0.077844 0.270598
v 0.392855 0.189149 0.392854
v 0.501976 0.349994 0.501976
v 0.598835 0.562561 0.598835
v 0.689184 0.826720 0.689184
v 0.776431 1.143684 0.776431
v 0.867705 1.515133 0.867705
v 1.030278 1.955657 1.030279
v 1.236735 2.450801 1.236734
v 1.457363 2.979541 1.457363
v 0.162212 0.018495 0.108386
v 0.318190 0.077844 0.212608
v 0.461949 0.189149 0.308664
v 0.590262 0.349994 0.394400
v 0.704156 0.562561 0.470502
v 0.810395 0.826720 0.541488
v 0.912986 1.143684 0.610038
v 1.020314 1.515133 0.681751
v 1.211478 1.955657 0.809484
v 1.454245 2.450801 0.971696
v 1.713678 2.979541 1.145043
v 0.000000 -0.000720 -0.000000
v 0.180240 0.018495 0.074658
v 0.353553 0.077844 0.146447
v 0.513290 0.189149 0.212611
v 0.655863 0.349994 0.271668
v 0.782416 0.562561 0.324088
v 0.900462 0.826720 0.372983
v 1.014455 1.143684 0.420201
v 1.133711 1.515133 0.469599
v 1.346123 1.955656 0.557582
v 1.615870 2.450800 0.669315
v 1.904137 2.979541 0.788719
v 0.191342 0.018495 0.038060
v 0.375330 0.077844 0.074658
v 0.544905 0.189149 0.108388
v 0.696262 0.349994 0.138495
v 0.830608 0.562561 0.165219
v 0.955926 0.826720 0.190146
v 1.076941 1.143684 0.214217
v 1.203541 1.515133 0.239399
v 1.429037 1.955657 0.284252
v 1.715399 2.450801 0.341214
v 2.021420 2.979541 0.402085
v 0.195090 0.018495 -0.000000
v 0.382683 0.077844 -0.000000
v 0.555581 0.189149 -0.000000
v 0.709902 0.349994 -0.000000
v 0.846880 0.562561 -0.000000
v 0.974653 0.826720 -0.000000
v 1.098039 1.143684 -0.000000
v 1.227120 1.515133 -0.000000
v 1.457033 1.955657 -0.000000
v 1.749005 2.450801 -0.000000
v 2.061023 2.979541 -0.000000
v 0.191342 0.018495 -0.038060
v 0.375330 0.077844 -0.074658
v 0.544905 0.189149 -0.108388
v 0.696261 0.349994 -0.138495
v 0.830608 0.562561 -0.165219
v 0.955926 0.826720 -0.190146
v 1.076941 1.143685 -0.214217
v 1.203541 1.515133 -0.239399
v 1.429037 1.955657 -0.284254
v 1.715399 2.450801 -0.341214
v 2.021420 2.979541 -0.402086
v 0.180240 0.018495 -0.074658
v 0.353553 0.077844 -0.146447
v 0.513290 0.189149 -0.212612
v 0.655863 0.349994 -0.271668
v 0.782416 0.562561 -0.324088
v 0.900462 0.826720 -0.372984
v 1.014455 1.143684 -0.420201
v 1.133711 1.515133 -0.469599
v 1.346123 1.955657 -0.557582
v 1.615870 2.450800 -0.669316
v 1.904137 2.979541 -0.788719
v 0.162212 0.018495 -0.108386
v 0.318190 0.077844 -0.212608
v 0.461949 0.189149 -0.308664
v 0.590262 0.349994 -0.394400
v 0.704155 0.562561 -0.470502
v 0.810395 0.826720 -0.541489
v 0.912986 1.143684 -0.610038
v 1.020312 1.515133 -0.681752
v 1.211478 1.955656 -0.809485
v 1.454245 2.450801 -0.971696
v 1.713678 2.979541 -1.145043
v 0.137950 0.018495 -0.137950
v 0.270598 0.077844 -0.270598
v 0.392855 0.189149 -0.392855
v 0.501976 0.349994 -0.501977
v 0.598835 0.562562 -0.598836
v 0.689184 0.826720 -0.689184
v 0.776431 1.143685 -0.776431
v 0.867704 1.515133 -0.867705
v 1.030277 1.955657 -1.030278
v 1.236734 2.450801 -1.236735
v 1.457363 2.979541 -1.457363
v 0.108386 0.018495 -0.162212
v 0.212607 0.077844 -0.318190
v 0.308664 0.189149 -0.461949
v 0.394400 0.349994 -0.590262
v 0.470502 0.562561 -0.704156
v 0.541489 0.826720 -0.810395
v 0.610038 1.143684 -0.912986
v 0.681751 1.515133 -1.020313
v 0.809483 1.955656 -1.211478
v 0.971696 2.450801 -1.454245
v 1.145043 2.979541 -1.713678
v 0.074658 0.018495 -0.180240
v 0.146447 0.077844 -0.353553
v 0.212611 0.189149 -0.513290
v 0.271668 0.349994 -0.655864
v 0.324087 0.562562 -0.782416
v 0.372983 0.826720 -0.900462
v 0.420201 1.143684 -1.014456
v 0.469597 1.515133 -1.133711
v 0.557582 1.955656 -1.346123
v 0.669315 2.450800 -1.615870
v 0.788719 2.979541 -1.904137
v 0.038060 0.018495 -0.191342
v 0.074658 0.077844 -0.375330
v 0.108388 0.189149 -0.544905
v 0.138495 0.349994 -0.696262
v 0.165219 0.562561 -0.830608
v 0.190146 0.826720 -0.955926
v 0.214217 1.143684 -1.076940
v 0.239399 1.515133 -1.203542
v 0.284252 1.955657 -1.429037
v 0.341214 2.450801 -1.715399
v 0.402085 2.979541 -2.021421
v 0.000000 0.018495 -0.195090
v 0.000000 0.077844 -0.382683
v -0.000000 0.189149 -0.555581
v -0.000000 0.349994 -0.709902
v -0.000000 0.562562 -0.846880
v -0.000000 0.826720 -0.974653
v -0.000000 1.143684 -1.098039
v -0.000000 1.515133 -1.227120
v -0.000000 1.955656 -1.457032
v -0.000000 2.450801 -1.749005
v -0.000000 2.979541 -2.061023
v -0.038060 0.018495 -0.191342
v -0.074658 0.077844 -0.375330
v -0.108388 0.189149 -0.544905
v -0.138495 0.349994 -0.696262
v -0.165219 0.562562 -0.830608
v -0.190146 0.826720 -0.955926
v -0.214217 1.143684 -1.076940
v -0.239399 1.515133 -1.203540
v -0.284254 1.955657 -1.429037
v -0.341214 2.450800 -1.715399
v -0.402086 2.979541 -2.021421
v -0.074658 0.018495 -0.180240
v -0.146447 0.077844 -0.353553
v -0.212612 0.189149 -0.513290
v -0.271668 0.349994 -0.655864
v -0.324088 0.562562 -0.782415
v -0.372983 0.826720 -0.900462
v -0.420201 1.143685 -1.014456
v -0.469599 1.515133 -1.133711
v -0.557582 1.955657 -1.346122
v -0.669316 2.450801 -1.615870
v -0.788719 2.979541 -1.904135
v -0.108386 0.018495 -0.162212
v -0.212608 0.077844 -0.318190
v -0.308664 0.189149 -0.461948
v -0.394400 0.349994 -0.590262
v -0.470502 0.562562 -0.704155
v -0.541489 0.826720 -0.810395
v -0.610038 1.143685 -0.912986
v -0.681751 1.515133 -1.020313
v -0.809485 1.955657 -1.211479
v -0.971696 2.450801 -1.454245
v -1.145043 2.979541 -1.713678
v -0.137950 0.018495 -0.137950
v -0.270598 0.077844 -0.270598
v -0.392855 0.189149 -0.392855
v -0.501976 0.349994 -0.501977
v -0.598835 0.562562 -0.598835
v -0.689184 0.826720 -0.689184
v -0.776431 1.143685 -0.776431
v -0.867705 1.515133 -0.867704
v -1.030277 1.955656 -1.030277
v -1.236734 2.450801 -1.236735
v -1.457363 2.979541 -1.457363
v -0.162212 0.018495 -0.108386
v -0.318190 0.077844 -0.212607
v -0.461949 0.189149 -0.308664
v -0.590262 0.349994 -0.394400
v -0.704155 0.562561 -0.470501
v -0.810394 0.826720 -0.541489
v -0.912986 1.143684 -0.610038
v -1.020312 1.515133 -0.681750
v -1.211478 1.955656 -0.809483
v -1.454245 2.450801 -0.971696
v -1.713678 2.979541 -1.145043
v -0.180240 0.018495 -0.074658
v -0.353553 0.077844 -0.146447
v -0.513290 0.189149 -0.212611
v -0.655863 0.349994 -0.271668
v -0.782415 0.562561 -0.324087
v -0.900462 0.826720 -0.372984
v -1.014455 1.143684 -0.420201
v -1.133711 1.515133 -0.469597
v -1.346123 1.955657 -0.557582
v -1.615870 2.450800 -0.669316
v -1.904137 2.979541 -0.788719
v -0.191342 0.018495 -0.038060
v -0.375330 0.077844 -0.074658
v -0.544905 0.189149 -0.108388
v -0.696261 0.349994 -0.138495
v -0.830608 0.562561 -0.165218
v -0.955926 0.826720 -0.190146
v -1.076940 1.143684 -0.214216
v -1.203540 1.515133 -0.239398
v -1.429035 1.955656 -0.284252
v -1.715399 2.450801 -0.341214
v -2.021420 2.979541 -0.402085
v -0.195090 0.018495 -0.000000
v -0.382683 0.077844 -0.000000
v -0.555581 0.189149 -0.000000
v -0.709902 0.349994 -0.000000
v -0.846880 0.562562 -0.000000
v -0.974653 0.826720 -0.000000
v -1.098039 1.143684 -0.000000
v -1.227119 1.515133 -0.000000
v -1.457032 1.955656 -0.000000
v -1.749006 2.450801 -0.000000
v -2.061022 2.979541 -0.000000
v -0.191342 0.018495 0.038060
v -0.375330 0.077844 0.074658
v -0.544905 0.189149 0.108388
v -0.696261 0.349994 0.138495
v -0.830608 0.562561 0.165219
v -0.955926 0.826720 0.190145
v -1.076940 1.143684 0.214217
v -1.203540 1.515133 0.239399
v -1.429035 1.955656 0.284254
v -1.715399 2.450801 0.341214
v -2.021420 2.979541 0.402086
v -0.180240 0.018495 0.074658
v -0.353553 0.077844 0.146447
v -0.513289 0.189149 0.212611
v -0.655863 0.349994 0.271668
v -0.782415 0.562561 0.324088
v -0.900462 0.826720 0.372983
v -1.014455 1.143684 0.420201
v -1.133711 1.515133 0.469599
v -1.346122 1.955657 0.557582
v -1.615870 2.450801 0.669316
v -1.904135 2.979541 0.788719
v -0.162212 0.018495 0.108386
v -0.318189 0.077844 0.212607
v -0.461948 0.189149 0.308664
v -0.590262 0.349994 0.394400
v -0.704155 0.562561 0.470502
v -0.810394 0.826720 0.541488
v -0.912986 1.143685 0.610038
v -1.020313 1.515133 0.681751
v -1.211478 1.955657 0.809484
v -1.454245 2.450801 0.971696
v -1.713676 2.979541 1.145043
v -0.137950 0.018495 0.137950
v -0.270598 0.077844 0.270598
v -0.392855 0.189149 0.392854
v -0.501976 0.349994 0.501976
v -0.598834 0.562561 0.598835
v -0.689184 0.826720 0.689184
v -0.776430 1.143684 0.776431
v -0.867704 1.515133 0.867705
v -1.030277 1.955657 1.030277
v -1.236733 2.450801 1.236733
v -1.457361 2.979541 1.457363
v -0.108386 0.018495 0.162212
v -0.212607 0.077844 0.318190
v -0.308664 0.189149 0.461948
v -0.394400 0.349994 0.590262
v -0.470501 0.562561 0.704155
v -0.541489 0.826720 0.810394
v -0.610038 1.143685 0.912986
v -0.681750 1.515133 1.020312
v -0.809483 1.955657 1.211478
v -0.971696 2.450801 1.454245
v -1.145041 2.979541 1.713678
v -0.074658 0.018495 0.180240
v -0.146446 0.077844 0.353553
v -0.212611 0.189149 0.513289
v -0.271668 0.349994 0.655863
v -0.324087 0.562561 0.782415
v -0.372983 0.826720 0.900462
v -0.420201 1.143685 1.014455
v -0.469598 1.515133 1.133711
v -0.557582 1.955657 1.346122
v -0.669316 2.450801 1.615870
v -0.788719 2.979541 1.904135
v -0.038060 0.018495 0.191342
v -0.074658 0.077844 0.375330
v -0.108388 0.189149 0.544905
v -0.138495 0.349994 0.696261
v -0.165218 0.562561 0.830608
v -0.190146 0.826720 0.955926
v -0.214216 1.143685 1.076940
v -0.239398 1.515133 1.203540
v -0.284252 1.955657 1.429035
v -0.341214 2.450802 1.715400
v -0.402085 2.979541 2.021419
v 0.000000 0.018495 0.195090
v 0.000000 0.077844 0.382683
v -0.000000 0.349994 0.709902
v -0.000000 0.826720 0.974653
v -0.000000 2.450801 1.749006
v 0.000000 0.334824 0.441494
v 0.000000 0.929610 0.681690
v 0.000000 2.024503 0.918573
v 0.000000 2.728865 1.058517
v 0.000000 3.492303 1.300866
v 0.000000 4.891500 1.966086
v 0.030007 0.123318 0.150856
v 0.059056 0.192811 0.296896
v 0.086131 0.334824 0.433012
v 0.110500 0.574102 0.555519
v 0.132991 0.929609 0.668591
v 0.155369 1.414453 0.781092
v 0.179205 2.024503 0.900922
v 0.206507 2.728865 1.038178
v 0.253786 3.492302 1.275870
v 0.315768 4.228948 1.587476
v 0.383564 4.891500 1.928309
v 0.058861 0.123318 0.142104
v 0.115843 0.192811 0.279669
v 0.168953 0.334824 0.407888
v 0.216753 0.574102 0.523288
v 0.260872 0.929610 0.629799
v 0.304767 1.414453 0.735772
v 0.351523 2.024503 0.848651
v 0.405077 2.728865 0.977942
v 0.497820 3.492302 1.201843
v 0.619402 4.228948 1.495370
v 0.752389 4.891500 1.816428
v 0.085453 0.123318 0.127890
v 0.168178 0.192811 0.251696
v 0.245281 0.334824 0.367089
v 0.314677 0.574102 0.470946
v 0.378727 0.929610 0.566805
v 0.442454 1.414453 0.662178
v 0.510332 2.024503 0.763765
v 0.588080 2.728865 0.880125
v 0.722723 3.492303 1.081631
v 0.899232 4.228948 1.345798
v 1.092300 4.891500 1.634742
v 0.108761 0.123318 0.108761
v 0.214050 0.192811 0.214050
v 0.312184 0.334824 0.312183
v 0.400507 0.574102 0.400507
v 0.482027 0.929610 0.482027
v 0.563136 1.414453 0.563136
v 0.649529 2.024503 0.649529
v 0.748484 2.728865 0.748484
v 0.919851 3.492304 0.919851
v 1.144508 4.228951 1.144507
v 1.390233 4.891500 1.390233
v 0.127890 0.123318 0.085453
v 0.251696 0.192811 0.168178
v 0.367090 0.334824 0.245281
v 0.470946 0.574102 0.314677
v 0.566805 0.929609 0.378727
v 0.662178 1.414453 0.442453
v 0.763765 2.024503 0.510332
v 0.880125 2.728864 0.588080
v 1.081631 3.492303 0.722721
v 1.345798 4.228949 0.899234
v 1.634742 4.891500 1.092300
v 0.000000 0.100848 -0.000000
v 0.142104 0.123318 0.058861
v 0.279669 0.192811 0.115843
v 0.407888 0.334824 0.168953
v 0.523288 0.574102 0.216753
v 0.629799 0.929609 0.260872
v 0.735772 1.414453 0.304767
v 0.848651 2.024503 0.351522
v 0.977942 2.728865 0.405077
v 1.201843 3.492303 0.497820
v 1.495371 4.228949 0.619402
v 1.816428 4.891500 0.752389
v 0.150856 0.123318 0.030007
v 0.296895 0.192811 0.059056
v 0.433012 0.334824 0.086131
v 0.555519 0.574102 0.110499
v 0.668591 0.929609 0.132991
v 0.781092 1.414453 0.155369
v 0.900922 2.024503 0.179205
v 1.038178 2.728865 0.206507
v 1.275870 3.492303 0.253786
v 1.587476 4.228949 0.315768
v 1.928309 4.891500 0.383564
v 0.153812 0.123318 -0.000000
v 0.302712 0.192811 -0.000000
v 0.441494 0.334824 -0.000000
v 0.566403 0.574102 -0.000000
v 0.681690 0.929609 -0.000000
v 0.796394 1.414453 -0.000000
v 0.918573 2.024503 -0.000000
v 1.058517 2.728865 -0.000000
v 1.300867 3.492304 -0.000000
v 1.618576 4.228949 -0.000000
v 1.966086 4.891500 -0.000000
v 0.150856 0.123318 -0.030007
v 0.296895 0.192811 -0.059056
v 0.433012 0.334824 -0.086131
v 0.555519 0.574102 -0.110500
v 0.668591 0.929609 -0.132991
v 0.781092 1.414453 -0.155369
v 0.900922 2.024503 -0.179205
v 1.038178 2.728865 -0.206507
v 1.275870 3.492303 -0.253786
v 1.587476 4.228949 -0.315768
v 1.928309 4.891500 -0.383564
v 0.142104 0.123318 -0.058861
v 0.279669 0.192811 -0.115843
v 0.407887 0.334824 -0.168953
v 0.523288 0.574102 -0.216753
v 0.629799 0.929609 -0.260872
v 0.735772 1.414453 -0.304767
v 0.848651 2.024502 -0.351523
v 0.977942 2.728864 -0.405077
v 1.201843 3.492303 -0.497820
v 1.495371 4.228949 -0.619402
v 1.816428 4.891500 -0.752389
v 0.127890 0.123318 -0.085453
v 0.251696 0.192811 -0.168178
v 0.367090 0.334824 -0.245281
v 0.470946 0.574102 -0.314676
v 0.566804 0.929610 -0.378727
v 0.662178 1.414453 -0.442454
v 0.763765 2.024503 -0.510332
v 0.880125 2.728865 -0.588080
v 1.081631 3.492304 -0.722723
v 1.345798 4.228949 -0.899233
v 1.634742 4.891500 -1.092300
v 0.108761 0.123318 -0.108761
v 0.214050 0.192811 -0.214050
v 0.312183 0.334824 -0.312183
v 0.400507 0.574102 -0.400507
v 0.482027 0.929609 -0.482027
v 0.563136 1.414453 -0.563137
v 0.649529 2.024503 -0.649529
v 0.748484 2.728865 -0.748484
v 0.919851 3.492304 -0.919851
v 1.144507 4.228950 -1.144508
v 1.390233 4.891500 -1.390233
v 0.085453 0.123318 -0.127890
v 0.168178 0.192811 -0.251696
v 0.245281 0.334824 -0.367090
v 0.314676 0.574102 -0.470946
v 0.378727 0.929610 -0.566805
v 0.442454 1.414453 -0.662178
v 0.510332 2.024503 -0.763765
v 0.588080 2.728865 -0.880125
v 0.722722 3.492303 -1.081631
v 0.899232 4.228949 -1.345798
v 1.092298 4.891500 -1.634742
v 0.058861 0.123318 -0.142104
v 0.115843 0.192811 -0.279669
v 0.168953 0.334824 -0.407887
v 0.216753 0.574102 -0.523288
v 0.260872 0.929609 -0.629800
v 0.304767 1.414453 -0.735772
v 0.351522 2.024503 -0.848651
v 0.405077 2.728865 -0.977942
v 0.497820 3.492303 -1.201843
v 0.619402 4.228949 -1.495371
v 0.752389 4.891500 -1.816428
v 0.030007 0.123318 -0.150856
v 0.059056 0.192811 -0.296895
v 0.086131 0.334824 -0.433012
v 0.110500 0.574102 -0.555519
v 0.132991 0.929609 -0.668591
v 0.155369 1.414453 -0.781092
v 0.179205 2.024502 -0.900922
v 0.206507 2.728865 -1.038178
v 0.253786 3.492303 -1.275870
v 0.315768 4.228949 -1.587476
v 0.383564 4.891500 -1.928309
v 0.000000 0.123318 -0.153812
v 0.000000 0.192811 -0.302712
v 0.000000 0.334824 -0.441494
v 0.000000 0.574102 -0.566403
v 0.000000 0.929609 -0.681690
v 0.000000 1.414453 -0.796394
v 0.000000 2.024502 -0.918573
v 0.000000 2.728865 -1.058517
v 0.000000 3.492303 -1.300865
v 0.000000 4.228949 -1.618577
v 0.000000 4.891500 -1.966087
v -0.030007 0.123318 -0.150856
v -0.059056 0.192811 -0.296895
v -0.086131 0.334824 -0.433012
v -0.110500 0.574102 -0.555519
v -0.132991 0.929609 -0.668591
v -0.155369 1.414453 -0.781092
v -0.179205 2.024502 -0.900922
v -0.206507 2.728865 -1.038178
v -0.253786 3.492303 -1.275870
v -0.315768 4.228949 -1.587476
v -0.383566 4.891500 -1.928309
v -0.058861 0.123318 -0.142104
v -0.115843 0.192811 -0.279669
v -0.168953 0.334824 -0.407887
v -0.216753 0.574102 -0.523288
v -0.260872 0.929610 -0.629800
v -0.304767 1.414453 -0.735772
v -0.351523 2.024503 -0.848651
v -0.405077 2.728865 -0.977942
v -0.497820 3.492304 -1.201843
v -0.619402 4.228950 -1.495371
v -0.752389 4.891500 -1.816426
v -0.085453 0.123318 -0.127890
v -0.168178 0.192811 -0.251696
v -0.245281 0.334824 -0.367089
v -0.314676 0.574102 -0.470946
v -0.378727 0.929609 -0.566804
v -0.442452 1.414453 -0.662178
v -0.510332 2.024503 -0.763765
v -0.588080 2.728865 -0.880124
v -0.722723 3.492304 -1.081631
v -0.899233 4.228950 -1.345798
v -1.092300 4.891500 -1.634740
v -0.108761 0.123318 -0.108761
v -0.214050 0.192811 -0.214050
v -0.312183 0.334824 -0.312183
v -0.400507 0.574102 -0.400507
v -0.482027 0.929609 -0.482027
v -0.563135 1.414453 -0.563136
v -0.649529 2.024503 -0.649529
v -0.748484 2.728865 -0.748484
v -0.919851 3.492304 -0.919851
v -1.144507 4.228950 -1.144508
v -1.390233 4.891500 -1.390233
v -0.127890 0.123318 -0.085453
v -0.251696 0.192811 -0.168178
v -0.367090 0.334824 -0.245281
v -0.470946 0.574102 -0.314676
v -0.566804 0.929609 -0.378726
v -0.662178 1.414453 -0.442452
v -0.763765 2.024502 -0.510331
v -0.880125 2.728865 -0.588080
v -1.081631 3.492303 -0.722722
v -1.345798 4.228949 -0.899233
v -1.634742 4.891500 -1.092298
v -0.142104 0.123318 -0.058862
v -0.279669 0.192811 -0.115843
v -0.407887 0.334824 -0.168953
v -0.523288 0.574102 -0.216753
v -0.629799 0.929610 -0.260872
v -0.735772 1.414453 -0.304767
v -0.848651 2.024502 -0.351522
v -0.977942 2.728864 -0.405077
v -1.201843 3.492303 -0.497819
v -1.495368 4.228948 -0.619402
v -1.816428 4.891500 -0.752389
v -0.150856 0.123318 -0.030007
v -0.296895 0.192811 -0.059056
v -0.433011 0.334824 -0.086131
v -0.555519 0.574102 -0.110500
v -0.668591 0.929609 -0.132991
v -0.781092 1.414453 -0.155369
v -0.900922 2.024502 -0.179205
v -1.038176 2.728864 -0.206505
v -1.275870 3.492303 -0.253786
v -1.587476 4.228949 -0.315768
v -1.928309 4.891500 -0.383564
v -0.153812 0.123318 -0.000000
v -0.302712 0.192811 -0.000000
v -0.441494 0.334824 -0.000000
v -0.566402 0.574102 -0.000000
v -0.681690 0.929609 -0.000000
v -0.796394 1.414453 -0.000000
v -0.918573 2.024502 -0.000000
v -1.058516 2.728864 -0.000000
v -1.300865 3.492303 -0.000000
v -1.618576 4.228949 -0.000000
v -1.966086 4.891500 -0.000000
v -0.150856 0.123318 0.030007
v -0.296895 0.192811 0.059056
v -0.433011 0.334824 0.086131
v -0.555519 0.574102 0.110499
v -0.668591 0.929609 0.132991
v -0.781092 1.414453 0.155369
v -0.900922 2.024502 0.179205
v -1.038176 2.728864 0.206507
v -1.275870 3.492303 0.253786
v -1.587476 4.228949 0.315768
v -1.928309 4.891500 0.383566
v -0.142104 0.123318 0.058861
v -0.279669 0.192811 0.115843
v -0.407887 0.334824 0.168953
v -0.523288 0.574102 0.216753
v -0.629799 0.929610 0.260872
v -0.735772 1.414453 0.304767
v -0.848651 2.024503 0.351523
v -0.977941 2.728865 0.405077
v -1.201843 3.492303 0.497820
v -1.495369 4.228949 0.619402
v -1.816426 4.891500 0.752389
v -0.127890 0.123318 0.085453
v -0.251696 0.192811 0.168178
v -0.367089 0.334824 0.245281
v -0.470946 0.574102 0.314676
v -0.566804 0.929610 0.378727
v -0.662178 1.414453 0.442452
v -0.763765 2.024503 0.510332
v -0.880123 2.728865 0.588080
v -1.081629 3.492304 0.722723
v -1.345798 4.228950 0.899232
v -1.634740 4.891500 1.092300
v -0.108761 0.123318 0.108761
v -0.214050 0.192811 0.214050
v -0.312183 0.334824 0.312183
v -0.400507 0.574102 0.400507
v -0.482027 0.929610 0.482027
v -0.563135 1.414453 0.563135
v -0.649529 2.024503 0.649529
v -0.748483 2.728865 0.748484
v -0.919852 3.492305 0.919851
v -1.144507 4.228950 1.144505
v -1.390233 4.891500 1.390233
v -0.085453 0.123318 0.127890
v -0.168178 0.192811 0.251696
v -0.245280 0.334824 0.367088
v -0.314676 0.574102 0.470946
v -0.378726 0.929610 0.566804
v -0.442452 1.414453 0.662178
v -0.510331 2.024503 0.763765
v -0.588080 2.728865 0.880123
v -0.722722 3.492304 1.081631
v -0.899233 4.228950 1.345798
v -1.092298 4.891500 1.634740
v -0.058861 0.123318 0.142104
v -0.115843 0.192811 0.279669
v -0.168953 0.334824 0.407887
v -0.216753 0.574102 0.523288
v -0.260871 0.929610 0.629799
v -0.304767 1.414453 0.735772
v -0.351522 2.024503 0.848651
v -0.405075 2.728865 0.977940
v -0.497819 3.492303 1.201843
v -0.619402 4.228949 1.495369
v -0.752389 4.891500 1.816426
v -0.030007 0.123318 0.150856
v -0.059056 0.192811 0.296895
v -0.086131 0.334824 0.433010
v -0.110500 0.574102 0.555519
v -0.132991 0.929609 0.668591
v -0.155369 1.414453 0.781092
v -0.179205 2.024503 0.900922
v -0.206505 2.728865 1.038176
v -0.253786 3.492303 1.275870
v -0.315768 4.228948 1.587476
v -0.383564 4.891500 1.928309
v 0.000000 0.123318 0.153812
v 0.000000 0.192811 0.302712
v 0.000000 0.574102 0.566402
v 0.000000 1.414453 0.796394
v 0.000000 4.228949 1.618576
vn -0.0000 -0.3985 0.9172
vn -0.0000 -0.4878 0.8729
vn 0.1703 -0.4878 0.8562
vn 0.1789 -0.3985 0.8995
vn -0.0000 -0.3452 0.9385
vn 0.1831 -0.3452 0.9205
vn -0.0000 -0.3982 0.9173
vn 0.1790 -0.3982 0.8997
vn -0.0000 -0.9783 0.2071
vn -0.0000 -1.0000 -0.0000
vn 0.0404 -0.9783 0.2032
vn -0.0000 -0.4862 0.8739
vn 0.1705 -0.4862 0.8571
vn -0.0000 -0.9019 0.4319
vn 0.0843 -0.9019 0.4236
vn -0.0000 -0.5081 0.8613
vn 0.1680 -0.5081 0.8448
vn -0.0000 -0.7683 0.6401
vn 0.1249 -0.7683 0.6278
vn -0.0000 -0.5082 0.8612
vn 0.1680 -0.5082 0.8447
vn -0.0000 -0.6170 0.7870
vn 0.1535 -0.6170 0.7719
vn 0.3012 -0.6170 0.7271
vn 0.3341 -0.4878 0.8065
vn 0.3510 -0.3985 0.8474
vn 0.3592 -0.3452 0.8671
vn 0.3510 -0.3982 0.8475
vn 0.0793 -0.9783 0.1914
vn 0.3344 -0.4862 0.8073
vn 0.1653 -0.9019 0.3991
vn 0.3296 -0.5081 0.7957
vn 0.2450 -0.7683 0.5914
vn 0.3296 -0.5082 0.7957
vn 0.1151 -0.9783 0.1722
vn 0.5096 -0.3982 0.7627
vn 0.4855 -0.4862 0.7266
vn 0.2400 -0.9019 0.3591
vn 0.4785 -0.5081 0.7162
vn 0.3556 -0.7683 0.5322
vn 0.4785 -0.5082 0.7161
vn 0.4372 -0.6170 0.6544
vn 0.4850 -0.4878 0.7258
vn 0.5095 -0.3985 0.7626
vn 0.5214 -0.3452 0.7804
vn 0.5565 -0.6170 0.5565
vn 0.6173 -0.4878 0.6173
vn 0.6485 -0.3985 0.6485
vn 0.6636 -0.3452 0.6636
vn 0.6486 -0.3982 0.6486
vn 0.1465 -0.9783 0.1465
vn 0.6179 -0.4862 0.6179
vn 0.3054 -0.9019 0.3054
vn 0.6090 -0.5081 0.6090
vn 0.4526 -0.7683 0.4526
vn 0.6090 -0.5082 0.6090
vn 0.7627 -0.3982 0.5096
vn 0.7266 -0.4862 0.4855
vn 0.1722 -0.9783 0.1151
vn 0.3591 -0.9019 0.2400
vn 0.7162 -0.5081 0.4785
vn 0.5322 -0.7683 0.3556
vn 0.7161 -0.5082 0.4785
vn 0.6544 -0.6170 0.4372
vn 0.7258 -0.4878 0.4850
vn 0.7626 -0.3985 0.5095
vn 0.7804 -0.3452 0.5214
vn 0.8065 -0.4878 0.3341
vn 0.8474 -0.3985 0.3510
vn 0.8671 -0.3452 0.3592
vn 0.8475 -0.3982 0.3510
vn 0.1914 -0.9783 0.0793
vn 0.8074 -0.4862 0.3344
vn 0.3991 -0.9019 0.1653
vn 0.7957 -0.5081 0.3296
vn 0.5914 -0.7683 0.2450
vn 0.7957 -0.5082 0.3296
vn 0.7271 -0.6170 0.3012
vn 0.8571 -0.4862 0.1705
vn 0.8448 -0.5081 0.1680
vn 0.4236 -0.9019 0.0843
vn 0.6278 -0.7683 0.1249
vn 0.8447 -0.5082 0.1680
vn 0.7719 -0.6170 0.1535
vn 0.8562 -0.4878 0.1703
vn 0.8995 -0.3985 0.1789
vn 0.9205 -0.3452 0.1831
vn 0.8997 -0.3982 0.1790
vn 0.2032 -0.9783 0.0404
vn 0.9172 -0.3985 -0.0000
vn 0.9385 -0.3452 -0.0000
vn 0.9173 -0.3982 -0.0000
vn 0.2071 -0.9783 -0.0000
vn 0.8739 -0.4862 -0.0000
vn 0.4319 -0.9019 -0.0000
vn 0.8613 -0.5081 -0.0000
vn 0.6401 -0.7683 -0.0000
vn 0.8612 -0.5082 -0.0000
vn 0.7870 -0.6170 -0.0000
vn 0.8729 -0.4878 -0.0000
vn 0.4236 -0.9019 -0.0843
vn 0.6278 -0.7683 -0.1249
vn 0.8448 -0.5081 -0.1680
vn 0.8447 -0.5082 -0.1680
vn 0.7719 -0.6170 -0.1535
vn 0.8562 -0.4878 -0.1703
vn 0.8995 -0.3985 -0.1789
vn 0.9205 -0.3452 -0.1831
vn 0.8997 -0.3982 -0.1790
vn 0.2032 -0.9783 -0.0404
vn 0.8571 -0.4862 -0.1705
vn 0.8474 -0.3985 -0.3510
vn 0.8671 -0.3452 -0.3592
vn 0.8475 -0.3982 -0.3510
vn 0.1914 -0.9783 -0.0793
vn 0.8073 -0.4862 -0.3344
vn 0.3991 -0.9019 -0.1653
vn 0.7957 -0.5081 -0.3296
vn 0.5914 -0.7683 -0.2450
vn 0.7957 -0.5082 -0.3296
vn 0.7271 -0.6170 -0.3012
vn 0.8065 -0.4878 -0.3341
vn 0.7162 -0.5081 -0.4785
vn 0.7161 -0.5082 -0.4785
vn 0.5322 -0.7683 -0.3556
vn 0.6544 -0.6170 -0.4372
vn 0.7258 -0.4878 -0.4850
vn 0.7626 -0.3985 -0.5095
vn 0.7804 -0.3452 -0.5214
vn 0.7627 -0.3982 -0.5096
vn 0.1722 -0.9783 -0.1151
vn 0.7266 -0.4862 -0.4855
vn 0.3591 -0.9019 -0.2400
vn 0.6636 -0.3452 -0.6636
vn 0.6486 -0.3982 -0.6486
vn 0.1465 -0.9783 -0.1465
vn 0.6179 -0.4862 -0.6179
vn 0.3054 -0.9019 -0.3054
vn 0.6090 -0.5081 -0.6090
vn 0.4526 -0.7683 -0.4526
vn 0.6090 -0.5082 -0.6090
vn 0.5565 -0.6170 -0.5565
vn 0.6173 -0.4878 -0.6173
vn 0.6485 -0.3985 -0.6485
vn 0.3556 -0.7683 -0.5322
vn 0.4372 -0.6170 -0.6544
vn 0.4850 -0.4878 -0.7258
vn 0.5095 -0.3985 -0.7626
vn 0.5214 -0.3452 -0.7804
vn 0.5096 -0.3982 -0.7627
vn 0.1151 -0.9783 -0.1722
vn 0.4855 -0.4862 -0.7266
vn 0.2400 -0.9019 -0.3591
vn 0.4785 -0.5081 -0.7162
vn 0.4785 -0.5082 -0.7161
vn 0.3592 -0.3452 -0.8671
vn 0.3510 -0.3982 -0.8475
vn 0.0793 -0.9783 -0.1914
vn 0.3344 -0.4862 -0.8073
vn 0.1653 -0.9019 -0.3991
vn 0.3296 -0.5081 -0.7957
vn 0.2450 -0.7683 -0.5914
vn 0.3296 -0.5082 -0.7957
vn 0.3012 -0.6170 -0.7271
vn 0.3341 -0.4878 -0.8065
vn 0.3510 -0.3985 -0.8474
vn 0.1535 -0.6170 -0.7719
vn 0.1703 -0.4878 -0.8562
vn 0.1789 -0.3985 -0.8995
vn 0.1831 -0.3452 -0.9205
vn 0.1790 -0.3982 -0.8997
vn 0.0404 -0.9783 -0.2032
vn 0.1705 -0.4862 -0.8571
vn 0.0843 -0.9019 -0.4236
vn 0.1680 -0.5081 -0.8448
vn 0.1249 -0.7683 -0.6278
vn 0.1680 -0.5082 -0.8447
vn -0.0000 -0.3982 -0.9173
vn -0.0000 -0.4862 -0.8739
vn -0.0000 -0.9783 -0.2071
vn -0.0000 -0.9019 -0.4319
vn -0.0000 -0.5081 -0.8613
vn -0.0000 -0.7683 -0.6401
vn -0.0000 -0.5082 -0.8612
vn -0.0000 -0.6170 -0.7870
vn -0.0000 -0.4878 -0.8729
vn -0.0000 -0.3985 -0.9172
vn -0.0000 -0.3452 -0.9385
vn -0.1703 -0.4878 -0.8562
vn -0.1789 -0.3985 -0.8995
vn -0.1831 -0.3452 -0.9205
vn -0.1790 -0.3982 -0.8997
vn -0.0404 -0.9783 -0.2032
vn -0.1705 -0.4862 -0.8571
vn -0.0843 -0.9019 -0.4236
vn -0.1680 -0.5081 -0.8448
vn -0.1249 -0.7683 -0.6278
vn -0.1680 -0.5082 -0.8447
vn -0.1535 -0.6170 -0.7719
vn -0.0793 -0.9783 -0.1914
vn -0.1653 -0.9019 -0.3991
vn -0.3344 -0.4862 -0.8074
vn -0.3296 -0.5081 -0.7957
vn -0.2450 -0.7683 -0.5914
vn -0.3296 -0.5082 -0.7957
vn -0.3012 -0.6170 -0.7271
vn -0.3341 -0.4878 -0.8065
vn -0.3510 -0.3985 -0.8474
vn -0.3592 -0.3452 -0.8671
vn -0.3510 -0.3982 -0.8475
vn -0.4850 -0.4878 -0.7258
vn -0.5095 -0.3985 -0.7626
vn -0.5214 -0.3452 -0.7804
vn -0.5096 -0.3982 -0.7627
vn -0.1151 -0.9783 -0.1722
vn -0.4855 -0.4862 -0.7266
vn -0.2400 -0.9019 -0.3591
vn -0.4785 -0.5081 -0.7162
vn -0.3556 -0.7683 -0.5322
vn -0.4785 -0.5082 -0.7161
vn -0.4372 -0.6170 -0.6544
vn -0.6179 -0.4862 -0.6179
vn -0.6090 -0.5081 -0.6090
vn -0.3054 -0.9019 -0.3054
vn -0.4526 -0.7683 -0.4526
vn -0.6090 -0.5082 -0.6090
vn -0.5565 -0.6170 -0.5565
vn -0.6173 -0.4878 -0.6173
vn -0.6485 -0.3985 -0.6485
vn -0.6636 -0.3452 -0.6636
vn -0.6486 -0.3982 -0.6486
vn -0.1465 -0.9783 -0.1465
vn -0.7626 -0.3985 -0.5095
vn -0.7804 -0.3452 -0.5214
vn -0.7627 -0.3982 -0.5096
vn -0.1722 -0.9783 -0.1151
vn -0.7266 -0.4862 -0.4855
vn -0.3591 -0.9019 -0.2400
vn -0.7162 -0.5081 -0.4785
vn -0.5322 -0.7683 -0.3556
vn -0.7161 -0.5082 -0.4785
vn -0.6544 -0.6170 -0.4372
vn -0.7258 -0.4878 -0.4850
vn -0.3991 -0.9019 -0.1653
vn -0.5914 -0.7683 -0.2450
vn -0.7957 -0.5081 -0.3296
vn -0.7957 -0.5082 -0.3296
vn -0.7271 -0.6170 -0.3012
vn -0.8065 -0.4878 -0.3341
vn -0.8474 -0.3985 -0.3510
vn -0.8671 -0.3452 -0.3592
vn -0.8475 -0.3982 -0.3510
vn -0.1914 -0.9783 -0.0793
vn -0.8074 -0.4862 -0.3344
vn -0.8995 -0.3985 -0.1789
vn -0.9205 -0.3452 -0.1831
vn -0.8997 -0.3982 -0.1790
vn -0.2032 -0.9783 -0.0404
vn -0.8571 -0.4862 -0.1705
vn -0.4236 -0.9019 -0.0843
vn -0.8448 -0.5081 -0.1680
vn -0.6278 -0.7683 -0.1249
vn -0.8447 -0.5082 -0.1680
vn -0.7719 -0.6170 -0.1535
vn -0.8562 -0.4878 -0.1703
vn -0.8613 -0.5081 -0.0000
vn -0.8612 -0.5082 -0.0000
vn -0.6401 -0.7683 -0.0000
vn -0.7870 -0.6170 -0.0000
vn -0.8729 -0.4878 -0.0000
vn -0.9172 -0.3985 -0.0000
vn -0.9385 -0.3452 -0.0000
vn -0.9173 -0.3982 -0.0000
vn -0.2071 -0.9783 -0.0000
vn -0.8739 -0.4862 -0.0000
vn -0.4319 -0.9019 -0.0000
vn -0.9205 -0.3452 0.1831
vn -0.8997 -0.3982 0.1790
vn -0.2032 -0.9783 0.0404
vn -0.8571 -0.4862 0.1705
vn -0.4236 -0.9019 0.0843
vn -0.8448 -0.5081 0.1680
vn -0.6278 -0.7683 0.1249
vn -0.8447 -0.5082 0.1680
vn -0.7719 -0.6170 0.1535
vn -0.8562 -0.4878 0.1703
vn -0.8995 -0.3985 0.1789
vn -0.7271 -0.6170 0.3012
vn -0.8065 -0.4878 0.3341
vn -0.8474 -0.3985 0.3510
vn -0.8671 -0.3452 0.3592
vn -0.8475 -0.3982 0.3510
vn -0.1914 -0.9783 0.0793
vn -0.8074 -0.4862 0.3344
vn -0.3991 -0.9019 0.1653
vn -0.7957 -0.5081 0.3296
vn -0.5914 -0.7683 0.2450
vn -0.7957 -0.5082 0.3296
vn -0.1722 -0.9783 0.1151
vn -0.7627 -0.3982 0.5096
vn -0.7266 -0.4862 0.4855
vn -0.3591 -0.9019 0.2400
vn -0.7162 -0.5081 0.4785
vn -0.5322 -0.7683 0.3556
vn -0.7161 -0.5082 0.4785
vn -0.6544 -0.6170 0.4372
vn -0.7258 -0.4878 0.4850
vn -0.7626 -0.3985 0.5096
vn -0.7804 -0.3452 0.5214
vn -0.5565 -0.6170 0.5565
vn -0.6173 -0.4878 0.6173
vn -0.6485 -0.3985 0.6485
vn -0.6636 -0.3452 0.6636
vn -0.6486 -0.3982 0.6486
vn -0.1465 -0.9783 0.1465
vn -0.6179 -0.4862 0.6179
vn -0.3054 -0.9019 0.3054
vn -0.6090 -0.5081 0.6090
vn -0.4526 -0.7683 0.4526
vn -0.6090 -0.5082 0.6090
vn -0.5096 -0.3982 0.7627
vn -0.4855 -0.4862 0.7266
vn -0.1151 -0.9783 0.1722
vn -0.2400 -0.9019 0.3591
vn -0.4785 -0.5081 0.7162
vn -0.3556 -0.7683 0.5322
vn -0.4785 -0.5082 0.7161
vn -0.4372 -0.6170 0.6544
vn -0.4850 -0.4878 0.7258
vn -0.5095 -0.3985 0.7626
vn -0.5214 -0.3452 0.7804
vn -0.3341 -0.4878 0.8065
vn -0.3510 -0.3985 0.8473
vn -0.3592 -0.3452 0.8671
vn -0.3510 -0.3982 0.8475
vn -0.0793 -0.9783 0.1914
vn -0.3344 -0.4862 0.8073
vn -0.1653 -0.9019 0.3991
vn -0.3296 -0.5081 0.7957
vn -0.2450 -0.7683 0.5914
vn -0.3296 -0.5082 0.7957
vn -0.3012 -0.6170 0.7271
vn -0.0404 -0.9783 0.2032
vn -0.0843 -0.9019 0.4236
vn -0.1705 -0.4862 0.8571
vn -0.1680 -0.5081 0.8448
vn -0.1249 -0.7683 0.6278
vn -0.1680 -0.5082 0.8447
vn -0.1535 -0.6170 0.7719
vn -0.1703 -0.4878 0.8562
vn -0.1789 -0.3985 0.8995
vn -0.1831 -0.3452 0.9205
vn -0.1790 -0.3982 0.8997
vn -0.0000 -0.2131 0.9770
vn -0.0000 -0.2689 0.9632
vn 0.1879 -0.2689 0.9447
vn 0.1906 -0.2131 0.9583
vn -0.0000 -0.1956 0.9807
vn 0.1913 -0.1956 0.9618
vn -0.0000 -0.2499 0.9683
vn 0.1889 -0.2499 0.9497
vn -0.0000 -0.9555 0.2951
vn 0.0576 -0.9555 0.2894
vn -0.0000 -0.3508 0.9365
vn 0.1827 -0.3508 0.9185
vn -0.0000 -0.8105 0.5858
vn 0.1143 -0.8105 0.5745
vn -0.0000 -0.4315 0.9021
vn 0.1760 -0.4315 0.8848
vn -0.0000 -0.5828 0.8126
vn 0.1585 -0.5828 0.7970
vn -0.0000 -0.4645 0.8856
vn 0.1728 -0.4645 0.8686
vn -0.0000 -0.3851 0.9229
vn 0.1800 -0.3851 0.9051
vn 0.3532 -0.3851 0.8526
vn 0.3686 -0.2689 0.8898
vn 0.3739 -0.2131 0.9027
vn 0.3753 -0.1956 0.9060
vn 0.3705 -0.2499 0.8946
vn 0.1129 -0.9555 0.2726
vn 0.3584 -0.3508 0.8652
vn 0.2242 -0.8105 0.5412
vn 0.3452 -0.4315 0.8334
vn 0.3110 -0.5828 0.7507
vn 0.3389 -0.4645 0.8182
vn 0.1639 -0.9555 0.2453
vn 0.5379 -0.2499 0.8051
vn 0.5203 -0.3508 0.7786
vn 0.3254 -0.8105 0.4870
vn 0.5012 -0.4315 0.7501
vn 0.4515 -0.5828 0.6756
vn 0.4920 -0.4645 0.7363
vn 0.5127 -0.3851 0.7673
vn 0.5351 -0.2689 0.8008
vn 0.5428 -0.2131 0.8124
vn 0.5448 -0.1956 0.8154
vn 0.6526 -0.3851 0.6526
vn 0.6811 -0.2689 0.6811
vn 0.6909 -0.2131 0.6909
vn 0.6934 -0.1956 0.6934
vn 0.6847 -0.2499 0.6847
vn 0.2086 -0.9555 0.2086
vn 0.6622 -0.3508 0.6622
vn 0.4142 -0.8105 0.4142
vn 0.6379 -0.4315 0.6379
vn 0.5746 -0.5828 0.5746
vn 0.6262 -0.4645 0.6262
vn 0.8051 -0.2499 0.5379
vn 0.7786 -0.3508 0.5203
vn 0.2453 -0.9555 0.1639
vn 0.4870 -0.8105 0.3254
vn 0.7501 -0.4315 0.5012
vn 0.6756 -0.5828 0.4515
vn 0.7363 -0.4645 0.4920
vn 0.7673 -0.3851 0.5127
vn 0.8008 -0.2689 0.5351
vn 0.8124 -0.2131 0.5428
vn 0.8154 -0.1956 0.5448
vn 0.8898 -0.2689 0.3686
vn 0.9027 -0.2131 0.3739
vn 0.9060 -0.1956 0.3753
vn 0.8946 -0.2499 0.3705
vn 0.2726 -0.9555 0.1129
vn 0.8652 -0.3508 0.3584
vn 0.5412 -0.8105 0.2242
vn 0.8334 -0.4315 0.3452
vn 0.7507 -0.5828 0.3110
vn 0.8182 -0.4645 0.3389
vn 0.8526 -0.3851 0.3532
vn 0.9185 -0.3508 0.1827
vn 0.8848 -0.4315 0.1760
vn 0.5745 -0.8105 0.1143
vn 0.7970 -0.5828 0.1585
vn 0.8686 -0.4645 0.1728
vn 0.9051 -0.3851 0.1800
vn 0.9447 -0.2689 0.1879
vn 0.9583 -0.2131 0.1906
vn 0.9618 -0.1956 0.1913
vn 0.9497 -0.2499 0.1889
vn 0.2894 -0.9555 0.0576
vn 0.9770 -0.2131 -0.0000
vn 0.9807 -0.1956 -0.0000
vn 0.9683 -0.2499 -0.0000
vn 0.2951 -0.9555 -0.0000
vn 0.9365 -0.3508 -0.0000
vn 0.5858 -0.8105 -0.0000
vn 0.9021 -0.4315 -0.0000
vn 0.8126 -0.5828 -0.0000
vn 0.8856 -0.4645 -0.0000
vn 0.9229 -0.3851 -0.0000
vn 0.9632 -0.2689 -0.0000
vn 0.5745 -0.8105 -0.1143
vn 0.7970 -0.5828 -0.1585
vn 0.8848 -0.4315 -0.1760
vn 0.8686 -0.4645 -0.1728
vn 0.9051 -0.3851 -0.1800
vn 0.9447 -0.2689 -0.1879
vn 0.9583 -0.2131 -0.1906
vn 0.9618 -0.1956 -0.1913
vn 0.9497 -0.2499 -0.1889
vn 0.2894 -0.9555 -0.0576
vn 0.9185 -0.3508 -0.1827
vn 0.9027 -0.2131 -0.3739
vn 0.9060 -0.1956 -0.3753
vn 0.8946 -0.2499 -0.3705
vn 0.2726 -0.9555 -0.1129
vn 0.8652 -0.3508 -0.3584
vn 0.5412 -0.8105 -0.2242
vn 0.8334 -0.4315 -0.3452
vn 0.7507 -0.5828 -0.3110
vn 0.8182 -0.4645 -0.3389
vn 0.8526 -0.3851 -0.3532
vn 0.8898 -0.2689 -0.3686
vn 0.7501 -0.4315 -0.5012
vn 0.7363 -0.4645 -0.4920
vn 0.6756 -0.5828 -0.4515
vn 0.7673 -0.3851 -0.5127
vn 0.8008 -0.2689 -0.5351
vn 0.8124 -0.2131 -0.5428
vn 0.8154 -0.1956 -0.5448
vn 0.8051 -0.2499 -0.5379
vn 0.2453 -0.9555 -0.1639
vn 0.7786 -0.3508 -0.5203
vn 0.4870 -0.8105 -0.3254
vn 0.6934 -0.1956 -0.6934
vn 0.6847 -0.2499 -0.6847
vn 0.2086 -0.9555 -0.2086
vn 0.6622 -0.3508 -0.6622
vn 0.4142 -0.8105 -0.4142
vn 0.6379 -0.4315 -0.6379
vn 0.5746 -0.5828 -0.5746
vn 0.6262 -0.4645 -0.6262
vn 0.6526 -0.3851 -0.6526
vn 0.6811 -0.2689 -0.6811
vn 0.6909 -0.2131 -0.6909
vn 0.4515 -0.5828 -0.6756
vn 0.5127 -0.3851 -0.7673
vn 0.5351 -0.2689 -0.8008
vn 0.5428 -0.2131 -0.8124
vn 0.5448 -0.1956 -0.8154
vn 0.5379 -0.2499 -0.8051
vn 0.1639 -0.9555 -0.2453
vn 0.5203 -0.3508 -0.7786
vn 0.3254 -0.8105 -0.4870
vn 0.5012 -0.4315 -0.7501
vn 0.4920 -0.4645 -0.7363
vn 0.3753 -0.1956 -0.9060
vn 0.3705 -0.2499 -0.8946
vn 0.1129 -0.9555 -0.2726
vn 0.3584 -0.3508 -0.8652
vn 0.2242 -0.8105 -0.5412
vn 0.3452 -0.4315 -0.8334
vn 0.3110 -0.5828 -0.7507
vn 0.3389 -0.4645 -0.8182
vn 0.3532 -0.3851 -0.8526
vn 0.3686 -0.2689 -0.8898
vn 0.3739 -0.2131 -0.9027
vn 0.1800 -0.3851 -0.9051
vn 0.1879 -0.2689 -0.9447
vn 0.1906 -0.2131 -0.9583
vn 0.1913 -0.1956 -0.9618
vn 0.1889 -0.2499 -0.9497
vn 0.0576 -0.9555 -0.2894
vn 0.1827 -0.3508 -0.9185
vn 0.1143 -0.8105 -0.5745
vn 0.1760 -0.4315 -0.8848
vn 0.1585 -0.5828 -0.7970
vn 0.1728 -0.4645 -0.8686
vn -0.0000 -0.2499 -0.9683
vn -0.0000 -0.3508 -0.9365
vn -0.0000 -0.9555 -0.2951
vn -0.0000 -0.8105 -0.5858
vn -0.0000 -0.4315 -0.9021
vn -0.0000 -0.5828 -0.8126
vn -0.0000 -0.4645 -0.8856
vn -0.0000 -0.3851 -0.9229
vn -0.0000 -0.2689 -0.9632
vn -0.0000 -0.2131 -0.9770
vn -0.0000 -0.1956 -0.9807
vn -0.1879 -0.2689 -0.9447
vn -0.1906 -0.2131 -0.9583
vn -0.1913 -0.1956 -0.9618
vn -0.1889 -0.2499 -0.9497
vn -0.0576 -0.9555 -0.2894
vn -0.1827 -0.3508 -0.9185
vn -0.1143 -0.8105 -0.5745
vn -0.1760 -0.4315 -0.8848
vn -0.1585 -0.5828 -0.7970
vn -0.1728 -0.4645 -0.8686
vn -0.1800 -0.3851 -0.9051
vn -0.1129 -0.9555 -0.2726
vn -0.2242 -0.8105 -0.5412
vn -0.3584 -0.3508 -0.8652
vn -0.3452 -0.4315 -0.8334
vn -0.3110 -0.5828 -0.7507
vn -0.3389 -0.4645 -0.8182
vn -0.3532 -0.3851 -0.8526
vn -0.3686 -0.2689 -0.8898
vn -0.3739 -0.2131 -0.9027
vn -0.3753 -0.1956 -0.9060
vn -0.3705 -0.2499 -0.8946
vn -0.5351 -0.2689 -0.8008
vn -0.5428 -0.2131 -0.8124
vn -0.5448 -0.1956 -0.8154
vn -0.5379 -0.2499 -0.8051
vn -0.1639 -0.9555 -0.2453
vn -0.5203 -0.3508 -0.7786
vn -0.3254 -0.8105 -0.4870
vn -0.5012 -0.4315 -0.7501
vn -0.4515 -0.5828 -0.6756
vn -0.4920 -0.4645 -0.7363
vn -0.5127 -0.3851 -0.7673
vn -0.6622 -0.3508 -0.6622
vn -0.6379 -0.4315 -0.6379
vn -0.4142 -0.8105 -0.4142
vn -0.5746 -0.5828 -0.5746
vn -0.6262 -0.4645 -0.6262
vn -0.6526 -0.3851 -0.6526
vn -0.6811 -0.2689 -0.6811
vn -0.6909 -0.2131 -0.6909
vn -0.6934 -0.1956 -0.6934
vn -0.6847 -0.2499 -0.6847
vn -0.2086 -0.9555 -0.2086
vn -0.8124 -0.2131 -0.5428
vn -0.8154 -0.1956 -0.5448
vn -0.8051 -0.2499 -0.5379
vn -0.2453 -0.9555 -0.1639
vn -0.7786 -0.3508 -0.5203
vn -0.4870 -0.8105 -0.3254
vn -0.7501 -0.4315 -0.5012
vn -0.6756 -0.5828 -0.4515
vn -0.7363 -0.4645 -0.4920
vn -0.7673 -0.3851 -0.5127
vn -0.8008 -0.2689 -0.5351
vn -0.5412 -0.8105 -0.2242
vn -0.7507 -0.5828 -0.3110
vn -0.8334 -0.4315 -0.3452
vn -0.8182 -0.4645 -0.3389
vn -0.8526 -0.3851 -0.3532
vn -0.8898 -0.2689 -0.3686
vn -0.9027 -0.2131 -0.3739
vn -0.9060 -0.1956 -0.3753
vn -0.8946 -0.2499 -0.3705
vn -0.2726 -0.9555 -0.1129
vn -0.8652 -0.3508 -0.3584
vn -0.9583 -0.2131 -0.1906
vn -0.9618 -0.1956 -0.1913
vn -0.9497 -0.2499 -0.1889
vn -0.2894 -0.9555 -0.0576
vn -0.9185 -0.3508 -0.1827
vn -0.5745 -0.8105 -0.1143
vn -0.8848 -0.4315 -0.1760
vn -0.7970 -0.5828 -0.1585
vn -0.8686 -0.4645 -0.1728
vn -0.9051 -0.3851 -0.1800
vn -0.9447 -0.2689 -0.1879
vn -0.9021 -0.4315 -0.0000
vn -0.8856 -0.4645 -0.0000
vn -0.8126 -0.5828 -0.0000
vn -0.9229 -0.3851 -0.0000
vn -0.9632 -0.2689 -0.0000
vn -0.9770 -0.2131 -0.0000
vn -0.9807 -0.1956 -0.0000
vn -0.9683 -0.2499 -0.0000
vn -0.2951 -0.9555 -0.0000
vn -0.9365 -0.3508 -0.0000
vn -0.5858 -0.8105 -0.0000
vn -0.9618 -0.1956 0.1913
vn -0.9497 -0.2499 0.1889
vn -0.2894 -0.9555 0.0576
vn -0.9185 -0.3508 0.1827
vn -0.5745 -0.8105 0.1143
vn -0.8848 -0.4315 0.1760
vn -0.7970 -0.5828 0.1585
vn -0.8686 -0.4645 0.1728
vn -0.9051 -0.3851 0.1800
vn -0.9447 -0.2689 0.1879
vn -0.9583 -0.2131 0.1906
vn -0.8526 -0.3851 0.3532
vn -0.8898 -0.2689 0.3686
vn -0.9027 -0.2131 0.3739
vn -0.9060 -0.1956 0.3753
vn -0.8946 -0.2499 0.3705
vn -0.2726 -0.9555 0.1129
vn -0.8652 -0.3508 0.3584
vn -0.5412 -0.8105 0.2242
vn -0.8334 -0.4315 0.3452
vn -0.7507 -0.5828 0.3110
vn -0.8182 -0.4645 0.3389
vn -0.2453 -0.9555 0.1639
vn -0.8051 -0.2499 0.5379
vn -0.7786 -0.3508 0.5203
vn -0.4870 -0.8105 0.3254
vn -0.7501 -0.4315 0.5012
vn -0.6756 -0.5828 0.4515
vn -0.7363 -0.4645 0.4920
vn -0.7673 -0.3851 0.5127
vn -0.8008 -0.2689 0.5351
vn -0.8124 -0.2131 0.5428
vn -0.8154 -0.1956 0.5448
vn -0.6526 -0.3851 0.6526
vn -0.6811 -0.2689 0.6811
vn -0.6909 -0.2131 0.6909
vn -0.6934 -0.1956 0.6934
vn -0.6847 -0.2499 0.6847
vn -0.2086 -0.9555 0.2086
vn -0.6622 -0.3508 0.6622
vn -0.4142 -0.8105 0.4142
vn -0.6379 -0.4315 0.6379
vn -0.5746 -0.5828 0.5746
vn -0.6262 -0.4645 0.6262
vn -0.5379 -0.2499 0.8051
vn -0.5203 -0.3508 0.7786
vn -0.1639 -0.9555 0.2453
vn -0.3254 -0.8105 0.4870
vn -0.5012 -0.4315 0.7501
vn -0.4515 -0.5828 0.6756
vn -0.4920 -0.4645 0.7363
vn -0.5127 -0.3851 0.7673
vn -0.5351 -0.2689 0.8008
vn -0.5428 -0.2131 0.8124
vn -0.5448 -0.1956 0.8154
vn -0.3686 -0.2689 0.8898
vn -0.3739 -0.2131 0.9027
vn -0.3753 -0.1956 0.9060
vn -0.3705 -0.2499 0.8946
vn -0.1129 -0.9555 0.2726
vn -0.3584 -0.3508 0.8652
vn -0.2242 -0.8105 0.5412
vn -0.3452 -0.4315 0.8334
vn -0.3110 -0.5828 0.7507
vn -0.3389 -0.4645 0.8182
vn -0.3532 -0.3851 0.8526
vn -0.0576 -0.9555 0.2894
vn -0.1143 -0.8105 0.5745
vn -0.1827 -0.3508 0.9185
vn -0.1760 -0.4315 0.8848
vn -0.1585 -0.5828 0.7970
vn -0.1728 -0.4645 0.8686
vn -0.1800 -0.3851 0.9051
vn -0.1879 -0.2689 0.9447
vn -0.1906 -0.2131 0.9583
vn -0.1913 -0.1956 0.9618
vn -0.1889 -0.2499 0.9497
vt 0.250000 0.605004
vt 0.250000 0.546189
vt 0.281250 0.546189
vt 0.281250 0.605004
vt 0.250000 0.681300
vt 0.281250 0.681300
vt 0.250000 0.749617
vt 0.281250 0.749617
vt 0.250000 0.057452
vt 0.265625 0.000000
vt 0.281250 0.057452
vt 0.250000 0.819066
vt 0.281250 0.819066
vt 0.250000 0.184588
vt 0.281250 0.184588
vt 0.250000 0.905469
vt 0.281250 0.905469
vt 0.250000 0.374167
vt 0.281250 0.374167
vt 0.250000 1.000000
vt 0.281250 1.000000
vt 0.250000 0.487625
vt 0.281250 0.487625
vt 0.312500 0.487625
vt 0.312500 0.546189
vt 0.312500 0.605004
vt 0.312500 0.681300
vt 0.312500 0.749617
vt 0.296875 0.000000
vt 0.312500 0.057452
vt 0.312500 0.819066
vt 0.312500 0.184588
vt 0.312500 0.905469
vt 0.312500 0.374167
vt 0.312500 1.000000
vt 0.328125 0.000000
vt 0.343750 0.057452
vt 0.343750 0.749617
vt 0.343750 0.819066
vt 0.343750 0.184588
vt 0.343750 0.905469
vt 0.343750 0.374167
vt 0.343750 1.000000
vt 0.343750 0.487625
vt 0.343750 0.546189
vt 0.343750 0.605004
vt 0.343750 0.681300
vt 0.375000 0.487625
vt 0.375000 0.546189
vt 0.375000 0.605004
vt 0.375000 0.681300
vt 0.375000 0.749617
vt 0.359375 0.000000
vt 0.375000 0.057452
vt 0.375000 0.819066
vt 0.375000 0.184588
vt 0.375000 0.905469
vt 0.375000 0.374167
vt 0.375000 1.000000
vt 0.406250 0.749617
vt 0.406250 0.819066
vt 0.406250 0.057452
vt 0.406250 0.184588
vt 0.406250 0.905469
vt 0.406250 0.374167
vt 0.406250 1.000000
vt 0.406250 0.487625
vt 0.406250 0.546189
vt 0.406250 0.605004
vt 0.406250 0.681300
vt 0.390625 0.000000
vt 0.437500 0.546189
vt 0.437500 0.605004
vt 0.437500 0.681300
vt 0.437500 0.749617
vt 0.421875 0.000000
vt 0.437500 0.057452
vt 0.437500 0.819066
vt 0.437500 0.184588
vt 0.437500 0.905469
vt 0.437500 0.374167
vt 0.437500 1.000000
vt 0.437500 0.487625
vt 0.468750 0.819066
vt 0.468750 0.905469
vt 0.468750 0.184588
vt 0.468750 0.374167
vt 0.468750 1.000000
vt 0.468750 0.487625
vt 0.468750 0.546189
vt 0.468750 0.605004
vt 0.468750 0.681300
vt 0.468750 0.749617
vt 0.453125 0.000000
vt 0.468750 0.057452
vt 0.500000 0.605004
vt 0.500000 0.681300
vt 0.500000 0.749617
vt 0.484375 0.000000
vt 0.500000 0.057452
vt 0.500000 0.819066
vt 0.500000 0.184588
vt 0.500000 0.905469
vt 0.500000 0.374167
vt 0.500000 1.000000
vt 0.500000 0.487625
vt 0.500000 0.546189
vt 0.531250 0.184588
vt 0.531250 0.374167
vt 0.531250 0.905469
vt 0.531250 1.000000
vt 0.531250 0.487625
vt 0.531250 0.546189
vt 0.531250 0.605004
vt 0.531250 0.681300
vt 0.531250 0.749617
vt 0.515625 0.000000
vt 0.531250 0.057452
vt 0.531250 0.819066
vt 0.562500 0.605004
vt 0.562500 0.681300
vt 0.562500 0.749617
vt 0.546875 0.000000
vt 0.562500 0.057452
vt 0.562500 0.819066
vt 0.562500 0.184588
vt 0.562500 0.905469
vt 0.562500 0.374167
vt 0.562500 1.000000
vt 0.562500 0.487625
vt 0.562500 0.546189
vt 0.593750 0.905469
vt 0.593750 1.000000
vt 0.593750 0.374167
vt 0.593750 0.487625
vt 0.593750 0.546189
vt 0.593750 0.605004
vt 0.593750 0.681300
vt 0.593750 0.749617
vt 0.578125 0.000000
vt 0.593750 0.057452
vt 0.593750 0.819066
vt 0.593750 0.184588
vt 0.625000 0.681300
vt 0.625000 0.749617
vt 0.609375 0.000000
vt 0.625000 0.057452
vt 0.625000 0.819066
vt 0.625000 0.184588
vt 0.625000 0.905469
vt 0.625000 0.374167
vt 0.625000 1.000000
vt 0.625000 0.487625
vt 0.625000 0.546189
vt 0.625000 0.605004
vt 0.656250 0.374167
vt 0.656250 0.487625
vt 0.656250 0.546189
vt 0.656250 0.605004
vt 0.656250 0.681300
vt 0.656250 0.749617
vt 0.640625 0.000000
vt 0.656250 0.057452
vt 0.656250 0.819066
vt 0.656250 0.184588
vt 0.656250 0.905469
vt 0.656250 1.000000
vt 0.687500 0.681300
vt 0.687500 0.749617
vt 0.671875 0.000000
vt 0.687500 0.057452
vt 0.687500 0.819066
vt 0.687500 0.184588
vt 0.687500 0.905469
vt 0.687500 0.374167
vt 0.687500 1.000000
vt 0.687500 0.487625
vt 0.687500 0.546189
vt 0.687500 0.605004
vt 0.718750 0.487625
vt 0.718750 0.546189
vt 0.718750 0.605004
vt 0.718750 0.681300
vt 0.718750 0.749617
vt 0.703125 0.000000
vt 0.718750 0.057452
vt 0.718750 0.819066
vt 0.718750 0.184588
vt 0.718750 0.905469
vt 0.718750 0.374167
vt 0.718750 1.000000
vt 0.750000 0.749617
vt 0.750000 0.819066
vt 0.750000 0.057452
vt 0.750000 0.184588
vt 0.750000 0.905469
vt 0.750000 0.374167
vt 0.750000 1.000000
vt 0.750000 0.487625
vt 0.750000 0.546189
vt 0.750000 0.605004
vt 0.750000 0.681300
vt 0.734375 0.000000
vt 0.781250 0.546189
vt 0.781250 0.605004
vt 0.781250 0.681300
vt 0.781250 0.749617
vt 0.765625 0.000000
vt 0.781250 0.057452
vt 0.781250 0.819066
vt 0.781250 0.184588
vt 0.781250 0.905469
vt 0.781250 0.374167
vt 0.781250 1.000000
vt 0.781250 0.487625
vt 0.812500 0.057452
vt 0.812500 0.184588
vt 0.812500 0.819066
vt 0.812500 0.905469
vt 0.812500 0.374167
vt 0.812500 1.000000
vt 0.812500 0.487625
vt 0.812500 0.546189
vt 0.812500 0.605004
vt 0.812500 0.681300
vt 0.812500 0.749617
vt 0.796875 0.000000
vt 0.843750 0.546189
vt 0.843750 0.605004
vt 0.843750 0.681300
vt 0.843750 0.749617
vt 0.828125 0.000000
vt 0.843750 0.057452
vt 0.843750 0.819066
vt 0.843750 0.184588
vt 0.843750 0.905469
vt 0.843750 0.374167
vt 0.843750 1.000000
vt 0.843750 0.487625
vt 0.875000 0.819066
vt 0.875000 0.905469
vt 0.875000 0.184588
vt 0.875000 0.374167
vt 0.875000 1.000000
vt 0.875000 0.487625
vt 0.875000 0.546189
vt 0.875000 0.605004
vt 0.875000 0.681300
vt 0.875000 0.749617
vt 0.859375 0.000000
vt 0.875000 0.057452
vt 0.906250 0.605004
vt 0.906250 0.681300
vt 0.906250 0.749617
vt 0.890625 0.000000
vt 0.906250 0.057452
vt 0.906250 0.819066
vt 0.906250 0.184588
vt 0.906250 0.905469
vt 0.906250 0.374167
vt 0.906250 1.000000
vt 0.906250 0.487625
vt 0.906250 0.546189
vt 0.937500 0.184588
vt 0.937500 0.374167
vt 0.937500 0.905469
vt 0.937500 1.000000
vt 0.937500 0.487625
vt 0.937500 0.546189
vt 0.937500 0.605004
vt 0.937500 0.681300
vt 0.937500 0.749617
vt 0.921875 0.000000
vt 0.937500 0.057452
vt 0.937500 0.819066
vt 0.968750 0.605004
vt 0.968750 0.681300
vt 0.968750 0.749617
vt 0.953125 0.000000
vt 0.968750 0.057452
vt 0.968750 0.819066
vt 0.968750 0.184588
vt 0.968750 0.905469
vt 0.968750 0.374167
vt 0.968750 1.000000
vt 0.968750 0.487625
vt 0.968750 0.546189
vt 1.000000 0.905469
vt 1.000000 1.000000
vt 1.000000 0.374167
vt 1.000000 0.487625
vt 1.000000 0.546189
vt 1.000000 0.605004
vt 1.000000 0.681300
vt 1.000000 0.749617
vt 0.984375 0.000000
vt 1.000000 0.057452
vt 1.000000 0.819066
vt 1.000000 0.184588
vt 0.000000 0.749617
vt 0.000000 0.681300
vt 0.031250 0.681300
vt 0.031250 0.749617
vt 0.000000 0.057452
vt 0.015625 0.000000
vt 0.031250 0.057452
vt 0.000000 0.819066
vt 0.031250 0.819066
vt 0.000000 0.184588
vt 0.031250 0.184588
vt 0.000000 0.905469
vt 0.031250 0.905469
vt 0.000000 0.374167
vt 0.031250 0.374167
vt 0.000000 1.000000
vt 0.031250 1.000000
vt 0.000000 0.487625
vt 0.031250 0.487625
vt 0.000000 0.546189
vt 0.031250 0.546189
vt 0.000000 0.605004
vt 0.031250 0.605004
vt 0.062500 0.487625
vt 0.062500 0.546189
vt 0.062500 0.605004
vt 0.062500 0.681300
vt 0.062500 0.749617
vt 0.046875 0.000000
vt 0.062500 0.057452
vt 0.062500 0.819066
vt 0.062500 0.184588
vt 0.062500 0.905469
vt 0.062500 0.374167
vt 0.062500 1.000000
vt 0.078125 0.000000
vt 0.093750 0.057452
vt 0.093750 0.749617
vt 0.093750 0.819066
vt 0.093750 0.184588
vt 0.093750 0.905469
vt 0.093750 0.374167
vt 0.093750 1.000000
vt 0.093750 0.487625
vt 0.093750 0.546189
vt 0.093750 0.605004
vt 0.093750 0.681300
vt 0.125000 0.487625
vt 0.125000 0.546189
vt 0.125000 0.605004
vt 0.125000 0.681300
vt 0.125000 0.749617
vt 0.109375 0.000000
vt 0.125000 0.057452
vt 0.125000 0.819066
vt 0.125000 0.184588
vt 0.125000 0.905469
vt 0.125000 0.374167
vt 0.125000 1.000000
vt 0.156250 0.749617
vt 0.156250 0.819066
vt 0.156250 0.057452
vt 0.156250 0.184588
vt 0.156250 0.905469
vt 0.156250 0.374167
vt 0.156250 1.000000
vt 0.156250 0.487625
vt 0.156250 0.546189
vt 0.156250 0.605004
vt 0.156250 0.681300
vt 0.140625 0.000000
vt 0.187500 0.546189
vt 0.187500 0.605004
vt 0.187500 0.681300
vt 0.187500 0.749617
vt 0.171875 0.000000
vt 0.187500 0.057452
vt 0.187500 0.819066
vt 0.187500 0.184588
vt 0.187500 0.905469
vt 0.187500 0.374167
vt 0.187500 1.000000
vt 0.187500 0.487625
vt 0.218750 0.057452
vt 0.218750 0.184588
vt 0.218750 0.819066
vt 0.218750 0.905469
vt 0.218750 0.374167
vt 0.218750 1.000000
vt 0.218750 0.487625
vt 0.218750 0.546189
vt 0.218750 0.605004
vt 0.218750 0.681300
vt 0.218750 0.749617
vt 0.203125 0.000000
vt 0.234375 0.000000
vt 0.503982 0.601050
vt 0.503982 0.517370
vt 0.534983 0.517370
vt 0.534983 0.601050
vt 0.503982 0.720778
vt 0.534983 0.720778
vt 0.503982 0.786703
vt 0.534983 0.786703
vt 0.503982 0.041452
vt 0.281190 0.000000
vt 0.534983 0.041452
vt 0.503982 0.849195
vt 0.534983 0.849195
vt 0.503982 0.132287
vt 0.534983 0.132287
vt 0.503982 0.928037
vt 0.534983 0.928037
vt 0.503982 0.258433
vt 0.534983 0.258433
vt 0.503982 1.000000
vt 0.534983 1.000000
vt 0.503982 0.400117
vt 0.534983 0.400117
vt 0.565984 0.400117
vt 0.565984 0.517370
vt 0.565984 0.601050
vt 0.565984 0.720778
vt 0.565984 0.786703
vt 0.565984 0.041452
vt 0.565984 0.849195
vt 0.565984 0.132287
vt 0.565984 0.928037
vt 0.565984 0.258433
vt 0.565984 1.000000
vt 0.729457 0.000006
vt 0.596985 0.041452
vt 0.596985 0.786703
vt 0.596985 0.849195
vt 0.596985 0.132287
vt 0.596985 0.928037
vt 0.596985 0.258433
vt 0.596985 1.000000
vt 0.596985 0.400117
vt 0.596985 0.517370
vt 0.596985 0.601050
vt 0.596985 0.720778
vt 0.627986 0.400117
vt 0.627986 0.517370
vt 0.627986 0.601050
vt 0.627986 0.720778
vt 0.627986 0.786703
vt 0.627986 0.041452
vt 0.627986 0.849195
vt 0.627986 0.132287
vt 0.627986 0.928037
vt 0.627986 0.258433
vt 0.627986 1.000000
vt 0.658988 0.786703
vt 0.658988 0.849195
vt 0.658988 0.041452
vt 0.658988 0.132287
vt 0.658988 0.928037
vt 0.658988 0.258433
vt 0.658988 1.000000
vt 0.658988 0.400117
vt 0.658988 0.517370
vt 0.658988 0.601050
vt 0.658988 0.720778
vt 0.689989 0.517370
vt 0.689989 0.601050
vt 0.689989 0.720778
vt 0.689989 0.786703
vt 0.689989 0.041452
vt 0.689989 0.849195
vt 0.689989 0.132287
vt 0.689989 0.928037
vt 0.689989 0.258433
vt 0.689989 1.000000
vt 0.689989 0.400117
vt 0.720990 0.849195
vt 0.720990 0.928037
vt 0.720990 0.132287
vt 0.720990 0.258433
vt 0.720990 1.000000
vt 0.720990 0.400117
vt 0.720990 0.517370
vt 0.720990 0.601050
vt 0.720990 0.720778
vt 0.720990 0.786703
vt 0.720990 0.041452
vt 0.751991 0.601050
vt 0.751991 0.720778
vt 0.751991 0.786703
vt 0.751991 0.041452
vt 0.751991 0.849195
vt 0.751991 0.132287
vt 0.751991 0.928037
vt 0.751991 0.258433
vt 0.751991 1.000000
vt 0.751991 0.400117
vt 0.751991 0.517370
vt 0.782992 0.132287
vt 0.782992 0.258433
vt 0.782992 0.928037
vt 0.782992 1.000000
vt 0.782992 0.400117
vt 0.782992 0.517370
vt 0.782992 0.601050
vt 0.782992 0.720778
vt 0.782992 0.786703
vt 0.782992 0.041452
vt 0.782992 0.849195
vt 0.813993 0.601050
vt 0.813993 0.720778
vt 0.813993 0.786703
vt 0.813993 0.041452
vt 0.813993 0.849195
vt 0.813993 0.132287
vt 0.813993 0.928037
vt 0.813993 0.258433
vt 0.813993 1.000000
vt 0.813993 0.400117
vt 0.813993 0.517370
vt 0.844994 0.928037
vt 0.844994 1.000000
vt 0.844994 0.258433
vt 0.844994 0.400117
vt 0.844994 0.517370
vt 0.844994 0.601050
vt 0.844994 0.720778
vt 0.844994 0.786703
vt 0.844994 0.041452
vt 0.844994 0.849195
vt 0.844994 0.132287
vt 0.875995 0.720778
vt 0.875995 0.786703
vt 0.875995 0.041452
vt 0.875995 0.849195
vt 0.875995 0.132287
vt 0.875995 0.928037
vt 0.875995 0.258433
vt 0.875995 1.000000
vt 0.875995 0.400117
vt 0.875995 0.517370
vt 0.875995 0.601050
vt 0.906997 0.258433
vt 0.906997 0.400117
vt 0.906997 0.517370
vt 0.906997 0.601050
vt 0.906997 0.720778
vt 0.906997 0.786703
vt 0.906997 0.041452
vt 0.906997 0.849195
vt 0.906997 0.132287
vt 0.906997 0.928037
vt 0.906997 1.000000
vt 0.937998 0.720778
vt 0.937998 0.786703
vt 0.937998 0.041452
vt 0.937998 0.849195
vt 0.937998 0.132287
vt 0.937998 0.928037
vt 0.937998 0.258433
vt 0.937998 1.000000
vt 0.937998 0.400117
vt 0.937998 0.517370
vt 0.937998 0.601050
vt 0.968999 0.400117
vt 0.968999 0.517370
vt 0.968999 0.601050
vt 0.968999 0.720778
vt 0.968999 0.786703
vt 0.968999 0.041452
vt 0.968999 0.849195
vt 0.968999 0.132287
vt 0.968999 0.928037
vt 0.968999 0.258433
vt 0.968999 1.000000
vt 1.000000 0.786703
vt 1.000000 0.849195
vt 1.000000 0.041452
vt 1.000000 0.132287
vt 1.000000 0.928037
vt 1.000000 0.258433
vt 1.000000 0.400117
vt 1.000000 0.517370
vt 1.000000 0.601050
vt 1.000000 0.720778
vt 0.007966 0.601050
vt 0.007966 0.517370
vt 0.038967 0.517370
vt 0.038967 0.601050
vt 0.007966 0.720778
vt 0.038967 0.720778
vt 0.007966 0.786703
vt 0.038967 0.786703
vt 0.038967 0.041452
vt 0.007966 0.849195
vt 0.038967 0.849195
vt 0.007966 0.132287
vt 0.007966 0.041452
vt 0.038967 0.132287
vt 0.007966 0.928037
vt 0.038967 0.928037
vt 0.007966 0.258433
vt 0.038967 0.258433
vt 0.007966 1.000000
vt 0.038967 1.000000
vt 0.007966 0.400117
vt 0.038967 0.400117
vt 0.069968 0.041452
vt 0.069968 0.132287
vt 0.069968 0.849195
vt 0.069968 0.928037
vt 0.069968 0.258433
vt 0.069968 1.000000
vt 0.069968 0.400117
vt 0.069968 0.517370
vt 0.069968 0.601050
vt 0.069968 0.720778
vt 0.069968 0.786703
vt 0.100969 0.517370
vt 0.100969 0.601050
vt 0.100969 0.720778
vt 0.100969 0.786703
vt 0.100969 0.041452
vt 0.100969 0.849195
vt 0.100969 0.132287
vt 0.100969 0.928037
vt 0.100969 0.258433
vt 0.100969 1.000000
vt 0.100969 0.400117
vt 0.131970 0.849195
vt 0.131970 0.928037
vt 0.131970 0.132287
vt 0.131970 0.258433
vt 0.131970 1.000000
vt 0.131970 0.400117
vt 0.131970 0.517370
vt 0.131970 0.601050
vt 0.131970 0.720778
vt 0.131970 0.786703
vt 0.131970 0.041452
vt 0.162971 0.601050
vt 0.162971 0.720778
vt 0.162971 0.786703
vt 0.162971 0.041452
vt 0.162971 0.849195
vt 0.162971 0.132287
vt 0.162971 0.928037
vt 0.162971 0.258433
vt 0.162971 1.000000
vt 0.162971 0.400117
vt 0.162971 0.517370
vt 0.193972 0.132287
vt 0.193972 0.258433
vt 0.193972 0.928037
vt 0.193972 1.000000
vt 0.193972 0.400117
vt 0.193972 0.517370
vt 0.193972 0.601050
vt 0.193972 0.720778
vt 0.193972 0.786703
vt 0.193972 0.041452
vt 0.193972 0.849195
vt 0.224973 0.601050
vt 0.224973 0.720778
vt 0.224973 0.786703
vt 0.224973 0.041452
vt 0.224973 0.849195
vt 0.224973 0.132287
vt 0.224973 0.928037
vt 0.224973 0.258433
vt 0.224973 1.000000
vt 0.224973 0.400117
vt 0.224973 0.517370
vt 0.255974 0.928037
vt 0.255974 1.000000
vt 0.255974 0.258433
vt 0.255974 0.400117
vt 0.255974 0.517370
vt 0.255974 0.601050
vt 0.255974 0.720778
vt 0.255974 0.786703
vt 0.255974 0.041452
vt 0.255974 0.849195
vt 0.255974 0.132287
vt 0.286975 0.720778
vt 0.286975 0.786703
vt 0.286975 0.041452
vt 0.286975 0.849195
vt 0.286975 0.132287
vt 0.286975 0.928037
vt 0.286975 0.258433
vt 0.286975 1.000000
vt 0.286975 0.400117
vt 0.286975 0.517370
vt 0.286975 0.601050
vt 0.317976 0.400117
vt 0.317976 0.517370
vt 0.317976 0.601050
vt 0.317976 0.720778
vt 0.317976 0.786703
vt 0.317976 0.041452
vt 0.317976 0.849195
vt 0.317976 0.132287
vt 0.317976 0.928037
vt 0.317976 0.258433
vt 0.317976 1.000000
vt 0.348977 0.041452
vt 0.348977 0.786703
vt 0.348977 0.849195
vt 0.348977 0.132287
vt 0.348977 0.928037
vt 0.348977 0.258433
vt 0.348977 1.000000
vt 0.348977 0.400117
vt 0.348977 0.517370
vt 0.348977 0.601050
vt 0.348977 0.720778
vt 0.379978 0.400117
vt 0.379978 0.517370
vt 0.379978 0.601050
vt 0.379978 0.720778
vt 0.379978 0.786703
vt 0.379978 0.041452
vt 0.379978 0.849195
vt 0.379978 0.132287
vt 0.379978 0.928037
vt 0.379978 0.258433
vt 0.379978 1.000000
vt 0.410979 0.786703
vt 0.410979 0.849195
vt 0.410979 0.041452
vt 0.410979 0.132287
vt 0.410979 0.928037
vt 0.410979 0.258433
vt 0.410979 1.000000
vt 0.410979 0.400117
vt 0.410979 0.517370
vt 0.410979 0.601050
vt 0.410979 0.720778
vt 0.441980 0.517370
vt 0.441980 0.601050
vt 0.441980 0.720778
vt 0.441980 0.786703
vt 0.441980 0.041452
vt 0.441980 0.849195
vt 0.441980 0.132287
vt 0.441980 0.928037
vt 0.441980 0.258433
vt 0.441980 1.000000
vt 0.441980 0.400117
vt 0.472981 0.041452
vt 0.472981 0.132287
vt 0.472981 0.849195
vt 0.472981 0.928037
vt 0.472981 0.258433
vt 0.472981 1.000000
vt 0.472981 0.400117
vt 0.472981 0.517370
vt 0.472981 0.601050
vt 0.472981 0.720778
vt 0.472981 0.786703
s 1
f 352/1/1 2/2/2 11/3/3 12/4/4
f 3/5/5 352/1/1 12/4/4 13/6/6
f 4/7/7 3/5/5 13/6/6 14/8/8
f 349/9/9 62/10/10 7/11/11
f 5/12/12 4/7/7 14/8/8 15/13/13
f 350/14/14 349/9/9 7/11/11 8/15/15
f 353/16/16 5/12/12 15/13/13 16/17/17
f 1/18/18 350/14/14 8/15/15 9/19/19
f 6/20/20 353/16/16 16/17/17 17/21/21
f 351/22/22 1/18/18 9/19/19 10/23/23
f 2/2/2 351/22/22 10/23/23 11/3/3
f 11/3/3 10/23/23 21/24/24 22/25/25
f 12/4/4 11/3/3 22/25/25 23/26/26
f 13/6/6 12/4/4 23/26/26 24/27/27
f 14/8/8 13/6/6 24/27/27 25/28/28
f 7/11/11 62/29/10 18/30/29
f 15/13/13 14/8/8 25/28/28 26/31/30
f 8/15/15 7/11/11 18/30/29 19/32/31
f 16/17/17 15/13/13 26/31/30 27/33/32
f 9/19/19 8/15/15 19/32/31 20/34/33
f 17/21/21 16/17/17 27/33/32 28/35/34
f 10/23/23 9/19/19 20/34/33 21/24/24
f 18/30/29 62/36/10 29/37/35
f 26/31/30 25/28/28 36/38/36 37/39/37
f 19/32/31 18/30/29 29/37/35 30/40/38
f 27/33/32 26/31/30 37/39/37 38/41/39
f 20/34/33 19/32/31 30/40/38 31/42/40
f 28/35/34 27/33/32 38/41/39 39/43/41
f 21/24/24 20/34/33 31/42/40 32/44/42
f 22/25/25 21/24/24 32/44/42 33/45/43
f 23/26/26 22/25/25 33/45/43 34/46/44
f 24/27/27 23/26/26 34/46/44 35/47/45
f 25/28/28 24/27/27 35/47/45 36/38/36
f 33/45/43 32/44/42 43/48/46 44/49/47
f 34/46/44 33/45/43 44/49/47 45/50/48
f 35/47/45 34/46/44 45/50/48 46/51/49
f 36/38/36 35/47/45 46/51/49 47/52/50
f 29/37/35 62/53/10 40/54/51
f 37/39/37 36/38/36 47/52/50 48/55/52
f 30/40/38 29/37/35 40/54/51 41/56/53
f 38/41/39 37/39/37 48/55/52 49/57/54
f 31/42/40 30/40/38 41/56/53 42/58/55
f 39/43/41 38/41/39 49/57/54 50/59/56
f 32/44/42 31/42/40 42/58/55 43/48/46
f 48/55/52 47/52/50 58/60/57 59/61/58
f 41/56/53 40/54/51 51/62/59 52/63/60
f 49/57/54 48/55/52 59/61/58 60/64/61
f 42/58/55 41/56/53 52/63/60 53/65/62
f 50/59/56 49/57/54 60/64/61 61/66/63
f 43/48/46 42/58/55 53/65/62 54/67/64
f 44/49/47 43/48/46 54/67/64 55/68/65
f 45/50/48 44/49/47 55/68/65 56/69/66
f 46/51/49 45/50/48 56/69/66 57/70/67
f 47/52/50 46/51/49 57/70/67 58/60/57
f 40/54/51 62/71/10 51/62/59
f 56/69/66 55/68/65 67/72/68 68/73/69
f 57/70/67 56/69/66 68/73/69 69/74/70
f 58/60/57 57/70/67 69/74/70 70/75/71
f 51/62/59 62/76/10 63/77/72
f 59/61/58 58/60/57 70/75/71 71/78/73
f 52/63/60 51/62/59 63/77/72 64/79/74
f 60/64/61 59/61/58 71/78/73 72/80/75
f 53/65/62 52/63/60 64/79/74 65/81/76
f 61/66/63 60/64/61 72/80/75 73/82/77
f 54/67/64 53/65/62 65/81/76 66/83/78
f 55/68/65 54/67/64 66/83/78 67/72/68
f 72/80/75 71/78/73 82/84/79 83/85/80
f 65/81/76 64/79/74 75/86/81 76/87/82
f 73/82/77 72/80/75 83/85/80 84/88/83
f 66/83/78 65/81/76 76/87/82 77/89/84
f 67/72/68 66/83/78 77/89/84 78/90/85
f 68/73/69 67/72/68 78/90/85 79/91/86
f 69/74/70 68/73/69 79/91/86 80/92/87
f 70/75/71 69/74/70 80/92/87 81/93/88
f 63/77/72 62/94/10 74/95/89
f 71/78/73 70/75/71 81/93/88 82/84/79
f 64/79/74 63/77/72 74/95/89 75/86/81
f 80/92/87 79/91/86 90/96/90 91/97/91
f 81/93/88 80/92/87 91/97/91 92/98/92
f 74/95/89 62/99/10 85/100/93
f 82/84/79 81/93/88 92/98/92 93/101/94
f 75/86/81 74/95/89 85/100/93 86/102/95
f 83/85/80 82/84/79 93/101/94 94/103/96
f 76/87/82 75/86/81 86/102/95 87/104/97
f 84/88/83 83/85/80 94/103/96 95/105/98
f 77/89/84 76/87/82 87/104/97 88/106/99
f 78/90/85 77/89/84 88/106/99 89/107/100
f 79/91/86 78/90/85 89/107/100 90/96/90
f 87/104/97 86/102/95 97/108/101 98/109/102
f 95/105/98 94/103/96 105/110/103 106/111/104
f 88/106/99 87/104/97 98/109/102 99/112/105
f 89/107/100 88/106/99 99/112/105 100/113/106
f 90/96/90 89/107/100 100/113/106 101/114/107
f 91/97/91 90/96/90 101/114/107 102/115/108
f 92/98/92 91/97/91 102/115/108 103/116/109
f 85/100/93 62/117/10 96/118/110
f 93/101/94 92/98/92 103/116/109 104/119/111
f 86/102/95 85/100/93 96/118/110 97/108/101
f 94/103/96 93/101/94 104/119/111 105/110/103
f 102/115/108 101/114/107 112/120/112 113/121/113
f 103/116/109 102/115/108 113/121/113 114/122/114
f 96/118/110 62/123/10 107/124/115
f 104/119/111 103/116/109 114/122/114 115/125/116
f 97/108/101 96/118/110 107/124/115 108/126/117
f 105/110/103 104/119/111 115/125/116 116/127/118
f 98/109/102 97/108/101 108/126/117 109/128/119
f 106/111/104 105/110/103 116/127/118 117/129/120
f 99/112/105 98/109/102 109/128/119 110/130/121
f 100/113/106 99/112/105 110/130/121 111/131/122
f 101/114/107 100/113/106 111/131/122 112/120/112
f 117/129/120 116/127/118 127/132/123 128/133/124
f 110/130/121 109/128/119 120/134/125 121/135/126
f 111/131/122 110/130/121 121/135/126 122/136/127
f 112/120/112 111/131/122 122/136/127 123/137/128
f 113/121/113 112/120/112 123/137/128 124/138/129
f 114/122/114 113/121/113 124/138/129 125/139/130
f 107/124/115 62/140/10 118/141/131
f 115/125/116 114/122/114 125/139/130 126/142/132
f 108/126/117 107/124/115 118/141/131 119/143/133
f 116/127/118 115/125/116 126/142/132 127/132/123
f 109/128/119 108/126/117 119/143/133 120/134/125
f 125/139/130 124/138/129 135/144/134 136/145/135
f 118/141/131 62/146/10 129/147/136
f 126/142/132 125/139/130 136/145/135 137/148/137
f 119/143/133 118/141/131 129/147/136 130/149/138
f 127/132/123 126/142/132 137/148/137 138/150/139
f 120/134/125 119/143/133 130/149/138 131/151/140
f 128/133/124 127/132/123 138/150/139 139/152/141
f 121/135/126 120/134/125 131/151/140 132/153/142
f 122/136/127 121/135/126 132/153/142 133/154/143
f 123/137/128 122/136/127 133/154/143 134/155/144
f 124/138/129 123/137/128 134/155/144 135/144/134
f 132/153/142 131/151/140 142/156/145 143/157/146
f 133/154/143 132/153/142 143/157/146 144/158/147
f 134/155/144 133/154/143 144/158/147 145/159/148
f 135/144/134 134/155/144 145/159/148 146/160/149
f 136/145/135 135/144/134 146/160/149 147/161/150
f 129/147/136 62/162/10 140/163/151
f 137/148/137 136/145/135 147/161/150 148/164/152
f 130/149/138 129/147/136 140/163/151 141/165/153
f 138/150/139 137/148/137 148/164/152 149/166/154
f 131/151/140 130/149/138 141/165/153 142/156/145
f 139/152/141 138/150/139 149/166/154 150/167/155
f 147/161/150 146/160/149 157/168/156 158/169/157
f 140/163/151 62/170/10 151/171/158
f 148/164/152 147/161/150 158/169/157 159/172/159
f 141/165/153 140/163/151 151/171/158 152/173/160
f 149/166/154 148/164/152 159/172/159 160/174/161
f 142/156/145 141/165/153 152/173/160 153/175/162
f 150/167/155 149/166/154 160/174/161 161/176/163
f 143/157/146 142/156/145 153/175/162 154/177/164
f 144/158/147 143/157/146 154/177/164 155/178/165
f 145/159/148 144/158/147 155/178/165 156/179/166
f 146/160/149 145/159/148 156/179/166 157/168/156
f 155/178/165 154/177/164 165/180/167 166/181/168
f 156/179/166 155/178/165 166/181/168 167/182/169
f 157/168/156 156/179/166 167/182/169 168/183/170
f 158/169/157 157/168/156 168/183/170 169/184/171
f 151/171/158 62/185/10 162/186/172
f 159/172/159 158/169/157 169/184/171 170/187/173
f 152/173/160 151/171/158 162/186/172 163/188/174
f 160/174/161 159/172/159 170/187/173 171/189/175
f 153/175/162 152/173/160 163/188/174 164/190/176
f 161/176/163 160/174/161 171/189/175 172/191/177
f 154/177/164 153/175/162 164/190/176 165/180/167
f 170/187/173 169/184/171 180/192/178 181/193/179
f 163/188/174 162/186/172 173/194/180 174/195/181
f 171/189/175 170/187/173 181/193/179 182/196/182
f 164/190/176 163/188/174 174/195/181 175/197/183
f 172/191/177 171/189/175 182/196/182 183/198/184
f 165/180/167 164/190/176 175/197/183 176/199/185
f 166/181/168 165/180/167 176/199/185 177/200/186
f 167/182/169 166/181/168 177/200/186 178/201/187
f 168/183/170 167/182/169 178/201/187 179/202/188
f 169/184/171 168/183/170 179/202/188 180/192/178
f 162/186/172 62/203/10 173/194/180
f 178/201/187 177/200/186 188/204/189 189/205/190
f 179/202/188 178/201/187 189/205/190 190/206/191
f 180/192/178 179/202/188 190/206/191 191/207/192
f 173/194/180 62/208/10 184/209/193
f 181/193/179 180/192/178 191/207/192 192/210/194
f 174/195/181 173/194/180 184/209/193 185/211/195
f 182/196/182 181/193/179 192/210/194 193/212/196
f 175/197/183 174/195/181 185/211/195 186/213/197
f 183/198/184 182/196/182 193/212/196 194/214/198
f 176/199/185 175/197/183 186/213/197 187/215/199
f 177/200/186 176/199/185 187/215/199 188/204/189
f 185/211/195 184/209/193 195/216/200 196/217/201
f 193/212/196 192/210/194 203/218/202 204/219/203
f 186/213/197 185/211/195 196/217/201 197/220/204
f 194/214/198 193/212/196 204/219/203 205/221/205
f 187/215/199 186/213/197 197/220/204 198/222/206
f 188/204/189 187/215/199 198/222/206 199/223/207
f 189/205/190 188/204/189 199/223/207 200/224/208
f 190/206/191 189/205/190 200/224/208 201/225/209
f 191/207/192 190/206/191 201/225/209 202/226/210
f 184/209/193 62/227/10 195/216/200
f 192/210/194 191/207/192 202/226/210 203/218/202
f 200/224/208 199/223/207 210/228/211 211/229/212
f 201/225/209 200/224/208 211/229/212 212/230/213
f 202/226/210 201/225/209 212/230/213 213/231/214
f 195/216/200 62/232/10 206/233/215
f 203/218/202 202/226/210 213/231/214 214/234/216
f 196/217/201 195/216/200 206/233/215 207/235/217
f 204/219/203 203/218/202 214/234/216 215/236/218
f 197/220/204 196/217/201 207/235/217 208/237/219
f 205/221/205 204/219/203 215/236/218 216/238/220
f 198/222/206 197/220/204 208/237/219 209/239/221
f 199/223/207 198/222/206 209/239/221 210/228/211
f 215/236/218 214/234/216 225/240/222 226/241/223
f 208/237/219 207/235/217 218/242/224 219/243/225
f 216/238/220 215/236/218 226/241/223 227/244/226
f 209/239/221 208/237/219 219/243/225 220/245/227
f 210/228/211 209/239/221 220/245/227 221/246/228
f 211/229/212 210/228/211 221/246/228 222/247/229
f 212/230/213 211/229/212 222/247/229 223/248/230
f 213/231/214 212/230/213 223/248/230 224/249/231
f 206/233/215 62/250/10 217/251/232
f 214/234/216 213/231/214 224/249/231 225/240/222
f 207/235/217 206/233/215 217/251/232 218/242/224
f 223/248/230 222/247/229 233/252/233 234/253/234
f 224/249/231 223/248/230 234/253/234 235/254/235
f 217/251/232 62/255/10 228/256/236
f 225/240/222 224/249/231 235/254/235 236/257/237
f 218/242/224 217/251/232 228/256/236 229/258/238
f 226/241/223 225/240/222 236/257/237 237/259/239
f 219/243/225 218/242/224 229/258/238 230/260/240
f 227/244/226 226/241/223 237/259/239 238/261/241
f 220/245/227 219/243/225 230/260/240 231/262/242
f 221/246/228 220/245/227 231/262/242 232/263/243
f 222/247/229 221/246/228 232/263/243 233/252/233
f 230/260/240 229/258/238 240/264/244 241/265/245
f 238/261/241 237/259/239 248/266/246 249/267/247
f 231/262/242 230/260/240 241/265/245 242/268/248
f 232/263/243 231/262/242 242/268/248 243/269/249
f 233/252/233 232/263/243 243/269/249 244/270/250
f 234/253/234 233/252/233 244/270/250 245/271/251
f 235/254/235 234/253/234 245/271/251 246/272/252
f 228/256/236 62/273/10 239/274/253
f 236/257/237 235/254/235 246/272/252 247/275/254
f 229/258/238 228/256/236 239/274/253 240/264/244
f 237/259/239 236/257/237 247/275/254 248/266/246
f 245/271/251 244/270/250 255/276/255 256/277/256
f 246/272/252 245/271/251 256/277/256 257/278/257
f 239/274/253 62/279/10 250/280/258
f 247/275/254 246/272/252 257/278/257 258/281/259
f 240/264/244 239/274/253 250/280/258 251/282/260
f 248/266/246 247/275/254 258/281/259 259/283/261
f 241/265/245 240/264/244 251/282/260 252/284/262
f 249/267/247 248/266/246 259/283/261 260/285/263
f 242/268/248 241/265/245 252/284/262 253/286/264
f 243/269/249 242/268/248 253/286/264 254/287/265
f 244/270/250 243/269/249 254/287/265 255/276/255
f 260/285/263 259/283/261 270/288/266 271/289/267
f 253/286/264 252/284/262 263/290/268 264/291/269
f 254/287/265 253/286/264 264/291/269 265/292/270
f 255/276/255 254/287/265 265/292/270 266/293/271
f 256/277/256 255/276/255 266/293/271 267/294/272
f 257/278/257 256/277/256 267/294/272 268/295/273
f 250/280/258 62/296/10 261/297/274
f 258/281/259 257/278/257 268/295/273 269/298/275
f 251/282/260 250/280/258 261/297/274 262/299/276
f 259/283/261 258/281/259 269/298/275 270/288/266
f 252/284/262 251/282/260 262/299/276 263/290/268
f 268/300/273 267/301/272 278/302/277 279/303/278
f 261/304/274 62/305/10 272/306/279
f 269/307/275 268/300/273 279/303/278 280/308/280
f 262/309/276 261/304/274 272/306/279 273/310/281
f 270/311/266 269/307/275 280/308/280 281/312/282
f 263/313/268 262/309/276 273/310/281 274/314/283
f 271/315/267 270/311/266 281/312/282 282/316/284
f 264/317/269 263/313/268 274/314/283 275/318/285
f 265/319/270 264/317/269 275/318/285 276/320/286
f 266/321/271 265/319/270 276/320/286 277/322/287
f 267/301/272 266/321/271 277/322/287 278/302/277
f 276/320/286 275/318/285 286/323/288 287/324/289
f 277/322/287 276/320/286 287/324/289 288/325/290
f 278/302/277 277/322/287 288/325/290 289/326/291
f 279/303/278 278/302/277 289/326/291 290/327/292
f 272/306/279 62/328/10 283/329/293
f 280/308/280 279/303/278 290/327/292 291/330/294
f 273/310/281 272/306/279 283/329/293 284/331/295
f 281/312/282 280/308/280 291/330/294 292/332/296
f 274/314/283 273/310/281 284/331/295 285/333/297
f 282/316/284 281/312/282 292/332/296 293/334/298
f 275/318/285 274/314/283 285/333/297 286/323/288
f 283/329/293 62/335/10 294/336/299
f 291/330/294 290/327/292 301/337/300 302/338/301
f 284/331/295 283/329/293 294/336/299 295/339/302
f 292/332/296 291/330/294 302/338/301 303/340/303
f 285/333/297 284/331/295 295/339/302 296/341/304
f 293/334/298 292/332/296 303/340/303 304/342/305
f 286/323/288 285/333/297 296/341/304 297/343/306
f 287/324/289 286/323/288 297/343/306 298/344/307
f 288/325/290 287/324/289 298/344/307 299/345/308
f 289/326/291 288/325/290 299/345/308 300/346/309
f 290/327/292 289/326/291 300/346/309 301/337/300
f 298/344/307 297/343/306 308/347/310 309/348/311
f 299/345/308 298/344/307 309/348/311 310/349/312
f 300/346/309 299/345/308 310/349/312 311/350/313
f 301/337/300 300/346/309 311/350/313 312/351/314
f 294/336/299 62/352/10 305/353/315
f 302/338/301 301/337/300 312/351/314 313/354/316
f 295/339/302 294/336/299 305/353/315 306/355/317
f 303/340/303 302/338/301 313/354/316 314/356/318
f 296/341/304 295/339/302 306/355/317 307/357/319
f 304/342/305 303/340/303 314/356/318 315/358/320
f 297/343/306 296/341/304 307/357/319 308/347/310
f 313/354/316 312/351/314 323/359/321 324/360/322
f 306/355/317 305/353/315 316/361/323 317/362/324
f 314/356/318 313/354/316 324/360/322 325/363/325
f 307/357/319 306/355/317 317/362/324 318/364/326
f 315/358/320 314/356/318 325/363/325 326/365/327
f 308/347/310 307/357/319 318/364/326 319/366/328
f 309/348/311 308/347/310 319/366/328 320/367/329
f 310/349/312 309/348/311 320/367/329 321/368/330
f 311/350/313 310/349/312 321/368/330 322/369/331
f 312/351/314 311/350/313 322/369/331 323/359/321
f 305/353/315 62/370/10 316/361/323
f 321/368/330 320/367/329 331/371/332 332/372/333
f 322/369/331 321/368/330 332/372/333 333/373/334
f 323/359/321 322/369/331 333/373/334 334/374/335
f 316/361/323 62/375/10 327/376/336
f 324/360/322 323/359/321 334/374/335 335/377/337
f 317/362/324 316/361/323 327/376/336 328/378/338
f 325/363/325 324/360/322 335/377/337 336/379/339
f 318/364/326 317/362/324 328/378/338 329/380/340
f 326/365/327 325/363/325 336/379/339 337/381/341
f 319/366/328 318/364/326 329/380/340 330/382/342
f 320/367/329 319/366/328 330/382/342 331/371/332
f 328/378/338 327/376/336 338/383/343 339/384/344
f 336/379/339 335/377/337 346/385/345 347/386/346
f 329/380/340 328/378/338 339/384/344 340/387/347
f 337/381/341 336/379/339 347/386/346 348/388/348
f 330/382/342 329/380/340 340/387/347 341/389/349
f 331/371/332 330/382/342 341/389/349 342/390/350
f 332/372/333 331/371/332 342/390/350 343/391/351
f 333/373/334 332/372/333 343/391/351 344/392/352
f 334/374/335 333/373/334 344/392/352 345/393/353
f 327/376/336 62/394/10 338/383/343
f 335/377/337 334/374/335 345/393/353 346/385/345
f 343/391/351 342/390/350 2/2/2 352/1/1
f 344/392/352 343/391/351 352/1/1 3/5/5
f 345/393/353 344/392/352 3/5/5 4/7/7
f 338/383/343 62/395/10 349/9/9
f 346/385/345 345/393/353 4/7/7 5/12/12
f 339/384/344 338/383/343 349/9/9 350/14/14
f 347/386/346 346/385/345 5/12/12 353/16/16
f 340/387/347 339/384/344 350/14/14 1/18/18
f 348/388/348 347/386/346 353/16/16 6/20/20
f 341/389/349 340/387/347 1/18/18 351/22/22
f 342/390/350 341/389/349 351/22/22 2/2/2
f 705/396/354 355/397/355 364/398/356 365/399/357
f 356/400/358 705/396/354 365/399/357 366/401/359
f 357/402/360 356/400/358 366/401/359 367/403/361
f 702/404/362 415/405/10 360/406/363
f 358/407/364 357/402/360 367/403/361 368/408/365
f 703/409/366 702/404/362 360/406/363 361/410/367
f 706/411/368 358/407/364 368/408/365 369/412/369
f 354/413/370 703/409/366 361/410/367 362/414/371
f 359/415/372 706/411/368 369/412/369 370/416/373
f 704/417/374 354/413/370 362/414/371 363/418/375
f 355/397/355 704/417/374 363/418/375 364/398/356
f 364/398/356 363/418/375 374/419/376 375/420/377
f 365/399/357 364/398/356 375/420/377 376/421/378
f 366/401/359 365/399/357 376/421/378 377/422/379
f 367/403/361 366/401/359 377/422/379 378/423/380
f 360/406/363 415/405/10 371/424/381
f 368/408/365 367/403/361 378/423/380 379/425/382
f 361/410/367 360/406/363 371/424/381 372/426/383
f 369/412/369 368/408/365 379/425/382 380/427/384
f 362/414/371 361/410/367 372/426/383 373/428/385
f 370/416/373 369/412/369 380/427/384 381/429/386
f 363/418/375 362/414/371 373/428/385 374/419/376
f 371/424/381 415/430/10 382/431/387
f 379/425/382 378/423/380 389/432/388 390/433/389
f 372/426/383 371/424/381 382/431/387 383/434/390
f 380/427/384 379/425/382 390/433/389 391/435/391
f 373/428/385 372/426/383 383/434/390 384/436/392
f 381/429/386 380/427/384 391/435/391 392/437/393
f 374/419/376 373/428/385 384/436/392 385/438/394
f 375/420/377 374/419/376 385/438/394 386/439/395
f 376/421/378 375/420/377 386/439/395 387/440/396
f 377/422/379 376/421/378 387/440/396 388/441/397
f 378/423/380 377/422/379 388/441/397 389/432/388
f 386/439/395 385/438/394 396/442/398 397/443/399
f 387/440/396 386/439/395 397/443/399 398/444/400
f 388/441/397 387/440/396 398/444/400 399/445/401
f 389/432/388 388/441/397 399/445/401 400/446/402
f 382/431/387 415/430/10 393/447/403
f 390/433/389 389/432/388 400/446/402 401/448/404
f 383/434/390 382/431/387 393/447/403 394/449/405
f 391/435/391 390/433/389 401/448/404 402/450/406
f 384/436/392 383/434/390 394/449/405 395/451/407
f 392/437/393 391/435/391 402/450/406 403/452/408
f 385/438/394 384/436/392 395/451/407 396/442/398
f 401/448/404 400/446/402 411/453/409 412/454/410
f 394/449/405 393/447/403 404/455/411 405/456/412
f 402/450/406 401/448/404 412/454/410 413/457/413
f 395/451/407 394/449/405 405/456/412 406/458/414
f 403/452/408 402/450/406 413/457/413 414/459/415
f 396/442/398 395/451/407 406/458/414 407/460/416
f 397/443/399 396/442/398 407/460/416 408/461/417
f 398/444/400 397/443/399 408/461/417 409/462/418
f 399/445/401 398/444/400 409/462/418 410/463/419
f 400/446/402 399/445/401 410/463/419 411/453/409
f 393/447/403 415/430/10 404/455/411
f 409/462/418 408/461/417 420/464/420 421/465/421
f 410/463/419 409/462/418 421/465/421 422/466/422
f 411/453/409 410/463/419 422/466/422 423/467/423
f 404/455/411 415/430/10 416/468/424
f 412/454/410 411/453/409 423/467/423 424/469/425
f 405/456/412 404/455/411 416/468/424 417/470/426
f 413/457/413 412/454/410 424/469/425 425/471/427
f 406/458/414 405/456/412 417/470/426 418/472/428
f 414/459/415 413/457/413 425/471/427 426/473/429
f 407/460/416 406/458/414 418/472/428 419/474/430
f 408/461/417 407/460/416 419/474/430 420/464/420
f 425/471/427 424/469/425 435/475/431 436/476/432
f 418/472/428 417/470/426 428/477/433 429/478/434
f 426/473/429 425/471/427 436/476/432 437/479/435
f 419/474/430 418/472/428 429/478/434 430/480/436
f 420/464/420 419/474/430 430/480/436 431/481/437
f 421/465/421 420/464/420 431/481/437 432/482/438
f 422/466/422 421/465/421 432/482/438 433/483/439
f 423/467/423 422/466/422 433/483/439 434/484/440
f 416/468/424 415/430/10 427/485/441
f 424/469/425 423/467/423 434/484/440 435/475/431
f 417/470/426 416/468/424 427/485/441 428/477/433
f 433/483/439 432/482/438 443/486/442 444/487/443
f 434/484/440 433/483/439 444/487/443 445/488/444
f 427/485/441 415/430/10 438/489/445
f 435/475/431 434/484/440 445/488/444 446/490/446
f 428/477/433 427/485/441 438/489/445 439/491/447
f 436/476/432 435/475/431 446/490/446 447/492/448
f 429/478/434 428/477/433 439/491/447 440/493/449
f 437/479/435 436/476/432 447/492/448 448/494/450
f 430/480/436 429/478/434 440/493/449 441/495/451
f 431/481/437 430/480/436 441/495/451 442/496/452
f 432/482/438 431/481/437 442/496/452 443/486/442
f 440/493/449 439/491/447 450/497/453 451/498/454
f 448/494/450 447/492/448 458/499/455 459/500/456
f 441/495/451 440/493/449 451/498/454 452/501/457
f 442/496/452 441/495/451 452/501/457 453/502/458
f 443/486/442 442/496/452 453/502/458 454/503/459
f 444/487/443 443/486/442 454/503/459 455/504/460
f 445/488/444 444/487/443 455/504/460 456/505/461
f 438/489/445 415/430/10 449/506/462
f 446/490/446 445/488/444 456/505/461 457/507/463
f 439/491/447 438/489/445 449/506/462 450/497/453
f 447/492/448 446/490/446 457/507/463 458/499/455
f 455/504/460 454/503/459 465/508/464 466/509/465
f 456/505/461 455/504/460 466/509/465 467/510/466
f 449/506/462 415/430/10 460/511/467
f 457/507/463 456/505/461 467/510/466 468/512/468
f 450/497/453 449/506/462 460/511/467 461/513/469
f 458/499/455 457/507/463 468/512/468 469/514/470
f 451/498/454 450/497/453 461/513/469 462/515/471
f 459/500/456 458/499/455 469/514/470 470/516/472
f 452/501/457 451/498/454 462/515/471 463/517/473
f 453/502/458 452/501/457 463/517/473 464/518/474
f 454/503/459 453/502/458 464/518/474 465/508/464
f 470/516/472 469/514/470 480/519/475 481/520/476
f 463/517/473 462/515/471 473/521/477 474/522/478
f 464/518/474 463/517/473 474/522/478 475/523/479
f 465/508/464 464/518/474 475/523/479 476/524/480
f 466/509/465 465/508/464 476/524/480 477/525/481
f 467/510/466 466/509/465 477/525/481 478/526/482
f 460/511/467 415/430/10 471/527/483
f 468/512/468 467/510/466 478/526/482 479/528/484
f 461/513/469 460/511/467 471/527/483 472/529/485
f 469/514/470 468/512/468 479/528/484 480/519/475
f 462/515/471 461/513/469 472/529/485 473/521/477
f 478/526/482 477/525/481 488/530/486 489/531/487
f 471/527/483 415/430/10 482/532/488
f 479/528/484 478/526/482 489/531/487 490/533/489
f 472/529/485 471/527/483 482/532/488 483/534/490
f 480/519/475 479/528/484 490/533/489 491/535/491
f 473/521/477 472/529/485 483/534/490 484/536/492
f 481/520/476 480/519/475 491/535/491 492/537/493
f 474/522/478 473/521/477 484/536/492 485/538/494
f 475/523/479 474/522/478 485/538/494 486/539/495
f 476/524/480 475/523/479 486/539/495 487/540/496
f 477/525/481 476/524/480 487/540/496 488/530/486
f 485/538/494 484/536/492 495/541/497 496/542/498
f 486/539/495 485/538/494 496/542/498 497/543/499
f 487/540/496 486/539/495 497/543/499 498/544/500
f 488/530/486 487/540/496 498/544/500 499/545/501
f 489/531/487 488/530/486 499/545/501 500/546/502
f 482/532/488 415/430/10 493/547/503
f 490/533/489 489/531/487 500/546/502 501/548/504
f 483/534/490 482/532/488 493/547/503 494/549/505
f 491/535/491 490/533/489 501/548/504 502/550/506
f 484/536/492 483/534/490 494/549/505 495/541/497
f 492/537/493 491/535/491 502/550/506 503/551/507
f 500/546/502 499/545/501 510/552/508 511/553/509
f 493/547/503 415/430/10 504/554/510
f 501/548/504 500/546/502 511/553/509 512/555/511
f 494/549/505 493/547/503 504/554/510 505/556/512
f 502/550/506 501/548/504 512/555/511 513/557/513
f 495/541/497 494/549/505 505/556/512 506/558/514
f 503/551/507 502/550/506 513/557/513 514/559/515
f 496/542/498 495/541/497 506/558/514 507/560/516
f 497/543/499 496/542/498 507/560/516 508/561/517
f 498/544/500 497/543/499 508/561/517 509/562/518
f 499/545/501 498/544/500 509/562/518 510/552/508
f 508/561/517 507/560/516 518/563/519 519/564/520
f 509/562/518 508/561/517 519/564/520 520/565/521
f 510/552/508 509/562/518 520/565/521 521/566/522
f 511/553/509 510/552/508 521/566/522 522/567/523
f 504/554/510 415/430/10 515/568/524
f 512/555/511 511/553/509 522/567/523 523/569/525
f 505/556/512 504/554/510 515/568/524 516/570/526
f 513/557/513 512/555/511 523/569/525 524/571/527
f 506/558/514 505/556/512 516/570/526 517/572/528
f 514/559/515 513/557/513 524/571/527 525/573/529
f 507/560/516 506/558/514 517/572/528 518/563/519
f 523/569/525 522/567/523 533/574/530 534/575/531
f 516/570/526 515/568/524 526/576/532 527/577/533
f 524/571/527 523/569/525 534/575/531 535/578/534
f 517/572/528 516/570/526 527/577/533 528/579/535
f 525/573/529 524/571/527 535/578/534 536/289/536
f 518/563/519 517/572/528 528/579/535 529/580/537
f 519/564/520 518/563/519 529/580/537 530/581/538
f 520/565/521 519/564/520 530/581/538 531/582/539
f 521/566/522 520/565/521 531/582/539 532/583/540
f 522/567/523 521/566/522 532/583/540 533/574/530
f 515/568/524 415/430/10 526/576/532
f 531/584/539 530/585/538 541/586/541 542/587/542
f 532/588/540 531/584/539 542/587/542 543/589/543
f 533/590/530 532/588/540 543/589/543 544/591/544
f 526/576/532 415/430/10 537/592/545
f 534/593/531 533/590/530 544/591/544 545/594/546
f 527/595/533 526/596/532 537/592/545 538/597/547
f 535/598/534 534/593/531 545/594/546 546/599/548
f 528/600/535 527/595/533 538/597/547 539/601/549
f 536/602/536 535/598/534 546/599/548 547/603/550
f 529/604/537 528/600/535 539/601/549 540/605/551
f 530/585/538 529/604/537 540/605/551 541/586/541
f 538/597/547 537/592/545 548/606/552 549/607/553
f 546/599/548 545/594/546 556/608/554 557/609/555
f 539/601/549 538/597/547 549/607/553 550/610/556
f 547/603/550 546/599/548 557/609/555 558/611/557
f 540/605/551 539/601/549 550/610/556 551/612/558
f 541/586/541 540/605/551 551/612/558 552/613/559
f 542/587/542 541/586/541 552/613/559 553/614/560
f 543/589/543 542/587/542 553/614/560 554/615/561
f 544/591/544 543/589/543 554/615/561 555/616/562
f 537/592/545 415/430/10 548/606/552
f 545/594/546 544/591/544 555/616/562 556/608/554
f 553/614/560 552/613/559 563/617/563 564/618/564
f 554/615/561 553/614/560 564/618/564 565/619/565
f 555/616/562 554/615/561 565/619/565 566/620/566
f 548/606/552 415/405/10 559/621/567
f 556/608/554 555/616/562 566/620/566 567/622/568
f 549/607/553 548/606/552 559/621/567 560/623/569
f 557/609/555 556/608/554 567/622/568 568/624/570
f 550/610/556 549/607/553 560/623/569 561/625/571
f 558/611/557 557/609/555 568/624/570 569/626/572
f 551/612/558 550/610/556 561/625/571 562/627/573
f 552/613/559 551/612/558 562/627/573 563/617/563
f 568/624/570 567/622/568 578/628/574 579/629/575
f 561/625/571 560/623/569 571/630/576 572/631/577
f 569/626/572 568/624/570 579/629/575 580/632/578
f 562/627/573 561/625/571 572/631/577 573/633/579
f 563/617/563 562/627/573 573/633/579 574/634/580
f 564/618/564 563/617/563 574/634/580 575/635/581
f 565/619/565 564/618/564 575/635/581 576/636/582
f 566/620/566 565/619/565 576/636/582 577/637/583
f 559/621/567 415/405/10 570/638/584
f 567/622/568 566/620/566 577/637/583 578/628/574
f 560/623/569 559/621/567 570/638/584 571/630/576
f 576/636/582 575/635/581 586/639/585 587/640/586
f 577/637/583 576/636/582 587/640/586 588/641/587
f 570/638/584 415/405/10 581/642/588
f 578/628/574 577/637/583 588/641/587 589/643/589
f 571/630/576 570/638/584 581/642/588 582/644/590
f 579/629/575 578/628/574 589/643/589 590/645/591
f 572/631/577 571/630/576 582/644/590 583/646/592
f 580/632/578 579/629/575 590/645/591 591/647/593
f 573/633/579 572/631/577 583/646/592 584/648/594
f 574/634/580 573/633/579 584/648/594 585/649/595
f 575/635/581 574/634/580 585/649/595 586/639/585
f 583/646/592 582/644/590 593/650/596 594/651/597
f 591/647/593 590/645/591 601/652/598 602/653/599
f 584/648/594 583/646/592 594/651/597 595/654/600
f 585/649/595 584/648/594 595/654/600 596/655/601
f 586/639/585 585/649/595 596/655/601 597/656/602
f 587/640/586 586/639/585 597/656/602 598/657/603
f 588/641/587 587/640/586 598/657/603 599/658/604
f 581/642/588 415/405/10 592/659/605
f 589/643/589 588/641/587 599/658/604 600/660/606
f 582/644/590 581/642/588 592/659/605 593/650/596
f 590/645/591 589/643/589 600/660/606 601/652/598
f 598/657/603 597/656/602 608/661/607 609/662/608
f 599/658/604 598/657/603 609/662/608 610/663/609
f 592/659/605 415/405/10 603/664/610
f 600/660/606 599/658/604 610/663/609 611/665/611
f 593/650/596 592/659/605 603/664/610 604/666/612
f 601/652/598 600/660/606 611/665/611 612/667/613
f 594/651/597 593/650/596 604/666/612 605/668/614
f 602/653/599 601/652/598 612/667/613 613/669/615
f 595/654/600 594/651/597 605/668/614 606/670/616
f 596/655/601 595/654/600 606/670/616 607/671/617
f 597/656/602 596/655/601 607/671/617 608/661/607
f 613/669/615 612/667/613 623/672/618 624/673/619
f 606/670/616 605/668/614 616/674/620 617/675/621
f 607/671/617 606/670/616 617/675/621 618/676/622
f 608/661/607 607/671/617 618/676/622 619/677/623
f 609/662/608 608/661/607 619/677/623 620/678/624
f 610/663/609 609/662/608 620/678/624 621/679/625
f 603/664/610 415/405/10 614/680/626
f 611/665/611 610/663/609 621/679/625 622/681/627
f 604/666/612 603/664/610 614/680/626 615/682/628
f 612/667/613 611/665/611 622/681/627 623/672/618
f 605/668/614 604/666/612 615/682/628 616/674/620
f 621/679/625 620/678/624 631/683/629 632/684/630
f 614/680/626 415/405/10 625/685/631
f 622/681/627 621/679/625 632/684/630 633/686/632
f 615/682/628 614/680/626 625/685/631 626/687/633
f 623/672/618 622/681/627 633/686/632 634/688/634
f 616/674/620 615/682/628 626/687/633 627/689/635
f 624/673/619 623/672/618 634/688/634 635/690/636
f 617/675/621 616/674/620 627/689/635 628/691/637
f 618/676/622 617/675/621 628/691/637 629/692/638
f 619/677/623 618/676/622 629/692/638 630/693/639
f 620/678/624 619/677/623 630/693/639 631/683/629
f 629/692/638 628/691/637 639/694/640 640/695/641
f 630/693/639 629/692/638 640/695/641 641/696/642
f 631/683/629 630/693/639 641/696/642 642/697/643
f 632/684/630 631/683/629 642/697/643 643/698/644
f 625/685/631 415/405/10 636/699/645
f 633/686/632 632/684/630 643/698/644 644/700/646
f 626/687/633 625/685/631 636/699/645 637/701/647
f 634/688/634 633/686/632 644/700/646 645/702/648
f 627/689/635 626/687/633 637/701/647 638/703/649
f 635/690/636 634/688/634 645/702/648 646/704/650
f 628/691/637 627/689/635 638/703/649 639/694/640
f 636/699/645 415/405/10 647/705/651
f 644/700/646 643/698/644 654/706/652 655/707/653
f 637/701/647 636/699/645 647/705/651 648/708/654
f 645/702/648 644/700/646 655/707/653 656/709/655
f 638/703/649 637/701/647 648/708/654 649/710/656
f 646/704/650 645/702/648 656/709/655 657/711/657
f 639/694/640 638/703/649 649/710/656 650/712/658
f 640/695/641 639/694/640 650/712/658 651/713/659
f 641/696/642 640/695/641 651/713/659 652/714/660
f 642/697/643 641/696/642 652/714/660 653/715/661
f 643/698/644 642/697/643 653/715/661 654/706/652
f 651/713/659 650/712/658 661/716/662 662/717/663
f 652/714/660 651/713/659 662/717/663 663/718/664
f 653/715/661 652/714/660 663/718/664 664/719/665
f 654/706/652 653/715/661 664/719/665 665/720/666
f 647/705/651 415/405/10 658/721/667
f 655/707/653 654/706/652 665/720/666 666/722/668
f 648/708/654 647/705/651 658/721/667 659/723/669
f 656/709/655 655/707/653 666/722/668 667/724/670
f 649/710/656 648/708/654 659/723/669 660/725/671
f 657/711/657 656/709/655 667/724/670 668/726/672
f 650/712/658 649/710/656 660/725/671 661/716/662
f 666/722/668 665/720/666 676/727/673 677/728/674
f 659/723/669 658/721/667 669/729/675 670/730/676
f 667/724/670 666/722/668 677/728/674 678/731/677
f 660/725/671 659/723/669 670/730/676 671/732/678
f 668/726/672 667/724/670 678/731/677 679/733/679
f 661/716/662 660/725/671 671/732/678 672/734/680
f 662/717/663 661/716/662 672/734/680 673/735/681
f 663/718/664 662/717/663 673/735/681 674/736/682
f 664/719/665 663/718/664 674/736/682 675/737/683
f 665/720/666 664/719/665 675/737/683 676/727/673
f 658/721/667 415/405/10 669/729/675
f 674/736/682 673/735/681 684/738/684 685/739/685
f 675/737/683 674/736/682 685/739/685 686/740/686
f 676/727/673 675/737/683 686/740/686 687/741/687
f 669/729/675 415/405/10 680/742/688
f 677/728/674 676/727/673 687/741/687 688/743/689
f 670/730/676 669/729/675 680/742/688 681/744/690
f 678/731/677 677/728/674 688/743/689 689/745/691
f 671/732/678 670/730/676 681/744/690 682/746/692
f 679/733/679 678/731/677 689/745/691 690/747/693
f 672/734/680 671/732/678 682/746/692 683/748/694
f 673/735/681 672/734/680 683/748/694 684/738/684
f 681/744/690 680/742/688 691/749/695 692/750/696
f 689/745/691 688/743/689 699/751/697 700/752/698
f 682/746/692 681/744/690 692/750/696 693/753/699
f 690/747/693 689/745/691 700/752/698 701/754/700
f 683/748/694 682/746/692 693/753/699 694/755/701
f 684/738/684 683/748/694 694/755/701 695/756/702
f 685/739/685 684/738/684 695/756/702 696/757/703
f 686/740/686 685/739/685 696/757/703 697/758/704
f 687/741/687 686/740/686 697/758/704 698/759/705
f 680/742/688 415/405/10 691/749/695
f 688/743/689 687/741/687 698/759/705 699/751/697
f 696/757/703 695/756/702 355/397/355 705/396/354
f 697/758/704 696/757/703 705/396/354 356/400/358
f 698/759/705 697/758/704 356/400/358 357/402/360
f 691/749/695 415/405/10 702/404/362
f 699/751/697 698/759/705 357/402/360 358/407/364
f 692/750/696 691/749/695 702/404/362 703/409/366
f 700/752/698 699/751/697 358/407/364 706/411/368
f 693/753/699 692/750/696 703/409/366 354/413/370
f 701/754/700 700/752/698 706/411/368 359/415/372
f 694/755/701 693/753/699 354/413/370 704/417/374
f 695/756/702 694/755/701 704/417/374 355/397/355
