# Blender 4.4.3
# www.blender.org
o Plane
v -1.000000 0.886289 1.000000
v 1.000000 0.886289 1.000000
v -1.000000 0.886289 -1.000000
v 1.000000 0.886289 -1.000000
v -1.335230 0.886289 0.000000
v 1.335230 0.886289 0.000000
v 0.000000 0.886289 1.335230
v 0.000000 0.886289 -1.335230
v 0.000000 -0.000706 0.000000
vn 0.3757 0.8472 -0.3757
vn -0.3757 0.8472 -0.3757
vn 0.3757 0.8472 0.3757
vn -0.3757 0.8472 0.3757
vn 0.5533 0.8330 -0.0000
vn -0.5533 0.8330 -0.0000
vn -0.0000 0.8330 -0.5533
vn -0.0000 0.8330 0.5533
vn -0.0000 1.0000 -0.0000
vt 0.500000 0.500000
vt 1.000000 0.500000
vt 1.000000 1.000000
vt 0.500000 0.000000
vt 1.000000 0.000000
vt 0.000000 0.000000
vt 0.000000 0.500000
vt 0.000000 1.000000
vt 0.500000 1.000000
s 1
f 9/1/9 6/2/6 4/3/4
f 7/4/7 2/5/2 9/1/9
f 1/6/1 7/4/7 9/1/9
f 5/7/5 9/1/9 3/8/3
f 9/1/9 2/5/2 6/2/6
f 9/1/9 5/7/5 1/6/1
f 3/8/3 9/1/9 8/9/8
f 4/3/4 8/9/8 9/1/9
