# Blender 4.2.1 LTS
# www.blender.org
# mtllib sm_cone4.mtl
o cone1
v -3.225038 -1.571804 -7.084858
v 0.875662 16.515087 -0.248523
v -1.780883 -1.571804 -7.577899
v 0.907322 16.515087 -0.072913
v -0.268287 -1.571804 -7.779723
v 0.904110 16.515087 0.105499
v 1.254618 -1.571804 -7.682581
v 0.866155 16.515085 0.279856
v 2.729306 -1.571804 -7.290200
v 0.794917 16.515085 0.443454
v 4.099109 -1.571805 -6.617661
v 0.693127 16.515085 0.590015
v 5.311386 -1.571804 -5.690804
v 0.564703 16.515085 0.713899
v 6.319551 -1.571804 -4.545257
v 0.414577 16.515085 0.810352
v 7.084858 -1.571803 -3.225038
v 0.248520 16.515087 0.875661
v 7.577899 -1.571804 -1.780882
v 0.072911 16.515085 0.907319
v 7.779723 -1.571803 -0.268287
v -0.105500 16.515085 0.904108
v 7.682582 -1.571804 1.254618
v -0.279855 16.515085 0.866154
v 7.290202 -1.571804 2.729306
v -0.443456 16.515085 0.794915
v 6.617660 -1.571803 4.099109
v -0.590015 16.515085 0.693127
v 5.690805 -1.571803 5.311385
v -0.713903 16.515085 0.564701
v 4.545258 -1.571803 6.319551
v -0.810354 16.515085 0.414577
v 3.225039 -1.571803 7.084860
v -0.875662 16.515085 0.248519
v 1.780882 -1.571803 7.577900
v -0.907321 16.515085 0.072910
v 0.268287 -1.571803 7.779723
v -0.904109 16.515085 -0.105500
v -1.254618 -1.571803 7.682582
v -0.866155 16.515083 -0.279857
v -2.729307 -1.571804 7.290202
v -0.794917 16.515083 -0.443455
v -4.099110 -1.571804 6.617661
v -0.693130 16.515083 -0.590015
v -5.311385 -1.571803 5.690804
v -0.564704 16.515085 -0.713903
v -6.319551 -1.571803 4.545259
v -0.414576 16.515087 -0.810356
v -7.084858 -1.571803 3.225039
v -0.248520 16.515087 -0.875664
v -7.577899 -1.571803 1.780883
v -0.072911 16.515087 -0.907322
v -7.779722 -1.571803 0.268287
v 0.105498 16.515085 -0.904111
v -7.682582 -1.571804 -1.254618
v 0.279856 16.515085 -0.866156
v -7.290202 -1.571804 -2.729306
v 0.443456 16.515085 -0.794918
v -6.617661 -1.571804 -4.099109
v 0.590014 16.515085 -0.693130
v -5.690805 -1.571804 -5.311385
v 0.713903 16.515087 -0.564702
v -4.545259 -1.571804 -6.319551
v 0.810354 16.515087 -0.414580
v -3.623540 -1.220918 -5.825605
v -2.417392 -1.220919 -6.420592
v -1.118348 -1.220919 -6.768827
v 0.223670 -1.220917 -6.856941
v 1.557099 -1.220917 -6.681555
v 2.830679 -1.220918 -6.249398
v 3.995479 -1.220916 -5.577075
v 5.006753 -1.220918 -4.690432
v 5.825604 -1.220917 -3.623540
v 6.420592 -1.220919 -2.417394
v 6.768826 -1.220918 -1.118347
v 6.856945 -1.220918 0.223673
v 6.681550 -1.220915 1.557087
v 6.249393 -1.220917 2.830680
v 5.577077 -1.220918 3.995493
v 4.690431 -1.220917 5.006748
v 3.623539 -1.220917 5.825605
v 2.417396 -1.220917 6.420583
v 1.118351 -1.220915 6.768820
v -0.223672 -1.220916 6.856942
v -1.557086 -1.220914 6.681545
v -2.830678 -1.220917 6.249396
v -3.995485 -1.220917 5.577076
v -5.006759 -1.220918 4.690432
v -5.825609 -1.220918 3.623538
v -6.420591 -1.220918 2.417393
v -6.768825 -1.220917 1.118349
v -6.856943 -1.220917 -0.223667
v -6.681551 -1.220916 -1.557090
v -6.249394 -1.220918 -2.830680
v -4.690432 -1.220917 -5.006748
v -5.577077 -1.220917 -3.995486
v -2.268150 3.070936 0.158270
v -1.214612 4.506635 1.068535
v -3.045120 1.768916 -0.391677
v -2.255445 3.070936 -0.287266
v -2.910192 1.768922 -0.978220
v -1.399737 4.506630 0.811044
v -2.156065 3.070935 -0.721761
v -2.663431 1.768923 -1.527172
v -1.531065 4.506634 0.522386
v -1.973827 3.070936 -1.128520
v -2.314320 1.768920 -2.017441
v -1.603560 4.506631 0.213652
v -1.715734 3.070935 -1.491913
v -1.876268 1.768923 -2.430173
v -1.614428 4.506634 -0.103295
v -1.391712 3.070936 -1.797966
v -1.366109 1.768921 -2.749523
v -1.563257 4.506636 -0.416267
v -1.014204 3.070934 -2.034931
v -0.803460 1.768923 -2.963204
v -1.452011 4.506633 -0.713243
v -0.597722 3.070935 -2.193690
v -0.209928 1.768922 -3.063016
v -1.284965 4.506632 -0.982811
v -0.158266 3.070935 -2.268149
v 0.391676 1.768918 -3.045117
v -1.068536 4.506633 -1.214611
v 0.287268 3.070935 -2.255444
v 0.978221 1.768921 -2.910192
v -0.811044 4.506636 -1.399734
v 0.721761 3.070936 -2.156063
v 1.527176 1.768922 -2.663432
v -0.522384 4.506637 -1.531067
v 1.128523 3.070935 -1.973827
v 2.017441 1.768920 -2.314320
v -0.213653 4.506629 -1.603562
v 1.491912 3.070935 -1.715736
v 2.430173 1.768925 -1.876268
v 0.103292 4.506631 -1.614429
v 1.797970 3.070935 -1.391710
v 2.749522 1.768922 -1.366112
v 0.416268 4.506636 -1.563256
v 2.034931 3.070936 -1.014204
v 2.963206 1.768923 -0.803459
v 0.713246 4.506633 -1.452011
v 2.193690 3.070937 -0.597722
v 3.063017 1.768922 -0.209928
v 0.982813 4.506635 -1.284963
v 2.268150 3.070936 -0.158270
v 3.045119 1.768916 0.391675
v 1.214613 4.506636 -1.068536
v 2.255443 3.070938 0.287266
v 2.910191 1.768924 0.978218
v 1.399736 4.506635 -0.811046
v 2.156064 3.070936 0.721761
v 2.663432 1.768922 1.527177
v 1.531067 4.506634 -0.522388
v 1.973825 3.070936 1.128522
v 2.314322 1.768922 2.017438
v 1.603559 4.506636 -0.213655
v 1.715737 3.070936 1.491910
v 1.876268 1.768923 2.430173
v 1.614430 4.506631 0.103292
v 1.391713 3.070937 1.797967
v 1.366110 1.768917 2.749526
v 1.563257 4.506636 0.416267
v 1.014203 3.070936 2.034930
v 0.803457 1.768919 2.963207
v 1.452011 4.506630 0.713246
v 0.597719 3.070936 2.193690
v 0.209925 1.768921 3.063014
v 1.284962 4.506638 0.982812
v 0.158267 3.070935 2.268150
v -0.391676 1.768923 3.045113
v 1.068536 4.506636 1.214611
v -0.287268 3.070934 2.255445
v -0.978219 1.768925 2.910191
v 0.811047 4.506634 1.399734
v -0.721761 3.070936 2.156064
v -1.527173 1.768927 2.663433
v 0.522386 4.506632 1.531067
v -1.128520 3.070936 1.973826
v -2.017444 1.768919 2.314320
v 0.213653 4.506631 1.603560
v -1.491911 3.070936 1.715736
v -2.430176 1.768922 1.876266
v -0.103292 4.506635 1.614427
v -1.797972 3.070933 1.391710
v -2.749525 1.768922 1.366111
v -0.416265 4.506639 1.563255
v -2.193690 3.070936 0.597722
v -2.963207 1.768924 0.803459
v -0.713246 4.506630 1.452011
v -2.034931 3.070936 1.014204
v -3.063016 1.768924 0.209927
v -0.982814 4.506633 1.284961
v 0.254697 7.690501 0.658638
v 0.121310 7.690504 0.695672
v 0.378299 7.690497 0.596294
v 0.487359 7.690512 0.511031
v 0.577694 7.690499 0.406132
v 0.645826 7.690505 0.285627
v 0.689140 7.690505 0.154143
v 0.705972 7.690500 0.016738
v 0.695673 7.690496 -0.121309
v 0.658637 7.690501 -0.254699
v 0.596293 7.690500 -0.378301
v 0.511031 7.690508 -0.487361
v 0.406133 7.690500 -0.577695
v 0.285628 7.690505 -0.645826
v 0.154147 7.690499 -0.689141
v 0.016741 7.690499 -0.705971
v -0.121311 7.690498 -0.695673
v -0.254698 7.690503 -0.658638
v -0.378297 7.690496 -0.596295
v -0.487360 7.690499 -0.511034
v -0.577693 7.690497 -0.406136
v -0.645824 7.690502 -0.285631
v -0.689139 7.690500 -0.154147
v -0.705971 7.690498 -0.016740
v -0.695670 7.690501 0.121311
v -0.658637 7.690502 0.254699
v -0.596295 7.690495 0.378298
v -0.511033 7.690499 0.487361
v -0.406136 7.690497 0.577693
v -0.285630 7.690502 0.645825
v -0.154143 7.690499 0.689141
v -0.016735 7.690514 0.705969
v 0.235963 9.996264 0.237973
v 0.305487 14.494048 -0.096036
v 0.144684 12.157127 0.088227
v 0.245479 14.494030 -0.205630
v 0.309069 9.996263 0.129560
v 0.167433 12.157128 0.026142
v 0.328406 9.996263 0.066774
v 0.200649 14.494044 -0.249570
v 0.169317 12.157125 -0.007024
v 0.335123 9.996261 0.001423
v 0.148099 14.494021 -0.283920
v 0.164694 12.157115 -0.039920
v 0.328961 9.996261 -0.063982
v 0.089866 14.494027 -0.307357
v 0.153738 12.157117 -0.071286
v 0.310159 9.996249 -0.126932
v 0.028179 14.494036 -0.318985
v 0.136878 12.157122 -0.099909
v 0.279435 9.996254 -0.185002
v -0.034595 14.494033 -0.318352
v 0.114758 12.157125 -0.124692
v 0.237973 9.996243 -0.235965
v -0.096038 14.494032 -0.305486
v 0.088226 12.157128 -0.144684
v 0.187368 9.996251 -0.277856
v -0.153789 14.494035 -0.280880
v 0.058301 12.157122 -0.159117
v 0.129561 9.996263 -0.309069
v -0.205629 14.494044 -0.245483
v 0.026145 12.157140 -0.167434
v 0.066775 9.996255 -0.328408
v -0.249570 14.494016 -0.200645
v -0.007023 12.157130 -0.169317
v 0.001423 9.996261 -0.335124
v -0.283915 14.494014 -0.148103
v -0.039925 12.157108 -0.164691
v -0.063984 9.996258 -0.328963
v -0.307353 14.494002 -0.089866
v -0.071281 12.157134 -0.153743
v -0.126932 9.996254 -0.310159
v -0.318980 14.494020 -0.028181
v -0.099908 12.157115 -0.136877
v -0.185002 9.996249 -0.279437
v -0.318351 14.494029 0.034593
v -0.124692 12.157116 -0.114755
v -0.235963 9.996262 -0.237973
v -0.305485 14.494031 0.096035
v -0.144683 12.157121 -0.088227
v -0.277855 9.996258 -0.187370
v -0.280880 14.494031 0.153786
v -0.159115 12.157121 -0.058305
v -0.309067 9.996263 -0.129562
v -0.245480 14.494031 0.205627
v -0.167433 12.157131 -0.026145
v -0.328407 9.996255 -0.066773
v -0.200647 14.494034 0.249568
v -0.169314 12.157115 0.007026
v -0.335124 9.996251 -0.001426
v -0.148100 14.494021 0.283917
v -0.164694 12.157127 0.039917
v -0.328962 9.996253 0.063986
v -0.089867 14.494034 0.307356
v -0.153738 12.157106 0.071285
v -0.310159 9.996252 0.126930
v -0.028175 14.494018 0.318981
v -0.136879 12.157121 0.099906
v -0.279436 9.996254 0.185000
v 0.034591 14.494049 0.318351
v -0.114758 12.157125 0.124690
v -0.237973 9.996255 0.235962
v 0.096038 14.494028 0.305483
v -0.088228 12.157125 0.144682
v -0.187365 9.996254 0.277857
v 0.153787 14.494039 0.280879
v -0.058301 12.157119 0.159114
v -0.129560 9.996258 0.309070
v 0.205632 14.494025 0.245476
v -0.026142 12.157127 0.167432
v -0.066777 9.996265 0.328405
v 0.249571 14.494024 0.200642
v 0.007021 12.157133 0.169316
v -0.001424 9.996256 0.335123
v 0.283917 14.494040 0.148104
v 0.039921 12.157108 0.164692
v 0.063984 9.996253 0.328962
v 0.307355 14.494003 0.089858
v 0.071284 12.157102 0.153739
v 0.126933 9.996253 0.310157
v 0.318984 14.494052 0.028182
v 0.099908 12.157117 0.136877
v 0.185006 9.996251 0.279432
v 0.318352 14.494037 -0.034600
v 0.124693 12.157119 0.114754
v 0.280876 14.494019 -0.153792
v 0.277856 9.996258 0.187367
v 0.159116 12.157124 0.058304
v -3.624762 0.487252 -2.034719
v -3.870385 -0.604732 -4.035041
v -3.798416 -0.112662 -3.027005
v -3.008821 -0.604731 -4.712584
v -3.158155 0.487250 -2.702784
v -3.134891 -0.112654 -3.709861
v -2.031628 -0.604730 -5.209020
v -2.570187 0.487249 -3.266978
v -2.350891 -0.112661 -4.250179
v -0.976358 -0.604732 -5.505287
v -1.883447 0.487252 -3.705618
v -1.476553 -0.112659 -4.627146
v 0.116426 -0.604730 -5.589978
v -1.124325 0.487246 -4.001863
v -0.545476 -0.112658 -4.826295
v 1.204741 -0.604731 -5.459858
v -0.322003 0.487252 -4.144306
v 0.406570 -0.112659 -4.839977
v 2.246753 -0.604730 -5.119911
v 0.492702 0.487251 -4.127495
v 1.342996 -0.112663 -4.667662
v 3.202438 -0.604732 -4.583214
v 1.288468 0.487252 -3.952065
v 2.227796 -0.112655 -4.315965
v 4.035039 -0.604731 -3.870386
v 2.034721 0.487250 -3.624762
v 3.027005 -0.112663 -3.798415
v 4.712583 -0.604730 -3.008822
v 2.702783 0.487251 -3.158154
v 3.709863 -0.112656 -3.134892
v 5.209019 -0.604729 -2.031631
v 3.266975 0.487251 -2.570186
v 4.250177 -0.112660 -2.350891
v 5.505276 -0.604728 -0.976365
v 3.705615 0.487255 -1.883447
v 4.627146 -0.112660 -1.476550
v 5.589984 -0.604732 0.116430
v 4.001860 0.487251 -1.124327
v 4.826304 -0.112663 -0.545464
v 5.459849 -0.604729 1.204741
v 4.144309 0.487251 -0.321999
v 4.839975 -0.112657 0.406574
v 5.119911 -0.604729 2.246756
v 4.127496 0.487254 0.492700
v 4.667660 -0.112657 1.342995
v 4.583219 -0.604733 3.202441
v 3.952070 0.487251 1.288469
v 4.315968 -0.112656 2.227795
v 3.870385 -0.604729 4.035033
v 3.624763 0.487249 2.034723
v 3.798416 -0.112661 3.027001
v 3.008822 -0.604727 4.712575
v 3.158154 0.487252 2.702780
v 3.134889 -0.112654 3.709862
v 2.031625 -0.604730 5.209023
v 2.570185 0.487255 3.266972
v 2.350893 -0.112659 4.250176
v 0.976360 -0.604728 5.505282
v 1.883447 0.487252 3.705621
v 1.476552 -0.112658 4.627144
v -0.116433 -0.604731 5.589986
v 1.124325 0.487249 4.001863
v 0.545472 -0.112659 4.826300
v -1.204743 -0.604729 5.459854
v 0.321996 0.487247 4.144315
v -0.406571 -0.112659 4.839979
v -2.246753 -0.604729 5.119910
v -0.492704 0.487247 4.127501
v -1.342987 -0.112658 4.667662
v -3.202425 -0.604728 4.583213
v -1.288464 0.487254 3.952063
v -2.227797 -0.112656 4.315961
v -4.035038 -0.604732 3.870384
v -2.034719 0.487254 3.624757
v -3.026999 -0.112658 3.798412
v -4.712588 -0.604732 3.008819
v -2.702780 0.487253 3.158154
v -3.709853 -0.112650 3.134889
v -5.209022 -0.604729 2.031627
v -3.266970 0.487256 2.570184
v -4.250180 -0.112662 2.350890
v -5.505285 -0.604730 0.976360
v -3.705627 0.487245 1.883443
v -4.627144 -0.112657 1.476556
v -5.589972 -0.604726 -0.116418
v -4.001861 0.487250 1.124327
v -4.826299 -0.112661 0.545471
v -5.459855 -0.604731 -1.204743
v -4.144313 0.487248 0.321993
v -4.839977 -0.112658 -0.406570
v -5.119912 -0.604729 -2.246751
v -4.127495 0.487252 -0.492703
v -4.667658 -0.112656 -1.342988
v -4.583215 -0.604732 -3.202439
v -3.952067 0.487252 -1.288470
v -4.315965 -0.112657 -2.227800
v -0.339302 6.116576 1.021154
v -0.133566 6.116571 1.067728
v 0.077308 6.116580 1.073266
v 0.285206 6.116589 1.037558
v 0.482145 6.116582 0.961984
v 0.660553 6.116582 0.849439
v 0.813576 6.116575 0.704254
v 0.935337 6.116571 0.532000
v 1.021154 6.116576 0.339300
v 1.067725 6.116580 0.133564
v 1.073268 6.116577 -0.077307
v 1.037564 6.116574 -0.285203
v 0.961986 6.116578 -0.482145
v 0.849438 6.116582 -0.660553
v 0.704252 6.116577 -0.813579
v 0.531999 6.116577 -0.935337
v 0.339303 6.116574 -1.021153
v 0.133562 6.116579 -1.067727
v -0.077308 6.116581 -1.073267
v -0.285206 6.116583 -1.037562
v -0.482143 6.116577 -0.961988
v -0.660552 6.116582 -0.849441
v -0.813577 6.116577 -0.704253
v -0.935336 6.116579 -0.531999
v -1.021154 6.116576 -0.339299
v -1.067727 6.116579 -0.133565
v -1.073269 6.116570 0.077300
v -1.037563 6.116575 0.285202
v -0.961985 6.116574 0.482145
v -0.849442 6.116574 0.660551
v -0.704251 6.116578 0.813578
v -0.531999 6.116573 0.935337
v -3.420247 1.130449 -1.139806
v -3.132162 1.130451 -1.785161
v -3.576891 1.130454 -0.450645
v -2.723710 1.130452 -2.361914
v -2.210588 1.130450 -2.847900
v -1.612514 1.130450 -3.224443
v -0.952472 1.130452 -3.477070
v -0.255828 1.130453 -3.596078
v 0.450644 1.130453 -3.576890
v 1.139807 1.130449 -3.420245
v 1.785162 1.130451 -3.132159
v 2.361915 1.130453 -2.723710
v 2.847898 1.130453 -2.210588
v 3.224442 1.130453 -1.612516
v 3.477072 1.130453 -0.952474
v 3.596079 1.130453 -0.255830
v 3.576894 1.130451 0.450645
v 3.420248 1.130448 1.139806
v 3.132160 1.130453 1.785159
v 2.723707 1.130454 2.361915
v 2.210589 1.130451 2.847901
v 1.612517 1.130450 3.224445
v 0.952471 1.130447 3.477077
v 0.255829 1.130448 3.596083
v -0.450644 1.130451 3.576889
v -1.139804 1.130454 3.420242
v -1.785159 1.130455 3.132159
v -2.361912 1.130456 2.723708
v -2.847906 1.130448 2.210587
v -3.224443 1.130451 1.612514
v -3.477074 1.130451 0.952469
v -3.596079 1.130453 0.255827
v -2.653318 2.432731 0.184463
v -1.745744 2.432732 2.006613
v -2.103672 2.432734 1.627477
v -0.336719 2.432734 2.638319
v -0.844959 2.432734 2.521935
v 1.185802 2.432733 2.380752
v 0.698554 2.432733 2.566344
v 2.308635 2.432733 1.320727
v 2.006614 2.432734 1.745740
v 2.653317 2.432732 -0.184464
v 2.638319 2.432734 0.336718
v 2.103671 2.432733 -1.627478
v 2.380754 2.432733 -1.185801
v 0.844959 2.432734 -2.521935
v 1.320729 2.432733 -2.308634
v -0.698553 2.432732 -2.566347
v -0.184463 2.432730 -2.653317
v -2.006613 2.432734 -1.745740
v -1.627477 2.432733 -2.103670
v -2.638320 2.432733 -0.336718
v -2.521934 2.432737 -0.844956
v -2.380755 2.432733 1.185800
v -2.566346 2.432734 0.698558
v -1.320730 2.432730 2.308635
v 0.184461 2.432734 2.653315
v 1.627478 2.432734 2.103670
v 2.521934 2.432734 0.844961
v 2.566346 2.432734 -0.698556
v 1.745741 2.432734 -2.006613
v 0.336720 2.432732 -2.638319
v -1.185803 2.432734 -2.380751
v -2.308633 2.432734 -1.320728
v -1.489880 3.795269 1.242637
v -1.703677 3.795272 0.928101
v -1.218826 3.795267 1.509422
v -0.900929 3.795274 1.718200
v -0.548415 3.795273 1.860946
v -0.174824 3.795269 1.932181
v 0.205484 3.795269 1.929162
v 0.577896 3.795271 1.852005
v 0.928102 3.795273 1.703676
v 1.242638 3.795273 1.489878
v 1.509422 3.795269 1.218824
v 1.718200 3.795272 0.900931
v 1.860948 3.795269 0.548416
v 1.932182 3.795273 0.174823
v 1.929161 3.795273 -0.205486
v 1.852005 3.795273 -0.577899
v 1.703677 3.795273 -0.928101
v 1.489879 3.795274 -1.242638
v 1.218824 3.795269 -1.509422
v 0.900930 3.795272 -1.718200
v 0.548417 3.795269 -1.860948
v 0.174824 3.795267 -1.932183
v -0.205484 3.795273 -1.929161
v -0.577894 3.795272 -1.852004
v -0.928100 3.795269 -1.703677
v -1.242639 3.795268 -1.489879
v -1.509423 3.795272 -1.218823
v -1.718199 3.795271 -0.900933
v -1.860947 3.795269 -0.548417
v -1.932182 3.795267 -0.174825
v -1.929162 3.795270 0.205485
v -1.852006 3.795269 0.577896
v -0.062266 6.912979 0.885295
v 0.111644 6.912974 0.880432
v 0.281262 6.912977 0.841735
v 0.440075 6.912985 0.770685
v 0.581970 6.912980 0.670026
v 0.701504 6.912982 0.543615
v 0.794078 6.912979 0.396314
v 0.856138 6.912974 0.233780
v 0.885297 6.912974 0.062265
v 0.880432 6.912978 -0.111644
v 0.841735 6.912976 -0.281263
v 0.770689 6.912977 -0.440074
v 0.670026 6.912977 -0.581972
v 0.543615 6.912982 -0.701505
v 0.396315 6.912977 -0.794079
v 0.233783 6.912977 -0.856138
v 0.062265 6.912973 -0.885297
v -0.111646 6.912979 -0.880433
v -0.281263 6.912975 -0.841736
v -0.440074 6.912976 -0.770690
v -0.581971 6.912974 -0.670028
v -0.701502 6.912980 -0.543617
v -0.794078 6.912976 -0.396315
v -0.856138 6.912975 -0.233782
v -0.885296 6.912975 -0.062265
v -0.880432 6.912977 0.111644
v -0.841736 6.912972 0.281260
v -0.770689 6.912975 0.440072
v -0.670027 6.912973 0.581971
v -0.543616 6.912976 0.701504
v -0.396314 6.912978 0.794079
v -0.233779 6.912982 0.856138
v -0.736139 5.315467 1.123967
v -0.941270 5.315464 0.958758
v -1.110227 5.315467 0.756701
v 0.012369 5.315475 1.343519
v -0.249979 5.315467 1.320119
v 0.756704 5.315464 1.110228
v 0.525570 5.315468 1.236517
v 1.245984 5.315468 0.502717
v 1.123969 5.315467 0.736137
v 1.315294 5.315465 -0.274238
v 1.343522 5.315466 -0.012366
v 0.941269 5.315466 -0.958760
v 1.110226 5.315466 -0.756705
v 0.249978 5.315468 -1.320120
v 0.502716 5.315466 -1.245986
v -0.525571 5.315468 -1.236519
v -0.274237 5.315466 -1.315294
v -1.123968 5.315467 -0.736138
v -0.958756 5.315468 -0.941268
v -1.343522 5.315466 0.012365
v -1.320119 5.315464 -0.249981
v -1.236520 5.315464 0.525569
v -0.502720 5.315466 1.245983
v 0.274238 5.315470 1.315291
v 0.958758 5.315464 0.941270
v 1.320119 5.315464 0.249979
v 1.236519 5.315469 -0.525571
v 0.736141 5.315466 -1.123968
v -0.012366 5.315471 -1.343520
v -0.756700 5.315468 -1.110229
v -1.245984 5.315466 -0.502718
v -1.315294 5.315464 0.274236
v 0.198306 9.206421 0.415966
v 0.124027 8.475398 0.565162
v 0.231898 8.475397 0.530107
v 0.275644 9.206426 0.369287
v 0.330862 8.475394 0.474681
v 0.342393 9.206421 0.308415
v 0.395983 9.206423 0.235693
v 0.417111 8.475393 0.401012
v 0.487327 8.475403 0.311931
v 0.434353 9.206428 0.153912
v 0.538820 8.475396 0.210864
v 0.456035 9.206423 0.066216
v 0.569604 8.475398 0.101695
v 0.460191 9.206424 -0.024025
v 0.578500 8.475393 -0.011384
v 0.446662 9.206417 -0.113341
v 0.565163 8.475391 -0.124026
v 0.415968 9.206417 -0.198303
v 0.530109 8.475387 -0.231898
v 0.369289 9.206409 -0.275646
v 0.474680 8.475392 -0.330864
v 0.308416 9.206417 -0.342395
v 0.401013 8.475396 -0.417111
v 0.235692 9.206424 -0.395983
v 0.311932 8.475398 -0.487329
v 0.153911 9.206423 -0.434356
v 0.210865 8.475395 -0.538821
v 0.066217 9.206423 -0.456036
v 0.101695 8.475397 -0.569605
v -0.024025 9.206422 -0.460191
v -0.011382 8.475393 -0.578501
v -0.113340 9.206419 -0.446664
v -0.124022 8.475390 -0.565165
v -0.198302 9.206415 -0.415969
v -0.231900 8.475393 -0.530108
v -0.275646 9.206421 -0.369287
v -0.330862 8.475396 -0.474682
v -0.342392 9.206423 -0.308418
v -0.417110 8.475393 -0.401013
v -0.395980 9.206423 -0.235695
v -0.487330 8.475392 -0.311932
v -0.434356 9.206419 -0.153911
v -0.538819 8.475390 -0.210867
v -0.456036 9.206416 -0.066218
v -0.569604 8.475393 -0.101696
v -0.460191 9.206418 0.024024
v -0.578500 8.475393 0.011383
v -0.446663 9.206417 0.113341
v -0.565164 8.475392 0.124023
v -0.415968 9.206418 0.198301
v -0.530107 8.475394 0.231897
v -0.369287 9.206420 0.275645
v -0.474680 8.475394 0.330863
v -0.308415 9.206419 0.342394
v -0.401012 8.475389 0.417110
v -0.235693 9.206418 0.395983
v -0.311932 8.475394 0.487330
v -0.153911 9.206424 0.434354
v -0.210867 8.475391 0.538820
v -0.066219 9.206419 0.456036
v -0.101698 8.475394 0.569603
v 0.024022 9.206419 0.460191
v 0.011384 8.475392 0.578499
v 0.113342 9.206417 0.446661
v 0.244053 11.051773 -0.042754
v 0.247704 11.051774 0.005679
v 0.231023 11.051767 -0.089544
v 0.209113 11.051767 -0.132894
v 0.179169 11.051764 -0.171138
v 0.142339 11.051768 -0.202804
v 0.100038 11.051765 -0.226678
v 0.053894 11.051766 -0.241838
v 0.005678 11.051778 -0.247705
v -0.042752 11.051772 -0.244054
v -0.089544 11.051764 -0.231023
v -0.132894 11.051773 -0.209114
v -0.171135 11.051764 -0.179171
v -0.202804 11.051763 -0.142340
v -0.226676 11.051769 -0.100039
v -0.241836 11.051769 -0.053897
v -0.247703 11.051774 -0.005681
v -0.244053 11.051765 0.042755
v -0.231023 11.051766 0.089544
v -0.209114 11.051761 0.132894
v -0.179169 11.051765 0.171137
v -0.142340 11.051769 0.202801
v -0.100038 11.051769 0.226674
v -0.053893 11.051765 0.241837
v -0.005678 11.051771 0.247705
v 0.042751 11.051777 0.244053
v 0.089543 11.051763 0.231023
v 0.132894 11.051757 0.209114
v 0.171136 11.051764 0.179169
v 0.202806 11.051765 0.142335
v 0.226676 11.051773 0.100038
v 0.241837 11.051771 0.053895
vn -0.7593 0.6487 0.0508
vn -0.7547 0.6487 -0.0984
vn -0.6690 0.7111 -0.2163
vn -0.6984 0.7111 -0.0816
vn -0.3375 0.6487 -0.6821
vn -0.1979 0.6487 -0.7349
vn -0.0562 0.7111 -0.7009
vn -0.1919 0.7111 -0.6764
vn -0.4641 0.6487 -0.6032
vn -0.3202 0.7111 -0.6260
vn -0.0508 0.6487 -0.7593
vn 0.0984 0.6487 -0.7547
vn 0.2163 0.7111 -0.6690
vn 0.0816 0.7111 -0.6984
vn 0.3797 0.6487 -0.6596
vn 0.5011 0.6487 -0.5728
vn 0.5515 0.7111 -0.4361
vn 0.4558 0.7111 -0.5354
vn 0.6821 0.6487 -0.3375
vn 0.7349 0.6487 -0.1979
vn 0.7009 0.7111 -0.0562
vn 0.6764 0.7111 -0.1919
vn 0.7547 0.6487 0.0984
vn 0.7210 0.6487 0.2437
vn 0.6140 0.7111 0.3426
vn 0.6690 0.7111 0.2163
vn 0.5728 0.6487 0.5011
vn 0.4641 0.6487 0.6032
vn 0.3202 0.7111 0.6260
vn 0.4361 0.7111 0.5515
vn 0.1979 0.6487 0.7349
vn 0.0508 0.6487 0.7593
vn -0.0816 0.7111 0.6984
vn 0.0562 0.7111 0.7009
vn -0.2437 0.6487 0.7210
vn -0.3797 0.6487 0.6596
vn -0.4558 0.7111 0.5354
vn -0.3426 0.7111 0.6140
vn 0.9249 -0.1788 -0.3355
vn 0.8417 -0.1789 -0.5095
vn 0.7487 -0.2803 -0.6008
vn 0.8515 -0.2803 -0.4432
vn 0.9720 0.1594 0.1725
vn 0.9870 0.1594 -0.0204
vn 0.9663 0.1219 -0.2266
vn 0.9920 0.1219 -0.0337
vn 0.9641 0.1594 -0.2126
vn 0.9036 0.1219 -0.4108
vn 0.9041 0.1594 -0.3966
vn 0.8060 0.1219 -0.5792
vn 0.8093 0.1594 -0.5653
vn 0.6776 0.1219 -0.7253
vn 0.6835 0.1594 -0.7124
vn 0.5231 0.1219 -0.8435
vn 0.5314 0.1594 -0.8320
vn 0.3484 0.1219 -0.9294
vn 0.3588 0.1594 -0.9197
vn 0.1604 0.1219 -0.9795
vn 0.1725 0.1594 -0.9720
vn -0.0337 0.1219 -0.9920
vn -0.0204 0.1594 -0.9870
vn -0.2266 0.1219 -0.9663
vn -0.2126 0.1594 -0.9641
vn -0.4108 0.1219 -0.9036
vn -0.3966 0.1594 -0.9041
vn -0.5791 0.1219 -0.8061
vn -0.5653 0.1594 -0.8093
vn -0.7253 0.1219 -0.6776
vn -0.7124 0.1594 -0.6835
vn -0.8435 0.1219 -0.5231
vn -0.9249 -0.1789 0.3355
vn -0.8417 -0.1789 0.5095
vn -0.7487 -0.2803 0.6008
vn -0.8515 -0.2803 0.4432
vn -0.8320 0.1594 -0.5314
vn -0.9294 0.1219 -0.3484
vn -0.9197 0.1594 -0.3588
vn -0.9795 0.1219 -0.1604
vn -0.9720 0.1594 -0.1725
vn -0.9920 0.1219 0.0337
vn -0.9870 0.1594 0.0204
vn -0.9663 0.1219 0.2266
vn -0.9641 0.1594 0.2126
vn -0.9036 0.1219 0.4108
vn -0.9041 0.1594 0.3966
vn -0.8061 0.1219 0.5792
vn -0.8093 0.1594 0.5653
vn -0.6776 0.1219 0.7253
vn -0.6835 0.1594 0.7124
vn -0.5231 0.1219 0.8435
vn -0.5314 0.1594 0.8320
vn -0.3485 0.1219 0.9294
vn -0.3588 0.1594 0.9197
vn -0.1604 0.1219 0.9795
vn -0.1725 0.1594 0.9720
vn 0.0337 0.1219 0.9920
vn 0.0204 0.1594 0.9870
vn 0.2266 0.1219 0.9663
vn 0.2126 0.1594 0.9641
vn 0.4108 0.1219 0.9036
vn 0.3966 0.1594 0.9041
vn 0.5791 0.1219 0.8061
vn 0.7124 0.1594 0.6835
vn 0.8435 0.1219 0.5231
vn 0.7253 0.1219 0.6776
vn 0.5653 0.1594 0.8093
vn 0.8320 0.1594 0.5314
vn 0.9197 0.1594 0.3588
vn 0.9795 0.1219 0.1604
vn 0.9294 0.1219 0.3484
vn -0.3658 0.3230 0.8728
vn -0.5291 0.3230 0.7847
vn -0.6950 0.3720 0.6153
vn -0.5616 0.3720 0.7391
vn -0.8230 0.5242 0.2189
vn -0.8499 0.5242 0.0541
vn -0.8006 0.5899 -0.1050
vn -0.8057 0.5899 0.0532
vn -0.2576 0.8699 -0.4207
vn -0.1445 0.9196 -0.3653
vn -0.2130 0.9196 -0.3300
vn -0.3347 0.8699 -0.3624
vn -0.1885 0.3230 0.9274
vn -0.4066 0.3720 0.8344
vn -0.7645 0.5242 0.3752
vn -0.7799 0.5899 0.2094
vn -0.3231 0.9196 -0.2234
vn -0.4479 0.8699 -0.2067
vn -0.3990 0.8699 -0.2901
vn -0.2733 0.9196 -0.2821
vn -0.0040 0.3230 0.9464
vn -0.2360 0.3720 0.8977
vn -0.6766 0.5242 0.5172
vn -0.7241 0.5899 0.3575
vn -0.3605 0.9196 -0.1561
vn -0.4796 0.8699 -0.1153
vn 0.1807 0.3230 0.9290
vn -0.0563 0.3720 0.9265
vn -0.5627 0.5242 0.6392
vn -0.6404 0.5899 0.4919
vn -0.3840 0.9196 -0.0827
vn -0.4929 0.8699 -0.0195
vn 0.3585 0.3230 0.8759
vn 0.1255 0.3720 0.9197
vn -0.4272 0.5242 0.7367
vn -0.5321 0.5899 0.6074
vn -0.3928 0.9196 -0.0062
vn -0.4873 0.8699 0.0770
vn 0.5225 0.3230 0.7891
vn 0.3025 0.3720 0.8775
vn -0.2752 0.5242 0.8059
vn -0.4034 0.5899 0.6995
vn -0.3864 0.9196 0.0705
vn -0.4629 0.8699 0.1706
vn 0.6664 0.3230 0.6720
vn 0.4679 0.3720 0.8017
vn -0.1127 0.5242 0.8441
vn -0.2592 0.5899 0.7648
vn -0.3653 0.9196 0.1445
vn -0.4207 0.8699 0.2576
vn 0.7847 0.3230 0.5291
vn 0.6153 0.3720 0.6950
vn 0.0541 0.5242 0.8499
vn -0.1050 0.5899 0.8006
vn -0.3300 0.9196 0.2130
vn -0.3624 0.8699 0.3347
vn 0.8728 0.3230 0.3658
vn 0.7391 0.3720 0.5616
vn 0.2189 0.5242 0.8230
vn 0.0532 0.5899 0.8057
vn -0.2821 0.9196 0.2733
vn -0.2901 0.8699 0.3990
vn 0.9274 0.3230 0.1885
vn 0.8344 0.3720 0.4066
vn 0.3752 0.5242 0.7645
vn 0.2094 0.5899 0.7799
vn -0.2234 0.9196 0.3231
vn -0.2067 0.8699 0.4479
vn 0.9464 0.3230 0.0040
vn 0.8977 0.3720 0.2360
vn 0.5172 0.5242 0.6766
vn 0.3575 0.5899 0.7241
vn -0.1561 0.9196 0.3605
vn -0.1153 0.8699 0.4796
vn 0.9290 0.3230 -0.1807
vn 0.9265 0.3720 0.0563
vn 0.6392 0.5242 0.5627
vn 0.4919 0.5899 0.6404
vn -0.0827 0.9196 0.3840
vn -0.0195 0.8699 0.4929
vn 0.8759 0.3230 -0.3585
vn 0.9197 0.3720 -0.1255
vn 0.7367 0.5242 0.4272
vn 0.6074 0.5899 0.5321
vn -0.0062 0.9196 0.3928
vn 0.0770 0.8699 0.4873
vn 0.7891 0.3230 -0.5225
vn 0.8775 0.3720 -0.3025
vn 0.8059 0.5242 0.2752
vn 0.6995 0.5899 0.4034
vn 0.0705 0.9196 0.3864
vn 0.1706 0.8699 0.4629
vn 0.6720 0.3230 -0.6664
vn 0.8017 0.3720 -0.4679
vn 0.8441 0.5242 0.1127
vn 0.7648 0.5899 0.2592
vn 0.1445 0.9196 0.3653
vn 0.2576 0.8699 0.4207
vn 0.5291 0.3230 -0.7847
vn 0.6950 0.3720 -0.6153
vn 0.8499 0.5242 -0.0541
vn 0.8006 0.5899 0.1050
vn 0.2130 0.9196 0.3300
vn 0.3347 0.8699 0.3624
vn 0.3658 0.3230 -0.8728
vn 0.5616 0.3720 -0.7391
vn 0.8230 0.5242 -0.2189
vn 0.8057 0.5899 -0.0532
vn 0.2733 0.9196 0.2821
vn 0.3990 0.8699 0.2901
vn 0.1885 0.3230 -0.9274
vn 0.4066 0.3720 -0.8344
vn 0.7645 0.5242 -0.3752
vn 0.7799 0.5899 -0.2094
vn 0.3231 0.9196 0.2234
vn 0.4479 0.8699 0.2067
vn 0.0040 0.3230 -0.9464
vn 0.2360 0.3720 -0.8977
vn 0.6766 0.5242 -0.5172
vn 0.7241 0.5899 -0.3575
vn 0.3605 0.9196 0.1561
vn 0.4796 0.8699 0.1153
vn -0.1807 0.3230 -0.9290
vn 0.0563 0.3720 -0.9265
vn 0.5627 0.5242 -0.6392
vn 0.6404 0.5899 -0.4919
vn 0.3840 0.9196 0.0827
vn 0.4929 0.8699 0.0195
vn -0.3585 0.3230 -0.8759
vn -0.1255 0.3720 -0.9197
vn 0.4272 0.5242 -0.7367
vn 0.5321 0.5899 -0.6074
vn 0.3928 0.9196 0.0062
vn 0.4873 0.8699 -0.0770
vn -0.5225 0.3230 -0.7891
vn -0.3025 0.3720 -0.8775
vn 0.2752 0.5242 -0.8059
vn 0.4034 0.5899 -0.6995
vn 0.3864 0.9196 -0.0705
vn 0.4629 0.8699 -0.1706
vn -0.6664 0.3230 -0.6720
vn -0.4679 0.3720 -0.8017
vn 0.1127 0.5242 -0.8441
vn 0.2592 0.5899 -0.7648
vn 0.3653 0.9196 -0.1445
vn 0.4207 0.8699 -0.2576
vn -0.7847 0.3230 -0.5291
vn -0.6153 0.3720 -0.6950
vn -0.0541 0.5242 -0.8499
vn 0.1050 0.5899 -0.8006
vn 0.3300 0.9196 -0.2130
vn 0.3624 0.8699 -0.3347
vn -0.8728 0.3230 -0.3658
vn -0.7391 0.3720 -0.5616
vn -0.2189 0.5242 -0.8230
vn -0.0532 0.5899 -0.8057
vn 0.2821 0.9196 -0.2733
vn 0.2901 0.8699 -0.3990
vn -0.9274 0.3230 -0.1885
vn -0.8344 0.3720 -0.4066
vn -0.3752 0.5242 -0.7645
vn -0.2094 0.5899 -0.7799
vn 0.2234 0.9196 -0.3231
vn 0.2067 0.8699 -0.4479
vn -0.9464 0.3230 -0.0040
vn -0.8977 0.3720 -0.2360
vn -0.5172 0.5242 -0.6766
vn -0.3575 0.5899 -0.7241
vn 0.1561 0.9196 -0.3605
vn 0.1153 0.8699 -0.4796
vn -0.9290 0.3230 0.1807
vn -0.9265 0.3720 -0.0563
vn -0.6392 0.5242 -0.5627
vn -0.4919 0.5899 -0.6404
vn 0.0827 0.9196 -0.3840
vn 0.0195 0.8699 -0.4929
vn -0.8759 0.3230 0.3585
vn -0.9197 0.3720 0.1255
vn -0.7367 0.5242 -0.4272
vn -0.6074 0.5899 -0.5321
vn 0.0062 0.9196 -0.3928
vn -0.0770 0.8699 -0.4873
vn -0.7891 0.3230 0.5225
vn -0.8775 0.3720 0.3025
vn -0.8059 0.5242 -0.2752
vn -0.6995 0.5899 -0.4034
vn -0.0705 0.9196 -0.3864
vn -0.1706 0.8699 -0.4629
vn -0.6720 0.3230 0.6664
vn -0.8017 0.3720 0.4679
vn -0.8441 0.5242 -0.1127
vn -0.7648 0.5899 -0.2592
vn -0.7210 0.6487 -0.2437
vn -0.6140 0.7111 -0.3426
vn -0.2627 0.9349 -0.2385
vn -0.2111 0.9349 -0.2852
vn -0.5728 0.6487 -0.5011
vn -0.4361 0.7111 -0.5515
vn -0.6596 0.6487 -0.3797
vn -0.5354 0.7111 -0.4558
vn -0.8015 0.4188 0.4268
vn -0.8694 0.4188 0.2622
vn -0.8787 0.4729 0.0644
vn -0.8493 0.4729 0.2346
vn -0.7349 0.6487 0.1979
vn -0.7009 0.7111 0.0562
vn -0.6821 0.6487 0.3375
vn -0.6764 0.7111 0.1919
vn -0.5011 0.6487 0.5728
vn -0.6032 0.6487 0.4641
vn -0.6260 0.7111 0.3202
vn -0.5515 0.7111 0.4361
vn -0.0984 0.6487 0.7547
vn -0.2163 0.7111 0.6690
vn 0.3375 0.6487 0.6821
vn 0.1919 0.7111 0.6764
vn 0.6596 0.6487 0.3797
vn 0.5354 0.7111 0.4558
vn 0.7593 0.6487 -0.0508
vn 0.6984 0.7111 0.0816
vn 0.6032 0.6487 -0.4641
vn 0.6260 0.7111 -0.3202
vn 0.2437 0.6487 -0.7210
vn 0.3426 0.7111 -0.6140
vn 0.9216 -0.2803 -0.2686
vn 0.9726 -0.1789 -0.1487
vn 0.9554 -0.1789 0.2348
vn 0.9829 -0.1789 0.0440
vn 0.9563 -0.2803 -0.0836
vn 0.9542 -0.2803 0.1045
vn 0.8912 -0.1788 0.4168
vn 0.9155 -0.2803 0.2887
vn 0.7928 -0.1789 0.5826
vn 0.8416 -0.2803 0.4618
vn 0.6639 -0.1789 0.7261
vn 0.7353 -0.2803 0.6171
vn 0.5095 -0.1789 0.8417
vn 0.6008 -0.2803 0.7487
vn 0.3355 -0.1789 0.9249
vn 0.4432 -0.2803 0.8515
vn 0.1486 -0.1788 0.9726
vn 0.2686 -0.2803 0.9216
vn -0.0439 -0.1789 0.9829
vn 0.0836 -0.2803 0.9563
vn -0.2349 -0.1788 0.9554
vn -0.1045 -0.2803 0.9542
vn -0.4167 -0.1789 0.8913
vn -0.2887 -0.2803 0.9155
vn -0.5826 -0.1789 0.7928
vn -0.4618 -0.2803 0.8416
vn -0.7261 -0.1789 0.6639
vn -0.6171 -0.2803 0.7353
vn -0.9726 -0.1789 0.1486
vn -0.9216 -0.2803 0.2686
vn -0.9829 -0.1789 -0.0440
vn -0.9563 -0.2803 0.0836
vn -0.9554 -0.1789 -0.2349
vn -0.9542 -0.2803 -0.1045
vn -0.8912 -0.1788 -0.4168
vn -0.9155 -0.2803 -0.2887
vn -0.7928 -0.1789 -0.5826
vn -0.8416 -0.2803 -0.4618
vn -0.6639 -0.1789 -0.7261
vn -0.7353 -0.2803 -0.6171
vn -0.5095 -0.1789 -0.8416
vn -0.6008 -0.2803 -0.7487
vn -0.3355 -0.1789 -0.9249
vn -0.4432 -0.2803 -0.8515
vn -0.1486 -0.1789 -0.9726
vn -0.2686 -0.2803 -0.9216
vn 0.0440 -0.1789 -0.9829
vn -0.0836 -0.2803 -0.9563
vn 0.2349 -0.1789 -0.9554
vn 0.1046 -0.2803 -0.9542
vn 0.4168 -0.1789 -0.8912
vn 0.2887 -0.2803 -0.9155
vn 0.5826 -0.1789 -0.7928
vn 0.4618 -0.2803 -0.8416
vn 0.7261 -0.1789 -0.6639
vn 0.6171 -0.2803 -0.7353
vn 0.9869 0.0005 -0.1616
vn 0.9364 0.0005 -0.3510
vn 0.9961 0.0776 -0.0427
vn 0.9853 0.0776 0.1524
vn 0.8499 0.0005 -0.5269
vn 0.9686 0.0776 -0.2362
vn 0.7308 0.0005 -0.6826
vn 0.9039 0.0776 -0.4207
vn 0.5836 0.0005 -0.8121
vn 0.8045 0.0776 -0.5889
vn 0.4139 0.0005 -0.9103
vn 0.6741 0.0776 -0.7345
vn 0.2284 0.0005 -0.9736
vn 0.5178 0.0776 -0.8519
vn 0.0341 0.0006 -0.9994
vn 0.3417 0.0776 -0.9366
vn -0.1616 0.0005 -0.9869
vn 0.1524 0.0776 -0.9853
vn -0.3510 0.0005 -0.9364
vn -0.0428 0.0776 -0.9961
vn -0.5268 0.0006 -0.8500
vn -0.2362 0.0776 -0.9686
vn -0.6827 0.0005 -0.7307
vn -0.4207 0.0776 -0.9039
vn -0.8120 0.0006 -0.5836
vn -0.5889 0.0776 -0.8045
vn -0.9103 0.0005 -0.4139
vn -0.7345 0.0776 -0.6741
vn -0.9736 0.0005 -0.2284
vn -0.8519 0.0776 -0.5178
vn -0.9994 0.0005 -0.0341
vn -0.9366 0.0776 -0.3417
vn -0.9869 0.0005 0.1616
vn -0.9853 0.0776 -0.1524
vn -0.9364 0.0006 0.3509
vn -0.9961 0.0776 0.0427
vn -0.8499 0.0005 0.5270
vn -0.9686 0.0776 0.2362
vn -0.7308 0.0006 0.6825
vn -0.9039 0.0776 0.4207
vn -0.5836 0.0005 0.8121
vn -0.8045 0.0776 0.5889
vn -0.4139 0.0005 0.9103
vn -0.6741 0.0776 0.7345
vn -0.2284 0.0005 0.9736
vn -0.5178 0.0776 0.8519
vn -0.0341 0.0005 0.9994
vn -0.3417 0.0776 0.9366
vn 0.1616 0.0005 0.9869
vn -0.1524 0.0776 0.9853
vn 0.3510 0.0005 0.9364
vn 0.0428 0.0776 0.9961
vn 0.5269 0.0006 0.8499
vn 0.2362 0.0776 0.9686
vn 0.6826 0.0006 0.7308
vn 0.4207 0.0776 0.9039
vn 0.8121 0.0005 0.5836
vn 0.5889 0.0776 0.8045
vn 0.9103 0.0005 0.4140
vn 0.7345 0.0776 0.6741
vn 0.9736 0.0005 0.2284
vn 0.8519 0.0776 0.5179
vn 0.9994 0.0005 0.0341
vn 0.9366 0.0776 0.3417
vn 0.1198 0.9349 -0.3339
vn 0.1827 0.9349 -0.3041
vn 0.2852 0.9349 -0.2111
vn 0.3209 0.9349 -0.1514
vn 0.3544 0.9349 -0.0171
vn 0.3509 0.9349 0.0524
vn 0.3041 0.9349 0.1827
vn 0.2627 0.9349 0.2385
vn 0.1514 0.9349 0.3209
vn 0.0859 0.9349 0.3442
vn -0.0524 0.9349 0.3509
vn -0.1198 0.9349 0.3339
vn -0.2385 0.9349 0.2627
vn -0.2852 0.9349 0.2111
vn -0.3442 0.9349 0.0859
vn -0.3544 0.9349 0.0171
vn -0.3339 0.9349 -0.1198
vn -0.3041 0.9349 -0.1827
vn -0.0859 0.9349 -0.3442
vn -0.0171 0.9349 -0.3544
vn -0.1514 0.9349 -0.3209
vn -0.3509 0.9349 -0.0524
vn -0.3209 0.9349 0.1514
vn -0.1827 0.9349 0.3041
vn 0.0171 0.9349 0.3544
vn 0.2111 0.9349 0.2852
vn 0.3339 0.9349 0.1198
vn 0.3442 0.9349 -0.0859
vn 0.2385 0.9349 -0.2627
vn 0.0524 0.9349 -0.3509
vn -0.5356 0.7989 -0.2738
vn -0.4719 0.7989 -0.3730
vn -0.5787 0.7989 -0.1640
vn -0.5996 0.7989 -0.0480
vn -0.5974 0.7989 0.0699
vn -0.5723 0.7989 0.1851
vn -0.5252 0.7989 0.2932
vn -0.4579 0.7989 0.3900
vn -0.3730 0.7989 0.4719
vn -0.2738 0.7989 0.5356
vn -0.1640 0.7989 0.5787
vn -0.0480 0.7989 0.5996
vn 0.0699 0.7989 0.5974
vn 0.1851 0.7989 0.5723
vn 0.2932 0.7989 0.5252
vn 0.3900 0.7989 0.4579
vn 0.4719 0.7989 0.3730
vn 0.5356 0.7989 0.2738
vn 0.5787 0.7989 0.1640
vn 0.5996 0.7989 0.0480
vn 0.5974 0.7989 -0.0699
vn 0.5723 0.7989 -0.1851
vn 0.5252 0.7989 -0.2932
vn 0.4579 0.7989 -0.3900
vn 0.3730 0.7989 -0.4719
vn 0.2738 0.7989 -0.5356
vn 0.1640 0.7989 -0.5787
vn 0.0480 0.7989 -0.5996
vn -0.0699 0.7989 -0.5974
vn -0.1851 0.7989 -0.5723
vn -0.2932 0.7989 -0.5252
vn -0.3900 0.7989 -0.4579
vn -0.9038 0.4188 0.0876
vn -0.8744 0.4729 -0.1083
vn -0.9036 0.4188 -0.0904
vn -0.8365 0.4729 -0.2768
vn -0.8686 0.4188 -0.2650
vn -0.7664 0.4729 -0.4347
vn -0.8002 0.4188 -0.4293
vn -0.6669 0.4729 -0.5758
vn -0.7010 0.4188 -0.5772
vn -0.5417 0.4729 -0.6949
vn -0.5750 0.4188 -0.7029
vn -0.3958 0.4729 -0.7872
vn -0.4268 0.4188 -0.8015
vn -0.2346 0.4729 -0.8493
vn -0.2622 0.4188 -0.8694
vn -0.0644 0.4729 -0.8787
vn -0.0876 0.4188 -0.9038
vn 0.1083 0.4729 -0.8744
vn 0.0904 0.4188 -0.9036
vn 0.2768 0.4729 -0.8365
vn 0.2650 0.4188 -0.8686
vn 0.4347 0.4729 -0.7664
vn 0.4293 0.4188 -0.8002
vn 0.5758 0.4729 -0.6669
vn 0.5772 0.4188 -0.7010
vn 0.6949 0.4729 -0.5417
vn 0.7029 0.4188 -0.5750
vn 0.7872 0.4729 -0.3958
vn 0.8015 0.4188 -0.4268
vn 0.8493 0.4729 -0.2346
vn 0.8694 0.4188 -0.2622
vn 0.8787 0.4729 -0.0644
vn 0.9038 0.4188 -0.0876
vn 0.8744 0.4729 0.1083
vn 0.9036 0.4188 0.0904
vn 0.8365 0.4729 0.2768
vn 0.8686 0.4188 0.2650
vn 0.7664 0.4729 0.4347
vn 0.8002 0.4188 0.4293
vn 0.6669 0.4729 0.5758
vn 0.7010 0.4188 0.5772
vn 0.5417 0.4729 0.6949
vn 0.5750 0.4188 0.7029
vn 0.3958 0.4729 0.7872
vn 0.4268 0.4188 0.8015
vn 0.2346 0.4729 0.8493
vn 0.2622 0.4188 0.8694
vn 0.0644 0.4729 0.8787
vn 0.0876 0.4188 0.9038
vn -0.1083 0.4729 0.8744
vn -0.0904 0.4188 0.9036
vn -0.2768 0.4729 0.8365
vn -0.2650 0.4188 0.8686
vn -0.4347 0.4729 0.7664
vn -0.4293 0.4188 0.8002
vn -0.5758 0.4729 0.6669
vn -0.5772 0.4188 0.7010
vn -0.6949 0.4729 0.5417
vn -0.7029 0.4188 0.5750
vn -0.7872 0.4729 0.3958
vn -0.0810 0.2316 0.9694
vn -0.2686 0.2316 0.9350
vn -0.4849 0.2781 0.8292
vn -0.3138 0.2781 0.9079
vn -0.4458 0.2316 0.8646
vn -0.6373 0.2781 0.7187
vn -0.6059 0.2316 0.7610
vn -0.7653 0.2781 0.5805
vn -0.7428 0.2316 0.6282
vn -0.8638 0.2781 0.4201
vn -0.8511 0.2316 0.4712
vn -0.9292 0.2781 0.2435
vn -0.9266 0.2316 0.2961
vn -0.9588 0.2781 0.0575
vn -0.9666 0.2316 0.1097
vn -0.9516 0.2781 -0.1306
vn -0.9694 0.2316 -0.0810
vn -0.9079 0.2781 -0.3138
vn -0.9350 0.2316 -0.2686
vn -0.8292 0.2781 -0.4849
vn -0.8646 0.2316 -0.4458
vn -0.7187 0.2781 -0.6373
vn -0.7610 0.2316 -0.6059
vn -0.5805 0.2781 -0.7653
vn -0.6282 0.2316 -0.7428
vn -0.4201 0.2781 -0.8638
vn -0.4712 0.2316 -0.8511
vn -0.2435 0.2781 -0.9292
vn -0.2961 0.2316 -0.9266
vn -0.0575 0.2781 -0.9588
vn -0.1097 0.2316 -0.9666
vn 0.1307 0.2781 -0.9516
vn 0.0810 0.2316 -0.9694
vn 0.3138 0.2781 -0.9079
vn 0.2686 0.2316 -0.9350
vn 0.4849 0.2781 -0.8292
vn 0.4458 0.2316 -0.8646
vn 0.6373 0.2781 -0.7187
vn 0.6059 0.2316 -0.7610
vn 0.7653 0.2781 -0.5805
vn 0.7428 0.2316 -0.6282
vn 0.8638 0.2781 -0.4201
vn 0.8511 0.2316 -0.4712
vn 0.9292 0.2781 -0.2435
vn 0.9266 0.2316 -0.2961
vn 0.9588 0.2781 -0.0575
vn 0.9666 0.2316 -0.1097
vn 0.9516 0.2781 0.1306
vn 0.9694 0.2316 0.0810
vn 0.9079 0.2781 0.3138
vn 0.9350 0.2316 0.2686
vn 0.8292 0.2781 0.4849
vn 0.8646 0.2316 0.4458
vn 0.7187 0.2781 0.6373
vn 0.7610 0.2316 0.6059
vn 0.5805 0.2781 0.7653
vn 0.6282 0.2316 0.7428
vn 0.4201 0.2781 0.8638
vn 0.4712 0.2316 0.8511
vn 0.2435 0.2781 0.9292
vn 0.2961 0.2316 0.9266
vn 0.0575 0.2781 0.9588
vn 0.1097 0.2316 0.9666
vn -0.1307 0.2781 0.9516
vn 0.3431 0.1967 0.9185
vn 0.1573 0.1967 0.9678
vn 0.5157 0.1967 0.8339
vn 0.6685 0.1967 0.7173
vn 0.7955 0.1967 0.5731
vn 0.8921 0.1967 0.4069
vn 0.9543 0.1967 0.2250
vn 0.9799 0.1967 0.0345
vn 0.9678 0.1967 -0.1573
vn 0.9185 0.1967 -0.3431
vn 0.8339 0.1967 -0.5157
vn 0.7173 0.1967 -0.6685
vn 0.5731 0.1967 -0.7955
vn 0.4069 0.1967 -0.8921
vn 0.2250 0.1967 -0.9543
vn 0.0345 0.1967 -0.9799
vn -0.1573 0.1967 -0.9678
vn -0.3431 0.1967 -0.9185
vn -0.5157 0.1967 -0.8339
vn -0.6684 0.1967 -0.7173
vn -0.7955 0.1967 -0.5731
vn -0.8921 0.1967 -0.4069
vn -0.9543 0.1967 -0.2250
vn -0.9799 0.1967 -0.0345
vn -0.9678 0.1967 0.1573
vn -0.9185 0.1967 0.3431
vn -0.8339 0.1967 0.5157
vn -0.7173 0.1967 0.6684
vn -0.5731 0.1967 0.7955
vn -0.4069 0.1967 0.8921
vn -0.2250 0.1967 0.9543
vn -0.0345 0.1967 0.9799
vn 0.3826 0.1617 0.9096
vn 0.1978 0.1617 0.9668
vn 0.7016 0.1617 0.6940
vn 0.5527 0.1617 0.8175
vn 0.9138 0.1617 0.3726
vn 0.8235 0.1617 0.5437
vn 0.0054 0.1617 0.9868
vn -0.1872 0.1617 0.9689
vn -0.3726 0.1617 0.9138
vn -0.5438 0.1617 0.8235
vn -0.6940 0.1617 0.7016
vn -0.8175 0.1617 0.5527
vn -0.9096 0.1617 0.3826
vn -0.9668 0.1617 0.1978
vn -0.9868 0.1617 0.0054
vn -0.9689 0.1617 -0.1872
vn -0.9138 0.1617 -0.3726
vn -0.8235 0.1617 -0.5438
vn -0.7016 0.1617 -0.6940
vn -0.5528 0.1617 -0.8175
vn -0.3826 0.1617 -0.9096
vn -0.1978 0.1617 -0.9668
vn -0.0054 0.1617 -0.9868
vn 0.1872 0.1617 -0.9689
vn 0.3726 0.1617 -0.9138
vn 0.5438 0.1617 -0.8235
vn 0.6940 0.1617 -0.7016
vn 0.8175 0.1617 -0.5527
vn 0.9096 0.1617 -0.3826
vn 0.9668 0.1617 -0.1978
vn 0.9868 0.1617 -0.0054
vn 0.9689 0.1617 0.1872
vt 0.062500 0.408358
vt 0.031250 0.408358
vt 0.031250 0.376596
vt 0.062500 0.376596
vt 0.875000 0.408358
vt 0.843750 0.408358
vt 0.843750 0.376596
vt 0.875000 0.376596
vt 0.906250 0.408358
vt 0.906250 0.376596
vt 0.812500 0.408358
vt 0.781250 0.408358
vt 0.781250 0.376596
vt 0.812500 0.376596
vt 0.718750 0.408358
vt 0.687500 0.408358
vt 0.687500 0.376596
vt 0.718750 0.376596
vt 0.625000 0.408358
vt 0.593750 0.408358
vt 0.593750 0.376596
vt 0.625000 0.376596
vt 0.531250 0.408358
vt 0.500000 0.408358
vt 0.500000 0.376596
vt 0.531250 0.376596
vt 0.437500 0.408358
vt 0.406250 0.408358
vt 0.406250 0.376596
vt 0.437500 0.376596
vt 0.343750 0.408358
vt 0.312500 0.408358
vt 0.312500 0.376596
vt 0.343750 0.376596
vt 0.250000 0.408358
vt 0.218750 0.408358
vt 0.218750 0.376596
vt 0.250000 0.376596
vt 0.031250 0.754669
vt 0.062500 0.754669
vt 0.062500 0.799455
vt 0.031250 0.799455
vt 0.125000 0.659939
vt 0.156250 0.659939
vt 0.156250 0.675012
vt 0.125000 0.675012
vt 0.187500 0.659939
vt 0.187500 0.675012
vt 0.218750 0.659939
vt 0.218750 0.675012
vt 0.250000 0.659939
vt 0.250000 0.675012
vt 0.281250 0.659939
vt 0.281250 0.675012
vt 0.312500 0.659939
vt 0.312500 0.675012
vt 0.343750 0.659939
vt 0.343750 0.675012
vt 0.375000 0.659939
vt 0.375000 0.675012
vt 0.406250 0.659939
vt 0.406250 0.675012
vt 0.437500 0.659939
vt 0.437500 0.675012
vt 0.468750 0.659939
vt 0.468750 0.675012
vt 0.500000 0.659939
vt 0.500000 0.675012
vt 0.531250 0.659939
vt 0.531250 0.675012
vt 0.531250 0.754669
vt 0.562500 0.754669
vt 0.562500 0.799455
vt 0.531250 0.799455
vt 0.562500 0.659939
vt 0.562500 0.675012
vt 0.593750 0.659939
vt 0.593750 0.675012
vt 0.625000 0.659939
vt 0.625000 0.675012
vt 0.656250 0.659939
vt 0.656250 0.675012
vt 0.687500 0.659939
vt 0.687500 0.675012
vt 0.718750 0.659939
vt 0.718750 0.675012
vt 0.750000 0.659939
vt 0.750000 0.675012
vt 0.781250 0.659939
vt 0.781250 0.675012
vt 0.812500 0.659939
vt 0.812500 0.675012
vt 0.843750 0.659939
vt 0.843750 0.675012
vt 0.875000 0.659939
vt 0.875000 0.675012
vt 0.906250 0.659939
vt 0.906250 0.675012
vt 0.937500 0.659939
vt 0.937500 0.675012
vt 0.968750 0.659939
vt 0.968750 0.675012
vt 0.031250 0.659939
vt 0.031250 0.675012
vt -0.000650 0.675012
vt -0.000729 0.659939
vt 0.062500 0.659939
vt 0.093750 0.659939
vt 0.093750 0.675012
vt 0.062500 0.675012
vt 0.031250 0.585866
vt -0.001550 0.585866
vt -0.001772 0.571225
vt 0.031250 0.571225
vt 0.031250 0.472896
vt -0.001151 0.472896
vt -0.000944 0.440120
vt 0.031250 0.440120
vt 0.968750 0.293889
vt 0.968750 0.209901
vt 1.000000 0.209901
vt 1.000000 0.293889
vt 0.062500 0.585866
vt 0.062500 0.571225
vt 0.062500 0.472896
vt 0.062500 0.440120
vt 0.062500 0.209901
vt 0.062500 0.293889
vt 0.031250 0.293889
vt 0.031250 0.209901
vt 0.093750 0.585866
vt 0.093750 0.571225
vt 0.093750 0.472896
vt 0.093750 0.440120
vt 0.093750 0.209901
vt 0.093750 0.293889
vt 0.125000 0.585866
vt 0.125000 0.571225
vt 0.125000 0.472896
vt 0.125000 0.440120
vt 0.125000 0.209901
vt 0.125000 0.293889
vt 0.156250 0.585866
vt 0.156250 0.571225
vt 0.156250 0.472896
vt 0.156250 0.440120
vt 0.156250 0.209901
vt 0.156250 0.293889
vt 0.187500 0.585866
vt 0.187500 0.571225
vt 0.187500 0.472896
vt 0.187500 0.440120
vt 0.187500 0.209901
vt 0.187500 0.293889
vt 0.218750 0.585866
vt 0.218750 0.571225
vt 0.218750 0.472896
vt 0.218750 0.440120
vt 0.218750 0.209901
vt 0.218750 0.293889
vt 0.250000 0.585866
vt 0.250000 0.571225
vt 0.250000 0.472896
vt 0.250000 0.440120
vt 0.250000 0.209901
vt 0.250000 0.293889
vt 0.281250 0.585866
vt 0.281250 0.571225
vt 0.281250 0.472896
vt 0.281250 0.440120
vt 0.281250 0.209901
vt 0.281250 0.293889
vt 0.312500 0.585866
vt 0.312500 0.571225
vt 0.312500 0.472896
vt 0.312500 0.440120
vt 0.312500 0.209901
vt 0.312500 0.293889
vt 0.343750 0.585866
vt 0.343750 0.571225
vt 0.343750 0.472896
vt 0.343750 0.440120
vt 0.343750 0.209901
vt 0.343750 0.293889
vt 0.375000 0.585866
vt 0.375000 0.571225
vt 0.375000 0.472896
vt 0.375000 0.440120
vt 0.375000 0.209901
vt 0.375000 0.293889
vt 0.406250 0.585866
vt 0.406250 0.571225
vt 0.406250 0.472896
vt 0.406250 0.440120
vt 0.406250 0.209901
vt 0.406250 0.293889
vt 0.437500 0.585866
vt 0.437500 0.571225
vt 0.437500 0.472896
vt 0.437500 0.440120
vt 0.437500 0.209901
vt 0.437500 0.293889
vt 0.468750 0.585866
vt 0.468750 0.571225
vt 0.468750 0.472896
vt 0.468750 0.440120
vt 0.468750 0.209901
vt 0.468750 0.293889
vt 0.500000 0.585866
vt 0.500000 0.571225
vt 0.500000 0.472896
vt 0.500000 0.440120
vt 0.500000 0.209901
vt 0.500000 0.293889
vt 0.531250 0.585866
vt 0.531250 0.571225
vt 0.531250 0.472896
vt 0.531250 0.440120
vt 0.531250 0.209901
vt 0.531250 0.293889
vt 0.562500 0.585866
vt 0.562500 0.571225
vt 0.562500 0.472896
vt 0.562500 0.440120
vt 0.562500 0.209901
vt 0.562500 0.293889
vt 0.593750 0.585866
vt 0.593750 0.571225
vt 0.593750 0.472896
vt 0.593750 0.440120
vt 0.593750 0.209901
vt 0.593750 0.293889
vt 0.625000 0.585866
vt 0.625000 0.571225
vt 0.625000 0.472896
vt 0.625000 0.440120
vt 0.625000 0.209901
vt 0.625000 0.293889
vt 0.656250 0.585866
vt 0.656250 0.571225
vt 0.656250 0.472896
vt 0.656250 0.440120
vt 0.656250 0.209901
vt 0.656250 0.293889
vt 0.687500 0.585866
vt 0.687500 0.571225
vt 0.687500 0.472896
vt 0.687500 0.440120
vt 0.687500 0.209901
vt 0.687500 0.293889
vt 0.718750 0.585866
vt 0.718750 0.571225
vt 0.718750 0.472896
vt 0.718750 0.440120
vt 0.718750 0.209901
vt 0.718750 0.293889
vt 0.750000 0.585866
vt 0.750000 0.571225
vt 0.750000 0.472896
vt 0.750000 0.440120
vt 0.750000 0.209901
vt 0.750000 0.293889
vt 0.781250 0.585866
vt 0.781250 0.571225
vt 0.781250 0.472896
vt 0.781250 0.440120
vt 0.781250 0.209901
vt 0.781250 0.293889
vt 0.812500 0.585866
vt 0.812500 0.571225
vt 0.812500 0.472896
vt 0.812500 0.440120
vt 0.812500 0.209901
vt 0.812500 0.293889
vt 0.843750 0.585866
vt 0.843750 0.571225
vt 0.843750 0.472896
vt 0.843750 0.440120
vt 0.843750 0.209901
vt 0.843750 0.293889
vt 0.875000 0.585866
vt 0.875000 0.571225
vt 0.875000 0.472896
vt 0.875000 0.440120
vt 0.875000 0.209901
vt 0.875000 0.293889
vt 0.906250 0.585866
vt 0.906250 0.571225
vt 0.906250 0.472896
vt 0.906250 0.440120
vt 0.906250 0.209901
vt 0.906250 0.293889
vt 0.937500 0.585866
vt 0.937500 0.571225
vt 0.937500 0.472896
vt 0.937500 0.440120
vt 0.937500 0.209901
vt 0.937500 0.293889
vt 0.968750 0.585866
vt 0.968750 0.571225
vt 0.968750 0.472896
vt 0.968750 0.440120
vt 1.001550 0.585866
vt 1.001772 0.571225
vt 1.001151 0.472896
vt 1.000944 0.440120
vt -0.000639 0.408358
vt -0.000335 0.376596
vt 0.062500 0.200545
vt 0.031250 0.200545
vt 0.937500 0.408358
vt 0.937500 0.376596
vt 0.968750 0.408358
vt 0.968750 0.376596
vt 0.000000 0.209901
vt 0.000000 0.293889
vt 1.001565 0.538449
vt 0.968750 0.538449
vt 0.968750 0.505673
vt 1.001358 0.505673
vt 0.093750 0.408358
vt 0.093750 0.376596
vt 0.125000 0.408358
vt 0.125000 0.376596
vt 0.187500 0.408358
vt 0.156250 0.408358
vt 0.156250 0.376596
vt 0.187500 0.376596
vt 0.281250 0.408358
vt 0.281250 0.376596
vt 0.375000 0.408358
vt 0.375000 0.376596
vt 0.468750 0.408358
vt 0.468750 0.376596
vt 0.562500 0.408358
vt 0.562500 0.376596
vt 0.656250 0.408358
vt 0.656250 0.376596
vt 0.750000 0.408358
vt 0.750000 0.376596
vt 0.000000 0.799455
vt -0.000234 0.754669
vt 0.937500 0.754669
vt 0.968750 0.754669
vt 0.968750 0.799455
vt 0.937500 0.799455
vt 0.906250 0.754669
vt 0.906250 0.799455
vt 0.875000 0.754669
vt 0.875000 0.799455
vt 0.843750 0.754669
vt 0.843750 0.799455
vt 0.812500 0.754669
vt 0.812500 0.799455
vt 0.781250 0.754669
vt 0.781250 0.799455
vt 0.750000 0.754669
vt 0.750000 0.799455
vt 0.718750 0.754669
vt 0.718750 0.799455
vt 0.687500 0.754669
vt 0.687500 0.799455
vt 0.656250 0.754669
vt 0.656250 0.799455
vt 0.625000 0.754669
vt 0.625000 0.799455
vt 0.593750 0.754669
vt 0.593750 0.799455
vt 0.500000 0.754669
vt 0.500000 0.799455
vt 0.468750 0.754669
vt 0.468750 0.799455
vt 0.437500 0.754669
vt 0.437500 0.799455
vt 0.406250 0.754669
vt 0.406250 0.799455
vt 0.375000 0.754669
vt 0.375000 0.799455
vt 0.343750 0.754669
vt 0.343750 0.799455
vt 0.312500 0.754669
vt 0.312500 0.799455
vt 0.281250 0.754669
vt 0.281250 0.799455
vt 0.250000 0.754669
vt 0.250000 0.799455
vt 0.218750 0.754669
vt 0.218750 0.799455
vt 0.187500 0.754669
vt 0.187500 0.799455
vt 0.156250 0.754669
vt 0.156250 0.799455
vt 0.125000 0.754669
vt 0.125000 0.799455
vt 0.093750 0.754669
vt 0.093750 0.799455
vt 1.000234 0.754669
vt 1.000000 0.799455
vt 0.062500 0.714623
vt 0.093750 0.714623
vt 0.093750 0.694818
vt 0.062500 0.694818
vt 0.125000 0.714623
vt 0.125000 0.694818
vt 0.156250 0.714623
vt 0.156250 0.694818
vt 0.187500 0.714623
vt 0.187500 0.694818
vt 0.218750 0.714623
vt 0.218750 0.694818
vt 0.250000 0.714623
vt 0.250000 0.694818
vt 0.281250 0.714623
vt 0.281250 0.694818
vt 0.312500 0.714623
vt 0.312500 0.694818
vt 0.343750 0.714623
vt 0.343750 0.694818
vt 0.375000 0.714623
vt 0.375000 0.694818
vt 0.406250 0.714623
vt 0.406250 0.694818
vt 0.437500 0.714623
vt 0.437500 0.694818
vt 0.468750 0.714623
vt 0.468750 0.694818
vt 0.500000 0.714623
vt 0.500000 0.694818
vt 0.531250 0.714623
vt 0.531250 0.694818
vt 0.562500 0.714623
vt 0.562500 0.694818
vt 0.593750 0.714623
vt 0.593750 0.694818
vt 0.625000 0.714623
vt 0.625000 0.694818
vt 0.656250 0.714623
vt 0.656250 0.694818
vt 0.687500 0.714623
vt 0.687500 0.694818
vt 0.718750 0.714623
vt 0.718750 0.694818
vt 0.750000 0.714623
vt 0.750000 0.694818
vt 0.781250 0.714623
vt 0.781250 0.694818
vt 0.812500 0.714623
vt 0.812500 0.694818
vt 0.843750 0.714623
vt 0.843750 0.694818
vt 0.875000 0.714623
vt 0.875000 0.694818
vt 0.906250 0.714623
vt 0.906250 0.694818
vt 0.937500 0.714623
vt 0.937500 0.694818
vt 0.968750 0.714623
vt 0.968750 0.694818
vt 1.000443 0.714623
vt 1.000546 0.694818
vt 1.000650 0.675012
vt 0.031250 0.714623
vt 0.031250 0.694818
vt -0.000443 0.714623
vt -0.000546 0.694818
vt 1.000728 0.659939
vt 0.875000 0.200545
vt 0.843750 0.200545
vt 0.781250 0.200545
vt 0.750000 0.200545
vt 0.687500 0.200545
vt 0.656250 0.200545
vt 0.593750 0.200545
vt 0.562500 0.200545
vt 0.500000 0.200545
vt 0.468750 0.200545
vt 0.406250 0.200545
vt 0.375000 0.200545
vt 0.312500 0.200545
vt 0.281250 0.200545
vt 0.218750 0.200545
vt 0.187500 0.200545
vt 0.125000 0.200545
vt 0.093750 0.200545
vt 0.968750 0.200545
vt 0.937500 0.200545
vt 1.000000 0.200545
vt 0.000000 0.200545
vt 0.156250 0.200545
vt 0.250000 0.200545
vt 0.343750 0.200545
vt 0.437500 0.200545
vt 0.531250 0.200545
vt 0.625000 0.200545
vt 0.718750 0.200545
vt 0.812500 0.200545
vt 0.906250 0.200545
vt 0.031250 0.341650
vt 0.000000 0.341650
vt 0.062500 0.341650
vt 0.093750 0.341650
vt 0.125000 0.341650
vt 0.156250 0.341650
vt 0.187500 0.341650
vt 0.218750 0.341650
vt 0.250000 0.341650
vt 0.281250 0.341650
vt 0.312500 0.341650
vt 0.343750 0.341650
vt 0.375000 0.341650
vt 0.406250 0.341650
vt 0.437500 0.341650
vt 0.468750 0.341650
vt 0.500000 0.341650
vt 0.531250 0.341650
vt 0.562500 0.341650
vt 0.593750 0.341650
vt 0.625000 0.341650
vt 0.656250 0.341650
vt 0.687500 0.341650
vt 0.718750 0.341650
vt 0.750000 0.341650
vt 0.781250 0.341650
vt 0.812500 0.341650
vt 0.843750 0.341650
vt 0.875000 0.341650
vt 0.906250 0.341650
vt 0.937500 0.341650
vt 0.968750 0.341650
vt 1.000000 0.341650
vt 1.000335 0.376596
vt 1.000639 0.408358
vt 0.937500 0.538449
vt 0.937500 0.505673
vt 0.906250 0.538449
vt 0.906250 0.505673
vt 0.875000 0.538449
vt 0.875000 0.505673
vt 0.843750 0.538449
vt 0.843750 0.505673
vt 0.812500 0.538449
vt 0.812500 0.505673
vt 0.781250 0.538449
vt 0.781250 0.505673
vt 0.750000 0.538449
vt 0.750000 0.505673
vt 0.718750 0.538449
vt 0.718750 0.505673
vt 0.687500 0.538449
vt 0.687500 0.505673
vt 0.656250 0.538449
vt 0.656250 0.505673
vt 0.625000 0.538449
vt 0.625000 0.505673
vt 0.593750 0.538449
vt 0.593750 0.505673
vt 0.562500 0.538449
vt 0.562500 0.505673
vt 0.531250 0.538449
vt 0.531250 0.505673
vt 0.500000 0.538449
vt 0.500000 0.505673
vt 0.468750 0.538449
vt 0.468750 0.505673
vt 0.437500 0.538449
vt 0.437500 0.505673
vt 0.406250 0.538449
vt 0.406250 0.505673
vt 0.375000 0.538449
vt 0.375000 0.505673
vt 0.343750 0.538449
vt 0.343750 0.505673
vt 0.312500 0.538449
vt 0.312500 0.505673
vt 0.281250 0.538449
vt 0.281250 0.505673
vt 0.250000 0.538449
vt 0.250000 0.505673
vt 0.218750 0.538449
vt 0.218750 0.505673
vt 0.187500 0.538449
vt 0.187500 0.505673
vt 0.156250 0.538449
vt 0.156250 0.505673
vt 0.125000 0.538449
vt 0.125000 0.505673
vt 0.093750 0.538449
vt 0.093750 0.505673
vt 0.062500 0.538449
vt 0.062500 0.505673
vt 0.031250 0.538449
vt 0.031250 0.505673
vt -0.001565 0.538449
vt -0.001358 0.505673
vt 1.001107 0.615148
vt 0.968750 0.615148
vt 0.968750 0.600507
vt 1.001329 0.600507
vt 0.937500 0.615148
vt 0.937500 0.600507
vt 0.906250 0.615148
vt 0.906250 0.600507
vt 0.875000 0.615148
vt 0.875000 0.600507
vt 0.843750 0.615148
vt 0.843750 0.600507
vt 0.812500 0.615148
vt 0.812500 0.600507
vt 0.781250 0.615148
vt 0.781250 0.600507
vt 0.750000 0.615148
vt 0.750000 0.600507
vt 0.718750 0.615148
vt 0.718750 0.600507
vt 0.687500 0.615148
vt 0.687500 0.600507
vt 0.656250 0.615148
vt 0.656250 0.600507
vt 0.625000 0.615148
vt 0.625000 0.600507
vt 0.593750 0.615148
vt 0.593750 0.600507
vt 0.562500 0.615148
vt 0.562500 0.600507
vt 0.531250 0.615148
vt 0.531250 0.600507
vt 0.500000 0.615148
vt 0.500000 0.600507
vt 0.468750 0.615148
vt 0.468750 0.600507
vt 0.437500 0.615148
vt 0.437500 0.600507
vt 0.406250 0.615148
vt 0.406250 0.600507
vt 0.375000 0.615148
vt 0.375000 0.600507
vt 0.343750 0.615148
vt 0.343750 0.600507
vt 0.312500 0.615148
vt 0.312500 0.600507
vt 0.281250 0.615148
vt 0.281250 0.600507
vt 0.250000 0.615148
vt 0.250000 0.600507
vt 0.218750 0.615148
vt 0.218750 0.600507
vt 0.187500 0.615148
vt 0.187500 0.600507
vt 0.156250 0.615148
vt 0.156250 0.600507
vt 0.125000 0.615148
vt 0.125000 0.600507
vt 0.093750 0.615148
vt 0.093750 0.600507
vt 0.062500 0.615148
vt 0.062500 0.600507
vt 0.031250 0.615148
vt 0.031250 0.600507
vt -0.001107 0.615148
vt -0.001329 0.600507
vt 0.031250 0.629789
vt -0.000886 0.629789
vt 0.062500 0.629789
vt 0.093750 0.629789
vt 0.125000 0.629789
vt 0.156250 0.629789
vt 0.187500 0.629789
vt 0.218750 0.629789
vt 0.250000 0.629789
vt 0.281250 0.629789
vt 0.312500 0.629789
vt 0.343750 0.629789
vt 0.375000 0.629789
vt 0.406250 0.629789
vt 0.437500 0.629789
vt 0.468750 0.629789
vt 0.500000 0.629789
vt 0.531250 0.629789
vt 0.562500 0.629789
vt 0.593750 0.629789
vt 0.625000 0.629789
vt 0.656250 0.629789
vt 0.687500 0.629789
vt 0.718750 0.629789
vt 0.750000 0.629789
vt 0.781250 0.629789
vt 0.812500 0.629789
vt 0.843750 0.629789
vt 0.875000 0.629789
vt 0.906250 0.629789
vt 0.937500 0.629789
vt 0.968750 0.629789
vt 1.000886 0.629789
vt 1.000807 0.644864
vt 0.968750 0.644864
vt 0.062500 0.644864
vt 0.031250 0.644864
vt 0.125000 0.644864
vt 0.093750 0.644864
vt -0.000807 0.644864
vt 0.937500 0.644864
vt 0.906250 0.644864
vt 0.875000 0.644864
vt 0.843750 0.644864
vt 0.812500 0.644864
vt 0.781250 0.644864
vt 0.750000 0.644864
vt 0.718750 0.644864
vt 0.687500 0.644864
vt 0.656250 0.644864
vt 0.625000 0.644864
vt 0.593750 0.644864
vt 0.562500 0.644864
vt 0.531250 0.644864
vt 0.500000 0.644864
vt 0.468750 0.644864
vt 0.437500 0.644864
vt 0.406250 0.644864
vt 0.375000 0.644864
vt 0.343750 0.644864
vt 0.312500 0.644864
vt 0.281250 0.644864
vt 0.250000 0.644864
vt 0.218750 0.644864
vt 0.187500 0.644864
vt 0.156250 0.644864
s 1
f 480/1/1 451/2/2 415/3/3 412/4/4
f 454/5/5 455/6/6 337/7/7 334/8/8
f 453/9/9 454/5/5 334/8/8 331/10/10
f 456/11/11 457/12/12 343/13/13 340/14/14
f 459/15/15 460/16/16 352/17/17 349/18/18
f 462/19/19 463/20/20 361/21/21 358/22/22
f 465/23/23 466/24/24 370/25/25 367/26/26
f 468/27/27 469/28/28 379/29/29 376/30/30
f 471/31/31 472/32/32 388/33/33 385/34/34
f 474/35/35 475/36/36 397/37/37 394/38/38
f 318/39/39 228/40/40 62/41/41 64/42/42
f 620/43/43 622/44/44 237/45/45 234/46/46
f 622/44/44 624/47/47 240/48/48 237/45/45
f 624/47/47 626/49/49 243/50/50 240/48/48
f 626/49/49 628/51/51 246/52/52 243/50/50
f 628/51/51 630/53/53 249/54/54 246/52/52
f 630/53/53 632/55/55 252/56/56 249/54/54
f 632/55/55 634/57/57 255/58/58 252/56/56
f 634/57/57 636/59/59 258/60/60 255/58/58
f 636/59/59 638/61/61 261/62/62 258/60/60
f 638/61/61 640/63/63 264/64/64 261/62/62
f 640/63/63 642/65/65 267/66/66 264/64/64
f 642/65/65 644/67/67 270/68/68 267/66/66
f 644/67/67 646/69/69 273/70/70 270/68/68
f 274/71/71 277/72/72 30/73/73 32/74/74
f 646/69/69 648/75/75 276/76/76 273/70/70
f 648/75/75 650/77/77 279/78/78 276/76/76
f 650/77/77 652/79/79 282/80/80 279/78/78
f 652/79/79 654/81/81 285/82/82 282/80/80
f 654/81/81 656/83/83 288/84/84 285/82/82
f 656/83/83 658/85/85 291/86/86 288/84/84
f 658/85/85 660/87/87 294/88/88 291/86/86
f 660/87/87 662/89/89 297/90/90 294/88/88
f 662/89/89 664/91/91 300/92/92 297/90/90
f 664/91/91 666/93/93 303/94/94 300/92/92
f 666/93/93 668/95/95 306/96/96 303/94/94
f 668/95/95 670/97/97 309/98/98 306/96/96
f 670/97/97 672/99/99 312/100/100 309/98/98
f 672/99/99 609/101/101 315/102/102 312/100/100
f 614/103/103 319/104/104 225/105/105 612/106/106
f 615/107/107 618/108/108 231/109/109 229/110/110
f 599/111/111 577/112/112 98/113/113 192/114/114
f 503/115/115 481/116/116 99/117/117 191/118/118
f 324/119/119 66/120/120 65/121/121 322/122/122
f 581/123/123 599/111/111 192/114/114 189/124/124
f 502/125/125 503/115/115 191/118/118 188/126/126
f 96/127/127 411/128/128 414/129/129 95/130/130
f 580/131/131 581/123/123 189/124/124 186/132/132
f 483/133/133 502/125/125 188/126/126 185/134/134
f 411/128/128 96/127/127 94/135/135 408/136/136
f 600/137/137 580/131/131 186/132/132 183/138/138
f 482/139/139 483/133/133 185/134/134 182/140/140
f 408/136/136 94/135/135 93/141/141 405/142/142
f 583/143/143 600/137/137 183/138/138 180/144/144
f 504/145/145 482/139/139 182/140/140 179/146/146
f 405/142/142 93/141/141 92/147/147 402/148/148
f 582/149/149 583/143/143 180/144/144 177/150/150
f 485/151/151 504/145/145 179/146/146 176/152/152
f 402/148/148 92/147/147 91/153/153 399/154/154
f 601/155/155 582/149/149 177/150/150 174/156/156
f 484/157/157 485/151/151 176/152/152 173/158/158
f 399/154/154 91/153/153 90/159/159 396/160/160
f 585/161/161 601/155/155 174/156/156 171/162/162
f 505/163/163 484/157/157 173/158/158 170/164/164
f 396/160/160 90/159/159 89/165/165 393/166/166
f 584/167/167 585/161/161 171/162/162 168/168/168
f 487/169/169 505/163/163 170/164/164 167/170/170
f 393/166/166 89/165/165 88/171/171 390/172/172
f 602/173/173 584/167/167 168/168/168 165/174/174
f 486/175/175 487/169/169 167/170/170 164/176/176
f 390/172/172 88/171/171 87/177/177 387/178/178
f 587/179/179 602/173/173 165/174/174 162/180/180
f 506/181/181 486/175/175 164/176/176 161/182/182
f 387/178/178 87/177/177 86/183/183 384/184/184
f 586/185/185 587/179/179 162/180/180 159/186/186
f 489/187/187 506/181/181 161/182/182 158/188/188
f 384/184/184 86/183/183 85/189/189 381/190/190
f 603/191/191 586/185/185 159/186/186 156/192/192
f 488/193/193 489/187/187 158/188/188 155/194/194
f 381/190/190 85/189/189 84/195/195 378/196/196
f 589/197/197 603/191/191 156/192/192 153/198/198
f 507/199/199 488/193/193 155/194/194 152/200/200
f 378/196/196 84/195/195 83/201/201 375/202/202
f 588/203/203 589/197/197 153/198/198 150/204/204
f 491/205/205 507/199/199 152/200/200 149/206/206
f 375/202/202 83/201/201 82/207/207 372/208/208
f 604/209/209 588/203/203 150/204/204 147/210/210
f 490/211/211 491/205/205 149/206/206 146/212/212
f 372/208/208 82/207/207 81/213/213 369/214/214
f 591/215/215 604/209/209 147/210/210 144/216/216
f 508/217/217 490/211/211 146/212/212 143/218/218
f 369/214/214 81/213/213 80/219/219 366/220/220
f 590/221/221 591/215/215 144/216/216 141/222/222
f 493/223/223 508/217/217 143/218/218 140/224/224
f 366/220/220 80/219/219 79/225/225 363/226/226
f 605/227/227 590/221/221 141/222/222 138/228/228
f 492/229/229 493/223/223 140/224/224 137/230/230
f 363/226/226 79/225/225 78/231/231 360/232/232
f 593/233/233 605/227/227 138/228/228 135/234/234
f 509/235/235 492/229/229 137/230/230 134/236/236
f 360/232/232 78/231/231 77/237/237 357/238/238
f 592/239/239 593/233/233 135/234/234 132/240/240
f 495/241/241 509/235/235 134/236/236 131/242/242
f 357/238/238 77/237/237 76/243/243 354/244/244
f 606/245/245 592/239/239 132/240/240 129/246/246
f 494/247/247 495/241/241 131/242/242 128/248/248
f 354/244/244 76/243/243 75/249/249 351/250/250
f 595/251/251 606/245/245 129/246/246 126/252/252
f 510/253/253 494/247/247 128/248/248 125/254/254
f 351/250/250 75/249/249 74/255/255 348/256/256
f 594/257/257 595/251/251 126/252/252 123/258/258
f 497/259/259 510/253/253 125/254/254 122/260/260
f 348/256/256 74/255/255 73/261/261 345/262/262
f 607/263/263 594/257/257 123/258/258 120/264/264
f 496/265/265 497/259/259 122/260/260 119/266/266
f 345/262/262 73/261/261 72/267/267 342/268/268
f 597/269/269 607/263/263 120/264/264 117/270/270
f 511/271/271 496/265/265 119/266/266 116/272/272
f 342/268/268 72/267/267 71/273/273 339/274/274
f 596/275/275 597/269/269 117/270/270 114/276/276
f 499/277/277 511/271/271 116/272/272 113/278/278
f 339/274/274 71/273/273 70/279/279 336/280/280
f 608/281/281 596/275/275 114/276/276 111/282/282
f 498/283/283 499/277/277 113/278/278 110/284/284
f 336/280/280 70/279/279 69/285/285 333/286/286
f 598/287/287 608/281/281 111/282/282 108/288/288
f 512/289/289 498/283/283 110/284/284 107/290/290
f 333/286/286 69/285/285 68/291/291 330/292/292
f 579/293/293 598/287/287 108/288/288 105/294/294
f 501/295/295 512/289/289 107/290/290 104/296/296
f 330/292/292 68/291/291 67/297/297 327/298/298
f 578/299/299 579/293/293 105/294/294 102/300/300
f 500/301/301 501/295/295 104/296/296 101/302/302
f 327/298/298 67/297/297 66/120/120 324/119/119
f 577/303/112 578/299/299 102/300/300 98/304/113
f 481/305/116 500/301/301 101/302/302 99/306/117
f 451/2/2 449/307/303 321/308/304 415/3/3
f 61/309/305 96/127/127 95/130/130 63/310/306
f 455/6/6 456/11/11 340/14/14 337/7/7
f 452/311/307 453/9/9 331/10/10 328/312/308
f 450/313/309 452/311/307 328/312/308 325/314/310
f 65/315/121 95/130/130 414/129/129 322/316/122
f 514/317/311 544/318/312 97/319/313 187/320/314
f 479/321/315 480/1/1 412/4/4 409/322/316
f 478/323/317 479/321/315 409/322/316 406/324/318
f 476/325/319 477/326/320 403/327/321 400/328/322
f 475/36/36 476/325/319 400/328/322 397/37/37
f 473/329/323 474/35/35 394/38/38 391/330/324
f 472/32/32 473/329/323 391/330/324 388/33/33
f 470/331/325 471/31/31 385/34/34 382/332/326
f 469/28/28 470/331/325 382/332/326 379/29/29
f 467/333/327 468/27/27 376/30/30 373/334/328
f 466/24/24 467/333/327 373/334/328 370/25/25
f 464/335/329 465/23/23 367/26/26 364/336/330
f 463/20/20 464/335/329 364/336/330 361/21/21
f 461/337/331 462/19/19 358/22/22 355/338/332
f 460/16/16 461/337/331 355/338/332 352/17/17
f 477/326/320 478/323/317 406/324/318 403/327/321
f 458/339/333 459/15/15 349/18/18 346/340/334
f 618/108/108 620/43/43 234/46/46 231/109/109
f 318/39/39 64/42/42 2/341/335 226/342/336
f 313/343/337 316/344/338 4/345/339 6/346/340
f 310/347/341 313/343/337 6/346/340 8/348/342
f 307/349/343 310/347/341 8/348/342 10/350/344
f 304/351/345 307/349/343 10/350/344 12/352/346
f 301/353/347 304/351/345 12/352/346 14/354/348
f 298/355/349 301/353/347 14/354/348 16/356/350
f 295/357/351 298/355/349 16/356/350 18/358/352
f 292/359/353 295/357/351 18/358/352 20/360/354
f 289/361/355 292/359/353 20/360/354 22/362/356
f 286/363/357 289/361/355 22/362/356 24/364/358
f 283/365/359 286/363/357 24/364/358 26/366/360
f 280/367/361 283/365/359 26/366/360 28/368/362
f 277/72/72 280/367/361 28/368/362 30/73/73
f 271/369/363 274/71/71 32/74/74 34/370/364
f 268/371/365 271/369/363 34/370/364 36/372/366
f 265/373/367 268/371/365 36/372/366 38/374/368
f 262/375/369 265/373/367 38/374/368 40/376/370
f 259/377/371 262/375/369 40/376/370 42/378/372
f 256/379/373 259/377/371 42/378/372 44/380/374
f 253/381/375 256/379/373 44/380/374 46/382/376
f 250/383/377 253/381/375 46/382/376 48/384/378
f 247/385/379 250/383/377 48/384/378 50/386/380
f 244/387/381 247/385/379 50/386/380 52/388/382
f 241/389/383 244/387/381 52/388/382 54/390/384
f 238/391/385 241/389/383 54/390/384 56/392/386
f 235/393/387 238/391/385 56/392/386 58/394/388
f 232/395/389 235/393/387 58/394/388 60/396/390
f 228/40/40 232/395/389 60/396/390 62/41/41
f 614/103/103 615/107/107 229/110/110 319/104/104
f 316/344/338 226/397/336 2/398/335 4/345/339
f 232/395/389 228/40/40 230/399/391 233/400/392
f 673/401/393 674/402/394 229/110/110 231/109/109
f 235/393/387 232/395/389 233/400/392 236/403/395
f 675/404/396 673/401/393 231/109/109 234/46/46
f 238/391/385 235/393/387 236/403/395 239/405/397
f 676/406/398 675/404/396 234/46/46 237/45/45
f 241/389/383 238/391/385 239/405/397 242/407/399
f 677/408/400 676/406/398 237/45/45 240/48/48
f 244/387/381 241/389/383 242/407/399 245/409/401
f 678/410/402 677/408/400 240/48/48 243/50/50
f 247/385/379 244/387/381 245/409/401 248/411/403
f 679/412/404 678/410/402 243/50/50 246/52/52
f 250/383/377 247/385/379 248/411/403 251/413/405
f 680/414/406 679/412/404 246/52/52 249/54/54
f 253/381/375 250/383/377 251/413/405 254/415/407
f 681/416/408 680/414/406 249/54/54 252/56/56
f 256/379/373 253/381/375 254/415/407 257/417/409
f 682/418/410 681/416/408 252/56/56 255/58/58
f 259/377/371 256/379/373 257/417/409 260/419/411
f 683/420/412 682/418/410 255/58/58 258/60/60
f 262/375/369 259/377/371 260/419/411 263/421/413
f 684/422/414 683/420/412 258/60/60 261/62/62
f 265/373/367 262/375/369 263/421/413 266/423/415
f 685/424/416 684/422/414 261/62/62 264/64/64
f 268/371/365 265/373/367 266/423/415 269/425/417
f 686/426/418 685/424/416 264/64/64 267/66/66
f 271/369/363 268/371/365 269/425/417 272/427/419
f 687/428/420 686/426/418 267/66/66 270/68/68
f 274/71/71 271/369/363 272/427/419 275/429/421
f 688/430/422 687/428/420 270/68/68 273/70/70
f 277/72/72 274/71/71 275/429/421 278/431/423
f 689/432/424 688/430/422 273/70/70 276/76/76
f 280/367/361 277/72/72 278/431/423 281/433/425
f 690/434/426 689/432/424 276/76/76 279/78/78
f 283/365/359 280/367/361 281/433/425 284/435/427
f 691/436/428 690/434/426 279/78/78 282/80/80
f 286/363/357 283/365/359 284/435/427 287/437/429
f 692/438/430 691/436/428 282/80/80 285/82/82
f 289/361/355 286/363/357 287/437/429 290/439/431
f 693/440/432 692/438/430 285/82/82 288/84/84
f 292/359/353 289/361/355 290/439/431 293/441/433
f 694/442/434 693/440/432 288/84/84 291/86/86
f 295/357/351 292/359/353 293/441/433 296/443/435
f 695/444/436 694/442/434 291/86/86 294/88/88
f 298/355/349 295/357/351 296/443/435 299/445/437
f 696/446/438 695/444/436 294/88/88 297/90/90
f 301/353/347 298/355/349 299/445/437 302/447/439
f 697/448/440 696/446/438 297/90/90 300/92/92
f 304/351/345 301/353/347 302/447/439 305/449/441
f 698/450/442 697/448/440 300/92/92 303/94/94
f 307/349/343 304/351/345 305/449/441 308/451/443
f 699/452/444 698/450/442 303/94/94 306/96/96
f 310/347/341 307/349/343 308/451/443 311/453/445
f 700/454/446 699/452/444 306/96/96 309/98/98
f 313/343/337 310/347/341 311/453/445 314/455/447
f 701/456/448 700/454/446 309/98/98 312/100/100
f 316/344/338 313/343/337 314/455/447 317/457/449
f 702/458/450 701/456/448 312/100/100 315/102/102
f 226/397/336 316/344/338 317/457/449 227/459/451
f 703/460/452 702/458/450 315/102/102 225/461/105
f 228/40/40 318/39/39 320/462/453 230/399/391
f 674/402/394 704/463/454 319/104/104 229/110/110
f 318/39/39 226/342/336 227/464/451 320/462/453
f 704/463/454 703/465/452 225/105/105 319/104/104
f 609/101/101 612/466/106 225/461/105 315/102/102
f 9/467/455 69/285/285 70/279/279 11/468/456
f 15/469/457 72/267/267 73/261/261 17/470/458
f 21/471/459 75/249/249 76/243/243 23/472/460
f 27/473/461 78/231/231 79/225/225 29/474/462
f 33/475/463 81/213/213 82/207/207 35/476/464
f 39/477/465 84/195/195 85/189/189 41/478/466
f 45/479/467 87/177/177 88/171/171 47/480/468
f 51/481/469 90/159/159 91/153/153 53/482/470
f 57/483/471 93/141/141 94/135/135 59/484/472
f 3/485/473 66/120/120 67/297/297 5/486/474
f 1/487/475 65/121/121 66/120/120 3/485/473
f 63/310/306 95/130/130 65/315/121 1/488/475
f 59/484/472 94/135/135 96/127/127 61/309/305
f 55/489/476 92/147/147 93/141/141 57/483/471
f 53/482/470 91/153/153 92/147/147 55/489/476
f 49/490/477 89/165/165 90/159/159 51/481/469
f 47/480/468 88/171/171 89/165/165 49/490/477
f 43/491/478 86/183/183 87/177/177 45/479/467
f 41/478/466 85/189/189 86/183/183 43/491/478
f 37/492/479 83/201/201 84/195/195 39/477/465
f 35/476/464 82/207/207 83/201/201 37/492/479
f 31/493/480 80/219/219 81/213/213 33/475/463
f 29/474/462 79/225/225 80/219/219 31/493/480
f 25/494/481 77/237/237 78/231/231 27/473/461
f 23/472/460 76/243/243 77/237/237 25/494/481
f 19/495/482 74/255/255 75/249/249 21/471/459
f 17/470/458 73/261/261 74/255/255 19/495/482
f 13/496/483 71/273/273 72/267/267 15/469/457
f 11/468/456 70/279/279 71/273/273 13/496/483
f 7/497/484 68/291/291 69/285/285 9/467/455
f 5/486/474 67/297/297 68/291/291 7/497/484
f 457/12/12 458/339/333 346/340/334 343/13/13
f 322/316/122 414/129/129 416/498/485 323/499/486
f 323/499/486 416/498/485 415/3/3 321/308/304
f 414/129/129 411/128/128 413/500/487 416/498/485
f 416/498/485 413/500/487 412/4/4 415/3/3
f 411/128/128 408/136/136 410/501/488 413/500/487
f 413/500/487 410/501/488 409/322/316 412/4/4
f 408/136/136 405/142/142 407/502/489 410/501/488
f 410/501/488 407/502/489 406/324/318 409/322/316
f 405/142/142 402/148/148 404/503/490 407/502/489
f 407/502/489 404/503/490 403/327/321 406/324/318
f 402/148/148 399/154/154 401/504/491 404/503/490
f 404/503/490 401/504/491 400/328/322 403/327/321
f 399/154/154 396/160/160 398/505/492 401/504/491
f 401/504/491 398/505/492 397/37/37 400/328/322
f 396/160/160 393/166/166 395/506/493 398/505/492
f 398/505/492 395/506/493 394/38/38 397/37/37
f 393/166/166 390/172/172 392/507/494 395/506/493
f 395/506/493 392/507/494 391/330/324 394/38/38
f 390/172/172 387/178/178 389/508/495 392/507/494
f 392/507/494 389/508/495 388/33/33 391/330/324
f 387/178/178 384/184/184 386/509/496 389/508/495
f 389/508/495 386/509/496 385/34/34 388/33/33
f 384/184/184 381/190/190 383/510/497 386/509/496
f 386/509/496 383/510/497 382/332/326 385/34/34
f 381/190/190 378/196/196 380/511/498 383/510/497
f 383/510/497 380/511/498 379/29/29 382/332/326
f 378/196/196 375/202/202 377/512/499 380/511/498
f 380/511/498 377/512/499 376/30/30 379/29/29
f 375/202/202 372/208/208 374/513/500 377/512/499
f 377/512/499 374/513/500 373/334/328 376/30/30
f 372/208/208 369/214/214 371/514/501 374/513/500
f 374/513/500 371/514/501 370/25/25 373/334/328
f 369/214/214 366/220/220 368/515/502 371/514/501
f 371/514/501 368/515/502 367/26/26 370/25/25
f 366/220/220 363/226/226 365/516/503 368/515/502
f 368/515/502 365/516/503 364/336/330 367/26/26
f 363/226/226 360/232/232 362/517/504 365/516/503
f 365/516/503 362/517/504 361/21/21 364/336/330
f 360/232/232 357/238/238 359/518/505 362/517/504
f 362/517/504 359/518/505 358/22/22 361/21/21
f 357/238/238 354/244/244 356/519/506 359/518/505
f 359/518/505 356/519/506 355/338/332 358/22/22
f 354/244/244 351/250/250 353/520/507 356/519/506
f 356/519/506 353/520/507 352/17/17 355/338/332
f 351/250/250 348/256/256 350/521/508 353/520/507
f 353/520/507 350/521/508 349/18/18 352/17/17
f 348/256/256 345/262/262 347/522/509 350/521/508
f 350/521/508 347/522/509 346/340/334 349/18/18
f 345/262/262 342/268/268 344/523/510 347/522/509
f 347/522/509 344/523/510 343/13/13 346/340/334
f 342/268/268 339/274/274 341/524/511 344/523/510
f 344/523/510 341/524/511 340/14/14 343/13/13
f 339/274/274 336/280/280 338/525/512 341/524/511
f 341/524/511 338/525/512 337/7/7 340/14/14
f 336/280/280 333/286/286 335/526/513 338/525/512
f 338/525/512 335/526/513 334/8/8 337/7/7
f 333/286/286 330/292/292 332/527/514 335/526/513
f 335/526/513 332/527/514 331/10/10 334/8/8
f 330/292/292 327/298/298 329/528/515 332/527/514
f 332/527/514 329/528/515 328/312/308 331/10/10
f 327/298/298 324/119/119 326/529/516 329/528/515
f 329/528/515 326/529/516 325/314/310 328/312/308
f 324/119/119 322/122/122 323/530/486 326/529/516
f 326/529/516 323/530/486 321/531/304 325/314/310
f 449/532/303 450/313/309 325/314/310 321/531/304
f 544/318/312 543/533/517 100/534/518 97/319/313
f 543/533/517 542/535/519 103/536/520 100/534/518
f 542/535/519 541/537/521 106/538/522 103/536/520
f 541/537/521 540/539/523 109/540/524 106/538/522
f 540/539/523 539/541/525 112/542/526 109/540/524
f 539/541/525 538/543/527 115/544/528 112/542/526
f 538/543/527 537/545/529 118/546/530 115/544/528
f 537/545/529 536/547/531 121/548/532 118/546/530
f 536/547/531 535/549/533 124/550/534 121/548/532
f 535/549/533 534/551/535 127/552/536 124/550/534
f 534/551/535 533/553/537 130/554/538 127/552/536
f 533/553/537 532/555/539 133/556/540 130/554/538
f 532/555/539 531/557/541 136/558/542 133/556/540
f 531/557/541 530/559/543 139/560/544 136/558/542
f 530/559/543 529/561/545 142/562/546 139/560/544
f 529/561/545 528/563/547 145/564/548 142/562/546
f 528/563/547 527/565/549 148/566/550 145/564/548
f 527/565/549 526/567/551 151/568/552 148/566/550
f 526/567/551 525/569/553 154/570/554 151/568/552
f 525/569/553 524/571/555 157/572/556 154/570/554
f 524/571/555 523/573/557 160/574/558 157/572/556
f 523/573/557 522/575/559 163/576/560 160/574/558
f 522/575/559 521/577/561 166/578/562 163/576/560
f 521/577/561 520/579/563 169/580/564 166/578/562
f 520/579/563 519/581/565 172/582/566 169/580/564
f 519/581/565 518/583/567 175/584/568 172/582/566
f 518/583/567 517/585/569 178/586/570 175/584/568
f 517/585/569 516/587/571 181/588/572 178/586/570
f 516/587/571 515/589/573 184/590/574 181/588/572
f 515/589/573 513/591/575 190/592/576 184/590/574
f 513/591/575 514/593/311 187/594/314 190/592/576
f 545/595/577 576/596/578 448/597/579 417/598/580
f 576/596/578 575/599/581 447/600/582 448/597/579
f 575/599/581 574/601/583 446/602/584 447/600/582
f 574/601/583 573/603/585 445/604/586 446/602/584
f 573/603/585 572/605/587 444/606/588 445/604/586
f 572/605/587 571/607/589 443/608/590 444/606/588
f 571/607/589 570/609/591 442/610/592 443/608/590
f 570/609/591 569/611/593 441/612/594 442/610/592
f 569/611/593 568/613/595 440/614/596 441/612/594
f 568/613/595 567/615/597 439/616/598 440/614/596
f 567/615/597 566/617/599 438/618/600 439/616/598
f 566/617/599 565/619/601 437/620/602 438/618/600
f 565/619/601 564/621/603 436/622/604 437/620/602
f 564/621/603 563/623/605 435/624/606 436/622/604
f 563/623/605 562/625/607 434/626/608 435/624/606
f 562/625/607 561/627/609 433/628/610 434/626/608
f 561/627/609 560/629/611 432/630/612 433/628/610
f 560/629/611 559/631/613 431/632/614 432/630/612
f 559/631/613 558/633/615 430/634/616 431/632/614
f 558/633/615 557/635/617 429/636/618 430/634/616
f 557/635/617 556/637/619 428/638/620 429/636/618
f 556/637/619 555/639/621 427/640/622 428/638/620
f 555/639/621 554/641/623 426/642/624 427/640/622
f 554/641/623 553/643/625 425/644/626 426/642/624
f 553/643/625 552/645/627 424/646/628 425/644/626
f 552/645/627 551/647/629 423/648/630 424/646/628
f 551/647/629 550/649/631 422/650/632 423/648/630
f 550/649/631 549/651/633 421/652/634 422/650/632
f 549/651/633 548/653/635 420/654/636 421/652/634
f 548/653/635 547/655/637 419/656/638 420/654/636
f 547/655/637 546/657/639 418/658/640 419/656/638
f 546/657/639 545/659/577 417/660/580 418/658/640
f 99/306/117 101/302/302 450/313/309 449/532/303
f 119/266/266 122/260/260 458/339/333 457/12/12
f 122/260/260 125/254/254 459/15/15 458/339/333
f 179/146/146 182/140/140 478/323/317 477/326/320
f 128/248/248 131/242/242 461/337/331 460/16/16
f 131/242/242 134/236/236 462/19/19 461/337/331
f 137/230/230 140/224/224 464/335/329 463/20/20
f 140/224/224 143/218/218 465/23/23 464/335/329
f 146/212/212 149/206/206 467/333/327 466/24/24
f 149/206/206 152/200/200 468/27/27 467/333/327
f 155/194/194 158/188/188 470/331/325 469/28/28
f 158/188/188 161/182/182 471/31/31 470/331/325
f 164/176/176 167/170/170 473/329/323 472/32/32
f 167/170/170 170/164/164 474/35/35 473/329/323
f 173/158/158 176/152/152 476/325/319 475/36/36
f 176/152/152 179/146/146 477/326/320 476/325/319
f 182/140/140 185/134/134 479/321/315 478/323/317
f 185/134/134 188/126/126 480/1/1 479/321/315
f 101/302/302 104/296/296 452/311/307 450/313/309
f 104/296/296 107/290/290 453/9/9 452/311/307
f 113/278/278 116/272/272 456/11/11 455/6/6
f 191/118/118 99/117/117 449/307/303 451/2/2
f 170/164/164 173/158/158 475/36/36 474/35/35
f 161/182/182 164/176/176 472/32/32 471/31/31
f 152/200/200 155/194/194 469/28/28 468/27/27
f 143/218/218 146/212/212 466/24/24 465/23/23
f 134/236/236 137/230/230 463/20/20 462/19/19
f 125/254/254 128/248/248 460/16/16 459/15/15
f 116/272/272 119/266/266 457/12/12 456/11/11
f 107/290/290 110/284/284 454/5/5 453/9/9
f 110/284/284 113/278/278 455/6/6 454/5/5
f 188/126/126 191/118/118 451/2/2 480/1/1
f 187/320/314 97/319/313 500/301/301 481/305/116
f 97/319/313 100/534/518 501/295/295 500/301/301
f 100/534/518 103/536/520 512/289/289 501/295/295
f 103/536/520 106/538/522 498/283/283 512/289/289
f 106/538/522 109/540/524 499/277/277 498/283/283
f 109/540/524 112/542/526 511/271/271 499/277/277
f 112/542/526 115/544/528 496/265/265 511/271/271
f 115/544/528 118/546/530 497/259/259 496/265/265
f 118/546/530 121/548/532 510/253/253 497/259/259
f 121/548/532 124/550/534 494/247/247 510/253/253
f 124/550/534 127/552/536 495/241/241 494/247/247
f 127/552/536 130/554/538 509/235/235 495/241/241
f 130/554/538 133/556/540 492/229/229 509/235/235
f 133/556/540 136/558/542 493/223/223 492/229/229
f 136/558/542 139/560/544 508/217/217 493/223/223
f 139/560/544 142/562/546 490/211/211 508/217/217
f 142/562/546 145/564/548 491/205/205 490/211/211
f 145/564/548 148/566/550 507/199/199 491/205/205
f 148/566/550 151/568/552 488/193/193 507/199/199
f 151/568/552 154/570/554 489/187/187 488/193/193
f 154/570/554 157/572/556 506/181/181 489/187/187
f 157/572/556 160/574/558 486/175/175 506/181/181
f 160/574/558 163/576/560 487/169/169 486/175/175
f 163/576/560 166/578/562 505/163/163 487/169/169
f 166/578/562 169/580/564 484/157/157 505/163/163
f 169/580/564 172/582/566 485/151/151 484/157/157
f 172/582/566 175/584/568 504/145/145 485/151/151
f 175/584/568 178/586/570 482/139/139 504/145/145
f 178/586/570 181/588/572 483/133/133 482/139/139
f 181/588/572 184/590/574 502/125/125 483/133/133
f 184/590/574 190/592/576 503/115/115 502/125/125
f 190/592/576 187/594/314 481/116/116 503/115/115
f 192/114/114 98/113/113 514/593/311 513/591/575
f 189/124/124 192/114/114 513/591/575 515/589/573
f 186/132/132 189/124/124 515/589/573 516/587/571
f 183/138/138 186/132/132 516/587/571 517/585/569
f 180/144/144 183/138/138 517/585/569 518/583/567
f 177/150/150 180/144/144 518/583/567 519/581/565
f 174/156/156 177/150/150 519/581/565 520/579/563
f 171/162/162 174/156/156 520/579/563 521/577/561
f 168/168/168 171/162/162 521/577/561 522/575/559
f 165/174/174 168/168/168 522/575/559 523/573/557
f 162/180/180 165/174/174 523/573/557 524/571/555
f 159/186/186 162/180/180 524/571/555 525/569/553
f 156/192/192 159/186/186 525/569/553 526/567/551
f 153/198/198 156/192/192 526/567/551 527/565/549
f 150/204/204 153/198/198 527/565/549 528/563/547
f 147/210/210 150/204/204 528/563/547 529/561/545
f 144/216/216 147/210/210 529/561/545 530/559/543
f 141/222/222 144/216/216 530/559/543 531/557/541
f 138/228/228 141/222/222 531/557/541 532/555/539
f 135/234/234 138/228/228 532/555/539 533/553/537
f 132/240/240 135/234/234 533/553/537 534/551/535
f 129/246/246 132/240/240 534/551/535 535/549/533
f 126/252/252 129/246/246 535/549/533 536/547/531
f 123/258/258 126/252/252 536/547/531 537/545/529
f 120/264/264 123/258/258 537/545/529 538/543/527
f 117/270/270 120/264/264 538/543/527 539/541/525
f 114/276/276 117/270/270 539/541/525 540/539/523
f 111/282/282 114/276/276 540/539/523 541/537/521
f 108/288/288 111/282/282 541/537/521 542/535/519
f 105/294/294 108/288/288 542/535/519 543/533/517
f 102/300/300 105/294/294 543/533/517 544/318/312
f 98/304/113 102/300/300 544/318/312 514/317/311
f 193/661/641 194/662/642 545/659/577 546/657/639
f 195/663/643 193/661/641 546/657/639 547/655/637
f 196/664/644 195/663/643 547/655/637 548/653/635
f 197/665/645 196/664/644 548/653/635 549/651/633
f 198/666/646 197/665/645 549/651/633 550/649/631
f 199/667/647 198/666/646 550/649/631 551/647/629
f 200/668/648 199/667/647 551/647/629 552/645/627
f 201/669/649 200/668/648 552/645/627 553/643/625
f 202/670/650 201/669/649 553/643/625 554/641/623
f 203/671/651 202/670/650 554/641/623 555/639/621
f 204/672/652 203/671/651 555/639/621 556/637/619
f 205/673/653 204/672/652 556/637/619 557/635/617
f 206/674/654 205/673/653 557/635/617 558/633/615
f 207/675/655 206/674/654 558/633/615 559/631/613
f 208/676/656 207/675/655 559/631/613 560/629/611
f 209/677/657 208/676/656 560/629/611 561/627/609
f 210/678/658 209/677/657 561/627/609 562/625/607
f 211/679/659 210/678/658 562/625/607 563/623/605
f 212/680/660 211/679/659 563/623/605 564/621/603
f 213/681/661 212/680/660 564/621/603 565/619/601
f 214/682/662 213/681/661 565/619/601 566/617/599
f 215/683/663 214/682/662 566/617/599 567/615/597
f 216/684/664 215/683/663 567/615/597 568/613/595
f 217/685/665 216/684/664 568/613/595 569/611/593
f 218/686/666 217/685/665 569/611/593 570/609/591
f 219/687/667 218/686/666 570/609/591 571/607/589
f 220/688/668 219/687/667 571/607/589 572/605/587
f 221/689/669 220/688/668 572/605/587 573/603/585
f 222/690/670 221/689/669 573/603/585 574/601/583
f 223/691/671 222/690/670 574/601/583 575/599/581
f 224/692/672 223/691/671 575/599/581 576/596/578
f 194/693/642 224/692/672 576/596/578 545/595/577
f 417/598/580 448/597/579 578/299/299 577/303/112
f 448/597/579 447/600/582 579/293/293 578/299/299
f 447/600/582 446/602/584 598/287/287 579/293/293
f 446/602/584 445/604/586 608/281/281 598/287/287
f 445/604/586 444/606/588 596/275/275 608/281/281
f 444/606/588 443/608/590 597/269/269 596/275/275
f 443/608/590 442/610/592 607/263/263 597/269/269
f 442/610/592 441/612/594 594/257/257 607/263/263
f 441/612/594 440/614/596 595/251/251 594/257/257
f 440/614/596 439/616/598 606/245/245 595/251/251
f 439/616/598 438/618/600 592/239/239 606/245/245
f 438/618/600 437/620/602 593/233/233 592/239/239
f 437/620/602 436/622/604 605/227/227 593/233/233
f 436/622/604 435/624/606 590/221/221 605/227/227
f 435/624/606 434/626/608 591/215/215 590/221/221
f 434/626/608 433/628/610 604/209/209 591/215/215
f 433/628/610 432/630/612 588/203/203 604/209/209
f 432/630/612 431/632/614 589/197/197 588/203/203
f 431/632/614 430/634/616 603/191/191 589/197/197
f 430/634/616 429/636/618 586/185/185 603/191/191
f 429/636/618 428/638/620 587/179/179 586/185/185
f 428/638/620 427/640/622 602/173/173 587/179/179
f 427/640/622 426/642/624 584/167/167 602/173/173
f 426/642/624 425/644/626 585/161/161 584/167/167
f 425/644/626 424/646/628 601/155/155 585/161/161
f 424/646/628 423/648/630 582/149/149 601/155/155
f 423/648/630 422/650/632 583/143/143 582/149/149
f 422/650/632 421/652/634 600/137/137 583/143/143
f 421/652/634 420/654/636 580/131/131 600/137/137
f 420/654/636 419/656/638 581/123/123 580/131/131
f 419/656/638 418/658/640 599/111/111 581/123/123
f 418/658/640 417/660/580 577/112/112 599/111/111
f 224/692/672 194/693/642 611/694/673 610/695/674
f 610/695/674 611/694/673 612/466/106 609/101/101
f 193/661/641 195/663/643 616/696/675 613/697/676
f 613/697/676 616/696/675 615/107/107 614/103/103
f 196/664/644 197/665/645 619/698/677 617/699/678
f 617/699/678 619/698/677 620/43/43 618/108/108
f 195/663/643 196/664/644 617/699/678 616/696/675
f 616/696/675 617/699/678 618/108/108 615/107/107
f 193/661/641 613/697/676 611/700/673 194/662/642
f 613/697/676 614/103/103 612/106/106 611/700/673
f 223/691/671 224/692/672 610/695/674 671/701/679
f 671/701/679 610/695/674 609/101/101 672/99/99
f 222/690/670 223/691/671 671/701/679 669/702/680
f 669/702/680 671/701/679 672/99/99 670/97/97
f 221/689/669 222/690/670 669/702/680 667/703/681
f 667/703/681 669/702/680 670/97/97 668/95/95
f 220/688/668 221/689/669 667/703/681 665/704/682
f 665/704/682 667/703/681 668/95/95 666/93/93
f 219/687/667 220/688/668 665/704/682 663/705/683
f 663/705/683 665/704/682 666/93/93 664/91/91
f 218/686/666 219/687/667 663/705/683 661/706/684
f 661/706/684 663/705/683 664/91/91 662/89/89
f 217/685/665 218/686/666 661/706/684 659/707/685
f 659/707/685 661/706/684 662/89/89 660/87/87
f 216/684/664 217/685/665 659/707/685 657/708/686
f 657/708/686 659/707/685 660/87/87 658/85/85
f 215/683/663 216/684/664 657/708/686 655/709/687
f 655/709/687 657/708/686 658/85/85 656/83/83
f 214/682/662 215/683/663 655/709/687 653/710/688
f 653/710/688 655/709/687 656/83/83 654/81/81
f 213/681/661 214/682/662 653/710/688 651/711/689
f 651/711/689 653/710/688 654/81/81 652/79/79
f 212/680/660 213/681/661 651/711/689 649/712/690
f 649/712/690 651/711/689 652/79/79 650/77/77
f 211/679/659 212/680/660 649/712/690 647/713/691
f 647/713/691 649/712/690 650/77/77 648/75/75
f 210/678/658 211/679/659 647/713/691 645/714/692
f 645/714/692 647/713/691 648/75/75 646/69/69
f 209/677/657 210/678/658 645/714/692 643/715/693
f 643/715/693 645/714/692 646/69/69 644/67/67
f 208/676/656 209/677/657 643/715/693 641/716/694
f 641/716/694 643/715/693 644/67/67 642/65/65
f 207/675/655 208/676/656 641/716/694 639/717/695
f 639/717/695 641/716/694 642/65/65 640/63/63
f 206/674/654 207/675/655 639/717/695 637/718/696
f 637/718/696 639/717/695 640/63/63 638/61/61
f 205/673/653 206/674/654 637/718/696 635/719/697
f 635/719/697 637/718/696 638/61/61 636/59/59
f 204/672/652 205/673/653 635/719/697 633/720/698
f 633/720/698 635/719/697 636/59/59 634/57/57
f 203/671/651 204/672/652 633/720/698 631/721/699
f 631/721/699 633/720/698 634/57/57 632/55/55
f 202/670/650 203/671/651 631/721/699 629/722/700
f 629/722/700 631/721/699 632/55/55 630/53/53
f 201/669/649 202/670/650 629/722/700 627/723/701
f 627/723/701 629/722/700 630/53/53 628/51/51
f 200/668/648 201/669/649 627/723/701 625/724/702
f 625/724/702 627/723/701 628/51/51 626/49/49
f 199/667/647 200/668/648 625/724/702 623/725/703
f 623/725/703 625/724/702 626/49/49 624/47/47
f 198/666/646 199/667/647 623/725/703 621/726/704
f 621/726/704 623/725/703 624/47/47 622/44/44
f 197/665/645 198/666/646 621/726/704 619/698/677
f 619/698/677 621/726/704 622/44/44 620/43/43
f 320/462/453 227/464/451 703/465/452 704/463/454
f 230/399/391 320/462/453 704/463/454 674/402/394
f 227/459/451 317/457/449 702/458/450 703/460/452
f 317/457/449 314/455/447 701/456/448 702/458/450
f 314/455/447 311/453/445 700/454/446 701/456/448
f 311/453/445 308/451/443 699/452/444 700/454/446
f 308/451/443 305/449/441 698/450/442 699/452/444
f 305/449/441 302/447/439 697/448/440 698/450/442
f 302/447/439 299/445/437 696/446/438 697/448/440
f 299/445/437 296/443/435 695/444/436 696/446/438
f 296/443/435 293/441/433 694/442/434 695/444/436
f 293/441/433 290/439/431 693/440/432 694/442/434
f 290/439/431 287/437/429 692/438/430 693/440/432
f 287/437/429 284/435/427 691/436/428 692/438/430
f 284/435/427 281/433/425 690/434/426 691/436/428
f 281/433/425 278/431/423 689/432/424 690/434/426
f 278/431/423 275/429/421 688/430/422 689/432/424
f 275/429/421 272/427/419 687/428/420 688/430/422
f 272/427/419 269/425/417 686/426/418 687/428/420
f 269/425/417 266/423/415 685/424/416 686/426/418
f 266/423/415 263/421/413 684/422/414 685/424/416
f 263/421/413 260/419/411 683/420/412 684/422/414
f 260/419/411 257/417/409 682/418/410 683/420/412
f 257/417/409 254/415/407 681/416/408 682/418/410
f 254/415/407 251/413/405 680/414/406 681/416/408
f 251/413/405 248/411/403 679/412/404 680/414/406
f 248/411/403 245/409/401 678/410/402 679/412/404
f 245/409/401 242/407/399 677/408/400 678/410/402
f 242/407/399 239/405/397 676/406/398 677/408/400
f 239/405/397 236/403/395 675/404/396 676/406/398
f 236/403/395 233/400/392 673/401/393 675/404/396
f 233/400/392 230/399/391 674/402/394 673/401/393
