# Blender 4.2.1 LTS
# www.blender.org
# mtllib sm_disk5_F.mtl
o Cylinder
v 0.000000 -0.284722 -1.864704
v 0.000000 -0.000000 -0.193381
v 0.363786 -0.284722 -1.828874
v 0.037727 -0.000000 -0.189665
v 0.713591 -0.284722 -1.722762
v 0.074003 -0.000000 -0.178660
v 1.035974 -0.284722 -1.550445
v 0.107436 -0.000000 -0.160790
v 1.318545 -0.284722 -1.318545
v 0.136741 -0.000000 -0.136741
v 1.550445 -0.284722 -1.035974
v 0.160790 -0.000000 -0.107436
v 1.722762 -0.284722 -0.713591
v 0.178660 -0.000000 -0.074004
v 1.828874 -0.284722 -0.363786
v 0.189665 -0.000000 -0.037727
v 1.864704 -0.284722 -0.000000
v 0.193381 0.000000 0.000000
v 1.828874 -0.284721 0.363786
v 0.189665 0.000000 0.037727
v 1.722762 -0.284721 0.713591
v 0.178660 0.000000 0.074003
v 1.550445 -0.284721 1.035974
v 0.160790 0.000000 0.107436
v 1.318545 -0.284721 1.318545
v 0.136741 0.000000 0.136741
v 1.035974 -0.284721 1.550445
v 0.107436 0.000000 0.160790
v 0.713591 -0.284721 1.722762
v 0.074003 0.000000 0.178660
v 0.363786 -0.284721 1.828874
v 0.037727 0.000000 0.189664
v 0.000000 -0.284721 1.864704
v 0.000000 0.000000 0.193381
v -0.363786 -0.284721 1.828874
v -0.037727 0.000000 0.189664
v -0.713591 -0.284721 1.722762
v -0.074003 0.000000 0.178660
v -1.035974 -0.284721 1.550445
v -0.107436 0.000000 0.160790
v -1.318545 -0.284721 1.318545
v -0.136741 0.000000 0.136741
v -1.550445 -0.284721 1.035974
v -0.160790 0.000000 0.107436
v -1.722762 -0.284721 0.713591
v -0.178660 0.000000 0.074003
v -1.828874 -0.284721 0.363786
v -0.189665 0.000000 0.037727
v -1.864704 -0.284722 -0.000000
v -0.193381 0.000000 0.000000
v -1.828874 -0.284722 -0.363786
v -0.189665 -0.000000 -0.037727
v -1.722762 -0.284722 -0.713591
v -0.178660 -0.000000 -0.074004
v -1.550445 -0.284722 -1.035974
v -0.160790 -0.000000 -0.107436
v -1.318545 -0.284722 -1.318545
v -0.136741 -0.000000 -0.136741
v -1.035974 -0.284722 -1.550445
v -0.107436 -0.000000 -0.160790
v -0.713591 -0.284722 -1.722762
v -0.074003 -0.000000 -0.178660
v -0.363786 -0.284722 -1.828874
v -0.037727 -0.000000 -0.189665
v 0.000000 -0.202935 -1.736141
v 0.000000 -0.152836 -1.607577
v 0.000000 -0.110083 -1.479014
v 0.000000 -0.073164 -1.350451
v 0.000000 -0.039950 -1.221887
v 0.000000 -0.011880 -1.093324
v 0.000000 -0.000029 -0.964761
v 0.000000 -0.000000 -0.836197
v 0.000000 -0.000000 -0.707634
v 0.000000 -0.000000 -0.579071
v 0.000000 -0.000000 -0.450507
v 0.000000 -0.000000 -0.321944
v 0.338705 -0.202935 -1.702781
v 0.313623 -0.152836 -1.576688
v 0.288542 -0.110083 -1.450595
v 0.263460 -0.073164 -1.324502
v 0.238379 -0.039950 -1.198409
v 0.213297 -0.011880 -1.072316
v 0.188216 -0.000029 -0.946223
v 0.163134 -0.000000 -0.820130
v 0.138053 -0.000000 -0.694037
v 0.112971 -0.000000 -0.567944
v 0.087890 -0.000000 -0.441851
v 0.062808 -0.000000 -0.315758
v 0.664392 -0.202935 -1.603985
v 0.615193 -0.152836 -1.485208
v 0.565994 -0.110083 -1.366431
v 0.516795 -0.073164 -1.247654
v 0.467596 -0.039950 -1.128877
v 0.418397 -0.011880 -1.010100
v 0.369198 -0.000029 -0.891323
v 0.319999 -0.000000 -0.772546
v 0.270800 -0.000000 -0.653769
v 0.221601 -0.000000 -0.534992
v 0.172402 -0.000000 -0.416214
v 0.123203 -0.000000 -0.297437
v 0.964548 -0.202934 -1.443548
v 0.893122 -0.152836 -1.336652
v 0.821696 -0.110083 -1.229755
v 0.750270 -0.073164 -1.122859
v 0.678844 -0.039950 -1.015962
v 0.607418 -0.011880 -0.909066
v 0.535992 -0.000029 -0.802169
v 0.464566 -0.000000 -0.695273
v 0.393140 -0.000000 -0.588376
v 0.321714 -0.000000 -0.481480
v 0.250288 -0.000000 -0.374583
v 0.178862 -0.000000 -0.267687
v 1.227637 -0.202935 -1.227637
v 1.136729 -0.152836 -1.136729
v 1.045821 -0.110083 -1.045821
v 0.954913 -0.073164 -0.954913
v 0.864005 -0.039950 -0.864005
v 0.773097 -0.011880 -0.773097
v 0.682189 -0.000029 -0.682189
v 0.591281 -0.000000 -0.591281
v 0.500373 -0.000000 -0.500373
v 0.409465 -0.000000 -0.409465
v 0.318557 -0.000000 -0.318557
v 0.227649 -0.000000 -0.227649
v 1.443548 -0.202934 -0.964548
v 1.336652 -0.152836 -0.893122
v 1.229755 -0.110083 -0.821696
v 1.122859 -0.073164 -0.750270
v 1.015962 -0.039950 -0.678844
v 0.909066 -0.011880 -0.607418
v 0.802169 -0.000029 -0.535992
v 0.695273 -0.000000 -0.464566
v 0.588376 -0.000000 -0.393140
v 0.481480 -0.000000 -0.321714
v 0.374583 -0.000000 -0.250288
v 0.267687 -0.000000 -0.178862
v 1.603985 -0.202935 -0.664392
v 1.485208 -0.152836 -0.615193
v 1.366431 -0.110083 -0.565994
v 1.247654 -0.073164 -0.516795
v 1.128877 -0.039950 -0.467596
v 1.010100 -0.011880 -0.418397
v 0.891323 -0.000029 -0.369198
v 0.772546 -0.000000 -0.319999
v 0.653769 -0.000000 -0.270800
v 0.534992 -0.000000 -0.221601
v 0.416214 -0.000000 -0.172402
v 0.297437 -0.000000 -0.123203
v 1.702781 -0.202935 -0.338705
v 1.576688 -0.152836 -0.313623
v 1.450595 -0.110083 -0.288542
v 1.324502 -0.073164 -0.263460
v 1.198409 -0.039950 -0.238379
v 1.072316 -0.011880 -0.213297
v 0.946223 -0.000029 -0.188216
v 0.820130 -0.000000 -0.163134
v 0.694037 -0.000000 -0.138053
v 0.567944 -0.000000 -0.112971
v 0.441851 -0.000000 -0.087890
v 0.315758 -0.000000 -0.062808
v 1.736141 -0.202935 0.000000
v 1.607577 -0.152836 -0.000000
v 1.479014 -0.110083 0.000000
v 1.350451 -0.073164 0.000000
v 1.221887 -0.039950 0.000000
v 1.093324 -0.011880 0.000000
v 0.964761 -0.000029 -0.000000
v 0.836197 0.000000 0.000000
v 0.707634 0.000000 0.000000
v 0.579071 0.000000 0.000000
v 0.450507 0.000000 0.000000
v 0.321944 0.000000 0.000000
v 1.702781 -0.202935 0.338705
v 1.576688 -0.152836 0.313623
v 1.450595 -0.110083 0.288541
v 1.324502 -0.073164 0.263460
v 1.198409 -0.039950 0.238379
v 1.072316 -0.011880 0.213297
v 0.946223 -0.000029 0.188216
v 0.820130 0.000000 0.163134
v 0.694037 0.000000 0.138053
v 0.567944 0.000000 0.112971
v 0.441851 0.000000 0.087890
v 0.315758 0.000000 0.062808
v 1.603985 -0.202935 0.664392
v 1.485208 -0.152836 0.615193
v 1.366431 -0.110083 0.565994
v 1.247654 -0.073164 0.516795
v 1.128877 -0.039950 0.467596
v 1.010100 -0.011880 0.418397
v 0.891323 -0.000029 0.369198
v 0.772546 0.000000 0.319999
v 0.653769 0.000000 0.270800
v 0.534992 0.000000 0.221601
v 0.416214 0.000000 0.172402
v 0.297437 0.000000 0.123202
v 1.443548 -0.202934 0.964548
v 1.336652 -0.152836 0.893122
v 1.229755 -0.110083 0.821696
v 1.122859 -0.073164 0.750270
v 1.015962 -0.039950 0.678844
v 0.909066 -0.011880 0.607418
v 0.802169 -0.000029 0.535992
v 0.695273 0.000000 0.464566
v 0.588376 0.000000 0.393140
v 0.481480 0.000000 0.321714
v 0.374583 0.000000 0.250288
v 0.267687 0.000000 0.178862
v 1.227637 -0.202935 1.227637
v 1.136729 -0.152836 1.136729
v 1.045821 -0.110083 1.045821
v 0.954913 -0.073164 0.954913
v 0.864005 -0.039950 0.864005
v 0.773097 -0.011880 0.773097
v 0.682189 -0.000029 0.682189
v 0.591281 0.000000 0.591281
v 0.500373 0.000000 0.500373
v 0.409465 0.000000 0.409465
v 0.318557 0.000000 0.318557
v 0.227649 0.000000 0.227649
v 0.964548 -0.202934 1.443548
v 0.893122 -0.152836 1.336652
v 0.821696 -0.110083 1.229755
v 0.750270 -0.073164 1.122859
v 0.678844 -0.039950 1.015962
v 0.607418 -0.011880 0.909066
v 0.535992 -0.000029 0.802169
v 0.464566 0.000000 0.695273
v 0.393140 0.000000 0.588376
v 0.321714 0.000000 0.481479
v 0.250288 0.000000 0.374583
v 0.178862 0.000000 0.267686
v 0.664392 -0.202934 1.603985
v 0.615193 -0.152836 1.485208
v 0.565994 -0.110083 1.366431
v 0.516795 -0.073164 1.247654
v 0.467596 -0.039950 1.128877
v 0.418397 -0.011880 1.010100
v 0.369198 -0.000029 0.891323
v 0.319999 0.000000 0.772546
v 0.270800 0.000000 0.653769
v 0.221601 0.000000 0.534992
v 0.172402 0.000000 0.416214
v 0.123203 0.000000 0.297437
v 0.338705 -0.202934 1.702781
v 0.313623 -0.152836 1.576688
v 0.288542 -0.110083 1.450595
v 0.263460 -0.073164 1.324502
v 0.238379 -0.039950 1.198409
v 0.213297 -0.011880 1.072316
v 0.188216 -0.000029 0.946223
v 0.163134 0.000000 0.820130
v 0.138053 0.000000 0.694037
v 0.112971 0.000000 0.567944
v 0.087890 0.000000 0.441851
v 0.062808 0.000000 0.315758
v 0.000000 -0.202935 1.736141
v 0.000000 -0.152836 1.607577
v 0.000000 -0.110083 1.479014
v 0.000000 -0.073164 1.350451
v 0.000000 -0.039950 1.221887
v 0.000000 -0.011880 1.093324
v 0.000000 -0.000029 0.964761
v 0.000000 0.000000 0.836197
v 0.000000 0.000000 0.707634
v 0.000000 0.000000 0.579071
v 0.000000 0.000000 0.450507
v 0.000000 0.000000 0.321944
v -0.338705 -0.202934 1.702781
v -0.313623 -0.152836 1.576688
v -0.288542 -0.110083 1.450595
v -0.263460 -0.073164 1.324502
v -0.238379 -0.039950 1.198409
v -0.213297 -0.011880 1.072316
v -0.188216 -0.000029 0.946223
v -0.163134 0.000000 0.820130
v -0.138053 0.000000 0.694037
v -0.112971 0.000000 0.567944
v -0.087890 0.000000 0.441851
v -0.062808 0.000000 0.315758
v -0.664392 -0.202934 1.603985
v -0.615193 -0.152836 1.485208
v -0.565994 -0.110083 1.366431
v -0.516795 -0.073164 1.247654
v -0.467596 -0.039950 1.128877
v -0.418397 -0.011880 1.010100
v -0.369198 -0.000029 0.891323
v -0.319999 0.000000 0.772546
v -0.270800 0.000000 0.653769
v -0.221601 0.000000 0.534992
v -0.172402 0.000000 0.416214
v -0.123202 0.000000 0.297437
v -0.964548 -0.202934 1.443548
v -0.893122 -0.152836 1.336652
v -0.821696 -0.110083 1.229755
v -0.750270 -0.073164 1.122859
v -0.678844 -0.039950 1.015962
v -0.607418 -0.011880 0.909066
v -0.535992 -0.000029 0.802169
v -0.464566 0.000000 0.695273
v -0.393140 0.000000 0.588376
v -0.321714 0.000000 0.481479
v -0.250288 0.000000 0.374583
v -0.178862 0.000000 0.267686
v -1.227637 -0.202935 1.227637
v -1.136729 -0.152836 1.136729
v -1.045821 -0.110083 1.045821
v -0.954913 -0.073164 0.954913
v -0.864005 -0.039950 0.864005
v -0.773097 -0.011880 0.773097
v -0.682189 -0.000029 0.682189
v -0.591281 0.000000 0.591281
v -0.500373 0.000000 0.500373
v -0.409465 0.000000 0.409465
v -0.318557 0.000000 0.318557
v -0.227649 0.000000 0.227649
v -1.443548 -0.202934 0.964548
v -1.336652 -0.152836 0.893122
v -1.229755 -0.110083 0.821696
v -1.122859 -0.073164 0.750270
v -1.015962 -0.039950 0.678844
v -0.909066 -0.011880 0.607418
v -0.802169 -0.000029 0.535992
v -0.695273 0.000000 0.464566
v -0.588376 0.000000 0.393140
v -0.481480 0.000000 0.321714
v -0.374583 0.000000 0.250288
v -0.267687 0.000000 0.178862
v -1.603985 -0.202935 0.664392
v -1.485208 -0.152836 0.615193
v -1.366431 -0.110083 0.565994
v -1.247654 -0.073164 0.516795
v -1.128877 -0.039950 0.467596
v -1.010100 -0.011880 0.418397
v -0.891323 -0.000029 0.369198
v -0.772546 0.000000 0.319999
v -0.653769 0.000000 0.270800
v -0.534992 0.000000 0.221601
v -0.416214 0.000000 0.172402
v -0.297437 0.000000 0.123202
v -1.702781 -0.202935 0.338705
v -1.576688 -0.152836 0.313623
v -1.450595 -0.110083 0.288541
v -1.324502 -0.073164 0.263460
v -1.198409 -0.039950 0.238379
v -1.072316 -0.011880 0.213297
v -0.946223 -0.000029 0.188216
v -0.820130 0.000000 0.163134
v -0.694037 0.000000 0.138053
v -0.567944 0.000000 0.112971
v -0.441851 0.000000 0.087890
v -0.315758 0.000000 0.062808
v -1.736141 -0.202935 0.000000
v -1.607577 -0.152836 -0.000000
v -1.479014 -0.110083 0.000000
v -1.350451 -0.073164 0.000000
v -1.221887 -0.039950 0.000000
v -1.093324 -0.011880 0.000000
v -0.964761 -0.000029 -0.000000
v -0.836197 0.000000 0.000000
v -0.707634 0.000000 0.000000
v -0.579071 0.000000 0.000000
v -0.450507 0.000000 0.000000
v -0.321944 0.000000 0.000000
v -1.702781 -0.202935 -0.338705
v -1.576688 -0.152836 -0.313623
v -1.450595 -0.110083 -0.288542
v -1.324502 -0.073164 -0.263460
v -1.198409 -0.039950 -0.238379
v -1.072316 -0.011880 -0.213297
v -0.946223 -0.000029 -0.188216
v -0.820130 -0.000000 -0.163134
v -0.694037 -0.000000 -0.138053
v -0.567944 -0.000000 -0.112971
v -0.441851 -0.000000 -0.087890
v -0.315758 -0.000000 -0.062808
v -1.603985 -0.202935 -0.664392
v -1.485208 -0.152836 -0.615193
v -1.366431 -0.110083 -0.565994
v -1.247654 -0.073164 -0.516795
v -1.128877 -0.039950 -0.467596
v -1.010100 -0.011880 -0.418397
v -0.891323 -0.000029 -0.369198
v -0.772546 -0.000000 -0.319999
v -0.653769 -0.000000 -0.270800
v -0.534992 -0.000000 -0.221601
v -0.416214 -0.000000 -0.172402
v -0.297437 -0.000000 -0.123203
v -1.443548 -0.202934 -0.964548
v -1.336652 -0.152836 -0.893122
v -1.229755 -0.110083 -0.821696
v -1.122859 -0.073164 -0.750270
v -1.015962 -0.039950 -0.678844
v -0.909066 -0.011880 -0.607418
v -0.802169 -0.000029 -0.535992
v -0.695273 -0.000000 -0.464566
v -0.588376 -0.000000 -0.393140
v -0.481480 -0.000000 -0.321714
v -0.374583 -0.000000 -0.250288
v -0.267687 -0.000000 -0.178862
v -1.227637 -0.202935 -1.227637
v -1.136729 -0.152836 -1.136729
v -1.045821 -0.110083 -1.045821
v -0.954913 -0.073164 -0.954913
v -0.864005 -0.039950 -0.864005
v -0.773097 -0.011880 -0.773097
v -0.682189 -0.000029 -0.682189
v -0.591281 -0.000000 -0.591281
v -0.500373 -0.000000 -0.500373
v -0.409465 -0.000000 -0.409465
v -0.318557 -0.000000 -0.318557
v -0.227649 -0.000000 -0.227649
v -0.964548 -0.202934 -1.443548
v -0.893122 -0.152836 -1.336652
v -0.821696 -0.110083 -1.229755
v -0.750270 -0.073164 -1.122859
v -0.678844 -0.039950 -1.015962
v -0.607418 -0.011880 -0.909066
v -0.535992 -0.000029 -0.802169
v -0.464566 -0.000000 -0.695273
v -0.393140 -0.000000 -0.588376
v -0.321714 -0.000000 -0.481480
v -0.250288 -0.000000 -0.374583
v -0.178862 -0.000000 -0.267687
v -0.664392 -0.202935 -1.603985
v -0.615193 -0.152836 -1.485208
v -0.565994 -0.110083 -1.366431
v -0.516795 -0.073164 -1.247654
v -0.467596 -0.039950 -1.128877
v -0.418397 -0.011880 -1.010100
v -0.369198 -0.000029 -0.891323
v -0.319999 -0.000000 -0.772546
v -0.270800 -0.000000 -0.653769
v -0.221601 -0.000000 -0.534992
v -0.172402 -0.000000 -0.416214
v -0.123202 -0.000000 -0.297437
v -0.338705 -0.202935 -1.702781
v -0.313623 -0.152836 -1.576688
v -0.288542 -0.110083 -1.450595
v -0.263460 -0.073164 -1.324502
v -0.238379 -0.039950 -1.198409
v -0.213297 -0.011880 -1.072316
v -0.188216 -0.000029 -0.946223
v -0.163134 -0.000000 -0.820130
v -0.138053 -0.000000 -0.694037
v -0.112971 -0.000000 -0.567944
v -0.087890 -0.000000 -0.441851
v -0.062808 -0.000000 -0.315758
vn -0.0000 1.0000 -0.0000
vn -0.1047 0.8437 -0.5264
vn -0.0891 0.8895 -0.4481
vn -0.0000 0.8895 -0.4569
vn -0.0000 0.8437 -0.5368
vn -0.0665 0.9401 -0.3343
vn -0.0000 0.9401 -0.3408
vn -0.0579 0.9549 -0.2913
vn -0.0000 0.9549 -0.2970
vn -0.0515 0.9646 -0.2588
vn -0.0000 0.9646 -0.2639
vn -0.0454 0.9725 -0.2284
vn -0.0000 0.9725 -0.2329
vn -0.0305 0.9877 -0.1536
vn -0.0000 0.9877 -0.1566
vn -0.0095 0.9988 -0.0480
vn -0.0000 0.9988 -0.0489
vn -0.0000 1.0000 -0.0001
vn -0.2054 0.8437 -0.4959
vn -0.1748 0.8895 -0.4221
vn -0.1304 0.9401 -0.3149
vn -0.1137 0.9549 -0.2744
vn -0.1010 0.9646 -0.2438
vn -0.0891 0.9725 -0.2152
vn -0.0599 0.9877 -0.1447
vn -0.0187 0.9988 -0.0452
vn -0.2982 0.8437 -0.4463
vn -0.2538 0.8895 -0.3799
vn -0.1894 0.9401 -0.2834
vn -0.1650 0.9549 -0.2470
vn -0.1466 0.9646 -0.2194
vn -0.1294 0.9725 -0.1936
vn -0.0870 0.9877 -0.1302
vn -0.0272 0.9988 -0.0407
vn -0.0001 1.0000 -0.0001
vn -0.3795 0.8437 -0.3795
vn -0.3231 0.8895 -0.3231
vn -0.2410 0.9401 -0.2410
vn -0.2100 0.9549 -0.2100
vn -0.1866 0.9646 -0.1866
vn -0.1647 0.9725 -0.1647
vn -0.1107 0.9877 -0.1107
vn -0.0346 0.9988 -0.0346
vn -0.4463 0.8437 -0.2982
vn -0.3799 0.8895 -0.2538
vn -0.2834 0.9401 -0.1894
vn -0.2470 0.9549 -0.1650
vn -0.2194 0.9646 -0.1466
vn -0.1936 0.9725 -0.1294
vn -0.1302 0.9877 -0.0870
vn -0.0407 0.9988 -0.0272
vn -0.4959 0.8437 -0.2054
vn -0.4221 0.8895 -0.1748
vn -0.3149 0.9401 -0.1304
vn -0.2744 0.9549 -0.1137
vn -0.2438 0.9646 -0.1010
vn -0.2152 0.9725 -0.0891
vn -0.1447 0.9877 -0.0599
vn -0.0452 0.9988 -0.0187
vn -0.0001 1.0000 -0.0000
vn -0.5264 0.8437 -0.1047
vn -0.4481 0.8895 -0.0891
vn -0.3343 0.9401 -0.0665
vn -0.2913 0.9549 -0.0579
vn -0.2588 0.9646 -0.0515
vn -0.2284 0.9725 -0.0454
vn -0.1536 0.9877 -0.0305
vn -0.0480 0.9988 -0.0095
vn -0.5368 0.8437 -0.0000
vn -0.4569 0.8895 -0.0000
vn -0.3408 0.9401 -0.0000
vn -0.2970 0.9549 -0.0000
vn -0.2639 0.9646 -0.0000
vn -0.2329 0.9725 -0.0000
vn -0.1566 0.9877 -0.0000
vn -0.0489 0.9988 -0.0000
vn -0.5264 0.8437 0.1047
vn -0.4481 0.8895 0.0891
vn -0.3343 0.9401 0.0665
vn -0.2913 0.9549 0.0579
vn -0.2588 0.9646 0.0515
vn -0.2284 0.9725 0.0454
vn -0.1536 0.9877 0.0305
vn -0.0480 0.9988 0.0095
vn -0.4959 0.8437 0.2054
vn -0.4221 0.8895 0.1748
vn -0.3149 0.9401 0.1304
vn -0.2744 0.9549 0.1137
vn -0.2438 0.9646 0.1010
vn -0.2152 0.9725 0.0891
vn -0.1447 0.9877 0.0599
vn -0.0452 0.9988 0.0187
vn -0.4463 0.8437 0.2982
vn -0.3799 0.8895 0.2538
vn -0.2834 0.9401 0.1894
vn -0.2470 0.9549 0.1650
vn -0.2194 0.9646 0.1466
vn -0.1936 0.9725 0.1294
vn -0.1302 0.9877 0.0870
vn -0.0407 0.9988 0.0272
vn -0.0001 1.0000 0.0001
vn -0.3795 0.8437 0.3795
vn -0.3231 0.8895 0.3231
vn -0.2410 0.9401 0.2410
vn -0.2100 0.9549 0.2100
vn -0.1866 0.9646 0.1866
vn -0.1647 0.9725 0.1647
vn -0.1107 0.9877 0.1107
vn -0.0346 0.9988 0.0346
vn -0.2982 0.8437 0.4463
vn -0.2538 0.8895 0.3799
vn -0.1894 0.9401 0.2834
vn -0.1650 0.9549 0.2470
vn -0.1466 0.9646 0.2194
vn -0.1294 0.9725 0.1936
vn -0.0870 0.9877 0.1302
vn -0.0272 0.9988 0.0407
vn -0.2054 0.8437 0.4959
vn -0.1748 0.8895 0.4221
vn -0.1304 0.9401 0.3149
vn -0.1137 0.9549 0.2744
vn -0.1010 0.9646 0.2438
vn -0.0891 0.9725 0.2152
vn -0.0599 0.9877 0.1447
vn -0.0187 0.9988 0.0452
vn -0.0000 1.0000 0.0001
vn -0.1047 0.8437 0.5264
vn -0.0891 0.8895 0.4481
vn -0.0665 0.9401 0.3343
vn -0.0579 0.9549 0.2913
vn -0.0515 0.9646 0.2588
vn -0.0454 0.9725 0.2284
vn -0.0305 0.9877 0.1536
vn -0.0095 0.9988 0.0480
vn -0.0000 0.8437 0.5368
vn -0.0000 0.8895 0.4569
vn -0.0000 0.9401 0.3408
vn -0.0000 0.9549 0.2970
vn -0.0000 0.9646 0.2639
vn -0.0000 0.9725 0.2329
vn -0.0000 0.9877 0.1566
vn -0.0000 0.9988 0.0489
vn 0.1047 0.8437 0.5264
vn 0.0891 0.8895 0.4481
vn 0.0665 0.9401 0.3343
vn 0.0579 0.9549 0.2913
vn 0.0515 0.9646 0.2588
vn 0.0454 0.9725 0.2284
vn 0.0305 0.9877 0.1536
vn 0.0095 0.9988 0.0480
vn 0.2054 0.8437 0.4959
vn 0.1748 0.8895 0.4221
vn 0.1304 0.9401 0.3149
vn 0.1137 0.9549 0.2744
vn 0.1010 0.9646 0.2438
vn 0.0891 0.9725 0.2152
vn 0.0599 0.9877 0.1447
vn 0.0187 0.9988 0.0452
vn 0.2982 0.8437 0.4463
vn 0.2538 0.8895 0.3799
vn 0.1894 0.9401 0.2834
vn 0.1650 0.9549 0.2470
vn 0.1466 0.9646 0.2194
vn 0.1294 0.9725 0.1936
vn 0.0870 0.9877 0.1302
vn 0.0272 0.9988 0.0407
vn 0.0001 1.0000 0.0001
vn 0.3795 0.8437 0.3795
vn 0.3231 0.8895 0.3231
vn 0.2410 0.9401 0.2410
vn 0.2100 0.9549 0.2100
vn 0.1866 0.9646 0.1866
vn 0.1647 0.9725 0.1647
vn 0.1107 0.9877 0.1107
vn 0.0346 0.9988 0.0346
vn 0.4463 0.8437 0.2982
vn 0.3799 0.8895 0.2538
vn 0.2834 0.9401 0.1894
vn 0.2470 0.9549 0.1650
vn 0.2194 0.9646 0.1466
vn 0.1936 0.9725 0.1294
vn 0.1302 0.9877 0.0870
vn 0.0407 0.9988 0.0272
vn 0.4959 0.8437 0.2054
vn 0.4221 0.8895 0.1748
vn 0.3149 0.9401 0.1304
vn 0.2744 0.9549 0.1137
vn 0.2438 0.9646 0.1010
vn 0.2152 0.9725 0.0891
vn 0.1447 0.9877 0.0599
vn 0.0452 0.9988 0.0187
vn 0.0001 1.0000 -0.0000
vn 0.5264 0.8437 0.1047
vn 0.4481 0.8895 0.0891
vn 0.3343 0.9401 0.0665
vn 0.2913 0.9549 0.0579
vn 0.2588 0.9646 0.0515
vn 0.2284 0.9725 0.0454
vn 0.1536 0.9877 0.0305
vn 0.0480 0.9988 0.0095
vn 0.5368 0.8437 -0.0000
vn 0.4569 0.8895 -0.0000
vn 0.3408 0.9401 -0.0000
vn 0.2970 0.9549 -0.0000
vn 0.2639 0.9646 -0.0000
vn 0.2329 0.9725 -0.0000
vn 0.1566 0.9877 -0.0000
vn 0.0489 0.9988 -0.0000
vn 0.5264 0.8437 -0.1047
vn 0.4481 0.8895 -0.0891
vn 0.3343 0.9401 -0.0665
vn 0.2913 0.9549 -0.0579
vn 0.2588 0.9646 -0.0515
vn 0.2284 0.9725 -0.0454
vn 0.1536 0.9877 -0.0305
vn 0.0480 0.9988 -0.0095
vn 0.4959 0.8437 -0.2054
vn 0.4221 0.8895 -0.1748
vn 0.3149 0.9401 -0.1304
vn 0.2744 0.9549 -0.1137
vn 0.2438 0.9646 -0.1010
vn 0.2152 0.9725 -0.0891
vn 0.1447 0.9877 -0.0599
vn 0.0452 0.9988 -0.0187
vn 0.4463 0.8437 -0.2982
vn 0.3799 0.8895 -0.2538
vn 0.2834 0.9401 -0.1894
vn 0.2470 0.9549 -0.1650
vn 0.2194 0.9646 -0.1466
vn 0.1936 0.9725 -0.1294
vn 0.1302 0.9877 -0.0870
vn 0.0407 0.9988 -0.0272
vn 0.0001 1.0000 -0.0001
vn 0.3795 0.8437 -0.3795
vn 0.3231 0.8895 -0.3231
vn 0.2410 0.9401 -0.2410
vn 0.2100 0.9549 -0.2100
vn 0.1866 0.9646 -0.1866
vn 0.1647 0.9725 -0.1647
vn 0.1107 0.9877 -0.1107
vn 0.0346 0.9988 -0.0346
vn 0.2982 0.8437 -0.4463
vn 0.2538 0.8895 -0.3799
vn 0.1894 0.9401 -0.2834
vn 0.1650 0.9549 -0.2470
vn 0.1466 0.9646 -0.2194
vn 0.1294 0.9725 -0.1936
vn 0.0870 0.9877 -0.1302
vn 0.0272 0.9988 -0.0407
vn 0.2054 0.8437 -0.4959
vn 0.1748 0.8895 -0.4221
vn 0.1304 0.9401 -0.3149
vn 0.1137 0.9549 -0.2744
vn 0.1010 0.9646 -0.2438
vn 0.0891 0.9725 -0.2152
vn 0.0599 0.9877 -0.1447
vn 0.0187 0.9988 -0.0452
vn 0.1047 0.8437 -0.5264
vn 0.0891 0.8895 -0.4481
vn 0.0665 0.9401 -0.3343
vn 0.0579 0.9549 -0.2913
vn 0.0515 0.9646 -0.2588
vn 0.0454 0.9725 -0.2284
vn 0.0305 0.9877 -0.1536
vn 0.0095 0.9988 -0.0480
vt 0.000000 0.305493
vt 0.000000 0.270128
vt 0.031250 0.270128
vt 0.031250 0.305493
vt 0.062500 0.270128
vt 0.062500 0.305493
vt 0.093750 0.270128
vt 0.093750 0.305493
vt 0.125000 0.270128
vt 0.125000 0.305493
vt 0.156250 0.270128
vt 0.156250 0.305493
vt 0.187500 0.270128
vt 0.187500 0.305493
vt 0.218750 0.270128
vt 0.218750 0.305493
vt 0.250000 0.270128
vt 0.250000 0.305493
vt 0.281250 0.270128
vt 0.281250 0.305493
vt 0.312500 0.270128
vt 0.312500 0.305493
vt 0.343750 0.270128
vt 0.343750 0.305493
vt 0.375000 0.270128
vt 0.375000 0.305493
vt 0.406250 0.270128
vt 0.406250 0.305493
vt 0.437500 0.270128
vt 0.437500 0.305493
vt 0.468750 0.270128
vt 0.468750 0.305493
vt 0.500000 0.270128
vt 0.500000 0.305493
vt 0.531250 0.270128
vt 0.531250 0.305493
vt 0.562500 0.270128
vt 0.562500 0.305493
vt 0.593750 0.270128
vt 0.593750 0.305493
vt 0.625000 0.270128
vt 0.625000 0.305493
vt 0.656250 0.270128
vt 0.656250 0.305493
vt 0.687500 0.270128
vt 0.687500 0.305493
vt 0.718750 0.270128
vt 0.718750 0.305493
vt 0.750000 0.270128
vt 0.750000 0.305493
vt 0.781250 0.270128
vt 0.781250 0.305493
vt 0.812500 0.270128
vt 0.812500 0.305493
vt 0.843750 0.270128
vt 0.843750 0.305493
vt 0.875000 0.270128
vt 0.875000 0.305493
vt 0.906250 0.270128
vt 0.906250 0.305493
vt 0.937500 0.270128
vt 0.937500 0.305493
vt 0.968750 0.270128
vt 0.968750 0.305493
vt 1.000000 0.270128
vt 1.000000 0.305493
vt 0.968750 0.729872
vt 0.968750 0.694507
vt 1.000000 0.694507
vt 1.000000 0.729872
vt 0.968750 0.659142
vt 1.000000 0.659142
vt 0.968750 0.623777
vt 1.000000 0.623777
vt 0.968750 0.588412
vt 1.000000 0.588412
vt 0.968750 0.553047
vt 1.000000 0.553047
vt 0.968750 0.517682
vt 1.000000 0.517682
vt 0.968750 0.482318
vt 1.000000 0.482318
vt 0.968750 0.446953
vt 1.000000 0.446953
vt 0.968750 0.411588
vt 1.000000 0.411588
vt 0.968750 0.376223
vt 1.000000 0.376223
vt 0.968750 0.340858
vt 1.000000 0.340858
vt 0.937500 0.729872
vt 0.937500 0.694507
vt 0.937500 0.659142
vt 0.937500 0.623777
vt 0.937500 0.588412
vt 0.937500 0.553047
vt 0.937500 0.517682
vt 0.937500 0.482318
vt 0.937500 0.446953
vt 0.937500 0.411588
vt 0.937500 0.376223
vt 0.937500 0.340858
vt 0.906250 0.729872
vt 0.906250 0.694507
vt 0.906250 0.659142
vt 0.906250 0.623777
vt 0.906250 0.588412
vt 0.906250 0.553047
vt 0.906250 0.517682
vt 0.906250 0.482318
vt 0.906250 0.446953
vt 0.906250 0.411588
vt 0.906250 0.376223
vt 0.906250 0.340858
vt 0.875000 0.729872
vt 0.875000 0.694507
vt 0.875000 0.659142
vt 0.875000 0.623777
vt 0.875000 0.588412
vt 0.875000 0.553047
vt 0.875000 0.517682
vt 0.875000 0.482318
vt 0.875000 0.446953
vt 0.875000 0.411588
vt 0.875000 0.376223
vt 0.875000 0.340858
vt 0.843750 0.729872
vt 0.843750 0.694507
vt 0.843750 0.659142
vt 0.843750 0.623777
vt 0.843750 0.588412
vt 0.843750 0.553047
vt 0.843750 0.517682
vt 0.843750 0.482318
vt 0.843750 0.446953
vt 0.843750 0.411588
vt 0.843750 0.376223
vt 0.843750 0.340858
vt 0.812500 0.729872
vt 0.812500 0.694507
vt 0.812500 0.659142
vt 0.812500 0.623777
vt 0.812500 0.588412
vt 0.812500 0.553047
vt 0.812500 0.517682
vt 0.812500 0.482318
vt 0.812500 0.446953
vt 0.812500 0.411588
vt 0.812500 0.376223
vt 0.812500 0.340858
vt 0.781250 0.729872
vt 0.781250 0.694507
vt 0.781250 0.659142
vt 0.781250 0.623777
vt 0.781250 0.588412
vt 0.781250 0.553047
vt 0.781250 0.517682
vt 0.781250 0.482318
vt 0.781250 0.446953
vt 0.781250 0.411588
vt 0.781250 0.376223
vt 0.781250 0.340858
vt 0.750000 0.729872
vt 0.750000 0.694507
vt 0.750000 0.659142
vt 0.750000 0.623777
vt 0.750000 0.588412
vt 0.750000 0.553047
vt 0.750000 0.517682
vt 0.750000 0.482318
vt 0.750000 0.446953
vt 0.750000 0.411588
vt 0.750000 0.376223
vt 0.750000 0.340858
vt 0.718750 0.729872
vt 0.718750 0.694507
vt 0.718750 0.659142
vt 0.718750 0.623777
vt 0.718750 0.588412
vt 0.718750 0.553047
vt 0.718750 0.517682
vt 0.718750 0.482318
vt 0.718750 0.446953
vt 0.718750 0.411588
vt 0.718750 0.376223
vt 0.718750 0.340858
vt 0.687500 0.729872
vt 0.687500 0.694507
vt 0.687500 0.659142
vt 0.687500 0.623777
vt 0.687500 0.588412
vt 0.687500 0.553047
vt 0.687500 0.517682
vt 0.687500 0.482318
vt 0.687500 0.446953
vt 0.687500 0.411588
vt 0.687500 0.376223
vt 0.687500 0.340858
vt 0.656250 0.729872
vt 0.656250 0.694507
vt 0.656250 0.659142
vt 0.656250 0.623777
vt 0.656250 0.588412
vt 0.656250 0.553047
vt 0.656250 0.517682
vt 0.656250 0.482318
vt 0.656250 0.446953
vt 0.656250 0.411588
vt 0.656250 0.376223
vt 0.656250 0.340858
vt 0.625000 0.729872
vt 0.625000 0.694507
vt 0.625000 0.659142
vt 0.625000 0.623777
vt 0.625000 0.588412
vt 0.625000 0.553047
vt 0.625000 0.517682
vt 0.625000 0.482318
vt 0.625000 0.446953
vt 0.625000 0.411588
vt 0.625000 0.376223
vt 0.625000 0.340858
vt 0.593750 0.729872
vt 0.593750 0.694507
vt 0.593750 0.659142
vt 0.593750 0.623777
vt 0.593750 0.588412
vt 0.593750 0.553047
vt 0.593750 0.517682
vt 0.593750 0.482318
vt 0.593750 0.446953
vt 0.593750 0.411588
vt 0.593750 0.376223
vt 0.593750 0.340858
vt 0.562500 0.729872
vt 0.562500 0.694507
vt 0.562500 0.659142
vt 0.562500 0.623777
vt 0.562500 0.588412
vt 0.562500 0.553047
vt 0.562500 0.517682
vt 0.562500 0.482318
vt 0.562500 0.446953
vt 0.562500 0.411588
vt 0.562500 0.376223
vt 0.562500 0.340858
vt 0.531250 0.729872
vt 0.531250 0.694507
vt 0.531250 0.659142
vt 0.531250 0.623777
vt 0.531250 0.588412
vt 0.531250 0.553047
vt 0.531250 0.517682
vt 0.531250 0.482318
vt 0.531250 0.446953
vt 0.531250 0.411588
vt 0.531250 0.376223
vt 0.531250 0.340858
vt 0.500000 0.729872
vt 0.500000 0.694507
vt 0.500000 0.659142
vt 0.500000 0.623777
vt 0.500000 0.588412
vt 0.500000 0.553047
vt 0.500000 0.517682
vt 0.500000 0.482318
vt 0.500000 0.446953
vt 0.500000 0.411588
vt 0.500000 0.376223
vt 0.500000 0.340858
vt 0.468750 0.729872
vt 0.468750 0.694507
vt 0.468750 0.659142
vt 0.468750 0.623777
vt 0.468750 0.588412
vt 0.468750 0.553047
vt 0.468750 0.517682
vt 0.468750 0.482318
vt 0.468750 0.446953
vt 0.468750 0.411588
vt 0.468750 0.376223
vt 0.468750 0.340858
vt 0.437500 0.729872
vt 0.437500 0.694507
vt 0.437500 0.659142
vt 0.437500 0.623777
vt 0.437500 0.588412
vt 0.437500 0.553047
vt 0.437500 0.517682
vt 0.437500 0.482318
vt 0.437500 0.446953
vt 0.437500 0.411588
vt 0.437500 0.376223
vt 0.437500 0.340858
vt 0.406250 0.729872
vt 0.406250 0.694507
vt 0.406250 0.659142
vt 0.406250 0.623777
vt 0.406250 0.588412
vt 0.406250 0.553047
vt 0.406250 0.517682
vt 0.406250 0.482318
vt 0.406250 0.446953
vt 0.406250 0.411588
vt 0.406250 0.376223
vt 0.406250 0.340858
vt 0.375000 0.729872
vt 0.375000 0.694507
vt 0.375000 0.659142
vt 0.375000 0.623777
vt 0.375000 0.588412
vt 0.375000 0.553047
vt 0.375000 0.517682
vt 0.375000 0.482318
vt 0.375000 0.446953
vt 0.375000 0.411588
vt 0.375000 0.376223
vt 0.375000 0.340858
vt 0.343750 0.729872
vt 0.343750 0.694507
vt 0.343750 0.659142
vt 0.343750 0.623777
vt 0.343750 0.588412
vt 0.343750 0.553047
vt 0.343750 0.517682
vt 0.343750 0.482318
vt 0.343750 0.446953
vt 0.343750 0.411588
vt 0.343750 0.376223
vt 0.343750 0.340858
vt 0.312500 0.729872
vt 0.312500 0.694507
vt 0.312500 0.659142
vt 0.312500 0.623777
vt 0.312500 0.588412
vt 0.312500 0.553047
vt 0.312500 0.517682
vt 0.312500 0.482318
vt 0.312500 0.446953
vt 0.312500 0.411588
vt 0.312500 0.376223
vt 0.312500 0.340858
vt 0.281250 0.729872
vt 0.281250 0.694507
vt 0.281250 0.659142
vt 0.281250 0.623777
vt 0.281250 0.588412
vt 0.281250 0.553047
vt 0.281250 0.517682
vt 0.281250 0.482318
vt 0.281250 0.446953
vt 0.281250 0.411588
vt 0.281250 0.376223
vt 0.281250 0.340858
vt 0.250000 0.729872
vt 0.250000 0.694507
vt 0.250000 0.659142
vt 0.250000 0.623777
vt 0.250000 0.588412
vt 0.250000 0.553047
vt 0.250000 0.517682
vt 0.250000 0.482318
vt 0.250000 0.446953
vt 0.250000 0.411588
vt 0.250000 0.376223
vt 0.250000 0.340858
vt 0.218750 0.729872
vt 0.218750 0.694507
vt 0.218750 0.659142
vt 0.218750 0.623777
vt 0.218750 0.588412
vt 0.218750 0.553047
vt 0.218750 0.517682
vt 0.218750 0.482318
vt 0.218750 0.446953
vt 0.218750 0.411588
vt 0.218750 0.376223
vt 0.218750 0.340858
vt 0.187500 0.729872
vt 0.187500 0.694507
vt 0.187500 0.659142
vt 0.187500 0.623777
vt 0.187500 0.588412
vt 0.187500 0.553047
vt 0.187500 0.517682
vt 0.187500 0.482318
vt 0.187500 0.446953
vt 0.187500 0.411588
vt 0.187500 0.376223
vt 0.187500 0.340858
vt 0.156250 0.729872
vt 0.156250 0.694507
vt 0.156250 0.659142
vt 0.156250 0.623777
vt 0.156250 0.588412
vt 0.156250 0.553047
vt 0.156250 0.517682
vt 0.156250 0.482318
vt 0.156250 0.446953
vt 0.156250 0.411588
vt 0.156250 0.376223
vt 0.156250 0.340858
vt 0.125000 0.729872
vt 0.125000 0.694507
vt 0.125000 0.659142
vt 0.125000 0.623777
vt 0.125000 0.588412
vt 0.125000 0.553047
vt 0.125000 0.517682
vt 0.125000 0.482318
vt 0.125000 0.446953
vt 0.125000 0.411588
vt 0.125000 0.376223
vt 0.125000 0.340858
vt 0.093750 0.729872
vt 0.093750 0.694507
vt 0.093750 0.659142
vt 0.093750 0.623777
vt 0.093750 0.588412
vt 0.093750 0.553047
vt 0.093750 0.517682
vt 0.093750 0.482318
vt 0.093750 0.446953
vt 0.093750 0.411588
vt 0.093750 0.376223
vt 0.093750 0.340858
vt 0.062500 0.729872
vt 0.062500 0.694507
vt 0.062500 0.659142
vt 0.062500 0.623777
vt 0.062500 0.588412
vt 0.062500 0.553047
vt 0.062500 0.517682
vt 0.062500 0.482318
vt 0.062500 0.446953
vt 0.062500 0.411588
vt 0.062500 0.376223
vt 0.062500 0.340858
vt 0.031250 0.729872
vt 0.031250 0.694507
vt 0.031250 0.659142
vt 0.031250 0.623777
vt 0.031250 0.588412
vt 0.031250 0.553047
vt 0.031250 0.517682
vt 0.031250 0.482318
vt 0.031250 0.446953
vt 0.031250 0.411588
vt 0.031250 0.376223
vt 0.031250 0.340858
vt 0.000000 0.729872
vt 0.000000 0.694507
vt 0.000000 0.659142
vt 0.000000 0.623777
vt 0.000000 0.588412
vt 0.000000 0.553047
vt 0.000000 0.517682
vt 0.000000 0.482318
vt 0.000000 0.446953
vt 0.000000 0.411588
vt 0.000000 0.376223
vt 0.000000 0.340858
s 1
f 76/1/1 2/2/1 4/3/1 88/4/1
f 88/4/1 4/3/1 6/5/1 100/6/1
f 100/6/1 6/5/1 8/7/1 112/8/1
f 112/8/1 8/7/1 10/9/1 124/10/1
f 124/10/1 10/9/1 12/11/1 136/12/1
f 136/12/1 12/11/1 14/13/1 148/14/1
f 148/14/1 14/13/1 16/15/1 160/16/1
f 160/16/1 16/15/1 18/17/1 172/18/1
f 172/18/1 18/17/1 20/19/1 184/20/1
f 184/20/1 20/19/1 22/21/1 196/22/1
f 196/22/1 22/21/1 24/23/1 208/24/1
f 208/24/1 24/23/1 26/25/1 220/26/1
f 220/26/1 26/25/1 28/27/1 232/28/1
f 232/28/1 28/27/1 30/29/1 244/30/1
f 244/30/1 30/29/1 32/31/1 256/32/1
f 256/32/1 32/31/1 34/33/1 268/34/1
f 268/34/1 34/33/1 36/35/1 280/36/1
f 280/36/1 36/35/1 38/37/1 292/38/1
f 292/38/1 38/37/1 40/39/1 304/40/1
f 304/40/1 40/39/1 42/41/1 316/42/1
f 316/42/1 42/41/1 44/43/1 328/44/1
f 328/44/1 44/43/1 46/45/1 340/46/1
f 340/46/1 46/45/1 48/47/1 352/48/1
f 352/48/1 48/47/1 50/49/1 364/50/1
f 364/50/1 50/49/1 52/51/1 376/52/1
f 376/52/1 52/51/1 54/53/1 388/54/1
f 388/54/1 54/53/1 56/55/1 400/56/1
f 400/56/1 56/55/1 58/57/1 412/58/1
f 412/58/1 58/57/1 60/59/1 424/60/1
f 424/60/1 60/59/1 62/61/1 436/62/1
f 436/62/1 62/61/1 64/63/1 448/64/1
f 448/64/1 64/63/1 2/65/1 76/66/1
f 63/67/2 437/68/3 65/69/4 1/70/5
f 437/68/3 438/71/6 66/72/7 65/69/4
f 438/71/6 439/73/8 67/74/9 66/72/7
f 439/73/8 440/75/10 68/76/11 67/74/9
f 440/75/10 441/77/12 69/78/13 68/76/11
f 441/77/12 442/79/14 70/80/15 69/78/13
f 442/79/14 443/81/16 71/82/17 70/80/15
f 443/81/16 444/83/18 72/84/18 71/82/17
f 444/83/18 445/85/1 73/86/1 72/84/18
f 445/85/1 446/87/1 74/88/1 73/86/1
f 446/87/1 447/89/1 75/90/1 74/88/1
f 447/89/1 448/64/1 76/66/1 75/90/1
f 61/91/19 425/92/20 437/68/3 63/67/2
f 425/92/20 426/93/21 438/71/6 437/68/3
f 426/93/21 427/94/22 439/73/8 438/71/6
f 427/94/22 428/95/23 440/75/10 439/73/8
f 428/95/23 429/96/24 441/77/12 440/75/10
f 429/96/24 430/97/25 442/79/14 441/77/12
f 430/97/25 431/98/26 443/81/16 442/79/14
f 431/98/26 432/99/18 444/83/18 443/81/16
f 432/99/18 433/100/1 445/85/1 444/83/18
f 433/100/1 434/101/1 446/87/1 445/85/1
f 434/101/1 435/102/1 447/89/1 446/87/1
f 435/102/1 436/62/1 448/64/1 447/89/1
f 59/103/27 413/104/28 425/92/20 61/91/19
f 413/104/28 414/105/29 426/93/21 425/92/20
f 414/105/29 415/106/30 427/94/22 426/93/21
f 415/106/30 416/107/31 428/95/23 427/94/22
f 416/107/31 417/108/32 429/96/24 428/95/23
f 417/108/32 418/109/33 430/97/25 429/96/24
f 418/109/33 419/110/34 431/98/26 430/97/25
f 419/110/34 420/111/35 432/99/18 431/98/26
f 420/111/35 421/112/1 433/100/1 432/99/18
f 421/112/1 422/113/1 434/101/1 433/100/1
f 422/113/1 423/114/1 435/102/1 434/101/1
f 423/114/1 424/60/1 436/62/1 435/102/1
f 57/115/36 401/116/37 413/104/28 59/103/27
f 401/116/37 402/117/38 414/105/29 413/104/28
f 402/117/38 403/118/39 415/106/30 414/105/29
f 403/118/39 404/119/40 416/107/31 415/106/30
f 404/119/40 405/120/41 417/108/32 416/107/31
f 405/120/41 406/121/42 418/109/33 417/108/32
f 406/121/42 407/122/43 419/110/34 418/109/33
f 407/122/43 408/123/35 420/111/35 419/110/34
f 408/123/35 409/124/1 421/112/1 420/111/35
f 409/124/1 410/125/1 422/113/1 421/112/1
f 410/125/1 411/126/1 423/114/1 422/113/1
f 411/126/1 412/58/1 424/60/1 423/114/1
f 55/127/44 389/128/45 401/116/37 57/115/36
f 389/128/45 390/129/46 402/117/38 401/116/37
f 390/129/46 391/130/47 403/118/39 402/117/38
f 391/130/47 392/131/48 404/119/40 403/118/39
f 392/131/48 393/132/49 405/120/41 404/119/40
f 393/132/49 394/133/50 406/121/42 405/120/41
f 394/133/50 395/134/51 407/122/43 406/121/42
f 395/134/51 396/135/35 408/123/35 407/122/43
f 396/135/35 397/136/1 409/124/1 408/123/35
f 397/136/1 398/137/1 410/125/1 409/124/1
f 398/137/1 399/138/1 411/126/1 410/125/1
f 399/138/1 400/56/1 412/58/1 411/126/1
f 53/139/52 377/140/53 389/128/45 55/127/44
f 377/140/53 378/141/54 390/129/46 389/128/45
f 378/141/54 379/142/55 391/130/47 390/129/46
f 379/142/55 380/143/56 392/131/48 391/130/47
f 380/143/56 381/144/57 393/132/49 392/131/48
f 381/144/57 382/145/58 394/133/50 393/132/49
f 382/145/58 383/146/59 395/134/51 394/133/50
f 383/146/59 384/147/60 396/135/35 395/134/51
f 384/147/60 385/148/1 397/136/1 396/135/35
f 385/148/1 386/149/1 398/137/1 397/136/1
f 386/149/1 387/150/1 399/138/1 398/137/1
f 387/150/1 388/54/1 400/56/1 399/138/1
f 51/151/61 365/152/62 377/140/53 53/139/52
f 365/152/62 366/153/63 378/141/54 377/140/53
f 366/153/63 367/154/64 379/142/55 378/141/54
f 367/154/64 368/155/65 380/143/56 379/142/55
f 368/155/65 369/156/66 381/144/57 380/143/56
f 369/156/66 370/157/67 382/145/58 381/144/57
f 370/157/67 371/158/68 383/146/59 382/145/58
f 371/158/68 372/159/60 384/147/60 383/146/59
f 372/159/60 373/160/1 385/148/1 384/147/60
f 373/160/1 374/161/1 386/149/1 385/148/1
f 374/161/1 375/162/1 387/150/1 386/149/1
f 375/162/1 376/52/1 388/54/1 387/150/1
f 49/163/69 353/164/70 365/152/62 51/151/61
f 353/164/70 354/165/71 366/153/63 365/152/62
f 354/165/71 355/166/72 367/154/64 366/153/63
f 355/166/72 356/167/73 368/155/65 367/154/64
f 356/167/73 357/168/74 369/156/66 368/155/65
f 357/168/74 358/169/75 370/157/67 369/156/66
f 358/169/75 359/170/76 371/158/68 370/157/67
f 359/170/76 360/171/60 372/159/60 371/158/68
f 360/171/60 361/172/1 373/160/1 372/159/60
f 361/172/1 362/173/1 374/161/1 373/160/1
f 362/173/1 363/174/1 375/162/1 374/161/1
f 363/174/1 364/50/1 376/52/1 375/162/1
f 47/175/77 341/176/78 353/164/70 49/163/69
f 341/176/78 342/177/79 354/165/71 353/164/70
f 342/177/79 343/178/80 355/166/72 354/165/71
f 343/178/80 344/179/81 356/167/73 355/166/72
f 344/179/81 345/180/82 357/168/74 356/167/73
f 345/180/82 346/181/83 358/169/75 357/168/74
f 346/181/83 347/182/84 359/170/76 358/169/75
f 347/182/84 348/183/60 360/171/60 359/170/76
f 348/183/60 349/184/1 361/172/1 360/171/60
f 349/184/1 350/185/1 362/173/1 361/172/1
f 350/185/1 351/186/1 363/174/1 362/173/1
f 351/186/1 352/48/1 364/50/1 363/174/1
f 45/187/85 329/188/86 341/176/78 47/175/77
f 329/188/86 330/189/87 342/177/79 341/176/78
f 330/189/87 331/190/88 343/178/80 342/177/79
f 331/190/88 332/191/89 344/179/81 343/178/80
f 332/191/89 333/192/90 345/180/82 344/179/81
f 333/192/90 334/193/91 346/181/83 345/180/82
f 334/193/91 335/194/92 347/182/84 346/181/83
f 335/194/92 336/195/60 348/183/60 347/182/84
f 336/195/60 337/196/1 349/184/1 348/183/60
f 337/196/1 338/197/1 350/185/1 349/184/1
f 338/197/1 339/198/1 351/186/1 350/185/1
f 339/198/1 340/46/1 352/48/1 351/186/1
f 43/199/93 317/200/94 329/188/86 45/187/85
f 317/200/94 318/201/95 330/189/87 329/188/86
f 318/201/95 319/202/96 331/190/88 330/189/87
f 319/202/96 320/203/97 332/191/89 331/190/88
f 320/203/97 321/204/98 333/192/90 332/191/89
f 321/204/98 322/205/99 334/193/91 333/192/90
f 322/205/99 323/206/100 335/194/92 334/193/91
f 323/206/100 324/207/101 336/195/60 335/194/92
f 324/207/101 325/208/1 337/196/1 336/195/60
f 325/208/1 326/209/1 338/197/1 337/196/1
f 326/209/1 327/210/1 339/198/1 338/197/1
f 327/210/1 328/44/1 340/46/1 339/198/1
f 41/211/102 305/212/103 317/200/94 43/199/93
f 305/212/103 306/213/104 318/201/95 317/200/94
f 306/213/104 307/214/105 319/202/96 318/201/95
f 307/214/105 308/215/106 320/203/97 319/202/96
f 308/215/106 309/216/107 321/204/98 320/203/97
f 309/216/107 310/217/108 322/205/99 321/204/98
f 310/217/108 311/218/109 323/206/100 322/205/99
f 311/218/109 312/219/101 324/207/101 323/206/100
f 312/219/101 313/220/1 325/208/1 324/207/101
f 313/220/1 314/221/1 326/209/1 325/208/1
f 314/221/1 315/222/1 327/210/1 326/209/1
f 315/222/1 316/42/1 328/44/1 327/210/1
f 39/223/110 293/224/111 305/212/103 41/211/102
f 293/224/111 294/225/112 306/213/104 305/212/103
f 294/225/112 295/226/113 307/214/105 306/213/104
f 295/226/113 296/227/114 308/215/106 307/214/105
f 296/227/114 297/228/115 309/216/107 308/215/106
f 297/228/115 298/229/116 310/217/108 309/216/107
f 298/229/116 299/230/117 311/218/109 310/217/108
f 299/230/117 300/231/101 312/219/101 311/218/109
f 300/231/101 301/232/1 313/220/1 312/219/101
f 301/232/1 302/233/1 314/221/1 313/220/1
f 302/233/1 303/234/1 315/222/1 314/221/1
f 303/234/1 304/40/1 316/42/1 315/222/1
f 37/235/118 281/236/119 293/224/111 39/223/110
f 281/236/119 282/237/120 294/225/112 293/224/111
f 282/237/120 283/238/121 295/226/113 294/225/112
f 283/238/121 284/239/122 296/227/114 295/226/113
f 284/239/122 285/240/123 297/228/115 296/227/114
f 285/240/123 286/241/124 298/229/116 297/228/115
f 286/241/124 287/242/125 299/230/117 298/229/116
f 287/242/125 288/243/126 300/231/101 299/230/117
f 288/243/126 289/244/1 301/232/1 300/231/101
f 289/244/1 290/245/1 302/233/1 301/232/1
f 290/245/1 291/246/1 303/234/1 302/233/1
f 291/246/1 292/38/1 304/40/1 303/234/1
f 35/247/127 269/248/128 281/236/119 37/235/118
f 269/248/128 270/249/129 282/237/120 281/236/119
f 270/249/129 271/250/130 283/238/121 282/237/120
f 271/250/130 272/251/131 284/239/122 283/238/121
f 272/251/131 273/252/132 285/240/123 284/239/122
f 273/252/132 274/253/133 286/241/124 285/240/123
f 274/253/133 275/254/134 287/242/125 286/241/124
f 275/254/134 276/255/126 288/243/126 287/242/125
f 276/255/126 277/256/1 289/244/1 288/243/126
f 277/256/1 278/257/1 290/245/1 289/244/1
f 278/257/1 279/258/1 291/246/1 290/245/1
f 279/258/1 280/36/1 292/38/1 291/246/1
f 33/259/135 257/260/136 269/248/128 35/247/127
f 257/260/136 258/261/137 270/249/129 269/248/128
f 258/261/137 259/262/138 271/250/130 270/249/129
f 259/262/138 260/263/139 272/251/131 271/250/130
f 260/263/139 261/264/140 273/252/132 272/251/131
f 261/264/140 262/265/141 274/253/133 273/252/132
f 262/265/141 263/266/142 275/254/134 274/253/133
f 263/266/142 264/267/126 276/255/126 275/254/134
f 264/267/126 265/268/1 277/256/1 276/255/126
f 265/268/1 266/269/1 278/257/1 277/256/1
f 266/269/1 267/270/1 279/258/1 278/257/1
f 267/270/1 268/34/1 280/36/1 279/258/1
f 31/271/143 245/272/144 257/260/136 33/259/135
f 245/272/144 246/273/145 258/261/137 257/260/136
f 246/273/145 247/274/146 259/262/138 258/261/137
f 247/274/146 248/275/147 260/263/139 259/262/138
f 248/275/147 249/276/148 261/264/140 260/263/139
f 249/276/148 250/277/149 262/265/141 261/264/140
f 250/277/149 251/278/150 263/266/142 262/265/141
f 251/278/150 252/279/126 264/267/126 263/266/142
f 252/279/126 253/280/1 265/268/1 264/267/126
f 253/280/1 254/281/1 266/269/1 265/268/1
f 254/281/1 255/282/1 267/270/1 266/269/1
f 255/282/1 256/32/1 268/34/1 267/270/1
f 29/283/151 233/284/152 245/272/144 31/271/143
f 233/284/152 234/285/153 246/273/145 245/272/144
f 234/285/153 235/286/154 247/274/146 246/273/145
f 235/286/154 236/287/155 248/275/147 247/274/146
f 236/287/155 237/288/156 249/276/148 248/275/147
f 237/288/156 238/289/157 250/277/149 249/276/148
f 238/289/157 239/290/158 251/278/150 250/277/149
f 239/290/158 240/291/126 252/279/126 251/278/150
f 240/291/126 241/292/1 253/280/1 252/279/126
f 241/292/1 242/293/1 254/281/1 253/280/1
f 242/293/1 243/294/1 255/282/1 254/281/1
f 243/294/1 244/30/1 256/32/1 255/282/1
f 27/295/159 221/296/160 233/284/152 29/283/151
f 221/296/160 222/297/161 234/285/153 233/284/152
f 222/297/161 223/298/162 235/286/154 234/285/153
f 223/298/162 224/299/163 236/287/155 235/286/154
f 224/299/163 225/300/164 237/288/156 236/287/155
f 225/300/164 226/301/165 238/289/157 237/288/156
f 226/301/165 227/302/166 239/290/158 238/289/157
f 227/302/166 228/303/167 240/291/126 239/290/158
f 228/303/167 229/304/1 241/292/1 240/291/126
f 229/304/1 230/305/1 242/293/1 241/292/1
f 230/305/1 231/306/1 243/294/1 242/293/1
f 231/306/1 232/28/1 244/30/1 243/294/1
f 25/307/168 209/308/169 221/296/160 27/295/159
f 209/308/169 210/309/170 222/297/161 221/296/160
f 210/309/170 211/310/171 223/298/162 222/297/161
f 211/310/171 212/311/172 224/299/163 223/298/162
f 212/311/172 213/312/173 225/300/164 224/299/163
f 213/312/173 214/313/174 226/301/165 225/300/164
f 214/313/174 215/314/175 227/302/166 226/301/165
f 215/314/175 216/315/167 228/303/167 227/302/166
f 216/315/167 217/316/1 229/304/1 228/303/167
f 217/316/1 218/317/1 230/305/1 229/304/1
f 218/317/1 219/318/1 231/306/1 230/305/1
f 219/318/1 220/26/1 232/28/1 231/306/1
f 23/319/176 197/320/177 209/308/169 25/307/168
f 197/320/177 198/321/178 210/309/170 209/308/169
f 198/321/178 199/322/179 211/310/171 210/309/170
f 199/322/179 200/323/180 212/311/172 211/310/171
f 200/323/180 201/324/181 213/312/173 212/311/172
f 201/324/181 202/325/182 214/313/174 213/312/173
f 202/325/182 203/326/183 215/314/175 214/313/174
f 203/326/183 204/327/167 216/315/167 215/314/175
f 204/327/167 205/328/1 217/316/1 216/315/167
f 205/328/1 206/329/1 218/317/1 217/316/1
f 206/329/1 207/330/1 219/318/1 218/317/1
f 207/330/1 208/24/1 220/26/1 219/318/1
f 21/331/184 185/332/185 197/320/177 23/319/176
f 185/332/185 186/333/186 198/321/178 197/320/177
f 186/333/186 187/334/187 199/322/179 198/321/178
f 187/334/187 188/335/188 200/323/180 199/322/179
f 188/335/188 189/336/189 201/324/181 200/323/180
f 189/336/189 190/337/190 202/325/182 201/324/181
f 190/337/190 191/338/191 203/326/183 202/325/182
f 191/338/191 192/339/192 204/327/167 203/326/183
f 192/339/192 193/340/1 205/328/1 204/327/167
f 193/340/1 194/341/1 206/329/1 205/328/1
f 194/341/1 195/342/1 207/330/1 206/329/1
f 195/342/1 196/22/1 208/24/1 207/330/1
f 19/343/193 173/344/194 185/332/185 21/331/184
f 173/344/194 174/345/195 186/333/186 185/332/185
f 174/345/195 175/346/196 187/334/187 186/333/186
f 175/346/196 176/347/197 188/335/188 187/334/187
f 176/347/197 177/348/198 189/336/189 188/335/188
f 177/348/198 178/349/199 190/337/190 189/336/189
f 178/349/199 179/350/200 191/338/191 190/337/190
f 179/350/200 180/351/192 192/339/192 191/338/191
f 180/351/192 181/352/1 193/340/1 192/339/192
f 181/352/1 182/353/1 194/341/1 193/340/1
f 182/353/1 183/354/1 195/342/1 194/341/1
f 183/354/1 184/20/1 196/22/1 195/342/1
f 17/355/201 161/356/202 173/344/194 19/343/193
f 161/356/202 162/357/203 174/345/195 173/344/194
f 162/357/203 163/358/204 175/346/196 174/345/195
f 163/358/204 164/359/205 176/347/197 175/346/196
f 164/359/205 165/360/206 177/348/198 176/347/197
f 165/360/206 166/361/207 178/349/199 177/348/198
f 166/361/207 167/362/208 179/350/200 178/349/199
f 167/362/208 168/363/192 180/351/192 179/350/200
f 168/363/192 169/364/1 181/352/1 180/351/192
f 169/364/1 170/365/1 182/353/1 181/352/1
f 170/365/1 171/366/1 183/354/1 182/353/1
f 171/366/1 172/18/1 184/20/1 183/354/1
f 15/367/209 149/368/210 161/356/202 17/355/201
f 149/368/210 150/369/211 162/357/203 161/356/202
f 150/369/211 151/370/212 163/358/204 162/357/203
f 151/370/212 152/371/213 164/359/205 163/358/204
f 152/371/213 153/372/214 165/360/206 164/359/205
f 153/372/214 154/373/215 166/361/207 165/360/206
f 154/373/215 155/374/216 167/362/208 166/361/207
f 155/374/216 156/375/192 168/363/192 167/362/208
f 156/375/192 157/376/1 169/364/1 168/363/192
f 157/376/1 158/377/1 170/365/1 169/364/1
f 158/377/1 159/378/1 171/366/1 170/365/1
f 159/378/1 160/16/1 172/18/1 171/366/1
f 13/379/217 137/380/218 149/368/210 15/367/209
f 137/380/218 138/381/219 150/369/211 149/368/210
f 138/381/219 139/382/220 151/370/212 150/369/211
f 139/382/220 140/383/221 152/371/213 151/370/212
f 140/383/221 141/384/222 153/372/214 152/371/213
f 141/384/222 142/385/223 154/373/215 153/372/214
f 142/385/223 143/386/224 155/374/216 154/373/215
f 143/386/224 144/387/192 156/375/192 155/374/216
f 144/387/192 145/388/1 157/376/1 156/375/192
f 145/388/1 146/389/1 158/377/1 157/376/1
f 146/389/1 147/390/1 159/378/1 158/377/1
f 147/390/1 148/14/1 160/16/1 159/378/1
f 11/391/225 125/392/226 137/380/218 13/379/217
f 125/392/226 126/393/227 138/381/219 137/380/218
f 126/393/227 127/394/228 139/382/220 138/381/219
f 127/394/228 128/395/229 140/383/221 139/382/220
f 128/395/229 129/396/230 141/384/222 140/383/221
f 129/396/230 130/397/231 142/385/223 141/384/222
f 130/397/231 131/398/232 143/386/224 142/385/223
f 131/398/232 132/399/233 144/387/192 143/386/224
f 132/399/233 133/400/1 145/388/1 144/387/192
f 133/400/1 134/401/1 146/389/1 145/388/1
f 134/401/1 135/402/1 147/390/1 146/389/1
f 135/402/1 136/12/1 148/14/1 147/390/1
f 9/403/234 113/404/235 125/392/226 11/391/225
f 113/404/235 114/405/236 126/393/227 125/392/226
f 114/405/236 115/406/237 127/394/228 126/393/227
f 115/406/237 116/407/238 128/395/229 127/394/228
f 116/407/238 117/408/239 129/396/230 128/395/229
f 117/408/239 118/409/240 130/397/231 129/396/230
f 118/409/240 119/410/241 131/398/232 130/397/231
f 119/410/241 120/411/233 132/399/233 131/398/232
f 120/411/233 121/412/1 133/400/1 132/399/233
f 121/412/1 122/413/1 134/401/1 133/400/1
f 122/413/1 123/414/1 135/402/1 134/401/1
f 123/414/1 124/10/1 136/12/1 135/402/1
f 7/415/242 101/416/243 113/404/235 9/403/234
f 101/416/243 102/417/244 114/405/236 113/404/235
f 102/417/244 103/418/245 115/406/237 114/405/236
f 103/418/245 104/419/246 116/407/238 115/406/237
f 104/419/246 105/420/247 117/408/239 116/407/238
f 105/420/247 106/421/248 118/409/240 117/408/239
f 106/421/248 107/422/249 119/410/241 118/409/240
f 107/422/249 108/423/233 120/411/233 119/410/241
f 108/423/233 109/424/1 121/412/1 120/411/233
f 109/424/1 110/425/1 122/413/1 121/412/1
f 110/425/1 111/426/1 123/414/1 122/413/1
f 111/426/1 112/8/1 124/10/1 123/414/1
f 5/427/250 89/428/251 101/416/243 7/415/242
f 89/428/251 90/429/252 102/417/244 101/416/243
f 90/429/252 91/430/253 103/418/245 102/417/244
f 91/430/253 92/431/254 104/419/246 103/418/245
f 92/431/254 93/432/255 105/420/247 104/419/246
f 93/432/255 94/433/256 106/421/248 105/420/247
f 94/433/256 95/434/257 107/422/249 106/421/248
f 95/434/257 96/435/18 108/423/233 107/422/249
f 96/435/18 97/436/1 109/424/1 108/423/233
f 97/436/1 98/437/1 110/425/1 109/424/1
f 98/437/1 99/438/1 111/426/1 110/425/1
f 99/438/1 100/6/1 112/8/1 111/426/1
f 3/439/258 77/440/259 89/428/251 5/427/250
f 77/440/259 78/441/260 90/429/252 89/428/251
f 78/441/260 79/442/261 91/430/253 90/429/252
f 79/442/261 80/443/262 92/431/254 91/430/253
f 80/443/262 81/444/263 93/432/255 92/431/254
f 81/444/263 82/445/264 94/433/256 93/432/255
f 82/445/264 83/446/265 95/434/257 94/433/256
f 83/446/265 84/447/18 96/435/18 95/434/257
f 84/447/18 85/448/1 97/436/1 96/435/18
f 85/448/1 86/449/1 98/437/1 97/436/1
f 86/449/1 87/450/1 99/438/1 98/437/1
f 87/450/1 88/4/1 100/6/1 99/438/1
f 1/451/5 65/452/4 77/440/259 3/439/258
f 65/452/4 66/453/7 78/441/260 77/440/259
f 66/453/7 67/454/9 79/442/261 78/441/260
f 67/454/9 68/455/11 80/443/262 79/442/261
f 68/455/11 69/456/13 81/444/263 80/443/262
f 69/456/13 70/457/15 82/445/264 81/444/263
f 70/457/15 71/458/17 83/446/265 82/445/264
f 71/458/17 72/459/18 84/447/18 83/446/265
f 72/459/18 73/460/1 85/448/1 84/447/18
f 73/460/1 74/461/1 86/449/1 85/448/1
f 74/461/1 75/462/1 87/450/1 86/449/1
f 75/462/1 76/1/1 88/4/1 87/450/1
