# Blender 4.2.1 LTS
# www.blender.org
# mtllib sm_sphere_rotated45.mtl
o Sphere
v -0.501383 0.007980 0.865189
v -0.335013 0.360876 0.870365
v -0.117641 0.658831 0.743036
v 0.000000 0.772502 0.635012
v 0.117641 0.856486 0.502586
v 0.335013 0.923748 0.185622
v -0.561059 -0.363600 0.743645
v -0.497549 -0.206656 0.842459
v -0.414919 -0.041770 0.908899
v -0.316344 0.124722 0.940410
v -0.205611 0.286420 0.935782
v -0.086977 0.437112 0.895192
v 0.034999 0.571005 0.820200
v 0.155630 0.682955 0.713689
v 0.270281 0.768660 0.579750
v 0.374545 0.824825 0.423533
v 0.464415 0.849293 0.251039
v 0.536438 0.841123 0.068898
v 0.587846 0.800629 -0.115891
v 0.616664 0.729367 -0.296226
v 0.621783 0.630076 -0.465177
v -0.531864 -0.386190 0.753643
v -0.440281 -0.250968 0.862072
v -0.331778 -0.106100 0.937372
v -0.210525 0.042844 0.976649
v -0.081182 0.190142 0.978394
v 0.051281 0.330133 0.942540
v 0.181773 0.457437 0.870465
v 0.305280 0.567163 0.764938
v 0.417055 0.655092 0.630015
v 0.512803 0.717847 0.470881
v 0.588844 0.753015 0.293652
v 0.642256 0.759245 0.105137
v 0.670987 0.736298 -0.087418
v 0.673932 0.685055 -0.276613
v 0.650978 0.607486 -0.455179
v -0.504957 -0.413032 0.757906
v -0.387502 -0.303620 0.870435
v -0.255155 -0.182540 0.949513
v -0.113003 -0.054445 0.992102
v 0.033492 0.075742 0.996565
v 0.178700 0.203018 0.962730
v 0.317041 0.322493 0.891899
v 0.443198 0.429574 0.786792
v 0.552323 0.520148 0.651449
v 0.640223 0.590732 0.491071
v 0.703519 0.638614 0.311822
v 0.739779 0.661955 0.120590
v 0.747610 0.659858 -0.075277
v 0.726711 0.632402 -0.268251
v 0.677885 0.580644 -0.450916
v -0.481374 -0.443095 0.756271
v -0.341241 -0.362591 0.867227
v -0.187994 -0.268152 0.944856
v -0.027523 -0.163408 0.986175
v 0.134005 -0.052385 0.989595
v 0.290385 0.060652 0.954986
v 0.435604 0.171357 0.883677
v 0.564084 0.275478 0.778409
v 0.670886 0.369012 0.643227
v 0.751907 0.448365 0.483327
v 0.804032 0.510488 0.304852
v 0.825259 0.552993 0.114662
v 0.814771 0.574246 -0.079934
v 0.772972 0.573432 -0.271458
v 0.701468 0.550581 -0.452551
v -0.462019 -0.475223 0.748800
v -0.303275 -0.425612 0.852572
v -0.132877 -0.359645 0.923579
v 0.042628 -0.279856 0.959095
v 0.216494 -0.189314 0.957753
v 0.382041 -0.091495 0.919605
v 0.532907 0.009839 0.846117
v 0.663293 0.110795 0.740113
v 0.768189 0.207493 0.605667
v 0.843563 0.296218 0.447946
v 0.886521 0.373559 0.273010
v 0.895410 0.436544 0.087583
v 0.869888 0.482753 -0.101210
v 0.810938 0.510411 -0.286114
v 0.720823 0.518453 -0.460022
v -0.603008 -0.506572 0.616252
v -0.447637 -0.508182 0.735780
v -0.275064 -0.490263 0.827032
v -0.091921 -0.453503 0.886502
v 0.094755 -0.399316 0.911904
v 0.277789 -0.329783 0.902262
v 0.450148 -0.247576 0.857946
v 0.605209 -0.155856 0.780661
v 0.737011 -0.058146 0.673374
v 0.840491 0.041799 0.540211
v 0.911671 0.140137 0.386287
v 0.947816 0.233090 0.217519
v 0.947537 0.317085 0.040392
v 0.910844 0.388895 -0.138288
v 0.839148 0.445760 -0.311653
v 0.735205 0.485494 -0.473042
v -0.438781 -0.540705 0.717711
v -0.257692 -0.554059 0.791589
v -0.066701 -0.546120 0.835047
v 0.126854 -0.517195 0.846414
v 0.315534 -0.468394 0.825254
v 0.492089 -0.401593 0.772380
v 0.649732 -0.319359 0.689824
v 0.782407 -0.224852 0.580758
v 0.885014 -0.121704 0.449375
v 0.953611 -0.013879 0.300721
v 0.985561 0.094479 0.140512
v 0.979636 0.199206 -0.025098
v 0.936065 0.296278 -0.189743
v 0.856521 0.381964 -0.347096
v 0.744061 0.452972 -0.491111
v -0.435791 -0.571542 0.695289
v -0.251826 -0.614547 0.747606
v -0.058185 -0.633937 0.771193
v 0.137693 -0.628964 0.765144
v 0.328279 -0.599820 0.729690
v 0.506250 -0.547626 0.666195
v 0.664766 -0.474387 0.577099
v 0.797735 -0.382917 0.465824
v 0.900048 -0.276732 0.336649
v 0.967772 -0.159913 0.194536
v 0.998306 -0.036948 0.044948
v 0.990475 0.087437 -0.106368
v 0.944580 0.208462 -0.253597
v 0.862387 0.321475 -0.391079
v 0.747051 0.422135 -0.513533
v -0.438781 -0.599508 0.669374
v -0.257692 -0.669405 0.696772
v -0.066701 -0.713578 0.697394
v 0.126854 -0.730328 0.671215
v 0.315534 -0.719012 0.619242
v 0.492089 -0.680064 0.543471
v 0.649732 -0.614982 0.446815
v 0.782407 -0.526267 0.332989
v 0.885014 -0.417328 0.206366
v 0.953611 -0.292351 0.071812
v 0.985561 -0.156139 -0.065501
v 0.979636 -0.013927 -0.200297
v 0.936065 0.128821 -0.327396
v 0.856521 0.266618 -0.441913
v 0.744061 0.394169 -0.539448
v -0.447637 -0.623528 0.640962
v -0.275064 -0.716523 0.641041
v -0.091921 -0.781983 0.616485
v 0.094755 -0.817391 0.568237
v 0.277789 -0.821387 0.498153
v 0.450149 -0.793818 0.408925
v 0.605209 -0.735742 0.303982
v 0.737011 -0.649393 0.187357
v 0.840491 -0.538088 0.063532
v 0.911671 -0.406104 -0.062734
v 0.947815 -0.258514 -0.186590
v 0.947537 -0.100990 -0.303275
v 0.910844 0.060416 -0.408305
v 0.839148 0.219499 -0.497644
v 0.735205 0.370148 -0.567859
v -0.462019 -0.642681 0.611146
v -0.303275 -0.754091 0.582555
v -0.132877 -0.836523 0.531576
v 0.042628 -0.886807 0.460169
v 0.216494 -0.903012 0.371078
v 0.382041 -0.884515 0.267726
v 0.532907 -0.832026 0.154086
v 0.663292 -0.747563 0.034525
v 0.768188 -0.634372 -0.086363
v 0.843563 -0.496801 -0.203933
v 0.886521 -0.340140 -0.313665
v 0.895409 -0.170407 -0.411343
v 0.869888 0.005875 -0.493214
v 0.810938 0.181931 -0.556131
v 0.720823 0.350996 -0.597676
v -0.481374 -0.656228 0.581071
v -0.341241 -0.780665 0.523561
v -0.187994 -0.875103 0.445930
v -0.027523 -0.935910 0.351162
v 0.134005 -0.960751 0.242899
v 0.290385 -0.948670 0.125302
v 0.435604 -0.900133 0.002890
v 0.564084 -0.817005 -0.119634
v 0.670886 -0.702479 -0.237560
v 0.751907 -0.560957 -0.346357
v 0.804032 -0.397878 -0.441843
v 0.825258 -0.219509 -0.520350
v 0.814771 -0.032704 -0.578860
v 0.772972 0.155357 -0.615125
v 0.701468 0.337449 -0.627750
v -0.504958 -0.663650 0.551894
v -0.387502 -0.795225 0.466326
v -0.255155 -0.896239 0.362838
v -0.113003 -0.962811 0.245406
v 0.033492 -0.992384 0.118544
v 0.178700 -0.983819 -0.012874
v 0.317041 -0.937447 -0.143798
v 0.443198 -0.855049 -0.269195
v 0.552323 -0.739792 -0.384248
v 0.640223 -0.596106 -0.484533
v 0.703519 -0.429511 -0.566199
v 0.739779 -0.246411 -0.626106
v 0.747610 -0.053841 -0.661952
v 0.726711 0.140798 -0.672359
v 0.677885 0.330026 -0.656928
v -0.531864 -0.664662 0.524734
v -0.440281 -0.797209 0.413050
v -0.331778 -0.899120 0.285493
v -0.210525 -0.966478 0.146965
v -0.081182 -0.996695 0.002789
v 0.051281 -0.988610 -0.141493
v 0.181773 -0.942533 -0.280339
v 0.305280 -0.860234 -0.408412
v 0.417055 -0.744878 -0.520789
v 0.512803 -0.600896 -0.613153
v 0.588844 -0.433823 -0.681953
v 0.642256 -0.250077 -0.724547
v 0.670987 -0.056722 -0.739296
v 0.673932 0.138814 -0.725635
v 0.650978 0.329015 -0.684088
v -0.561059 -0.659224 0.500636
v -0.497549 -0.786542 0.365781
v -0.414919 -0.883634 0.216869
v -0.316344 -0.946769 0.059623
v -0.205611 -0.973520 -0.099915
v -0.086977 -0.962859 -0.255612
v 0.034999 -0.915195 -0.401487
v 0.155630 -0.832361 -0.531933
v 0.270281 -0.717541 -0.641937
v 0.374545 -0.575145 -0.727271
v 0.464415 -0.410647 -0.784657
v 0.536438 -0.230368 -0.811889
v 0.587846 -0.041236 -0.807921
v 0.616664 0.149480 -0.772905
v 0.621783 0.334453 -0.708186
v -0.591421 -0.647546 0.480526
v -0.557107 -0.763635 0.326334
v -0.501383 -0.850378 0.159601
v -0.426391 -0.904442 -0.013266
v -0.335013 -0.923748 -0.185622
v -0.230761 -0.907555 -0.350845
v -0.117641 -0.856485 -0.502586
v -0.000000 -0.772501 -0.635012
v 0.117641 -0.658831 -0.743035
v 0.230761 -0.519842 -0.822504
v 0.335013 -0.360875 -0.870365
v 0.426391 -0.188041 -0.884778
v 0.501383 -0.007980 -0.865189
v 0.557106 0.172388 -0.812351
v 0.591421 0.346131 -0.728296
v -0.621783 -0.630076 0.465177
v -0.616664 -0.729367 0.296226
v -0.587846 -0.800628 0.115891
v -0.536438 -0.841122 -0.068898
v -0.464415 -0.849292 -0.251039
v -0.374545 -0.824825 -0.423533
v -0.270281 -0.768659 -0.579750
v -0.155631 -0.682954 -0.713688
v -0.034999 -0.571005 -0.820200
v 0.086977 -0.437111 -0.895192
v 0.205611 -0.286420 -0.935782
v 0.316344 -0.124722 -0.940410
v 0.414919 0.041770 -0.908899
v 0.497549 0.206656 -0.842460
v 0.561059 0.363600 -0.743645
v -0.650978 -0.607486 0.455179
v -0.673932 -0.685055 0.276613
v -0.670987 -0.736297 0.087418
v -0.642256 -0.759245 -0.105137
v -0.588844 -0.753014 -0.293651
v -0.512803 -0.717846 -0.470881
v -0.417055 -0.655092 -0.630015
v -0.305280 -0.567162 -0.764938
v -0.181773 -0.457437 -0.870465
v -0.051281 -0.330133 -0.942540
v 0.081182 -0.190142 -0.978394
v 0.210525 -0.042844 -0.976649
v 0.331778 0.106101 -0.937372
v 0.440281 0.250968 -0.862072
v 0.531864 0.386190 -0.753643
v -0.677885 -0.580644 0.450916
v -0.726711 -0.632402 0.268250
v -0.747610 -0.659858 0.075277
v -0.739779 -0.661955 -0.120590
v -0.703519 -0.638614 -0.311822
v -0.640222 -0.590732 -0.491071
v -0.552323 -0.520147 -0.651449
v -0.443198 -0.429574 -0.786791
v -0.317041 -0.322493 -0.891898
v -0.178700 -0.203018 -0.962730
v -0.033492 -0.075742 -0.996565
v 0.113003 0.054446 -0.992102
v 0.255155 0.182541 -0.949513
v 0.387502 0.303620 -0.870435
v 0.504957 0.413032 -0.757906
v -0.701468 -0.550581 0.452551
v -0.772972 -0.573432 0.271458
v -0.814771 -0.574246 0.079934
v -0.825258 -0.552993 -0.114662
v -0.804032 -0.510488 -0.304852
v -0.751907 -0.448365 -0.483327
v -0.670886 -0.369012 -0.643227
v -0.564084 -0.275477 -0.778409
v -0.435604 -0.171357 -0.883677
v -0.290384 -0.060652 -0.954986
v -0.134005 0.052385 -0.989595
v 0.027523 0.163408 -0.986174
v 0.187994 0.268152 -0.944856
v 0.341241 0.362591 -0.867227
v 0.481374 0.443095 -0.756271
v 0.603008 0.506572 -0.616252
v -0.720823 -0.518453 0.460022
v -0.810938 -0.510411 0.286114
v -0.869888 -0.482753 0.101210
v -0.895409 -0.436544 -0.087583
v -0.886521 -0.373559 -0.273010
v -0.843563 -0.296218 -0.447946
v -0.768188 -0.207493 -0.605667
v -0.663292 -0.110794 -0.740112
v -0.532906 -0.009838 -0.846116
v -0.382041 0.091496 -0.919605
v -0.216494 0.189314 -0.957752
v -0.042628 0.279857 -0.959095
v 0.132877 0.359645 -0.923579
v 0.303275 0.425612 -0.852572
v 0.462019 0.475223 -0.748800
v -0.735205 -0.485494 0.473042
v -0.839148 -0.445760 0.311653
v -0.910844 -0.388895 0.138288
v -0.947536 -0.317085 -0.040392
v -0.947815 -0.233090 -0.217519
v -0.911670 -0.140137 -0.386287
v -0.840491 -0.041799 -0.540211
v -0.737011 0.058146 -0.673374
v -0.605209 0.155856 -0.780660
v -0.450148 0.247576 -0.857946
v -0.277789 0.329783 -0.902261
v -0.094755 0.399316 -0.911904
v 0.091921 0.453503 -0.886501
v 0.275065 0.490263 -0.827032
v 0.447637 0.508182 -0.735780
v -0.744061 -0.452972 0.491111
v -0.856521 -0.381964 0.347096
v -0.936064 -0.296278 0.189743
v -0.979636 -0.199206 0.025098
v -0.985560 -0.094479 -0.140512
v -0.953611 0.013879 -0.300721
v -0.885014 0.121704 -0.449374
v -0.782406 0.224852 -0.580758
v -0.649732 0.319359 -0.689824
v -0.492088 0.401593 -0.772380
v -0.315534 0.468394 -0.825254
v -0.126854 0.517195 -0.846414
v 0.066701 0.546120 -0.835047
v 0.257692 0.554058 -0.791589
v 0.438781 0.540705 -0.717711
v -0.747051 -0.422135 0.513533
v -0.862386 -0.321475 0.391079
v -0.944580 -0.208462 0.253597
v -0.990475 -0.087437 0.106368
v -0.998305 0.036948 -0.044947
v -0.967772 0.159913 -0.194536
v -0.900048 0.276733 -0.336649
v -0.797734 0.382917 -0.465824
v -0.664766 0.474387 -0.577098
v -0.506250 0.547626 -0.666195
v -0.328279 0.599820 -0.729690
v -0.137693 0.628964 -0.765144
v 0.058185 0.633936 -0.771193
v 0.251827 0.614547 -0.747606
v 0.435791 0.571542 -0.695289
v -0.744061 -0.394169 0.539448
v -0.856521 -0.266618 0.441913
v -0.936064 -0.128821 0.327396
v -0.979636 0.013927 0.200297
v -0.985560 0.156139 0.065501
v -0.953611 0.292351 -0.071812
v -0.885014 0.417328 -0.206366
v -0.782406 0.526267 -0.332989
v -0.649732 0.614982 -0.446815
v -0.492088 0.680064 -0.543471
v -0.315534 0.719011 -0.619241
v -0.126854 0.730328 -0.671215
v 0.066701 0.713577 -0.697393
v 0.257692 0.669405 -0.696772
v 0.438781 0.599508 -0.669374
v -0.735205 -0.370148 0.567859
v -0.839148 -0.219499 0.497644
v -0.910844 -0.060416 0.408305
v -0.947536 0.100990 0.303275
v -0.947815 0.258514 0.186590
v -0.911670 0.406104 0.062734
v -0.840490 0.538088 -0.063532
v -0.737010 0.649393 -0.187357
v -0.605208 0.735742 -0.303982
v -0.450148 0.793818 -0.408925
v -0.277789 0.821387 -0.498153
v -0.094755 0.817391 -0.568237
v 0.091922 0.781982 -0.616485
v 0.275065 0.716523 -0.641041
v 0.447637 0.623528 -0.640962
v -0.720823 -0.350996 0.597675
v -0.810937 -0.181931 0.556131
v -0.869888 -0.005876 0.493214
v -0.895409 0.170407 0.411343
v -0.886520 0.340140 0.313665
v -0.843563 0.496801 0.203933
v -0.768188 0.634372 0.086363
v -0.663292 0.747563 -0.034525
v -0.532906 0.832026 -0.154086
v -0.382041 0.884515 -0.267726
v -0.216494 0.903012 -0.371078
v -0.042628 0.886807 -0.460169
v 0.132877 0.836523 -0.531576
v 0.303276 0.754091 -0.582555
v 0.462019 0.642680 -0.611146
v -0.701468 -0.337449 0.627750
v -0.772972 -0.155357 0.615125
v -0.814770 0.032704 0.578860
v -0.825258 0.219509 0.520350
v -0.804031 0.397878 0.441843
v -0.751906 0.560957 0.346357
v -0.670886 0.702479 0.237560
v -0.564083 0.817004 0.119634
v -0.435604 0.900133 -0.002890
v -0.290384 0.948670 -0.125302
v -0.134005 0.960750 -0.242899
v 0.027523 0.935910 -0.351162
v 0.187995 0.875102 -0.445930
v 0.341241 0.780665 -0.523561
v 0.481374 0.656228 -0.581072
v -0.677885 -0.330026 0.656928
v -0.726711 -0.140798 0.672359
v -0.747610 0.053840 0.661952
v -0.739779 0.246411 0.626106
v -0.703518 0.429511 0.566199
v -0.640222 0.596106 0.484533
v -0.552323 0.739792 0.384248
v -0.443197 0.855049 0.269195
v -0.317041 0.937447 0.143798
v -0.178700 0.983819 0.012874
v -0.033492 0.992383 -0.118544
v 0.113003 0.962811 -0.245406
v 0.255155 0.896239 -0.362838
v 0.387502 0.795224 -0.466326
v 0.504958 0.663650 -0.551894
v -0.650978 -0.329015 0.684088
v -0.673932 -0.138814 0.725635
v -0.670987 0.056721 0.739296
v -0.642256 0.250077 0.724546
v -0.588844 0.433822 0.681953
v -0.512803 0.600896 0.613152
v -0.417055 0.744878 0.520789
v -0.305279 0.860234 0.408411
v -0.181773 0.942532 0.280339
v -0.051281 0.988610 0.141493
v 0.081182 0.996695 -0.002790
v 0.210525 0.966478 -0.146965
v 0.331778 0.899119 -0.285494
v 0.440281 0.797209 -0.413050
v 0.531864 0.664662 -0.524734
v -0.621783 -0.334453 0.708186
v -0.616664 -0.149480 0.772905
v -0.587846 0.041236 0.807921
v -0.536438 0.230368 0.811889
v -0.464415 0.410647 0.784657
v -0.374545 0.575145 0.727271
v -0.270281 0.717541 0.641937
v -0.155630 0.832361 0.531932
v -0.034999 0.915195 0.401487
v 0.086977 0.962859 0.255612
v 0.205611 0.973519 0.099914
v 0.316344 0.946769 -0.059623
v 0.414919 0.883634 -0.216869
v 0.497549 0.786542 -0.365781
v 0.561059 0.659224 -0.500636
v -0.591421 -0.346131 0.728296
v -0.557106 -0.172388 0.812351
v -0.426391 0.188041 0.884777
v -0.230761 0.519842 0.822504
v 0.230761 0.907555 0.350845
v 0.426391 0.904442 0.013266
v 0.501383 0.850378 -0.159601
v 0.557107 0.763635 -0.326334
v 0.591421 0.647546 -0.480526
vn -0.4997 0.0127 0.8661
vn -0.3333 0.3637 0.8698
vn -0.1169 0.6596 0.7425
vn -0.0000 0.7725 0.6350
vn 0.1169 0.8561 0.5034
vn 0.3333 0.9238 0.1885
vn -0.5594 -0.3590 0.7471
vn -0.4954 -0.2020 0.8448
vn -0.4126 -0.0375 0.9102
vn -0.3140 0.1283 0.9407
vn -0.2036 0.2891 0.9354
vn -0.0855 0.4388 0.8945
vn 0.0357 0.5717 0.8197
vn 0.1556 0.6830 0.7137
vn 0.2696 0.7682 0.5806
vn 0.3734 0.8243 0.4255
vn 0.4630 0.8491 0.2541
vn 0.5351 0.8417 0.0729
vn 0.5868 0.8021 -0.1112
vn 0.6162 0.7318 -0.2912
vn 0.6220 0.6335 -0.4603
vn -0.5294 -0.3823 0.7574
vn -0.4374 -0.2469 0.8647
vn -0.3288 -0.1023 0.9388
vn -0.2078 0.0461 0.9771
vn -0.0789 0.1926 0.9781
vn 0.0528 0.3317 0.9419
vn 0.1825 0.4582 0.8699
vn 0.3053 0.5672 0.7649
vn 0.4164 0.6546 0.6309
vn 0.5118 0.7173 0.4729
vn 0.5877 0.7527 0.2968
vn 0.6413 0.7594 0.1093
vn 0.6706 0.7373 -0.0825
vn 0.6742 0.6869 -0.2713
vn 0.6521 0.6102 -0.4500
vn -0.5016 -0.4099 0.7618
vn -0.3839 -0.3003 0.8732
vn -0.2516 -0.1793 0.9511
vn -0.1098 -0.0516 0.9926
vn 0.0360 0.0780 0.9963
vn 0.1804 0.2045 0.9621
vn 0.3178 0.3232 0.8914
vn 0.4432 0.4296 0.7868
vn 0.5517 0.5197 0.6523
vn 0.6393 0.5900 0.4931
vn 0.7027 0.6380 0.3150
vn 0.7393 0.6617 0.1249
vn 0.7478 0.6602 -0.0702
vn 0.7277 0.6335 -0.2628
vn 0.6798 0.5826 -0.4456
vn -0.4773 -0.4409 0.7601
vn -0.3370 -0.3601 0.8699
vn -0.1839 -0.2656 0.9464
vn -0.0240 -0.1610 0.9867
vn 0.1368 -0.0504 0.9893
vn 0.2922 0.0620 0.9544
vn 0.4364 0.1720 0.8831
vn 0.5641 0.2755 0.7784
vn 0.6703 0.3685 0.6441
vn 0.7511 0.4475 0.4853
vn 0.8034 0.5096 0.3080
vn 0.8251 0.5523 0.1189
vn 0.8154 0.5740 -0.0749
vn 0.7746 0.5738 -0.2661
vn 0.7041 0.5516 -0.4472
vn -0.4574 -0.4740 0.7524
vn -0.2985 -0.4239 0.8551
vn -0.1284 -0.3577 0.9249
vn 0.0465 -0.2780 0.9595
vn 0.2194 -0.1877 0.9574
vn 0.3839 -0.0903 0.9189
vn 0.5338 0.0105 0.8456
vn 0.6633 0.1108 0.7401
vn 0.7676 0.2069 0.6066
vn 0.8429 0.2952 0.4499
vn 0.8861 0.3723 0.2761
vn 0.8956 0.4353 0.0917
vn 0.8710 0.4818 -0.0964
vn 0.8131 0.5099 -0.2809
vn 0.7240 0.5185 -0.4549
vn -0.6030 -0.5066 0.6163
vn -0.4426 -0.5079 0.7390
vn -0.2699 -0.4895 0.8292
vn -0.0871 -0.4523 0.8876
vn 0.0988 -0.3979 0.9121
vn 0.2809 -0.3285 0.9018
vn 0.4521 -0.2465 0.8572
vn 0.6061 -0.1553 0.7801
vn 0.7370 -0.0581 0.6734
vn 0.8400 0.0412 0.5411
vn 0.9110 0.1390 0.3882
vn 0.9475 0.2316 0.2205
vn 0.9479 0.3154 0.0443
vn 0.9122 0.3872 -0.1337
vn 0.8417 0.4444 -0.3068
vn 0.7388 0.4846 -0.4684
vn -0.4335 -0.5414 0.7204
vn -0.2523 -0.5541 0.7933
vn -0.0617 -0.5456 0.8357
vn 0.1311 -0.5163 0.8463
vn 0.3187 -0.4674 0.8246
vn 0.4941 -0.4007 0.7716
vn 0.6506 -0.3188 0.6892
vn 0.7824 -0.2249 0.5808
vn 0.8845 -0.1223 0.4502
vn 0.9530 -0.0152 0.3026
vn 0.9853 0.0926 0.1433
vn 0.9802 0.1970 -0.0215
vn 0.9377 0.2939 -0.1856
vn 0.8593 0.3797 -0.3427
vn 0.7479 0.4510 -0.4870
vn -0.4304 -0.5732 0.6973
vn -0.2464 -0.6154 0.7487
vn -0.0531 -0.6341 0.7714
vn 0.1419 -0.6286 0.7647
vn 0.3315 -0.5991 0.7288
vn 0.5082 -0.5469 0.6653
vn 0.6656 -0.4739 0.5765
vn 0.7977 -0.3829 0.4658
vn 0.8995 -0.2774 0.3375
vn 0.9672 -0.1613 0.1963
vn 0.9981 -0.0391 0.0475
vn 0.9911 0.0847 -0.1031
vn 0.9462 0.2054 -0.2499
vn 0.8652 0.3184 -0.3873
vn 0.7510 0.4193 -0.5101
vn -0.4335 -0.6020 0.6706
vn -0.2523 -0.6710 0.6972
vn -0.0617 -0.7144 0.6971
vn 0.1311 -0.7304 0.6703
vn 0.3187 -0.7186 0.6181
vn 0.4941 -0.6794 0.5424
vn 0.6506 -0.6145 0.4462
vn 0.7824 -0.5263 0.3330
vn 0.8845 -0.4180 0.2072
vn 0.9530 -0.2939 0.0734
vn 0.9853 -0.1585 -0.0631
vn 0.9802 -0.0171 -0.1974
vn 0.9377 0.1252 -0.3243
vn 0.8593 0.2628 -0.4388
vn 0.7479 0.3905 -0.5368
vn -0.4426 -0.6267 0.6413
vn -0.2699 -0.7188 0.6407
vn -0.0871 -0.7833 0.6155
vn 0.0988 -0.8178 0.5669
vn 0.2809 -0.8212 0.4968
vn 0.4521 -0.7933 0.4078
vn 0.6061 -0.7353 0.3033
vn 0.7370 -0.6494 0.1874
vn 0.8400 -0.5388 0.0643
vn 0.9110 -0.4078 -0.0612
vn 0.9475 -0.2611 -0.1845
vn 0.9479 -0.1045 -0.3008
vn 0.9122 0.0563 -0.4058
vn 0.8417 0.2150 -0.4953
vn 0.7388 0.3657 -0.5660
vn -0.4574 -0.6465 0.6106
vn -0.2985 -0.7569 0.5814
vn -0.1284 -0.8382 0.5300
vn 0.0465 -0.8875 0.4584
vn 0.2194 -0.9030 0.3694
vn 0.3839 -0.8841 0.2664
vn 0.5338 -0.8316 0.1534
vn 0.6633 -0.7476 0.0345
vn 0.7676 -0.6351 -0.0856
vn 0.8429 -0.4985 -0.2026
vn 0.8861 -0.3430 -0.3119
vn 0.8956 -0.1742 -0.4094
vn 0.8710 0.0013 -0.4913
vn 0.8131 0.1769 -0.5546
vn 0.7240 0.3460 -0.5967
vn -0.4773 -0.6604 0.5796
vn -0.3370 -0.7838 0.5216
vn -0.1839 -0.8771 0.4437
vn -0.0240 -0.9368 0.3489
vn 0.1368 -0.9609 0.2409
vn 0.2922 -0.9483 0.1239
vn 0.4364 -0.8997 0.0021
vn 0.5641 -0.8170 -0.1196
vn 0.6703 -0.7033 -0.2369
vn 0.7511 -0.5628 -0.3451
vn 0.8034 -0.4008 -0.4403
vn 0.8251 -0.2235 -0.5188
vn 0.8154 -0.0376 -0.5776
vn 0.7746 0.1500 -0.6144
vn 0.7041 0.3320 -0.6277
vn -0.5016 -0.6681 0.5496
vn -0.3839 -0.7986 0.4636
vn -0.2516 -0.8984 0.3600
vn -0.1098 -0.9639 0.2427
vn 0.0360 -0.9926 0.1163
vn 0.1804 -0.9835 -0.0144
vn 0.3178 -0.9371 -0.1446
vn 0.4432 -0.8550 -0.2692
vn 0.5517 -0.7406 -0.3836
vn 0.6393 -0.5979 -0.4835
vn 0.7027 -0.4325 -0.5650
vn 0.7393 -0.2505 -0.6250
vn 0.7478 -0.0589 -0.6613
vn 0.7277 0.1353 -0.6724
vn 0.6798 0.3244 -0.6578
vn -0.5294 -0.6691 0.5216
vn -0.4374 -0.8006 0.4096
vn -0.3288 -0.9013 0.2820
vn -0.2078 -0.9675 0.1438
vn -0.0789 -0.9969 0.0003
vn 0.0528 -0.9883 -0.1432
vn 0.1825 -0.9421 -0.2811
vn 0.3053 -0.8602 -0.4084
vn 0.4164 -0.7457 -0.5202
vn 0.5118 -0.6027 -0.6122
vn 0.5877 -0.4369 -0.6810
vn 0.6413 -0.2542 -0.7239
vn 0.6706 -0.0618 -0.7393
vn 0.6742 0.1332 -0.7264
vn 0.6521 0.3234 -0.6858
vn -0.5594 -0.6635 0.4968
vn -0.4954 -0.7898 0.3617
vn -0.4126 -0.8857 0.2129
vn -0.3140 -0.9478 0.0561
vn -0.2036 -0.9737 -0.1026
vn -0.0855 -0.9625 -0.2574
vn 0.0357 -0.9148 -0.4023
vn 0.1556 -0.8324 -0.5319
vn 0.2696 -0.7183 -0.6413
vn 0.3734 -0.5770 -0.7264
vn 0.4630 -0.4136 -0.7839
vn 0.5351 -0.2344 -0.8116
vn 0.5868 -0.0462 -0.8084
vn 0.6162 0.1441 -0.7743
vn 0.6220 0.3290 -0.7106
vn -0.5907 -0.6515 0.4761
vn -0.5558 -0.7666 0.3217
vn -0.4997 -0.8522 0.1552
vn -0.4246 -0.9052 -0.0171
vn -0.3333 -0.9238 -0.1885
vn -0.2295 -0.9072 -0.3527
vn -0.1169 -0.8561 -0.5034
vn -0.0000 -0.7725 -0.6350
vn 0.1169 -0.6596 -0.7425
vn 0.2295 -0.5216 -0.8217
vn 0.3333 -0.3637 -0.8698
vn 0.4246 -0.1919 -0.8848
vn 0.4997 -0.0127 -0.8661
vn 0.5558 0.1673 -0.8143
vn 0.5907 0.3410 -0.7313
vn -0.6220 -0.6335 0.4603
vn -0.6162 -0.7318 0.2912
vn -0.5868 -0.8021 0.1112
vn -0.5351 -0.8417 -0.0729
vn -0.4630 -0.8491 -0.2541
vn -0.3734 -0.8243 -0.4255
vn -0.2696 -0.7682 -0.5806
vn -0.1556 -0.6830 -0.7137
vn -0.0357 -0.5717 -0.8196
vn 0.0855 -0.4388 -0.8945
vn 0.2036 -0.2891 -0.9354
vn 0.3140 -0.1283 -0.9407
vn 0.4126 0.0375 -0.9102
vn 0.4954 0.2020 -0.8448
vn 0.5594 0.3590 -0.7471
vn -0.6521 -0.6102 0.4500
vn -0.6742 -0.6869 0.2713
vn -0.6706 -0.7373 0.0825
vn -0.6413 -0.7594 -0.1093
vn -0.5877 -0.7527 -0.2968
vn -0.5118 -0.7173 -0.4729
vn -0.4164 -0.6546 -0.6309
vn -0.3053 -0.5672 -0.7649
vn -0.1825 -0.4582 -0.8699
vn -0.0528 -0.3317 -0.9419
vn 0.0789 -0.1926 -0.9781
vn 0.2078 -0.0461 -0.9771
vn 0.3288 0.1023 -0.9388
vn 0.4374 0.2469 -0.8647
vn 0.5294 0.3823 -0.7574
vn -0.6798 -0.5826 0.4456
vn -0.7277 -0.6335 0.2628
vn -0.7478 -0.6602 0.0702
vn -0.7393 -0.6617 -0.1249
vn -0.7027 -0.6380 -0.3150
vn -0.6393 -0.5900 -0.4931
vn -0.5517 -0.5197 -0.6523
vn -0.4432 -0.4296 -0.7868
vn -0.3178 -0.3232 -0.8914
vn -0.1804 -0.2045 -0.9621
vn -0.0360 -0.0780 -0.9963
vn 0.1098 0.0516 -0.9926
vn 0.2516 0.1793 -0.9511
vn 0.3839 0.3003 -0.8732
vn 0.5016 0.4099 -0.7618
vn -0.7041 -0.5516 0.4472
vn -0.7746 -0.5738 0.2661
vn -0.8154 -0.5740 0.0749
vn -0.8251 -0.5523 -0.1189
vn -0.8034 -0.5096 -0.3080
vn -0.7511 -0.4475 -0.4853
vn -0.6703 -0.3685 -0.6441
vn -0.5641 -0.2755 -0.7784
vn -0.4364 -0.1720 -0.8831
vn -0.2922 -0.0620 -0.9544
vn -0.1368 0.0504 -0.9893
vn 0.0240 0.1610 -0.9867
vn 0.1839 0.2656 -0.9464
vn 0.3370 0.3601 -0.8699
vn 0.4773 0.4409 -0.7601
vn 0.6030 0.5066 -0.6163
vn -0.7240 -0.5185 0.4549
vn -0.8131 -0.5099 0.2809
vn -0.8710 -0.4818 0.0964
vn -0.8956 -0.4353 -0.0917
vn -0.8861 -0.3723 -0.2761
vn -0.8429 -0.2952 -0.4499
vn -0.7676 -0.2069 -0.6066
vn -0.6633 -0.1108 -0.7401
vn -0.5338 -0.0105 -0.8456
vn -0.3839 0.0903 -0.9189
vn -0.2194 0.1877 -0.9574
vn -0.0465 0.2780 -0.9595
vn 0.1284 0.3577 -0.9250
vn 0.2985 0.4239 -0.8551
vn 0.4574 0.4740 -0.7524
vn -0.7388 -0.4846 0.4684
vn -0.8417 -0.4444 0.3068
vn -0.9122 -0.3872 0.1337
vn -0.9479 -0.3154 -0.0443
vn -0.9475 -0.2316 -0.2205
vn -0.9110 -0.1390 -0.3882
vn -0.8400 -0.0412 -0.5411
vn -0.7370 0.0581 -0.6734
vn -0.6061 0.1553 -0.7801
vn -0.4521 0.2465 -0.8572
vn -0.2809 0.3285 -0.9018
vn -0.0988 0.3979 -0.9121
vn 0.0871 0.4523 -0.8876
vn 0.2699 0.4895 -0.8292
vn 0.4426 0.5079 -0.7390
vn -0.7479 -0.4510 0.4870
vn -0.8593 -0.3797 0.3427
vn -0.9377 -0.2939 0.1856
vn -0.9802 -0.1970 0.0215
vn -0.9853 -0.0926 -0.1433
vn -0.9530 0.0152 -0.3026
vn -0.8845 0.1223 -0.4502
vn -0.7824 0.2249 -0.5808
vn -0.6506 0.3188 -0.6892
vn -0.4941 0.4007 -0.7716
vn -0.3187 0.4674 -0.8246
vn -0.1311 0.5163 -0.8463
vn 0.0617 0.5456 -0.8357
vn 0.2523 0.5541 -0.7933
vn 0.4335 0.5414 -0.7204
vn -0.7510 -0.4193 0.5101
vn -0.8652 -0.3184 0.3873
vn -0.9462 -0.2054 0.2499
vn -0.9911 -0.0847 0.1031
vn -0.9981 0.0391 -0.0475
vn -0.9672 0.1613 -0.1963
vn -0.8995 0.2774 -0.3375
vn -0.7977 0.3829 -0.4658
vn -0.6656 0.4739 -0.5765
vn -0.5082 0.5469 -0.6653
vn -0.3315 0.5991 -0.7288
vn -0.1419 0.6286 -0.7647
vn 0.0531 0.6341 -0.7714
vn 0.2464 0.6154 -0.7487
vn 0.4304 0.5732 -0.6973
vn -0.7479 -0.3905 0.5368
vn -0.8593 -0.2628 0.4388
vn -0.9377 -0.1252 0.3243
vn -0.9802 0.0171 0.1974
vn -0.9853 0.1585 0.0631
vn -0.9530 0.2939 -0.0734
vn -0.8845 0.4180 -0.2072
vn -0.7824 0.5263 -0.3330
vn -0.6506 0.6145 -0.4462
vn -0.4941 0.6794 -0.5424
vn -0.3187 0.7186 -0.6181
vn -0.1311 0.7304 -0.6703
vn 0.0617 0.7144 -0.6971
vn 0.2523 0.6710 -0.6972
vn 0.4335 0.6020 -0.6706
vn -0.7388 -0.3657 0.5660
vn -0.8417 -0.2150 0.4953
vn -0.9122 -0.0563 0.4058
vn -0.9479 0.1045 0.3008
vn -0.9475 0.2612 0.1845
vn -0.9110 0.4078 0.0612
vn -0.8400 0.5388 -0.0643
vn -0.7370 0.6494 -0.1874
vn -0.6061 0.7353 -0.3033
vn -0.4521 0.7933 -0.4078
vn -0.2809 0.8212 -0.4968
vn -0.0988 0.8178 -0.5669
vn 0.0871 0.7833 -0.6155
vn 0.2699 0.7188 -0.6407
vn 0.4426 0.6267 -0.6413
vn -0.7240 -0.3460 0.5967
vn -0.8131 -0.1769 0.5546
vn -0.8710 -0.0013 0.4913
vn -0.8956 0.1742 0.4094
vn -0.8861 0.3430 0.3119
vn -0.8429 0.4985 0.2026
vn -0.7676 0.6351 0.0856
vn -0.6633 0.7476 -0.0345
vn -0.5338 0.8316 -0.1534
vn -0.3839 0.8841 -0.2664
vn -0.2194 0.9030 -0.3694
vn -0.0465 0.8875 -0.4584
vn 0.1284 0.8382 -0.5300
vn 0.2985 0.7569 -0.5814
vn 0.4574 0.6465 -0.6106
vn -0.7041 -0.3320 0.6277
vn -0.7746 -0.1500 0.6144
vn -0.8154 0.0376 0.5776
vn -0.8251 0.2235 0.5188
vn -0.8034 0.4008 0.4403
vn -0.7511 0.5628 0.3451
vn -0.6703 0.7033 0.2369
vn -0.5641 0.8170 0.1196
vn -0.4364 0.8997 -0.0021
vn -0.2922 0.9483 -0.1239
vn -0.1368 0.9609 -0.2409
vn 0.0240 0.9368 -0.3489
vn 0.1839 0.8771 -0.4437
vn 0.3370 0.7838 -0.5216
vn 0.4773 0.6604 -0.5796
vn -0.6798 -0.3244 0.6578
vn -0.7277 -0.1353 0.6724
vn -0.7478 0.0589 0.6613
vn -0.7393 0.2505 0.6250
vn -0.7027 0.4325 0.5650
vn -0.6393 0.5979 0.4835
vn -0.5517 0.7406 0.3836
vn -0.4432 0.8550 0.2692
vn -0.3178 0.9371 0.1446
vn -0.1804 0.9835 0.0144
vn -0.0360 0.9926 -0.1163
vn 0.1098 0.9639 -0.2427
vn 0.2516 0.8984 -0.3600
vn 0.3839 0.7986 -0.4636
vn 0.5016 0.6681 -0.5496
vn -0.6521 -0.3234 0.6858
vn -0.6742 -0.1332 0.7264
vn -0.6706 0.0618 0.7393
vn -0.6413 0.2542 0.7239
vn -0.5877 0.4369 0.6810
vn -0.5118 0.6027 0.6122
vn -0.4164 0.7457 0.5202
vn -0.3053 0.8602 0.4084
vn -0.1825 0.9421 0.2811
vn -0.0528 0.9883 0.1432
vn 0.0789 0.9969 -0.0003
vn 0.2078 0.9675 -0.1438
vn 0.3288 0.9013 -0.2820
vn 0.4374 0.8006 -0.4096
vn 0.5294 0.6691 -0.5216
vn -0.6220 -0.3290 0.7106
vn -0.6162 -0.1441 0.7743
vn -0.5868 0.0462 0.8084
vn -0.5351 0.2344 0.8116
vn -0.4630 0.4136 0.7839
vn -0.3734 0.5770 0.7264
vn -0.2696 0.7183 0.6413
vn -0.1556 0.8324 0.5319
vn -0.0357 0.9148 0.4023
vn 0.0855 0.9625 0.2574
vn 0.2036 0.9737 0.1026
vn 0.3140 0.9478 -0.0561
vn 0.4126 0.8857 -0.2129
vn 0.4954 0.7898 -0.3617
vn 0.5594 0.6635 -0.4968
vn -0.5907 -0.3410 0.7313
vn -0.5558 -0.1673 0.8143
vn -0.4246 0.1919 0.8848
vn -0.2295 0.5216 0.8217
vn 0.2295 0.9072 0.3527
vn 0.4246 0.9052 0.0171
vn 0.4997 0.8522 -0.1552
vn 0.5558 0.7666 -0.3217
vn 0.5907 0.6515 -0.4761
vt 0.750000 0.375000
vt 0.750000 0.437500
vt 0.718750 0.437500
vt 0.718750 0.375000
vt 0.750000 0.812500
vt 0.750000 0.875000
vt 0.718750 0.875000
vt 0.718750 0.812500
vt 0.750000 0.312500
vt 0.718750 0.312500
vt 0.750000 0.750000
vt 0.718750 0.750000
vt 0.750000 0.250000
vt 0.718750 0.250000
vt 0.750000 0.687500
vt 0.718750 0.687500
vt 0.750000 0.187500
vt 0.718750 0.187500
vt 0.750000 0.625000
vt 0.718750 0.625000
vt 0.750000 0.125000
vt 0.718750 0.125000
vt 0.750000 0.562500
vt 0.718750 0.562500
vt 0.750000 0.062500
vt 0.718750 0.062500
vt 0.750000 0.500000
vt 0.718750 0.500000
vt 0.750000 0.937500
vt 0.734375 1.000000
vt 0.718750 0.937500
vt 0.734375 0.000000
vt 0.687500 0.500000
vt 0.687500 0.437500
vt 0.687500 0.937500
vt 0.687500 0.875000
vt 0.687500 0.375000
vt 0.687500 0.812500
vt 0.687500 0.312500
vt 0.687500 0.750000
vt 0.687500 0.250000
vt 0.687500 0.687500
vt 0.687500 0.187500
vt 0.687500 0.625000
vt 0.687500 0.125000
vt 0.687500 0.562500
vt 0.687500 0.062500
vt 0.703125 1.000000
vt 0.703125 0.000000
vt 0.656250 0.250000
vt 0.656250 0.187500
vt 0.656250 0.687500
vt 0.656250 0.625000
vt 0.656250 0.125000
vt 0.656250 0.562500
vt 0.656250 0.062500
vt 0.656250 0.500000
vt 0.671875 1.000000
vt 0.656250 0.937500
vt 0.671875 0.000000
vt 0.656250 0.437500
vt 0.656250 0.875000
vt 0.656250 0.375000
vt 0.656250 0.812500
vt 0.656250 0.312500
vt 0.656250 0.750000
vt 0.625000 0.937500
vt 0.625000 0.875000
vt 0.625000 0.437500
vt 0.625000 0.375000
vt 0.625000 0.812500
vt 0.625000 0.312500
vt 0.625000 0.750000
vt 0.625000 0.250000
vt 0.625000 0.687500
vt 0.625000 0.187500
vt 0.625000 0.625000
vt 0.625000 0.125000
vt 0.625000 0.562500
vt 0.625000 0.062500
vt 0.625000 0.500000
vt 0.640625 1.000000
vt 0.640625 0.000000
vt 0.593750 0.687500
vt 0.593750 0.625000
vt 0.593750 0.187500
vt 0.593750 0.125000
vt 0.593750 0.562500
vt 0.593750 0.062500
vt 0.593750 0.500000
vt 0.609375 1.000000
vt 0.593750 0.937500
vt 0.609375 0.000000
vt 0.593750 0.437500
vt 0.593750 0.875000
vt 0.593750 0.375000
vt 0.593750 0.812500
vt 0.593750 0.312500
vt 0.593750 0.750000
vt 0.593750 0.250000
vt 0.562500 0.437500
vt 0.562500 0.375000
vt 0.562500 0.875000
vt 0.562500 0.812500
vt 0.562500 0.312500
vt 0.562500 0.750000
vt 0.562500 0.250000
vt 0.562500 0.687500
vt 0.562500 0.187500
vt 0.562500 0.625000
vt 0.562500 0.125000
vt 0.562500 0.562500
vt 0.562500 0.062500
vt 0.562500 0.500000
vt 0.578125 1.000000
vt 0.562500 0.937500
vt 0.578125 0.000000
vt 0.531250 0.187500
vt 0.531250 0.125000
vt 0.531250 0.625000
vt 0.531250 0.562500
vt 0.531250 0.062500
vt 0.531250 0.500000
vt 0.546875 1.000000
vt 0.531250 0.937500
vt 0.546875 0.000000
vt 0.531250 0.437500
vt 0.531250 0.875000
vt 0.531250 0.375000
vt 0.531250 0.812500
vt 0.531250 0.312500
vt 0.531250 0.750000
vt 0.531250 0.250000
vt 0.531250 0.687500
vt 0.500000 0.375000
vt 0.500000 0.312500
vt 0.500000 0.812500
vt 0.500000 0.750000
vt 0.500000 0.250000
vt 0.500000 0.687500
vt 0.500000 0.187500
vt 0.500000 0.625000
vt 0.500000 0.125000
vt 0.500000 0.562500
vt 0.500000 0.062500
vt 0.500000 0.500000
vt 0.515625 1.000000
vt 0.500000 0.937500
vt 0.515625 0.000000
vt 0.500000 0.437500
vt 0.500000 0.875000
vt 0.468750 0.125000
vt 0.468750 0.062500
vt 0.468750 0.562500
vt 0.468750 0.500000
vt 0.484375 1.000000
vt 0.468750 0.937500
vt 0.484375 0.000000
vt 0.468750 0.437500
vt 0.468750 0.875000
vt 0.468750 0.375000
vt 0.468750 0.812500
vt 0.468750 0.312500
vt 0.468750 0.750000
vt 0.468750 0.250000
vt 0.468750 0.687500
vt 0.468750 0.187500
vt 0.468750 0.625000
vt 0.437500 0.812500
vt 0.437500 0.750000
vt 0.437500 0.312500
vt 0.437500 0.250000
vt 0.437500 0.687500
vt 0.437500 0.187500
vt 0.437500 0.625000
vt 0.437500 0.125000
vt 0.437500 0.562500
vt 0.437500 0.062500
vt 0.437500 0.500000
vt 0.453125 1.000000
vt 0.437500 0.937500
vt 0.453125 0.000000
vt 0.437500 0.437500
vt 0.437500 0.875000
vt 0.437500 0.375000
vt 0.406250 0.562500
vt 0.406250 0.500000
vt 0.421875 1.000000
vt 0.406250 0.937500
vt 0.421875 0.000000
vt 0.406250 0.062500
vt 0.406250 0.437500
vt 0.406250 0.875000
vt 0.406250 0.375000
vt 0.406250 0.812500
vt 0.406250 0.312500
vt 0.406250 0.750000
vt 0.406250 0.250000
vt 0.406250 0.687500
vt 0.406250 0.187500
vt 0.406250 0.625000
vt 0.406250 0.125000
vt 0.375000 0.312500
vt 0.375000 0.250000
vt 0.375000 0.750000
vt 0.375000 0.687500
vt 0.375000 0.187500
vt 0.375000 0.625000
vt 0.375000 0.125000
vt 0.375000 0.562500
vt 0.375000 0.062500
vt 0.375000 0.500000
vt 0.390625 1.000000
vt 0.375000 0.937500
vt 0.390625 0.000000
vt 0.375000 0.437500
vt 0.375000 0.875000
vt 0.375000 0.375000
vt 0.375000 0.812500
vt 0.359375 1.000000
vt 0.343750 0.937500
vt 0.359375 0.000000
vt 0.343750 0.062500
vt 0.343750 0.500000
vt 0.343750 0.437500
vt 0.343750 0.875000
vt 0.343750 0.375000
vt 0.343750 0.812500
vt 0.343750 0.312500
vt 0.343750 0.750000
vt 0.343750 0.250000
vt 0.343750 0.687500
vt 0.343750 0.187500
vt 0.343750 0.625000
vt 0.343750 0.125000
vt 0.343750 0.562500
vt 0.312500 0.750000
vt 0.312500 0.687500
vt 0.312500 0.250000
vt 0.312500 0.187500
vt 0.312500 0.625000
vt 0.312500 0.125000
vt 0.312500 0.562500
vt 0.312500 0.062500
vt 0.312500 0.500000
vt 0.328125 1.000000
vt 0.312500 0.937500
vt 0.328125 0.000000
vt 0.312500 0.437500
vt 0.312500 0.875000
vt 0.312500 0.375000
vt 0.312500 0.812500
vt 0.312500 0.312500
vt 0.281250 0.500000
vt 0.281250 0.437500
vt 0.281250 0.937500
vt 0.281250 0.875000
vt 0.281250 0.375000
vt 0.281250 0.812500
vt 0.281250 0.312500
vt 0.281250 0.750000
vt 0.281250 0.250000
vt 0.281250 0.687500
vt 0.281250 0.187500
vt 0.281250 0.625000
vt 0.281250 0.125000
vt 0.281250 0.562500
vt 0.281250 0.062500
vt 0.296875 1.000000
vt 0.296875 0.000000
vt 0.250000 0.250000
vt 0.250000 0.187500
vt 0.250000 0.687500
vt 0.250000 0.625000
vt 0.250000 0.125000
vt 0.250000 0.562500
vt 0.250000 0.062500
vt 0.250000 0.500000
vt 0.265625 1.000000
vt 0.250000 0.937500
vt 0.265625 0.000000
vt 0.250000 0.437500
vt 0.250000 0.875000
vt 0.250000 0.375000
vt 0.250000 0.812500
vt 0.250000 0.312500
vt 0.250000 0.750000
vt 0.218750 0.437500
vt 0.218750 0.375000
vt 0.218750 0.875000
vt 0.218750 0.812500
vt 0.218750 0.312500
vt 0.218750 0.750000
vt 0.218750 0.250000
vt 0.218750 0.687500
vt 0.218750 0.187500
vt 0.218750 0.625000
vt 0.218750 0.125000
vt 0.218750 0.562500
vt 0.218750 0.062500
vt 0.218750 0.500000
vt 0.234375 1.000000
vt 0.218750 0.937500
vt 0.234375 0.000000
vt 0.187500 0.187500
vt 0.187500 0.125000
vt 0.187500 0.625000
vt 0.187500 0.562500
vt 0.187500 0.062500
vt 0.187500 0.500000
vt 0.203125 1.000000
vt 0.187500 0.937500
vt 0.203125 0.000000
vt 0.187500 0.437500
vt 0.187500 0.875000
vt 0.187500 0.375000
vt 0.187500 0.812500
vt 0.187500 0.312500
vt 0.187500 0.750000
vt 0.187500 0.250000
vt 0.187500 0.687500
vt 0.156250 0.875000
vt 0.156250 0.812500
vt 0.156250 0.375000
vt 0.156250 0.312500
vt 0.156250 0.750000
vt 0.156250 0.250000
vt 0.156250 0.687500
vt 0.156250 0.187500
vt 0.156250 0.625000
vt 0.156250 0.125000
vt 0.156250 0.562500
vt 0.156250 0.062500
vt 0.156250 0.500000
vt 0.171875 1.000000
vt 0.156250 0.937500
vt 0.171875 0.000000
vt 0.156250 0.437500
vt 0.125000 0.625000
vt 0.125000 0.562500
vt 0.125000 0.125000
vt 0.125000 0.062500
vt 0.125000 0.500000
vt 0.140625 1.000000
vt 0.125000 0.937500
vt 0.140625 0.000000
vt 0.125000 0.437500
vt 0.125000 0.875000
vt 0.125000 0.375000
vt 0.125000 0.812500
vt 0.125000 0.312500
vt 0.125000 0.750000
vt 0.125000 0.250000
vt 0.125000 0.687500
vt 0.125000 0.187500
vt 0.093750 0.375000
vt 0.093750 0.312500
vt 0.093750 0.812500
vt 0.093750 0.750000
vt 0.093750 0.250000
vt 0.093750 0.687500
vt 0.093750 0.187500
vt 0.093750 0.625000
vt 0.093750 0.125000
vt 0.093750 0.562500
vt 0.093750 0.062500
vt 0.093750 0.500000
vt 0.109375 1.000000
vt 0.093750 0.937500
vt 0.109375 0.000000
vt 0.093750 0.437500
vt 0.093750 0.875000
vt 0.062500 0.125000
vt 0.062500 0.062500
vt 0.062500 0.562500
vt 0.062500 0.500000
vt 0.078125 1.000000
vt 0.062500 0.937500
vt 0.078125 0.000000
vt 0.062500 0.437500
vt 0.062500 0.875000
vt 0.062500 0.375000
vt 0.062500 0.812500
vt 0.062500 0.312500
vt 0.062500 0.750000
vt 0.062500 0.250000
vt 0.062500 0.687500
vt 0.062500 0.187500
vt 0.062500 0.625000
vt 0.031250 0.812500
vt 0.031250 0.750000
vt 0.031250 0.312500
vt 0.031250 0.250000
vt 0.031250 0.687500
vt 0.031250 0.187500
vt 0.031250 0.625000
vt 0.031250 0.125000
vt 0.031250 0.562500
vt 0.031250 0.062500
vt 0.031250 0.500000
vt 0.046875 1.000000
vt 0.031250 0.937500
vt 0.046875 0.000000
vt 0.031250 0.437500
vt 0.031250 0.875000
vt 0.031250 0.375000
vt 0.000000 0.562500
vt 0.000000 0.500000
vt 0.015625 1.000000
vt 0.000000 0.937500
vt 0.015625 0.000000
vt 0.000000 0.062500
vt 0.000000 0.437500
vt 0.000000 0.875000
vt 0.000000 0.375000
vt 0.000000 0.812500
vt 0.000000 0.312500
vt 0.000000 0.750000
vt 0.000000 0.250000
vt 0.000000 0.687500
vt 0.000000 0.187500
vt 0.000000 0.625000
vt 0.000000 0.125000
vt 1.000000 0.250000
vt 1.000000 0.312500
vt 0.968750 0.312500
vt 0.968750 0.250000
vt 1.000000 0.687500
vt 1.000000 0.750000
vt 0.968750 0.750000
vt 0.968750 0.687500
vt 1.000000 0.187500
vt 0.968750 0.187500
vt 1.000000 0.625000
vt 0.968750 0.625000
vt 1.000000 0.125000
vt 0.968750 0.125000
vt 1.000000 0.562500
vt 0.968750 0.562500
vt 1.000000 0.062500
vt 0.968750 0.062500
vt 1.000000 0.500000
vt 0.968750 0.500000
vt 1.000000 0.937500
vt 0.984375 1.000000
vt 0.968750 0.937500
vt 0.984375 0.000000
vt 1.000000 0.437500
vt 0.968750 0.437500
vt 1.000000 0.875000
vt 0.968750 0.875000
vt 1.000000 0.375000
vt 0.968750 0.375000
vt 1.000000 0.812500
vt 0.968750 0.812500
vt 0.953125 0.000000
vt 0.937500 0.062500
vt 0.937500 0.500000
vt 0.937500 0.437500
vt 0.937500 0.937500
vt 0.937500 0.875000
vt 0.937500 0.375000
vt 0.937500 0.812500
vt 0.937500 0.312500
vt 0.937500 0.750000
vt 0.937500 0.250000
vt 0.937500 0.687500
vt 0.937500 0.187500
vt 0.937500 0.625000
vt 0.937500 0.125000
vt 0.937500 0.562500
vt 0.953125 1.000000
vt 0.906250 0.250000
vt 0.906250 0.187500
vt 0.906250 0.687500
vt 0.906250 0.625000
vt 0.906250 0.125000
vt 0.906250 0.562500
vt 0.906250 0.062500
vt 0.906250 0.500000
vt 0.921875 1.000000
vt 0.906250 0.937500
vt 0.921875 0.000000
vt 0.906250 0.437500
vt 0.906250 0.875000
vt 0.906250 0.375000
vt 0.906250 0.812500
vt 0.906250 0.312500
vt 0.906250 0.750000
vt 0.875000 0.937500
vt 0.875000 0.875000
vt 0.875000 0.437500
vt 0.875000 0.375000
vt 0.875000 0.812500
vt 0.875000 0.312500
vt 0.875000 0.750000
vt 0.875000 0.250000
vt 0.875000 0.687500
vt 0.875000 0.187500
vt 0.875000 0.625000
vt 0.875000 0.125000
vt 0.875000 0.562500
vt 0.875000 0.062500
vt 0.875000 0.500000
vt 0.890625 1.000000
vt 0.890625 0.000000
vt 0.843750 0.687500
vt 0.843750 0.625000
vt 0.843750 0.187500
vt 0.843750 0.125000
vt 0.843750 0.562500
vt 0.843750 0.062500
vt 0.843750 0.500000
vt 0.859375 1.000000
vt 0.843750 0.937500
vt 0.859375 0.000000
vt 0.843750 0.437500
vt 0.843750 0.875000
vt 0.843750 0.375000
vt 0.843750 0.812500
vt 0.843750 0.312500
vt 0.843750 0.750000
vt 0.843750 0.250000
vt 0.812500 0.437500
vt 0.812500 0.375000
vt 0.812500 0.875000
vt 0.812500 0.812500
vt 0.812500 0.312500
vt 0.812500 0.750000
vt 0.812500 0.250000
vt 0.812500 0.687500
vt 0.812500 0.187500
vt 0.812500 0.625000
vt 0.812500 0.125000
vt 0.812500 0.562500
vt 0.812500 0.062500
vt 0.812500 0.500000
vt 0.828125 1.000000
vt 0.812500 0.937500
vt 0.828125 0.000000
vt 0.781250 0.187500
vt 0.781250 0.125000
vt 0.781250 0.625000
vt 0.781250 0.562500
vt 0.781250 0.062500
vt 0.781250 0.500000
vt 0.796875 1.000000
vt 0.781250 0.937500
vt 0.796875 0.000000
vt 0.781250 0.437500
vt 0.781250 0.875000
vt 0.781250 0.375000
vt 0.781250 0.812500
vt 0.781250 0.312500
vt 0.781250 0.750000
vt 0.781250 0.250000
vt 0.781250 0.687500
vt 0.765625 1.000000
vt 0.765625 0.000000
s 1
f 478/1/478 5/2/5 15/3/15 16/4/16
f 1/5/1 475/6/475 8/7/8 9/8/9
f 6/9/6 478/1/478 16/4/16 17/10/17
f 476/11/476 1/5/1 9/8/9 10/12/10
f 479/13/479 6/9/6 17/10/17 18/14/18
f 2/15/2 476/11/476 10/12/10 11/16/11
f 480/17/480 479/13/479 18/14/18 19/18/19
f 477/19/477 2/15/2 11/16/11 12/20/12
f 481/21/481 480/17/480 19/18/19 20/22/20
f 3/23/3 477/19/477 12/20/12 13/24/13
f 482/25/482 481/21/481 20/22/20 21/26/21
f 4/27/4 3/23/3 13/24/13 14/28/14
f 474/29/474 82/30/82 7/31/7
f 308/32/308 482/25/482 21/26/21
f 5/2/5 4/27/4 14/28/14 15/3/15
f 475/6/475 474/29/474 7/31/7 8/7/8
f 15/3/15 14/28/14 29/33/29 30/34/30
f 8/7/8 7/31/7 22/35/22 23/36/23
f 16/4/16 15/3/15 30/34/30 31/37/31
f 9/8/9 8/7/8 23/36/23 24/38/24
f 17/10/17 16/4/16 31/37/31 32/39/32
f 10/12/10 9/8/9 24/38/24 25/40/25
f 18/14/18 17/10/17 32/39/32 33/41/33
f 11/16/11 10/12/10 25/40/25 26/42/26
f 19/18/19 18/14/18 33/41/33 34/43/34
f 12/20/12 11/16/11 26/42/26 27/44/27
f 20/22/20 19/18/19 34/43/34 35/45/35
f 13/24/13 12/20/12 27/44/27 28/46/28
f 21/26/21 20/22/20 35/45/35 36/47/36
f 14/28/14 13/24/13 28/46/28 29/33/29
f 7/31/7 82/48/82 22/35/22
f 308/49/308 21/26/21 36/47/36
f 34/43/34 33/41/33 48/50/48 49/51/49
f 27/44/27 26/42/26 41/52/41 42/53/42
f 35/45/35 34/43/34 49/51/49 50/54/50
f 28/46/28 27/44/27 42/53/42 43/55/43
f 36/47/36 35/45/35 50/54/50 51/56/51
f 29/33/29 28/46/28 43/55/43 44/57/44
f 22/35/22 82/58/82 37/59/37
f 308/60/308 36/47/36 51/56/51
f 30/34/30 29/33/29 44/57/44 45/61/45
f 23/36/23 22/35/22 37/59/37 38/62/38
f 31/37/31 30/34/30 45/61/45 46/63/46
f 24/38/24 23/36/23 38/62/38 39/64/39
f 32/39/32 31/37/31 46/63/46 47/65/47
f 25/40/25 24/38/24 39/64/39 40/66/40
f 33/41/33 32/39/32 47/65/47 48/50/48
f 26/42/26 25/40/25 40/66/40 41/52/41
f 38/62/38 37/59/37 52/67/52 53/68/53
f 46/63/46 45/61/45 60/69/60 61/70/61
f 39/64/39 38/62/38 53/68/53 54/71/54
f 47/65/47 46/63/46 61/70/61 62/72/62
f 40/66/40 39/64/39 54/71/54 55/73/55
f 48/50/48 47/65/47 62/72/62 63/74/63
f 41/52/41 40/66/40 55/73/55 56/75/56
f 49/51/49 48/50/48 63/74/63 64/76/64
f 42/53/42 41/52/41 56/75/56 57/77/57
f 50/54/50 49/51/49 64/76/64 65/78/65
f 43/55/43 42/53/42 57/77/57 58/79/58
f 51/56/51 50/54/50 65/78/65 66/80/66
f 44/57/44 43/55/43 58/79/58 59/81/59
f 37/59/37 82/82/82 52/67/52
f 308/83/308 51/56/51 66/80/66
f 45/61/45 44/57/44 59/81/59 60/69/60
f 57/77/57 56/75/56 71/84/71 72/85/72
f 65/78/65 64/76/64 79/86/79 80/87/80
f 58/79/58 57/77/57 72/85/72 73/88/73
f 66/80/66 65/78/65 80/87/80 81/89/81
f 59/81/59 58/79/58 73/88/73 74/90/74
f 52/67/52 82/91/82 67/92/67
f 308/93/308 66/80/66 81/89/81
f 60/69/60 59/81/59 74/90/74 75/94/75
f 53/68/53 52/67/52 67/92/67 68/95/68
f 61/70/61 60/69/60 75/94/75 76/96/76
f 54/71/54 53/68/53 68/95/68 69/97/69
f 62/72/62 61/70/61 76/96/76 77/98/77
f 55/73/55 54/71/54 69/97/69 70/99/70
f 63/74/63 62/72/62 77/98/77 78/100/78
f 56/75/56 55/73/55 70/99/70 71/84/71
f 64/76/64 63/74/63 78/100/78 79/86/79
f 76/96/76 75/94/75 91/101/91 92/102/92
f 69/97/69 68/95/68 84/103/84 85/104/85
f 77/98/77 76/96/76 92/102/92 93/105/93
f 70/99/70 69/97/69 85/104/85 86/106/86
f 78/100/78 77/98/77 93/105/93 94/107/94
f 71/84/71 70/99/70 86/106/86 87/108/87
f 79/86/79 78/100/78 94/107/94 95/109/95
f 72/85/72 71/84/71 87/108/87 88/110/88
f 80/87/80 79/86/79 95/109/95 96/111/96
f 73/88/73 72/85/72 88/110/88 89/112/89
f 81/89/81 80/87/80 96/111/96 97/113/97
f 74/90/74 73/88/73 89/112/89 90/114/90
f 67/92/67 82/115/82 83/116/83
f 308/117/308 81/89/81 97/113/97
f 75/94/75 74/90/74 90/114/90 91/101/91
f 68/95/68 67/92/67 83/116/83 84/103/84
f 96/111/96 95/109/95 110/118/110 111/119/111
f 89/112/89 88/110/88 103/120/103 104/121/104
f 97/113/97 96/111/96 111/119/111 112/122/112
f 90/114/90 89/112/89 104/121/104 105/123/105
f 83/116/83 82/124/82 98/125/98
f 308/126/308 97/113/97 112/122/112
f 91/101/91 90/114/90 105/123/105 106/127/106
f 84/103/84 83/116/83 98/125/98 99/128/99
f 92/102/92 91/101/91 106/127/106 107/129/107
f 85/104/85 84/103/84 99/128/99 100/130/100
f 93/105/93 92/102/92 107/129/107 108/131/108
f 86/106/86 85/104/85 100/130/100 101/132/101
f 94/107/94 93/105/93 108/131/108 109/133/109
f 87/108/87 86/106/86 101/132/101 102/134/102
f 95/109/95 94/107/94 109/133/109 110/118/110
f 88/110/88 87/108/87 102/134/102 103/120/103
f 108/131/108 107/129/107 122/135/122 123/136/123
f 101/132/101 100/130/100 115/137/115 116/138/116
f 109/133/109 108/131/108 123/136/123 124/139/124
f 102/134/102 101/132/101 116/138/116 117/140/117
f 110/118/110 109/133/109 124/139/124 125/141/125
f 103/120/103 102/134/102 117/140/117 118/142/118
f 111/119/111 110/118/110 125/141/125 126/143/126
f 104/121/104 103/120/103 118/142/118 119/144/119
f 112/122/112 111/119/111 126/143/126 127/145/127
f 105/123/105 104/121/104 119/144/119 120/146/120
f 98/125/98 82/147/82 113/148/113
f 308/149/308 112/122/112 127/145/127
f 106/127/106 105/123/105 120/146/120 121/150/121
f 99/128/99 98/125/98 113/148/113 114/151/114
f 107/129/107 106/127/106 121/150/121 122/135/122
f 100/130/100 99/128/99 114/151/114 115/137/115
f 127/145/127 126/143/126 141/152/141 142/153/142
f 120/146/120 119/144/119 134/154/134 135/155/135
f 113/148/113 82/156/82 128/157/128
f 308/158/308 127/145/127 142/153/142
f 121/150/121 120/146/120 135/155/135 136/159/136
f 114/151/114 113/148/113 128/157/128 129/160/129
f 122/135/122 121/150/121 136/159/136 137/161/137
f 115/137/115 114/151/114 129/160/129 130/162/130
f 123/136/123 122/135/122 137/161/137 138/163/138
f 116/138/116 115/137/115 130/162/130 131/164/131
f 124/139/124 123/136/123 138/163/138 139/165/139
f 117/140/117 116/138/116 131/164/131 132/166/132
f 125/141/125 124/139/124 139/165/139 140/167/140
f 118/142/118 117/140/117 132/166/132 133/168/133
f 126/143/126 125/141/125 140/167/140 141/152/141
f 119/144/119 118/142/118 133/168/133 134/154/134
f 131/164/131 130/162/130 145/169/145 146/170/146
f 139/165/139 138/163/138 153/171/153 154/172/154
f 132/166/132 131/164/131 146/170/146 147/173/147
f 140/167/140 139/165/139 154/172/154 155/174/155
f 133/168/133 132/166/132 147/173/147 148/175/148
f 141/152/141 140/167/140 155/174/155 156/176/156
f 134/154/134 133/168/133 148/175/148 149/177/149
f 142/153/142 141/152/141 156/176/156 157/178/157
f 135/155/135 134/154/134 149/177/149 150/179/150
f 128/157/128 82/180/82 143/181/143
f 308/182/308 142/153/142 157/178/157
f 136/159/136 135/155/135 150/179/150 151/183/151
f 129/160/129 128/157/128 143/181/143 144/184/144
f 137/161/137 136/159/136 151/183/151 152/185/152
f 130/162/130 129/160/129 144/184/144 145/169/145
f 138/163/138 137/161/137 152/185/152 153/171/153
f 150/179/150 149/177/149 164/186/164 165/187/165
f 143/181/143 82/188/82 158/189/158
f 308/190/308 157/178/157 172/191/172
f 151/183/151 150/179/150 165/187/165 166/192/166
f 144/184/144 143/181/143 158/189/158 159/193/159
f 152/185/152 151/183/151 166/192/166 167/194/167
f 145/169/145 144/184/144 159/193/159 160/195/160
f 153/171/153 152/185/152 167/194/167 168/196/168
f 146/170/146 145/169/145 160/195/160 161/197/161
f 154/172/154 153/171/153 168/196/168 169/198/169
f 147/173/147 146/170/146 161/197/161 162/199/162
f 155/174/155 154/172/154 169/198/169 170/200/170
f 148/175/148 147/173/147 162/199/162 163/201/163
f 156/176/156 155/174/155 170/200/170 171/202/171
f 149/177/149 148/175/148 163/201/163 164/186/164
f 157/178/157 156/176/156 171/202/171 172/191/172
f 169/198/169 168/196/168 183/203/183 184/204/184
f 162/199/162 161/197/161 176/205/176 177/206/177
f 170/200/170 169/198/169 184/204/184 185/207/185
f 163/201/163 162/199/162 177/206/177 178/208/178
f 171/202/171 170/200/170 185/207/185 186/209/186
f 164/186/164 163/201/163 178/208/178 179/210/179
f 172/191/172 171/202/171 186/209/186 187/211/187
f 165/187/165 164/186/164 179/210/179 180/212/180
f 158/189/158 82/213/82 173/214/173
f 308/215/308 172/191/172 187/211/187
f 166/192/166 165/187/165 180/212/180 181/216/181
f 159/193/159 158/189/158 173/214/173 174/217/174
f 167/194/167 166/192/166 181/216/181 182/218/182
f 160/195/160 159/193/159 174/217/174 175/219/175
f 168/196/168 167/194/167 182/218/182 183/203/183
f 161/197/161 160/195/160 175/219/175 176/205/176
f 173/214/173 82/220/82 188/221/188
f 308/222/308 187/211/187 202/223/202
f 181/216/181 180/212/180 195/224/195 196/225/196
f 174/217/174 173/214/173 188/221/188 189/226/189
f 182/218/182 181/216/181 196/225/196 197/227/197
f 175/219/175 174/217/174 189/226/189 190/228/190
f 183/203/183 182/218/182 197/227/197 198/229/198
f 176/205/176 175/219/175 190/228/190 191/230/191
f 184/204/184 183/203/183 198/229/198 199/231/199
f 177/206/177 176/205/176 191/230/191 192/232/192
f 185/207/185 184/204/184 199/231/199 200/233/200
f 178/208/178 177/206/177 192/232/192 193/234/193
f 186/209/186 185/207/185 200/233/200 201/235/201
f 179/210/179 178/208/178 193/234/193 194/236/194
f 187/211/187 186/209/186 201/235/201 202/223/202
f 180/212/180 179/210/179 194/236/194 195/224/195
f 192/232/192 191/230/191 206/237/206 207/238/207
f 200/233/200 199/231/199 214/239/214 215/240/215
f 193/234/193 192/232/192 207/238/207 208/241/208
f 201/235/201 200/233/200 215/240/215 216/242/216
f 194/236/194 193/234/193 208/241/208 209/243/209
f 202/223/202 201/235/201 216/242/216 217/244/217
f 195/224/195 194/236/194 209/243/209 210/245/210
f 188/221/188 82/246/82 203/247/203
f 308/248/308 202/223/202 217/244/217
f 196/225/196 195/224/195 210/245/210 211/249/211
f 189/226/189 188/221/188 203/247/203 204/250/204
f 197/227/197 196/225/196 211/249/211 212/251/212
f 190/228/190 189/226/189 204/250/204 205/252/205
f 198/229/198 197/227/197 212/251/212 213/253/213
f 191/230/191 190/228/190 205/252/205 206/237/206
f 199/231/199 198/229/198 213/253/213 214/239/214
f 211/249/211 210/245/210 225/254/225 226/255/226
f 204/250/204 203/247/203 218/256/218 219/257/219
f 212/251/212 211/249/211 226/255/226 227/258/227
f 205/252/205 204/250/204 219/257/219 220/259/220
f 213/253/213 212/251/212 227/258/227 228/260/228
f 206/237/206 205/252/205 220/259/220 221/261/221
f 214/239/214 213/253/213 228/260/228 229/262/229
f 207/238/207 206/237/206 221/261/221 222/263/222
f 215/240/215 214/239/214 229/262/229 230/264/230
f 208/241/208 207/238/207 222/263/222 223/265/223
f 216/242/216 215/240/215 230/264/230 231/266/231
f 209/243/209 208/241/208 223/265/223 224/267/224
f 217/244/217 216/242/216 231/266/231 232/268/232
f 210/245/210 209/243/209 224/267/224 225/254/225
f 203/247/203 82/269/82 218/256/218
f 308/270/308 217/244/217 232/268/232
f 230/264/230 229/262/229 244/271/244 245/272/245
f 223/265/223 222/263/222 237/273/237 238/274/238
f 231/266/231 230/264/230 245/272/245 246/275/246
f 224/267/224 223/265/223 238/274/238 239/276/239
f 232/268/232 231/266/231 246/275/246 247/277/247
f 225/254/225 224/267/224 239/276/239 240/278/240
f 218/256/218 82/279/82 233/280/233
f 308/281/308 232/268/232 247/277/247
f 226/255/226 225/254/225 240/278/240 241/282/241
f 219/257/219 218/256/218 233/280/233 234/283/234
f 227/258/227 226/255/226 241/282/241 242/284/242
f 220/259/220 219/257/219 234/283/234 235/285/235
f 228/260/228 227/258/227 242/284/242 243/286/243
f 221/261/221 220/259/220 235/285/235 236/287/236
f 229/262/229 228/260/228 243/286/243 244/271/244
f 222/263/222 221/261/221 236/287/236 237/273/237
f 242/284/242 241/282/241 256/288/256 257/289/257
f 235/285/235 234/283/234 249/290/249 250/291/250
f 243/286/243 242/284/242 257/289/257 258/292/258
f 236/287/236 235/285/235 250/291/250 251/293/251
f 244/271/244 243/286/243 258/292/258 259/294/259
f 237/273/237 236/287/236 251/293/251 252/295/252
f 245/272/245 244/271/244 259/294/259 260/296/260
f 238/274/238 237/273/237 252/295/252 253/297/253
f 246/275/246 245/272/245 260/296/260 261/298/261
f 239/276/239 238/274/238 253/297/253 254/299/254
f 247/277/247 246/275/246 261/298/261 262/300/262
f 240/278/240 239/276/239 254/299/254 255/301/255
f 233/280/233 82/302/82 248/303/248
f 308/304/308 247/277/247 262/300/262
f 241/282/241 240/278/240 255/301/255 256/288/256
f 234/283/234 233/280/233 248/303/248 249/290/249
f 261/298/261 260/296/260 275/305/275 276/306/276
f 254/299/254 253/297/253 268/307/268 269/308/269
f 262/300/262 261/298/261 276/306/276 277/309/277
f 255/301/255 254/299/254 269/308/269 270/310/270
f 248/303/248 82/311/82 263/312/263
f 308/313/308 262/300/262 277/309/277
f 256/288/256 255/301/255 270/310/270 271/314/271
f 249/290/249 248/303/248 263/312/263 264/315/264
f 257/289/257 256/288/256 271/314/271 272/316/272
f 250/291/250 249/290/249 264/315/264 265/317/265
f 258/292/258 257/289/257 272/316/272 273/318/273
f 251/293/251 250/291/250 265/317/265 266/319/266
f 259/294/259 258/292/258 273/318/273 274/320/274
f 252/295/252 251/293/251 266/319/266 267/321/267
f 260/296/260 259/294/259 274/320/274 275/305/275
f 253/297/253 252/295/252 267/321/267 268/307/268
f 265/317/265 264/315/264 279/322/279 280/323/280
f 273/318/273 272/316/272 287/324/287 288/325/288
f 266/319/266 265/317/265 280/323/280 281/326/281
f 274/320/274 273/318/273 288/325/288 289/327/289
f 267/321/267 266/319/266 281/326/281 282/328/282
f 275/305/275 274/320/274 289/327/289 290/329/290
f 268/307/268 267/321/267 282/328/282 283/330/283
f 276/306/276 275/305/275 290/329/290 291/331/291
f 269/308/269 268/307/268 283/330/283 284/332/284
f 277/309/277 276/306/276 291/331/291 292/333/292
f 270/310/270 269/308/269 284/332/284 285/334/285
f 263/312/263 82/335/82 278/336/278
f 308/337/308 277/309/277 292/333/292
f 271/314/271 270/310/270 285/334/285 286/338/286
f 264/315/264 263/312/263 278/336/278 279/322/279
f 272/316/272 271/314/271 286/338/286 287/324/287
f 284/332/284 283/330/283 298/339/298 299/340/299
f 292/333/292 291/331/291 306/341/306 307/342/307
f 285/334/285 284/332/284 299/340/299 300/343/300
f 278/336/278 82/344/82 293/345/293
f 308/346/308 292/333/292 307/342/307
f 286/338/286 285/334/285 300/343/300 301/347/301
f 279/322/279 278/336/278 293/345/293 294/348/294
f 287/324/287 286/338/286 301/347/301 302/349/302
f 280/323/280 279/322/279 294/348/294 295/350/295
f 288/325/288 287/324/287 302/349/302 303/351/303
f 281/326/281 280/323/280 295/350/295 296/352/296
f 289/327/289 288/325/288 303/351/303 304/353/304
f 282/328/282 281/326/281 296/352/296 297/354/297
f 290/329/290 289/327/289 304/353/304 305/355/305
f 283/330/283 282/328/282 297/354/297 298/339/298
f 291/331/291 290/329/290 305/355/305 306/341/306
f 303/351/303 302/349/302 318/356/318 319/357/319
f 296/352/296 295/350/295 311/358/311 312/359/312
f 304/353/304 303/351/303 319/357/319 320/360/320
f 297/354/297 296/352/296 312/359/312 313/361/313
f 305/355/305 304/353/304 320/360/320 321/362/321
f 298/339/298 297/354/297 313/361/313 314/363/314
f 306/341/306 305/355/305 321/362/321 322/364/322
f 299/340/299 298/339/298 314/363/314 315/365/315
f 307/342/307 306/341/306 322/364/322 323/366/323
f 300/343/300 299/340/299 315/365/315 316/367/316
f 293/345/293 82/368/82 309/369/309
f 308/370/308 307/342/307 323/366/323
f 301/347/301 300/343/300 316/367/316 317/371/317
f 294/348/294 293/345/293 309/369/309 310/372/310
f 302/349/302 301/347/301 317/371/317 318/356/318
f 295/350/295 294/348/294 310/372/310 311/358/311
f 323/366/323 322/364/322 337/373/337 338/374/338
f 316/367/316 315/365/315 330/375/330 331/376/331
f 309/369/309 82/377/82 324/378/324
f 308/379/308 323/366/323 338/374/338
f 317/371/317 316/367/316 331/376/331 332/380/332
f 310/372/310 309/369/309 324/378/324 325/381/325
f 318/356/318 317/371/317 332/380/332 333/382/333
f 311/358/311 310/372/310 325/381/325 326/383/326
f 319/357/319 318/356/318 333/382/333 334/384/334
f 312/359/312 311/358/311 326/383/326 327/385/327
f 320/360/320 319/357/319 334/384/334 335/386/335
f 313/361/313 312/359/312 327/385/327 328/387/328
f 321/362/321 320/360/320 335/386/335 336/388/336
f 314/363/314 313/361/313 328/387/328 329/389/329
f 322/364/322 321/362/321 336/388/336 337/373/337
f 315/365/315 314/363/314 329/389/329 330/375/330
f 327/385/327 326/383/326 341/390/341 342/391/342
f 335/386/335 334/384/334 349/392/349 350/393/350
f 328/387/328 327/385/327 342/391/342 343/394/343
f 336/388/336 335/386/335 350/393/350 351/395/351
f 329/389/329 328/387/328 343/394/343 344/396/344
f 337/373/337 336/388/336 351/395/351 352/397/352
f 330/375/330 329/389/329 344/396/344 345/398/345
f 338/374/338 337/373/337 352/397/352 353/399/353
f 331/376/331 330/375/330 345/398/345 346/400/346
f 324/378/324 82/401/82 339/402/339
f 308/403/308 338/374/338 353/399/353
f 332/380/332 331/376/331 346/400/346 347/404/347
f 325/381/325 324/378/324 339/402/339 340/405/340
f 333/382/333 332/380/332 347/404/347 348/406/348
f 326/383/326 325/381/325 340/405/340 341/390/341
f 334/384/334 333/382/333 348/406/348 349/392/349
f 346/400/346 345/398/345 360/407/360 361/408/361
f 339/402/339 82/409/82 354/410/354
f 308/411/308 353/399/353 368/412/368
f 347/404/347 346/400/346 361/408/361 362/413/362
f 340/405/340 339/402/339 354/410/354 355/414/355
f 348/406/348 347/404/347 362/413/362 363/415/363
f 341/390/341 340/405/340 355/414/355 356/416/356
f 349/392/349 348/406/348 363/415/363 364/417/364
f 342/391/342 341/390/341 356/416/356 357/418/357
f 350/393/350 349/392/349 364/417/364 365/419/365
f 343/394/343 342/391/342 357/418/357 358/420/358
f 351/395/351 350/393/350 365/419/365 366/421/366
f 344/396/344 343/394/343 358/420/358 359/422/359
f 352/397/352 351/395/351 366/421/366 367/423/367
f 345/398/345 344/396/344 359/422/359 360/407/360
f 353/399/353 352/397/352 367/423/367 368/412/368
f 365/424/365 364/425/364 379/426/379 380/427/380
f 358/428/358 357/429/357 372/430/372 373/431/373
f 366/432/366 365/424/365 380/427/380 381/433/381
f 359/434/359 358/428/358 373/431/373 374/435/374
f 367/436/367 366/432/366 381/433/381 382/437/382
f 360/438/360 359/434/359 374/435/374 375/439/375
f 368/440/368 367/436/367 382/437/382 383/441/383
f 361/442/361 360/438/360 375/439/375 376/443/376
f 354/444/354 82/445/82 369/446/369
f 308/447/308 368/440/368 383/441/383
f 362/448/362 361/442/361 376/443/376 377/449/377
f 355/450/355 354/444/354 369/446/369 370/451/370
f 363/452/363 362/448/362 377/449/377 378/453/378
f 356/454/356 355/450/355 370/451/370 371/455/371
f 364/425/364 363/452/363 378/453/378 379/426/379
f 357/429/357 356/454/356 371/455/371 372/430/372
f 308/456/308 383/441/383 398/457/398
f 377/449/377 376/443/376 391/458/391 392/459/392
f 370/451/370 369/446/369 384/460/384 385/461/385
f 378/453/378 377/449/377 392/459/392 393/462/393
f 371/455/371 370/451/370 385/461/385 386/463/386
f 379/426/379 378/453/378 393/462/393 394/464/394
f 372/430/372 371/455/371 386/463/386 387/465/387
f 380/427/380 379/426/379 394/464/394 395/466/395
f 373/431/373 372/430/372 387/465/387 388/467/388
f 381/433/381 380/427/380 395/466/395 396/468/396
f 374/435/374 373/431/373 388/467/388 389/469/389
f 382/437/382 381/433/381 396/468/396 397/470/397
f 375/439/375 374/435/374 389/469/389 390/471/390
f 383/441/383 382/437/382 397/470/397 398/457/398
f 376/443/376 375/439/375 390/471/390 391/458/391
f 369/446/369 82/472/82 384/460/384
f 396/468/396 395/466/395 410/473/410 411/474/411
f 389/469/389 388/467/388 403/475/403 404/476/404
f 397/470/397 396/468/396 411/474/411 412/477/412
f 390/471/390 389/469/389 404/476/404 405/478/405
f 398/457/398 397/470/397 412/477/412 413/479/413
f 391/458/391 390/471/390 405/478/405 406/480/406
f 384/460/384 82/481/82 399/482/399
f 308/483/308 398/457/398 413/479/413
f 392/459/392 391/458/391 406/480/406 407/484/407
f 385/461/385 384/460/384 399/482/399 400/485/400
f 393/462/393 392/459/392 407/484/407 408/486/408
f 386/463/386 385/461/385 400/485/400 401/487/401
f 394/464/394 393/462/393 408/486/408 409/488/409
f 387/465/387 386/463/386 401/487/401 402/489/402
f 395/466/395 394/464/394 409/488/409 410/473/410
f 388/467/388 387/465/387 402/489/402 403/475/403
f 400/485/400 399/482/399 414/490/414 415/491/415
f 408/486/408 407/484/407 422/492/422 423/493/423
f 401/487/401 400/485/400 415/491/415 416/494/416
f 409/488/409 408/486/408 423/493/423 424/495/424
f 402/489/402 401/487/401 416/494/416 417/496/417
f 410/473/410 409/488/409 424/495/424 425/497/425
f 403/475/403 402/489/402 417/496/417 418/498/418
f 411/474/411 410/473/410 425/497/425 426/499/426
f 404/476/404 403/475/403 418/498/418 419/500/419
f 412/477/412 411/474/411 426/499/426 427/501/427
f 405/478/405 404/476/404 419/500/419 420/502/420
f 413/479/413 412/477/412 427/501/427 428/503/428
f 406/480/406 405/478/405 420/502/420 421/504/421
f 399/482/399 82/505/82 414/490/414
f 308/506/308 413/479/413 428/503/428
f 407/484/407 406/480/406 421/504/421 422/492/422
f 419/500/419 418/498/418 433/507/433 434/508/434
f 427/501/427 426/499/426 441/509/441 442/510/442
f 420/502/420 419/500/419 434/508/434 435/511/435
f 428/503/428 427/501/427 442/510/442 443/512/443
f 421/504/421 420/502/420 435/511/435 436/513/436
f 414/490/414 82/514/82 429/515/429
f 308/516/308 428/503/428 443/512/443
f 422/492/422 421/504/421 436/513/436 437/517/437
f 415/491/415 414/490/414 429/515/429 430/518/430
f 423/493/423 422/492/422 437/517/437 438/519/438
f 416/494/416 415/491/415 430/518/430 431/520/431
f 424/495/424 423/493/423 438/519/438 439/521/439
f 417/496/417 416/494/416 431/520/431 432/522/432
f 425/497/425 424/495/424 439/521/439 440/523/440
f 418/498/418 417/496/417 432/522/432 433/507/433
f 426/499/426 425/497/425 440/523/440 441/509/441
f 438/519/438 437/517/437 452/524/452 453/525/453
f 431/520/431 430/518/430 445/526/445 446/527/446
f 439/521/439 438/519/438 453/525/453 454/528/454
f 432/522/432 431/520/431 446/527/446 447/529/447
f 440/523/440 439/521/439 454/528/454 455/530/455
f 433/507/433 432/522/432 447/529/447 448/531/448
f 441/509/441 440/523/440 455/530/455 456/532/456
f 434/508/434 433/507/433 448/531/448 449/533/449
f 442/510/442 441/509/441 456/532/456 457/534/457
f 435/511/435 434/508/434 449/533/449 450/535/450
f 443/512/443 442/510/442 457/534/457 458/536/458
f 436/513/436 435/511/435 450/535/450 451/537/451
f 429/515/429 82/538/82 444/539/444
f 308/540/308 443/512/443 458/536/458
f 437/517/437 436/513/436 451/537/451 452/524/452
f 430/518/430 429/515/429 444/539/444 445/526/445
f 457/534/457 456/532/456 471/541/471 472/542/472
f 450/535/450 449/533/449 464/543/464 465/544/465
f 458/536/458 457/534/457 472/542/472 473/545/473
f 451/537/451 450/535/450 465/544/465 466/546/466
f 444/539/444 82/547/82 459/548/459
f 308/549/308 458/536/458 473/545/473
f 452/524/452 451/537/451 466/546/466 467/550/467
f 445/526/445 444/539/444 459/548/459 460/551/460
f 453/525/453 452/524/452 467/550/467 468/552/468
f 446/527/446 445/526/445 460/551/460 461/553/461
f 454/528/454 453/525/453 468/552/468 469/554/469
f 447/529/447 446/527/446 461/553/461 462/555/462
f 455/530/455 454/528/454 469/554/469 470/556/470
f 448/531/448 447/529/447 462/555/462 463/557/463
f 456/532/456 455/530/455 470/556/470 471/541/471
f 449/533/449 448/531/448 463/557/463 464/543/464
f 461/553/461 460/551/460 475/6/475 1/5/1
f 469/554/469 468/552/468 478/1/478 6/9/6
f 462/555/462 461/553/461 1/5/1 476/11/476
f 470/556/470 469/554/469 6/9/6 479/13/479
f 463/557/463 462/555/462 476/11/476 2/15/2
f 471/541/471 470/556/470 479/13/479 480/17/480
f 464/543/464 463/557/463 2/15/2 477/19/477
f 472/542/472 471/541/471 480/17/480 481/21/481
f 465/544/465 464/543/464 477/19/477 3/23/3
f 473/545/473 472/542/472 481/21/481 482/25/482
f 466/546/466 465/544/465 3/23/3 4/27/4
f 459/548/459 82/558/82 474/29/474
f 308/559/308 473/545/473 482/25/482
f 467/550/467 466/546/466 4/27/4 5/2/5
f 460/551/460 459/548/459 474/29/474 475/6/475
f 468/552/468 467/550/467 5/2/5 478/1/478
