# Blender 4.2.1 LTS
# www.blender.org
# mtllib sm_teardrop.mtl
o Cylinder
v 0.000000 -1.073891 -0.000000
v 0.000000 2.017753 -0.000000
v 0.000000 1.307896 -0.111628
v 0.042718 1.307896 -0.103131
v 0.078933 1.307896 -0.078933
v 0.103131 1.307896 -0.042718
v 0.111628 1.307896 -0.000000
v 0.103131 1.307896 0.042718
v 0.078933 1.307896 0.078933
v 0.042718 1.307896 0.103131
v 0.000000 1.307896 0.111628
v -0.042718 1.307896 0.103131
v -0.078933 1.307896 0.078933
v -0.103131 1.307896 0.042718
v -0.111628 1.307896 -0.000000
v -0.103131 1.307896 -0.042718
v -0.078933 1.307896 -0.078933
v -0.042718 1.307896 -0.103131
v 0.000000 -0.874603 -0.336585
v 0.000000 -0.520440 -0.512244
v 0.000000 -0.729656 -0.459287
v 0.196027 -0.520440 -0.473252
v 0.128806 -0.874603 -0.310964
v 0.175762 -0.729656 -0.424326
v 0.362211 -0.520440 -0.362211
v 0.238002 -0.874603 -0.238002
v 0.324765 -0.729656 -0.324765
v 0.473252 -0.520440 -0.196027
v 0.310964 -0.874603 -0.128806
v 0.424326 -0.729656 -0.175762
v 0.512244 -0.520440 -0.000000
v 0.336585 -0.874603 -0.000000
v 0.459287 -0.729656 -0.000000
v 0.473252 -0.520440 0.196027
v 0.310964 -0.874603 0.128806
v 0.424326 -0.729656 0.175762
v 0.362211 -0.520440 0.362211
v 0.238002 -0.874603 0.238002
v 0.324765 -0.729656 0.324765
v 0.196027 -0.520440 0.473252
v 0.128806 -0.874603 0.310964
v 0.175762 -0.729656 0.424326
v 0.000000 -0.520440 0.512244
v 0.000000 -0.874603 0.336585
v 0.000000 -0.729656 0.459287
v -0.196027 -0.520440 0.473252
v -0.128806 -0.874603 0.310964
v -0.175762 -0.729656 0.424326
v -0.362211 -0.520440 0.362211
v -0.238002 -0.874603 0.238002
v -0.324765 -0.729656 0.324765
v -0.473252 -0.520440 0.196027
v -0.310964 -0.874603 0.128806
v -0.424326 -0.729656 0.175762
v -0.512244 -0.520440 -0.000000
v -0.336585 -0.874603 -0.000000
v -0.459287 -0.729656 -0.000000
v -0.473252 -0.520440 -0.196027
v -0.310964 -0.874603 -0.128806
v -0.424326 -0.729656 -0.175762
v -0.362211 -0.520440 -0.362211
v -0.238002 -0.874603 -0.238002
v -0.324765 -0.729656 -0.324765
v -0.196027 -0.520440 -0.473252
v -0.128806 -0.874603 -0.310964
v -0.175762 -0.729656 -0.424326
v 0.000000 0.034033 -0.376033
v 0.143901 0.034033 -0.347409
v -0.143901 0.034033 -0.347409
v 0.265895 0.034033 -0.265895
v 0.347409 0.034033 -0.143901
v 0.376033 0.034033 -0.000000
v 0.347409 0.034033 0.143901
v 0.265895 0.034033 0.265895
v 0.143901 0.034033 0.347409
v 0.000000 0.034033 0.376033
v -0.143901 0.034033 0.347409
v -0.265895 0.034033 0.265895
v -0.347409 0.034033 0.143901
v -0.376033 0.034033 -0.000000
v -0.347409 0.034033 -0.143901
v -0.265895 0.034033 -0.265895
v 0.000000 0.659120 -0.235798
v -0.090236 0.659120 -0.217849
v 0.090236 0.659120 -0.217849
v 0.166734 0.659120 -0.166734
v 0.217849 0.659120 -0.090236
v 0.235798 0.659120 -0.000000
v 0.217849 0.659120 0.090236
v 0.166734 0.659120 0.166734
v 0.090236 0.659120 0.217849
v 0.000000 0.659120 0.235798
v -0.090236 0.659120 0.217849
v -0.166734 0.659120 0.166734
v -0.217849 0.659120 0.090236
v -0.235798 0.659120 -0.000000
v -0.217849 0.659120 -0.090236
v -0.166734 0.659120 -0.166734
vn -0.0000 -1.0000 -0.0000
vn -0.0000 1.0000 -0.0000
vn -0.0000 0.1720 -0.9851
vn 0.3770 0.1720 -0.9101
vn 0.6966 0.1720 -0.6966
vn 0.9101 0.1720 -0.3770
vn 0.9851 0.1720 -0.0000
vn 0.9101 0.1720 0.3770
vn 0.6966 0.1720 0.6966
vn 0.3770 0.1720 0.9101
vn -0.0000 0.1720 0.9851
vn -0.3770 0.1720 0.9101
vn -0.6966 0.1720 0.6966
vn -0.9101 0.1720 0.3770
vn -0.9851 0.1720 -0.0000
vn -0.9101 0.1720 -0.3770
vn -0.6966 0.1720 -0.6966
vn -0.3770 0.1720 -0.9101
vn -0.0000 -0.7538 -0.6571
vn -0.0000 -0.0034 -1.0000
vn -0.0000 -0.4465 -0.8948
vn 0.3827 -0.0034 -0.9239
vn 0.2515 -0.7538 -0.6071
vn 0.3424 -0.4465 -0.8267
vn 0.7071 -0.0034 -0.7071
vn 0.4646 -0.7538 -0.4646
vn 0.6327 -0.4465 -0.6327
vn 0.9239 -0.0034 -0.3827
vn 0.6071 -0.7538 -0.2515
vn 0.8267 -0.4465 -0.3424
vn 1.0000 -0.0034 -0.0000
vn 0.6571 -0.7538 -0.0000
vn 0.8948 -0.4465 -0.0000
vn 0.9239 -0.0034 0.3827
vn 0.6071 -0.7538 0.2515
vn 0.8267 -0.4465 0.3424
vn 0.7071 -0.0034 0.7071
vn 0.4646 -0.7538 0.4646
vn 0.6327 -0.4465 0.6327
vn 0.3827 -0.0034 0.9239
vn 0.2515 -0.7538 0.6071
vn 0.3424 -0.4465 0.8267
vn -0.0000 -0.0034 1.0000
vn -0.0000 -0.7538 0.6571
vn -0.0000 -0.4465 0.8948
vn -0.3827 -0.0034 0.9239
vn -0.2515 -0.7538 0.6071
vn -0.3424 -0.4465 0.8267
vn -0.7071 -0.0034 0.7071
vn -0.4646 -0.7538 0.4646
vn -0.6327 -0.4465 0.6327
vn -0.9239 -0.0034 0.3827
vn -0.6071 -0.7538 0.2515
vn -0.8267 -0.4465 0.3424
vn -1.0000 -0.0034 -0.0000
vn -0.6571 -0.7538 -0.0000
vn -0.8948 -0.4465 -0.0000
vn -0.9239 -0.0034 -0.3827
vn -0.6071 -0.7538 -0.2515
vn -0.8267 -0.4465 -0.3424
vn -0.7071 -0.0034 -0.7071
vn -0.4646 -0.7538 -0.4646
vn -0.6327 -0.4465 -0.6327
vn -0.3827 -0.0034 -0.9239
vn -0.2515 -0.7538 -0.6071
vn -0.3424 -0.4465 -0.8267
vn -0.0000 0.2290 -0.9734
vn 0.3725 0.2290 -0.8993
vn -0.3725 0.2290 -0.8993
vn 0.6883 0.2290 -0.6883
vn 0.8993 0.2290 -0.3725
vn 0.9734 0.2290 -0.0000
vn 0.8993 0.2290 0.3725
vn 0.6883 0.2290 0.6883
vn 0.3725 0.2290 0.8993
vn -0.0000 0.2290 0.9734
vn -0.3725 0.2290 0.8993
vn -0.6883 0.2290 0.6883
vn -0.8993 0.2290 0.3725
vn -0.9734 0.2290 -0.0000
vn -0.8993 0.2290 -0.3725
vn -0.6883 0.2290 -0.6883
vn -0.0000 0.2039 -0.9790
vn -0.3746 0.2039 -0.9045
vn 0.3746 0.2039 -0.9045
vn 0.6923 0.2039 -0.6923
vn 0.9045 0.2039 -0.3746
vn 0.9790 0.2039 -0.0000
vn 0.9045 0.2039 0.3746
vn 0.6923 0.2039 0.6923
vn 0.3746 0.2039 0.9045
vn -0.0000 0.2039 0.9790
vn -0.3746 0.2039 0.9045
vn -0.6923 0.2039 0.6923
vn -0.9045 0.2039 0.3746
vn -0.9790 0.2039 -0.0000
vn -0.9045 0.2039 -0.3746
vn -0.6923 0.2039 -0.6923
vt 0.990632 1.042995
vt 0.981265 1.291636
vt 0.937500 1.291636
vt 0.937500 1.042996
vt 0.250000 0.250000
vt 0.294152 0.356593
vt 0.250000 0.365375
vt 0.062500 1.042996
vt 0.062500 1.291636
vt 0.018735 1.291636
vt 0.009367 1.042996
vt 0.875000 1.291636
vt 0.875000 1.042996
vt 0.331582 0.331582
vt 0.750000 0.250000
vt 0.864690 0.364690
vt 0.899849 0.312070
vt 0.812500 1.291636
vt 0.812500 1.042996
vt 0.356593 0.294152
vt 0.912196 0.250000
vt 0.750000 1.291636
vt 0.750000 1.042996
vt 0.365375 0.250000
vt 0.899849 0.187930
vt 0.687500 1.291636
vt 0.687500 1.042996
vt 0.356593 0.205848
vt 0.864690 0.135310
vt 0.625000 1.291636
vt 0.625000 1.042996
vt 0.331582 0.168418
vt 0.864690 0.135310
vt 0.812070 0.100151
vt 0.562500 1.291636
vt 0.562500 1.042996
vt 0.294152 0.143407
vt 0.812070 0.100151
vt 0.750000 0.087804
vt 0.500000 1.291636
vt 0.500000 1.042996
vt 0.250000 0.134625
vt 0.687930 0.100151
vt 0.437500 1.291636
vt 0.437500 1.042996
vt 0.205848 0.143407
vt 0.635310 0.135310
vt 0.375000 1.291636
vt 0.375000 1.042996
vt 0.168418 0.168418
vt 0.635310 0.135310
vt 0.600151 0.187930
vt 0.312500 1.291636
vt 0.312500 1.042996
vt 0.143407 0.205848
vt 0.587804 0.250000
vt 0.250000 1.291636
vt 0.250000 1.042996
vt 0.134625 0.250000
vt 0.600151 0.312070
vt 0.187500 1.291636
vt 0.187500 1.042996
vt 0.143407 0.294152
vt 0.600151 0.312070
vt 0.635310 0.364690
vt 0.125000 1.291636
vt 0.125000 1.042996
vt 0.168418 0.331582
vt 0.635310 0.364690
vt 0.687930 0.399849
vt 0.205848 0.356593
vt 0.750000 0.412196
vt 0.812070 0.399849
vt 0.864690 0.364690
vt 1.000000 0.588710
vt 0.937500 0.588710
vt 0.940467 0.500000
vt 0.997033 0.500000
vt 0.754360 0.489133
vt 0.837484 0.472598
vt 0.875000 0.588710
vt 0.877967 0.500000
vt 0.934533 0.500000
vt 0.845541 0.469261
vt 0.916009 0.422176
vt 0.875000 0.588710
vt 0.812500 0.588710
vt 0.815467 0.500000
vt 0.872033 0.500000
vt 0.922176 0.416009
vt 0.969261 0.345541
vt 0.812500 0.588710
vt 0.750000 0.588710
vt 0.752967 0.500000
vt 0.809533 0.500000
vt 0.972598 0.337484
vt 0.989133 0.254360
vt 0.750000 0.588710
vt 0.687500 0.588710
vt 0.690467 0.500000
vt 0.747033 0.500000
vt 0.989133 0.245640
vt 0.972598 0.162516
vt 0.625000 0.588710
vt 0.627967 0.500000
vt 0.684533 0.500000
vt 0.969261 0.154459
vt 0.922176 0.083991
vt 0.625000 0.588710
vt 0.562500 0.588710
vt 0.565467 0.500000
vt 0.622033 0.500000
vt 0.916009 0.077824
vt 0.845541 0.030739
vt 0.562500 0.588710
vt 0.500000 0.588710
vt 0.502967 0.500000
vt 0.559533 0.500000
vt 0.837484 0.027402
vt 0.754360 0.010867
vt 0.437500 0.588710
vt 0.440467 0.500000
vt 0.497033 0.500000
vt 0.745640 0.010867
vt 0.662516 0.027402
vt 0.437500 0.588710
vt 0.375000 0.588710
vt 0.377967 0.500000
vt 0.434533 0.500000
vt 0.654459 0.030739
vt 0.583991 0.077824
vt 0.375000 0.588710
vt 0.312500 0.588710
vt 0.315467 0.500000
vt 0.372033 0.500000
vt 0.577824 0.083991
vt 0.530739 0.154459
vt 0.312500 0.588710
vt 0.250000 0.588710
vt 0.252967 0.500000
vt 0.309533 0.500000
vt 0.527402 0.162516
vt 0.510867 0.245640
vt 0.187500 0.588710
vt 0.190467 0.500000
vt 0.247033 0.500000
vt 0.510867 0.254360
vt 0.527402 0.337484
vt 0.187500 0.588710
vt 0.125000 0.588710
vt 0.127967 0.500000
vt 0.184533 0.500000
vt 0.530739 0.345541
vt 0.577824 0.416009
vt 0.125000 0.588710
vt 0.062500 0.588710
vt 0.065467 0.500000
vt 0.122033 0.500000
vt 0.583991 0.422176
vt 0.654459 0.469261
vt 0.062500 0.588710
vt 0.000000 0.588710
vt 0.002967 0.500000
vt 0.059533 0.500000
vt 0.662516 0.472598
vt 0.745640 0.489133
vt 0.687930 0.399849
vt 0.125000 0.794355
vt 0.062500 0.794355
vt 0.187500 0.794355
vt 0.250000 0.794355
vt 0.312500 0.794355
vt 0.375000 0.794355
vt 0.437500 0.794355
vt 0.500000 0.794355
vt 0.562500 0.794355
vt 0.625000 0.794355
vt 0.687500 0.794355
vt 0.750000 0.794355
vt 0.812500 0.794355
vt 0.875000 0.794355
vt 0.937500 0.794355
vt 0.000000 0.794355
vt 1.000000 0.794355
s 1
f 83/1/83 3/2/3 4/3/4 85/4/85
f 2/5/2 4/6/4 3/7/3
f 84/8/84 18/9/18 3/10/3 83/11/83
f 85/4/85 4/3/4 5/12/5 86/13/86
f 2/5/2 5/14/5 4/6/4
f 1/15/1 26/16/26 29/17/29
f 86/13/86 5/12/5 6/18/6 87/19/87
f 2/5/2 6/20/6 5/14/5
f 1/15/1 29/17/29 32/21/32
f 87/19/87 6/18/6 7/22/7 88/23/88
f 2/5/2 7/24/7 6/20/6
f 1/15/1 32/21/32 35/25/35
f 88/23/88 7/22/7 8/26/8 89/27/89
f 2/5/2 8/28/8 7/24/7
f 1/15/1 35/25/35 38/29/38
f 89/27/89 8/26/8 9/30/9 90/31/90
f 2/5/2 9/32/9 8/28/8
f 1/15/1 38/33/38 41/34/41
f 90/31/90 9/30/9 10/35/10 91/36/91
f 2/5/2 10/37/10 9/32/9
f 1/15/1 41/38/41 44/39/44
f 91/36/91 10/35/10 11/40/11 92/41/92
f 2/5/2 11/42/11 10/37/10
f 1/15/1 44/39/44 47/43/47
f 92/41/92 11/40/11 12/44/12 93/45/93
f 2/5/2 12/46/12 11/42/11
f 1/15/1 47/43/47 50/47/50
f 93/45/93 12/44/12 13/48/13 94/49/94
f 2/5/2 13/50/13 12/46/12
f 1/15/1 50/51/50 53/52/53
f 94/49/94 13/48/13 14/53/14 95/54/95
f 2/5/2 14/55/14 13/50/13
f 1/15/1 53/52/53 56/56/56
f 95/54/95 14/53/14 15/57/15 96/58/96
f 2/5/2 15/59/15 14/55/14
f 1/15/1 56/56/56 59/60/59
f 96/58/96 15/57/15 16/61/16 97/62/97
f 2/5/2 16/63/16 15/59/15
f 1/15/1 59/64/59 62/65/62
f 97/62/97 16/61/16 17/66/17 98/67/98
f 2/5/2 17/68/17 16/63/16
f 1/15/1 62/69/62 65/70/65
f 98/67/98 17/66/17 18/9/18 84/8/84
f 2/5/2 18/71/18 17/68/17
f 1/15/1 19/72/19 23/73/23
f 2/5/2 3/7/3 18/71/18
f 1/15/1 23/73/23 26/74/26
f 20/75/20 22/76/22 24/77/24 21/78/21
f 21/79/21 24/80/24 23/73/23 19/72/19
f 22/76/22 25/81/25 27/82/27 24/83/24
f 24/84/24 27/85/27 26/74/26 23/73/23
f 25/86/25 28/87/28 30/88/30 27/89/27
f 27/90/27 30/91/30 29/17/29 26/16/26
f 28/92/28 31/93/31 33/94/33 30/95/30
f 30/96/30 33/97/33 32/21/32 29/17/29
f 31/98/31 34/99/34 36/100/36 33/101/33
f 33/102/33 36/103/36 35/25/35 32/21/32
f 34/99/34 37/104/37 39/105/39 36/106/36
f 36/107/36 39/108/39 38/29/38 35/25/35
f 37/109/37 40/110/40 42/111/42 39/112/39
f 39/113/39 42/114/42 41/34/41 38/33/38
f 40/115/40 43/116/43 45/117/45 42/118/42
f 42/119/42 45/120/45 44/39/44 41/38/41
f 43/116/43 46/121/46 48/122/48 45/123/45
f 45/124/45 48/125/48 47/43/47 44/39/44
f 46/126/46 49/127/49 51/128/51 48/129/48
f 48/130/48 51/131/51 50/47/50 47/43/47
f 49/132/49 52/133/52 54/134/54 51/135/51
f 51/136/51 54/137/54 53/52/53 50/51/50
f 52/138/52 55/139/55 57/140/57 54/141/54
f 54/142/54 57/143/57 56/56/56 53/52/53
f 55/139/55 58/144/58 60/145/60 57/146/57
f 57/147/57 60/148/60 59/60/59 56/56/56
f 58/149/58 61/150/61 63/151/63 60/152/60
f 60/153/60 63/154/63 62/65/62 59/64/59
f 61/155/61 64/156/64 66/157/66 63/158/63
f 63/159/63 66/160/66 65/70/65 62/69/62
f 64/161/64 20/162/20 21/163/21 66/164/66
f 66/165/66 21/166/21 19/72/19 65/167/65
f 1/15/1 65/167/65 19/72/19
f 61/155/61 82/168/82 69/169/69 64/156/64
f 58/149/58 81/170/81 82/168/82 61/150/61
f 55/139/55 80/171/80 81/170/81 58/144/58
f 52/138/52 79/172/79 80/171/80 55/139/55
f 49/132/49 78/173/78 79/172/79 52/133/52
f 46/126/46 77/174/77 78/173/78 49/127/49
f 43/116/43 76/175/76 77/174/77 46/121/46
f 40/115/40 75/176/75 76/175/76 43/116/43
f 37/109/37 74/177/74 75/176/75 40/110/40
f 34/99/34 73/178/73 74/177/74 37/104/37
f 31/98/31 72/179/72 73/178/73 34/99/34
f 28/92/28 71/180/71 72/179/72 31/93/31
f 25/86/25 70/181/70 71/180/71 28/87/28
f 22/76/22 68/182/68 70/181/70 25/81/25
f 64/161/64 69/169/69 67/183/67 20/162/20
f 20/75/20 67/184/67 68/182/68 22/76/22
f 82/168/82 98/67/98 84/8/84 69/169/69
f 81/170/81 97/62/97 98/67/98 82/168/82
f 80/171/80 96/58/96 97/62/97 81/170/81
f 79/172/79 95/54/95 96/58/96 80/171/80
f 78/173/78 94/49/94 95/54/95 79/172/79
f 77/174/77 93/45/93 94/49/94 78/173/78
f 76/175/76 92/41/92 93/45/93 77/174/77
f 75/176/75 91/36/91 92/41/92 76/175/76
f 74/177/74 90/31/90 91/36/91 75/176/75
f 73/178/73 89/27/89 90/31/90 74/177/74
f 72/179/72 88/23/88 89/27/89 73/178/73
f 71/180/71 87/19/87 88/23/88 72/179/72
f 70/181/70 86/13/86 87/19/87 71/180/71
f 68/182/68 85/4/85 86/13/86 70/181/70
f 69/169/69 84/8/84 83/11/83 67/183/67
f 67/184/67 83/1/83 85/4/85 68/182/68
