{
  "accessors": [
    {
      "bufferView": 2,
      "componentType": 5126,
      "count": 238,
      "max": [
        0.13449065387248993,
        0.7434141635894775,
        6.619524955749512
      ],
      "min": [
        -0.14048448204994202,
        -0.2722499370574951,
        -10.725743293762207
      ],
      "type": "VEC3"
    },
    {
      "bufferView": 2,
      "byteOffset": 2856,
      "componentType": 5126,
      "count": 238,
      "max": [
        1.0,
        1.0,
        1.0
      ],
      "min": [
        -1.0,
        -1.0,
        -1.0
      ],
      "type": "VEC3"
    },
    {
      "bufferView": 3,
      "componentType": 5126,
      "count": 238,
      "max": [
        1.0,
        1.0,
        1.0,
        1.0
      ],
      "min": [
        -1.0,
        -1.0,
        -1.0,
        -1.0
      ],
      "type": "VEC4"
    },
    {
      "bufferView": 1,
      "componentType": 5126,
      "count": 238,
      "max": [
        0.9987396001815796,
        0.999258279800415
      ],
      "min": [
        0.0007157867075875401,
        0.002833796665072441
      ],
      "type": "VEC2"
    },
    {
      "bufferView": 1,
      "byteOffset": 1904,
      "componentType": 5126,
      "count": 238,
      "max": [
        0.9987396001815796,
        0.999258279800415
      ],
      "min": [
        0.0007157867075875401,
        0.002833796665072441
      ],
      "type": "VEC2"
    },
    {
      "bufferView": 1,
      "byteOffset": 3808,
      "componentType": 5126,
      "count": 238,
      "max": [
        0.9987396001815796,
        0.999258279800415
      ],
      "min": [
        0.0007157867075875401,
        0.002833796665072441
      ],
      "type": "VEC2"
    },
    {
      "bufferView": 0,
      "componentType": 5125,
      "count": 378,
      "type": "SCALAR"
    },
    {
      "bufferView": 2,
      "byteOffset": 5712,
      "componentType": 5126,
      "count": 3850,
      "max": [
        4.36716365814209,
        0.48531055450439453,
        10.725743293762207
      ],
      "min": [
        -4.36716365814209,
        -0.7434141635894775,
        1.988572120666504
      ],
      "type": "VEC3"
    },
    {
      "bufferView": 2,
      "byteOffset": 51912,
      "componentType": 5126,
      "count": 3850,
      "max": [
        0.9988061785697937,
        0.9997054934501648,
        0.998806357383728
      ],
      "min": [
        -0.9988059997558594,
        -0.9999880790710449,
        -0.9988058805465698
      ],
      "type": "VEC3"
    },
    {
      "bufferView": 3,
      "byteOffset": 3808,
      "componentType": 5126,
      "count": 3850,
      "max": [
        0.9964889883995056,
        0.9519669413566589,
        0.9964887499809265,
        1.0
      ],
      "min": [
        -0.9964888691902161,
        -0.726215660572052,
        -0.9964888095855713,
        -1.0
      ],
      "type": "VEC4"
    },
    {
      "bufferView": 1,
      "byteOffset": 5712,
      "componentType": 5126,
      "count": 3850,
      "max": [
        0.9997145533561707,
        0.9994181394577026
      ],
      "min": [
        0.0004926603869535029,
        0.00039419159293174744
      ],
      "type": "VEC2"
    },
    {
      "bufferView": 1,
      "byteOffset": 36512,
      "componentType": 5126,
      "count": 3850,
      "max": [
        0.9997145533561707,
        0.9994181394577026
      ],
      "min": [
        0.0004926603869535029,
        0.00039419159293174744
      ],
      "type": "VEC2"
    },
    {
      "bufferView": 1,
      "byteOffset": 67312,
      "componentType": 5126,
      "count": 3850,
      "max": [
        0.9997145533561707,
        0.9994181394577026
      ],
      "min": [
        0.0004926603869535029,
        0.00039419159293174744
      ],
      "type": "VEC2"
    },
    {
      "bufferView": 0,
      "byteOffset": 1512,
      "componentType": 5125,
      "count": 4176,
      "type": "SCALAR"
    }
  ],
  "asset": {
    "extras": {
      "author": "plaggy (https://sketchfab.com/plaggy)",
      "license": "CC-BY-4.0 (http://creativecommons.org/licenses/by/4.0/)",
      "source": "https://sketchfab.com/3d-models/cc0-pinwheel-7abebdf80d2f4df2bb19ae5f2cf9a5c6",
      "title": "CC0 - Pinwheel"
    },
    "generator": "Sketchfab-16.16.0",
    "version": "2.0"
  },
  "bufferViews": [
    {
      "buffer": 0,
      "byteLength": 18216,
      "name": "floatBufferViews",
      "target": 34963
    },
    {
      "buffer": 0,
      "byteLength": 98112,
      "byteOffset": 18216,
      "byteStride": 8,
      "name": "floatBufferViews",
      "target": 34962
    },
    {
      "buffer": 0,
      "byteLength": 98112,
      "byteOffset": 116328,
      "byteStride": 12,
      "name": "floatBufferViews",
      "target": 34962
    },
    {
      "buffer": 0,
      "byteLength": 65408,
      "byteOffset": 214440,
      "byteStride": 16,
      "name": "floatBufferViews",
      "target": 34962
    }
  ],
  "buffers": [
    {
      "byteLength": 279848,
      "uri": "scene.bin"
    }
  ],
  "images": [
    {
      "uri": "textures/PinwheelPole_baseColor.png"
    },
    {
      "uri": "textures/PinwheelPole_metallicRoughness.png"
    },
    {
      "uri": "textures/PinwheelPole_normal.png"
    },
    {
      "uri": "textures/Pinwheel_baseColor.png"
    },
    {
      "uri": "textures/Pinwheel_metallicRoughness.png"
    },
    {
      "uri": "textures/Pinwheel_normal.png"
    }
  ],
  "materials": [
    {
      "doubleSided": true,
      "name": "PinwheelPole",
      "normalTexture": {
        "index": 2
      },
      "occlusionTexture": {
        "index": 1
      },
      "pbrMetallicRoughness": {
        "baseColorTexture": {
          "index": 0
        },
        "metallicFactor": 0.0,
        "metallicRoughnessTexture": {
          "index": 1
        }
      }
    },
    {
      "doubleSided": true,
      "name": "Pinwheel",
      "normalTexture": {
        "index": 5
      },
      "occlusionTexture": {
        "index": 4
      },
      "pbrMetallicRoughness": {
        "baseColorTexture": {
          "index": 3
        },
        "metallicFactor": 0.0,
        "metallicRoughnessTexture": {
          "index": 4
        }
      }
    }
  ],
  "meshes": [
    {
      "name": "PinwheelPole_PinwheelPole_0",
      "primitives": [
        {
          "attributes": {
            "NORMAL": 1,
            "POSITION": 0,
            "TANGENT": 2,
            "TEXCOORD_0": 3,
            "TEXCOORD_1": 4,
            "TEXCOORD_2": 5
          },
          "indices": 6,
          "material": 0,
          "mode": 4
        }
      ]
    },
    {
      "name": "Pinwheel_Pinwheel_0",
      "primitives": [
        {
          "attributes": {
            "NORMAL": 8,
            "POSITION": 7,
            "TANGENT": 9,
            "TEXCOORD_0": 10,
            "TEXCOORD_1": 11,
            "TEXCOORD_2": 12
          },
          "indices": 13,
          "material": 1,
          "mode": 4
        }
      ]
    }
  ],
  "nodes": [
    {
      "children": [
        1
      ],
      "matrix": [
        1.0,
        0.0,
        0.0,
        0.0,
        0.0,
        2.220446049250313e-16,
        -1.0,
        0.0,
        0.0,
        1.0,
        2.220446049250313e-16,
        0.0,
        0.0,
        0.0,
        0.0,
        1.0
      ],
      "name": "Sketchfab_model"
    },
    {
      "children": [
        2
      ],
      "matrix": [
        1.0,
        0.0,
        0.0,
        0.0,
        0.0,
        0.0,
        1.0,
        0.0,
        0.0,
        -1.0,
        0.0,
        0.0,
        0.0,
        0.0,
        0.0,
        1.0
      ],
      "name": "469cb5801fdf4bba9fa7427bd661847c.fbx"
    },
    {
      "children": [
        3,
        5
      ],
      "name": "RootNode"
    },
    {
      "children": [
        4
      ],
      "matrix": [
        0.02539999969303608,
        0.0,
        0.0,
        0.0,
        0.0,
        5.639932896936113e-18,
        -0.02539999969303608,
        0.0,
        0.0,
        0.02539999969303608,
        5.639932896936113e-18,
        0.0,
        0.0,
        0.2709999978542328,
        -2.983769897824118e-10,
        1.0
      ],
      "name": "PinwheelPole"
    },
    {
      "mesh": 0,
      "name": "PinwheelPole_PinwheelPole_0"
    },
    {
      "children": [
        6
      ],
      "matrix": [
        0.02539999969303608,
        0.0,
        0.0,
        0.0,
        0.0,
        5.639932896936113e-18,
        -0.02539999969303608,
        0.0,
        0.0,
        0.02539999969303608,
        5.639932896936113e-18,
        0.0,
        0.0,
        0.2709999978542328,
        -2.983769897824118e-10,
        1.0
      ],
      "name": "Pinwheel"
    },
    {
      "mesh": 1,
      "name": "Pinwheel_Pinwheel_0"
    }
  ],
  "samplers": [
    {
      "magFilter": 9729,
      "minFilter": 9987,
      "wrapS": 10497,
      "wrapT": 10497
    }
  ],
  "scene": 0,
  "scenes": [
    {
      "name": "Sketchfab_Scene",
      "nodes": [
        0
      ]
    }
  ],
  "textures": [
    {
      "sampler": 0,
      "source": 0
    },
    {
      "sampler": 0,
      "source": 1
    },
    {
      "sampler": 0,
      "source": 2
    },
    {
      "sampler": 0,
      "source": 3
    },
    {
      "sampler": 0,
      "source": 4
    },
    {
      "sampler": 0,
      "source": 5
    }
  ]
}
