# Blender 4.2.1 LTS
# www.blender.org
# mtllib sm_cylinder_vulkano.mtl
o Cylinder
v 0.000000 0.000000 -4.814669
v 0.000000 12.704989 -1.113982
v 0.939295 0.000000 -4.722157
v 0.217327 12.704989 -1.092577
v 1.842494 0.000000 -4.448174
v 0.426303 12.704989 -1.029185
v 2.674887 0.000000 -4.003251
v 0.618895 12.704989 -0.926242
v 3.404485 0.000000 -3.404485
v 0.787704 12.704989 -0.787704
v 4.003251 0.000000 -2.674887
v 0.926242 12.704989 -0.618895
v 4.448174 0.000000 -1.842494
v 1.029185 12.704989 -0.426303
v 4.722157 0.000000 -0.939295
v 1.092577 12.704989 -0.217327
v 4.814669 0.000000 0.000000
v 1.113982 12.704989 0.000000
v 4.722157 0.000000 0.939295
v 1.092577 12.704989 0.217327
v 4.448174 0.000000 1.842494
v 1.029185 12.704989 0.426303
v 4.003251 0.000000 2.674887
v 0.926242 12.704989 0.618895
v 3.404485 0.000000 3.404485
v 0.787704 12.704989 0.787704
v 2.674887 0.000000 4.003251
v 0.618895 12.704989 0.926242
v 1.842494 0.000000 4.448174
v 0.426303 12.704989 1.029185
v 0.939295 0.000000 4.722157
v 0.217327 12.704989 1.092577
v 0.000000 0.000000 4.814669
v 0.000000 12.704989 1.113982
v -0.939295 0.000000 4.722157
v -0.217327 12.704989 1.092577
v -1.842494 0.000000 4.448174
v -0.426303 12.704989 1.029185
v -2.674887 0.000000 4.003251
v -0.618895 12.704989 0.926242
v -3.404485 0.000000 3.404485
v -0.787704 12.704989 0.787704
v -4.003251 0.000000 2.674887
v -0.926242 12.704989 0.618895
v -4.448174 0.000000 1.842494
v -1.029185 12.704989 0.426303
v -4.722157 0.000000 0.939295
v -1.092577 12.704989 0.217327
v -4.814669 0.000000 0.000000
v -1.113982 12.704989 0.000000
v -4.722157 0.000000 -0.939295
v -1.092577 12.704989 -0.217327
v -4.448174 0.000000 -1.842494
v -1.029185 12.704989 -0.426303
v -4.003251 0.000000 -2.674887
v -0.926242 12.704989 -0.618895
v -3.404485 0.000000 -3.404485
v -0.787704 12.704989 -0.787704
v -2.674887 0.000000 -4.003251
v -0.618895 12.704989 -0.926242
v -1.842494 0.000000 -4.448174
v -0.426303 12.704989 -1.029185
v -0.939295 0.000000 -4.722157
v -0.217327 12.704989 -1.092577
v 0.000000 0.410425 -3.495554
v 0.000000 0.786495 -2.685206
v 0.000000 1.202515 -2.072121
v 0.000000 1.883891 -1.750577
v 0.000000 2.815462 -1.623605
v 0.000000 4.333897 -1.467692
v 0.000000 5.957676 -1.323468
v 0.000000 7.447529 -1.212713
v 0.000000 9.305268 -1.144469
v 0.000000 11.071865 -1.117552
v 0.218024 11.071865 -1.096079
v 0.223275 9.305268 -1.122478
v 0.236589 7.447529 -1.189411
v 0.258196 5.957676 -1.298038
v 0.286333 4.333897 -1.439491
v 0.316750 2.815462 -1.592408
v 0.341521 1.883892 -1.716940
v 0.404251 1.202515 -2.032306
v 0.523858 0.786495 -2.633610
v 0.681949 0.410425 -3.428388
v 0.427669 11.071865 -1.032483
v 0.437969 9.305268 -1.057352
v 0.464085 7.447529 -1.120401
v 0.506469 5.957676 -1.222725
v 0.561661 4.333897 -1.355971
v 0.621327 2.815462 -1.500015
v 0.669917 1.883892 -1.617322
v 0.792966 1.202515 -1.914390
v 1.027584 0.786495 -2.480807
v 1.337691 0.410425 -3.229471
v 0.620879 11.071865 -0.929211
v 0.635833 9.305268 -0.951591
v 0.673747 7.447528 -1.008334
v 0.735279 5.957676 -1.100423
v 0.815406 4.333897 -1.220341
v 0.902027 2.815462 -1.349978
v 0.972569 1.883892 -1.455551
v 1.151209 1.202515 -1.722906
v 1.491821 0.786495 -2.232667
v 1.942026 0.410425 -2.906447
v 0.790229 11.071865 -0.790229
v 0.809262 9.305268 -0.809262
v 0.857518 7.447528 -0.857518
v 0.935833 5.957676 -0.935833
v 1.037815 4.333897 -1.037815
v 1.148062 2.815462 -1.148062
v 1.237845 1.883892 -1.237845
v 1.465211 1.202515 -1.465211
v 1.898727 0.786495 -1.898727
v 2.471730 0.410425 -2.471730
v 0.929211 11.071865 -0.620879
v 0.951591 9.305268 -0.635833
v 1.008334 7.447528 -0.673747
v 1.100423 5.957676 -0.735279
v 1.220342 4.333897 -0.815406
v 1.349978 2.815462 -0.902027
v 1.455552 1.883892 -0.972569
v 1.722906 1.202515 -1.151209
v 2.232667 0.786495 -1.491821
v 2.906447 0.410425 -1.942026
v 1.032483 11.071865 -0.427669
v 1.057352 9.305268 -0.437969
v 1.120401 7.447529 -0.464085
v 1.222725 5.957676 -0.506469
v 1.355971 4.333897 -0.561661
v 1.500015 2.815462 -0.621327
v 1.617322 1.883892 -0.669917
v 1.914390 1.202515 -0.792966
v 2.480807 0.786495 -1.027584
v 3.229471 0.410425 -1.337691
v 1.096079 11.071865 -0.218024
v 1.122478 9.305268 -0.223275
v 1.189411 7.447529 -0.236589
v 1.298038 5.957676 -0.258196
v 1.439491 4.333897 -0.286333
v 1.592408 2.815462 -0.316750
v 1.716940 1.883892 -0.341521
v 2.032306 1.202515 -0.404251
v 2.633610 0.786495 -0.523858
v 3.428388 0.410425 -0.681949
v 1.117552 11.071865 0.000000
v 1.144469 9.305268 0.000000
v 1.212713 7.447529 0.000000
v 1.323468 5.957676 0.000000
v 1.467692 4.333897 0.000000
v 1.623605 2.815462 0.000000
v 1.750577 1.883892 0.000000
v 2.072121 1.202515 0.000000
v 2.685206 0.786495 0.000000
v 3.495554 0.410425 0.000000
v 1.096079 11.071865 0.218024
v 1.122478 9.305268 0.223275
v 1.189411 7.447529 0.236589
v 1.298038 5.957676 0.258196
v 1.439491 4.333897 0.286333
v 1.592408 2.815462 0.316750
v 1.716940 1.883892 0.341521
v 2.032306 1.202515 0.404251
v 2.633610 0.786495 0.523858
v 3.428388 0.410425 0.681949
v 1.032483 11.071865 0.427669
v 1.057352 9.305268 0.437969
v 1.120401 7.447529 0.464085
v 1.222725 5.957676 0.506469
v 1.355971 4.333897 0.561662
v 1.500015 2.815462 0.621327
v 1.617322 1.883892 0.669917
v 1.914390 1.202515 0.792966
v 2.480807 0.786495 1.027584
v 3.229471 0.410425 1.337691
v 0.929211 11.071865 0.620879
v 0.951591 9.305268 0.635833
v 1.008334 7.447528 0.673747
v 1.100423 5.957676 0.735279
v 1.220342 4.333897 0.815406
v 1.349978 2.815462 0.902027
v 1.455552 1.883892 0.972569
v 1.722906 1.202515 1.151209
v 2.232667 0.786495 1.491821
v 2.906447 0.410425 1.942026
v 0.790229 11.071865 0.790229
v 0.809262 9.305268 0.809262
v 0.857518 7.447528 0.857518
v 0.935833 5.957676 0.935833
v 1.037815 4.333897 1.037815
v 1.148062 2.815462 1.148062
v 1.237845 1.883892 1.237845
v 1.465211 1.202515 1.465211
v 1.898727 0.786495 1.898728
v 2.471730 0.410425 2.471730
v 0.620879 11.071865 0.929211
v 0.635833 9.305268 0.951591
v 0.673747 7.447528 1.008334
v 0.735279 5.957676 1.100423
v 0.815406 4.333897 1.220342
v 0.902027 2.815462 1.349978
v 0.972569 1.883892 1.455552
v 1.151209 1.202515 1.722906
v 1.491821 0.786495 2.232667
v 1.942026 0.410425 2.906447
v 0.427669 11.071865 1.032483
v 0.437969 9.305268 1.057352
v 0.464085 7.447529 1.120401
v 0.506469 5.957676 1.222725
v 0.561662 4.333897 1.355971
v 0.621327 2.815462 1.500015
v 0.669917 1.883892 1.617322
v 0.792966 1.202515 1.914390
v 1.027584 0.786495 2.480807
v 1.337691 0.410425 3.229471
v 0.218024 11.071865 1.096079
v 0.223275 9.305268 1.122478
v 0.236589 7.447529 1.189411
v 0.258196 5.957676 1.298038
v 0.286333 4.333897 1.439491
v 0.316750 2.815462 1.592408
v 0.341521 1.883892 1.716940
v 0.404251 1.202515 2.032306
v 0.523858 0.786495 2.633610
v 0.681949 0.410425 3.428388
v 0.000000 11.071865 1.117552
v 0.000000 9.305268 1.144469
v 0.000000 7.447529 1.212713
v 0.000000 5.957676 1.323468
v 0.000000 4.333897 1.467692
v 0.000000 2.815462 1.623605
v 0.000000 1.883892 1.750577
v 0.000000 1.202515 2.072121
v 0.000000 0.786495 2.685206
v 0.000000 0.410425 3.495554
v -0.218024 11.071865 1.096079
v -0.223275 9.305268 1.122478
v -0.236589 7.447529 1.189411
v -0.258196 5.957676 1.298038
v -0.286333 4.333897 1.439491
v -0.316750 2.815462 1.592408
v -0.341521 1.883892 1.716940
v -0.404251 1.202515 2.032306
v -0.523858 0.786495 2.633610
v -0.681949 0.410425 3.428388
v -0.427669 11.071865 1.032483
v -0.437969 9.305268 1.057352
v -0.464085 7.447529 1.120401
v -0.506469 5.957676 1.222725
v -0.561662 4.333897 1.355971
v -0.621327 2.815462 1.500015
v -0.669917 1.883892 1.617322
v -0.792966 1.202515 1.914390
v -1.027584 0.786495 2.480807
v -1.337691 0.410425 3.229471
v -0.620879 11.071865 0.929211
v -0.635833 9.305268 0.951591
v -0.673747 7.447528 1.008334
v -0.735279 5.957676 1.100423
v -0.815406 4.333897 1.220342
v -0.902027 2.815462 1.349978
v -0.972569 1.883892 1.455552
v -1.151209 1.202515 1.722906
v -1.491821 0.786495 2.232667
v -1.942026 0.410425 2.906447
v -0.790229 11.071865 0.790229
v -0.809262 9.305268 0.809262
v -0.857518 7.447528 0.857518
v -0.935833 5.957676 0.935833
v -1.037815 4.333897 1.037815
v -1.148062 2.815462 1.148062
v -1.237845 1.883892 1.237845
v -1.465211 1.202515 1.465211
v -1.898727 0.786495 1.898728
v -2.471730 0.410425 2.471730
v -0.929211 11.071865 0.620879
v -0.951591 9.305268 0.635833
v -1.008334 7.447528 0.673747
v -1.100423 5.957676 0.735279
v -1.220342 4.333897 0.815406
v -1.349978 2.815462 0.902027
v -1.455552 1.883892 0.972569
v -1.722906 1.202515 1.151209
v -2.232667 0.786495 1.491821
v -2.906447 0.410425 1.942026
v -1.032483 11.071865 0.427669
v -1.057352 9.305268 0.437969
v -1.120401 7.447529 0.464085
v -1.222725 5.957676 0.506469
v -1.355971 4.333897 0.561662
v -1.500015 2.815462 0.621327
v -1.617322 1.883892 0.669917
v -1.914390 1.202515 0.792966
v -2.480807 0.786495 1.027584
v -3.229471 0.410425 1.337691
v -1.096079 11.071865 0.218024
v -1.122478 9.305268 0.223275
v -1.189411 7.447529 0.236589
v -1.298038 5.957676 0.258196
v -1.439491 4.333897 0.286333
v -1.592408 2.815462 0.316750
v -1.716940 1.883892 0.341521
v -2.032306 1.202515 0.404251
v -2.633610 0.786495 0.523858
v -3.428388 0.410425 0.681949
v -1.117552 11.071865 0.000000
v -1.144469 9.305268 0.000000
v -1.212713 7.447529 0.000000
v -1.323468 5.957676 0.000000
v -1.467692 4.333897 0.000000
v -1.623605 2.815462 0.000000
v -1.750577 1.883892 0.000000
v -2.072121 1.202515 0.000000
v -2.685206 0.786495 0.000000
v -3.495554 0.410425 0.000000
v -1.096079 11.071865 -0.218024
v -1.122478 9.305268 -0.223275
v -1.189411 7.447529 -0.236589
v -1.298038 5.957676 -0.258196
v -1.439491 4.333897 -0.286333
v -1.592408 2.815462 -0.316750
v -1.716940 1.883892 -0.341521
v -2.032306 1.202515 -0.404251
v -2.633610 0.786495 -0.523858
v -3.428388 0.410425 -0.681949
v -1.032483 11.071865 -0.427669
v -1.057352 9.305268 -0.437969
v -1.120401 7.447529 -0.464085
v -1.222725 5.957676 -0.506469
v -1.355971 4.333897 -0.561661
v -1.500015 2.815462 -0.621327
v -1.617322 1.883892 -0.669917
v -1.914390 1.202515 -0.792966
v -2.480807 0.786495 -1.027584
v -3.229471 0.410425 -1.337691
v -0.929211 11.071865 -0.620879
v -0.951591 9.305268 -0.635833
v -1.008334 7.447528 -0.673747
v -1.100423 5.957676 -0.735279
v -1.220342 4.333897 -0.815406
v -1.349978 2.815462 -0.902027
v -1.455552 1.883892 -0.972569
v -1.722906 1.202515 -1.151209
v -2.232667 0.786495 -1.491821
v -2.906447 0.410425 -1.942026
v -0.790229 11.071865 -0.790229
v -0.809262 9.305268 -0.809262
v -0.857518 7.447528 -0.857518
v -0.935833 5.957676 -0.935833
v -1.037815 4.333897 -1.037815
v -1.148062 2.815462 -1.148062
v -1.237845 1.883892 -1.237845
v -1.465211 1.202515 -1.465211
v -1.898727 0.786495 -1.898727
v -2.471730 0.410425 -2.471730
v -0.620879 11.071865 -0.929211
v -0.635833 9.305268 -0.951591
v -0.673747 7.447528 -1.008334
v -0.735279 5.957676 -1.100423
v -0.815406 4.333897 -1.220341
v -0.902027 2.815462 -1.349978
v -0.972569 1.883892 -1.455551
v -1.151209 1.202515 -1.722906
v -1.491821 0.786495 -2.232667
v -1.942026 0.410425 -2.906447
v -0.427669 11.071865 -1.032483
v -0.437969 9.305268 -1.057352
v -0.464085 7.447529 -1.120401
v -0.506469 5.957676 -1.222725
v -0.561661 4.333897 -1.355971
v -0.621327 2.815462 -1.500015
v -0.669917 1.883892 -1.617322
v -0.792966 1.202515 -1.914390
v -1.027584 0.786495 -2.480807
v -1.337691 0.410425 -3.229471
v -0.218024 11.071865 -1.096079
v -0.223275 9.305268 -1.122478
v -0.236589 7.447529 -1.189411
v -0.258196 5.957676 -1.298038
v -0.286333 4.333897 -1.439491
v -0.316750 2.815462 -1.592408
v -0.341521 1.883892 -1.716940
v -0.404251 1.202515 -2.032306
v -0.523858 0.786495 -2.633610
v -0.681949 0.410425 -3.428388
vn -0.0000 0.9548 -0.2971
vn -0.0000 0.0022 -1.0000
vn 0.0580 0.9548 -0.2914
vn 0.1951 0.0022 -0.9808
vn 0.1137 0.9548 -0.2745
vn 0.3827 0.0022 -0.9239
vn 0.1651 0.9548 -0.2470
vn 0.5556 0.0022 -0.8315
vn 0.2101 0.9548 -0.2101
vn 0.7071 0.0022 -0.7071
vn 0.2470 0.9548 -0.1651
vn 0.8315 0.0022 -0.5556
vn 0.2745 0.9548 -0.1137
vn 0.9239 0.0022 -0.3827
vn 0.2914 0.9548 -0.0580
vn 0.9808 0.0022 -0.1951
vn 0.2971 0.9548 -0.0000
vn 1.0000 0.0022 -0.0000
vn 0.2914 0.9548 0.0580
vn 0.9808 0.0022 0.1951
vn 0.2745 0.9548 0.1137
vn 0.9239 0.0022 0.3827
vn 0.2470 0.9548 0.1651
vn 0.8315 0.0022 0.5556
vn 0.2101 0.9548 0.2101
vn 0.7071 0.0022 0.7071
vn 0.1651 0.9548 0.2470
vn 0.5556 0.0022 0.8315
vn 0.1137 0.9548 0.2745
vn 0.3827 0.0022 0.9239
vn 0.0580 0.9548 0.2914
vn 0.1951 0.0022 0.9808
vn -0.0000 0.9548 0.2971
vn -0.0000 0.0022 1.0000
vn -0.0580 0.9548 0.2914
vn -0.1951 0.0022 0.9808
vn -0.1137 0.9548 0.2745
vn -0.3827 0.0022 0.9239
vn -0.1651 0.9548 0.2470
vn -0.5556 0.0022 0.8315
vn -0.2101 0.9548 0.2101
vn -0.7071 0.0022 0.7071
vn -0.2470 0.9548 0.1651
vn -0.8315 0.0022 0.5556
vn -0.2745 0.9548 0.1137
vn -0.9239 0.0022 0.3827
vn -0.2914 0.9548 0.0580
vn -0.9808 0.0022 0.1951
vn -0.2971 0.9548 -0.0000
vn -1.0000 0.0022 -0.0000
vn -0.2914 0.9548 -0.0580
vn -0.9808 0.0022 -0.1951
vn -0.2745 0.9548 -0.1137
vn -0.9239 0.0022 -0.3827
vn -0.2470 0.9548 -0.1651
vn -0.8315 0.0022 -0.5556
vn -0.2101 0.9548 -0.2101
vn -0.7071 0.0022 -0.7071
vn -0.1651 0.9548 -0.2470
vn -0.5556 0.0022 -0.8315
vn -0.1137 0.9548 -0.2745
vn -0.3827 0.0022 -0.9239
vn -0.0580 0.9548 -0.2914
vn -0.1951 0.0022 -0.9808
vn -0.0000 0.9344 -0.3562
vn -0.0000 0.8723 -0.4890
vn -0.0000 0.6584 -0.7527
vn -0.0000 0.2868 -0.9580
vn -0.0000 0.1187 -0.9929
vn -0.0000 0.0954 -0.9954
vn -0.0000 0.0813 -0.9967
vn -0.0000 0.0555 -0.9985
vn -0.0000 0.0260 -0.9997
vn -0.0000 0.0087 -1.0000
vn 0.1951 0.0087 -0.9807
vn 0.1950 0.0260 -0.9805
vn 0.1948 0.0555 -0.9793
vn 0.1944 0.0813 -0.9775
vn 0.1942 0.0954 -0.9763
vn 0.1937 0.1187 -0.9738
vn 0.1869 0.2868 -0.9396
vn 0.1468 0.6584 -0.7382
vn 0.0954 0.8723 -0.4796
vn 0.0695 0.9344 -0.3494
vn 0.3827 0.0087 -0.9238
vn 0.3826 0.0260 -0.9236
vn 0.3821 0.0555 -0.9225
vn 0.3814 0.0813 -0.9208
vn 0.3809 0.0954 -0.9197
vn 0.3800 0.1187 -0.9173
vn 0.3666 0.2868 -0.8851
vn 0.2880 0.6584 -0.6954
vn 0.1871 0.8723 -0.4518
vn 0.1363 0.9344 -0.3291
vn 0.5555 0.0087 -0.8314
vn 0.5554 0.0260 -0.8312
vn 0.5547 0.0555 -0.8302
vn 0.5537 0.0813 -0.8287
vn 0.5530 0.0954 -0.8277
vn 0.5516 0.1187 -0.8256
vn 0.5322 0.2868 -0.7965
vn 0.4182 0.6584 -0.6258
vn 0.2717 0.8723 -0.4066
vn 0.1979 0.9344 -0.2962
vn 0.7071 0.0087 -0.7071
vn 0.7069 0.0260 -0.7069
vn 0.7060 0.0555 -0.7060
vn 0.7048 0.0813 -0.7048
vn 0.7039 0.0954 -0.7039
vn 0.7021 0.1187 -0.7021
vn 0.6774 0.2868 -0.6774
vn 0.5322 0.6584 -0.5322
vn 0.3458 0.8723 -0.3458
vn 0.2519 0.9344 -0.2519
vn 0.8314 0.0087 -0.5555
vn 0.8312 0.0260 -0.5554
vn 0.8302 0.0555 -0.5547
vn 0.8287 0.0813 -0.5537
vn 0.8277 0.0954 -0.5530
vn 0.8256 0.1187 -0.5516
vn 0.7965 0.2868 -0.5322
vn 0.6258 0.6584 -0.4182
vn 0.4066 0.8723 -0.2717
vn 0.2962 0.9344 -0.1979
vn 0.9238 0.0087 -0.3827
vn 0.9236 0.0260 -0.3826
vn 0.9225 0.0555 -0.3821
vn 0.9208 0.0813 -0.3814
vn 0.9197 0.0954 -0.3809
vn 0.9173 0.1187 -0.3800
vn 0.8851 0.2868 -0.3666
vn 0.6954 0.6584 -0.2880
vn 0.4518 0.8723 -0.1871
vn 0.3291 0.9344 -0.1363
vn 0.9807 0.0087 -0.1951
vn 0.9805 0.0260 -0.1950
vn 0.9793 0.0555 -0.1948
vn 0.9775 0.0813 -0.1944
vn 0.9763 0.0954 -0.1942
vn 0.9738 0.1187 -0.1937
vn 0.9396 0.2868 -0.1869
vn 0.7382 0.6584 -0.1468
vn 0.4796 0.8723 -0.0954
vn 0.3494 0.9344 -0.0695
vn 1.0000 0.0087 -0.0000
vn 0.9997 0.0260 -0.0000
vn 0.9985 0.0555 -0.0000
vn 0.9967 0.0813 -0.0000
vn 0.9954 0.0954 -0.0000
vn 0.9929 0.1187 -0.0000
vn 0.9580 0.2868 -0.0000
vn 0.7527 0.6584 -0.0000
vn 0.4890 0.8723 -0.0000
vn 0.3562 0.9344 -0.0000
vn 0.9807 0.0087 0.1951
vn 0.9805 0.0260 0.1950
vn 0.9793 0.0555 0.1948
vn 0.9775 0.0813 0.1944
vn 0.9763 0.0954 0.1942
vn 0.9738 0.1187 0.1937
vn 0.9396 0.2868 0.1869
vn 0.7382 0.6584 0.1468
vn 0.4796 0.8723 0.0954
vn 0.3494 0.9344 0.0695
vn 0.9238 0.0087 0.3827
vn 0.9236 0.0260 0.3826
vn 0.9225 0.0555 0.3821
vn 0.9208 0.0813 0.3814
vn 0.9197 0.0954 0.3809
vn 0.9173 0.1187 0.3800
vn 0.8851 0.2868 0.3666
vn 0.6954 0.6584 0.2880
vn 0.4518 0.8723 0.1871
vn 0.3291 0.9344 0.1363
vn 0.8314 0.0087 0.5555
vn 0.8312 0.0260 0.5554
vn 0.8302 0.0555 0.5547
vn 0.8287 0.0813 0.5537
vn 0.8277 0.0954 0.5530
vn 0.8256 0.1187 0.5516
vn 0.7965 0.2868 0.5322
vn 0.6258 0.6584 0.4182
vn 0.4066 0.8723 0.2717
vn 0.2962 0.9344 0.1979
vn 0.7071 0.0087 0.7071
vn 0.7069 0.0260 0.7069
vn 0.7060 0.0555 0.7060
vn 0.7048 0.0813 0.7048
vn 0.7039 0.0954 0.7039
vn 0.7021 0.1187 0.7021
vn 0.6774 0.2868 0.6774
vn 0.5322 0.6584 0.5322
vn 0.3458 0.8723 0.3458
vn 0.2519 0.9344 0.2519
vn 0.5555 0.0087 0.8314
vn 0.5554 0.0260 0.8312
vn 0.5547 0.0555 0.8302
vn 0.5537 0.0813 0.8287
vn 0.5530 0.0954 0.8277
vn 0.5516 0.1187 0.8256
vn 0.5322 0.2868 0.7965
vn 0.4182 0.6584 0.6258
vn 0.2717 0.8723 0.4066
vn 0.1979 0.9344 0.2962
vn 0.3827 0.0087 0.9238
vn 0.3826 0.0260 0.9236
vn 0.3821 0.0555 0.9225
vn 0.3814 0.0813 0.9208
vn 0.3809 0.0954 0.9197
vn 0.3800 0.1187 0.9173
vn 0.3666 0.2868 0.8851
vn 0.2880 0.6584 0.6954
vn 0.1871 0.8723 0.4518
vn 0.1363 0.9344 0.3291
vn 0.1951 0.0087 0.9807
vn 0.1950 0.0260 0.9805
vn 0.1948 0.0555 0.9793
vn 0.1944 0.0813 0.9775
vn 0.1942 0.0954 0.9763
vn 0.1937 0.1187 0.9738
vn 0.1869 0.2868 0.9396
vn 0.1468 0.6584 0.7382
vn 0.0954 0.8723 0.4796
vn 0.0695 0.9344 0.3494
vn -0.0000 0.0087 1.0000
vn -0.0000 0.0260 0.9997
vn -0.0000 0.0555 0.9985
vn -0.0000 0.0813 0.9967
vn -0.0000 0.0954 0.9954
vn -0.0000 0.1187 0.9929
vn -0.0000 0.2868 0.9580
vn -0.0000 0.6584 0.7527
vn -0.0000 0.8723 0.4890
vn -0.0000 0.9344 0.3562
vn -0.1951 0.0087 0.9807
vn -0.1950 0.0260 0.9805
vn -0.1948 0.0555 0.9793
vn -0.1944 0.0813 0.9775
vn -0.1942 0.0954 0.9763
vn -0.1937 0.1187 0.9738
vn -0.1869 0.2868 0.9396
vn -0.1468 0.6584 0.7382
vn -0.0954 0.8723 0.4796
vn -0.0695 0.9344 0.3494
vn -0.3827 0.0087 0.9238
vn -0.3826 0.0260 0.9236
vn -0.3821 0.0555 0.9225
vn -0.3814 0.0813 0.9208
vn -0.3809 0.0954 0.9197
vn -0.3800 0.1187 0.9173
vn -0.3666 0.2868 0.8851
vn -0.2880 0.6584 0.6954
vn -0.1871 0.8723 0.4518
vn -0.1363 0.9344 0.3291
vn -0.5555 0.0087 0.8314
vn -0.5554 0.0260 0.8312
vn -0.5547 0.0555 0.8302
vn -0.5537 0.0813 0.8287
vn -0.5530 0.0954 0.8277
vn -0.5516 0.1187 0.8256
vn -0.5322 0.2868 0.7965
vn -0.4182 0.6584 0.6258
vn -0.2717 0.8723 0.4066
vn -0.1979 0.9344 0.2962
vn -0.7071 0.0087 0.7071
vn -0.7069 0.0260 0.7069
vn -0.7060 0.0555 0.7060
vn -0.7048 0.0813 0.7048
vn -0.7039 0.0954 0.7039
vn -0.7021 0.1187 0.7021
vn -0.6774 0.2868 0.6774
vn -0.5322 0.6584 0.5322
vn -0.3458 0.8723 0.3458
vn -0.2519 0.9344 0.2519
vn -0.8314 0.0087 0.5555
vn -0.8312 0.0260 0.5554
vn -0.8302 0.0555 0.5547
vn -0.8287 0.0813 0.5537
vn -0.8277 0.0954 0.5530
vn -0.8256 0.1187 0.5516
vn -0.7965 0.2868 0.5322
vn -0.6258 0.6584 0.4182
vn -0.4066 0.8723 0.2717
vn -0.2962 0.9344 0.1979
vn -0.9238 0.0087 0.3827
vn -0.9236 0.0260 0.3826
vn -0.9225 0.0555 0.3821
vn -0.9208 0.0813 0.3814
vn -0.9197 0.0954 0.3809
vn -0.9173 0.1187 0.3800
vn -0.8851 0.2868 0.3666
vn -0.6954 0.6584 0.2880
vn -0.4518 0.8723 0.1871
vn -0.3291 0.9344 0.1363
vn -0.9807 0.0087 0.1951
vn -0.9805 0.0260 0.1950
vn -0.9793 0.0555 0.1948
vn -0.9775 0.0813 0.1944
vn -0.9763 0.0954 0.1942
vn -0.9738 0.1187 0.1937
vn -0.9396 0.2868 0.1869
vn -0.7382 0.6584 0.1468
vn -0.4796 0.8723 0.0954
vn -0.3494 0.9344 0.0695
vn -1.0000 0.0087 -0.0000
vn -0.9997 0.0260 -0.0000
vn -0.9985 0.0555 -0.0000
vn -0.9967 0.0813 -0.0000
vn -0.9954 0.0954 -0.0000
vn -0.9929 0.1187 -0.0000
vn -0.9580 0.2868 -0.0000
vn -0.7527 0.6584 -0.0000
vn -0.4890 0.8723 -0.0000
vn -0.3562 0.9344 -0.0000
vn -0.9807 0.0087 -0.1951
vn -0.9805 0.0260 -0.1950
vn -0.9793 0.0555 -0.1948
vn -0.9775 0.0813 -0.1944
vn -0.9763 0.0954 -0.1942
vn -0.9738 0.1187 -0.1937
vn -0.9396 0.2868 -0.1869
vn -0.7382 0.6584 -0.1468
vn -0.4796 0.8723 -0.0954
vn -0.3494 0.9344 -0.0695
vn -0.9238 0.0087 -0.3827
vn -0.9236 0.0260 -0.3826
vn -0.9225 0.0555 -0.3821
vn -0.9208 0.0813 -0.3814
vn -0.9197 0.0954 -0.3809
vn -0.9173 0.1187 -0.3800
vn -0.8851 0.2868 -0.3666
vn -0.6954 0.6584 -0.2880
vn -0.4518 0.8723 -0.1871
vn -0.3291 0.9344 -0.1363
vn -0.8314 0.0087 -0.5555
vn -0.8312 0.0260 -0.5554
vn -0.8302 0.0555 -0.5547
vn -0.8287 0.0813 -0.5537
vn -0.8277 0.0954 -0.5530
vn -0.8256 0.1187 -0.5516
vn -0.7965 0.2868 -0.5322
vn -0.6258 0.6584 -0.4182
vn -0.4066 0.8723 -0.2717
vn -0.2962 0.9344 -0.1979
vn -0.7071 0.0087 -0.7071
vn -0.7069 0.0260 -0.7069
vn -0.7060 0.0555 -0.7060
vn -0.7048 0.0813 -0.7048
vn -0.7039 0.0954 -0.7039
vn -0.7021 0.1187 -0.7021
vn -0.6774 0.2868 -0.6774
vn -0.5322 0.6584 -0.5322
vn -0.3458 0.8723 -0.3458
vn -0.2519 0.9344 -0.2519
vn -0.5555 0.0087 -0.8314
vn -0.5554 0.0260 -0.8312
vn -0.5547 0.0555 -0.8302
vn -0.5537 0.0813 -0.8287
vn -0.5530 0.0954 -0.8277
vn -0.5516 0.1187 -0.8256
vn -0.5322 0.2868 -0.7965
vn -0.4182 0.6584 -0.6258
vn -0.2717 0.8723 -0.4066
vn -0.1979 0.9344 -0.2962
vn -0.3827 0.0087 -0.9238
vn -0.3826 0.0260 -0.9236
vn -0.3821 0.0555 -0.9225
vn -0.3814 0.0813 -0.9208
vn -0.3809 0.0954 -0.9197
vn -0.3800 0.1187 -0.9173
vn -0.3666 0.2868 -0.8851
vn -0.2880 0.6584 -0.6954
vn -0.1871 0.8723 -0.4518
vn -0.1363 0.9344 -0.3291
vn -0.1951 0.0087 -0.9807
vn -0.1950 0.0260 -0.9805
vn -0.1948 0.0555 -0.9793
vn -0.1944 0.0813 -0.9775
vn -0.1942 0.0954 -0.9763
vn -0.1937 0.1187 -0.9738
vn -0.1869 0.2868 -0.9396
vn -0.1468 0.6584 -0.7382
vn -0.0954 0.8723 -0.4796
vn -0.0695 0.9344 -0.3494
vt 1.000000 0.909091
vt 1.000000 1.000000
vt 0.968750 1.000000
vt 0.968750 0.909091
vt 0.937500 1.000000
vt 0.937500 0.909091
vt 0.906250 1.000000
vt 0.906250 0.909091
vt 0.875000 1.000000
vt 0.875000 0.909091
vt 0.843750 1.000000
vt 0.843750 0.909091
vt 0.812500 1.000000
vt 0.812500 0.909091
vt 0.781250 1.000000
vt 0.781250 0.909091
vt 0.750000 1.000000
vt 0.750000 0.909091
vt 0.718750 1.000000
vt 0.718750 0.909091
vt 0.687500 1.000000
vt 0.687500 0.909091
vt 0.656250 1.000000
vt 0.656250 0.909091
vt 0.625000 1.000000
vt 0.625000 0.909091
vt 0.593750 1.000000
vt 0.593750 0.909091
vt 0.562500 1.000000
vt 0.562500 0.909091
vt 0.531250 1.000000
vt 0.531250 0.909091
vt 0.500000 1.000000
vt 0.500000 0.909091
vt 0.468750 1.000000
vt 0.468750 0.909091
vt 0.437500 1.000000
vt 0.437500 0.909091
vt 0.406250 1.000000
vt 0.406250 0.909091
vt 0.375000 1.000000
vt 0.375000 0.909091
vt 0.343750 1.000000
vt 0.343750 0.909091
vt 0.312500 1.000000
vt 0.312500 0.909091
vt 0.281250 1.000000
vt 0.281250 0.909091
vt 0.250000 1.000000
vt 0.250000 0.909091
vt 0.218750 1.000000
vt 0.218750 0.909091
vt 0.187500 1.000000
vt 0.187500 0.909091
vt 0.156250 1.000000
vt 0.156250 0.909091
vt 0.125000 1.000000
vt 0.125000 0.909091
vt 0.093750 1.000000
vt 0.093750 0.909091
vt 0.062500 1.000000
vt 0.062500 0.909091
vt 0.031250 1.000000
vt 0.031250 0.909091
vt 0.000000 1.000000
vt 0.000000 0.909091
vt 0.031250 0.000000
vt 0.031250 0.055096
vt 0.000000 0.055096
vt 0.000000 0.000000
vt 0.031250 0.129994
vt 0.000000 0.129994
vt 0.031250 0.238095
vt 0.000000 0.238095
vt 0.031250 0.363636
vt 0.000000 0.363636
vt 0.031250 0.454545
vt 0.000000 0.454545
vt 0.031250 0.545455
vt 0.000000 0.545455
vt 0.031250 0.636364
vt 0.000000 0.636364
vt 0.031250 0.727273
vt 0.000000 0.727273
vt 0.031250 0.818182
vt 0.000000 0.818182
vt 0.062500 0.000000
vt 0.062500 0.055096
vt 0.062500 0.129994
vt 0.062500 0.238095
vt 0.062500 0.363636
vt 0.062500 0.454545
vt 0.062500 0.545455
vt 0.062500 0.636364
vt 0.062500 0.727273
vt 0.062500 0.818182
vt 0.093750 0.000000
vt 0.093750 0.055096
vt 0.093750 0.129994
vt 0.093750 0.238095
vt 0.093750 0.363636
vt 0.093750 0.454545
vt 0.093750 0.545455
vt 0.093750 0.636364
vt 0.093750 0.727273
vt 0.093750 0.818182
vt 0.125000 0.000000
vt 0.125000 0.055096
vt 0.125000 0.129994
vt 0.125000 0.238095
vt 0.125000 0.363636
vt 0.125000 0.454545
vt 0.125000 0.545455
vt 0.125000 0.636364
vt 0.125000 0.727273
vt 0.125000 0.818182
vt 0.156250 0.000000
vt 0.156250 0.055096
vt 0.156250 0.129994
vt 0.156250 0.238095
vt 0.156250 0.363636
vt 0.156250 0.454545
vt 0.156250 0.545455
vt 0.156250 0.636364
vt 0.156250 0.727273
vt 0.156250 0.818182
vt 0.187500 0.000000
vt 0.187500 0.055096
vt 0.187500 0.129994
vt 0.187500 0.238095
vt 0.187500 0.363636
vt 0.187500 0.454545
vt 0.187500 0.545455
vt 0.187500 0.636364
vt 0.187500 0.727273
vt 0.187500 0.818182
vt 0.218750 0.000000
vt 0.218750 0.055096
vt 0.218750 0.129994
vt 0.218750 0.238095
vt 0.218750 0.363636
vt 0.218750 0.454545
vt 0.218750 0.545455
vt 0.218750 0.636364
vt 0.218750 0.727273
vt 0.218750 0.818182
vt 0.250000 0.000000
vt 0.250000 0.055096
vt 0.250000 0.129994
vt 0.250000 0.238095
vt 0.250000 0.363636
vt 0.250000 0.454545
vt 0.250000 0.545455
vt 0.250000 0.636364
vt 0.250000 0.727273
vt 0.250000 0.818182
vt 0.281250 0.000000
vt 0.281250 0.055096
vt 0.281250 0.129994
vt 0.281250 0.238095
vt 0.281250 0.363636
vt 0.281250 0.454545
vt 0.281250 0.545455
vt 0.281250 0.636364
vt 0.281250 0.727273
vt 0.281250 0.818182
vt 0.312500 0.000000
vt 0.312500 0.055096
vt 0.312500 0.129994
vt 0.312500 0.238095
vt 0.312500 0.363636
vt 0.312500 0.454545
vt 0.312500 0.545455
vt 0.312500 0.636364
vt 0.312500 0.727273
vt 0.312500 0.818182
vt 0.343750 0.000000
vt 0.343750 0.055096
vt 0.343750 0.129994
vt 0.343750 0.238095
vt 0.343750 0.363636
vt 0.343750 0.454545
vt 0.343750 0.545455
vt 0.343750 0.636364
vt 0.343750 0.727273
vt 0.343750 0.818182
vt 0.375000 0.000000
vt 0.375000 0.055096
vt 0.375000 0.129994
vt 0.375000 0.238095
vt 0.375000 0.363636
vt 0.375000 0.454545
vt 0.375000 0.545455
vt 0.375000 0.636364
vt 0.375000 0.727273
vt 0.375000 0.818182
vt 0.406250 0.000000
vt 0.406250 0.055096
vt 0.406250 0.129994
vt 0.406250 0.238095
vt 0.406250 0.363636
vt 0.406250 0.454545
vt 0.406250 0.545455
vt 0.406250 0.636364
vt 0.406250 0.727273
vt 0.406250 0.818182
vt 0.437500 0.000000
vt 0.437500 0.055096
vt 0.437500 0.129994
vt 0.437500 0.238095
vt 0.437500 0.363636
vt 0.437500 0.454545
vt 0.437500 0.545455
vt 0.437500 0.636364
vt 0.437500 0.727273
vt 0.437500 0.818182
vt 0.468750 0.000000
vt 0.468750 0.055096
vt 0.468750 0.129994
vt 0.468750 0.238095
vt 0.468750 0.363636
vt 0.468750 0.454545
vt 0.468750 0.545455
vt 0.468750 0.636364
vt 0.468750 0.727273
vt 0.468750 0.818182
vt 0.500000 0.000000
vt 0.500000 0.055096
vt 0.500000 0.129994
vt 0.500000 0.238095
vt 0.500000 0.363636
vt 0.500000 0.454545
vt 0.500000 0.545455
vt 0.500000 0.636364
vt 0.500000 0.727273
vt 0.500000 0.818182
vt 0.531250 0.000000
vt 0.531250 0.055096
vt 0.531250 0.129994
vt 0.531250 0.238095
vt 0.531250 0.363636
vt 0.531250 0.454545
vt 0.531250 0.545455
vt 0.531250 0.636364
vt 0.531250 0.727273
vt 0.531250 0.818182
vt 0.562500 0.000000
vt 0.562500 0.055096
vt 0.562500 0.129994
vt 0.562500 0.238095
vt 0.562500 0.363636
vt 0.562500 0.454545
vt 0.562500 0.545455
vt 0.562500 0.636364
vt 0.562500 0.727273
vt 0.562500 0.818182
vt 0.593750 0.000000
vt 0.593750 0.055096
vt 0.593750 0.129994
vt 0.593750 0.238095
vt 0.593750 0.363636
vt 0.593750 0.454545
vt 0.593750 0.545455
vt 0.593750 0.636364
vt 0.593750 0.727273
vt 0.593750 0.818182
vt 0.625000 0.000000
vt 0.625000 0.055096
vt 0.625000 0.129994
vt 0.625000 0.238095
vt 0.625000 0.363636
vt 0.625000 0.454545
vt 0.625000 0.545455
vt 0.625000 0.636364
vt 0.625000 0.727273
vt 0.625000 0.818182
vt 0.656250 0.000000
vt 0.656250 0.055096
vt 0.656250 0.129994
vt 0.656250 0.238095
vt 0.656250 0.363636
vt 0.656250 0.454545
vt 0.656250 0.545455
vt 0.656250 0.636364
vt 0.656250 0.727273
vt 0.656250 0.818182
vt 0.687500 0.000000
vt 0.687500 0.055096
vt 0.687500 0.129994
vt 0.687500 0.238095
vt 0.687500 0.363636
vt 0.687500 0.454545
vt 0.687500 0.545455
vt 0.687500 0.636364
vt 0.687500 0.727273
vt 0.687500 0.818182
vt 0.718750 0.000000
vt 0.718750 0.055096
vt 0.718750 0.129994
vt 0.718750 0.238095
vt 0.718750 0.363636
vt 0.718750 0.454545
vt 0.718750 0.545455
vt 0.718750 0.636364
vt 0.718750 0.727273
vt 0.718750 0.818182
vt 0.750000 0.000000
vt 0.750000 0.055096
vt 0.750000 0.129994
vt 0.750000 0.238095
vt 0.750000 0.363636
vt 0.750000 0.454545
vt 0.750000 0.545455
vt 0.750000 0.636364
vt 0.750000 0.727273
vt 0.750000 0.818182
vt 0.781250 0.000000
vt 0.781250 0.055096
vt 0.781250 0.129994
vt 0.781250 0.238095
vt 0.781250 0.363636
vt 0.781250 0.454545
vt 0.781250 0.545455
vt 0.781250 0.636364
vt 0.781250 0.727273
vt 0.781250 0.818182
vt 0.812500 0.000000
vt 0.812500 0.055096
vt 0.812500 0.129994
vt 0.812500 0.238095
vt 0.812500 0.363636
vt 0.812500 0.454545
vt 0.812500 0.545455
vt 0.812500 0.636364
vt 0.812500 0.727273
vt 0.812500 0.818182
vt 0.843750 0.000000
vt 0.843750 0.055096
vt 0.843750 0.129994
vt 0.843750 0.238095
vt 0.843750 0.363636
vt 0.843750 0.454545
vt 0.843750 0.545455
vt 0.843750 0.636364
vt 0.843750 0.727273
vt 0.843750 0.818182
vt 0.875000 0.000000
vt 0.875000 0.055096
vt 0.875000 0.129994
vt 0.875000 0.238095
vt 0.875000 0.363636
vt 0.875000 0.454545
vt 0.875000 0.545455
vt 0.875000 0.636364
vt 0.875000 0.727273
vt 0.875000 0.818182
vt 0.906250 0.000000
vt 0.906250 0.055096
vt 0.906250 0.129994
vt 0.906250 0.238095
vt 0.906250 0.363636
vt 0.906250 0.454545
vt 0.906250 0.545455
vt 0.906250 0.636364
vt 0.906250 0.727273
vt 0.906250 0.818182
vt 0.937500 0.000000
vt 0.937500 0.055096
vt 0.937500 0.129994
vt 0.937500 0.238095
vt 0.937500 0.363636
vt 0.937500 0.454545
vt 0.937500 0.545455
vt 0.937500 0.636364
vt 0.937500 0.727273
vt 0.937500 0.818182
vt 0.968750 0.000000
vt 0.968750 0.055096
vt 0.968750 0.129994
vt 0.968750 0.238095
vt 0.968750 0.363636
vt 0.968750 0.454545
vt 0.968750 0.545455
vt 0.968750 0.636364
vt 0.968750 0.727273
vt 0.968750 0.818182
vt 1.000000 0.000000
vt 1.000000 0.055096
vt 1.000000 0.129994
vt 1.000000 0.238095
vt 1.000000 0.363636
vt 1.000000 0.454545
vt 1.000000 0.545455
vt 1.000000 0.636364
vt 1.000000 0.727273
vt 1.000000 0.818182
s 1
f 74/1/74 2/2/2 4/3/4 75/4/75
f 75/4/75 4/3/4 6/5/6 85/6/85
f 85/6/85 6/5/6 8/7/8 95/8/95
f 95/8/95 8/7/8 10/9/10 105/10/105
f 105/10/105 10/9/10 12/11/12 115/12/115
f 115/12/115 12/11/12 14/13/14 125/14/125
f 125/14/125 14/13/14 16/15/16 135/16/135
f 135/16/135 16/15/16 18/17/18 145/18/145
f 145/18/145 18/17/18 20/19/20 155/20/155
f 155/20/155 20/19/20 22/21/22 165/22/165
f 165/22/165 22/21/22 24/23/24 175/24/175
f 175/24/175 24/23/24 26/25/26 185/26/185
f 185/26/185 26/25/26 28/27/28 195/28/195
f 195/28/195 28/27/28 30/29/30 205/30/205
f 205/30/205 30/29/30 32/31/32 215/32/215
f 215/32/215 32/31/32 34/33/34 225/34/225
f 225/34/225 34/33/34 36/35/36 235/36/235
f 235/36/235 36/35/36 38/37/38 245/38/245
f 245/38/245 38/37/38 40/39/40 255/40/255
f 255/40/255 40/39/40 42/41/42 265/42/265
f 265/42/265 42/41/42 44/43/44 275/44/275
f 275/44/275 44/43/44 46/45/46 285/46/285
f 285/46/285 46/45/46 48/47/48 295/48/295
f 295/48/295 48/47/48 50/49/50 305/50/305
f 305/50/305 50/49/50 52/51/52 315/52/315
f 315/52/315 52/51/52 54/53/54 325/54/325
f 325/54/325 54/53/54 56/55/56 335/56/335
f 335/56/335 56/55/56 58/57/58 345/58/345
f 345/58/345 58/57/58 60/59/60 355/60/355
f 355/60/355 60/59/60 62/61/62 365/62/365
f 365/62/365 62/61/62 64/63/64 375/64/375
f 375/64/375 64/63/64 2/65/2 74/66/74
f 63/67/63 384/68/384 65/69/65 1/70/1
f 384/68/384 383/71/383 66/72/66 65/69/65
f 383/71/383 382/73/382 67/74/67 66/72/66
f 382/73/382 381/75/381 68/76/68 67/74/67
f 381/75/381 380/77/380 69/78/69 68/76/68
f 380/77/380 379/79/379 70/80/70 69/78/69
f 379/79/379 378/81/378 71/82/71 70/80/70
f 378/81/378 377/83/377 72/84/72 71/82/71
f 377/83/377 376/85/376 73/86/73 72/84/72
f 376/85/376 375/64/375 74/66/74 73/86/73
f 61/87/61 374/88/374 384/68/384 63/67/63
f 374/88/374 373/89/373 383/71/383 384/68/384
f 373/89/373 372/90/372 382/73/382 383/71/383
f 372/90/372 371/91/371 381/75/381 382/73/382
f 371/91/371 370/92/370 380/77/380 381/75/381
f 370/92/370 369/93/369 379/79/379 380/77/380
f 369/93/369 368/94/368 378/81/378 379/79/379
f 368/94/368 367/95/367 377/83/377 378/81/378
f 367/95/367 366/96/366 376/85/376 377/83/377
f 366/96/366 365/62/365 375/64/375 376/85/376
f 59/97/59 364/98/364 374/88/374 61/87/61
f 364/98/364 363/99/363 373/89/373 374/88/374
f 363/99/363 362/100/362 372/90/372 373/89/373
f 362/100/362 361/101/361 371/91/371 372/90/372
f 361/101/361 360/102/360 370/92/370 371/91/371
f 360/102/360 359/103/359 369/93/369 370/92/370
f 359/103/359 358/104/358 368/94/368 369/93/369
f 358/104/358 357/105/357 367/95/367 368/94/368
f 357/105/357 356/106/356 366/96/366 367/95/367
f 356/106/356 355/60/355 365/62/365 366/96/366
f 57/107/57 354/108/354 364/98/364 59/97/59
f 354/108/354 353/109/353 363/99/363 364/98/364
f 353/109/353 352/110/352 362/100/362 363/99/363
f 352/110/352 351/111/351 361/101/361 362/100/362
f 351/111/351 350/112/350 360/102/360 361/101/361
f 350/112/350 349/113/349 359/103/359 360/102/360
f 349/113/349 348/114/348 358/104/358 359/103/359
f 348/114/348 347/115/347 357/105/357 358/104/358
f 347/115/347 346/116/346 356/106/356 357/105/357
f 346/116/346 345/58/345 355/60/355 356/106/356
f 55/117/55 344/118/344 354/108/354 57/107/57
f 344/118/344 343/119/343 353/109/353 354/108/354
f 343/119/343 342/120/342 352/110/352 353/109/353
f 342/120/342 341/121/341 351/111/351 352/110/352
f 341/121/341 340/122/340 350/112/350 351/111/351
f 340/122/340 339/123/339 349/113/349 350/112/350
f 339/123/339 338/124/338 348/114/348 349/113/349
f 338/124/338 337/125/337 347/115/347 348/114/348
f 337/125/337 336/126/336 346/116/346 347/115/347
f 336/126/336 335/56/335 345/58/345 346/116/346
f 53/127/53 334/128/334 344/118/344 55/117/55
f 334/128/334 333/129/333 343/119/343 344/118/344
f 333/129/333 332/130/332 342/120/342 343/119/343
f 332/130/332 331/131/331 341/121/341 342/120/342
f 331/131/331 330/132/330 340/122/340 341/121/341
f 330/132/330 329/133/329 339/123/339 340/122/340
f 329/133/329 328/134/328 338/124/338 339/123/339
f 328/134/328 327/135/327 337/125/337 338/124/338
f 327/135/327 326/136/326 336/126/336 337/125/337
f 326/136/326 325/54/325 335/56/335 336/126/336
f 51/137/51 324/138/324 334/128/334 53/127/53
f 324/138/324 323/139/323 333/129/333 334/128/334
f 323/139/323 322/140/322 332/130/332 333/129/333
f 322/140/322 321/141/321 331/131/331 332/130/332
f 321/141/321 320/142/320 330/132/330 331/131/331
f 320/142/320 319/143/319 329/133/329 330/132/330
f 319/143/319 318/144/318 328/134/328 329/133/329
f 318/144/318 317/145/317 327/135/327 328/134/328
f 317/145/317 316/146/316 326/136/326 327/135/327
f 316/146/316 315/52/315 325/54/325 326/136/326
f 49/147/49 314/148/314 324/138/324 51/137/51
f 314/148/314 313/149/313 323/139/323 324/138/324
f 313/149/313 312/150/312 322/140/322 323/139/323
f 312/150/312 311/151/311 321/141/321 322/140/322
f 311/151/311 310/152/310 320/142/320 321/141/321
f 310/152/310 309/153/309 319/143/319 320/142/320
f 309/153/309 308/154/308 318/144/318 319/143/319
f 308/154/308 307/155/307 317/145/317 318/144/318
f 307/155/307 306/156/306 316/146/316 317/145/317
f 306/156/306 305/50/305 315/52/315 316/146/316
f 47/157/47 304/158/304 314/148/314 49/147/49
f 304/158/304 303/159/303 313/149/313 314/148/314
f 303/159/303 302/160/302 312/150/312 313/149/313
f 302/160/302 301/161/301 311/151/311 312/150/312
f 301/161/301 300/162/300 310/152/310 311/151/311
f 300/162/300 299/163/299 309/153/309 310/152/310
f 299/163/299 298/164/298 308/154/308 309/153/309
f 298/164/298 297/165/297 307/155/307 308/154/308
f 297/165/297 296/166/296 306/156/306 307/155/307
f 296/166/296 295/48/295 305/50/305 306/156/306
f 45/167/45 294/168/294 304/158/304 47/157/47
f 294/168/294 293/169/293 303/159/303 304/158/304
f 293/169/293 292/170/292 302/160/302 303/159/303
f 292/170/292 291/171/291 301/161/301 302/160/302
f 291/171/291 290/172/290 300/162/300 301/161/301
f 290/172/290 289/173/289 299/163/299 300/162/300
f 289/173/289 288/174/288 298/164/298 299/163/299
f 288/174/288 287/175/287 297/165/297 298/164/298
f 287/175/287 286/176/286 296/166/296 297/165/297
f 286/176/286 285/46/285 295/48/295 296/166/296
f 43/177/43 284/178/284 294/168/294 45/167/45
f 284/178/284 283/179/283 293/169/293 294/168/294
f 283/179/283 282/180/282 292/170/292 293/169/293
f 282/180/282 281/181/281 291/171/291 292/170/292
f 281/181/281 280/182/280 290/172/290 291/171/291
f 280/182/280 279/183/279 289/173/289 290/172/290
f 279/183/279 278/184/278 288/174/288 289/173/289
f 278/184/278 277/185/277 287/175/287 288/174/288
f 277/185/277 276/186/276 286/176/286 287/175/287
f 276/186/276 275/44/275 285/46/285 286/176/286
f 41/187/41 274/188/274 284/178/284 43/177/43
f 274/188/274 273/189/273 283/179/283 284/178/284
f 273/189/273 272/190/272 282/180/282 283/179/283
f 272/190/272 271/191/271 281/181/281 282/180/282
f 271/191/271 270/192/270 280/182/280 281/181/281
f 270/192/270 269/193/269 279/183/279 280/182/280
f 269/193/269 268/194/268 278/184/278 279/183/279
f 268/194/268 267/195/267 277/185/277 278/184/278
f 267/195/267 266/196/266 276/186/276 277/185/277
f 266/196/266 265/42/265 275/44/275 276/186/276
f 39/197/39 264/198/264 274/188/274 41/187/41
f 264/198/264 263/199/263 273/189/273 274/188/274
f 263/199/263 262/200/262 272/190/272 273/189/273
f 262/200/262 261/201/261 271/191/271 272/190/272
f 261/201/261 260/202/260 270/192/270 271/191/271
f 260/202/260 259/203/259 269/193/269 270/192/270
f 259/203/259 258/204/258 268/194/268 269/193/269
f 258/204/258 257/205/257 267/195/267 268/194/268
f 257/205/257 256/206/256 266/196/266 267/195/267
f 256/206/256 255/40/255 265/42/265 266/196/266
f 37/207/37 254/208/254 264/198/264 39/197/39
f 254/208/254 253/209/253 263/199/263 264/198/264
f 253/209/253 252/210/252 262/200/262 263/199/263
f 252/210/252 251/211/251 261/201/261 262/200/262
f 251/211/251 250/212/250 260/202/260 261/201/261
f 250/212/250 249/213/249 259/203/259 260/202/260
f 249/213/249 248/214/248 258/204/258 259/203/259
f 248/214/248 247/215/247 257/205/257 258/204/258
f 247/215/247 246/216/246 256/206/256 257/205/257
f 246/216/246 245/38/245 255/40/255 256/206/256
f 35/217/35 244/218/244 254/208/254 37/207/37
f 244/218/244 243/219/243 253/209/253 254/208/254
f 243/219/243 242/220/242 252/210/252 253/209/253
f 242/220/242 241/221/241 251/211/251 252/210/252
f 241/221/241 240/222/240 250/212/250 251/211/251
f 240/222/240 239/223/239 249/213/249 250/212/250
f 239/223/239 238/224/238 248/214/248 249/213/249
f 238/224/238 237/225/237 247/215/247 248/214/248
f 237/225/237 236/226/236 246/216/246 247/215/247
f 236/226/236 235/36/235 245/38/245 246/216/246
f 33/227/33 234/228/234 244/218/244 35/217/35
f 234/228/234 233/229/233 243/219/243 244/218/244
f 233/229/233 232/230/232 242/220/242 243/219/243
f 232/230/232 231/231/231 241/221/241 242/220/242
f 231/231/231 230/232/230 240/222/240 241/221/241
f 230/232/230 229/233/229 239/223/239 240/222/240
f 229/233/229 228/234/228 238/224/238 239/223/239
f 228/234/228 227/235/227 237/225/237 238/224/238
f 227/235/227 226/236/226 236/226/236 237/225/237
f 226/236/226 225/34/225 235/36/235 236/226/236
f 31/237/31 224/238/224 234/228/234 33/227/33
f 224/238/224 223/239/223 233/229/233 234/228/234
f 223/239/223 222/240/222 232/230/232 233/229/233
f 222/240/222 221/241/221 231/231/231 232/230/232
f 221/241/221 220/242/220 230/232/230 231/231/231
f 220/242/220 219/243/219 229/233/229 230/232/230
f 219/243/219 218/244/218 228/234/228 229/233/229
f 218/244/218 217/245/217 227/235/227 228/234/228
f 217/245/217 216/246/216 226/236/226 227/235/227
f 216/246/216 215/32/215 225/34/225 226/236/226
f 29/247/29 214/248/214 224/238/224 31/237/31
f 214/248/214 213/249/213 223/239/223 224/238/224
f 213/249/213 212/250/212 222/240/222 223/239/223
f 212/250/212 211/251/211 221/241/221 222/240/222
f 211/251/211 210/252/210 220/242/220 221/241/221
f 210/252/210 209/253/209 219/243/219 220/242/220
f 209/253/209 208/254/208 218/244/218 219/243/219
f 208/254/208 207/255/207 217/245/217 218/244/218
f 207/255/207 206/256/206 216/246/216 217/245/217
f 206/256/206 205/30/205 215/32/215 216/246/216
f 27/257/27 204/258/204 214/248/214 29/247/29
f 204/258/204 203/259/203 213/249/213 214/248/214
f 203/259/203 202/260/202 212/250/212 213/249/213
f 202/260/202 201/261/201 211/251/211 212/250/212
f 201/261/201 200/262/200 210/252/210 211/251/211
f 200/262/200 199/263/199 209/253/209 210/252/210
f 199/263/199 198/264/198 208/254/208 209/253/209
f 198/264/198 197/265/197 207/255/207 208/254/208
f 197/265/197 196/266/196 206/256/206 207/255/207
f 196/266/196 195/28/195 205/30/205 206/256/206
f 25/267/25 194/268/194 204/258/204 27/257/27
f 194/268/194 193/269/193 203/259/203 204/258/204
f 193/269/193 192/270/192 202/260/202 203/259/203
f 192/270/192 191/271/191 201/261/201 202/260/202
f 191/271/191 190/272/190 200/262/200 201/261/201
f 190/272/190 189/273/189 199/263/199 200/262/200
f 189/273/189 188/274/188 198/264/198 199/263/199
f 188/274/188 187/275/187 197/265/197 198/264/198
f 187/275/187 186/276/186 196/266/196 197/265/197
f 186/276/186 185/26/185 195/28/195 196/266/196
f 23/277/23 184/278/184 194/268/194 25/267/25
f 184/278/184 183/279/183 193/269/193 194/268/194
f 183/279/183 182/280/182 192/270/192 193/269/193
f 182/280/182 181/281/181 191/271/191 192/270/192
f 181/281/181 180/282/180 190/272/190 191/271/191
f 180/282/180 179/283/179 189/273/189 190/272/190
f 179/283/179 178/284/178 188/274/188 189/273/189
f 178/284/178 177/285/177 187/275/187 188/274/188
f 177/285/177 176/286/176 186/276/186 187/275/187
f 176/286/176 175/24/175 185/26/185 186/276/186
f 21/287/21 174/288/174 184/278/184 23/277/23
f 174/288/174 173/289/173 183/279/183 184/278/184
f 173/289/173 172/290/172 182/280/182 183/279/183
f 172/290/172 171/291/171 181/281/181 182/280/182
f 171/291/171 170/292/170 180/282/180 181/281/181
f 170/292/170 169/293/169 179/283/179 180/282/180
f 169/293/169 168/294/168 178/284/178 179/283/179
f 168/294/168 167/295/167 177/285/177 178/284/178
f 167/295/167 166/296/166 176/286/176 177/285/177
f 166/296/166 165/22/165 175/24/175 176/286/176
f 19/297/19 164/298/164 174/288/174 21/287/21
f 164/298/164 163/299/163 173/289/173 174/288/174
f 163/299/163 162/300/162 172/290/172 173/289/173
f 162/300/162 161/301/161 171/291/171 172/290/172
f 161/301/161 160/302/160 170/292/170 171/291/171
f 160/302/160 159/303/159 169/293/169 170/292/170
f 159/303/159 158/304/158 168/294/168 169/293/169
f 158/304/158 157/305/157 167/295/167 168/294/168
f 157/305/157 156/306/156 166/296/166 167/295/167
f 156/306/156 155/20/155 165/22/165 166/296/166
f 17/307/17 154/308/154 164/298/164 19/297/19
f 154/308/154 153/309/153 163/299/163 164/298/164
f 153/309/153 152/310/152 162/300/162 163/299/163
f 152/310/152 151/311/151 161/301/161 162/300/162
f 151/311/151 150/312/150 160/302/160 161/301/161
f 150/312/150 149/313/149 159/303/159 160/302/160
f 149/313/149 148/314/148 158/304/158 159/303/159
f 148/314/148 147/315/147 157/305/157 158/304/158
f 147/315/147 146/316/146 156/306/156 157/305/157
f 146/316/146 145/18/145 155/20/155 156/306/156
f 15/317/15 144/318/144 154/308/154 17/307/17
f 144/318/144 143/319/143 153/309/153 154/308/154
f 143/319/143 142/320/142 152/310/152 153/309/153
f 142/320/142 141/321/141 151/311/151 152/310/152
f 141/321/141 140/322/140 150/312/150 151/311/151
f 140/322/140 139/323/139 149/313/149 150/312/150
f 139/323/139 138/324/138 148/314/148 149/313/149
f 138/324/138 137/325/137 147/315/147 148/314/148
f 137/325/137 136/326/136 146/316/146 147/315/147
f 136/326/136 135/16/135 145/18/145 146/316/146
f 13/327/13 134/328/134 144/318/144 15/317/15
f 134/328/134 133/329/133 143/319/143 144/318/144
f 133/329/133 132/330/132 142/320/142 143/319/143
f 132/330/132 131/331/131 141/321/141 142/320/142
f 131/331/131 130/332/130 140/322/140 141/321/141
f 130/332/130 129/333/129 139/323/139 140/322/140
f 129/333/129 128/334/128 138/324/138 139/323/139
f 128/334/128 127/335/127 137/325/137 138/324/138
f 127/335/127 126/336/126 136/326/136 137/325/137
f 126/336/126 125/14/125 135/16/135 136/326/136
f 11/337/11 124/338/124 134/328/134 13/327/13
f 124/338/124 123/339/123 133/329/133 134/328/134
f 123/339/123 122/340/122 132/330/132 133/329/133
f 122/340/122 121/341/121 131/331/131 132/330/132
f 121/341/121 120/342/120 130/332/130 131/331/131
f 120/342/120 119/343/119 129/333/129 130/332/130
f 119/343/119 118/344/118 128/334/128 129/333/129
f 118/344/118 117/345/117 127/335/127 128/334/128
f 117/345/117 116/346/116 126/336/126 127/335/127
f 116/346/116 115/12/115 125/14/125 126/336/126
f 9/347/9 114/348/114 124/338/124 11/337/11
f 114/348/114 113/349/113 123/339/123 124/338/124
f 113/349/113 112/350/112 122/340/122 123/339/123
f 112/350/112 111/351/111 121/341/121 122/340/122
f 111/351/111 110/352/110 120/342/120 121/341/121
f 110/352/110 109/353/109 119/343/119 120/342/120
f 109/353/109 108/354/108 118/344/118 119/343/119
f 108/354/108 107/355/107 117/345/117 118/344/118
f 107/355/107 106/356/106 116/346/116 117/345/117
f 106/356/106 105/10/105 115/12/115 116/346/116
f 7/357/7 104/358/104 114/348/114 9/347/9
f 104/358/104 103/359/103 113/349/113 114/348/114
f 103/359/103 102/360/102 112/350/112 113/349/113
f 102/360/102 101/361/101 111/351/111 112/350/112
f 101/361/101 100/362/100 110/352/110 111/351/111
f 100/362/100 99/363/99 109/353/109 110/352/110
f 99/363/99 98/364/98 108/354/108 109/353/109
f 98/364/98 97/365/97 107/355/107 108/354/108
f 97/365/97 96/366/96 106/356/106 107/355/107
f 96/366/96 95/8/95 105/10/105 106/356/106
f 5/367/5 94/368/94 104/358/104 7/357/7
f 94/368/94 93/369/93 103/359/103 104/358/104
f 93/369/93 92/370/92 102/360/102 103/359/103
f 92/370/92 91/371/91 101/361/101 102/360/102
f 91/371/91 90/372/90 100/362/100 101/361/101
f 90/372/90 89/373/89 99/363/99 100/362/100
f 89/373/89 88/374/88 98/364/98 99/363/99
f 88/374/88 87/375/87 97/365/97 98/364/98
f 87/375/87 86/376/86 96/366/96 97/365/97
f 86/376/86 85/6/85 95/8/95 96/366/96
f 3/377/3 84/378/84 94/368/94 5/367/5
f 84/378/84 83/379/83 93/369/93 94/368/94
f 83/379/83 82/380/82 92/370/92 93/369/93
f 82/380/82 81/381/81 91/371/91 92/370/92
f 81/381/81 80/382/80 90/372/90 91/371/91
f 80/382/80 79/383/79 89/373/89 90/372/90
f 79/383/79 78/384/78 88/374/88 89/373/89
f 78/384/78 77/385/77 87/375/87 88/374/88
f 77/385/77 76/386/76 86/376/86 87/375/87
f 76/386/76 75/4/75 85/6/85 86/376/86
f 1/387/1 65/388/65 84/378/84 3/377/3
f 65/388/65 66/389/66 83/379/83 84/378/84
f 66/389/66 67/390/67 82/380/82 83/379/83
f 67/390/67 68/391/68 81/381/81 82/380/82
f 68/391/68 69/392/69 80/382/80 81/381/81
f 69/392/69 70/393/70 79/383/79 80/382/80
f 70/393/70 71/394/71 78/384/78 79/383/79
f 71/394/71 72/395/72 77/385/77 78/384/78
f 72/395/72 73/396/73 76/386/76 77/385/77
f 73/396/73 74/1/74 75/4/75 76/386/76
