# Blender 4.5.1 LTS
# www.blender.org
o Sphere
v -0.350842 0.700103 -0.621905
v -0.240982 0.422892 -0.873550
v -0.094434 0.081300 -0.992206
v 0.217294 -0.585129 -0.781286
v -0.261318 0.956409 0.130362
v -0.147839 0.958708 -0.242945
v -0.011852 0.815052 -0.579266
v 0.125938 0.547312 -0.827399
v 0.244556 0.196249 -0.949567
v 0.325944 -0.184692 -0.927173
v 0.357709 -0.537515 -0.763625
v -0.128242 0.972137 0.196228
v 0.098055 0.987768 -0.121241
v 0.309425 0.853021 -0.420252
v 0.473686 0.588409 -0.655283
v 0.565834 0.234218 -0.790553
v 0.571838 -0.155632 -0.805469
v 0.490785 -0.521788 -0.697759
v -0.022762 0.953583 0.300270
v 0.292957 0.953485 0.071005
v 0.564076 0.808228 -0.169071
v 0.749320 0.539927 -0.383406
v 0.820485 0.189425 -0.539372
v 0.766739 -0.189915 -0.613223
v 0.596265 -0.540341 -0.593717
v 0.039063 0.903573 0.426650
v 0.407195 0.861080 0.304524
v 0.713335 0.687494 0.136037
v 0.910875 0.409245 -0.053160
v 0.969743 0.068691 -0.234264
v 0.880977 -0.282320 -0.379704
v 0.658090 -0.590351 -0.467337
v 0.047820 0.829721 0.556128
v 0.423375 0.724618 0.543766
v 0.734475 0.509198 0.448623
v 0.933758 0.216258 0.285180
v 0.990884 -0.109605 0.078322
v 0.897158 -0.418782 -0.140461
v 0.666847 -0.664204 -0.337860
v 0.002177 0.743269 0.668989
v 0.339037 0.564876 0.752309
v 0.624282 0.300485 0.721097
v 0.814486 -0.009650 0.580104
v 0.880691 -0.318317 0.350796
v 0.812820 -0.578524 0.068081
v 0.621204 -0.750655 -0.224998
v -0.090919 0.657380 0.748055
v 0.167018 0.406173 0.898403
v 0.399529 0.093130 0.911977
v 0.571214 -0.234091 0.786712
v 0.655938 -0.525672 0.541676
v 0.640801 -0.737227 0.214175
v 0.528108 -0.836544 -0.145932
v -0.217294 0.585129 0.781286
v -0.066492 0.272670 0.959807
v 0.094433 -0.081300 0.992205
v 0.240982 -0.422892 0.873550
v 0.350842 -0.700102 0.621904
v 0.407291 -0.870730 0.275580
v 0.401733 -0.908796 -0.112701
v 0.335015 -0.808506 -0.483822
v -0.335015 0.808506 0.483822
v -0.357709 0.537515 0.763625
v -0.325944 0.184692 0.927173
v -0.244557 -0.196250 0.949567
v -0.125939 -0.547313 0.827398
v 0.011852 -0.815052 0.579266
v 0.147839 -0.958708 0.242945
v 0.261318 -0.956409 -0.130362
v -0.490785 0.521788 0.697759
v -0.571838 0.155632 0.805469
v -0.565834 -0.234218 0.790553
v -0.473686 -0.588409 0.655282
v -0.309425 -0.853021 0.420252
v -0.098055 -0.987768 0.121241
v 0.128242 -0.972137 -0.196228
v -0.596265 0.540342 0.593716
v -0.766739 0.189915 0.613223
v -0.820485 -0.189425 0.539372
v -0.749319 -0.539927 0.383406
v -0.564076 -0.808228 0.169071
v -0.292957 -0.953486 -0.071005
v 0.022762 -0.953583 -0.300271
v -0.658090 0.590351 0.467337
v -0.880977 0.282320 0.379704
v -0.969743 -0.068691 0.234264
v -0.910875 -0.409244 0.053159
v -0.713334 -0.687494 -0.136037
v -0.407195 -0.861080 -0.304524
v -0.039063 -0.903573 -0.426650
v -0.666847 0.664204 0.337860
v -0.897158 0.418782 0.140461
v -0.990884 0.109605 -0.078322
v -0.933758 -0.216259 -0.285180
v -0.734475 -0.509198 -0.448623
v -0.423375 -0.724618 -0.543767
v -0.047820 -0.829721 -0.556128
v -0.621203 0.750655 0.224998
v -0.812820 0.578524 -0.068081
v -0.880690 0.318317 -0.350796
v -0.814485 0.009651 -0.580104
v -0.624281 -0.300485 -0.721097
v -0.339037 -0.564876 -0.752309
v -0.002176 -0.743269 -0.668990
v -0.528107 0.836545 0.145931
v -0.640801 0.737227 -0.214175
v -0.655938 0.525672 -0.541676
v -0.571214 0.234090 -0.786712
v -0.399529 -0.093130 -0.911977
v -0.167018 -0.406173 -0.898403
v 0.090920 -0.657379 -0.748056
v -0.401733 0.908796 0.112701
v -0.407291 0.870730 -0.275579
v 0.066492 -0.272670 -0.959808
vn -0.4061 0.8660 -0.2916
vn -0.4037 0.9104 0.0907
vn -0.2558 0.9605 0.1093
vn -0.1424 0.9555 -0.2584
vn 0.2095 -0.5694 -0.7949
vn 0.0597 -0.2580 -0.9643
vn 0.3234 -0.1686 -0.9311
vn 0.3574 -0.5193 -0.7763
vn -0.0980 0.0895 -0.9912
vn -0.2410 0.4229 -0.8736
vn 0.1259 0.5473 -0.8274
vn 0.2422 0.2048 -0.9484
vn -0.3489 0.6948 -0.6289
vn -0.0086 0.8102 -0.5861
vn -0.3350 0.8085 0.4838
vn 0.3350 -0.8085 -0.4838
vn 0.4737 0.5884 -0.6553
vn 0.5647 0.2429 -0.7888
vn 0.1076 0.9850 -0.1347
vn 0.3138 0.8483 -0.4265
vn -0.1157 0.9771 0.1786
vn 0.4975 -0.5027 -0.7069
vn 0.5734 -0.1391 -0.8074
vn 0.6086 -0.5223 -0.5973
vn 0.8202 0.1980 -0.5367
vn 0.7715 -0.1739 -0.6119
vn 0.5694 0.8033 -0.1744
vn 0.7493 0.5399 -0.3834
vn -0.0045 0.9576 0.2882
vn 0.3058 0.9502 0.0607
vn 0.7192 0.6822 0.1318
vn 0.9109 0.4092 -0.0532
vn 0.0606 0.9049 0.4213
vn 0.4219 0.8562 0.2981
vn 0.8877 -0.2679 -0.3745
vn 0.6738 -0.5749 -0.4642
vn 0.9701 0.0768 -0.2304
vn 0.9041 -0.4066 -0.1313
vn 0.6830 -0.6527 -0.3278
vn 0.9338 0.2163 0.2852
vn 0.9913 -0.1021 0.0833
vn 0.4383 0.7175 0.5413
vn 0.7404 0.5032 0.4456
vn 0.0698 0.8271 0.5577
vn 0.3526 0.5551 0.7533
vn 0.6298 0.2937 0.7190
vn 0.0217 0.7360 0.6766
vn 0.6349 -0.7438 -0.2089
vn 0.8807 -0.3116 0.3568
vn 0.8184 -0.5690 0.0807
vn 0.8145 -0.0097 0.5801
vn 0.5368 -0.8343 -0.1257
vn 0.6551 -0.5197 0.5484
vn 0.6435 -0.7303 0.2292
vn 0.4043 0.0856 0.9106
vn 0.5712 -0.2341 0.7867
vn -0.0763 0.6456 0.7599
vn 0.1777 0.3938 0.9019
vn -0.2095 0.5694 0.7949
vn -0.0597 0.2580 0.9643
vn 0.4061 -0.8660 0.2916
vn 0.4037 -0.9104 -0.0907
vn 0.2410 -0.4229 0.8736
vn 0.3489 -0.6948 0.6289
vn 0.0980 -0.0895 0.9912
vn 0.1424 -0.9555 0.2584
vn 0.2558 -0.9605 -0.1093
vn -0.1259 -0.5473 0.8274
vn 0.0086 -0.8102 0.5861
vn -0.3234 0.1686 0.9311
vn -0.2422 -0.2048 0.9484
vn -0.3574 0.5193 0.7763
vn -0.4975 0.5027 0.7069
vn 0.1157 -0.9771 -0.1786
vn -0.3138 -0.8483 0.4265
vn -0.1076 -0.9850 0.1347
vn -0.5647 -0.2429 0.7888
vn -0.4737 -0.5884 0.6553
vn -0.5734 0.1391 0.8074
vn -0.5694 -0.8033 0.1744
vn -0.3058 -0.9502 -0.0607
vn -0.8202 -0.1980 0.5367
vn -0.7493 -0.5399 0.3834
vn -0.6086 0.5223 0.5973
vn -0.7715 0.1739 0.6119
vn 0.0045 -0.9576 -0.2882
vn -0.4219 -0.8562 -0.2981
vn -0.0606 -0.9049 -0.4213
vn -0.9109 -0.4092 0.0532
vn -0.7192 -0.6822 -0.1318
vn -0.8877 0.2679 0.3745
vn -0.9701 -0.0768 0.2304
vn -0.6738 0.5749 0.4642
vn -0.9338 -0.2163 -0.2852
vn -0.7404 -0.5032 -0.4456
vn -0.9041 0.4066 0.1313
vn -0.9913 0.1021 -0.0833
vn -0.6830 0.6527 0.3278
vn -0.0698 -0.8271 -0.5577
vn -0.4383 -0.7175 -0.5413
vn -0.0217 -0.7360 -0.6766
vn -0.6298 -0.2937 -0.7190
vn -0.3526 -0.5551 -0.7533
vn -0.8807 0.3116 -0.3568
vn -0.8145 0.0097 -0.5801
vn -0.6349 0.7438 0.2089
vn -0.8184 0.5690 -0.0807
vn -0.6551 0.5197 -0.5484
vn -0.5712 0.2341 -0.7867
vn -0.5368 0.8343 0.1257
vn -0.6435 0.7303 -0.2292
vn -0.1777 -0.3938 -0.9019
vn 0.0763 -0.6456 -0.7599
vn -0.4043 -0.0856 -0.9106
vt 0.750000 0.750000
vt 0.750000 0.875000
vt 0.687500 0.875000
vt 0.687500 0.750000
vt 0.750000 0.125000
vt 0.750000 0.250000
vt 0.687500 0.250000
vt 0.687500 0.125000
vt 0.750000 0.375000
vt 0.750000 0.500000
vt 0.687500 0.500000
vt 0.687500 0.375000
vt 0.750000 0.625000
vt 0.687500 0.625000
vt 0.718750 1.000000
vt 0.718750 0.000000
vt 0.625000 0.500000
vt 0.625000 0.375000
vt 0.625000 0.750000
vt 0.625000 0.625000
vt 0.656250 1.000000
vt 0.625000 0.875000
vt 0.656250 0.000000
vt 0.625000 0.125000
vt 0.625000 0.250000
vt 0.593750 0.000000
vt 0.562500 0.125000
vt 0.562500 0.375000
vt 0.562500 0.250000
vt 0.562500 0.625000
vt 0.562500 0.500000
vt 0.562500 0.875000
vt 0.562500 0.750000
vt 0.593750 1.000000
vt 0.500000 0.625000
vt 0.500000 0.500000
vt 0.500000 0.875000
vt 0.500000 0.750000
vt 0.500000 0.250000
vt 0.500000 0.125000
vt 0.500000 0.375000
vt 0.531250 1.000000
vt 0.531250 0.000000
vt 0.437500 0.250000
vt 0.437500 0.125000
vt 0.437500 0.500000
vt 0.437500 0.375000
vt 0.437500 0.750000
vt 0.437500 0.625000
vt 0.468750 1.000000
vt 0.437500 0.875000
vt 0.468750 0.000000
vt 0.375000 0.750000
vt 0.375000 0.625000
vt 0.406250 1.000000
vt 0.375000 0.875000
vt 0.406250 0.000000
vt 0.375000 0.125000
vt 0.375000 0.375000
vt 0.375000 0.250000
vt 0.375000 0.500000
vt 0.343750 0.000000
vt 0.312500 0.125000
vt 0.312500 0.375000
vt 0.312500 0.250000
vt 0.312500 0.625000
vt 0.312500 0.500000
vt 0.312500 0.875000
vt 0.312500 0.750000
vt 0.343750 1.000000
vt 0.250000 0.875000
vt 0.250000 0.750000
vt 0.250000 0.250000
vt 0.250000 0.125000
vt 0.250000 0.500000
vt 0.250000 0.375000
vt 0.250000 0.625000
vt 0.281250 1.000000
vt 0.281250 0.000000
vt 0.187500 0.250000
vt 0.187500 0.125000
vt 0.187500 0.500000
vt 0.187500 0.375000
vt 0.187500 0.750000
vt 0.187500 0.625000
vt 0.218750 1.000000
vt 0.187500 0.875000
vt 0.218750 0.000000
vt 0.156250 1.000000
vt 0.125000 0.875000
vt 0.156250 0.000000
vt 0.125000 0.125000
vt 0.125000 0.375000
vt 0.125000 0.250000
vt 0.125000 0.625000
vt 0.125000 0.500000
vt 0.125000 0.750000
vt 0.062500 0.375000
vt 0.062500 0.250000
vt 0.062500 0.625000
vt 0.062500 0.500000
vt 0.062500 0.875000
vt 0.062500 0.750000
vt 0.062500 0.125000
vt 0.093750 1.000000
vt 0.093750 0.000000
vt 0.000000 0.250000
vt 0.000000 0.125000
vt 0.000000 0.500000
vt 0.000000 0.375000
vt 0.000000 0.750000
vt 0.000000 0.625000
vt 0.031250 1.000000
vt 0.000000 0.875000
vt 0.031250 0.000000
vt 1.000000 0.375000
vt 1.000000 0.500000
vt 0.937500 0.500000
vt 0.937500 0.375000
vt 1.000000 0.625000
vt 1.000000 0.750000
vt 0.937500 0.750000
vt 0.937500 0.625000
vt 1.000000 0.875000
vt 0.968750 1.000000
vt 0.937500 0.875000
vt 0.968750 0.000000
vt 1.000000 0.125000
vt 0.937500 0.125000
vt 1.000000 0.250000
vt 0.937500 0.250000
vt 0.906250 0.000000
vt 0.875000 0.125000
vt 0.875000 0.375000
vt 0.875000 0.250000
vt 0.875000 0.625000
vt 0.875000 0.500000
vt 0.875000 0.875000
vt 0.875000 0.750000
vt 0.906250 1.000000
vt 0.812500 0.625000
vt 0.812500 0.500000
vt 0.812500 0.875000
vt 0.812500 0.750000
vt 0.812500 0.250000
vt 0.812500 0.125000
vt 0.812500 0.375000
vt 0.843750 1.000000
vt 0.843750 0.000000
vt 0.781250 1.000000
vt 0.781250 0.000000
s 1
f 113/1/1 112/2/2 5/3/3 6/4/4
f 4/5/5 114/6/6 10/7/7 11/8/8
f 3/9/9 2/10/10 8/11/11 9/12/12
f 1/13/13 113/1/1 6/4/4 7/14/14
f 112/2/2 62/15/15 5/3/3
f 61/16/16 4/5/5 11/8/8
f 114/6/6 3/9/9 9/12/12 10/7/7
f 2/10/10 1/13/13 7/14/14 8/11/11
f 9/12/12 8/11/11 15/17/17 16/18/18
f 7/14/14 6/4/4 13/19/19 14/20/20
f 5/3/3 62/21/15 12/22/21
f 61/23/16 11/8/8 18/24/22
f 10/7/7 9/12/12 16/18/18 17/25/23
f 8/11/11 7/14/14 14/20/20 15/17/17
f 6/4/4 5/3/3 12/22/21 13/19/19
f 11/8/8 10/7/7 17/25/23 18/24/22
f 61/26/16 18/24/22 25/27/24
f 17/25/23 16/18/18 23/28/25 24/29/26
f 15/17/17 14/20/20 21/30/27 22/31/28
f 13/19/19 12/22/21 19/32/29 20/33/30
f 18/24/22 17/25/23 24/29/26 25/27/24
f 16/18/18 15/17/17 22/31/28 23/28/25
f 14/20/20 13/19/19 20/33/30 21/30/27
f 12/22/21 62/34/15 19/32/29
f 22/31/28 21/30/27 28/35/31 29/36/32
f 20/33/30 19/32/29 26/37/33 27/38/34
f 25/27/24 24/29/26 31/39/35 32/40/36
f 23/28/25 22/31/28 29/36/32 30/41/37
f 21/30/27 20/33/30 27/38/34 28/35/31
f 19/32/29 62/42/15 26/37/33
f 61/43/16 25/27/24 32/40/36
f 24/29/26 23/28/25 30/41/37 31/39/35
f 32/40/36 31/39/35 38/44/38 39/45/39
f 30/41/37 29/36/32 36/46/40 37/47/41
f 28/35/31 27/38/34 34/48/42 35/49/43
f 26/37/33 62/50/15 33/51/44
f 61/52/16 32/40/36 39/45/39
f 31/39/35 30/41/37 37/47/41 38/44/38
f 29/36/32 28/35/31 35/49/43 36/46/40
f 27/38/34 26/37/33 33/51/44 34/48/42
f 35/49/43 34/48/42 41/53/45 42/54/46
f 33/51/44 62/55/15 40/56/47
f 61/57/16 39/45/39 46/58/48
f 38/44/38 37/47/41 44/59/49 45/60/50
f 36/46/40 35/49/43 42/54/46 43/61/51
f 34/48/42 33/51/44 40/56/47 41/53/45
f 39/45/39 38/44/38 45/60/50 46/58/48
f 37/47/41 36/46/40 43/61/51 44/59/49
f 61/62/16 46/58/48 53/63/52
f 45/60/50 44/59/49 51/64/53 52/65/54
f 43/61/51 42/54/46 49/66/55 50/67/56
f 41/53/45 40/56/47 47/68/57 48/69/58
f 46/58/48 45/60/50 52/65/54 53/63/52
f 44/59/49 43/61/51 50/67/56 51/64/53
f 42/54/46 41/53/45 48/69/58 49/66/55
f 40/56/47 62/70/15 47/68/57
f 48/69/58 47/68/57 54/71/59 55/72/60
f 53/63/52 52/65/54 59/73/61 60/74/62
f 51/64/53 50/67/56 57/75/63 58/76/64
f 49/66/55 48/69/58 55/72/60 56/77/65
f 47/68/57 62/78/15 54/71/59
f 61/79/16 53/63/52 60/74/62
f 52/65/54 51/64/53 58/76/64 59/73/61
f 50/67/56 49/66/55 56/77/65 57/75/63
f 60/74/62 59/73/61 68/80/66 69/81/67
f 58/76/64 57/75/63 66/82/68 67/83/69
f 56/77/65 55/72/60 64/84/70 65/85/71
f 54/71/59 62/86/15 63/87/72
f 61/88/16 60/74/62 69/81/67
f 59/73/61 58/76/64 67/83/69 68/80/66
f 57/75/63 56/77/65 65/85/71 66/82/68
f 55/72/60 54/71/59 63/87/72 64/84/70
f 63/87/72 62/89/15 70/90/73
f 61/91/16 69/81/67 76/92/74
f 68/80/66 67/83/69 74/93/75 75/94/76
f 66/82/68 65/85/71 72/95/77 73/96/78
f 64/84/70 63/87/72 70/90/73 71/97/79
f 69/81/67 68/80/66 75/94/76 76/92/74
f 67/83/69 66/82/68 73/96/78 74/93/75
f 65/85/71 64/84/70 71/97/79 72/95/77
f 75/94/76 74/93/75 81/98/80 82/99/81
f 73/96/78 72/95/77 79/100/82 80/101/83
f 71/97/79 70/90/73 77/102/84 78/103/85
f 76/92/74 75/94/76 82/99/81 83/104/86
f 74/93/75 73/96/78 80/101/83 81/98/80
f 72/95/77 71/97/79 78/103/85 79/100/82
f 70/90/73 62/105/15 77/102/84
f 61/106/16 76/92/74 83/104/86
f 83/104/86 82/99/81 89/107/87 90/108/88
f 81/98/80 80/101/83 87/109/89 88/110/90
f 79/100/82 78/103/85 85/111/91 86/112/92
f 77/102/84 62/113/15 84/114/93
f 61/115/16 83/104/86 90/108/88
f 82/99/81 81/98/80 88/110/90 89/107/87
f 80/101/83 79/100/82 86/112/92 87/109/89
f 78/103/85 77/102/84 84/114/93 85/111/91
f 88/116/90 87/117/89 94/118/94 95/119/95
f 86/120/92 85/121/91 92/122/96 93/123/97
f 84/124/93 62/125/15 91/126/98
f 61/127/16 90/128/88 97/129/99
f 89/130/87 88/116/90 95/119/95 96/131/100
f 87/117/89 86/120/92 93/123/97 94/118/94
f 85/121/91 84/124/93 91/126/98 92/122/96
f 90/128/88 89/130/87 96/131/100 97/129/99
f 61/132/16 97/129/99 104/133/101
f 96/131/100 95/119/95 102/134/102 103/135/103
f 94/118/94 93/123/97 100/136/104 101/137/105
f 92/122/96 91/126/98 98/138/106 99/139/107
f 97/129/99 96/131/100 103/135/103 104/133/101
f 95/119/95 94/118/94 101/137/105 102/134/102
f 93/123/97 92/122/96 99/139/107 100/136/104
f 91/126/98 62/140/15 98/138/106
f 101/137/105 100/136/104 107/141/108 108/142/109
f 99/139/107 98/138/106 105/143/110 106/144/111
f 104/133/101 103/135/103 110/145/112 111/146/113
f 102/134/102 101/137/105 108/142/109 109/147/114
f 100/136/104 99/139/107 106/144/111 107/141/108
f 98/138/106 62/148/15 105/143/110
f 61/149/16 104/133/101 111/146/113
f 103/135/103 102/134/102 109/147/114 110/145/112
f 111/146/113 110/145/112 114/6/6 4/5/5
f 109/147/114 108/142/109 2/10/10 3/9/9
f 107/141/108 106/144/111 113/1/1 1/13/13
f 105/143/110 62/150/15 112/2/2
f 61/151/16 111/146/113 4/5/5
f 110/145/112 109/147/114 3/9/9 114/6/6
f 108/142/109 107/141/108 1/13/13 2/10/10
f 106/144/111 105/143/110 112/2/2 113/1/1
