# Blender 4.5.1 LTS
# www.blender.org
o Plane.001
v 0.125262 6.000000 6.000000
v 0.495105 0.000000 6.000000
v 0.125262 6.000000 -6.000000
v 0.495105 0.000000 -6.000000
v 3.000000 0.000000 6.000000
v 3.000000 0.000000 -6.000000
v 0.000000 0.000000 6.000000
v 0.000000 0.000000 -6.000000
v 0.616783 0.000000 6.000000
v 0.616783 0.000000 -6.000000
v -0.125262 6.000000 6.000000
v -0.495105 0.000000 6.000000
v -0.125262 6.000000 -6.000000
v -0.495105 0.000000 -6.000000
v -3.000000 0.000000 6.000000
v -3.000000 0.000000 -6.000000
v -0.616783 0.000000 6.000000
v -0.616783 0.000000 -6.000000
vn 0.9981 0.0615 -0.0000
vn -0.0000 1.0000 -0.0000
vn -0.9981 0.0615 -0.0000
vt -0.250000 0.038234
vt -0.250000 1.000000
vt 1.250000 1.000000
vt 1.250000 0.038234
vt -0.250000 0.008333
vt 1.250000 0.008333
vt 0.000000 1.000000
vt 0.000000 0.008333
vt 1.000000 0.008333
vt 1.000000 1.000000
vt 0.000000 1.000000
vt 0.000000 0.008333
vt 1.000000 0.008333
s 1
f 9/1/2 5/2/2 6/3/2 10/4/2
f 7/5/2 9/1/2 10/4/2 8/6/2
f 1/7/1 2/8/1 4/9/1 3/10/1
f 17/1/2 18/4/2 16/3/2 15/2/2
f 7/5/2 8/6/2 18/4/2 17/1/2
f 13/11/3 14/12/3 12/13/3 11/10/3
