# Blender 4.5.1 LTS
# www.blender.org
o Plane.001
v 0.335493 5.312028 1.748427
v 0.596609 0.000000 1.697049
v -0.231590 5.312027 -1.523750
v 0.031969 -0.000000 -1.560594
v 2.941540 0.000000 1.235663
v 2.398846 0.000000 -1.891464
v 0.335493 0.000000 1.748426
v -0.231591 -0.000000 -1.523750
v 0.871281 0.000000 1.643005
v 0.309212 -0.000000 -1.599350
v 0.380736 3.428661 1.739525
v -0.185924 3.428660 -1.530134
v 0.368158 4.370345 1.742000
v -0.198620 4.370345 -1.528359
v -0.155903 2.486975 -1.534331
v 0.410479 2.486976 1.733672
v 0.605743 1.161627 1.695252
v 0.477394 1.900590 1.720506
v -0.088362 1.900589 -1.543773
v 0.041189 1.161626 -1.561883
v 0.074376 0.000000 1.799803
v -0.495151 -0.000000 -1.486907
v -2.270555 0.000000 2.261189
v -2.862028 -0.000001 -1.156037
v -0.200296 0.000000 1.853848
v -0.772394 -0.000000 -1.448151
v 0.290249 3.428661 1.757329
v -0.277258 3.428660 -1.517367
v 0.302828 4.370345 1.754854
v -0.264562 4.370345 -1.519141
v -0.307279 2.486975 -1.513170
v 0.260506 2.486976 1.763181
v 0.065242 1.161627 1.801601
v 0.193592 1.900590 1.776347
v -0.374820 1.900589 -1.503728
v -0.504371 1.161626 -1.485618
v -0.431508 5.312027 -4.833449
v -0.165588 -0.000000 -4.823074
v 2.222487 -0.000000 -4.729908
v -0.431508 -0.000000 -4.833449
v 0.114138 -0.000000 -4.812161
v -0.385432 3.428660 -4.831651
v -0.398242 4.370344 -4.832151
v -0.355142 2.486975 -4.830470
v -0.286997 1.900589 -4.827811
v -0.156285 1.161626 -4.822712
v -0.697429 -0.000000 -4.843824
v -3.085504 -0.000000 -4.936990
v -0.977155 -0.000000 -4.854737
v -0.477584 3.428660 -4.835246
v -0.464774 4.370344 -4.834746
v -0.507874 2.486975 -4.836428
v -0.576020 1.900589 -4.839087
v -0.706731 1.161626 -4.844186
v 0.095452 5.312028 -8.100919
v 0.349346 -0.000000 -8.021175
v 2.629420 -0.000000 -7.305044
v 0.095452 -0.000000 -8.100920
v 0.616421 -0.000000 -7.937292
v 0.139444 3.428660 -8.087102
v 0.127214 4.370344 -8.090942
v 0.168364 2.486975 -8.078019
v 0.233428 1.900589 -8.057584
v 0.358228 1.161626 -8.018386
v -0.158443 -0.000000 -8.180663
v -2.438517 -0.000000 -8.896794
v -0.425518 -0.000000 -8.264546
v 0.051459 3.428660 -8.114736
v 0.063690 4.370345 -8.110895
v 0.022539 2.486975 -8.123820
v -0.042525 1.900589 -8.144255
v -0.167324 1.161626 -8.183452
v 1.536890 5.312028 -11.079205
v 1.756218 -0.000000 -10.928485
v 3.725873 -0.000000 -9.574956
v 1.536890 -0.000000 -11.079205
v 1.986932 -0.000000 -10.769939
v 1.574893 3.428660 -11.053089
v 1.564327 4.370344 -11.060349
v 1.599876 2.486975 -11.035922
v 1.656081 1.900589 -10.997297
v 1.763890 1.161626 -10.923212
v 1.317562 -0.000000 -11.229924
v -0.652093 -0.000001 -12.583454
v 1.086847 -0.000000 -11.388470
v 1.498887 3.428660 -11.105320
v 1.509452 4.370345 -11.098060
v 1.473904 2.486975 -11.122488
v 1.417698 1.900589 -11.161112
v 1.309889 1.161626 -11.235197
v 3.768555 5.312028 -13.526530
v 3.944119 -0.000000 -13.326533
v 5.520758 -0.000001 -11.530485
v 3.768555 -0.000000 -13.526530
v 4.128798 -0.000000 -13.116155
v 3.798975 3.428660 -13.491877
v 3.790518 4.370344 -13.501511
v 3.818973 2.486975 -13.469096
v 3.863963 1.900590 -13.417845
v 3.950261 1.161626 -13.319537
v 3.592990 -0.000000 -13.726527
v 2.016351 -0.000000 -15.522574
v 3.408312 -0.000000 -13.936905
v 3.738135 3.428660 -13.561183
v 3.746592 4.370344 -13.551549
v 3.718137 2.486975 -13.583964
v 3.673146 1.900589 -13.635216
v 3.586849 1.161626 -13.733522
v 6.463785 5.312028 -15.453877
v 6.607517 -0.000000 -15.229908
v 7.898293 -0.000001 -13.218571
v 6.463785 -0.000000 -15.453877
v 6.758711 -0.000000 -14.994311
v 6.488689 3.428660 -15.415071
v 6.481766 4.370345 -15.425859
v 6.505062 2.486975 -15.389558
v 6.541894 1.900589 -15.332165
v 6.612545 1.161626 -15.222073
v 6.320052 -0.000000 -15.677848
v 5.029277 0.000000 -17.689184
v 6.168859 -0.000000 -15.913445
v 6.438881 3.428660 -15.492684
v 6.445804 4.370345 -15.481895
v 6.422508 2.486975 -15.518196
v 6.385675 1.900589 -15.575591
v 6.315024 1.161626 -15.685681
v 9.260728 5.312027 -17.235489
v 9.434473 -0.000000 -17.033911
v 10.994768 -0.000000 -15.223647
v 9.260728 -0.000000 -17.235489
v 9.617237 -0.000000 -16.821867
v 9.290833 3.428660 -17.200562
v 9.282462 4.370344 -17.210272
v 9.310623 2.486975 -17.177601
v 9.355147 1.900589 -17.125942
v 9.440550 1.161626 -17.026857
v 9.086984 -0.000000 -17.437067
v 7.526687 -0.000000 -19.247332
v 8.904219 -0.000000 -17.649113
v 9.230623 3.428660 -17.270416
v 9.238992 4.370344 -17.260708
v 9.210833 2.486975 -17.293377
v 9.166307 1.900589 -17.345036
v 9.080905 1.161626 -17.444120
v 11.342134 5.312028 -19.765062
v 11.582191 -0.000000 -19.650198
v 13.738001 -0.000001 -18.618666
v 11.342134 -0.000000 -19.765064
v 11.834710 -0.000001 -19.529371
v 11.383729 3.428660 -19.745159
v 11.372166 4.370345 -19.750692
v 11.411073 2.486975 -19.732077
v 11.472590 1.900590 -19.702641
v 11.590589 1.161626 -19.646179
v 11.102077 -0.000000 -19.879927
v 8.946265 -0.000000 -20.911459
v 10.849557 -0.000000 -20.000755
v 11.300540 3.428660 -19.784966
v 11.312103 4.370345 -19.779432
v 11.273195 2.486975 -19.798050
v 11.211677 1.900590 -19.827484
v 11.093679 1.161626 -19.883945
v 12.075092 5.312028 -22.979425
v 12.340569 -0.000000 -22.960915
v 14.724671 -0.000000 -22.794672
v 12.075091 -0.000000 -22.979425
v 12.619831 -0.000000 -22.941441
v 12.121092 3.428660 -22.976217
v 12.108303 4.370345 -22.977110
v 12.151330 2.486975 -22.974110
v 12.219362 1.900589 -22.969364
v 12.349857 1.161626 -22.960266
v 11.809613 -0.000000 -22.997936
v 9.425511 -0.000000 -23.164179
v 11.530353 -0.000000 -23.017410
v 12.029093 3.428660 -22.982632
v 12.041881 4.370344 -22.981741
v 11.998853 2.486975 -22.984741
v 11.930820 1.900590 -22.989485
v 11.800326 1.161626 -22.998585
v 11.814884 5.312028 -26.272892
v 12.073996 -0.000000 -26.333567
v 14.400930 -0.000001 -26.878502
v 11.814883 -0.000000 -26.272888
v 12.346560 -0.000000 -26.397398
v 11.859780 3.428660 -26.283407
v 11.847298 4.370345 -26.280483
v 11.889295 2.486975 -26.290314
v 11.955695 1.900589 -26.305864
v 12.083060 1.161626 -26.335690
v 11.555770 -0.000000 -26.212208
v 9.228834 -0.000000 -25.667278
v 11.283206 -0.000000 -26.148378
v 11.769987 3.428660 -26.262377
v 11.782470 4.370345 -26.265301
v 11.740472 2.486975 -26.255463
v 11.674071 1.900589 -26.239912
v 11.546706 1.161626 -26.210085
v 10.616807 5.312028 -29.353411
v 10.850380 -0.000000 -29.480944
v 12.947957 -0.000000 -30.626261
v 10.616808 -0.000000 -29.353407
v 11.096079 -0.000000 -29.615101
v 10.657277 3.428660 -29.375509
v 10.646026 4.370344 -29.369366
v 10.683884 2.486975 -29.390034
v 10.743740 1.900589 -29.422716
v 10.858551 1.161626 -29.485405
v 10.383235 -0.000000 -29.225874
v 8.285656 -0.000000 -28.080561
v 10.137535 -0.000000 -29.091719
v 10.576335 3.428660 -29.331314
v 10.587586 4.370345 -29.337456
v 10.549731 2.486975 -29.316784
v 10.489875 1.900589 -29.284101
v 10.375064 1.161626 -29.221413
v 8.636992 5.312028 -31.996645
v 8.822239 -0.000000 -32.187710
v 10.485804 -0.000001 -33.903553
v 8.636994 -0.000000 -31.996645
v 9.017099 -0.000001 -32.388691
v 8.669089 3.428660 -32.029751
v 8.660167 4.370345 -32.020546
v 8.690192 2.486975 -32.051514
v 8.737664 1.900589 -32.100475
v 8.828719 1.161626 -32.194393
v 8.451751 -0.000000 -31.805578
v 6.788181 0.000000 -30.089735
v 8.256888 -0.000000 -31.604595
v 8.604896 3.428660 -31.963537
v 8.613818 4.370344 -31.972740
v 8.583797 2.486975 -31.941774
v 8.536325 1.900589 -31.892811
v 8.445271 1.161626 -31.798895
v 5.940249 5.312028 -33.883942
v 6.041650 -0.000000 -34.129990
v 6.952237 -0.000000 -36.339607
v 5.940252 -0.000000 -33.883938
v 6.148311 -0.000000 -34.388809
v 5.957818 3.428660 -33.926575
v 5.952934 4.370344 -33.914722
v 5.969371 2.486976 -33.954597
v 5.995356 1.900589 -34.017651
v 6.045197 1.161626 -34.138596
v 5.838855 -0.000000 -33.637890
v 4.928264 -0.000000 -31.428274
v 5.732193 -0.000000 -33.379066
v 5.922680 3.428660 -33.841312
v 5.927565 4.370344 -33.853161
v 5.911133 2.486975 -33.813278
v 5.885149 1.900589 -33.750225
v 5.835308 1.161626 -33.629284
v 2.696032 5.312027 -34.372898
v 2.682154 -0.000000 -34.638657
v 2.557497 -0.000001 -37.025295
v 2.696035 -0.000000 -34.372898
v 2.667553 -0.000000 -34.918217
v 2.693627 3.428660 -34.418945
v 2.694296 4.370344 -34.406143
v 2.692049 2.486976 -34.449219
v 2.688492 1.900590 -34.517323
v 2.681669 1.161626 -34.647953
v 2.709916 -0.000000 -34.107140
v 2.834570 -0.000000 -31.720497
v 2.724517 -0.000000 -33.827579
v 2.698437 3.428660 -34.326847
v 2.697768 4.370344 -34.339653
v 2.700022 2.486975 -34.296577
v 2.703579 1.900590 -34.228474
v 2.710402 1.161626 -34.097839
v -0.480074 5.312028 -33.543770
v -0.573107 -0.000000 -33.793098
v -1.408629 -0.000001 -36.032181
v -0.480069 -0.000000 -33.543770
v -0.670975 -0.000000 -34.055370
v -0.496194 3.428660 -33.586971
v -0.491712 4.370345 -33.574959
v -0.506788 2.486975 -33.615372
v -0.530630 1.900589 -33.679264
v -0.576362 1.161626 -33.801819
v -0.387031 -0.000000 -33.294437
v 0.448487 -0.000000 -31.055355
v -0.289163 -0.000000 -33.032166
v -0.463952 3.428660 -33.500565
v -0.468434 4.370345 -33.512577
v -0.453351 2.486975 -33.472164
v -0.429509 1.900589 -33.408272
v -0.383777 1.161626 -33.285717
v -3.500744 5.312028 -32.166336
v -3.595445 -0.000000 -32.415043
v -4.445931 -0.000000 -34.648483
v -3.500741 -0.000000 -32.166340
v -3.695066 -0.000000 -32.676655
v -3.517154 3.428660 -32.209431
v -3.512591 4.370345 -32.197449
v -3.527938 2.486975 -32.237762
v -3.552207 1.900589 -32.301498
v -3.598758 1.161626 -32.423740
v -3.406037 -0.000000 -31.917641
v -2.555553 0.000000 -29.684196
v -3.306416 -0.000000 -31.656029
v -3.484335 3.428660 -32.123245
v -3.488897 4.370345 -32.135227
v -3.473545 2.486975 -32.094921
v -3.449275 1.900589 -32.031189
v -3.402724 1.161626 -31.908939
v -6.704549 5.312028 -31.357010
v -6.731750 -0.000000 -31.621735
v -6.976058 -0.000000 -33.999107
v -6.704545 -0.000000 -31.357006
v -6.760366 -0.000000 -31.900208
v -6.709262 3.428660 -31.402880
v -6.707952 4.370345 -31.390127
v -6.712358 2.486975 -31.433029
v -6.719329 1.900589 -31.500872
v -6.732701 1.161626 -31.630995
v -6.677341 -0.000000 -31.092276
v -6.433034 -0.000000 -28.714907
v -6.648724 -0.000000 -30.813805
v -6.699835 3.428660 -31.311138
v -6.701146 4.370345 -31.323891
v -6.696733 2.486975 -31.280983
v -6.689762 1.900589 -31.213142
v -6.676389 1.161626 -31.083015
v -9.998581 5.312028 -31.561119
v -9.929431 -0.000000 -31.818102
v -9.308435 -0.000001 -34.125904
v -9.998581 -0.000000 -31.561119
v -9.856690 -0.000000 -32.088425
v -9.986599 3.428659 -31.605648
v -9.989931 4.370344 -31.593267
v -9.978723 2.486975 -31.634920
v -9.961001 1.900589 -31.700773
v -9.927011 1.161626 -31.827091
v -10.067730 -0.000000 -31.304138
v -10.688725 -0.000000 -28.996336
v -10.140471 -0.000000 -31.033815
v -10.010563 3.428660 -31.516594
v -10.007231 4.370344 -31.528975
v -10.018438 2.486975 -31.487322
v -10.036160 1.900589 -31.421465
v -10.070150 1.161626 -31.295151
v -12.986730 5.312028 -32.982830
v -12.842956 -0.000000 -33.206772
v -11.551805 -0.000001 -35.217865
v -12.986730 -0.000000 -32.982830
v -12.691717 -0.000000 -33.442341
v -12.961818 3.428660 -33.021633
v -12.968744 4.370344 -33.010845
v -12.945441 2.486975 -33.047138
v -12.908598 1.900589 -33.104530
v -12.837926 1.161626 -33.214607
v -13.130504 -0.000000 -32.758888
v -14.421656 -0.000000 -30.747791
v -13.281743 -0.000000 -32.523319
v -13.011642 3.428660 -32.944027
v -13.004716 4.370344 -32.954815
v -13.028019 2.486975 -32.918518
v -13.064863 1.900589 -32.861134
v -13.135533 1.161626 -32.751053
v -15.582458 5.312028 -35.045681
v -15.405270 -0.000000 -35.244240
v -13.814038 -0.000000 -37.027374
v -15.582458 -0.000000 -35.045681
v -15.218882 -0.000000 -35.453106
v -15.551756 3.428660 -35.080086
v -15.560292 4.370345 -35.070522
v -15.531573 2.486975 -35.102703
v -15.486166 1.900590 -35.153587
v -15.399071 1.161626 -35.251186
v -15.759647 -0.000000 -34.847122
v -17.350878 -0.000000 -33.063988
v -15.946035 -0.000000 -34.638260
v -15.613159 3.428660 -35.011276
v -15.604623 4.370344 -35.020844
v -15.633342 2.486976 -34.988659
v -15.678749 1.900589 -34.937778
v -15.765844 1.161626 -34.840176
v -17.982042 5.312028 -37.341351
v -17.796638 -0.000000 -37.532261
v -16.131638 -0.000001 -39.246716
v -17.982042 -0.000000 -37.341351
v -17.601610 -0.000000 -37.733082
v -17.949917 3.428659 -37.374428
v -17.958849 4.370344 -37.365234
v -17.928799 2.486975 -37.396175
v -17.881285 1.900589 -37.445095
v -17.790152 1.161626 -37.538937
v -18.167446 -0.000000 -37.150436
v -19.832445 0.000000 -35.435982
v -18.362474 -0.000000 -36.949615
v -18.014166 3.428659 -37.308273
v -18.005236 4.370344 -37.317467
v -18.035284 2.486975 -37.286526
v -18.082796 1.900589 -37.237602
v -18.173931 1.161626 -37.143761
v -20.398335 5.312028 -39.619244
v -20.223526 -0.000000 -39.819904
v -18.653677 -0.000001 -41.621887
v -20.398335 -0.000000 -39.619244
v -20.039642 -0.000000 -40.030975
v -20.368046 3.428660 -39.654015
v -20.376467 4.370345 -39.644348
v -20.348135 2.486975 -39.676868
v -20.303337 1.900590 -39.728291
v -20.217411 1.161626 -39.826920
v -20.573145 -0.000000 -39.418591
v -22.142994 -0.000000 -37.616600
v -20.757029 -0.000000 -39.207512
v -20.428625 3.428660 -39.584476
v -20.420204 4.370345 -39.594143
v -20.448536 2.486975 -39.561619
v -20.493334 1.900590 -39.510197
v -20.579258 1.161626 -39.411568
v -22.983313 5.312027 -41.702446
v -22.829441 -0.000000 -41.919571
v -21.447609 -0.000001 -43.869473
v -22.983313 -0.000000 -41.702442
v -22.667582 -0.000000 -42.147972
v -22.956654 3.428660 -41.740063
v -22.946447 4.379350 -41.750305
v -22.939125 2.486975 -41.764797
v -22.899693 1.900589 -41.820438
v -22.824059 1.161626 -41.927166
v -23.137184 -0.000000 -41.485313
v -24.519016 0.000000 -39.535408
v -23.299046 -0.000000 -41.256912
v -23.009975 3.428660 -41.664822
v -23.002562 4.370344 -41.675282
v -23.027502 2.486975 -41.640091
v -23.066933 1.900589 -41.584446
v -23.142569 1.161626 -41.477718
vn -0.0000 1.0000 -0.0000
vn 0.9850 0.0245 -0.1707
vn 0.9851 0.0229 -0.1707
vn 0.9930 0.0229 -0.1157
vn 0.9930 0.0245 -0.1157
vn -0.0142 0.9999 0.0024
vn -0.0352 0.9994 0.0031
vn 0.9826 0.0738 -0.1703
vn 0.9906 0.0738 -0.1155
vn 0.9819 0.0836 -0.1702
vn 0.9898 0.0837 -0.1153
vn 0.9828 0.1447 -0.1146
vn 0.9749 0.1449 -0.1690
vn 0.9853 -0.0080 -0.1708
vn 0.9932 -0.0080 -0.1158
vn -0.9850 0.0245 0.1707
vn -0.9930 0.0244 0.1157
vn -0.9930 0.0229 0.1157
vn -0.9851 0.0229 0.1707
vn -0.9906 0.0740 0.1153
vn -0.9826 0.0739 0.1703
vn -0.9819 0.0834 0.1701
vn -0.9749 0.1450 0.1689
vn -0.9828 0.1450 0.1144
vn -0.9898 0.0832 0.1153
vn -0.9933 -0.0080 0.1156
vn -0.9853 -0.0080 0.1707
vn 0.9985 0.0229 0.0497
vn 0.9985 0.0245 0.0497
vn -0.0695 0.9976 -0.0046
vn 0.9961 0.0737 0.0495
vn 0.9952 0.0840 0.0495
vn 0.9883 0.1446 0.0491
vn 0.9987 -0.0080 0.0495
vn -0.9985 0.0244 -0.0498
vn -0.9985 0.0229 -0.0498
vn -0.9960 0.0741 -0.0497
vn -0.9882 0.1452 -0.0494
vn -0.9953 0.0829 -0.0497
vn -0.9987 -0.0080 -0.0500
vn 0.9535 0.0229 0.3005
vn 0.9535 0.0245 0.3005
vn -0.0873 0.9958 -0.0279
vn 0.9512 0.0737 0.2997
vn 0.9504 0.0843 0.2994
vn 0.9437 0.1447 0.2974
vn 0.9538 -0.0080 0.3004
vn -0.9535 0.0245 -0.3005
vn -0.9535 0.0229 -0.3006
vn -0.9511 0.0742 -0.2998
vn -0.9436 0.1455 -0.2975
vn -0.9504 0.0829 -0.2997
vn -0.9537 -0.0080 -0.3007
vn 0.8279 0.0229 0.5604
vn 0.8279 0.0245 0.5604
vn -0.0758 0.9959 -0.0503
vn 0.8258 0.0737 0.5591
vn 0.8252 0.0843 0.5586
vn 0.8194 0.1447 0.5547
vn 0.8280 -0.0080 0.5606
vn -0.8279 0.0245 -0.5604
vn -0.8279 0.0229 -0.5604
vn -0.8259 0.0743 -0.5589
vn -0.8194 0.1455 -0.5545
vn -0.8253 0.0829 -0.5586
vn -0.8282 -0.0080 -0.5604
vn 0.6638 0.0229 0.7476
vn 0.6638 0.0245 0.7475
vn -0.0449 0.9978 -0.0493
vn 0.6621 0.0737 0.7458
vn 0.6615 0.0840 0.7453
vn 0.6569 0.1447 0.7400
vn 0.6637 -0.0080 0.7479
vn -0.6638 0.0245 -0.7475
vn -0.6638 0.0229 -0.7475
vn -0.6622 0.0741 -0.7456
vn -0.6571 0.1453 -0.7397
vn -0.6618 0.0830 -0.7450
vn -0.6642 -0.0080 -0.7475
vn 0.5596 0.0228 0.8285
vn 0.5595 0.0244 0.8285
vn -0.0095 0.9999 -0.0142
vn 0.5582 0.0736 0.8264
vn 0.5579 0.0833 0.8257
vn 0.5539 0.1444 0.8200
vn 0.5599 -0.0080 0.8285
vn -0.5595 0.0244 -0.8285
vn -0.5595 0.0228 -0.8285
vn -0.5581 0.0737 -0.8265
vn -0.5537 0.1445 -0.8201
vn -0.5575 0.0831 -0.8260
vn -0.5594 -0.0080 -0.8288
vn 0.6629 0.0229 0.7483
vn 0.6628 0.0244 0.7484
vn 0.0681 0.9951 0.0723
vn 0.6614 0.0741 0.7464
vn 0.6612 0.0827 0.7456
vn 0.6564 0.1452 0.7403
vn 0.6637 -0.0080 0.7480
vn -0.6627 0.0245 -0.7485
vn -0.6626 0.0228 -0.7486
vn -0.6609 0.0735 -0.7469
vn -0.6555 0.1444 -0.7412
vn -0.6600 0.0842 -0.7466
vn -0.6621 -0.0080 -0.7494
vn 0.8974 0.0231 0.4406
vn 0.8974 0.0246 0.4405
vn 0.1288 0.9896 0.0647
vn 0.8951 0.0749 0.4395
vn 0.8947 0.0830 0.4390
vn 0.8880 0.1466 0.4359
vn 0.8977 -0.0081 0.4406
vn -0.8974 0.0247 -0.4406
vn -0.8974 0.0230 -0.4406
vn -0.8952 0.0740 -0.4394
vn -0.8881 0.1454 -0.4360
vn -0.8943 0.0852 -0.4393
vn -0.8976 -0.0081 -0.4407
vn 0.9971 0.0228 0.0727
vn 0.9971 0.0244 0.0726
vn 0.0953 0.9954 0.0081
vn 0.9946 0.0740 0.0726
vn 0.9939 0.0825 0.0728
vn 0.9868 0.1449 0.0722
vn 0.9973 -0.0080 0.0731
vn -0.9971 0.0244 -0.0725
vn -0.9971 0.0228 -0.0725
vn -0.9947 0.0734 -0.0722
vn -0.9870 0.1441 -0.0716
vn -0.9939 0.0840 -0.0719
vn -0.9974 -0.0080 -0.0721
vn 0.9746 0.0229 -0.2229
vn 0.9745 0.0245 -0.2229
vn 0.0899 0.9958 -0.0200
vn 0.9721 0.0742 -0.2223
vn 0.9715 0.0828 -0.2222
vn 0.9645 0.1454 -0.2206
vn 0.9748 -0.0080 -0.2229
vn -0.9745 0.0245 0.2229
vn -0.9746 0.0229 0.2229
vn -0.9722 0.0737 0.2224
vn -0.9646 0.1447 0.2207
vn -0.9714 0.0843 0.2222
vn -0.9748 -0.0080 0.2230
vn 0.8740 0.0229 -0.4853
vn 0.8740 0.0244 -0.4853
vn 0.0748 0.9963 -0.0422
vn 0.8718 0.0741 -0.4842
vn 0.8713 0.0828 -0.4838
vn 0.8650 0.1452 -0.4803
vn 0.8742 -0.0080 -0.4855
vn -0.8740 0.0245 0.4853
vn -0.8740 0.0229 0.4853
vn -0.8719 0.0736 0.4841
vn -0.8651 0.1445 0.4803
vn -0.8711 0.0841 0.4838
vn -0.8742 -0.0080 0.4854
vn 0.6954 0.0229 -0.7183
vn 0.6954 0.0244 -0.7182
vn 0.0688 0.9950 -0.0726
vn 0.6936 0.0741 -0.7166
vn 0.6929 0.0826 -0.7163
vn 0.6880 0.1451 -0.7110
vn 0.6952 -0.0080 -0.7188
vn -0.6954 0.0244 0.7182
vn -0.6955 0.0228 0.7182
vn -0.6939 0.0734 0.7164
vn -0.6886 0.1442 0.7107
vn -0.6935 0.0841 0.7155
vn -0.6960 -0.0080 0.7180
vn 0.3709 0.0230 -0.9284
vn 0.3709 0.0246 -0.9283
vn 0.0515 0.9897 -0.1337
vn 0.3699 0.0747 -0.9261
vn 0.3698 0.0828 -0.9254
vn 0.3669 0.1463 -0.9187
vn 0.3709 -0.0081 -0.9286
vn -0.3709 0.0246 0.9283
vn -0.3710 0.0230 0.9284
vn -0.3701 0.0738 0.9261
vn -0.3672 0.1451 0.9188
vn -0.3696 0.0851 0.9253
vn -0.3711 -0.0081 0.9285
vn -0.0527 0.0230 -0.9983
vn -0.0527 0.0245 -0.9983
vn -0.0051 0.9919 -0.1265
vn -0.0524 0.0744 -0.9958
vn -0.0518 0.0827 -0.9952
vn -0.0517 0.1458 -0.9880
vn -0.0519 -0.0080 -0.9986
vn 0.0529 0.0245 0.9983
vn 0.0530 0.0229 0.9983
vn 0.0530 0.0736 0.9959
vn 0.0529 0.1447 0.9881
vn 0.0536 0.0846 0.9950
vn 0.0539 -0.0080 0.9985
vn -0.3348 0.0228 -0.9420
vn -0.3348 0.0244 -0.9420
vn -0.0165 0.9985 -0.0523
vn -0.3338 0.0738 -0.9397
vn -0.3334 0.0828 -0.9392
vn -0.3311 0.1447 -0.9324
vn -0.3344 -0.0080 -0.9424
vn 0.3349 0.0244 0.9419
vn 0.3350 0.0228 0.9419
vn 0.3343 0.0735 0.9396
vn 0.3319 0.1442 0.9322
vn 0.3343 0.0836 0.9388
vn 0.3356 -0.0080 0.9420
vn -0.3312 0.0229 -0.9433
vn -0.3312 0.0245 -0.9433
vn 0.0173 0.9984 0.0545
vn -0.3305 0.0736 -0.9409
vn -0.3301 0.0838 -0.9402
vn -0.3279 0.1445 -0.9336
vn -0.3314 -0.0080 -0.9435
vn 0.3312 0.0244 0.9433
vn 0.3311 0.0229 0.9433
vn 0.3302 0.0740 0.9410
vn 0.3276 0.1450 0.9336
vn 0.3301 0.0830 0.9403
vn 0.3311 -0.0080 0.9436
vn -0.0927 0.0229 -0.9954
vn -0.0926 0.0245 -0.9954
vn 0.0074 0.9952 0.0972
vn -0.0926 0.0736 -0.9930
vn -0.0926 0.0842 -0.9921
vn -0.0919 0.1445 -0.9852
vn -0.0931 -0.0080 -0.9956
vn 0.0926 0.0244 0.9954
vn 0.0925 0.0229 0.9954
vn 0.0922 0.0742 0.9930
vn 0.0914 0.1453 0.9852
vn 0.0920 0.0827 0.9923
vn 0.0922 -0.0080 0.9957
vn 0.2503 0.0230 -0.9679
vn 0.2502 0.0246 -0.9679
vn -0.0287 0.9928 0.1161
vn 0.2497 0.0738 -0.9655
vn 0.2493 0.0848 -0.9647
vn 0.2477 0.1450 -0.9579
vn 0.2504 -0.0080 -0.9681
vn -0.2502 0.0245 0.9679
vn -0.2502 0.0230 0.9679
vn -0.2495 0.0746 0.9655
vn -0.2475 0.1460 0.9578
vn -0.2495 0.0829 0.9648
vn -0.2502 -0.0080 0.9682
vn 0.5293 0.0228 -0.8481
vn 0.5292 0.0245 -0.8481
vn -0.0366 0.9974 0.0620
vn 0.5280 0.0736 -0.8460
vn 0.5277 0.0839 -0.8452
vn 0.5240 0.1445 -0.8394
vn 0.5297 -0.0080 -0.8481
vn -0.5291 0.0244 0.8482
vn -0.5291 0.0229 0.8483
vn -0.5277 0.0740 0.8462
vn -0.5234 0.1451 0.8396
vn -0.5272 0.0828 0.8457
vn -0.5289 -0.0080 0.8487
vn 0.6573 0.0229 -0.7533
vn 0.6572 0.0245 -0.7533
vn -0.0187 0.9996 0.0224
vn 0.6557 0.0738 -0.7514
vn 0.6552 0.0837 -0.7508
vn 0.6506 0.1447 -0.7455
vn 0.6575 -0.0080 -0.7534
vn -0.6572 0.0244 0.7533
vn -0.6572 0.0229 0.7533
vn -0.6556 0.0739 0.7515
vn -0.6504 0.1450 0.7456
vn -0.6551 0.0832 0.7510
vn -0.6573 -0.0080 0.7536
vn 0.6884 0.0229 -0.7249
vn 0.6884 0.0245 -0.7249
vn 0.0016 1.0000 -0.0017
vn 0.6867 0.0739 -0.7231
vn 0.6862 0.0835 -0.7226
vn 0.6814 0.1449 -0.7175
vn 0.6886 -0.0080 -0.7251
vn -0.6884 0.0245 0.7249
vn -0.6884 0.0229 0.7249
vn -0.6867 0.0739 0.7231
vn -0.6814 0.1449 0.7175
vn -0.6862 0.0835 0.7226
vn -0.6886 -0.0080 0.7251
vn 0.6579 0.0193 -0.7529
vn 0.6586 0.0245 -0.7521
vn 0.0328 0.9995 0.0030
vn 0.6554 0.0740 -0.7517
vn 0.6549 0.0833 -0.7511
vn 0.6502 0.1451 -0.7458
vn 0.6571 -0.0080 -0.7537
vn -0.6570 0.0245 0.7535
vn -0.6571 0.0229 0.7535
vn -0.6554 0.0738 0.7516
vn -0.6503 0.1449 0.7457
vn -0.6550 0.0837 0.7510
vn 0.6290 0.0157 -0.7773
vn 0.6305 0.0246 -0.7758
vn 0.0500 0.9986 0.0154
vn 0.6257 0.0739 -0.7765
vn 0.6253 0.0831 -0.7760
vn 0.6208 0.1450 -0.7704
vn 0.6274 -0.0080 -0.7787
vn -0.6273 0.0245 0.7784
vn -0.6273 0.0229 0.7784
vn -0.6258 0.0737 0.7765
vn -0.6209 0.1446 0.7704
vn -0.6254 0.0837 0.7758
vn -0.6275 -0.0080 0.7785
vt 0.000000 0.038234
vt 0.000000 1.000000
vt 0.086957 1.000000
vt 0.086957 0.038234
vt 0.000000 0.008333
vt 0.086957 0.008333
vt 0.000000 0.824203
vt 0.000000 0.648407
vt 0.043478 0.648407
vt 0.043478 0.824203
vt 0.000000 1.000000
vt 0.043478 1.000000
vt 0.000000 0.472610
vt 0.043478 0.472610
vt 0.000000 0.225190
vt 0.043478 0.225189
vt 0.043478 0.363142
vt 0.000000 0.363142
vt 0.000000 0.008333
vt 0.043478 0.008333
vt 0.173913 1.000000
vt 0.173913 0.038234
vt 0.173913 0.008333
vt 0.086957 0.648407
vt 0.086957 0.824203
vt 0.086957 1.000000
vt 0.086957 0.472610
vt 0.043478 0.225190
vt 0.086957 0.225189
vt 0.086957 0.363142
vt 0.086957 0.008333
vt 0.260870 1.000000
vt 0.260870 0.038234
vt 0.260870 0.008333
vt 0.130435 0.648407
vt 0.130435 0.824203
vt 0.130435 1.000000
vt 0.130435 0.472610
vt 0.086957 0.225190
vt 0.130435 0.225189
vt 0.130435 0.363142
vt 0.130435 0.008333
vt 0.347826 1.000000
vt 0.347826 0.038234
vt 0.347826 0.008333
vt 0.173913 0.648407
vt 0.173913 0.824203
vt 0.173913 1.000000
vt 0.173913 0.472610
vt 0.130435 0.225190
vt 0.173913 0.225189
vt 0.173913 0.363142
vt 0.173913 0.008333
vt 0.434783 1.000000
vt 0.434783 0.038234
vt 0.434783 0.008333
vt 0.217392 0.648407
vt 0.217392 0.824203
vt 0.217392 1.000000
vt 0.217392 0.472610
vt 0.173913 0.225190
vt 0.217392 0.225189
vt 0.217392 0.363142
vt 0.217392 0.008333
vt 0.521739 1.000000
vt 0.521739 0.038234
vt 0.521739 0.008333
vt 0.260870 0.648407
vt 0.260870 0.824203
vt 0.260870 1.000000
vt 0.260870 0.472610
vt 0.217392 0.225190
vt 0.260870 0.225189
vt 0.260870 0.363142
vt 0.260870 0.008333
vt 0.608696 1.000000
vt 0.608696 0.038234
vt 0.608696 0.008333
vt 0.304348 0.648407
vt 0.304348 0.824203
vt 0.304348 1.000000
vt 0.304348 0.472610
vt 0.260870 0.225190
vt 0.304348 0.225189
vt 0.304348 0.363142
vt 0.304348 0.008333
vt 0.695652 1.000000
vt 0.695652 0.038234
vt 0.695652 0.008333
vt 0.347827 0.648407
vt 0.347827 0.824203
vt 0.347827 1.000000
vt 0.347827 0.472610
vt 0.304348 0.225190
vt 0.347827 0.225189
vt 0.347827 0.363142
vt 0.347827 0.008333
vt 0.782609 1.000000
vt 0.782609 0.038234
vt 0.782609 0.008333
vt 0.391305 0.648407
vt 0.391305 0.824203
vt 0.391305 1.000000
vt 0.391305 0.472610
vt 0.347827 0.225190
vt 0.391305 0.225189
vt 0.391305 0.363142
vt 0.391305 0.008333
vt 0.869565 1.000000
vt 0.869565 0.038234
vt 0.869565 0.008333
vt 0.434783 0.648407
vt 0.434783 0.824203
vt 0.434783 1.000000
vt 0.434783 0.472610
vt 0.391305 0.225190
vt 0.434783 0.225189
vt 0.434783 0.363142
vt 0.434783 0.008333
vt 0.956522 1.000000
vt 0.956522 0.038234
vt 0.956522 0.008333
vt 0.478261 0.648407
vt 0.478261 0.824203
vt 0.478261 1.000000
vt 0.478261 0.472610
vt 0.434783 0.225190
vt 0.478261 0.225189
vt 0.478261 0.363142
vt 0.478261 0.008333
vt 1.043479 1.000000
vt 1.043479 0.038234
vt 1.043479 0.008333
vt 0.521739 0.648407
vt 0.521739 0.824203
vt 0.521739 1.000000
vt 0.521739 0.472610
vt 0.478261 0.225190
vt 0.521739 0.225189
vt 0.521739 0.363142
vt 0.521739 0.008333
vt 1.130436 1.000000
vt 1.130436 0.038234
vt 1.130436 0.008333
vt 0.565218 0.648407
vt 0.565218 0.824203
vt 0.565218 1.000000
vt 0.565218 0.472610
vt 0.521739 0.225190
vt 0.565218 0.225189
vt 0.565218 0.363142
vt 0.565218 0.008333
vt 1.217392 1.000000
vt 1.217392 0.038234
vt 1.217392 0.008333
vt 0.608696 0.648407
vt 0.608696 0.824203
vt 0.608696 1.000000
vt 0.608696 0.472610
vt 0.565218 0.225190
vt 0.608696 0.225189
vt 0.608696 0.363142
vt 0.608696 0.008333
vt 1.304348 1.000000
vt 1.304348 0.038234
vt 1.304348 0.008333
vt 0.652174 0.648407
vt 0.652174 0.824203
vt 0.652174 1.000000
vt 0.652174 0.472610
vt 0.608696 0.225190
vt 0.652174 0.225189
vt 0.652174 0.363142
vt 0.652174 0.008333
vt 1.391305 1.000000
vt 1.391305 0.038234
vt 1.391305 0.008333
vt 0.695653 0.648407
vt 0.695653 0.824203
vt 0.695653 1.000000
vt 0.695653 0.472610
vt 0.652174 0.225190
vt 0.695653 0.225189
vt 0.695653 0.363142
vt 0.695653 0.008333
vt 1.478262 1.000000
vt 1.478262 0.038234
vt 1.478262 0.008333
vt 0.739130 0.648407
vt 0.739130 0.824203
vt 0.739130 1.000000
vt 0.739130 0.472610
vt 0.695653 0.225190
vt 0.739130 0.225189
vt 0.739130 0.363142
vt 0.739130 0.008333
vt 1.565219 1.000000
vt 1.565219 0.038234
vt 1.565219 0.008333
vt 0.782610 0.648407
vt 0.782610 0.824203
vt 0.782610 1.000000
vt 0.782610 0.472610
vt 0.739130 0.225190
vt 0.782610 0.225189
vt 0.782610 0.363142
vt 0.782610 0.008333
vt 1.652174 1.000000
vt 1.652174 0.038234
vt 1.652174 0.008333
vt 0.826088 0.648407
vt 0.826088 0.824203
vt 0.826088 1.000000
vt 0.826088 0.472610
vt 0.782610 0.225190
vt 0.826088 0.225189
vt 0.826088 0.363142
vt 0.826088 0.008333
vt 1.739131 1.000000
vt 1.739131 0.038234
vt 1.739131 0.008333
vt 0.869566 0.648407
vt 0.869566 0.824203
vt 0.869566 1.000000
vt 0.869566 0.472610
vt 0.826088 0.225190
vt 0.869566 0.225189
vt 0.869566 0.363142
vt 0.869566 0.008333
vt 1.826088 1.000000
vt 1.826088 0.038234
vt 1.826088 0.008333
vt 0.913044 0.648407
vt 0.913044 0.824203
vt 0.913044 1.000000
vt 0.913044 0.472610
vt 0.869566 0.225190
vt 0.913044 0.225189
vt 0.913044 0.363142
vt 0.913044 0.008333
vt 1.913043 1.000000
vt 1.913043 0.038234
vt 1.913043 0.008333
vt 0.956522 0.648407
vt 0.956522 0.824203
vt 0.956522 1.000000
vt 0.956522 0.472610
vt 0.913044 0.225190
vt 0.956522 0.225189
vt 0.956522 0.363142
vt 0.956522 0.008333
vt 2.000000 1.000000
vt 2.000000 0.038234
vt 2.000000 0.008333
vt 1.000000 0.648407
vt 1.000000 0.824203
vt 1.000000 1.000000
vt 1.000000 0.472610
vt 0.956522 0.225190
vt 1.000000 0.225189
vt 1.000000 0.363142
vt 1.000000 0.008333
s 1
f 9/1/1 5/2/1 6/3/1 10/4/1
f 7/5/1 9/1/1 10/4/1 8/6/1
f 13/7/2 11/8/3 12/9/4 14/10/5
f 1/11/6 13/7/2 14/10/5 3/12/7
f 11/8/3 16/13/8 15/14/9 12/9/4
f 17/15/10 20/16/11 19/17/12 18/18/13
f 17/15/10 2/19/14 4/20/15 20/16/11
f 16/13/8 18/18/13 19/17/12 15/14/9
f 25/1/1 26/4/1 24/3/1 23/2/1
f 7/5/1 8/6/1 26/4/1 25/1/1
f 29/7/16 30/10/17 28/9/18 27/8/19
f 1/11/6 3/12/7 30/10/17 29/7/16
f 27/8/19 28/9/18 31/14/20 32/13/21
f 33/15/22 34/18/23 35/17/24 36/16/25
f 33/15/22 36/16/25 22/20/26 21/19/27
f 32/13/21 31/14/20 35/17/24 34/18/23
f 10/4/1 6/3/1 39/21/1 41/22/1
f 8/6/1 10/4/1 41/22/1 40/23/1
f 14/10/5 12/9/4 42/24/28 43/25/29
f 3/12/7 14/10/5 43/25/29 37/26/30
f 12/9/4 15/14/9 44/27/31 42/24/28
f 20/28/11 46/29/32 45/30/33 19/17/12
f 20/28/11 4/20/15 38/31/34 46/29/32
f 15/14/9 19/17/12 45/30/33 44/27/31
f 26/4/1 49/22/1 48/21/1 24/3/1
f 8/6/1 40/23/1 49/22/1 26/4/1
f 30/10/17 51/25/35 50/24/36 28/9/18
f 3/12/7 37/26/30 51/25/35 30/10/17
f 28/9/18 50/24/36 52/27/37 31/14/20
f 36/28/25 35/17/24 53/30/38 54/29/39
f 36/28/25 54/29/39 47/31/40 22/20/26
f 31/14/20 52/27/37 53/30/38 35/17/24
f 41/22/1 39/21/1 57/32/1 59/33/1
f 40/23/1 41/22/1 59/33/1 58/34/1
f 43/25/29 42/24/28 60/35/41 61/36/42
f 37/26/30 43/25/29 61/36/42 55/37/43
f 42/24/28 44/27/31 62/38/44 60/35/41
f 46/39/32 64/40/45 63/41/46 45/30/33
f 46/39/32 38/31/34 56/42/47 64/40/45
f 44/27/31 45/30/33 63/41/46 62/38/44
f 49/22/1 67/33/1 66/32/1 48/21/1
f 40/23/1 58/34/1 67/33/1 49/22/1
f 51/25/35 69/36/48 68/35/49 50/24/36
f 37/26/30 55/37/43 69/36/48 51/25/35
f 50/24/36 68/35/49 70/38/50 52/27/37
f 54/39/39 53/30/38 71/41/51 72/40/52
f 54/39/39 72/40/52 65/42/53 47/31/40
f 52/27/37 70/38/50 71/41/51 53/30/38
f 59/33/1 57/32/1 75/43/1 77/44/1
f 58/34/1 59/33/1 77/44/1 76/45/1
f 61/36/42 60/35/41 78/46/54 79/47/55
f 55/37/43 61/36/42 79/47/55 73/48/56
f 60/35/41 62/38/44 80/49/57 78/46/54
f 64/50/45 82/51/58 81/52/59 63/41/46
f 64/50/45 56/42/47 74/53/60 82/51/58
f 62/38/44 63/41/46 81/52/59 80/49/57
f 67/33/1 85/44/1 84/43/1 66/32/1
f 58/34/1 76/45/1 85/44/1 67/33/1
f 69/36/48 87/47/61 86/46/62 68/35/49
f 55/37/43 73/48/56 87/47/61 69/36/48
f 68/35/49 86/46/62 88/49/63 70/38/50
f 72/50/52 71/41/51 89/52/64 90/51/65
f 72/50/52 90/51/65 83/53/66 65/42/53
f 70/38/50 88/49/63 89/52/64 71/41/51
f 77/44/1 75/43/1 93/54/1 95/55/1
f 76/45/1 77/44/1 95/55/1 94/56/1
f 79/47/55 78/46/54 96/57/67 97/58/68
f 73/48/56 79/47/55 97/58/68 91/59/69
f 78/46/54 80/49/57 98/60/70 96/57/67
f 82/61/58 100/62/71 99/63/72 81/52/59
f 82/61/58 74/53/60 92/64/73 100/62/71
f 80/49/57 81/52/59 99/63/72 98/60/70
f 85/44/1 103/55/1 102/54/1 84/43/1
f 76/45/1 94/56/1 103/55/1 85/44/1
f 87/47/61 105/58/74 104/57/75 86/46/62
f 73/48/56 91/59/69 105/58/74 87/47/61
f 86/46/62 104/57/75 106/60/76 88/49/63
f 90/61/65 89/52/64 107/63/77 108/62/78
f 90/61/65 108/62/78 101/64/79 83/53/66
f 88/49/63 106/60/76 107/63/77 89/52/64
f 95/55/1 93/54/1 111/65/1 113/66/1
f 94/56/1 95/55/1 113/66/1 112/67/1
f 97/58/68 96/57/67 114/68/80 115/69/81
f 91/59/69 97/58/68 115/69/81 109/70/82
f 96/57/67 98/60/70 116/71/83 114/68/80
f 100/72/71 118/73/84 117/74/85 99/63/72
f 100/72/71 92/64/73 110/75/86 118/73/84
f 98/60/70 99/63/72 117/74/85 116/71/83
f 103/55/1 121/66/1 120/65/1 102/54/1
f 94/56/1 112/67/1 121/66/1 103/55/1
f 105/58/74 123/69/87 122/68/88 104/57/75
f 91/59/69 109/70/82 123/69/87 105/58/74
f 104/57/75 122/68/88 124/71/89 106/60/76
f 108/72/78 107/63/77 125/74/90 126/73/91
f 108/72/78 126/73/91 119/75/92 101/64/79
f 106/60/76 124/71/89 125/74/90 107/63/77
f 113/66/1 111/65/1 129/76/1 131/77/1
f 112/67/1 113/66/1 131/77/1 130/78/1
f 115/69/81 114/68/80 132/79/93 133/80/94
f 109/70/82 115/69/81 133/80/94 127/81/95
f 114/68/80 116/71/83 134/82/96 132/79/93
f 118/83/84 136/84/97 135/85/98 117/74/85
f 118/83/84 110/75/86 128/86/99 136/84/97
f 116/71/83 117/74/85 135/85/98 134/82/96
f 121/66/1 139/77/1 138/76/1 120/65/1
f 112/67/1 130/78/1 139/77/1 121/66/1
f 123/69/87 141/80/100 140/79/101 122/68/88
f 109/70/82 127/81/95 141/80/100 123/69/87
f 122/68/88 140/79/101 142/82/102 124/71/89
f 126/83/91 125/74/90 143/85/103 144/84/104
f 126/83/91 144/84/104 137/86/105 119/75/92
f 124/71/89 142/82/102 143/85/103 125/74/90
f 131/77/1 129/76/1 147/87/1 149/88/1
f 130/78/1 131/77/1 149/88/1 148/89/1
f 133/80/94 132/79/93 150/90/106 151/91/107
f 127/81/95 133/80/94 151/91/107 145/92/108
f 132/79/93 134/82/96 152/93/109 150/90/106
f 136/94/97 154/95/110 153/96/111 135/85/98
f 136/94/97 128/86/99 146/97/112 154/95/110
f 134/82/96 135/85/98 153/96/111 152/93/109
f 139/77/1 157/88/1 156/87/1 138/76/1
f 130/78/1 148/89/1 157/88/1 139/77/1
f 141/80/100 159/91/113 158/90/114 140/79/101
f 127/81/95 145/92/108 159/91/113 141/80/100
f 140/79/101 158/90/114 160/93/115 142/82/102
f 144/94/104 143/85/103 161/96/116 162/95/117
f 144/94/104 162/95/117 155/97/118 137/86/105
f 142/82/102 160/93/115 161/96/116 143/85/103
f 149/88/1 147/87/1 165/98/1 167/99/1
f 148/89/1 149/88/1 167/99/1 166/100/1
f 151/91/107 150/90/106 168/101/119 169/102/120
f 145/92/108 151/91/107 169/102/120 163/103/121
f 150/90/106 152/93/109 170/104/122 168/101/119
f 154/105/110 172/106/123 171/107/124 153/96/111
f 154/105/110 146/97/112 164/108/125 172/106/123
f 152/93/109 153/96/111 171/107/124 170/104/122
f 157/88/1 175/99/1 174/98/1 156/87/1
f 148/89/1 166/100/1 175/99/1 157/88/1
f 159/91/113 177/102/126 176/101/127 158/90/114
f 145/92/108 163/103/121 177/102/126 159/91/113
f 158/90/114 176/101/127 178/104/128 160/93/115
f 162/105/117 161/96/116 179/107/129 180/106/130
f 162/105/117 180/106/130 173/108/131 155/97/118
f 160/93/115 178/104/128 179/107/129 161/96/116
f 167/99/1 165/98/1 183/109/1 185/110/1
f 166/100/1 167/99/1 185/110/1 184/111/1
f 169/102/120 168/101/119 186/112/132 187/113/133
f 163/103/121 169/102/120 187/113/133 181/114/134
f 168/101/119 170/104/122 188/115/135 186/112/132
f 172/116/123 190/117/136 189/118/137 171/107/124
f 172/116/123 164/108/125 182/119/138 190/117/136
f 170/104/122 171/107/124 189/118/137 188/115/135
f 175/99/1 193/110/1 192/109/1 174/98/1
f 166/100/1 184/111/1 193/110/1 175/99/1
f 177/102/126 195/113/139 194/112/140 176/101/127
f 163/103/121 181/114/134 195/113/139 177/102/126
f 176/101/127 194/112/140 196/115/141 178/104/128
f 180/116/130 179/107/129 197/118/142 198/117/143
f 180/116/130 198/117/143 191/119/144 173/108/131
f 178/104/128 196/115/141 197/118/142 179/107/129
f 185/110/1 183/109/1 201/120/1 203/121/1
f 184/111/1 185/110/1 203/121/1 202/122/1
f 187/113/133 186/112/132 204/123/145 205/124/146
f 181/114/134 187/113/133 205/124/146 199/125/147
f 186/112/132 188/115/135 206/126/148 204/123/145
f 190/127/136 208/128/149 207/129/150 189/118/137
f 190/127/136 182/119/138 200/130/151 208/128/149
f 188/115/135 189/118/137 207/129/150 206/126/148
f 193/110/1 211/121/1 210/120/1 192/109/1
f 184/111/1 202/122/1 211/121/1 193/110/1
f 195/113/139 213/124/152 212/123/153 194/112/140
f 181/114/134 199/125/147 213/124/152 195/113/139
f 194/112/140 212/123/153 214/126/154 196/115/141
f 198/127/143 197/118/142 215/129/155 216/128/156
f 198/127/143 216/128/156 209/130/157 191/119/144
f 196/115/141 214/126/154 215/129/155 197/118/142
f 203/121/1 201/120/1 219/131/1 221/132/1
f 202/122/1 203/121/1 221/132/1 220/133/1
f 205/124/146 204/123/145 222/134/158 223/135/159
f 199/125/147 205/124/146 223/135/159 217/136/160
f 204/123/145 206/126/148 224/137/161 222/134/158
f 208/138/149 226/139/162 225/140/163 207/129/150
f 208/138/149 200/130/151 218/141/164 226/139/162
f 206/126/148 207/129/150 225/140/163 224/137/161
f 211/121/1 229/132/1 228/131/1 210/120/1
f 202/122/1 220/133/1 229/132/1 211/121/1
f 213/124/152 231/135/165 230/134/166 212/123/153
f 199/125/147 217/136/160 231/135/165 213/124/152
f 212/123/153 230/134/166 232/137/167 214/126/154
f 216/138/156 215/129/155 233/140/168 234/139/169
f 216/138/156 234/139/169 227/141/170 209/130/157
f 214/126/154 232/137/167 233/140/168 215/129/155
f 221/132/1 219/131/1 237/142/1 239/143/1
f 220/133/1 221/132/1 239/143/1 238/144/1
f 223/135/159 222/134/158 240/145/171 241/146/172
f 217/136/160 223/135/159 241/146/172 235/147/173
f 222/134/158 224/137/161 242/148/174 240/145/171
f 226/149/162 244/150/175 243/151/176 225/140/163
f 226/149/162 218/141/164 236/152/177 244/150/175
f 224/137/161 225/140/163 243/151/176 242/148/174
f 229/132/1 247/143/1 246/142/1 228/131/1
f 220/133/1 238/144/1 247/143/1 229/132/1
f 231/135/165 249/146/178 248/145/179 230/134/166
f 217/136/160 235/147/173 249/146/178 231/135/165
f 230/134/166 248/145/179 250/148/180 232/137/167
f 234/149/169 233/140/168 251/151/181 252/150/182
f 234/149/169 252/150/182 245/152/183 227/141/170
f 232/137/167 250/148/180 251/151/181 233/140/168
f 239/143/1 237/142/1 255/153/1 257/154/1
f 238/144/1 239/143/1 257/154/1 256/155/1
f 241/146/172 240/145/171 258/156/184 259/157/185
f 235/147/173 241/146/172 259/157/185 253/158/186
f 240/145/171 242/148/174 260/159/187 258/156/184
f 244/160/175 262/161/188 261/162/189 243/151/176
f 244/160/175 236/152/177 254/163/190 262/161/188
f 242/148/174 243/151/176 261/162/189 260/159/187
f 247/143/1 265/154/1 264/153/1 246/142/1
f 238/144/1 256/155/1 265/154/1 247/143/1
f 249/146/178 267/157/191 266/156/192 248/145/179
f 235/147/173 253/158/186 267/157/191 249/146/178
f 248/145/179 266/156/192 268/159/193 250/148/180
f 252/160/182 251/151/181 269/162/194 270/161/195
f 252/160/182 270/161/195 263/163/196 245/152/183
f 250/148/180 268/159/193 269/162/194 251/151/181
f 257/154/1 255/153/1 273/164/1 275/165/1
f 256/155/1 257/154/1 275/165/1 274/166/1
f 259/157/185 258/156/184 276/167/197 277/168/198
f 253/158/186 259/157/185 277/168/198 271/169/199
f 258/156/184 260/159/187 278/170/200 276/167/197
f 262/171/188 280/172/201 279/173/202 261/162/189
f 262/171/188 254/163/190 272/174/203 280/172/201
f 260/159/187 261/162/189 279/173/202 278/170/200
f 265/154/1 283/165/1 282/164/1 264/153/1
f 256/155/1 274/166/1 283/165/1 265/154/1
f 267/157/191 285/168/204 284/167/205 266/156/192
f 253/158/186 271/169/199 285/168/204 267/157/191
f 266/156/192 284/167/205 286/170/206 268/159/193
f 270/171/195 269/162/194 287/173/207 288/172/208
f 270/171/195 288/172/208 281/174/209 263/163/196
f 268/159/193 286/170/206 287/173/207 269/162/194
f 275/165/1 273/164/1 291/175/1 293/176/1
f 274/166/1 275/165/1 293/176/1 292/177/1
f 277/168/198 276/167/197 294/178/210 295/179/211
f 271/169/199 277/168/198 295/179/211 289/180/212
f 276/167/197 278/170/200 296/181/213 294/178/210
f 280/182/201 298/183/214 297/184/215 279/173/202
f 280/182/201 272/174/203 290/185/216 298/183/214
f 278/170/200 279/173/202 297/184/215 296/181/213
f 283/165/1 301/176/1 300/175/1 282/164/1
f 274/166/1 292/177/1 301/176/1 283/165/1
f 285/168/204 303/179/217 302/178/218 284/167/205
f 271/169/199 289/180/212 303/179/217 285/168/204
f 284/167/205 302/178/218 304/181/219 286/170/206
f 288/182/208 287/173/207 305/184/220 306/183/221
f 288/182/208 306/183/221 299/185/222 281/174/209
f 286/170/206 304/181/219 305/184/220 287/173/207
f 293/176/1 291/175/1 309/186/1 311/187/1
f 292/177/1 293/176/1 311/187/1 310/188/1
f 295/179/211 294/178/210 312/189/223 313/190/224
f 289/180/212 295/179/211 313/190/224 307/191/225
f 294/178/210 296/181/213 314/192/226 312/189/223
f 298/193/214 316/194/227 315/195/228 297/184/215
f 298/193/214 290/185/216 308/196/229 316/194/227
f 296/181/213 297/184/215 315/195/228 314/192/226
f 301/176/1 319/187/1 318/186/1 300/175/1
f 292/177/1 310/188/1 319/187/1 301/176/1
f 303/179/217 321/190/230 320/189/231 302/178/218
f 289/180/212 307/191/225 321/190/230 303/179/217
f 302/178/218 320/189/231 322/192/232 304/181/219
f 306/193/221 305/184/220 323/195/233 324/194/234
f 306/193/221 324/194/234 317/196/235 299/185/222
f 304/181/219 322/192/232 323/195/233 305/184/220
f 311/187/1 309/186/1 327/197/1 329/198/1
f 310/188/1 311/187/1 329/198/1 328/199/1
f 313/190/224 312/189/223 330/200/236 331/201/237
f 307/191/225 313/190/224 331/201/237 325/202/238
f 312/189/223 314/192/226 332/203/239 330/200/236
f 316/204/227 334/205/240 333/206/241 315/195/228
f 316/204/227 308/196/229 326/207/242 334/205/240
f 314/192/226 315/195/228 333/206/241 332/203/239
f 319/187/1 337/198/1 336/197/1 318/186/1
f 310/188/1 328/199/1 337/198/1 319/187/1
f 321/190/230 339/201/243 338/200/244 320/189/231
f 307/191/225 325/202/238 339/201/243 321/190/230
f 320/189/231 338/200/244 340/203/245 322/192/232
f 324/204/234 323/195/233 341/206/246 342/205/247
f 324/204/234 342/205/247 335/207/248 317/196/235
f 322/192/232 340/203/245 341/206/246 323/195/233
f 329/198/1 327/197/1 345/208/1 347/209/1
f 328/199/1 329/198/1 347/209/1 346/210/1
f 331/201/237 330/200/236 348/211/249 349/212/250
f 325/202/238 331/201/237 349/212/250 343/213/251
f 330/200/236 332/203/239 350/214/252 348/211/249
f 334/215/240 352/216/253 351/217/254 333/206/241
f 334/215/240 326/207/242 344/218/255 352/216/253
f 332/203/239 333/206/241 351/217/254 350/214/252
f 337/198/1 355/209/1 354/208/1 336/197/1
f 328/199/1 346/210/1 355/209/1 337/198/1
f 339/201/243 357/212/256 356/211/257 338/200/244
f 325/202/238 343/213/251 357/212/256 339/201/243
f 338/200/244 356/211/257 358/214/258 340/203/245
f 342/215/247 341/206/246 359/217/259 360/216/260
f 342/215/247 360/216/260 353/218/261 335/207/248
f 340/203/245 358/214/258 359/217/259 341/206/246
f 347/209/1 345/208/1 363/219/1 365/220/1
f 346/210/1 347/209/1 365/220/1 364/221/1
f 349/212/250 348/211/249 366/222/262 367/223/263
f 343/213/251 349/212/250 367/223/263 361/224/264
f 348/211/249 350/214/252 368/225/265 366/222/262
f 352/226/253 370/227/266 369/228/267 351/217/254
f 352/226/253 344/218/255 362/229/268 370/227/266
f 350/214/252 351/217/254 369/228/267 368/225/265
f 355/209/1 373/220/1 372/219/1 354/208/1
f 346/210/1 364/221/1 373/220/1 355/209/1
f 357/212/256 375/223/269 374/222/270 356/211/257
f 343/213/251 361/224/264 375/223/269 357/212/256
f 356/211/257 374/222/270 376/225/271 358/214/258
f 360/226/260 359/217/259 377/228/272 378/227/273
f 360/226/260 378/227/273 371/229/274 353/218/261
f 358/214/258 376/225/271 377/228/272 359/217/259
f 365/220/1 363/219/1 381/230/1 383/231/1
f 364/221/1 365/220/1 383/231/1 382/232/1
f 367/223/263 366/222/262 384/233/275 385/234/276
f 361/224/264 367/223/263 385/234/276 379/235/277
f 366/222/262 368/225/265 386/236/278 384/233/275
f 370/237/266 388/238/279 387/239/280 369/228/267
f 370/237/266 362/229/268 380/240/281 388/238/279
f 368/225/265 369/228/267 387/239/280 386/236/278
f 373/220/1 391/231/1 390/230/1 372/219/1
f 364/221/1 382/232/1 391/231/1 373/220/1
f 375/223/269 393/234/282 392/233/283 374/222/270
f 361/224/264 379/235/277 393/234/282 375/223/269
f 374/222/270 392/233/283 394/236/284 376/225/271
f 378/237/273 377/228/272 395/239/285 396/238/286
f 378/237/273 396/238/286 389/240/287 371/229/274
f 376/225/271 394/236/284 395/239/285 377/228/272
f 383/231/1 381/230/1 399/241/1 401/242/1
f 382/232/1 383/231/1 401/242/1 400/243/1
f 385/234/276 384/233/275 402/244/288 403/245/289
f 379/235/277 385/234/276 403/245/289 397/246/290
f 384/233/275 386/236/278 404/247/291 402/244/288
f 388/248/279 406/249/292 405/250/293 387/239/280
f 388/248/279 380/240/281 398/251/294 406/249/292
f 386/236/278 387/239/280 405/250/293 404/247/291
f 391/231/1 409/242/1 408/241/1 390/230/1
f 382/232/1 400/243/1 409/242/1 391/231/1
f 393/234/282 411/245/295 410/244/296 392/233/283
f 379/235/277 397/246/290 411/245/295 393/234/282
f 392/233/283 410/244/296 412/247/297 394/236/284
f 396/248/286 395/239/285 413/250/298 414/249/299
f 396/248/286 414/249/299 407/251/274 389/240/287
f 394/236/284 412/247/297 413/250/298 395/239/285
f 401/242/1 399/241/1 417/252/1 419/253/1
f 400/243/1 401/242/1 419/253/1 418/254/1
f 403/245/289 402/244/288 420/255/300 421/256/301
f 397/246/290 403/245/289 421/256/301 415/257/302
f 402/244/288 404/247/291 422/258/303 420/255/300
f 406/259/292 424/260/304 423/261/305 405/250/293
f 406/259/292 398/251/294 416/262/306 424/260/304
f 404/247/291 405/250/293 423/261/305 422/258/303
f 409/242/1 427/253/1 426/252/1 408/241/1
f 400/243/1 418/254/1 427/253/1 409/242/1
f 411/245/295 429/256/307 428/255/308 410/244/296
f 397/246/290 415/257/302 429/256/307 411/245/295
f 410/244/296 428/255/308 430/258/309 412/247/297
f 414/259/299 413/250/298 431/261/310 432/260/311
f 414/259/299 432/260/311 425/262/312 407/251/274
f 412/247/297 430/258/309 431/261/310 413/250/298
