# Blender 4.5.1 LTS
# www.blender.org
o Plane
v -0.000000 0.000000 -0.097080
v 0.000000 0.000000 -2.995330
v 0.037151 0.000000 -0.089691
v 1.146263 0.000000 -2.767324
v 0.068646 0.000000 -0.068646
v 2.118018 0.000000 -2.118018
v 0.089691 0.000000 -0.037151
v 2.767324 0.000000 -1.146263
v 0.097080 0.000000 0.000000
v 2.995330 0.000000 -0.000000
v 0.089691 0.000000 0.037151
v 2.767324 0.000000 1.146263
v 0.068646 0.000000 0.068646
v 2.118018 0.000000 2.118018
v 0.037151 0.000000 0.089691
v 1.146263 0.000000 2.767324
v -0.000000 0.000000 0.097080
v 0.000000 0.000000 2.995330
v -0.037151 0.000000 0.089691
v -1.146263 0.000000 2.767324
v -0.068646 0.000000 0.068646
v -2.118018 0.000000 2.118018
v -0.089691 0.000000 0.037151
v -2.767324 0.000000 1.146263
v -0.097080 0.000000 0.000000
v -2.995330 0.000000 -0.000000
v -0.089691 0.000000 -0.037151
v -2.767324 0.000000 -1.146263
v -0.068646 0.000000 -0.068646
v -2.118018 0.000000 -2.118018
v -0.037151 0.000000 -0.089691
v -1.146263 0.000000 -2.767324
v -0.000000 0.000000 -0.933225
v 0.000000 0.000000 -1.620593
v 0.000000 0.000000 -2.307962
v 0.883219 0.000000 -2.132278
v 0.620174 0.000000 -1.497233
v 0.357130 0.000000 -0.862187
v 1.631975 0.000000 -1.631975
v 1.145932 0.000000 -1.145932
v 0.659890 0.000000 -0.659890
v 2.132278 0.000000 -0.883219
v 1.497233 0.000000 -0.620174
v 0.862187 0.000000 -0.357130
v 2.307962 0.000000 -0.000000
v 1.620593 0.000000 -0.000000
v 0.933225 0.000000 0.000000
v 2.132278 0.000000 0.883219
v 1.497233 0.000000 0.620174
v 0.862187 0.000000 0.357130
v 1.631975 0.000000 1.631975
v 1.145932 0.000000 1.145932
v 0.659890 0.000000 0.659890
v 0.883219 0.000000 2.132278
v 0.620174 0.000000 1.497233
v 0.357130 0.000000 0.862187
v 0.000000 0.000000 2.307962
v 0.000000 0.000000 1.620593
v -0.000000 0.000000 0.933225
v -0.883219 0.000000 2.132278
v -0.620174 0.000000 1.497233
v -0.357130 0.000000 0.862187
v -1.631975 0.000000 1.631975
v -1.145932 0.000000 1.145932
v -0.659890 0.000000 0.659890
v -2.132278 0.000000 0.883219
v -1.497233 0.000000 0.620174
v -0.862187 0.000000 0.357130
v -2.307962 0.000000 -0.000000
v -1.620593 0.000000 -0.000000
v -0.933225 0.000000 0.000000
v -2.132278 0.000000 -0.883219
v -1.497233 0.000000 -0.620174
v -0.862187 0.000000 -0.357130
v -1.631975 0.000000 -1.631975
v -1.145932 0.000000 -1.145932
v -0.659890 0.000000 -0.659890
v -0.883219 0.000000 -2.132278
v -0.620174 0.000000 -1.497233
v -0.357130 0.000000 -0.862187
v -0.000000 0.000000 -0.018965
v 0.000000 1.343061 -1.331080
v 0.007258 0.000000 -0.017521
v 0.509382 1.343061 -1.229757
v 0.013410 -0.000000 -0.013410
v 0.941216 1.343061 -0.941216
v 0.017521 -0.000000 -0.007258
v 1.229757 1.343061 -0.509382
v 0.018965 0.000000 0.000000
v 1.331080 1.343061 0.000000
v 0.017521 0.000000 0.007258
v 1.229757 1.343061 0.509382
v 0.013410 0.000000 0.013410
v 0.941216 1.343061 0.941216
v 0.007258 -0.000000 0.017521
v 0.509382 1.343061 1.229757
v -0.000000 -0.000000 0.018965
v 0.000000 1.343061 1.331080
v -0.007258 -0.000000 0.017521
v -0.509382 1.343061 1.229757
v -0.013410 0.000000 0.013410
v -0.941216 1.343061 0.941216
v -0.017521 0.000000 0.007258
v -1.229757 1.343061 0.509382
v -0.018965 0.000000 0.000000
v -1.331080 1.343061 0.000000
v -0.017521 -0.000000 -0.007258
v -1.229757 1.343061 -0.509382
v -0.013410 -0.000000 -0.013410
v -0.941216 1.343061 -0.941216
v -0.007258 0.000000 -0.017521
v -0.509382 1.343061 -1.229757
v 0.000000 0.311329 -0.629843
v 0.000000 0.651336 -0.853375
v 0.000000 1.002295 -1.027111
v 0.393058 1.002295 -0.948926
v 0.326573 0.651336 -0.788416
v 0.241030 0.311329 -0.581899
v 0.726277 1.002295 -0.726277
v 0.603427 0.651336 -0.603427
v 0.445366 0.311329 -0.445366
v 0.948926 1.002295 -0.393058
v 0.788416 0.651336 -0.326573
v 0.581899 0.311329 -0.241030
v 1.027110 1.002295 -0.000000
v 0.853375 0.651336 -0.000000
v 0.629843 0.311329 0.000000
v 0.948926 1.002295 0.393058
v 0.788416 0.651336 0.326573
v 0.581899 0.311329 0.241030
v 0.726277 1.002295 0.726277
v 0.603427 0.651336 0.603427
v 0.445366 0.311329 0.445366
v 0.393058 1.002295 0.948926
v 0.326573 0.651336 0.788416
v 0.241030 0.311329 0.581899
v 0.000000 1.002295 1.027110
v 0.000000 0.651336 0.853375
v 0.000000 0.311329 0.629843
v -0.393058 1.002295 0.948926
v -0.326573 0.651336 0.788416
v -0.241031 0.311329 0.581899
v -0.726277 1.002295 0.726277
v -0.603427 0.651336 0.603427
v -0.445366 0.311329 0.445366
v -0.948926 1.002295 0.393058
v -0.788416 0.651336 0.326573
v -0.581899 0.311329 0.241030
v -1.027110 1.002295 -0.000000
v -0.853375 0.651336 -0.000000
v -0.629843 0.311329 0.000000
v -0.948926 1.002295 -0.393058
v -0.788416 0.651336 -0.326573
v -0.581899 0.311329 -0.241030
v -0.726277 1.002295 -0.726277
v -0.603427 0.651336 -0.603427
v -0.445366 0.311329 -0.445366
v -0.393058 1.002295 -0.948926
v -0.326573 0.651336 -0.788416
v -0.241031 0.311329 -0.581899
vn -0.0000 1.0000 -0.0000
vn -0.0000 0.5676 0.8233
vn -0.3151 0.5676 0.7607
vn -0.2856 0.6657 0.6894
vn -0.0000 0.6657 0.7462
vn -0.5822 0.5676 0.5822
vn -0.5277 0.6657 0.5277
vn -0.7607 0.5676 0.3151
vn -0.6894 0.6657 0.2856
vn -0.8233 0.5676 -0.0000
vn -0.7462 0.6657 -0.0000
vn -0.7607 0.5676 -0.3151
vn -0.6894 0.6657 -0.2856
vn -0.5822 0.5676 -0.5822
vn -0.5277 0.6657 -0.5277
vn -0.3151 0.5676 -0.7607
vn -0.2856 0.6657 -0.6894
vn -0.0000 0.5676 -0.8233
vn -0.0000 0.6657 -0.7462
vn 0.3151 0.5676 -0.7607
vn 0.2856 0.6657 -0.6894
vn 0.5822 0.5676 -0.5822
vn 0.5277 0.6657 -0.5277
vn 0.7607 0.5676 -0.3151
vn 0.6894 0.6657 -0.2856
vn 0.8233 0.5676 -0.0000
vn 0.7462 0.6657 -0.0000
vn 0.7607 0.5676 0.3151
vn 0.6894 0.6657 0.2856
vn 0.5822 0.5676 0.5822
vn 0.5277 0.6657 0.5277
vn 0.3151 0.5676 0.7607
vn 0.2856 0.6657 0.6894
vn 0.1738 0.8910 0.4195
vn -0.0000 0.8910 0.4541
vn -0.0000 0.7294 0.6841
vn 0.2618 0.7294 0.6320
vn -0.0000 0.4942 0.8694
vn 0.3327 0.4942 0.8032
vn 0.3211 0.8910 0.3211
vn 0.4837 0.7294 0.4837
vn 0.6147 0.4942 0.6147
vn 0.4195 0.8910 0.1738
vn 0.6320 0.7294 0.2618
vn 0.8032 0.4942 0.3327
vn 0.4541 0.8910 -0.0000
vn 0.6841 0.7294 -0.0000
vn 0.8694 0.4942 -0.0000
vn 0.4195 0.8910 -0.1738
vn 0.6320 0.7294 -0.2618
vn 0.8032 0.4942 -0.3327
vn 0.3211 0.8910 -0.3211
vn 0.4837 0.7294 -0.4837
vn 0.6147 0.4942 -0.6147
vn 0.1738 0.8910 -0.4195
vn 0.2618 0.7294 -0.6320
vn 0.3327 0.4942 -0.8032
vn -0.0000 0.8910 -0.4541
vn -0.0000 0.7294 -0.6841
vn -0.0000 0.4942 -0.8694
vn -0.1738 0.8910 -0.4195
vn -0.2618 0.7294 -0.6320
vn -0.3327 0.4942 -0.8032
vn -0.3211 0.8910 -0.3211
vn -0.4837 0.7294 -0.4837
vn -0.6147 0.4942 -0.6147
vn -0.4195 0.8910 -0.1738
vn -0.6320 0.7294 -0.2618
vn -0.8032 0.4942 -0.3327
vn -0.4541 0.8910 -0.0000
vn -0.6841 0.7294 -0.0000
vn -0.8694 0.4942 -0.0000
vn -0.4195 0.8910 0.1738
vn -0.6320 0.7294 0.2618
vn -0.8032 0.4942 0.3327
vn -0.3211 0.8910 0.3211
vn -0.4837 0.7294 0.4837
vn -0.6147 0.4942 0.6147
vn -0.1738 0.8910 0.4195
vn -0.2618 0.7294 0.6320
vn -0.3327 0.4942 0.8032
vt 1.000000 0.851562
vt 0.937500 0.851562
vt 0.937500 1.000000
vt 1.000000 1.000000
vt 0.875000 0.851562
vt 0.875000 1.000000
vt 0.812500 0.851562
vt 0.812500 1.000000
vt 0.750000 0.851562
vt 0.750000 1.000000
vt 0.687500 0.851562
vt 0.687500 1.000000
vt 0.625000 0.851562
vt 0.625000 1.000000
vt 0.562500 0.851562
vt 0.562500 1.000000
vt 0.500000 0.851562
vt 0.500000 1.000000
vt 0.437500 0.851562
vt 0.437500 1.000000
vt 0.375000 0.851562
vt 0.375000 1.000000
vt 0.312500 0.851562
vt 0.312500 1.000000
vt 0.250000 0.851562
vt 0.250000 1.000000
vt 0.187500 0.851562
vt 0.187500 1.000000
vt 0.125000 0.851562
vt 0.125000 1.000000
vt 0.062500 0.851562
vt 0.062500 1.000000
vt 0.000000 0.851562
vt 0.000000 1.000000
vt 0.062500 0.000000
vt 0.000000 0.000000
vt 0.000000 0.312500
vt 0.062500 0.312500
vt 0.000000 0.597656
vt 0.062500 0.597656
vt 0.125000 0.000000
vt 0.125000 0.312500
vt 0.125000 0.597656
vt 0.187500 0.000000
vt 0.187500 0.312500
vt 0.187500 0.597656
vt 0.250000 0.000000
vt 0.250000 0.312500
vt 0.250000 0.597656
vt 0.312500 0.000000
vt 0.312500 0.312500
vt 0.312500 0.597656
vt 0.375000 0.000000
vt 0.375000 0.312500
vt 0.375000 0.597656
vt 0.437500 0.000000
vt 0.437500 0.312500
vt 0.437500 0.597656
vt 0.500000 0.000000
vt 0.500000 0.312500
vt 0.500000 0.597656
vt 0.562500 0.000000
vt 0.562500 0.312500
vt 0.562500 0.597656
vt 0.625000 0.000000
vt 0.625000 0.312500
vt 0.625000 0.597656
vt 0.687500 0.000000
vt 0.687500 0.312500
vt 0.687500 0.597656
vt 0.750000 0.000000
vt 0.750000 0.312500
vt 0.750000 0.597656
vt 0.812500 0.000000
vt 0.812500 0.312500
vt 0.812500 0.597656
vt 0.875000 0.000000
vt 0.875000 0.312500
vt 0.875000 0.597656
vt 0.937500 0.000000
vt 0.937500 0.312500
vt 0.937500 0.597656
vt 1.000000 0.000000
vt 1.000000 0.312500
vt 1.000000 0.597656
vt 1.000000 0.872640
vt 0.937500 0.872640
vt 0.875000 0.872640
vt 0.812500 0.872640
vt 0.750000 0.872640
vt 0.687500 0.872640
vt 0.625000 0.872640
vt 0.562500 0.872640
vt 0.500000 0.872640
vt 0.437500 0.872640
vt 0.375000 0.872640
vt 0.312500 0.872640
vt 0.250000 0.872640
vt 0.187500 0.872640
vt 0.125000 0.872640
vt 0.062500 0.872640
vt 0.000000 0.872640
vt 0.000000 0.500533
vt 0.062500 0.500533
vt 0.000000 0.709908
vt 0.062500 0.709908
vt 0.125000 0.500533
vt 0.125000 0.709908
vt 0.187500 0.500533
vt 0.187500 0.709908
vt 0.250000 0.500533
vt 0.250000 0.709908
vt 0.312500 0.500533
vt 0.312500 0.709908
vt 0.375000 0.500533
vt 0.375000 0.709908
vt 0.437500 0.500533
vt 0.437500 0.709908
vt 0.500000 0.500533
vt 0.500000 0.709908
vt 0.562500 0.500533
vt 0.562500 0.709908
vt 0.625000 0.500533
vt 0.625000 0.709908
vt 0.687500 0.500533
vt 0.687500 0.709908
vt 0.750000 0.500533
vt 0.750000 0.709908
vt 0.812500 0.500533
vt 0.812500 0.709908
vt 0.875000 0.500533
vt 0.875000 0.709908
vt 0.937500 0.500533
vt 0.937500 0.709908
vt 1.000000 0.500533
vt 1.000000 0.709908
s 0
f 35/1/1 36/2/1 4/3/1 2/4/1
f 36/2/1 39/5/1 6/6/1 4/3/1
f 39/5/1 42/7/1 8/8/1 6/6/1
f 42/7/1 45/9/1 10/10/1 8/8/1
f 45/9/1 48/11/1 12/12/1 10/10/1
f 48/11/1 51/13/1 14/14/1 12/12/1
f 51/13/1 54/15/1 16/16/1 14/14/1
f 54/15/1 57/17/1 18/18/1 16/16/1
f 57/17/1 60/19/1 20/20/1 18/18/1
f 60/19/1 63/21/1 22/22/1 20/20/1
f 63/21/1 66/23/1 24/24/1 22/22/1
f 66/23/1 69/25/1 26/26/1 24/24/1
f 69/25/1 72/27/1 28/28/1 26/26/1
f 72/27/1 75/29/1 30/30/1 28/28/1
f 75/29/1 78/31/1 32/32/1 30/30/1
f 78/31/1 35/33/1 2/34/1 32/32/1
f 31/35/1 1/36/1 33/37/1 80/38/1
f 80/38/1 33/37/1 34/39/1 79/40/1
f 79/40/1 34/39/1 35/33/1 78/31/1
f 29/41/1 31/35/1 80/38/1 77/42/1
f 77/42/1 80/38/1 79/40/1 76/43/1
f 76/43/1 79/40/1 78/31/1 75/29/1
f 27/44/1 29/41/1 77/42/1 74/45/1
f 74/45/1 77/42/1 76/43/1 73/46/1
f 73/46/1 76/43/1 75/29/1 72/27/1
f 25/47/1 27/44/1 74/45/1 71/48/1
f 71/48/1 74/45/1 73/46/1 70/49/1
f 70/49/1 73/46/1 72/27/1 69/25/1
f 23/50/1 25/47/1 71/48/1 68/51/1
f 68/51/1 71/48/1 70/49/1 67/52/1
f 67/52/1 70/49/1 69/25/1 66/23/1
f 21/53/1 23/50/1 68/51/1 65/54/1
f 65/54/1 68/51/1 67/52/1 64/55/1
f 64/55/1 67/52/1 66/23/1 63/21/1
f 19/56/1 21/53/1 65/54/1 62/57/1
f 62/57/1 65/54/1 64/55/1 61/58/1
f 61/58/1 64/55/1 63/21/1 60/19/1
f 17/59/1 19/56/1 62/57/1 59/60/1
f 59/60/1 62/57/1 61/58/1 58/61/1
f 58/61/1 61/58/1 60/19/1 57/17/1
f 15/62/1 17/59/1 59/60/1 56/63/1
f 56/63/1 59/60/1 58/61/1 55/64/1
f 55/64/1 58/61/1 57/17/1 54/15/1
f 13/65/1 15/62/1 56/63/1 53/66/1
f 53/66/1 56/63/1 55/64/1 52/67/1
f 52/67/1 55/64/1 54/15/1 51/13/1
f 11/68/1 13/65/1 53/66/1 50/69/1
f 50/69/1 53/66/1 52/67/1 49/70/1
f 49/70/1 52/67/1 51/13/1 48/11/1
f 9/71/1 11/68/1 50/69/1 47/72/1
f 47/72/1 50/69/1 49/70/1 46/73/1
f 46/73/1 49/70/1 48/11/1 45/9/1
f 7/74/1 9/71/1 47/72/1 44/75/1
f 44/75/1 47/72/1 46/73/1 43/76/1
f 43/76/1 46/73/1 45/9/1 42/7/1
f 5/77/1 7/74/1 44/75/1 41/78/1
f 41/78/1 44/75/1 43/76/1 40/79/1
f 40/79/1 43/76/1 42/7/1 39/5/1
f 3/80/1 5/77/1 41/78/1 38/81/1
f 38/81/1 41/78/1 40/79/1 37/82/1
f 37/82/1 40/79/1 39/5/1 36/2/1
f 1/83/1 3/80/1 38/81/1 33/84/1
f 33/84/1 38/81/1 37/82/1 34/85/1
f 34/85/1 37/82/1 36/2/1 35/1/1
s 1
f 115/86/2 116/87/3 84/3/4 82/4/5
f 116/87/3 119/88/6 86/6/7 84/3/4
f 119/88/6 122/89/8 88/8/9 86/6/7
f 122/89/8 125/90/10 90/10/11 88/8/9
f 125/90/10 128/91/12 92/12/13 90/10/11
f 128/91/12 131/92/14 94/14/15 92/12/13
f 131/92/14 134/93/16 96/16/17 94/14/15
f 134/93/16 137/94/18 98/18/19 96/16/17
f 137/94/18 140/95/20 100/20/21 98/18/19
f 140/95/20 143/96/22 102/22/23 100/20/21
f 143/96/22 146/97/24 104/24/25 102/22/23
f 146/97/24 149/98/26 106/26/27 104/24/25
f 149/98/26 152/99/28 108/28/29 106/26/27
f 152/99/28 155/100/30 110/30/31 108/28/29
f 155/100/30 158/101/32 112/32/33 110/30/31
f 158/101/32 115/102/2 82/34/5 112/32/33
f 111/35/34 81/36/35 113/103/36 160/104/37
f 160/104/37 113/103/36 114/105/38 159/106/39
f 159/106/39 114/105/38 115/102/2 158/101/32
f 109/41/40 111/35/34 160/104/37 157/107/41
f 157/107/41 160/104/37 159/106/39 156/108/42
f 156/108/42 159/106/39 158/101/32 155/100/30
f 107/44/43 109/41/40 157/107/41 154/109/44
f 154/109/44 157/107/41 156/108/42 153/110/45
f 153/110/45 156/108/42 155/100/30 152/99/28
f 105/47/46 107/44/43 154/109/44 151/111/47
f 151/111/47 154/109/44 153/110/45 150/112/48
f 150/112/48 153/110/45 152/99/28 149/98/26
f 103/50/49 105/47/46 151/111/47 148/113/50
f 148/113/50 151/111/47 150/112/48 147/114/51
f 147/114/51 150/112/48 149/98/26 146/97/24
f 101/53/52 103/50/49 148/113/50 145/115/53
f 145/115/53 148/113/50 147/114/51 144/116/54
f 144/116/54 147/114/51 146/97/24 143/96/22
f 99/56/55 101/53/52 145/115/53 142/117/56
f 142/117/56 145/115/53 144/116/54 141/118/57
f 141/118/57 144/116/54 143/96/22 140/95/20
f 97/59/58 99/56/55 142/117/56 139/119/59
f 139/119/59 142/117/56 141/118/57 138/120/60
f 138/120/60 141/118/57 140/95/20 137/94/18
f 95/62/61 97/59/58 139/119/59 136/121/62
f 136/121/62 139/119/59 138/120/60 135/122/63
f 135/122/63 138/120/60 137/94/18 134/93/16
f 93/65/64 95/62/61 136/121/62 133/123/65
f 133/123/65 136/121/62 135/122/63 132/124/66
f 132/124/66 135/122/63 134/93/16 131/92/14
f 91/68/67 93/65/64 133/123/65 130/125/68
f 130/125/68 133/123/65 132/124/66 129/126/69
f 129/126/69 132/124/66 131/92/14 128/91/12
f 89/71/70 91/68/67 130/125/68 127/127/71
f 127/127/71 130/125/68 129/126/69 126/128/72
f 126/128/72 129/126/69 128/91/12 125/90/10
f 87/74/73 89/71/70 127/127/71 124/129/74
f 124/129/74 127/127/71 126/128/72 123/130/75
f 123/130/75 126/128/72 125/90/10 122/89/8
f 85/77/76 87/74/73 124/129/74 121/131/77
f 121/131/77 124/129/74 123/130/75 120/132/78
f 120/132/78 123/130/75 122/89/8 119/88/6
f 83/80/79 85/77/76 121/131/77 118/133/80
f 118/133/80 121/131/77 120/132/78 117/134/81
f 117/134/81 120/132/78 119/88/6 116/87/3
f 81/83/35 83/80/79 118/133/80 113/135/36
f 113/135/36 118/133/80 117/134/81 114/136/38
f 114/136/38 117/134/81 116/87/3 115/86/2
