{
	"asset":{
		"generator":"Khronos glTF Blender I/O v4.5.48",
		"version":"2.0"
	},
	"extensionsUsed":[
		"KHR_materials_specular"
	],
	"scene":0,
	"scenes":[
		{
			"name":"Scene",
			"nodes":[
				3
			]
		}
	],
	"nodes":[
		{
			"mesh":0,
			"name":"Tree_Log_1_1-convcolonly",
			"rotation":[
				-0.7187548875808716,
				0,
				0,
				0.6952636241912842
			],
			"scale":[
				0.3517688512802124,
				0.3517688810825348,
				0.3517688810825348
			]
		},
		{
			"mesh":1,
			"name":"Tree_Log_1_2-convcolonly",
			"rotation":[
				-0.7187548875808716,
				0,
				0,
				0.6952636241912842
			],
			"scale":[
				0.3517688512802124,
				0.3517688810825348,
				0.3517688810825348
			]
		},
		{
			"mesh":2,
			"name":"Tree_Log_1_3-convcolonly",
			"rotation":[
				-0.7187548875808716,
				0,
				0,
				0.6952636241912842
			],
			"scale":[
				0.3517688512802124,
				0.3517688810825348,
				0.3517688810825348
			]
		},
		{
			"children":[
				0,
				1,
				2
			],
			"mesh":3,
			"name":"Tree_Log_1"
		}
	],
	"materials":[
		{
			"doubleSided":true,
			"name":"Bark_NormalTree",
			"normalTexture":{
				"index":0
			},
			"pbrMetallicRoughness":{
				"baseColorTexture":{
					"index":1
				},
				"metallicFactor":0
			}
		},
		{
			"doubleSided":true,
			"extensions":{
				"KHR_materials_specular":{
					"specularFactor":0
				}
			},
			"name":"Bark_inside",
			"normalTexture":{
				"index":2
			},
			"pbrMetallicRoughness":{
				"baseColorTexture":{
					"index":3
				},
				"metallicFactor":0
			}
		}
	],
	"meshes":[
		{
			"name":"Cylinder.003",
			"primitives":[
				{
					"attributes":{
						"POSITION":0,
						"NORMAL":1,
						"TEXCOORD_0":2
					},
					"indices":3
				}
			]
		},
		{
			"name":"Cylinder.004",
			"primitives":[
				{
					"attributes":{
						"POSITION":4,
						"NORMAL":5,
						"TEXCOORD_0":6
					},
					"indices":7
				}
			]
		},
		{
			"name":"Cylinder.005",
			"primitives":[
				{
					"attributes":{
						"POSITION":8,
						"NORMAL":9,
						"TEXCOORD_0":10
					},
					"indices":11
				}
			]
		},
		{
			"name":"tree.002",
			"primitives":[
				{
					"attributes":{
						"POSITION":12,
						"NORMAL":13,
						"TEXCOORD_0":14,
						"COLOR_0":15,
						"COLOR_1":16
					},
					"indices":17,
					"material":0
				},
				{
					"attributes":{
						"POSITION":18,
						"NORMAL":19,
						"TEXCOORD_0":20,
						"COLOR_0":21,
						"COLOR_1":22
					},
					"indices":23,
					"material":1
				}
			]
		}
	],
	"textures":[
		{
			"sampler":0,
			"source":0
		},
		{
			"sampler":0,
			"source":1
		},
		{
			"sampler":0,
			"source":2
		},
		{
			"sampler":0,
			"source":3
		}
	],
	"images":[
		{
			"mimeType":"image/png",
			"name":"Bark_NormalTree_Normal",
			"uri":"Bark_NormalTree_Normal.png"
		},
		{
			"mimeType":"image/png",
			"name":"Bark_NormalTree",
			"uri":"Bark_NormalTree.png"
		},
		{
			"mimeType":"image/png",
			"name":"T_WoodTrim_Normal.png",
			"uri":"T_WoodTrim_Normal.png.png"
		},
		{
			"mimeType":"image/png",
			"name":"T_WoodTrim_BaseColor.png",
			"uri":"T_WoodTrim_BaseColor.png.png"
		}
	],
	"accessors":[
		{
			"bufferView":0,
			"componentType":5126,
			"count":60,
			"max":[
				1.1735237836837769,
				-0.32735675573349,
				2.3861947059631348
			],
			"min":[
				-1.0982779264450073,
				-2.3327372074127197,
				0.022403376176953316
			],
			"type":"VEC3"
		},
		{
			"bufferView":1,
			"componentType":5126,
			"count":60,
			"type":"VEC3"
		},
		{
			"bufferView":2,
			"componentType":5126,
			"count":60,
			"type":"VEC2"
		},
		{
			"bufferView":3,
			"componentType":5123,
			"count":108,
			"type":"SCALAR"
		},
		{
			"bufferView":4,
			"componentType":5126,
			"count":60,
			"max":[
				1.140009880065918,
				1.624443531036377,
				2.120762348175049
			],
			"min":[
				-0.8192185163497925,
				-0.43767574429512024,
				0.07918202877044678
			],
			"type":"VEC3"
		},
		{
			"bufferView":5,
			"componentType":5126,
			"count":60,
			"type":"VEC3"
		},
		{
			"bufferView":6,
			"componentType":5126,
			"count":60,
			"type":"VEC2"
		},
		{
			"bufferView":7,
			"componentType":5123,
			"count":108,
			"type":"SCALAR"
		},
		{
			"bufferView":8,
			"componentType":5126,
			"count":60,
			"max":[
				0.9766923785209656,
				3.313270092010498,
				1.8739755153656006
			],
			"min":[
				-0.7900320291519165,
				1.4246667623519897,
				0.08164745569229126
			],
			"type":"VEC3"
		},
		{
			"bufferView":9,
			"componentType":5126,
			"count":60,
			"type":"VEC3"
		},
		{
			"bufferView":10,
			"componentType":5126,
			"count":60,
			"type":"VEC2"
		},
		{
			"bufferView":11,
			"componentType":5123,
			"count":108,
			"type":"SCALAR"
		},
		{
			"bufferView":12,
			"componentType":5126,
			"count":327,
			"max":[
				0.45119479298591614,
				0.8606671094894409,
				0.8149082660675049
			],
			"min":[
				-0.43725693225860596,
				-0.007520825136452913,
				-1.1862112283706665
			],
			"type":"VEC3"
		},
		{
			"bufferView":13,
			"componentType":5126,
			"count":327,
			"type":"VEC3"
		},
		{
			"bufferView":14,
			"componentType":5126,
			"count":327,
			"type":"VEC2"
		},
		{
			"bufferView":15,
			"componentType":5121,
			"count":327,
			"normalized":true,
			"type":"VEC4"
		},
		{
			"bufferView":16,
			"componentType":5123,
			"count":327,
			"normalized":true,
			"type":"VEC4"
		},
		{
			"bufferView":17,
			"componentType":5123,
			"count":1020,
			"type":"SCALAR"
		},
		{
			"bufferView":18,
			"componentType":5126,
			"count":35,
			"max":[
				0.37016886472702026,
				0.7932757139205933,
				0.7424978017807007
			],
			"min":[
				-0.3595791161060333,
				0.05864676833152771,
				-1.1182454824447632
			],
			"type":"VEC3"
		},
		{
			"bufferView":19,
			"componentType":5126,
			"count":35,
			"type":"VEC3"
		},
		{
			"bufferView":20,
			"componentType":5126,
			"count":35,
			"type":"VEC2"
		},
		{
			"bufferView":21,
			"componentType":5121,
			"count":35,
			"normalized":true,
			"type":"VEC4"
		},
		{
			"bufferView":22,
			"componentType":5123,
			"count":35,
			"normalized":true,
			"type":"VEC4"
		},
		{
			"bufferView":23,
			"componentType":5123,
			"count":102,
			"type":"SCALAR"
		}
	],
	"bufferViews":[
		{
			"buffer":0,
			"byteLength":720,
			"byteOffset":0,
			"target":34962
		},
		{
			"buffer":0,
			"byteLength":720,
			"byteOffset":720,
			"target":34962
		},
		{
			"buffer":0,
			"byteLength":480,
			"byteOffset":1440,
			"target":34962
		},
		{
			"buffer":0,
			"byteLength":216,
			"byteOffset":1920,
			"target":34963
		},
		{
			"buffer":0,
			"byteLength":720,
			"byteOffset":2136,
			"target":34962
		},
		{
			"buffer":0,
			"byteLength":720,
			"byteOffset":2856,
			"target":34962
		},
		{
			"buffer":0,
			"byteLength":480,
			"byteOffset":3576,
			"target":34962
		},
		{
			"buffer":0,
			"byteLength":216,
			"byteOffset":4056,
			"target":34963
		},
		{
			"buffer":0,
			"byteLength":720,
			"byteOffset":4272,
			"target":34962
		},
		{
			"buffer":0,
			"byteLength":720,
			"byteOffset":4992,
			"target":34962
		},
		{
			"buffer":0,
			"byteLength":480,
			"byteOffset":5712,
			"target":34962
		},
		{
			"buffer":0,
			"byteLength":216,
			"byteOffset":6192,
			"target":34963
		},
		{
			"buffer":0,
			"byteLength":3924,
			"byteOffset":6408,
			"target":34962
		},
		{
			"buffer":0,
			"byteLength":3924,
			"byteOffset":10332,
			"target":34962
		},
		{
			"buffer":0,
			"byteLength":2616,
			"byteOffset":14256,
			"target":34962
		},
		{
			"buffer":0,
			"byteLength":1308,
			"byteOffset":16872,
			"target":34962
		},
		{
			"buffer":0,
			"byteLength":2616,
			"byteOffset":18180,
			"target":34962
		},
		{
			"buffer":0,
			"byteLength":2040,
			"byteOffset":20796,
			"target":34963
		},
		{
			"buffer":0,
			"byteLength":420,
			"byteOffset":22836,
			"target":34962
		},
		{
			"buffer":0,
			"byteLength":420,
			"byteOffset":23256,
			"target":34962
		},
		{
			"buffer":0,
			"byteLength":280,
			"byteOffset":23676,
			"target":34962
		},
		{
			"buffer":0,
			"byteLength":140,
			"byteOffset":23956,
			"target":34962
		},
		{
			"buffer":0,
			"byteLength":280,
			"byteOffset":24096,
			"target":34962
		},
		{
			"buffer":0,
			"byteLength":204,
			"byteOffset":24376,
			"target":34963
		}
	],
	"samplers":[
		{
			"magFilter":9729,
			"minFilter":9987
		}
	],
	"buffers":[
		{
			"byteLength":24580,
			"uri":"Tree_Log_1.bin"
		}
	]
}
