{
	"asset":{
		"generator":"Khronos glTF Blender I/O v4.5.48",
		"version":"2.0"
	},
	"extensionsUsed":[
		"KHR_materials_specular"
	],
	"scene":0,
	"scenes":[
		{
			"name":"Scene",
			"nodes":[
				3
			]
		}
	],
	"nodes":[
		{
			"mesh":0,
			"name":"Tree_Bark_1_1-convcolonly",
			"scale":[
				0.6287317872047424,
				0.6287317872047424,
				0.6287317872047424
			]
		},
		{
			"mesh":1,
			"name":"Tree_Bark_1_2-convcolonly",
			"scale":[
				0.6287317872047424,
				0.6287317872047424,
				0.6287317872047424
			]
		},
		{
			"mesh":2,
			"name":"Tree_Bark_1_3-convcolonly",
			"scale":[
				0.6287317872047424,
				0.6287317872047424,
				0.6287317872047424
			]
		},
		{
			"children":[
				0,
				1,
				2
			],
			"mesh":3,
			"name":"Tree_Bark_1"
		}
	],
	"materials":[
		{
			"doubleSided":true,
			"name":"Bark_NormalTree",
			"normalTexture":{
				"index":0
			},
			"pbrMetallicRoughness":{
				"baseColorTexture":{
					"index":1
				},
				"metallicFactor":0
			}
		},
		{
			"doubleSided":true,
			"extensions":{
				"KHR_materials_specular":{
					"specularFactor":0
				}
			},
			"name":"Bark_inside",
			"normalTexture":{
				"index":2
			},
			"pbrMetallicRoughness":{
				"baseColorTexture":{
					"index":3
				},
				"metallicFactor":0
			}
		}
	],
	"meshes":[
		{
			"name":"Cylinder",
			"primitives":[
				{
					"attributes":{
						"POSITION":0,
						"NORMAL":1,
						"TEXCOORD_0":2
					},
					"indices":3
				}
			]
		},
		{
			"name":"Cylinder.008",
			"primitives":[
				{
					"attributes":{
						"POSITION":4,
						"NORMAL":5,
						"TEXCOORD_0":6
					},
					"indices":7
				}
			]
		},
		{
			"name":"Cylinder.009",
			"primitives":[
				{
					"attributes":{
						"POSITION":8,
						"NORMAL":9,
						"TEXCOORD_0":10
					},
					"indices":11
				}
			]
		},
		{
			"name":"tree.001",
			"primitives":[
				{
					"attributes":{
						"POSITION":12,
						"NORMAL":13,
						"TEXCOORD_0":14,
						"COLOR_0":15,
						"COLOR_1":16
					},
					"indices":17,
					"material":0
				},
				{
					"attributes":{
						"POSITION":18,
						"NORMAL":19,
						"TEXCOORD_0":20,
						"COLOR_0":21,
						"COLOR_1":22
					},
					"indices":23,
					"material":1
				}
			]
		}
	],
	"textures":[
		{
			"sampler":0,
			"source":0
		},
		{
			"sampler":0,
			"source":1
		},
		{
			"sampler":0,
			"source":2
		},
		{
			"sampler":0,
			"source":3
		}
	],
	"images":[
		{
			"mimeType":"image/png",
			"name":"Bark_NormalTree_Normal",
			"uri":"Bark_NormalTree_Normal.png"
		},
		{
			"mimeType":"image/png",
			"name":"Bark_NormalTree",
			"uri":"Bark_NormalTree.png"
		},
		{
			"mimeType":"image/png",
			"name":"T_WoodTrim_Normal.png",
			"uri":"T_WoodTrim_Normal.png"
		},
		{
			"mimeType":"image/png",
			"name":"T_WoodTrim_BaseColor.png",
			"uri":"T_WoodTrim_BaseColor.png"
		}
	],
	"accessors":[
		{
			"bufferView":0,
			"componentType":5126,
			"count":60,
			"max":[
				1.090523600578308,
				0.13082316517829895,
				1.1466443538665771
			],
			"min":[
				-1.090523600578308,
				-0.385131299495697,
				-1.1466443538665771
			],
			"type":"VEC3"
		},
		{
			"bufferView":1,
			"componentType":5126,
			"count":60,
			"type":"VEC3"
		},
		{
			"bufferView":2,
			"componentType":5126,
			"count":60,
			"type":"VEC2"
		},
		{
			"bufferView":3,
			"componentType":5123,
			"count":108,
			"type":"SCALAR"
		},
		{
			"bufferView":4,
			"componentType":5126,
			"count":60,
			"max":[
				0.8515745997428894,
				0.5654115676879883,
				0.8953984379768372
			],
			"min":[
				-0.8515745997428894,
				0.13082310557365417,
				-0.8953984379768372
			],
			"type":"VEC3"
		},
		{
			"bufferView":5,
			"componentType":5126,
			"count":60,
			"type":"VEC3"
		},
		{
			"bufferView":6,
			"componentType":5126,
			"count":60,
			"type":"VEC2"
		},
		{
			"bufferView":7,
			"componentType":5123,
			"count":108,
			"type":"SCALAR"
		},
		{
			"bufferView":8,
			"componentType":5126,
			"count":60,
			"max":[
				0.6876905560493469,
				1.0303294658660889,
				0.8577026128768921
			],
			"min":[
				-0.6935366988182068,
				0.5654115676879883,
				-0.6331454515457153
			],
			"type":"VEC3"
		},
		{
			"bufferView":9,
			"componentType":5126,
			"count":60,
			"type":"VEC3"
		},
		{
			"bufferView":10,
			"componentType":5126,
			"count":60,
			"type":"VEC2"
		},
		{
			"bufferView":11,
			"componentType":5123,
			"count":108,
			"type":"SCALAR"
		},
		{
			"bufferView":12,
			"componentType":5126,
			"count":269,
			"max":[
				0.7080484628677368,
				0.6580427885055542,
				0.6139194369316101
			],
			"min":[
				-0.7080484628677368,
				-0.24277201294898987,
				-0.7408575415611267
			],
			"type":"VEC3"
		},
		{
			"bufferView":13,
			"componentType":5126,
			"count":269,
			"type":"VEC3"
		},
		{
			"bufferView":14,
			"componentType":5126,
			"count":269,
			"type":"VEC2"
		},
		{
			"bufferView":15,
			"componentType":5121,
			"count":269,
			"normalized":true,
			"type":"VEC4"
		},
		{
			"bufferView":16,
			"componentType":5123,
			"count":269,
			"normalized":true,
			"type":"VEC4"
		},
		{
			"bufferView":17,
			"componentType":5123,
			"count":864,
			"type":"SCALAR"
		},
		{
			"bufferView":18,
			"componentType":5126,
			"count":47,
			"max":[
				0.36600565910339355,
				0.6241137385368347,
				0.42457666993141174
			],
			"min":[
				-0.39264562726020813,
				0.4163631796836853,
				-0.30385345220565796
			],
			"type":"VEC3"
		},
		{
			"bufferView":19,
			"componentType":5126,
			"count":47,
			"type":"VEC3"
		},
		{
			"bufferView":20,
			"componentType":5126,
			"count":47,
			"type":"VEC2"
		},
		{
			"bufferView":21,
			"componentType":5121,
			"count":47,
			"normalized":true,
			"type":"VEC4"
		},
		{
			"bufferView":22,
			"componentType":5123,
			"count":47,
			"normalized":true,
			"type":"VEC4"
		},
		{
			"bufferView":23,
			"componentType":5123,
			"count":186,
			"type":"SCALAR"
		}
	],
	"bufferViews":[
		{
			"buffer":0,
			"byteLength":720,
			"byteOffset":0,
			"target":34962
		},
		{
			"buffer":0,
			"byteLength":720,
			"byteOffset":720,
			"target":34962
		},
		{
			"buffer":0,
			"byteLength":480,
			"byteOffset":1440,
			"target":34962
		},
		{
			"buffer":0,
			"byteLength":216,
			"byteOffset":1920,
			"target":34963
		},
		{
			"buffer":0,
			"byteLength":720,
			"byteOffset":2136,
			"target":34962
		},
		{
			"buffer":0,
			"byteLength":720,
			"byteOffset":2856,
			"target":34962
		},
		{
			"buffer":0,
			"byteLength":480,
			"byteOffset":3576,
			"target":34962
		},
		{
			"buffer":0,
			"byteLength":216,
			"byteOffset":4056,
			"target":34963
		},
		{
			"buffer":0,
			"byteLength":720,
			"byteOffset":4272,
			"target":34962
		},
		{
			"buffer":0,
			"byteLength":720,
			"byteOffset":4992,
			"target":34962
		},
		{
			"buffer":0,
			"byteLength":480,
			"byteOffset":5712,
			"target":34962
		},
		{
			"buffer":0,
			"byteLength":216,
			"byteOffset":6192,
			"target":34963
		},
		{
			"buffer":0,
			"byteLength":3228,
			"byteOffset":6408,
			"target":34962
		},
		{
			"buffer":0,
			"byteLength":3228,
			"byteOffset":9636,
			"target":34962
		},
		{
			"buffer":0,
			"byteLength":2152,
			"byteOffset":12864,
			"target":34962
		},
		{
			"buffer":0,
			"byteLength":1076,
			"byteOffset":15016,
			"target":34962
		},
		{
			"buffer":0,
			"byteLength":2152,
			"byteOffset":16092,
			"target":34962
		},
		{
			"buffer":0,
			"byteLength":1728,
			"byteOffset":18244,
			"target":34963
		},
		{
			"buffer":0,
			"byteLength":564,
			"byteOffset":19972,
			"target":34962
		},
		{
			"buffer":0,
			"byteLength":564,
			"byteOffset":20536,
			"target":34962
		},
		{
			"buffer":0,
			"byteLength":376,
			"byteOffset":21100,
			"target":34962
		},
		{
			"buffer":0,
			"byteLength":188,
			"byteOffset":21476,
			"target":34962
		},
		{
			"buffer":0,
			"byteLength":376,
			"byteOffset":21664,
			"target":34962
		},
		{
			"buffer":0,
			"byteLength":372,
			"byteOffset":22040,
			"target":34963
		}
	],
	"samplers":[
		{
			"magFilter":9729,
			"minFilter":9987
		}
	],
	"buffers":[
		{
			"byteLength":22412,
			"uri":"Tree_Bark_1.bin"
		}
	]
}
