{
	"asset":{
		"generator":"Khronos glTF Blender I/O v4.5.48",
		"version":"2.0"
	},
	"extensionsUsed":[
		"KHR_materials_specular"
	],
	"scene":0,
	"scenes":[
		{
			"name":"Scene",
			"nodes":[
				12
			]
		}
	],
	"nodes":[
		{
			"mesh":0,
			"name":"Tree_Log_2_01-convcolonly",
			"rotation":[
				-0.7187548875808716,
				0,
				0,
				0.6952636241912842
			],
			"scale":[
				0.3517688512802124,
				0.3517688810825348,
				0.3517688810825348
			]
		},
		{
			"mesh":1,
			"name":"Tree_Log_2_02-convcolonly",
			"rotation":[
				-0.7187548875808716,
				0,
				0,
				0.6952636241912842
			],
			"scale":[
				0.3517688512802124,
				0.3517688810825348,
				0.3517688810825348
			]
		},
		{
			"mesh":2,
			"name":"Tree_Log_2_03-convcolonly",
			"rotation":[
				-0.7187548875808716,
				0,
				0,
				0.6952636241912842
			],
			"scale":[
				0.3517688512802124,
				0.3517688810825348,
				0.3517688810825348
			]
		},
		{
			"mesh":3,
			"name":"Tree_Log_2_04-convcolonly",
			"rotation":[
				-0.7187548875808716,
				0,
				0,
				0.6952636241912842
			],
			"scale":[
				0.3517688512802124,
				0.3517688810825348,
				0.3517688810825348
			]
		},
		{
			"mesh":4,
			"name":"Tree_Log_2_05-convcolonly",
			"rotation":[
				-0.7187548875808716,
				0,
				0,
				0.6952636241912842
			],
			"scale":[
				0.3517688512802124,
				0.3517688810825348,
				0.3517688810825348
			]
		},
		{
			"mesh":5,
			"name":"Tree_Log_2_06-convcolonly",
			"rotation":[
				-0.7187548875808716,
				0,
				0,
				0.6952636241912842
			],
			"scale":[
				0.3517688512802124,
				0.3517688810825348,
				0.3517688810825348
			]
		},
		{
			"mesh":6,
			"name":"Tree_Log_2_07-convcolonly",
			"rotation":[
				-0.7187548875808716,
				0,
				0,
				0.6952636241912842
			],
			"scale":[
				0.3517688512802124,
				0.3517688810825348,
				0.3517688810825348
			]
		},
		{
			"mesh":7,
			"name":"Tree_Log_2_08-convcolonly",
			"rotation":[
				-0.7187548875808716,
				0,
				0,
				0.6952636241912842
			],
			"scale":[
				0.3517688512802124,
				0.3517688810825348,
				0.3517688810825348
			]
		},
		{
			"mesh":8,
			"name":"Tree_Log_2_09-convcolonly",
			"rotation":[
				-0.7187548875808716,
				0,
				0,
				0.6952636241912842
			],
			"scale":[
				0.3517688512802124,
				0.3517688810825348,
				0.3517688810825348
			]
		},
		{
			"mesh":9,
			"name":"Tree_Log_2_10-convcolonly",
			"rotation":[
				-0.7187548875808716,
				0,
				0,
				0.6952636241912842
			],
			"scale":[
				0.3517688512802124,
				0.3517688810825348,
				0.3517688810825348
			]
		},
		{
			"mesh":10,
			"name":"Tree_Log_2_11-convcolonly",
			"rotation":[
				-0.7187548875808716,
				0,
				0,
				0.6952636241912842
			],
			"scale":[
				0.3517688512802124,
				0.3517688810825348,
				0.3517688810825348
			]
		},
		{
			"mesh":11,
			"name":"Tree_Log_2_12-convcolonly",
			"rotation":[
				-0.7187548875808716,
				0,
				0,
				0.6952636241912842
			],
			"scale":[
				0.3517688512802124,
				0.3517688810825348,
				0.3517688810825348
			]
		},
		{
			"children":[
				0,
				1,
				2,
				3,
				4,
				5,
				6,
				7,
				8,
				9,
				10,
				11
			],
			"mesh":12,
			"name":"Tree_Log_2"
		}
	],
	"materials":[
		{
			"doubleSided":true,
			"name":"Bark_NormalTree",
			"normalTexture":{
				"index":0
			},
			"pbrMetallicRoughness":{
				"baseColorTexture":{
					"index":1
				},
				"metallicFactor":0
			}
		},
		{
			"doubleSided":true,
			"extensions":{
				"KHR_materials_specular":{
					"specularFactor":0
				}
			},
			"name":"Bark_inside",
			"normalTexture":{
				"index":2
			},
			"pbrMetallicRoughness":{
				"baseColorTexture":{
					"index":3
				},
				"metallicFactor":0
			}
		}
	],
	"meshes":[
		{
			"name":"Cylinder.002",
			"primitives":[
				{
					"attributes":{
						"POSITION":0,
						"NORMAL":1,
						"TEXCOORD_0":2
					},
					"indices":3
				}
			]
		},
		{
			"name":"Cylinder.010",
			"primitives":[
				{
					"attributes":{
						"POSITION":4,
						"NORMAL":5,
						"TEXCOORD_0":6
					},
					"indices":7
				}
			]
		},
		{
			"name":"Cylinder.011",
			"primitives":[
				{
					"attributes":{
						"POSITION":8,
						"NORMAL":9,
						"TEXCOORD_0":10
					},
					"indices":11
				}
			]
		},
		{
			"name":"Cylinder.012",
			"primitives":[
				{
					"attributes":{
						"POSITION":12,
						"NORMAL":13,
						"TEXCOORD_0":14
					},
					"indices":15
				}
			]
		},
		{
			"name":"Cylinder.013",
			"primitives":[
				{
					"attributes":{
						"POSITION":16,
						"NORMAL":17,
						"TEXCOORD_0":18
					},
					"indices":19
				}
			]
		},
		{
			"name":"Cylinder.014",
			"primitives":[
				{
					"attributes":{
						"POSITION":20,
						"NORMAL":21,
						"TEXCOORD_0":22
					},
					"indices":23
				}
			]
		},
		{
			"name":"Cylinder.015",
			"primitives":[
				{
					"attributes":{
						"POSITION":24,
						"NORMAL":25,
						"TEXCOORD_0":26
					},
					"indices":27
				}
			]
		},
		{
			"name":"Cylinder.016",
			"primitives":[
				{
					"attributes":{
						"POSITION":28,
						"NORMAL":29,
						"TEXCOORD_0":30
					},
					"indices":31
				}
			]
		},
		{
			"name":"Cylinder.017",
			"primitives":[
				{
					"attributes":{
						"POSITION":32,
						"NORMAL":33,
						"TEXCOORD_0":34
					},
					"indices":35
				}
			]
		},
		{
			"name":"Cylinder.018",
			"primitives":[
				{
					"attributes":{
						"POSITION":36,
						"NORMAL":37,
						"TEXCOORD_0":38
					},
					"indices":39
				}
			]
		},
		{
			"name":"Cylinder.019",
			"primitives":[
				{
					"attributes":{
						"POSITION":40,
						"NORMAL":41,
						"TEXCOORD_0":42
					},
					"indices":43
				}
			]
		},
		{
			"name":"Cylinder.020",
			"primitives":[
				{
					"attributes":{
						"POSITION":44,
						"NORMAL":45,
						"TEXCOORD_0":46
					},
					"indices":47
				}
			]
		},
		{
			"name":"tree.026",
			"primitives":[
				{
					"attributes":{
						"POSITION":48,
						"NORMAL":49,
						"TEXCOORD_0":50,
						"COLOR_0":51,
						"COLOR_1":52
					},
					"indices":53,
					"material":0
				},
				{
					"attributes":{
						"POSITION":54,
						"NORMAL":55,
						"TEXCOORD_0":56,
						"COLOR_0":57,
						"COLOR_1":58
					},
					"indices":59,
					"material":1
				}
			]
		}
	],
	"textures":[
		{
			"sampler":0,
			"source":0
		},
		{
			"sampler":0,
			"source":1
		},
		{
			"sampler":0,
			"source":2
		},
		{
			"sampler":0,
			"source":3
		}
	],
	"images":[
		{
			"mimeType":"image/png",
			"name":"Bark_NormalTree_Normal",
			"uri":"Bark_NormalTree_Normal.png"
		},
		{
			"mimeType":"image/png",
			"name":"Bark_NormalTree",
			"uri":"Bark_NormalTree.png"
		},
		{
			"mimeType":"image/png",
			"name":"T_WoodTrim_Normal.png",
			"uri":"T_WoodTrim_Normal.png"
		},
		{
			"mimeType":"image/png",
			"name":"T_WoodTrim_BaseColor.png",
			"uri":"T_WoodTrim_BaseColor.png"
		}
	],
	"accessors":[
		{
			"bufferView":0,
			"componentType":5126,
			"count":60,
			"max":[
				1.6781415939331055,
				-0.13623464107513428,
				2.3430356979370117
			],
			"min":[
				-0.7232785224914551,
				-2.5209081172943115,
				-0.021941781044006348
			],
			"type":"VEC3"
		},
		{
			"bufferView":1,
			"componentType":5126,
			"count":60,
			"type":"VEC3"
		},
		{
			"bufferView":2,
			"componentType":5126,
			"count":60,
			"type":"VEC2"
		},
		{
			"bufferView":3,
			"componentType":5123,
			"count":108,
			"type":"SCALAR"
		},
		{
			"bufferView":4,
			"componentType":5126,
			"count":60,
			"max":[
				1.1512945890426636,
				1.4373939037322998,
				2.106846570968628
			],
			"min":[
				-0.894352912902832,
				-0.47973090410232544,
				0.10688316822052002
			],
			"type":"VEC3"
		},
		{
			"bufferView":5,
			"componentType":5126,
			"count":60,
			"type":"VEC3"
		},
		{
			"bufferView":6,
			"componentType":5126,
			"count":60,
			"type":"VEC2"
		},
		{
			"bufferView":7,
			"componentType":5123,
			"count":108,
			"type":"SCALAR"
		},
		{
			"bufferView":8,
			"componentType":5126,
			"count":60,
			"max":[
				0.6595158576965332,
				2.924360513687134,
				1.9429724216461182
			],
			"min":[
				-0.947157621383667,
				1.1526637077331543,
				0.1911143660545349
			],
			"type":"VEC3"
		},
		{
			"bufferView":9,
			"componentType":5126,
			"count":60,
			"type":"VEC3"
		},
		{
			"bufferView":10,
			"componentType":5126,
			"count":60,
			"type":"VEC2"
		},
		{
			"bufferView":11,
			"componentType":5123,
			"count":108,
			"type":"SCALAR"
		},
		{
			"bufferView":12,
			"componentType":5126,
			"count":60,
			"max":[
				0.6476417779922485,
				3.9252288341522217,
				1.7019234895706177
			],
			"min":[
				-0.947157621383667,
				2.7578492164611816,
				0.05910944938659668
			],
			"type":"VEC3"
		},
		{
			"bufferView":13,
			"componentType":5126,
			"count":60,
			"type":"VEC3"
		},
		{
			"bufferView":14,
			"componentType":5126,
			"count":60,
			"type":"VEC2"
		},
		{
			"bufferView":15,
			"componentType":5123,
			"count":108,
			"type":"SCALAR"
		},
		{
			"bufferView":16,
			"componentType":5126,
			"count":36,
			"max":[
				-1.2251070737838745,
				3.453760862350464,
				2.330430269241333
			],
			"min":[
				-2.2613701820373535,
				2.4185726642608643,
				1.5329692363739014
			],
			"type":"VEC3"
		},
		{
			"bufferView":17,
			"componentType":5126,
			"count":36,
			"type":"VEC3"
		},
		{
			"bufferView":18,
			"componentType":5126,
			"count":36,
			"type":"VEC2"
		},
		{
			"bufferView":19,
			"componentType":5123,
			"count":60,
			"type":"SCALAR"
		},
		{
			"bufferView":20,
			"componentType":5126,
			"count":36,
			"max":[
				-0.45620375871658325,
				2.872652769088745,
				2.0201685428619385
			],
			"min":[
				-1.5903857946395874,
				2.0238096714019775,
				1.1386959552764893
			],
			"type":"VEC3"
		},
		{
			"bufferView":21,
			"componentType":5126,
			"count":36,
			"type":"VEC3"
		},
		{
			"bufferView":22,
			"componentType":5126,
			"count":36,
			"type":"VEC2"
		},
		{
			"bufferView":23,
			"componentType":5123,
			"count":60,
			"type":"SCALAR"
		},
		{
			"bufferView":24,
			"componentType":5126,
			"count":36,
			"max":[
				-1.8525973558425903,
				4.318066596984863,
				2.47760009765625
			],
			"min":[
				-2.6112797260284424,
				3.1914355754852295,
				1.8990583419799805
			],
			"type":"VEC3"
		},
		{
			"bufferView":25,
			"componentType":5126,
			"count":36,
			"type":"VEC3"
		},
		{
			"bufferView":26,
			"componentType":5126,
			"count":36,
			"type":"VEC2"
		},
		{
			"bufferView":27,
			"componentType":5123,
			"count":60,
			"type":"SCALAR"
		},
		{
			"bufferView":28,
			"componentType":5126,
			"count":36,
			"max":[
				-2.203917980194092,
				5.294353485107422,
				2.658176898956299
			],
			"min":[
				-2.6112797260284424,
				4.258752822875977,
				2.110291004180908
			],
			"type":"VEC3"
		},
		{
			"bufferView":29,
			"componentType":5126,
			"count":36,
			"type":"VEC3"
		},
		{
			"bufferView":30,
			"componentType":5126,
			"count":36,
			"type":"VEC2"
		},
		{
			"bufferView":31,
			"componentType":5123,
			"count":60,
			"type":"SCALAR"
		},
		{
			"bufferView":32,
			"componentType":5126,
			"count":36,
			"max":[
				2.2972259521484375,
				0.00012767314910888672,
				0.9965806007385254
			],
			"min":[
				1.270959496498108,
				-1.0152978897094727,
				0.213689923286438
			],
			"type":"VEC3"
		},
		{
			"bufferView":33,
			"componentType":5126,
			"count":36,
			"type":"VEC3"
		},
		{
			"bufferView":34,
			"componentType":5126,
			"count":36,
			"type":"VEC2"
		},
		{
			"bufferView":35,
			"componentType":5123,
			"count":60,
			"type":"SCALAR"
		},
		{
			"bufferView":36,
			"componentType":5126,
			"count":36,
			"max":[
				1.6394485235214233,
				-0.5730531811714172,
				1.4927538633346558
			],
			"min":[
				0.5296846628189087,
				-1.4062846899032593,
				0.5789985656738281
			],
			"type":"VEC3"
		},
		{
			"bufferView":37,
			"componentType":5126,
			"count":36,
			"type":"VEC3"
		},
		{
			"bufferView":38,
			"componentType":5126,
			"count":36,
			"type":"VEC2"
		},
		{
			"bufferView":39,
			"componentType":5123,
			"count":60,
			"type":"SCALAR"
		},
		{
			"bufferView":40,
			"componentType":5126,
			"count":36,
			"max":[
				2.5622141361236572,
				0.5061663389205933,
				0.6176276206970215
			],
			"min":[
				1.9075040817260742,
				-0.26653915643692017,
				0.09555447101593018
			],
			"type":"VEC3"
		},
		{
			"bufferView":41,
			"componentType":5126,
			"count":36,
			"type":"VEC3"
		},
		{
			"bufferView":42,
			"componentType":5126,
			"count":36,
			"type":"VEC2"
		},
		{
			"bufferView":43,
			"componentType":5123,
			"count":60,
			"type":"SCALAR"
		},
		{
			"bufferView":44,
			"componentType":5126,
			"count":36,
			"max":[
				2.5731453895568848,
				1.3669137954711914,
				0.4789506793022156
			],
			"min":[
				2.1568167209625244,
				0.4508514404296875,
				0.0449368953704834
			],
			"type":"VEC3"
		},
		{
			"bufferView":45,
			"componentType":5126,
			"count":36,
			"type":"VEC3"
		},
		{
			"bufferView":46,
			"componentType":5126,
			"count":36,
			"type":"VEC2"
		},
		{
			"bufferView":47,
			"componentType":5123,
			"count":60,
			"type":"SCALAR"
		},
		{
			"bufferView":48,
			"componentType":5126,
			"count":991,
			"max":[
				1.0944101810455322,
				1.0356162786483765,
				0.8738025426864624
			],
			"min":[
				-1.1410322189331055,
				-0.01962459273636341,
				-2.4204394817352295
			],
			"type":"VEC3"
		},
		{
			"bufferView":49,
			"componentType":5126,
			"count":991,
			"type":"VEC3"
		},
		{
			"bufferView":50,
			"componentType":5126,
			"count":991,
			"type":"VEC2"
		},
		{
			"bufferView":51,
			"componentType":5121,
			"count":991,
			"normalized":true,
			"type":"VEC4"
		},
		{
			"bufferView":52,
			"componentType":5123,
			"count":991,
			"normalized":true,
			"type":"VEC4"
		},
		{
			"bufferView":53,
			"componentType":5123,
			"count":4098,
			"type":"SCALAR"
		},
		{
			"bufferView":54,
			"componentType":5126,
			"count":36,
			"max":[
				0.4942207932472229,
				0.7094759941101074,
				0.7736353874206543
			],
			"min":[
				-0.23264873027801514,
				0.04291887581348419,
				-1.333287239074707
			],
			"type":"VEC3"
		},
		{
			"bufferView":55,
			"componentType":5126,
			"count":36,
			"type":"VEC3"
		},
		{
			"bufferView":56,
			"componentType":5126,
			"count":36,
			"type":"VEC2"
		},
		{
			"bufferView":57,
			"componentType":5121,
			"count":36,
			"normalized":true,
			"type":"VEC4"
		},
		{
			"bufferView":58,
			"componentType":5123,
			"count":36,
			"normalized":true,
			"type":"VEC4"
		},
		{
			"bufferView":59,
			"componentType":5123,
			"count":102,
			"type":"SCALAR"
		}
	],
	"bufferViews":[
		{
			"buffer":0,
			"byteLength":720,
			"byteOffset":0,
			"target":34962
		},
		{
			"buffer":0,
			"byteLength":720,
			"byteOffset":720,
			"target":34962
		},
		{
			"buffer":0,
			"byteLength":480,
			"byteOffset":1440,
			"target":34962
		},
		{
			"buffer":0,
			"byteLength":216,
			"byteOffset":1920,
			"target":34963
		},
		{
			"buffer":0,
			"byteLength":720,
			"byteOffset":2136,
			"target":34962
		},
		{
			"buffer":0,
			"byteLength":720,
			"byteOffset":2856,
			"target":34962
		},
		{
			"buffer":0,
			"byteLength":480,
			"byteOffset":3576,
			"target":34962
		},
		{
			"buffer":0,
			"byteLength":216,
			"byteOffset":4056,
			"target":34963
		},
		{
			"buffer":0,
			"byteLength":720,
			"byteOffset":4272,
			"target":34962
		},
		{
			"buffer":0,
			"byteLength":720,
			"byteOffset":4992,
			"target":34962
		},
		{
			"buffer":0,
			"byteLength":480,
			"byteOffset":5712,
			"target":34962
		},
		{
			"buffer":0,
			"byteLength":216,
			"byteOffset":6192,
			"target":34963
		},
		{
			"buffer":0,
			"byteLength":720,
			"byteOffset":6408,
			"target":34962
		},
		{
			"buffer":0,
			"byteLength":720,
			"byteOffset":7128,
			"target":34962
		},
		{
			"buffer":0,
			"byteLength":480,
			"byteOffset":7848,
			"target":34962
		},
		{
			"buffer":0,
			"byteLength":216,
			"byteOffset":8328,
			"target":34963
		},
		{
			"buffer":0,
			"byteLength":432,
			"byteOffset":8544,
			"target":34962
		},
		{
			"buffer":0,
			"byteLength":432,
			"byteOffset":8976,
			"target":34962
		},
		{
			"buffer":0,
			"byteLength":288,
			"byteOffset":9408,
			"target":34962
		},
		{
			"buffer":0,
			"byteLength":120,
			"byteOffset":9696,
			"target":34963
		},
		{
			"buffer":0,
			"byteLength":432,
			"byteOffset":9816,
			"target":34962
		},
		{
			"buffer":0,
			"byteLength":432,
			"byteOffset":10248,
			"target":34962
		},
		{
			"buffer":0,
			"byteLength":288,
			"byteOffset":10680,
			"target":34962
		},
		{
			"buffer":0,
			"byteLength":120,
			"byteOffset":10968,
			"target":34963
		},
		{
			"buffer":0,
			"byteLength":432,
			"byteOffset":11088,
			"target":34962
		},
		{
			"buffer":0,
			"byteLength":432,
			"byteOffset":11520,
			"target":34962
		},
		{
			"buffer":0,
			"byteLength":288,
			"byteOffset":11952,
			"target":34962
		},
		{
			"buffer":0,
			"byteLength":120,
			"byteOffset":12240,
			"target":34963
		},
		{
			"buffer":0,
			"byteLength":432,
			"byteOffset":12360,
			"target":34962
		},
		{
			"buffer":0,
			"byteLength":432,
			"byteOffset":12792,
			"target":34962
		},
		{
			"buffer":0,
			"byteLength":288,
			"byteOffset":13224,
			"target":34962
		},
		{
			"buffer":0,
			"byteLength":120,
			"byteOffset":13512,
			"target":34963
		},
		{
			"buffer":0,
			"byteLength":432,
			"byteOffset":13632,
			"target":34962
		},
		{
			"buffer":0,
			"byteLength":432,
			"byteOffset":14064,
			"target":34962
		},
		{
			"buffer":0,
			"byteLength":288,
			"byteOffset":14496,
			"target":34962
		},
		{
			"buffer":0,
			"byteLength":120,
			"byteOffset":14784,
			"target":34963
		},
		{
			"buffer":0,
			"byteLength":432,
			"byteOffset":14904,
			"target":34962
		},
		{
			"buffer":0,
			"byteLength":432,
			"byteOffset":15336,
			"target":34962
		},
		{
			"buffer":0,
			"byteLength":288,
			"byteOffset":15768,
			"target":34962
		},
		{
			"buffer":0,
			"byteLength":120,
			"byteOffset":16056,
			"target":34963
		},
		{
			"buffer":0,
			"byteLength":432,
			"byteOffset":16176,
			"target":34962
		},
		{
			"buffer":0,
			"byteLength":432,
			"byteOffset":16608,
			"target":34962
		},
		{
			"buffer":0,
			"byteLength":288,
			"byteOffset":17040,
			"target":34962
		},
		{
			"buffer":0,
			"byteLength":120,
			"byteOffset":17328,
			"target":34963
		},
		{
			"buffer":0,
			"byteLength":432,
			"byteOffset":17448,
			"target":34962
		},
		{
			"buffer":0,
			"byteLength":432,
			"byteOffset":17880,
			"target":34962
		},
		{
			"buffer":0,
			"byteLength":288,
			"byteOffset":18312,
			"target":34962
		},
		{
			"buffer":0,
			"byteLength":120,
			"byteOffset":18600,
			"target":34963
		},
		{
			"buffer":0,
			"byteLength":11892,
			"byteOffset":18720,
			"target":34962
		},
		{
			"buffer":0,
			"byteLength":11892,
			"byteOffset":30612,
			"target":34962
		},
		{
			"buffer":0,
			"byteLength":7928,
			"byteOffset":42504,
			"target":34962
		},
		{
			"buffer":0,
			"byteLength":3964,
			"byteOffset":50432,
			"target":34962
		},
		{
			"buffer":0,
			"byteLength":7928,
			"byteOffset":54396,
			"target":34962
		},
		{
			"buffer":0,
			"byteLength":8196,
			"byteOffset":62324,
			"target":34963
		},
		{
			"buffer":0,
			"byteLength":432,
			"byteOffset":70520,
			"target":34962
		},
		{
			"buffer":0,
			"byteLength":432,
			"byteOffset":70952,
			"target":34962
		},
		{
			"buffer":0,
			"byteLength":288,
			"byteOffset":71384,
			"target":34962
		},
		{
			"buffer":0,
			"byteLength":144,
			"byteOffset":71672,
			"target":34962
		},
		{
			"buffer":0,
			"byteLength":288,
			"byteOffset":71816,
			"target":34962
		},
		{
			"buffer":0,
			"byteLength":204,
			"byteOffset":72104,
			"target":34963
		}
	],
	"samplers":[
		{
			"magFilter":9729,
			"minFilter":9987
		}
	],
	"buffers":[
		{
			"byteLength":72308,
			"uri":"Tree_Log_2.bin"
		}
	]
}
