{
	"asset":{
		"generator":"Khronos glTF Blender I/O v4.5.48",
		"version":"2.0"
	},
	"extensionsUsed":[
		"KHR_materials_specular"
	],
	"scene":0,
	"scenes":[
		{
			"name":"Scene",
			"nodes":[
				3
			]
		}
	],
	"nodes":[
		{
			"mesh":0,
			"name":"Tree_Bark_2_1-convcolonly",
			"scale":[
				0.6287317872047424,
				0.6287317872047424,
				0.6287317872047424
			]
		},
		{
			"mesh":1,
			"name":"Tree_Bark_2_2-convcolonly",
			"scale":[
				0.6287317872047424,
				0.6287317872047424,
				0.6287317872047424
			]
		},
		{
			"mesh":2,
			"name":"Tree_Bark_2_3-convcolonly",
			"scale":[
				0.6287317872047424,
				0.6287317872047424,
				0.6287317872047424
			]
		},
		{
			"children":[
				0,
				1,
				2
			],
			"mesh":3,
			"name":"Tree_Bark_2"
		}
	],
	"materials":[
		{
			"doubleSided":true,
			"name":"Bark_NormalTree",
			"normalTexture":{
				"index":0
			},
			"pbrMetallicRoughness":{
				"baseColorTexture":{
					"index":1
				},
				"metallicFactor":0
			}
		},
		{
			"doubleSided":true,
			"extensions":{
				"KHR_materials_specular":{
					"specularFactor":0
				}
			},
			"name":"Bark_inside",
			"normalTexture":{
				"index":2
			},
			"pbrMetallicRoughness":{
				"baseColorTexture":{
					"index":3
				},
				"metallicFactor":0
			}
		}
	],
	"meshes":[
		{
			"name":"Cylinder.001",
			"primitives":[
				{
					"attributes":{
						"POSITION":0,
						"NORMAL":1,
						"TEXCOORD_0":2
					},
					"indices":3
				}
			]
		},
		{
			"name":"Cylinder.006",
			"primitives":[
				{
					"attributes":{
						"POSITION":4,
						"NORMAL":5,
						"TEXCOORD_0":6
					},
					"indices":7
				}
			]
		},
		{
			"name":"Cylinder.007",
			"primitives":[
				{
					"attributes":{
						"POSITION":8,
						"NORMAL":9,
						"TEXCOORD_0":10
					},
					"indices":11
				}
			]
		},
		{
			"name":"tree.005",
			"primitives":[
				{
					"attributes":{
						"POSITION":12,
						"NORMAL":13,
						"TEXCOORD_0":14,
						"COLOR_0":15,
						"COLOR_1":16
					},
					"indices":17,
					"material":0
				},
				{
					"attributes":{
						"POSITION":18,
						"NORMAL":19,
						"TEXCOORD_0":20,
						"COLOR_0":21,
						"COLOR_1":22
					},
					"indices":23,
					"material":1
				}
			]
		}
	],
	"textures":[
		{
			"sampler":0,
			"source":0
		},
		{
			"sampler":0,
			"source":1
		},
		{
			"sampler":0,
			"source":2
		},
		{
			"sampler":0,
			"source":3
		}
	],
	"images":[
		{
			"mimeType":"image/png",
			"name":"Bark_NormalTree_Normal",
			"uri":"Bark_NormalTree_Normal.png"
		},
		{
			"mimeType":"image/png",
			"name":"Bark_NormalTree",
			"uri":"Bark_NormalTree.png"
		},
		{
			"mimeType":"image/png",
			"name":"T_WoodTrim_Normal.png",
			"uri":"T_WoodTrim_Normal.png"
		},
		{
			"mimeType":"image/png",
			"name":"T_WoodTrim_BaseColor.png",
			"uri":"T_WoodTrim_BaseColor.png"
		}
	],
	"accessors":[
		{
			"bufferView":0,
			"componentType":5126,
			"count":60,
			"max":[
				0.5770857930183411,
				1.506158709526062,
				0.8447198867797852
			],
			"min":[
				-0.8635207414627075,
				0.542193591594696,
				-0.6994035243988037
			],
			"type":"VEC3"
		},
		{
			"bufferView":1,
			"componentType":5126,
			"count":60,
			"type":"VEC3"
		},
		{
			"bufferView":2,
			"componentType":5126,
			"count":60,
			"type":"VEC2"
		},
		{
			"bufferView":3,
			"componentType":5123,
			"count":108,
			"type":"SCALAR"
		},
		{
			"bufferView":4,
			"componentType":5126,
			"count":60,
			"max":[
				1.090523600578308,
				0.347967267036438,
				1.1466443538665771
			],
			"min":[
				-1.090523600578308,
				-0.385131299495697,
				-1.1466443538665771
			],
			"type":"VEC3"
		},
		{
			"bufferView":5,
			"componentType":5126,
			"count":60,
			"type":"VEC3"
		},
		{
			"bufferView":6,
			"componentType":5126,
			"count":60,
			"type":"VEC2"
		},
		{
			"bufferView":7,
			"componentType":5123,
			"count":108,
			"type":"SCALAR"
		},
		{
			"bufferView":8,
			"componentType":5126,
			"count":60,
			"max":[
				0.7215014100074768,
				0.817783534526825,
				0.8507952094078064
			],
			"min":[
				-0.871106743812561,
				0.11626219004392624,
				-0.8414018750190735
			],
			"type":"VEC3"
		},
		{
			"bufferView":9,
			"componentType":5126,
			"count":60,
			"type":"VEC3"
		},
		{
			"bufferView":10,
			"componentType":5126,
			"count":60,
			"type":"VEC2"
		},
		{
			"bufferView":11,
			"componentType":5123,
			"count":108,
			"type":"SCALAR"
		},
		{
			"bufferView":12,
			"componentType":5126,
			"count":302,
			"max":[
				0.7080484628677368,
				0.9579732418060303,
				0.6139194369316101
			],
			"min":[
				-0.7080484628677368,
				-0.24277201294898987,
				-0.7408575415611267
			],
			"type":"VEC3"
		},
		{
			"bufferView":13,
			"componentType":5126,
			"count":302,
			"type":"VEC3"
		},
		{
			"bufferView":14,
			"componentType":5126,
			"count":302,
			"type":"VEC2"
		},
		{
			"bufferView":15,
			"componentType":5121,
			"count":302,
			"normalized":true,
			"type":"VEC4"
		},
		{
			"bufferView":16,
			"componentType":5123,
			"count":302,
			"normalized":true,
			"type":"VEC4"
		},
		{
			"bufferView":17,
			"componentType":5123,
			"count":924,
			"type":"SCALAR"
		},
		{
			"bufferView":18,
			"componentType":5126,
			"count":37,
			"max":[
				0.17684334516525269,
				0.8682230710983276,
				0.4471009075641632
			],
			"min":[
				-0.4675547182559967,
				0.6549768447875977,
				-0.2279224842786789
			],
			"type":"VEC3"
		},
		{
			"bufferView":19,
			"componentType":5126,
			"count":37,
			"type":"VEC3"
		},
		{
			"bufferView":20,
			"componentType":5126,
			"count":37,
			"type":"VEC2"
		},
		{
			"bufferView":21,
			"componentType":5121,
			"count":37,
			"normalized":true,
			"type":"VEC4"
		},
		{
			"bufferView":22,
			"componentType":5123,
			"count":37,
			"normalized":true,
			"type":"VEC4"
		},
		{
			"bufferView":23,
			"componentType":5123,
			"count":168,
			"type":"SCALAR"
		}
	],
	"bufferViews":[
		{
			"buffer":0,
			"byteLength":720,
			"byteOffset":0,
			"target":34962
		},
		{
			"buffer":0,
			"byteLength":720,
			"byteOffset":720,
			"target":34962
		},
		{
			"buffer":0,
			"byteLength":480,
			"byteOffset":1440,
			"target":34962
		},
		{
			"buffer":0,
			"byteLength":216,
			"byteOffset":1920,
			"target":34963
		},
		{
			"buffer":0,
			"byteLength":720,
			"byteOffset":2136,
			"target":34962
		},
		{
			"buffer":0,
			"byteLength":720,
			"byteOffset":2856,
			"target":34962
		},
		{
			"buffer":0,
			"byteLength":480,
			"byteOffset":3576,
			"target":34962
		},
		{
			"buffer":0,
			"byteLength":216,
			"byteOffset":4056,
			"target":34963
		},
		{
			"buffer":0,
			"byteLength":720,
			"byteOffset":4272,
			"target":34962
		},
		{
			"buffer":0,
			"byteLength":720,
			"byteOffset":4992,
			"target":34962
		},
		{
			"buffer":0,
			"byteLength":480,
			"byteOffset":5712,
			"target":34962
		},
		{
			"buffer":0,
			"byteLength":216,
			"byteOffset":6192,
			"target":34963
		},
		{
			"buffer":0,
			"byteLength":3624,
			"byteOffset":6408,
			"target":34962
		},
		{
			"buffer":0,
			"byteLength":3624,
			"byteOffset":10032,
			"target":34962
		},
		{
			"buffer":0,
			"byteLength":2416,
			"byteOffset":13656,
			"target":34962
		},
		{
			"buffer":0,
			"byteLength":1208,
			"byteOffset":16072,
			"target":34962
		},
		{
			"buffer":0,
			"byteLength":2416,
			"byteOffset":17280,
			"target":34962
		},
		{
			"buffer":0,
			"byteLength":1848,
			"byteOffset":19696,
			"target":34963
		},
		{
			"buffer":0,
			"byteLength":444,
			"byteOffset":21544,
			"target":34962
		},
		{
			"buffer":0,
			"byteLength":444,
			"byteOffset":21988,
			"target":34962
		},
		{
			"buffer":0,
			"byteLength":296,
			"byteOffset":22432,
			"target":34962
		},
		{
			"buffer":0,
			"byteLength":148,
			"byteOffset":22728,
			"target":34962
		},
		{
			"buffer":0,
			"byteLength":296,
			"byteOffset":22876,
			"target":34962
		},
		{
			"buffer":0,
			"byteLength":336,
			"byteOffset":23172,
			"target":34963
		}
	],
	"samplers":[
		{
			"magFilter":9729,
			"minFilter":9987
		}
	],
	"buffers":[
		{
			"byteLength":23508,
			"uri":"Tree_Bark_2.bin"
		}
	]
}
